G04 #@! TF.GenerationSoftware,KiCad,Pcbnew,(5.1.10)-1*
G04 #@! TF.CreationDate,2021-08-25T17:02:57-07:00*
G04 #@! TF.ProjectId,USB breakout,55534220-6272-4656-916b-6f75742e6b69,rev?*
G04 #@! TF.SameCoordinates,Original*
G04 #@! TF.FileFunction,Legend,Top*
G04 #@! TF.FilePolarity,Positive*
%FSLAX46Y46*%
G04 Gerber Fmt 4.6, Leading zero omitted, Abs format (unit mm)*
G04 Created by KiCad (PCBNEW (5.1.10)-1) date 2021-08-25 17:02:57*
%MOMM*%
%LPD*%
G01*
G04 APERTURE LIST*
%ADD10C,0.150000*%
%ADD11C,0.120000*%
%ADD12C,0.125000*%
%ADD13R,1.700000X1.700000*%
%ADD14O,1.700000X1.700000*%
%ADD15R,1.350000X0.400000*%
%ADD16O,0.950000X1.250000*%
%ADD17R,1.550000X1.500000*%
%ADD18R,1.550000X1.200000*%
%ADD19O,1.550000X0.890000*%
G04 APERTURE END LIST*
D10*
X101714285Y-98416666D02*
X102190476Y-98416666D01*
X101619047Y-98702380D02*
X101952380Y-97702380D01*
X102285714Y-98702380D01*
X102476190Y-97702380D02*
X103047619Y-97702380D01*
X102761904Y-98702380D02*
X102761904Y-97702380D01*
X103380952Y-98702380D02*
X103380952Y-98035714D01*
X103380952Y-98130952D02*
X103428571Y-98083333D01*
X103523809Y-98035714D01*
X103666666Y-98035714D01*
X103761904Y-98083333D01*
X103809523Y-98178571D01*
X103809523Y-98702380D01*
X103809523Y-98178571D02*
X103857142Y-98083333D01*
X103952380Y-98035714D01*
X104095238Y-98035714D01*
X104190476Y-98083333D01*
X104238095Y-98178571D01*
X104238095Y-98702380D01*
X105095238Y-98654761D02*
X105000000Y-98702380D01*
X104809523Y-98702380D01*
X104714285Y-98654761D01*
X104666666Y-98559523D01*
X104666666Y-98178571D01*
X104714285Y-98083333D01*
X104809523Y-98035714D01*
X105000000Y-98035714D01*
X105095238Y-98083333D01*
X105142857Y-98178571D01*
X105142857Y-98273809D01*
X104666666Y-98369047D01*
X106000000Y-98035714D02*
X106000000Y-98845238D01*
X105952380Y-98940476D01*
X105904761Y-98988095D01*
X105809523Y-99035714D01*
X105666666Y-99035714D01*
X105571428Y-98988095D01*
X106000000Y-98654761D02*
X105904761Y-98702380D01*
X105714285Y-98702380D01*
X105619047Y-98654761D01*
X105571428Y-98607142D01*
X105523809Y-98511904D01*
X105523809Y-98226190D01*
X105571428Y-98130952D01*
X105619047Y-98083333D01*
X105714285Y-98035714D01*
X105904761Y-98035714D01*
X106000000Y-98083333D01*
X106904761Y-98702380D02*
X106904761Y-98178571D01*
X106857142Y-98083333D01*
X106761904Y-98035714D01*
X106571428Y-98035714D01*
X106476190Y-98083333D01*
X106904761Y-98654761D02*
X106809523Y-98702380D01*
X106571428Y-98702380D01*
X106476190Y-98654761D01*
X106428571Y-98559523D01*
X106428571Y-98464285D01*
X106476190Y-98369047D01*
X106571428Y-98321428D01*
X106809523Y-98321428D01*
X106904761Y-98273809D01*
X107285714Y-97702380D02*
X107904761Y-97702380D01*
X107571428Y-98083333D01*
X107714285Y-98083333D01*
X107809523Y-98130952D01*
X107857142Y-98178571D01*
X107904761Y-98273809D01*
X107904761Y-98511904D01*
X107857142Y-98607142D01*
X107809523Y-98654761D01*
X107714285Y-98702380D01*
X107428571Y-98702380D01*
X107333333Y-98654761D01*
X107285714Y-98607142D01*
X108285714Y-97797619D02*
X108333333Y-97750000D01*
X108428571Y-97702380D01*
X108666666Y-97702380D01*
X108761904Y-97750000D01*
X108809523Y-97797619D01*
X108857142Y-97892857D01*
X108857142Y-97988095D01*
X108809523Y-98130952D01*
X108238095Y-98702380D01*
X108857142Y-98702380D01*
X109714285Y-98035714D02*
X109714285Y-98702380D01*
X109285714Y-98035714D02*
X109285714Y-98559523D01*
X109333333Y-98654761D01*
X109428571Y-98702380D01*
X109571428Y-98702380D01*
X109666666Y-98654761D01*
X109714285Y-98607142D01*
X110619047Y-98035714D02*
X110619047Y-98702380D01*
X110380952Y-97654761D02*
X110142857Y-98369047D01*
X110761904Y-98369047D01*
X111904761Y-97702380D02*
X111904761Y-98511904D01*
X111952380Y-98607142D01*
X112000000Y-98654761D01*
X112095238Y-98702380D01*
X112285714Y-98702380D01*
X112380952Y-98654761D01*
X112428571Y-98607142D01*
X112476190Y-98511904D01*
X112476190Y-97702380D01*
X112904761Y-98654761D02*
X113047619Y-98702380D01*
X113285714Y-98702380D01*
X113380952Y-98654761D01*
X113428571Y-98607142D01*
X113476190Y-98511904D01*
X113476190Y-98416666D01*
X113428571Y-98321428D01*
X113380952Y-98273809D01*
X113285714Y-98226190D01*
X113095238Y-98178571D01*
X113000000Y-98130952D01*
X112952380Y-98083333D01*
X112904761Y-97988095D01*
X112904761Y-97892857D01*
X112952380Y-97797619D01*
X113000000Y-97750000D01*
X113095238Y-97702380D01*
X113333333Y-97702380D01*
X113476190Y-97750000D01*
X114238095Y-98178571D02*
X114380952Y-98226190D01*
X114428571Y-98273809D01*
X114476190Y-98369047D01*
X114476190Y-98511904D01*
X114428571Y-98607142D01*
X114380952Y-98654761D01*
X114285714Y-98702380D01*
X113904761Y-98702380D01*
X113904761Y-97702380D01*
X114238095Y-97702380D01*
X114333333Y-97750000D01*
X114380952Y-97797619D01*
X114428571Y-97892857D01*
X114428571Y-97988095D01*
X114380952Y-98083333D01*
X114333333Y-98130952D01*
X114238095Y-98178571D01*
X113904761Y-98178571D01*
X115666666Y-98702380D02*
X115666666Y-97702380D01*
X116095238Y-98702380D02*
X116095238Y-98178571D01*
X116047619Y-98083333D01*
X115952380Y-98035714D01*
X115809523Y-98035714D01*
X115714285Y-98083333D01*
X115666666Y-98130952D01*
X116952380Y-98654761D02*
X116857142Y-98702380D01*
X116666666Y-98702380D01*
X116571428Y-98654761D01*
X116523809Y-98559523D01*
X116523809Y-98178571D01*
X116571428Y-98083333D01*
X116666666Y-98035714D01*
X116857142Y-98035714D01*
X116952380Y-98083333D01*
X117000000Y-98178571D01*
X117000000Y-98273809D01*
X116523809Y-98369047D01*
X117857142Y-98702380D02*
X117857142Y-98178571D01*
X117809523Y-98083333D01*
X117714285Y-98035714D01*
X117523809Y-98035714D01*
X117428571Y-98083333D01*
X117857142Y-98654761D02*
X117761904Y-98702380D01*
X117523809Y-98702380D01*
X117428571Y-98654761D01*
X117380952Y-98559523D01*
X117380952Y-98464285D01*
X117428571Y-98369047D01*
X117523809Y-98321428D01*
X117761904Y-98321428D01*
X117857142Y-98273809D01*
X118761904Y-98702380D02*
X118761904Y-97702380D01*
X118761904Y-98654761D02*
X118666666Y-98702380D01*
X118476190Y-98702380D01*
X118380952Y-98654761D01*
X118333333Y-98607142D01*
X118285714Y-98511904D01*
X118285714Y-98226190D01*
X118333333Y-98130952D01*
X118380952Y-98083333D01*
X118476190Y-98035714D01*
X118666666Y-98035714D01*
X118761904Y-98083333D01*
X119619047Y-98654761D02*
X119523809Y-98702380D01*
X119333333Y-98702380D01*
X119238095Y-98654761D01*
X119190476Y-98559523D01*
X119190476Y-98178571D01*
X119238095Y-98083333D01*
X119333333Y-98035714D01*
X119523809Y-98035714D01*
X119619047Y-98083333D01*
X119666666Y-98178571D01*
X119666666Y-98273809D01*
X119190476Y-98369047D01*
X120095238Y-98702380D02*
X120095238Y-98035714D01*
X120095238Y-98226190D02*
X120142857Y-98130952D01*
X120190476Y-98083333D01*
X120285714Y-98035714D01*
X120380952Y-98035714D01*
X126676309Y-97702380D02*
X127009642Y-98702380D01*
X127342976Y-97702380D01*
X128009642Y-98178571D02*
X128152500Y-98226190D01*
X128200119Y-98273809D01*
X128247738Y-98369047D01*
X128247738Y-98511904D01*
X128200119Y-98607142D01*
X128152500Y-98654761D01*
X128057261Y-98702380D01*
X127676309Y-98702380D01*
X127676309Y-97702380D01*
X128009642Y-97702380D01*
X128104880Y-97750000D01*
X128152500Y-97797619D01*
X128200119Y-97892857D01*
X128200119Y-97988095D01*
X128152500Y-98083333D01*
X128104880Y-98130952D01*
X128009642Y-98178571D01*
X127676309Y-98178571D01*
X129104880Y-98035714D02*
X129104880Y-98702380D01*
X128676309Y-98035714D02*
X128676309Y-98559523D01*
X128723928Y-98654761D01*
X128819166Y-98702380D01*
X128962023Y-98702380D01*
X129057261Y-98654761D01*
X129104880Y-98607142D01*
X129533452Y-98654761D02*
X129628690Y-98702380D01*
X129819166Y-98702380D01*
X129914404Y-98654761D01*
X129962023Y-98559523D01*
X129962023Y-98511904D01*
X129914404Y-98416666D01*
X129819166Y-98369047D01*
X129676309Y-98369047D01*
X129581071Y-98321428D01*
X129533452Y-98226190D01*
X129533452Y-98178571D01*
X129581071Y-98083333D01*
X129676309Y-98035714D01*
X129819166Y-98035714D01*
X129914404Y-98083333D01*
X126533452Y-95202380D02*
X126533452Y-96011904D01*
X126581071Y-96107142D01*
X126628690Y-96154761D01*
X126723928Y-96202380D01*
X126914404Y-96202380D01*
X127009642Y-96154761D01*
X127057261Y-96107142D01*
X127104880Y-96011904D01*
X127104880Y-95202380D01*
X128152500Y-96107142D02*
X128104880Y-96154761D01*
X127962023Y-96202380D01*
X127866785Y-96202380D01*
X127723928Y-96154761D01*
X127628690Y-96059523D01*
X127581071Y-95964285D01*
X127533452Y-95773809D01*
X127533452Y-95630952D01*
X127581071Y-95440476D01*
X127628690Y-95345238D01*
X127723928Y-95250000D01*
X127866785Y-95202380D01*
X127962023Y-95202380D01*
X128104880Y-95250000D01*
X128152500Y-95297619D01*
X129009642Y-96202380D02*
X129009642Y-95678571D01*
X128962023Y-95583333D01*
X128866785Y-95535714D01*
X128676309Y-95535714D01*
X128581071Y-95583333D01*
X129009642Y-96154761D02*
X128914404Y-96202380D01*
X128676309Y-96202380D01*
X128581071Y-96154761D01*
X128533452Y-96059523D01*
X128533452Y-95964285D01*
X128581071Y-95869047D01*
X128676309Y-95821428D01*
X128914404Y-95821428D01*
X129009642Y-95773809D01*
X129485833Y-95535714D02*
X129485833Y-96535714D01*
X129485833Y-95583333D02*
X129581071Y-95535714D01*
X129771547Y-95535714D01*
X129866785Y-95583333D01*
X129914404Y-95630952D01*
X129962023Y-95726190D01*
X129962023Y-96011904D01*
X129914404Y-96107142D01*
X129866785Y-96154761D01*
X129771547Y-96202380D01*
X129581071Y-96202380D01*
X129485833Y-96154761D01*
X126533452Y-92452380D02*
X126533452Y-93261904D01*
X126581071Y-93357142D01*
X126628690Y-93404761D01*
X126723928Y-93452380D01*
X126914404Y-93452380D01*
X127009642Y-93404761D01*
X127057261Y-93357142D01*
X127104880Y-93261904D01*
X127104880Y-92452380D01*
X128104880Y-92500000D02*
X128009642Y-92452380D01*
X127866785Y-92452380D01*
X127723928Y-92500000D01*
X127628690Y-92595238D01*
X127581071Y-92690476D01*
X127533452Y-92880952D01*
X127533452Y-93023809D01*
X127581071Y-93214285D01*
X127628690Y-93309523D01*
X127723928Y-93404761D01*
X127866785Y-93452380D01*
X127962023Y-93452380D01*
X128104880Y-93404761D01*
X128152500Y-93357142D01*
X128152500Y-93023809D01*
X127962023Y-93023809D01*
X128581071Y-92785714D02*
X128581071Y-93452380D01*
X128581071Y-92880952D02*
X128628690Y-92833333D01*
X128723928Y-92785714D01*
X128866785Y-92785714D01*
X128962023Y-92833333D01*
X129009642Y-92928571D01*
X129009642Y-93452380D01*
X129914404Y-93452380D02*
X129914404Y-92452380D01*
X129914404Y-93404761D02*
X129819166Y-93452380D01*
X129628690Y-93452380D01*
X129533452Y-93404761D01*
X129485833Y-93357142D01*
X129438214Y-93261904D01*
X129438214Y-92976190D01*
X129485833Y-92880952D01*
X129533452Y-92833333D01*
X129628690Y-92785714D01*
X129819166Y-92785714D01*
X129914404Y-92833333D01*
X128152500Y-90952380D02*
X128152500Y-89952380D01*
X128390595Y-89952380D01*
X128533452Y-90000000D01*
X128628690Y-90095238D01*
X128676309Y-90190476D01*
X128723928Y-90380952D01*
X128723928Y-90523809D01*
X128676309Y-90714285D01*
X128628690Y-90809523D01*
X128533452Y-90904761D01*
X128390595Y-90952380D01*
X128152500Y-90952380D01*
X129152500Y-90571428D02*
X129914404Y-90571428D01*
X129533452Y-90952380D02*
X129533452Y-90190476D01*
X128152500Y-88452380D02*
X128152500Y-87452380D01*
X128390595Y-87452380D01*
X128533452Y-87500000D01*
X128628690Y-87595238D01*
X128676309Y-87690476D01*
X128723928Y-87880952D01*
X128723928Y-88023809D01*
X128676309Y-88214285D01*
X128628690Y-88309523D01*
X128533452Y-88404761D01*
X128390595Y-88452380D01*
X128152500Y-88452380D01*
X129152500Y-88071428D02*
X129914404Y-88071428D01*
X126771547Y-84952380D02*
X126771547Y-85761904D01*
X126819166Y-85857142D01*
X126866785Y-85904761D01*
X126962023Y-85952380D01*
X127152500Y-85952380D01*
X127247738Y-85904761D01*
X127295357Y-85857142D01*
X127342976Y-85761904D01*
X127342976Y-84952380D01*
X127676309Y-84952380D02*
X128009642Y-85952380D01*
X128342976Y-84952380D01*
X129104880Y-85904761D02*
X129009642Y-85952380D01*
X128819166Y-85952380D01*
X128723928Y-85904761D01*
X128676309Y-85857142D01*
X128628690Y-85761904D01*
X128628690Y-85476190D01*
X128676309Y-85380952D01*
X128723928Y-85333333D01*
X128819166Y-85285714D01*
X129009642Y-85285714D01*
X129104880Y-85333333D01*
X129962023Y-85904761D02*
X129866785Y-85952380D01*
X129676309Y-85952380D01*
X129581071Y-85904761D01*
X129533452Y-85857142D01*
X129485833Y-85761904D01*
X129485833Y-85476190D01*
X129533452Y-85380952D01*
X129581071Y-85333333D01*
X129676309Y-85285714D01*
X129866785Y-85285714D01*
X129962023Y-85333333D01*
D11*
X130920000Y-99530000D02*
X133580000Y-99530000D01*
X130920000Y-86770000D02*
X130920000Y-99530000D01*
X133580000Y-86770000D02*
X133580000Y-99530000D01*
X130920000Y-86770000D02*
X133580000Y-86770000D01*
X130920000Y-85500000D02*
X130920000Y-84170000D01*
X130920000Y-84170000D02*
X132250000Y-84170000D01*
X124835000Y-90447500D02*
X124835000Y-86387500D01*
X122565000Y-90447500D02*
X124835000Y-90447500D01*
X122565000Y-86387500D02*
X122565000Y-90447500D01*
X102430000Y-94760000D02*
X104410000Y-94760000D01*
X104410000Y-94760000D02*
X104410000Y-94340000D01*
X100460000Y-94760000D02*
X100060000Y-94760000D01*
X100060000Y-87240000D02*
X100460000Y-87240000D01*
X102430000Y-87240000D02*
X104410000Y-87240000D01*
X104410000Y-87240000D02*
X104410000Y-87660000D01*
X105090000Y-89690000D02*
X105090000Y-89240000D01*
X104640000Y-89240000D02*
X105090000Y-89240000D01*
X110190000Y-87276248D02*
X110190000Y-88698752D01*
X112010000Y-87276248D02*
X112010000Y-88698752D01*
X115210000Y-88698752D02*
X115210000Y-87276248D01*
X113390000Y-88698752D02*
X113390000Y-87276248D01*
X116590000Y-88698752D02*
X116590000Y-87276248D01*
X118410000Y-88698752D02*
X118410000Y-87276248D01*
X123590000Y-97711252D02*
X123590000Y-96288748D01*
X125410000Y-97711252D02*
X125410000Y-96288748D01*
X111252063Y-96160000D02*
X109797935Y-96160000D01*
X111252063Y-94340000D02*
X109797935Y-94340000D01*
X111252063Y-91404999D02*
X109797935Y-91404999D01*
X111252063Y-93224999D02*
X109797935Y-93224999D01*
X119790000Y-88727064D02*
X119790000Y-87272936D01*
X121610000Y-88727064D02*
X121610000Y-87272936D01*
X107090000Y-88714564D02*
X107090000Y-87260436D01*
X108910000Y-88714564D02*
X108910000Y-87260436D01*
D12*
X129583333Y-99126190D02*
X129583333Y-99483333D01*
X129559523Y-99554761D01*
X129511904Y-99602380D01*
X129440476Y-99626190D01*
X129392857Y-99626190D01*
X129797619Y-99173809D02*
X129821428Y-99150000D01*
X129869047Y-99126190D01*
X129988095Y-99126190D01*
X130035714Y-99150000D01*
X130059523Y-99173809D01*
X130083333Y-99221428D01*
X130083333Y-99269047D01*
X130059523Y-99340476D01*
X129773809Y-99626190D01*
X130083333Y-99626190D01*
D10*
X123011904Y-85252380D02*
X123011904Y-84252380D01*
X123250000Y-84252380D01*
X123392857Y-84300000D01*
X123488095Y-84395238D01*
X123535714Y-84490476D01*
X123583333Y-84680952D01*
X123583333Y-84823809D01*
X123535714Y-85014285D01*
X123488095Y-85109523D01*
X123392857Y-85204761D01*
X123250000Y-85252380D01*
X123011904Y-85252380D01*
X124535714Y-85252380D02*
X123964285Y-85252380D01*
X124250000Y-85252380D02*
X124250000Y-84252380D01*
X124154761Y-84395238D01*
X124059523Y-84490476D01*
X123964285Y-84538095D01*
D12*
X103933333Y-95026190D02*
X103933333Y-95383333D01*
X103909523Y-95454761D01*
X103861904Y-95502380D01*
X103790476Y-95526190D01*
X103742857Y-95526190D01*
X104433333Y-95526190D02*
X104147619Y-95526190D01*
X104290476Y-95526190D02*
X104290476Y-95026190D01*
X104242857Y-95097619D01*
X104195238Y-95145238D01*
X104147619Y-95169047D01*
D10*
X110833333Y-85107142D02*
X110785714Y-85154761D01*
X110642857Y-85202380D01*
X110547619Y-85202380D01*
X110404761Y-85154761D01*
X110309523Y-85059523D01*
X110261904Y-84964285D01*
X110214285Y-84773809D01*
X110214285Y-84630952D01*
X110261904Y-84440476D01*
X110309523Y-84345238D01*
X110404761Y-84250000D01*
X110547619Y-84202380D01*
X110642857Y-84202380D01*
X110785714Y-84250000D01*
X110833333Y-84297619D01*
X111785714Y-85202380D02*
X111214285Y-85202380D01*
X111500000Y-85202380D02*
X111500000Y-84202380D01*
X111404761Y-84345238D01*
X111309523Y-84440476D01*
X111214285Y-84488095D01*
X114133333Y-85107142D02*
X114085714Y-85154761D01*
X113942857Y-85202380D01*
X113847619Y-85202380D01*
X113704761Y-85154761D01*
X113609523Y-85059523D01*
X113561904Y-84964285D01*
X113514285Y-84773809D01*
X113514285Y-84630952D01*
X113561904Y-84440476D01*
X113609523Y-84345238D01*
X113704761Y-84250000D01*
X113847619Y-84202380D01*
X113942857Y-84202380D01*
X114085714Y-84250000D01*
X114133333Y-84297619D01*
X114514285Y-84297619D02*
X114561904Y-84250000D01*
X114657142Y-84202380D01*
X114895238Y-84202380D01*
X114990476Y-84250000D01*
X115038095Y-84297619D01*
X115085714Y-84392857D01*
X115085714Y-84488095D01*
X115038095Y-84630952D01*
X114466666Y-85202380D01*
X115085714Y-85202380D01*
X117283333Y-85157142D02*
X117235714Y-85204761D01*
X117092857Y-85252380D01*
X116997619Y-85252380D01*
X116854761Y-85204761D01*
X116759523Y-85109523D01*
X116711904Y-85014285D01*
X116664285Y-84823809D01*
X116664285Y-84680952D01*
X116711904Y-84490476D01*
X116759523Y-84395238D01*
X116854761Y-84300000D01*
X116997619Y-84252380D01*
X117092857Y-84252380D01*
X117235714Y-84300000D01*
X117283333Y-84347619D01*
X117616666Y-84252380D02*
X118235714Y-84252380D01*
X117902380Y-84633333D01*
X118045238Y-84633333D01*
X118140476Y-84680952D01*
X118188095Y-84728571D01*
X118235714Y-84823809D01*
X118235714Y-85061904D01*
X118188095Y-85157142D01*
X118140476Y-85204761D01*
X118045238Y-85252380D01*
X117759523Y-85252380D01*
X117664285Y-85204761D01*
X117616666Y-85157142D01*
X124333333Y-94157142D02*
X124285714Y-94204761D01*
X124142857Y-94252380D01*
X124047619Y-94252380D01*
X123904761Y-94204761D01*
X123809523Y-94109523D01*
X123761904Y-94014285D01*
X123714285Y-93823809D01*
X123714285Y-93680952D01*
X123761904Y-93490476D01*
X123809523Y-93395238D01*
X123904761Y-93300000D01*
X124047619Y-93252380D01*
X124142857Y-93252380D01*
X124285714Y-93300000D01*
X124333333Y-93347619D01*
X125190476Y-93585714D02*
X125190476Y-94252380D01*
X124952380Y-93204761D02*
X124714285Y-93919047D01*
X125333333Y-93919047D01*
X113783333Y-95652380D02*
X113450000Y-95176190D01*
X113211904Y-95652380D02*
X113211904Y-94652380D01*
X113592857Y-94652380D01*
X113688095Y-94700000D01*
X113735714Y-94747619D01*
X113783333Y-94842857D01*
X113783333Y-94985714D01*
X113735714Y-95080952D01*
X113688095Y-95128571D01*
X113592857Y-95176190D01*
X113211904Y-95176190D01*
X114735714Y-95652380D02*
X114164285Y-95652380D01*
X114450000Y-95652380D02*
X114450000Y-94652380D01*
X114354761Y-94795238D01*
X114259523Y-94890476D01*
X114164285Y-94938095D01*
X113833333Y-92852380D02*
X113500000Y-92376190D01*
X113261904Y-92852380D02*
X113261904Y-91852380D01*
X113642857Y-91852380D01*
X113738095Y-91900000D01*
X113785714Y-91947619D01*
X113833333Y-92042857D01*
X113833333Y-92185714D01*
X113785714Y-92280952D01*
X113738095Y-92328571D01*
X113642857Y-92376190D01*
X113261904Y-92376190D01*
X114214285Y-91947619D02*
X114261904Y-91900000D01*
X114357142Y-91852380D01*
X114595238Y-91852380D01*
X114690476Y-91900000D01*
X114738095Y-91947619D01*
X114785714Y-92042857D01*
X114785714Y-92138095D01*
X114738095Y-92280952D01*
X114166666Y-92852380D01*
X114785714Y-92852380D01*
X120533333Y-85239880D02*
X120200000Y-84763690D01*
X119961904Y-85239880D02*
X119961904Y-84239880D01*
X120342857Y-84239880D01*
X120438095Y-84287500D01*
X120485714Y-84335119D01*
X120533333Y-84430357D01*
X120533333Y-84573214D01*
X120485714Y-84668452D01*
X120438095Y-84716071D01*
X120342857Y-84763690D01*
X119961904Y-84763690D01*
X120866666Y-84239880D02*
X121485714Y-84239880D01*
X121152380Y-84620833D01*
X121295238Y-84620833D01*
X121390476Y-84668452D01*
X121438095Y-84716071D01*
X121485714Y-84811309D01*
X121485714Y-85049404D01*
X121438095Y-85144642D01*
X121390476Y-85192261D01*
X121295238Y-85239880D01*
X121009523Y-85239880D01*
X120914285Y-85192261D01*
X120866666Y-85144642D01*
X107216666Y-84678571D02*
X106883333Y-84678571D01*
X106883333Y-85202380D02*
X106883333Y-84202380D01*
X107359523Y-84202380D01*
X108073809Y-84678571D02*
X108216666Y-84726190D01*
X108264285Y-84773809D01*
X108311904Y-84869047D01*
X108311904Y-85011904D01*
X108264285Y-85107142D01*
X108216666Y-85154761D01*
X108121428Y-85202380D01*
X107740476Y-85202380D01*
X107740476Y-84202380D01*
X108073809Y-84202380D01*
X108169047Y-84250000D01*
X108216666Y-84297619D01*
X108264285Y-84392857D01*
X108264285Y-84488095D01*
X108216666Y-84583333D01*
X108169047Y-84630952D01*
X108073809Y-84678571D01*
X107740476Y-84678571D01*
X109264285Y-85202380D02*
X108692857Y-85202380D01*
X108978571Y-85202380D02*
X108978571Y-84202380D01*
X108883333Y-84345238D01*
X108788095Y-84440476D01*
X108692857Y-84488095D01*
%LPC*%
D13*
X132250000Y-85500000D03*
D14*
X132250000Y-88040000D03*
X132250000Y-90580000D03*
X132250000Y-93120000D03*
X132250000Y-95660000D03*
X132250000Y-98200000D03*
G36*
G01*
X124325000Y-90187500D02*
X123075000Y-90187500D01*
G75*
G02*
X122825000Y-89937500I0J250000D01*
G01*
X122825000Y-89012500D01*
G75*
G02*
X123075000Y-88762500I250000J0D01*
G01*
X124325000Y-88762500D01*
G75*
G02*
X124575000Y-89012500I0J-250000D01*
G01*
X124575000Y-89937500D01*
G75*
G02*
X124325000Y-90187500I-250000J0D01*
G01*
G37*
G36*
G01*
X124325000Y-87212500D02*
X123075000Y-87212500D01*
G75*
G02*
X122825000Y-86962500I0J250000D01*
G01*
X122825000Y-86037500D01*
G75*
G02*
X123075000Y-85787500I250000J0D01*
G01*
X124325000Y-85787500D01*
G75*
G02*
X124575000Y-86037500I0J-250000D01*
G01*
X124575000Y-86962500D01*
G75*
G02*
X124325000Y-87212500I-250000J0D01*
G01*
G37*
D15*
X104150000Y-89700000D03*
X104150000Y-90350000D03*
X104150000Y-91000000D03*
X104150000Y-91650000D03*
X104150000Y-92300000D03*
D16*
X104150000Y-88500000D03*
X104150000Y-93500000D03*
D17*
X101450000Y-90000000D03*
X101450000Y-92000000D03*
D18*
X101450000Y-88100000D03*
X101450000Y-93900000D03*
D19*
X101450000Y-87500000D03*
X101450000Y-94500000D03*
G36*
G01*
X110449999Y-88887500D02*
X111750001Y-88887500D01*
G75*
G02*
X112000000Y-89137499I0J-249999D01*
G01*
X112000000Y-89962501D01*
G75*
G02*
X111750001Y-90212500I-249999J0D01*
G01*
X110449999Y-90212500D01*
G75*
G02*
X110200000Y-89962501I0J249999D01*
G01*
X110200000Y-89137499D01*
G75*
G02*
X110449999Y-88887500I249999J0D01*
G01*
G37*
G36*
G01*
X110449999Y-85762500D02*
X111750001Y-85762500D01*
G75*
G02*
X112000000Y-86012499I0J-249999D01*
G01*
X112000000Y-86837501D01*
G75*
G02*
X111750001Y-87087500I-249999J0D01*
G01*
X110449999Y-87087500D01*
G75*
G02*
X110200000Y-86837501I0J249999D01*
G01*
X110200000Y-86012499D01*
G75*
G02*
X110449999Y-85762500I249999J0D01*
G01*
G37*
G36*
G01*
X114950001Y-87087500D02*
X113649999Y-87087500D01*
G75*
G02*
X113400000Y-86837501I0J249999D01*
G01*
X113400000Y-86012499D01*
G75*
G02*
X113649999Y-85762500I249999J0D01*
G01*
X114950001Y-85762500D01*
G75*
G02*
X115200000Y-86012499I0J-249999D01*
G01*
X115200000Y-86837501D01*
G75*
G02*
X114950001Y-87087500I-249999J0D01*
G01*
G37*
G36*
G01*
X114950001Y-90212500D02*
X113649999Y-90212500D01*
G75*
G02*
X113400000Y-89962501I0J249999D01*
G01*
X113400000Y-89137499D01*
G75*
G02*
X113649999Y-88887500I249999J0D01*
G01*
X114950001Y-88887500D01*
G75*
G02*
X115200000Y-89137499I0J-249999D01*
G01*
X115200000Y-89962501D01*
G75*
G02*
X114950001Y-90212500I-249999J0D01*
G01*
G37*
G36*
G01*
X118150001Y-90212500D02*
X116849999Y-90212500D01*
G75*
G02*
X116600000Y-89962501I0J249999D01*
G01*
X116600000Y-89137499D01*
G75*
G02*
X116849999Y-88887500I249999J0D01*
G01*
X118150001Y-88887500D01*
G75*
G02*
X118400000Y-89137499I0J-249999D01*
G01*
X118400000Y-89962501D01*
G75*
G02*
X118150001Y-90212500I-249999J0D01*
G01*
G37*
G36*
G01*
X118150001Y-87087500D02*
X116849999Y-87087500D01*
G75*
G02*
X116600000Y-86837501I0J249999D01*
G01*
X116600000Y-86012499D01*
G75*
G02*
X116849999Y-85762500I249999J0D01*
G01*
X118150001Y-85762500D01*
G75*
G02*
X118400000Y-86012499I0J-249999D01*
G01*
X118400000Y-86837501D01*
G75*
G02*
X118150001Y-87087500I-249999J0D01*
G01*
G37*
G36*
G01*
X125150001Y-99225000D02*
X123849999Y-99225000D01*
G75*
G02*
X123600000Y-98975001I0J249999D01*
G01*
X123600000Y-98149999D01*
G75*
G02*
X123849999Y-97900000I249999J0D01*
G01*
X125150001Y-97900000D01*
G75*
G02*
X125400000Y-98149999I0J-249999D01*
G01*
X125400000Y-98975001D01*
G75*
G02*
X125150001Y-99225000I-249999J0D01*
G01*
G37*
G36*
G01*
X125150001Y-96100000D02*
X123849999Y-96100000D01*
G75*
G02*
X123600000Y-95850001I0J249999D01*
G01*
X123600000Y-95024999D01*
G75*
G02*
X123849999Y-94775000I249999J0D01*
G01*
X125150001Y-94775000D01*
G75*
G02*
X125400000Y-95024999I0J-249999D01*
G01*
X125400000Y-95850001D01*
G75*
G02*
X125150001Y-96100000I-249999J0D01*
G01*
G37*
G36*
G01*
X112724999Y-94625000D02*
X112724999Y-95875000D01*
G75*
G02*
X112474999Y-96125000I-250000J0D01*
G01*
X111674999Y-96125000D01*
G75*
G02*
X111424999Y-95875000I0J250000D01*
G01*
X111424999Y-94625000D01*
G75*
G02*
X111674999Y-94375000I250000J0D01*
G01*
X112474999Y-94375000D01*
G75*
G02*
X112724999Y-94625000I0J-250000D01*
G01*
G37*
G36*
G01*
X109624999Y-94625000D02*
X109624999Y-95875000D01*
G75*
G02*
X109374999Y-96125000I-250000J0D01*
G01*
X108574999Y-96125000D01*
G75*
G02*
X108324999Y-95875000I0J250000D01*
G01*
X108324999Y-94625000D01*
G75*
G02*
X108574999Y-94375000I250000J0D01*
G01*
X109374999Y-94375000D01*
G75*
G02*
X109624999Y-94625000I0J-250000D01*
G01*
G37*
G36*
G01*
X109624999Y-91689999D02*
X109624999Y-92939999D01*
G75*
G02*
X109374999Y-93189999I-250000J0D01*
G01*
X108574999Y-93189999D01*
G75*
G02*
X108324999Y-92939999I0J250000D01*
G01*
X108324999Y-91689999D01*
G75*
G02*
X108574999Y-91439999I250000J0D01*
G01*
X109374999Y-91439999D01*
G75*
G02*
X109624999Y-91689999I0J-250000D01*
G01*
G37*
G36*
G01*
X112724999Y-91689999D02*
X112724999Y-92939999D01*
G75*
G02*
X112474999Y-93189999I-250000J0D01*
G01*
X111674999Y-93189999D01*
G75*
G02*
X111424999Y-92939999I0J250000D01*
G01*
X111424999Y-91689999D01*
G75*
G02*
X111674999Y-91439999I250000J0D01*
G01*
X112474999Y-91439999D01*
G75*
G02*
X112724999Y-91689999I0J-250000D01*
G01*
G37*
G36*
G01*
X121325000Y-90200000D02*
X120075000Y-90200000D01*
G75*
G02*
X119825000Y-89950000I0J250000D01*
G01*
X119825000Y-89150000D01*
G75*
G02*
X120075000Y-88900000I250000J0D01*
G01*
X121325000Y-88900000D01*
G75*
G02*
X121575000Y-89150000I0J-250000D01*
G01*
X121575000Y-89950000D01*
G75*
G02*
X121325000Y-90200000I-250000J0D01*
G01*
G37*
G36*
G01*
X121325000Y-87100000D02*
X120075000Y-87100000D01*
G75*
G02*
X119825000Y-86850000I0J250000D01*
G01*
X119825000Y-86050000D01*
G75*
G02*
X120075000Y-85800000I250000J0D01*
G01*
X121325000Y-85800000D01*
G75*
G02*
X121575000Y-86050000I0J-250000D01*
G01*
X121575000Y-86850000D01*
G75*
G02*
X121325000Y-87100000I-250000J0D01*
G01*
G37*
G36*
G01*
X108625000Y-90187500D02*
X107375000Y-90187500D01*
G75*
G02*
X107125000Y-89937500I0J250000D01*
G01*
X107125000Y-89137500D01*
G75*
G02*
X107375000Y-88887500I250000J0D01*
G01*
X108625000Y-88887500D01*
G75*
G02*
X108875000Y-89137500I0J-250000D01*
G01*
X108875000Y-89937500D01*
G75*
G02*
X108625000Y-90187500I-250000J0D01*
G01*
G37*
G36*
G01*
X108625000Y-87087500D02*
X107375000Y-87087500D01*
G75*
G02*
X107125000Y-86837500I0J250000D01*
G01*
X107125000Y-86037500D01*
G75*
G02*
X107375000Y-85787500I250000J0D01*
G01*
X108625000Y-85787500D01*
G75*
G02*
X108875000Y-86037500I0J-250000D01*
G01*
X108875000Y-86837500D01*
G75*
G02*
X108625000Y-87087500I-250000J0D01*
G01*
G37*
M02*
