G04 #@! TF.GenerationSoftware,KiCad,Pcbnew,(5.1.5)-3*
G04 #@! TF.CreationDate,2021-08-24T07:45:27-07:00*
G04 #@! TF.ProjectId,USB breakout,55534220-6272-4656-916b-6f75742e6b69,rev?*
G04 #@! TF.SameCoordinates,Original*
G04 #@! TF.FileFunction,Copper,L1,Top*
G04 #@! TF.FilePolarity,Positive*
%FSLAX46Y46*%
G04 Gerber Fmt 4.6, Leading zero omitted, Abs format (unit mm)*
G04 Created by KiCad (PCBNEW (5.1.5)-3) date 2021-08-24 07:45:27*
%MOMM*%
%LPD*%
G04 APERTURE LIST*
%ADD10R,1.900000X1.500000*%
%ADD11C,1.450000*%
%ADD12R,1.350000X0.400000*%
%ADD13O,1.900000X1.200000*%
%ADD14R,1.900000X1.200000*%
%ADD15C,0.100000*%
%ADD16R,1.700000X1.700000*%
%ADD17O,1.700000X1.700000*%
%ADD18C,0.800000*%
%ADD19C,0.200000*%
%ADD20C,0.508000*%
%ADD21C,0.381000*%
%ADD22C,0.250000*%
%ADD23C,0.254000*%
G04 APERTURE END LIST*
D10*
X101512500Y-92000000D03*
D11*
X104212500Y-88500000D03*
D12*
X104212500Y-90350000D03*
X104212500Y-89700000D03*
X104212500Y-92300000D03*
X104212500Y-91650000D03*
X104212500Y-91000000D03*
D11*
X104212500Y-93500000D03*
D10*
X101512500Y-90000000D03*
D13*
X101512500Y-87500000D03*
X101512500Y-94500000D03*
D14*
X101512500Y-93900000D03*
X101512500Y-88100000D03*
G04 #@! TA.AperFunction,SMDPad,CuDef*
D15*
G36*
X112899504Y-88763704D02*
G01*
X112923773Y-88767304D01*
X112947571Y-88773265D01*
X112970671Y-88781530D01*
X112992849Y-88792020D01*
X113013893Y-88804633D01*
X113033598Y-88819247D01*
X113051777Y-88835723D01*
X113068253Y-88853902D01*
X113082867Y-88873607D01*
X113095480Y-88894651D01*
X113105970Y-88916829D01*
X113114235Y-88939929D01*
X113120196Y-88963727D01*
X113123796Y-88987996D01*
X113125000Y-89012500D01*
X113125000Y-89937500D01*
X113123796Y-89962004D01*
X113120196Y-89986273D01*
X113114235Y-90010071D01*
X113105970Y-90033171D01*
X113095480Y-90055349D01*
X113082867Y-90076393D01*
X113068253Y-90096098D01*
X113051777Y-90114277D01*
X113033598Y-90130753D01*
X113013893Y-90145367D01*
X112992849Y-90157980D01*
X112970671Y-90168470D01*
X112947571Y-90176735D01*
X112923773Y-90182696D01*
X112899504Y-90186296D01*
X112875000Y-90187500D01*
X111625000Y-90187500D01*
X111600496Y-90186296D01*
X111576227Y-90182696D01*
X111552429Y-90176735D01*
X111529329Y-90168470D01*
X111507151Y-90157980D01*
X111486107Y-90145367D01*
X111466402Y-90130753D01*
X111448223Y-90114277D01*
X111431747Y-90096098D01*
X111417133Y-90076393D01*
X111404520Y-90055349D01*
X111394030Y-90033171D01*
X111385765Y-90010071D01*
X111379804Y-89986273D01*
X111376204Y-89962004D01*
X111375000Y-89937500D01*
X111375000Y-89012500D01*
X111376204Y-88987996D01*
X111379804Y-88963727D01*
X111385765Y-88939929D01*
X111394030Y-88916829D01*
X111404520Y-88894651D01*
X111417133Y-88873607D01*
X111431747Y-88853902D01*
X111448223Y-88835723D01*
X111466402Y-88819247D01*
X111486107Y-88804633D01*
X111507151Y-88792020D01*
X111529329Y-88781530D01*
X111552429Y-88773265D01*
X111576227Y-88767304D01*
X111600496Y-88763704D01*
X111625000Y-88762500D01*
X112875000Y-88762500D01*
X112899504Y-88763704D01*
G37*
G04 #@! TD.AperFunction*
G04 #@! TA.AperFunction,SMDPad,CuDef*
G36*
X112899504Y-85788704D02*
G01*
X112923773Y-85792304D01*
X112947571Y-85798265D01*
X112970671Y-85806530D01*
X112992849Y-85817020D01*
X113013893Y-85829633D01*
X113033598Y-85844247D01*
X113051777Y-85860723D01*
X113068253Y-85878902D01*
X113082867Y-85898607D01*
X113095480Y-85919651D01*
X113105970Y-85941829D01*
X113114235Y-85964929D01*
X113120196Y-85988727D01*
X113123796Y-86012996D01*
X113125000Y-86037500D01*
X113125000Y-86962500D01*
X113123796Y-86987004D01*
X113120196Y-87011273D01*
X113114235Y-87035071D01*
X113105970Y-87058171D01*
X113095480Y-87080349D01*
X113082867Y-87101393D01*
X113068253Y-87121098D01*
X113051777Y-87139277D01*
X113033598Y-87155753D01*
X113013893Y-87170367D01*
X112992849Y-87182980D01*
X112970671Y-87193470D01*
X112947571Y-87201735D01*
X112923773Y-87207696D01*
X112899504Y-87211296D01*
X112875000Y-87212500D01*
X111625000Y-87212500D01*
X111600496Y-87211296D01*
X111576227Y-87207696D01*
X111552429Y-87201735D01*
X111529329Y-87193470D01*
X111507151Y-87182980D01*
X111486107Y-87170367D01*
X111466402Y-87155753D01*
X111448223Y-87139277D01*
X111431747Y-87121098D01*
X111417133Y-87101393D01*
X111404520Y-87080349D01*
X111394030Y-87058171D01*
X111385765Y-87035071D01*
X111379804Y-87011273D01*
X111376204Y-86987004D01*
X111375000Y-86962500D01*
X111375000Y-86037500D01*
X111376204Y-86012996D01*
X111379804Y-85988727D01*
X111385765Y-85964929D01*
X111394030Y-85941829D01*
X111404520Y-85919651D01*
X111417133Y-85898607D01*
X111431747Y-85878902D01*
X111448223Y-85860723D01*
X111466402Y-85844247D01*
X111486107Y-85829633D01*
X111507151Y-85817020D01*
X111529329Y-85806530D01*
X111552429Y-85798265D01*
X111576227Y-85792304D01*
X111600496Y-85788704D01*
X111625000Y-85787500D01*
X112875000Y-85787500D01*
X112899504Y-85788704D01*
G37*
G04 #@! TD.AperFunction*
G04 #@! TA.AperFunction,SMDPad,CuDef*
G36*
X115899504Y-85788704D02*
G01*
X115923773Y-85792304D01*
X115947571Y-85798265D01*
X115970671Y-85806530D01*
X115992849Y-85817020D01*
X116013893Y-85829633D01*
X116033598Y-85844247D01*
X116051777Y-85860723D01*
X116068253Y-85878902D01*
X116082867Y-85898607D01*
X116095480Y-85919651D01*
X116105970Y-85941829D01*
X116114235Y-85964929D01*
X116120196Y-85988727D01*
X116123796Y-86012996D01*
X116125000Y-86037500D01*
X116125000Y-86962500D01*
X116123796Y-86987004D01*
X116120196Y-87011273D01*
X116114235Y-87035071D01*
X116105970Y-87058171D01*
X116095480Y-87080349D01*
X116082867Y-87101393D01*
X116068253Y-87121098D01*
X116051777Y-87139277D01*
X116033598Y-87155753D01*
X116013893Y-87170367D01*
X115992849Y-87182980D01*
X115970671Y-87193470D01*
X115947571Y-87201735D01*
X115923773Y-87207696D01*
X115899504Y-87211296D01*
X115875000Y-87212500D01*
X114625000Y-87212500D01*
X114600496Y-87211296D01*
X114576227Y-87207696D01*
X114552429Y-87201735D01*
X114529329Y-87193470D01*
X114507151Y-87182980D01*
X114486107Y-87170367D01*
X114466402Y-87155753D01*
X114448223Y-87139277D01*
X114431747Y-87121098D01*
X114417133Y-87101393D01*
X114404520Y-87080349D01*
X114394030Y-87058171D01*
X114385765Y-87035071D01*
X114379804Y-87011273D01*
X114376204Y-86987004D01*
X114375000Y-86962500D01*
X114375000Y-86037500D01*
X114376204Y-86012996D01*
X114379804Y-85988727D01*
X114385765Y-85964929D01*
X114394030Y-85941829D01*
X114404520Y-85919651D01*
X114417133Y-85898607D01*
X114431747Y-85878902D01*
X114448223Y-85860723D01*
X114466402Y-85844247D01*
X114486107Y-85829633D01*
X114507151Y-85817020D01*
X114529329Y-85806530D01*
X114552429Y-85798265D01*
X114576227Y-85792304D01*
X114600496Y-85788704D01*
X114625000Y-85787500D01*
X115875000Y-85787500D01*
X115899504Y-85788704D01*
G37*
G04 #@! TD.AperFunction*
G04 #@! TA.AperFunction,SMDPad,CuDef*
G36*
X115899504Y-88763704D02*
G01*
X115923773Y-88767304D01*
X115947571Y-88773265D01*
X115970671Y-88781530D01*
X115992849Y-88792020D01*
X116013893Y-88804633D01*
X116033598Y-88819247D01*
X116051777Y-88835723D01*
X116068253Y-88853902D01*
X116082867Y-88873607D01*
X116095480Y-88894651D01*
X116105970Y-88916829D01*
X116114235Y-88939929D01*
X116120196Y-88963727D01*
X116123796Y-88987996D01*
X116125000Y-89012500D01*
X116125000Y-89937500D01*
X116123796Y-89962004D01*
X116120196Y-89986273D01*
X116114235Y-90010071D01*
X116105970Y-90033171D01*
X116095480Y-90055349D01*
X116082867Y-90076393D01*
X116068253Y-90096098D01*
X116051777Y-90114277D01*
X116033598Y-90130753D01*
X116013893Y-90145367D01*
X115992849Y-90157980D01*
X115970671Y-90168470D01*
X115947571Y-90176735D01*
X115923773Y-90182696D01*
X115899504Y-90186296D01*
X115875000Y-90187500D01*
X114625000Y-90187500D01*
X114600496Y-90186296D01*
X114576227Y-90182696D01*
X114552429Y-90176735D01*
X114529329Y-90168470D01*
X114507151Y-90157980D01*
X114486107Y-90145367D01*
X114466402Y-90130753D01*
X114448223Y-90114277D01*
X114431747Y-90096098D01*
X114417133Y-90076393D01*
X114404520Y-90055349D01*
X114394030Y-90033171D01*
X114385765Y-90010071D01*
X114379804Y-89986273D01*
X114376204Y-89962004D01*
X114375000Y-89937500D01*
X114375000Y-89012500D01*
X114376204Y-88987996D01*
X114379804Y-88963727D01*
X114385765Y-88939929D01*
X114394030Y-88916829D01*
X114404520Y-88894651D01*
X114417133Y-88873607D01*
X114431747Y-88853902D01*
X114448223Y-88835723D01*
X114466402Y-88819247D01*
X114486107Y-88804633D01*
X114507151Y-88792020D01*
X114529329Y-88781530D01*
X114552429Y-88773265D01*
X114576227Y-88767304D01*
X114600496Y-88763704D01*
X114625000Y-88762500D01*
X115875000Y-88762500D01*
X115899504Y-88763704D01*
G37*
G04 #@! TD.AperFunction*
G04 #@! TA.AperFunction,SMDPad,CuDef*
G36*
X118899504Y-88763704D02*
G01*
X118923773Y-88767304D01*
X118947571Y-88773265D01*
X118970671Y-88781530D01*
X118992849Y-88792020D01*
X119013893Y-88804633D01*
X119033598Y-88819247D01*
X119051777Y-88835723D01*
X119068253Y-88853902D01*
X119082867Y-88873607D01*
X119095480Y-88894651D01*
X119105970Y-88916829D01*
X119114235Y-88939929D01*
X119120196Y-88963727D01*
X119123796Y-88987996D01*
X119125000Y-89012500D01*
X119125000Y-89937500D01*
X119123796Y-89962004D01*
X119120196Y-89986273D01*
X119114235Y-90010071D01*
X119105970Y-90033171D01*
X119095480Y-90055349D01*
X119082867Y-90076393D01*
X119068253Y-90096098D01*
X119051777Y-90114277D01*
X119033598Y-90130753D01*
X119013893Y-90145367D01*
X118992849Y-90157980D01*
X118970671Y-90168470D01*
X118947571Y-90176735D01*
X118923773Y-90182696D01*
X118899504Y-90186296D01*
X118875000Y-90187500D01*
X117625000Y-90187500D01*
X117600496Y-90186296D01*
X117576227Y-90182696D01*
X117552429Y-90176735D01*
X117529329Y-90168470D01*
X117507151Y-90157980D01*
X117486107Y-90145367D01*
X117466402Y-90130753D01*
X117448223Y-90114277D01*
X117431747Y-90096098D01*
X117417133Y-90076393D01*
X117404520Y-90055349D01*
X117394030Y-90033171D01*
X117385765Y-90010071D01*
X117379804Y-89986273D01*
X117376204Y-89962004D01*
X117375000Y-89937500D01*
X117375000Y-89012500D01*
X117376204Y-88987996D01*
X117379804Y-88963727D01*
X117385765Y-88939929D01*
X117394030Y-88916829D01*
X117404520Y-88894651D01*
X117417133Y-88873607D01*
X117431747Y-88853902D01*
X117448223Y-88835723D01*
X117466402Y-88819247D01*
X117486107Y-88804633D01*
X117507151Y-88792020D01*
X117529329Y-88781530D01*
X117552429Y-88773265D01*
X117576227Y-88767304D01*
X117600496Y-88763704D01*
X117625000Y-88762500D01*
X118875000Y-88762500D01*
X118899504Y-88763704D01*
G37*
G04 #@! TD.AperFunction*
G04 #@! TA.AperFunction,SMDPad,CuDef*
G36*
X118899504Y-85788704D02*
G01*
X118923773Y-85792304D01*
X118947571Y-85798265D01*
X118970671Y-85806530D01*
X118992849Y-85817020D01*
X119013893Y-85829633D01*
X119033598Y-85844247D01*
X119051777Y-85860723D01*
X119068253Y-85878902D01*
X119082867Y-85898607D01*
X119095480Y-85919651D01*
X119105970Y-85941829D01*
X119114235Y-85964929D01*
X119120196Y-85988727D01*
X119123796Y-86012996D01*
X119125000Y-86037500D01*
X119125000Y-86962500D01*
X119123796Y-86987004D01*
X119120196Y-87011273D01*
X119114235Y-87035071D01*
X119105970Y-87058171D01*
X119095480Y-87080349D01*
X119082867Y-87101393D01*
X119068253Y-87121098D01*
X119051777Y-87139277D01*
X119033598Y-87155753D01*
X119013893Y-87170367D01*
X118992849Y-87182980D01*
X118970671Y-87193470D01*
X118947571Y-87201735D01*
X118923773Y-87207696D01*
X118899504Y-87211296D01*
X118875000Y-87212500D01*
X117625000Y-87212500D01*
X117600496Y-87211296D01*
X117576227Y-87207696D01*
X117552429Y-87201735D01*
X117529329Y-87193470D01*
X117507151Y-87182980D01*
X117486107Y-87170367D01*
X117466402Y-87155753D01*
X117448223Y-87139277D01*
X117431747Y-87121098D01*
X117417133Y-87101393D01*
X117404520Y-87080349D01*
X117394030Y-87058171D01*
X117385765Y-87035071D01*
X117379804Y-87011273D01*
X117376204Y-86987004D01*
X117375000Y-86962500D01*
X117375000Y-86037500D01*
X117376204Y-86012996D01*
X117379804Y-85988727D01*
X117385765Y-85964929D01*
X117394030Y-85941829D01*
X117404520Y-85919651D01*
X117417133Y-85898607D01*
X117431747Y-85878902D01*
X117448223Y-85860723D01*
X117466402Y-85844247D01*
X117486107Y-85829633D01*
X117507151Y-85817020D01*
X117529329Y-85806530D01*
X117552429Y-85798265D01*
X117576227Y-85792304D01*
X117600496Y-85788704D01*
X117625000Y-85787500D01*
X118875000Y-85787500D01*
X118899504Y-85788704D01*
G37*
G04 #@! TD.AperFunction*
G04 #@! TA.AperFunction,SMDPad,CuDef*
G36*
X123499504Y-94876204D02*
G01*
X123523773Y-94879804D01*
X123547571Y-94885765D01*
X123570671Y-94894030D01*
X123592849Y-94904520D01*
X123613893Y-94917133D01*
X123633598Y-94931747D01*
X123651777Y-94948223D01*
X123668253Y-94966402D01*
X123682867Y-94986107D01*
X123695480Y-95007151D01*
X123705970Y-95029329D01*
X123714235Y-95052429D01*
X123720196Y-95076227D01*
X123723796Y-95100496D01*
X123725000Y-95125000D01*
X123725000Y-96375000D01*
X123723796Y-96399504D01*
X123720196Y-96423773D01*
X123714235Y-96447571D01*
X123705970Y-96470671D01*
X123695480Y-96492849D01*
X123682867Y-96513893D01*
X123668253Y-96533598D01*
X123651777Y-96551777D01*
X123633598Y-96568253D01*
X123613893Y-96582867D01*
X123592849Y-96595480D01*
X123570671Y-96605970D01*
X123547571Y-96614235D01*
X123523773Y-96620196D01*
X123499504Y-96623796D01*
X123475000Y-96625000D01*
X122550000Y-96625000D01*
X122525496Y-96623796D01*
X122501227Y-96620196D01*
X122477429Y-96614235D01*
X122454329Y-96605970D01*
X122432151Y-96595480D01*
X122411107Y-96582867D01*
X122391402Y-96568253D01*
X122373223Y-96551777D01*
X122356747Y-96533598D01*
X122342133Y-96513893D01*
X122329520Y-96492849D01*
X122319030Y-96470671D01*
X122310765Y-96447571D01*
X122304804Y-96423773D01*
X122301204Y-96399504D01*
X122300000Y-96375000D01*
X122300000Y-95125000D01*
X122301204Y-95100496D01*
X122304804Y-95076227D01*
X122310765Y-95052429D01*
X122319030Y-95029329D01*
X122329520Y-95007151D01*
X122342133Y-94986107D01*
X122356747Y-94966402D01*
X122373223Y-94948223D01*
X122391402Y-94931747D01*
X122411107Y-94917133D01*
X122432151Y-94904520D01*
X122454329Y-94894030D01*
X122477429Y-94885765D01*
X122501227Y-94879804D01*
X122525496Y-94876204D01*
X122550000Y-94875000D01*
X123475000Y-94875000D01*
X123499504Y-94876204D01*
G37*
G04 #@! TD.AperFunction*
G04 #@! TA.AperFunction,SMDPad,CuDef*
G36*
X126474504Y-94876204D02*
G01*
X126498773Y-94879804D01*
X126522571Y-94885765D01*
X126545671Y-94894030D01*
X126567849Y-94904520D01*
X126588893Y-94917133D01*
X126608598Y-94931747D01*
X126626777Y-94948223D01*
X126643253Y-94966402D01*
X126657867Y-94986107D01*
X126670480Y-95007151D01*
X126680970Y-95029329D01*
X126689235Y-95052429D01*
X126695196Y-95076227D01*
X126698796Y-95100496D01*
X126700000Y-95125000D01*
X126700000Y-96375000D01*
X126698796Y-96399504D01*
X126695196Y-96423773D01*
X126689235Y-96447571D01*
X126680970Y-96470671D01*
X126670480Y-96492849D01*
X126657867Y-96513893D01*
X126643253Y-96533598D01*
X126626777Y-96551777D01*
X126608598Y-96568253D01*
X126588893Y-96582867D01*
X126567849Y-96595480D01*
X126545671Y-96605970D01*
X126522571Y-96614235D01*
X126498773Y-96620196D01*
X126474504Y-96623796D01*
X126450000Y-96625000D01*
X125525000Y-96625000D01*
X125500496Y-96623796D01*
X125476227Y-96620196D01*
X125452429Y-96614235D01*
X125429329Y-96605970D01*
X125407151Y-96595480D01*
X125386107Y-96582867D01*
X125366402Y-96568253D01*
X125348223Y-96551777D01*
X125331747Y-96533598D01*
X125317133Y-96513893D01*
X125304520Y-96492849D01*
X125294030Y-96470671D01*
X125285765Y-96447571D01*
X125279804Y-96423773D01*
X125276204Y-96399504D01*
X125275000Y-96375000D01*
X125275000Y-95125000D01*
X125276204Y-95100496D01*
X125279804Y-95076227D01*
X125285765Y-95052429D01*
X125294030Y-95029329D01*
X125304520Y-95007151D01*
X125317133Y-94986107D01*
X125331747Y-94966402D01*
X125348223Y-94948223D01*
X125366402Y-94931747D01*
X125386107Y-94917133D01*
X125407151Y-94904520D01*
X125429329Y-94894030D01*
X125452429Y-94885765D01*
X125476227Y-94879804D01*
X125500496Y-94876204D01*
X125525000Y-94875000D01*
X126450000Y-94875000D01*
X126474504Y-94876204D01*
G37*
G04 #@! TD.AperFunction*
G04 #@! TA.AperFunction,SMDPad,CuDef*
G36*
X125149504Y-88763704D02*
G01*
X125173773Y-88767304D01*
X125197571Y-88773265D01*
X125220671Y-88781530D01*
X125242849Y-88792020D01*
X125263893Y-88804633D01*
X125283598Y-88819247D01*
X125301777Y-88835723D01*
X125318253Y-88853902D01*
X125332867Y-88873607D01*
X125345480Y-88894651D01*
X125355970Y-88916829D01*
X125364235Y-88939929D01*
X125370196Y-88963727D01*
X125373796Y-88987996D01*
X125375000Y-89012500D01*
X125375000Y-89937500D01*
X125373796Y-89962004D01*
X125370196Y-89986273D01*
X125364235Y-90010071D01*
X125355970Y-90033171D01*
X125345480Y-90055349D01*
X125332867Y-90076393D01*
X125318253Y-90096098D01*
X125301777Y-90114277D01*
X125283598Y-90130753D01*
X125263893Y-90145367D01*
X125242849Y-90157980D01*
X125220671Y-90168470D01*
X125197571Y-90176735D01*
X125173773Y-90182696D01*
X125149504Y-90186296D01*
X125125000Y-90187500D01*
X123875000Y-90187500D01*
X123850496Y-90186296D01*
X123826227Y-90182696D01*
X123802429Y-90176735D01*
X123779329Y-90168470D01*
X123757151Y-90157980D01*
X123736107Y-90145367D01*
X123716402Y-90130753D01*
X123698223Y-90114277D01*
X123681747Y-90096098D01*
X123667133Y-90076393D01*
X123654520Y-90055349D01*
X123644030Y-90033171D01*
X123635765Y-90010071D01*
X123629804Y-89986273D01*
X123626204Y-89962004D01*
X123625000Y-89937500D01*
X123625000Y-89012500D01*
X123626204Y-88987996D01*
X123629804Y-88963727D01*
X123635765Y-88939929D01*
X123644030Y-88916829D01*
X123654520Y-88894651D01*
X123667133Y-88873607D01*
X123681747Y-88853902D01*
X123698223Y-88835723D01*
X123716402Y-88819247D01*
X123736107Y-88804633D01*
X123757151Y-88792020D01*
X123779329Y-88781530D01*
X123802429Y-88773265D01*
X123826227Y-88767304D01*
X123850496Y-88763704D01*
X123875000Y-88762500D01*
X125125000Y-88762500D01*
X125149504Y-88763704D01*
G37*
G04 #@! TD.AperFunction*
G04 #@! TA.AperFunction,SMDPad,CuDef*
G36*
X125149504Y-85788704D02*
G01*
X125173773Y-85792304D01*
X125197571Y-85798265D01*
X125220671Y-85806530D01*
X125242849Y-85817020D01*
X125263893Y-85829633D01*
X125283598Y-85844247D01*
X125301777Y-85860723D01*
X125318253Y-85878902D01*
X125332867Y-85898607D01*
X125345480Y-85919651D01*
X125355970Y-85941829D01*
X125364235Y-85964929D01*
X125370196Y-85988727D01*
X125373796Y-86012996D01*
X125375000Y-86037500D01*
X125375000Y-86962500D01*
X125373796Y-86987004D01*
X125370196Y-87011273D01*
X125364235Y-87035071D01*
X125355970Y-87058171D01*
X125345480Y-87080349D01*
X125332867Y-87101393D01*
X125318253Y-87121098D01*
X125301777Y-87139277D01*
X125283598Y-87155753D01*
X125263893Y-87170367D01*
X125242849Y-87182980D01*
X125220671Y-87193470D01*
X125197571Y-87201735D01*
X125173773Y-87207696D01*
X125149504Y-87211296D01*
X125125000Y-87212500D01*
X123875000Y-87212500D01*
X123850496Y-87211296D01*
X123826227Y-87207696D01*
X123802429Y-87201735D01*
X123779329Y-87193470D01*
X123757151Y-87182980D01*
X123736107Y-87170367D01*
X123716402Y-87155753D01*
X123698223Y-87139277D01*
X123681747Y-87121098D01*
X123667133Y-87101393D01*
X123654520Y-87080349D01*
X123644030Y-87058171D01*
X123635765Y-87035071D01*
X123629804Y-87011273D01*
X123626204Y-86987004D01*
X123625000Y-86962500D01*
X123625000Y-86037500D01*
X123626204Y-86012996D01*
X123629804Y-85988727D01*
X123635765Y-85964929D01*
X123644030Y-85941829D01*
X123654520Y-85919651D01*
X123667133Y-85898607D01*
X123681747Y-85878902D01*
X123698223Y-85860723D01*
X123716402Y-85844247D01*
X123736107Y-85829633D01*
X123757151Y-85817020D01*
X123779329Y-85806530D01*
X123802429Y-85798265D01*
X123826227Y-85792304D01*
X123850496Y-85788704D01*
X123875000Y-85787500D01*
X125125000Y-85787500D01*
X125149504Y-85788704D01*
G37*
G04 #@! TD.AperFunction*
G04 #@! TA.AperFunction,SMDPad,CuDef*
G36*
X109899504Y-85788704D02*
G01*
X109923773Y-85792304D01*
X109947571Y-85798265D01*
X109970671Y-85806530D01*
X109992849Y-85817020D01*
X110013893Y-85829633D01*
X110033598Y-85844247D01*
X110051777Y-85860723D01*
X110068253Y-85878902D01*
X110082867Y-85898607D01*
X110095480Y-85919651D01*
X110105970Y-85941829D01*
X110114235Y-85964929D01*
X110120196Y-85988727D01*
X110123796Y-86012996D01*
X110125000Y-86037500D01*
X110125000Y-86962500D01*
X110123796Y-86987004D01*
X110120196Y-87011273D01*
X110114235Y-87035071D01*
X110105970Y-87058171D01*
X110095480Y-87080349D01*
X110082867Y-87101393D01*
X110068253Y-87121098D01*
X110051777Y-87139277D01*
X110033598Y-87155753D01*
X110013893Y-87170367D01*
X109992849Y-87182980D01*
X109970671Y-87193470D01*
X109947571Y-87201735D01*
X109923773Y-87207696D01*
X109899504Y-87211296D01*
X109875000Y-87212500D01*
X108625000Y-87212500D01*
X108600496Y-87211296D01*
X108576227Y-87207696D01*
X108552429Y-87201735D01*
X108529329Y-87193470D01*
X108507151Y-87182980D01*
X108486107Y-87170367D01*
X108466402Y-87155753D01*
X108448223Y-87139277D01*
X108431747Y-87121098D01*
X108417133Y-87101393D01*
X108404520Y-87080349D01*
X108394030Y-87058171D01*
X108385765Y-87035071D01*
X108379804Y-87011273D01*
X108376204Y-86987004D01*
X108375000Y-86962500D01*
X108375000Y-86037500D01*
X108376204Y-86012996D01*
X108379804Y-85988727D01*
X108385765Y-85964929D01*
X108394030Y-85941829D01*
X108404520Y-85919651D01*
X108417133Y-85898607D01*
X108431747Y-85878902D01*
X108448223Y-85860723D01*
X108466402Y-85844247D01*
X108486107Y-85829633D01*
X108507151Y-85817020D01*
X108529329Y-85806530D01*
X108552429Y-85798265D01*
X108576227Y-85792304D01*
X108600496Y-85788704D01*
X108625000Y-85787500D01*
X109875000Y-85787500D01*
X109899504Y-85788704D01*
G37*
G04 #@! TD.AperFunction*
G04 #@! TA.AperFunction,SMDPad,CuDef*
G36*
X109899504Y-88763704D02*
G01*
X109923773Y-88767304D01*
X109947571Y-88773265D01*
X109970671Y-88781530D01*
X109992849Y-88792020D01*
X110013893Y-88804633D01*
X110033598Y-88819247D01*
X110051777Y-88835723D01*
X110068253Y-88853902D01*
X110082867Y-88873607D01*
X110095480Y-88894651D01*
X110105970Y-88916829D01*
X110114235Y-88939929D01*
X110120196Y-88963727D01*
X110123796Y-88987996D01*
X110125000Y-89012500D01*
X110125000Y-89937500D01*
X110123796Y-89962004D01*
X110120196Y-89986273D01*
X110114235Y-90010071D01*
X110105970Y-90033171D01*
X110095480Y-90055349D01*
X110082867Y-90076393D01*
X110068253Y-90096098D01*
X110051777Y-90114277D01*
X110033598Y-90130753D01*
X110013893Y-90145367D01*
X109992849Y-90157980D01*
X109970671Y-90168470D01*
X109947571Y-90176735D01*
X109923773Y-90182696D01*
X109899504Y-90186296D01*
X109875000Y-90187500D01*
X108625000Y-90187500D01*
X108600496Y-90186296D01*
X108576227Y-90182696D01*
X108552429Y-90176735D01*
X108529329Y-90168470D01*
X108507151Y-90157980D01*
X108486107Y-90145367D01*
X108466402Y-90130753D01*
X108448223Y-90114277D01*
X108431747Y-90096098D01*
X108417133Y-90076393D01*
X108404520Y-90055349D01*
X108394030Y-90033171D01*
X108385765Y-90010071D01*
X108379804Y-89986273D01*
X108376204Y-89962004D01*
X108375000Y-89937500D01*
X108375000Y-89012500D01*
X108376204Y-88987996D01*
X108379804Y-88963727D01*
X108385765Y-88939929D01*
X108394030Y-88916829D01*
X108404520Y-88894651D01*
X108417133Y-88873607D01*
X108431747Y-88853902D01*
X108448223Y-88835723D01*
X108466402Y-88819247D01*
X108486107Y-88804633D01*
X108507151Y-88792020D01*
X108529329Y-88781530D01*
X108552429Y-88773265D01*
X108576227Y-88767304D01*
X108600496Y-88763704D01*
X108625000Y-88762500D01*
X109875000Y-88762500D01*
X109899504Y-88763704D01*
G37*
G04 #@! TD.AperFunction*
D16*
X129575001Y-85575001D03*
D17*
X129575001Y-88115001D03*
X129575001Y-90655001D03*
X129575001Y-93195001D03*
X129575001Y-95735001D03*
X129575001Y-98275001D03*
G04 #@! TA.AperFunction,SMDPad,CuDef*
D15*
G36*
X121899504Y-88788704D02*
G01*
X121923773Y-88792304D01*
X121947571Y-88798265D01*
X121970671Y-88806530D01*
X121992849Y-88817020D01*
X122013893Y-88829633D01*
X122033598Y-88844247D01*
X122051777Y-88860723D01*
X122068253Y-88878902D01*
X122082867Y-88898607D01*
X122095480Y-88919651D01*
X122105970Y-88941829D01*
X122114235Y-88964929D01*
X122120196Y-88988727D01*
X122123796Y-89012996D01*
X122125000Y-89037500D01*
X122125000Y-89962500D01*
X122123796Y-89987004D01*
X122120196Y-90011273D01*
X122114235Y-90035071D01*
X122105970Y-90058171D01*
X122095480Y-90080349D01*
X122082867Y-90101393D01*
X122068253Y-90121098D01*
X122051777Y-90139277D01*
X122033598Y-90155753D01*
X122013893Y-90170367D01*
X121992849Y-90182980D01*
X121970671Y-90193470D01*
X121947571Y-90201735D01*
X121923773Y-90207696D01*
X121899504Y-90211296D01*
X121875000Y-90212500D01*
X120625000Y-90212500D01*
X120600496Y-90211296D01*
X120576227Y-90207696D01*
X120552429Y-90201735D01*
X120529329Y-90193470D01*
X120507151Y-90182980D01*
X120486107Y-90170367D01*
X120466402Y-90155753D01*
X120448223Y-90139277D01*
X120431747Y-90121098D01*
X120417133Y-90101393D01*
X120404520Y-90080349D01*
X120394030Y-90058171D01*
X120385765Y-90035071D01*
X120379804Y-90011273D01*
X120376204Y-89987004D01*
X120375000Y-89962500D01*
X120375000Y-89037500D01*
X120376204Y-89012996D01*
X120379804Y-88988727D01*
X120385765Y-88964929D01*
X120394030Y-88941829D01*
X120404520Y-88919651D01*
X120417133Y-88898607D01*
X120431747Y-88878902D01*
X120448223Y-88860723D01*
X120466402Y-88844247D01*
X120486107Y-88829633D01*
X120507151Y-88817020D01*
X120529329Y-88806530D01*
X120552429Y-88798265D01*
X120576227Y-88792304D01*
X120600496Y-88788704D01*
X120625000Y-88787500D01*
X121875000Y-88787500D01*
X121899504Y-88788704D01*
G37*
G04 #@! TD.AperFunction*
G04 #@! TA.AperFunction,SMDPad,CuDef*
G36*
X121899504Y-85813704D02*
G01*
X121923773Y-85817304D01*
X121947571Y-85823265D01*
X121970671Y-85831530D01*
X121992849Y-85842020D01*
X122013893Y-85854633D01*
X122033598Y-85869247D01*
X122051777Y-85885723D01*
X122068253Y-85903902D01*
X122082867Y-85923607D01*
X122095480Y-85944651D01*
X122105970Y-85966829D01*
X122114235Y-85989929D01*
X122120196Y-86013727D01*
X122123796Y-86037996D01*
X122125000Y-86062500D01*
X122125000Y-86987500D01*
X122123796Y-87012004D01*
X122120196Y-87036273D01*
X122114235Y-87060071D01*
X122105970Y-87083171D01*
X122095480Y-87105349D01*
X122082867Y-87126393D01*
X122068253Y-87146098D01*
X122051777Y-87164277D01*
X122033598Y-87180753D01*
X122013893Y-87195367D01*
X121992849Y-87207980D01*
X121970671Y-87218470D01*
X121947571Y-87226735D01*
X121923773Y-87232696D01*
X121899504Y-87236296D01*
X121875000Y-87237500D01*
X120625000Y-87237500D01*
X120600496Y-87236296D01*
X120576227Y-87232696D01*
X120552429Y-87226735D01*
X120529329Y-87218470D01*
X120507151Y-87207980D01*
X120486107Y-87195367D01*
X120466402Y-87180753D01*
X120448223Y-87164277D01*
X120431747Y-87146098D01*
X120417133Y-87126393D01*
X120404520Y-87105349D01*
X120394030Y-87083171D01*
X120385765Y-87060071D01*
X120379804Y-87036273D01*
X120376204Y-87012004D01*
X120375000Y-86987500D01*
X120375000Y-86062500D01*
X120376204Y-86037996D01*
X120379804Y-86013727D01*
X120385765Y-85989929D01*
X120394030Y-85966829D01*
X120404520Y-85944651D01*
X120417133Y-85923607D01*
X120431747Y-85903902D01*
X120448223Y-85885723D01*
X120466402Y-85869247D01*
X120486107Y-85854633D01*
X120507151Y-85842020D01*
X120529329Y-85831530D01*
X120552429Y-85823265D01*
X120576227Y-85817304D01*
X120600496Y-85813704D01*
X120625000Y-85812500D01*
X121875000Y-85812500D01*
X121899504Y-85813704D01*
G37*
G04 #@! TD.AperFunction*
G04 #@! TA.AperFunction,SMDPad,CuDef*
G36*
X112499503Y-94376204D02*
G01*
X112523772Y-94379804D01*
X112547570Y-94385765D01*
X112570670Y-94394030D01*
X112592848Y-94404520D01*
X112613892Y-94417133D01*
X112633597Y-94431747D01*
X112651776Y-94448223D01*
X112668252Y-94466402D01*
X112682866Y-94486107D01*
X112695479Y-94507151D01*
X112705969Y-94529329D01*
X112714234Y-94552429D01*
X112720195Y-94576227D01*
X112723795Y-94600496D01*
X112724999Y-94625000D01*
X112724999Y-95875000D01*
X112723795Y-95899504D01*
X112720195Y-95923773D01*
X112714234Y-95947571D01*
X112705969Y-95970671D01*
X112695479Y-95992849D01*
X112682866Y-96013893D01*
X112668252Y-96033598D01*
X112651776Y-96051777D01*
X112633597Y-96068253D01*
X112613892Y-96082867D01*
X112592848Y-96095480D01*
X112570670Y-96105970D01*
X112547570Y-96114235D01*
X112523772Y-96120196D01*
X112499503Y-96123796D01*
X112474999Y-96125000D01*
X111549999Y-96125000D01*
X111525495Y-96123796D01*
X111501226Y-96120196D01*
X111477428Y-96114235D01*
X111454328Y-96105970D01*
X111432150Y-96095480D01*
X111411106Y-96082867D01*
X111391401Y-96068253D01*
X111373222Y-96051777D01*
X111356746Y-96033598D01*
X111342132Y-96013893D01*
X111329519Y-95992849D01*
X111319029Y-95970671D01*
X111310764Y-95947571D01*
X111304803Y-95923773D01*
X111301203Y-95899504D01*
X111299999Y-95875000D01*
X111299999Y-94625000D01*
X111301203Y-94600496D01*
X111304803Y-94576227D01*
X111310764Y-94552429D01*
X111319029Y-94529329D01*
X111329519Y-94507151D01*
X111342132Y-94486107D01*
X111356746Y-94466402D01*
X111373222Y-94448223D01*
X111391401Y-94431747D01*
X111411106Y-94417133D01*
X111432150Y-94404520D01*
X111454328Y-94394030D01*
X111477428Y-94385765D01*
X111501226Y-94379804D01*
X111525495Y-94376204D01*
X111549999Y-94375000D01*
X112474999Y-94375000D01*
X112499503Y-94376204D01*
G37*
G04 #@! TD.AperFunction*
G04 #@! TA.AperFunction,SMDPad,CuDef*
G36*
X109524503Y-94376204D02*
G01*
X109548772Y-94379804D01*
X109572570Y-94385765D01*
X109595670Y-94394030D01*
X109617848Y-94404520D01*
X109638892Y-94417133D01*
X109658597Y-94431747D01*
X109676776Y-94448223D01*
X109693252Y-94466402D01*
X109707866Y-94486107D01*
X109720479Y-94507151D01*
X109730969Y-94529329D01*
X109739234Y-94552429D01*
X109745195Y-94576227D01*
X109748795Y-94600496D01*
X109749999Y-94625000D01*
X109749999Y-95875000D01*
X109748795Y-95899504D01*
X109745195Y-95923773D01*
X109739234Y-95947571D01*
X109730969Y-95970671D01*
X109720479Y-95992849D01*
X109707866Y-96013893D01*
X109693252Y-96033598D01*
X109676776Y-96051777D01*
X109658597Y-96068253D01*
X109638892Y-96082867D01*
X109617848Y-96095480D01*
X109595670Y-96105970D01*
X109572570Y-96114235D01*
X109548772Y-96120196D01*
X109524503Y-96123796D01*
X109499999Y-96125000D01*
X108574999Y-96125000D01*
X108550495Y-96123796D01*
X108526226Y-96120196D01*
X108502428Y-96114235D01*
X108479328Y-96105970D01*
X108457150Y-96095480D01*
X108436106Y-96082867D01*
X108416401Y-96068253D01*
X108398222Y-96051777D01*
X108381746Y-96033598D01*
X108367132Y-96013893D01*
X108354519Y-95992849D01*
X108344029Y-95970671D01*
X108335764Y-95947571D01*
X108329803Y-95923773D01*
X108326203Y-95899504D01*
X108324999Y-95875000D01*
X108324999Y-94625000D01*
X108326203Y-94600496D01*
X108329803Y-94576227D01*
X108335764Y-94552429D01*
X108344029Y-94529329D01*
X108354519Y-94507151D01*
X108367132Y-94486107D01*
X108381746Y-94466402D01*
X108398222Y-94448223D01*
X108416401Y-94431747D01*
X108436106Y-94417133D01*
X108457150Y-94404520D01*
X108479328Y-94394030D01*
X108502428Y-94385765D01*
X108526226Y-94379804D01*
X108550495Y-94376204D01*
X108574999Y-94375000D01*
X109499999Y-94375000D01*
X109524503Y-94376204D01*
G37*
G04 #@! TD.AperFunction*
G04 #@! TA.AperFunction,SMDPad,CuDef*
G36*
X109524503Y-91441203D02*
G01*
X109548772Y-91444803D01*
X109572570Y-91450764D01*
X109595670Y-91459029D01*
X109617848Y-91469519D01*
X109638892Y-91482132D01*
X109658597Y-91496746D01*
X109676776Y-91513222D01*
X109693252Y-91531401D01*
X109707866Y-91551106D01*
X109720479Y-91572150D01*
X109730969Y-91594328D01*
X109739234Y-91617428D01*
X109745195Y-91641226D01*
X109748795Y-91665495D01*
X109749999Y-91689999D01*
X109749999Y-92939999D01*
X109748795Y-92964503D01*
X109745195Y-92988772D01*
X109739234Y-93012570D01*
X109730969Y-93035670D01*
X109720479Y-93057848D01*
X109707866Y-93078892D01*
X109693252Y-93098597D01*
X109676776Y-93116776D01*
X109658597Y-93133252D01*
X109638892Y-93147866D01*
X109617848Y-93160479D01*
X109595670Y-93170969D01*
X109572570Y-93179234D01*
X109548772Y-93185195D01*
X109524503Y-93188795D01*
X109499999Y-93189999D01*
X108574999Y-93189999D01*
X108550495Y-93188795D01*
X108526226Y-93185195D01*
X108502428Y-93179234D01*
X108479328Y-93170969D01*
X108457150Y-93160479D01*
X108436106Y-93147866D01*
X108416401Y-93133252D01*
X108398222Y-93116776D01*
X108381746Y-93098597D01*
X108367132Y-93078892D01*
X108354519Y-93057848D01*
X108344029Y-93035670D01*
X108335764Y-93012570D01*
X108329803Y-92988772D01*
X108326203Y-92964503D01*
X108324999Y-92939999D01*
X108324999Y-91689999D01*
X108326203Y-91665495D01*
X108329803Y-91641226D01*
X108335764Y-91617428D01*
X108344029Y-91594328D01*
X108354519Y-91572150D01*
X108367132Y-91551106D01*
X108381746Y-91531401D01*
X108398222Y-91513222D01*
X108416401Y-91496746D01*
X108436106Y-91482132D01*
X108457150Y-91469519D01*
X108479328Y-91459029D01*
X108502428Y-91450764D01*
X108526226Y-91444803D01*
X108550495Y-91441203D01*
X108574999Y-91439999D01*
X109499999Y-91439999D01*
X109524503Y-91441203D01*
G37*
G04 #@! TD.AperFunction*
G04 #@! TA.AperFunction,SMDPad,CuDef*
G36*
X112499503Y-91441203D02*
G01*
X112523772Y-91444803D01*
X112547570Y-91450764D01*
X112570670Y-91459029D01*
X112592848Y-91469519D01*
X112613892Y-91482132D01*
X112633597Y-91496746D01*
X112651776Y-91513222D01*
X112668252Y-91531401D01*
X112682866Y-91551106D01*
X112695479Y-91572150D01*
X112705969Y-91594328D01*
X112714234Y-91617428D01*
X112720195Y-91641226D01*
X112723795Y-91665495D01*
X112724999Y-91689999D01*
X112724999Y-92939999D01*
X112723795Y-92964503D01*
X112720195Y-92988772D01*
X112714234Y-93012570D01*
X112705969Y-93035670D01*
X112695479Y-93057848D01*
X112682866Y-93078892D01*
X112668252Y-93098597D01*
X112651776Y-93116776D01*
X112633597Y-93133252D01*
X112613892Y-93147866D01*
X112592848Y-93160479D01*
X112570670Y-93170969D01*
X112547570Y-93179234D01*
X112523772Y-93185195D01*
X112499503Y-93188795D01*
X112474999Y-93189999D01*
X111549999Y-93189999D01*
X111525495Y-93188795D01*
X111501226Y-93185195D01*
X111477428Y-93179234D01*
X111454328Y-93170969D01*
X111432150Y-93160479D01*
X111411106Y-93147866D01*
X111391401Y-93133252D01*
X111373222Y-93116776D01*
X111356746Y-93098597D01*
X111342132Y-93078892D01*
X111329519Y-93057848D01*
X111319029Y-93035670D01*
X111310764Y-93012570D01*
X111304803Y-92988772D01*
X111301203Y-92964503D01*
X111299999Y-92939999D01*
X111299999Y-91689999D01*
X111301203Y-91665495D01*
X111304803Y-91641226D01*
X111310764Y-91617428D01*
X111319029Y-91594328D01*
X111329519Y-91572150D01*
X111342132Y-91551106D01*
X111356746Y-91531401D01*
X111373222Y-91513222D01*
X111391401Y-91496746D01*
X111411106Y-91482132D01*
X111432150Y-91469519D01*
X111454328Y-91459029D01*
X111477428Y-91450764D01*
X111501226Y-91444803D01*
X111525495Y-91441203D01*
X111549999Y-91439999D01*
X112474999Y-91439999D01*
X112499503Y-91441203D01*
G37*
G04 #@! TD.AperFunction*
D18*
X124750000Y-90750000D03*
X113750000Y-86500000D03*
X116750000Y-86500000D03*
X119750000Y-86500000D03*
X123000000Y-97250000D03*
X105750000Y-93000000D03*
D19*
X106738895Y-92314999D02*
X109037499Y-92314999D01*
X104212500Y-90350000D02*
X104312500Y-90450000D01*
X105063885Y-90450000D02*
X105637492Y-91023607D01*
X105637492Y-91213596D02*
X106738895Y-92314999D01*
X104312500Y-90450000D02*
X105063885Y-90450000D01*
X105637492Y-91023607D02*
X105637492Y-91213596D01*
X105187501Y-91400002D02*
X109037499Y-95250000D01*
X105187501Y-91209999D02*
X105187501Y-91400002D01*
X104212500Y-91000000D02*
X104312500Y-90900000D01*
X104877502Y-90900000D02*
X105187501Y-91209999D01*
X104312500Y-90900000D02*
X104877502Y-90900000D01*
D20*
X112250000Y-89475000D02*
X115250000Y-89475000D01*
X115250000Y-89475000D02*
X118250000Y-89475000D01*
X121475000Y-89475000D02*
X121500000Y-89500000D01*
X118250000Y-89475000D02*
X121475000Y-89475000D01*
X130879002Y-96971000D02*
X129575001Y-98275001D01*
X130879002Y-86879002D02*
X130879002Y-96971000D01*
X129575001Y-85575001D02*
X130879002Y-86879002D01*
D21*
X106762500Y-89700000D02*
X109250000Y-87212500D01*
X109250000Y-87212500D02*
X109250000Y-86500000D01*
X104212500Y-89700000D02*
X106762500Y-89700000D01*
X109250000Y-89475000D02*
X112250000Y-89475000D01*
X122125000Y-89500000D02*
X123625000Y-88000000D01*
X121250000Y-89500000D02*
X122125000Y-89500000D01*
X128344001Y-85575001D02*
X129575001Y-85575001D01*
X125919002Y-88000000D02*
X128344001Y-85575001D01*
X123625000Y-88000000D02*
X125919002Y-88000000D01*
X109250000Y-86500000D02*
X109250000Y-89475000D01*
D20*
X124750000Y-89475000D02*
X124750000Y-90750000D01*
X112250000Y-86500000D02*
X113750000Y-86500000D01*
X115250000Y-86500000D02*
X116750000Y-86500000D01*
X118250000Y-86500000D02*
X119750000Y-86500000D01*
X123012500Y-95750000D02*
X123012500Y-97237500D01*
X123012500Y-97237500D02*
X123000000Y-97250000D01*
D21*
X104212500Y-92300000D02*
X105050000Y-92300000D01*
X105050000Y-92300000D02*
X105750000Y-93000000D01*
D22*
X126002499Y-95735001D02*
X125987500Y-95750000D01*
X129575001Y-95735001D02*
X126002499Y-95735001D01*
X124475000Y-86525000D02*
X124500000Y-86500000D01*
X121250000Y-86525000D02*
X124475000Y-86525000D01*
D19*
X124132502Y-93557500D02*
X129575001Y-88115001D01*
X112012499Y-92315000D02*
X113254999Y-93557500D01*
X113254999Y-93557500D02*
X124132502Y-93557500D01*
X112012499Y-92314999D02*
X112012499Y-92315000D01*
X113254999Y-94007500D02*
X124318899Y-94007500D01*
X112012499Y-95250000D02*
X113254999Y-94007500D01*
X124318899Y-94007500D02*
X127671398Y-90655001D01*
X127671398Y-90655001D02*
X129575001Y-90655001D01*
D23*
G36*
X128135499Y-84480821D02*
G01*
X128099189Y-84600519D01*
X128086929Y-84725001D01*
X128086929Y-84790337D01*
X128026567Y-84808648D01*
X127901679Y-84875403D01*
X127883157Y-84885303D01*
X127846355Y-84915506D01*
X127757460Y-84988460D01*
X127731607Y-85019962D01*
X126013072Y-86738498D01*
X126013072Y-86037500D01*
X125996008Y-85864246D01*
X125945472Y-85697650D01*
X125863405Y-85544114D01*
X125752962Y-85409538D01*
X125618386Y-85299095D01*
X125464850Y-85217028D01*
X125298254Y-85166492D01*
X125125000Y-85149428D01*
X123875000Y-85149428D01*
X123701746Y-85166492D01*
X123535150Y-85217028D01*
X123381614Y-85299095D01*
X123247038Y-85409538D01*
X123136595Y-85544114D01*
X123054528Y-85697650D01*
X123034098Y-85765000D01*
X122708319Y-85765000D01*
X122695472Y-85722650D01*
X122613405Y-85569114D01*
X122502962Y-85434538D01*
X122368386Y-85324095D01*
X122214850Y-85242028D01*
X122048254Y-85191492D01*
X121875000Y-85174428D01*
X120625000Y-85174428D01*
X120451746Y-85191492D01*
X120285150Y-85242028D01*
X120131614Y-85324095D01*
X119997038Y-85434538D01*
X119886595Y-85569114D01*
X119804528Y-85722650D01*
X119762542Y-85861059D01*
X119763072Y-85787500D01*
X119750812Y-85663018D01*
X119714502Y-85543320D01*
X119655537Y-85433006D01*
X119576185Y-85336315D01*
X119479494Y-85256963D01*
X119369180Y-85197998D01*
X119249482Y-85161688D01*
X119125000Y-85149428D01*
X118535750Y-85152500D01*
X118377000Y-85311250D01*
X118377000Y-86373000D01*
X118397000Y-86373000D01*
X118397000Y-86627000D01*
X118377000Y-86627000D01*
X118377000Y-87688750D01*
X118535750Y-87847500D01*
X119125000Y-87850572D01*
X119249482Y-87838312D01*
X119369180Y-87802002D01*
X119479494Y-87743037D01*
X119576185Y-87663685D01*
X119655537Y-87566994D01*
X119714502Y-87456680D01*
X119750812Y-87336982D01*
X119763072Y-87212500D01*
X119762911Y-87190157D01*
X119804528Y-87327350D01*
X119886595Y-87480886D01*
X119997038Y-87615462D01*
X120131614Y-87725905D01*
X120285150Y-87807972D01*
X120451746Y-87858508D01*
X120625000Y-87875572D01*
X121875000Y-87875572D01*
X122048254Y-87858508D01*
X122214850Y-87807972D01*
X122368386Y-87725905D01*
X122502962Y-87615462D01*
X122613405Y-87480886D01*
X122695472Y-87327350D01*
X122708319Y-87285000D01*
X123049265Y-87285000D01*
X123054528Y-87302350D01*
X123090909Y-87370414D01*
X123038459Y-87413459D01*
X123012608Y-87444959D01*
X122231591Y-88225976D01*
X122214850Y-88217028D01*
X122048254Y-88166492D01*
X121875000Y-88149428D01*
X120625000Y-88149428D01*
X120451746Y-88166492D01*
X120285150Y-88217028D01*
X120131614Y-88299095D01*
X119997038Y-88409538D01*
X119886595Y-88544114D01*
X119864206Y-88586000D01*
X119649156Y-88586000D01*
X119613405Y-88519114D01*
X119502962Y-88384538D01*
X119368386Y-88274095D01*
X119214850Y-88192028D01*
X119048254Y-88141492D01*
X118875000Y-88124428D01*
X117625000Y-88124428D01*
X117451746Y-88141492D01*
X117285150Y-88192028D01*
X117131614Y-88274095D01*
X116997038Y-88384538D01*
X116886595Y-88519114D01*
X116850844Y-88586000D01*
X116649156Y-88586000D01*
X116613405Y-88519114D01*
X116502962Y-88384538D01*
X116368386Y-88274095D01*
X116214850Y-88192028D01*
X116048254Y-88141492D01*
X115875000Y-88124428D01*
X114625000Y-88124428D01*
X114451746Y-88141492D01*
X114285150Y-88192028D01*
X114131614Y-88274095D01*
X113997038Y-88384538D01*
X113886595Y-88519114D01*
X113850844Y-88586000D01*
X113649156Y-88586000D01*
X113613405Y-88519114D01*
X113502962Y-88384538D01*
X113368386Y-88274095D01*
X113214850Y-88192028D01*
X113048254Y-88141492D01*
X112875000Y-88124428D01*
X111625000Y-88124428D01*
X111451746Y-88141492D01*
X111285150Y-88192028D01*
X111131614Y-88274095D01*
X110997038Y-88384538D01*
X110886595Y-88519114D01*
X110816902Y-88649500D01*
X110683098Y-88649500D01*
X110613405Y-88519114D01*
X110502962Y-88384538D01*
X110368386Y-88274095D01*
X110214850Y-88192028D01*
X110075500Y-88149757D01*
X110075500Y-87825243D01*
X110214850Y-87782972D01*
X110368386Y-87700905D01*
X110502962Y-87590462D01*
X110613405Y-87455886D01*
X110695472Y-87302350D01*
X110737273Y-87164549D01*
X110736928Y-87212500D01*
X110749188Y-87336982D01*
X110785498Y-87456680D01*
X110844463Y-87566994D01*
X110923815Y-87663685D01*
X111020506Y-87743037D01*
X111130820Y-87802002D01*
X111250518Y-87838312D01*
X111375000Y-87850572D01*
X111964250Y-87847500D01*
X112123000Y-87688750D01*
X112123000Y-86627000D01*
X112377000Y-86627000D01*
X112377000Y-87688750D01*
X112535750Y-87847500D01*
X113125000Y-87850572D01*
X113249482Y-87838312D01*
X113369180Y-87802002D01*
X113479494Y-87743037D01*
X113576185Y-87663685D01*
X113655537Y-87566994D01*
X113714502Y-87456680D01*
X113750000Y-87339659D01*
X113785498Y-87456680D01*
X113844463Y-87566994D01*
X113923815Y-87663685D01*
X114020506Y-87743037D01*
X114130820Y-87802002D01*
X114250518Y-87838312D01*
X114375000Y-87850572D01*
X114964250Y-87847500D01*
X115123000Y-87688750D01*
X115123000Y-86627000D01*
X115377000Y-86627000D01*
X115377000Y-87688750D01*
X115535750Y-87847500D01*
X116125000Y-87850572D01*
X116249482Y-87838312D01*
X116369180Y-87802002D01*
X116479494Y-87743037D01*
X116576185Y-87663685D01*
X116655537Y-87566994D01*
X116714502Y-87456680D01*
X116750000Y-87339659D01*
X116785498Y-87456680D01*
X116844463Y-87566994D01*
X116923815Y-87663685D01*
X117020506Y-87743037D01*
X117130820Y-87802002D01*
X117250518Y-87838312D01*
X117375000Y-87850572D01*
X117964250Y-87847500D01*
X118123000Y-87688750D01*
X118123000Y-86627000D01*
X116898750Y-86627000D01*
X116750000Y-86775750D01*
X116601250Y-86627000D01*
X115377000Y-86627000D01*
X115123000Y-86627000D01*
X113898750Y-86627000D01*
X113750000Y-86775750D01*
X113601250Y-86627000D01*
X112377000Y-86627000D01*
X112123000Y-86627000D01*
X112103000Y-86627000D01*
X112103000Y-86373000D01*
X112123000Y-86373000D01*
X112123000Y-85311250D01*
X112377000Y-85311250D01*
X112377000Y-86373000D01*
X113601250Y-86373000D01*
X113750000Y-86224250D01*
X113898750Y-86373000D01*
X115123000Y-86373000D01*
X115123000Y-85311250D01*
X115377000Y-85311250D01*
X115377000Y-86373000D01*
X116601250Y-86373000D01*
X116750000Y-86224250D01*
X116898750Y-86373000D01*
X118123000Y-86373000D01*
X118123000Y-85311250D01*
X117964250Y-85152500D01*
X117375000Y-85149428D01*
X117250518Y-85161688D01*
X117130820Y-85197998D01*
X117020506Y-85256963D01*
X116923815Y-85336315D01*
X116844463Y-85433006D01*
X116785498Y-85543320D01*
X116750000Y-85660341D01*
X116714502Y-85543320D01*
X116655537Y-85433006D01*
X116576185Y-85336315D01*
X116479494Y-85256963D01*
X116369180Y-85197998D01*
X116249482Y-85161688D01*
X116125000Y-85149428D01*
X115535750Y-85152500D01*
X115377000Y-85311250D01*
X115123000Y-85311250D01*
X114964250Y-85152500D01*
X114375000Y-85149428D01*
X114250518Y-85161688D01*
X114130820Y-85197998D01*
X114020506Y-85256963D01*
X113923815Y-85336315D01*
X113844463Y-85433006D01*
X113785498Y-85543320D01*
X113750000Y-85660341D01*
X113714502Y-85543320D01*
X113655537Y-85433006D01*
X113576185Y-85336315D01*
X113479494Y-85256963D01*
X113369180Y-85197998D01*
X113249482Y-85161688D01*
X113125000Y-85149428D01*
X112535750Y-85152500D01*
X112377000Y-85311250D01*
X112123000Y-85311250D01*
X111964250Y-85152500D01*
X111375000Y-85149428D01*
X111250518Y-85161688D01*
X111130820Y-85197998D01*
X111020506Y-85256963D01*
X110923815Y-85336315D01*
X110844463Y-85433006D01*
X110785498Y-85543320D01*
X110749188Y-85663018D01*
X110736928Y-85787500D01*
X110737273Y-85835451D01*
X110695472Y-85697650D01*
X110613405Y-85544114D01*
X110502962Y-85409538D01*
X110368386Y-85299095D01*
X110214850Y-85217028D01*
X110048254Y-85166492D01*
X109875000Y-85149428D01*
X108625000Y-85149428D01*
X108451746Y-85166492D01*
X108285150Y-85217028D01*
X108131614Y-85299095D01*
X107997038Y-85409538D01*
X107886595Y-85544114D01*
X107804528Y-85697650D01*
X107753992Y-85864246D01*
X107736928Y-86037500D01*
X107736928Y-86962500D01*
X107753992Y-87135754D01*
X107804528Y-87302350D01*
X107870080Y-87424988D01*
X106420568Y-88874500D01*
X105520945Y-88874500D01*
X105565219Y-88694151D01*
X105577104Y-88426518D01*
X105536548Y-88161709D01*
X105445109Y-87909900D01*
X105387950Y-87802965D01*
X105151633Y-87740472D01*
X104392105Y-88500000D01*
X104406248Y-88514143D01*
X104226643Y-88693748D01*
X104212500Y-88679605D01*
X104198358Y-88693748D01*
X104018753Y-88514143D01*
X104032895Y-88500000D01*
X103273367Y-87740472D01*
X103097767Y-87786909D01*
X103099976Y-87560867D01*
X103452972Y-87560867D01*
X104212500Y-88320395D01*
X104972028Y-87560867D01*
X104909535Y-87324550D01*
X104666822Y-87211150D01*
X104406651Y-87147281D01*
X104139018Y-87135396D01*
X103874209Y-87175952D01*
X103622400Y-87267391D01*
X103515465Y-87324550D01*
X103452972Y-87560867D01*
X103099976Y-87560867D01*
X103100572Y-87500000D01*
X103097500Y-87468808D01*
X103097500Y-87372998D01*
X103087548Y-87372998D01*
X103052002Y-87255820D01*
X103032179Y-87218735D01*
X103055962Y-87182391D01*
X103052091Y-87144718D01*
X102959921Y-86919467D01*
X102825578Y-86716526D01*
X102654225Y-86543693D01*
X102452446Y-86407610D01*
X102227996Y-86313507D01*
X101989500Y-86265000D01*
X101639500Y-86265000D01*
X101639500Y-89873000D01*
X101659500Y-89873000D01*
X101659500Y-90127000D01*
X101639500Y-90127000D01*
X101639500Y-91873000D01*
X101659500Y-91873000D01*
X101659500Y-92127000D01*
X101639500Y-92127000D01*
X101639500Y-95735000D01*
X101989500Y-95735000D01*
X102227996Y-95686493D01*
X102452446Y-95592390D01*
X102654225Y-95456307D01*
X102825578Y-95283474D01*
X102959921Y-95080533D01*
X103052091Y-94855282D01*
X103055962Y-94817609D01*
X103032179Y-94781265D01*
X103052002Y-94744180D01*
X103087548Y-94627002D01*
X103097500Y-94627002D01*
X103097500Y-94531192D01*
X103100572Y-94500000D01*
X103099977Y-94439133D01*
X103452972Y-94439133D01*
X103515465Y-94675450D01*
X103758178Y-94788850D01*
X104018349Y-94852719D01*
X104285982Y-94864604D01*
X104550791Y-94824048D01*
X104802600Y-94732609D01*
X104909535Y-94675450D01*
X104972028Y-94439133D01*
X104212500Y-93679605D01*
X103452972Y-94439133D01*
X103099977Y-94439133D01*
X103097767Y-94213091D01*
X103273367Y-94259528D01*
X104032895Y-93500000D01*
X104018753Y-93485858D01*
X104198358Y-93306253D01*
X104212500Y-93320395D01*
X104226643Y-93306253D01*
X104406248Y-93485858D01*
X104392105Y-93500000D01*
X105151633Y-94259528D01*
X105387950Y-94197035D01*
X105501350Y-93954322D01*
X105565219Y-93694151D01*
X105577104Y-93426518D01*
X105536548Y-93161709D01*
X105445109Y-92909900D01*
X105416225Y-92855864D01*
X105473021Y-92753576D01*
X105479971Y-92731918D01*
X107686927Y-94938875D01*
X107686927Y-95875000D01*
X107703991Y-96048254D01*
X107754527Y-96214850D01*
X107836594Y-96368386D01*
X107947037Y-96502962D01*
X108081613Y-96613405D01*
X108235149Y-96695472D01*
X108401745Y-96746008D01*
X108574999Y-96763072D01*
X109499999Y-96763072D01*
X109673253Y-96746008D01*
X109839849Y-96695472D01*
X109993385Y-96613405D01*
X110127961Y-96502962D01*
X110238404Y-96368386D01*
X110320471Y-96214850D01*
X110371007Y-96048254D01*
X110388071Y-95875000D01*
X110388071Y-94625000D01*
X110371007Y-94451746D01*
X110320471Y-94285150D01*
X110238404Y-94131614D01*
X110127961Y-93997038D01*
X109993385Y-93886595D01*
X109839849Y-93804528D01*
X109767230Y-93782500D01*
X109839849Y-93760471D01*
X109993385Y-93678404D01*
X110127961Y-93567961D01*
X110238404Y-93433385D01*
X110320471Y-93279849D01*
X110371007Y-93113253D01*
X110388071Y-92939999D01*
X110388071Y-91689999D01*
X110371007Y-91516745D01*
X110320471Y-91350149D01*
X110238404Y-91196613D01*
X110127961Y-91062037D01*
X109993385Y-90951594D01*
X109839849Y-90869527D01*
X109694948Y-90825572D01*
X109875000Y-90825572D01*
X110048254Y-90808508D01*
X110214850Y-90757972D01*
X110368386Y-90675905D01*
X110502962Y-90565462D01*
X110613405Y-90430886D01*
X110683098Y-90300500D01*
X110816902Y-90300500D01*
X110886595Y-90430886D01*
X110997038Y-90565462D01*
X111131614Y-90675905D01*
X111285150Y-90757972D01*
X111451746Y-90808508D01*
X111467463Y-90810056D01*
X111376745Y-90818991D01*
X111210149Y-90869527D01*
X111056613Y-90951594D01*
X110922037Y-91062037D01*
X110811594Y-91196613D01*
X110729527Y-91350149D01*
X110678991Y-91516745D01*
X110661927Y-91689999D01*
X110661927Y-92939999D01*
X110678991Y-93113253D01*
X110729527Y-93279849D01*
X110811594Y-93433385D01*
X110922037Y-93567961D01*
X111056613Y-93678404D01*
X111210149Y-93760471D01*
X111282768Y-93782500D01*
X111210149Y-93804528D01*
X111056613Y-93886595D01*
X110922037Y-93997038D01*
X110811594Y-94131614D01*
X110729527Y-94285150D01*
X110678991Y-94451746D01*
X110661927Y-94625000D01*
X110661927Y-95875000D01*
X110678991Y-96048254D01*
X110729527Y-96214850D01*
X110811594Y-96368386D01*
X110922037Y-96502962D01*
X111056613Y-96613405D01*
X111210149Y-96695472D01*
X111376745Y-96746008D01*
X111549999Y-96763072D01*
X112474999Y-96763072D01*
X112648253Y-96746008D01*
X112814849Y-96695472D01*
X112946692Y-96625000D01*
X121661928Y-96625000D01*
X121674188Y-96749482D01*
X121710498Y-96869180D01*
X121769463Y-96979494D01*
X121848815Y-97076185D01*
X121945506Y-97155537D01*
X122055820Y-97214502D01*
X122175518Y-97250812D01*
X122300000Y-97263072D01*
X122726750Y-97260000D01*
X122885500Y-97101250D01*
X122885500Y-95877000D01*
X123139500Y-95877000D01*
X123139500Y-97101250D01*
X123298250Y-97260000D01*
X123725000Y-97263072D01*
X123849482Y-97250812D01*
X123969180Y-97214502D01*
X124079494Y-97155537D01*
X124176185Y-97076185D01*
X124255537Y-96979494D01*
X124314502Y-96869180D01*
X124350812Y-96749482D01*
X124363072Y-96625000D01*
X124360000Y-96035750D01*
X124201250Y-95877000D01*
X123139500Y-95877000D01*
X122885500Y-95877000D01*
X121823750Y-95877000D01*
X121665000Y-96035750D01*
X121661928Y-96625000D01*
X112946692Y-96625000D01*
X112968385Y-96613405D01*
X113102961Y-96502962D01*
X113213404Y-96368386D01*
X113295471Y-96214850D01*
X113346007Y-96048254D01*
X113363071Y-95875000D01*
X113363071Y-94938875D01*
X113559446Y-94742500D01*
X121676620Y-94742500D01*
X121674188Y-94750518D01*
X121661928Y-94875000D01*
X121665000Y-95464250D01*
X121823750Y-95623000D01*
X122885500Y-95623000D01*
X122885500Y-95603000D01*
X123139500Y-95603000D01*
X123139500Y-95623000D01*
X124201250Y-95623000D01*
X124360000Y-95464250D01*
X124363072Y-94875000D01*
X124350812Y-94750518D01*
X124348572Y-94743133D01*
X124355004Y-94742500D01*
X124462984Y-94731865D01*
X124601532Y-94689837D01*
X124729219Y-94621587D01*
X124841137Y-94529738D01*
X124864158Y-94501687D01*
X127975845Y-91390001D01*
X128280118Y-91390001D01*
X128421526Y-91601633D01*
X128628369Y-91808476D01*
X128810535Y-91930196D01*
X128693646Y-91999823D01*
X128477413Y-92194732D01*
X128303360Y-92428081D01*
X128178176Y-92690902D01*
X128133525Y-92838111D01*
X128254846Y-93068001D01*
X129448001Y-93068001D01*
X129448001Y-93048001D01*
X129702001Y-93048001D01*
X129702001Y-93068001D01*
X129722001Y-93068001D01*
X129722001Y-93322001D01*
X129702001Y-93322001D01*
X129702001Y-93342001D01*
X129448001Y-93342001D01*
X129448001Y-93322001D01*
X128254846Y-93322001D01*
X128133525Y-93551891D01*
X128178176Y-93699100D01*
X128303360Y-93961921D01*
X128477413Y-94195270D01*
X128693646Y-94390179D01*
X128810535Y-94459806D01*
X128628369Y-94581526D01*
X128421526Y-94788369D01*
X128296823Y-94975001D01*
X127323298Y-94975001D01*
X127321008Y-94951746D01*
X127270472Y-94785150D01*
X127188405Y-94631614D01*
X127077962Y-94497038D01*
X126943386Y-94386595D01*
X126789850Y-94304528D01*
X126623254Y-94253992D01*
X126450000Y-94236928D01*
X125525000Y-94236928D01*
X125351746Y-94253992D01*
X125185150Y-94304528D01*
X125031614Y-94386595D01*
X124897038Y-94497038D01*
X124786595Y-94631614D01*
X124704528Y-94785150D01*
X124653992Y-94951746D01*
X124636928Y-95125000D01*
X124636928Y-96375000D01*
X124653992Y-96548254D01*
X124704528Y-96714850D01*
X124786595Y-96868386D01*
X124897038Y-97002962D01*
X125031614Y-97113405D01*
X125185150Y-97195472D01*
X125351746Y-97246008D01*
X125525000Y-97263072D01*
X126450000Y-97263072D01*
X126623254Y-97246008D01*
X126789850Y-97195472D01*
X126943386Y-97113405D01*
X127077962Y-97002962D01*
X127188405Y-96868386D01*
X127270472Y-96714850D01*
X127321008Y-96548254D01*
X127326253Y-96495001D01*
X128296823Y-96495001D01*
X128421526Y-96681633D01*
X128628369Y-96888476D01*
X128802761Y-97005001D01*
X128628369Y-97121526D01*
X128421526Y-97328369D01*
X128259011Y-97571590D01*
X128147069Y-97841843D01*
X128090001Y-98128741D01*
X128090001Y-98421261D01*
X128147069Y-98708159D01*
X128259011Y-98978412D01*
X128421526Y-99221633D01*
X128539893Y-99340000D01*
X100660000Y-99340000D01*
X100660000Y-95629053D01*
X100797004Y-95686493D01*
X101035500Y-95735000D01*
X101385500Y-95735000D01*
X101385500Y-92127000D01*
X101365500Y-92127000D01*
X101365500Y-91873000D01*
X101385500Y-91873000D01*
X101385500Y-90127000D01*
X101365500Y-90127000D01*
X101365500Y-89873000D01*
X101385500Y-89873000D01*
X101385500Y-86265000D01*
X101035500Y-86265000D01*
X100797004Y-86313507D01*
X100660000Y-86370947D01*
X100660000Y-84410000D01*
X128173354Y-84410000D01*
X128135499Y-84480821D01*
G37*
X128135499Y-84480821D02*
X128099189Y-84600519D01*
X128086929Y-84725001D01*
X128086929Y-84790337D01*
X128026567Y-84808648D01*
X127901679Y-84875403D01*
X127883157Y-84885303D01*
X127846355Y-84915506D01*
X127757460Y-84988460D01*
X127731607Y-85019962D01*
X126013072Y-86738498D01*
X126013072Y-86037500D01*
X125996008Y-85864246D01*
X125945472Y-85697650D01*
X125863405Y-85544114D01*
X125752962Y-85409538D01*
X125618386Y-85299095D01*
X125464850Y-85217028D01*
X125298254Y-85166492D01*
X125125000Y-85149428D01*
X123875000Y-85149428D01*
X123701746Y-85166492D01*
X123535150Y-85217028D01*
X123381614Y-85299095D01*
X123247038Y-85409538D01*
X123136595Y-85544114D01*
X123054528Y-85697650D01*
X123034098Y-85765000D01*
X122708319Y-85765000D01*
X122695472Y-85722650D01*
X122613405Y-85569114D01*
X122502962Y-85434538D01*
X122368386Y-85324095D01*
X122214850Y-85242028D01*
X122048254Y-85191492D01*
X121875000Y-85174428D01*
X120625000Y-85174428D01*
X120451746Y-85191492D01*
X120285150Y-85242028D01*
X120131614Y-85324095D01*
X119997038Y-85434538D01*
X119886595Y-85569114D01*
X119804528Y-85722650D01*
X119762542Y-85861059D01*
X119763072Y-85787500D01*
X119750812Y-85663018D01*
X119714502Y-85543320D01*
X119655537Y-85433006D01*
X119576185Y-85336315D01*
X119479494Y-85256963D01*
X119369180Y-85197998D01*
X119249482Y-85161688D01*
X119125000Y-85149428D01*
X118535750Y-85152500D01*
X118377000Y-85311250D01*
X118377000Y-86373000D01*
X118397000Y-86373000D01*
X118397000Y-86627000D01*
X118377000Y-86627000D01*
X118377000Y-87688750D01*
X118535750Y-87847500D01*
X119125000Y-87850572D01*
X119249482Y-87838312D01*
X119369180Y-87802002D01*
X119479494Y-87743037D01*
X119576185Y-87663685D01*
X119655537Y-87566994D01*
X119714502Y-87456680D01*
X119750812Y-87336982D01*
X119763072Y-87212500D01*
X119762911Y-87190157D01*
X119804528Y-87327350D01*
X119886595Y-87480886D01*
X119997038Y-87615462D01*
X120131614Y-87725905D01*
X120285150Y-87807972D01*
X120451746Y-87858508D01*
X120625000Y-87875572D01*
X121875000Y-87875572D01*
X122048254Y-87858508D01*
X122214850Y-87807972D01*
X122368386Y-87725905D01*
X122502962Y-87615462D01*
X122613405Y-87480886D01*
X122695472Y-87327350D01*
X122708319Y-87285000D01*
X123049265Y-87285000D01*
X123054528Y-87302350D01*
X123090909Y-87370414D01*
X123038459Y-87413459D01*
X123012608Y-87444959D01*
X122231591Y-88225976D01*
X122214850Y-88217028D01*
X122048254Y-88166492D01*
X121875000Y-88149428D01*
X120625000Y-88149428D01*
X120451746Y-88166492D01*
X120285150Y-88217028D01*
X120131614Y-88299095D01*
X119997038Y-88409538D01*
X119886595Y-88544114D01*
X119864206Y-88586000D01*
X119649156Y-88586000D01*
X119613405Y-88519114D01*
X119502962Y-88384538D01*
X119368386Y-88274095D01*
X119214850Y-88192028D01*
X119048254Y-88141492D01*
X118875000Y-88124428D01*
X117625000Y-88124428D01*
X117451746Y-88141492D01*
X117285150Y-88192028D01*
X117131614Y-88274095D01*
X116997038Y-88384538D01*
X116886595Y-88519114D01*
X116850844Y-88586000D01*
X116649156Y-88586000D01*
X116613405Y-88519114D01*
X116502962Y-88384538D01*
X116368386Y-88274095D01*
X116214850Y-88192028D01*
X116048254Y-88141492D01*
X115875000Y-88124428D01*
X114625000Y-88124428D01*
X114451746Y-88141492D01*
X114285150Y-88192028D01*
X114131614Y-88274095D01*
X113997038Y-88384538D01*
X113886595Y-88519114D01*
X113850844Y-88586000D01*
X113649156Y-88586000D01*
X113613405Y-88519114D01*
X113502962Y-88384538D01*
X113368386Y-88274095D01*
X113214850Y-88192028D01*
X113048254Y-88141492D01*
X112875000Y-88124428D01*
X111625000Y-88124428D01*
X111451746Y-88141492D01*
X111285150Y-88192028D01*
X111131614Y-88274095D01*
X110997038Y-88384538D01*
X110886595Y-88519114D01*
X110816902Y-88649500D01*
X110683098Y-88649500D01*
X110613405Y-88519114D01*
X110502962Y-88384538D01*
X110368386Y-88274095D01*
X110214850Y-88192028D01*
X110075500Y-88149757D01*
X110075500Y-87825243D01*
X110214850Y-87782972D01*
X110368386Y-87700905D01*
X110502962Y-87590462D01*
X110613405Y-87455886D01*
X110695472Y-87302350D01*
X110737273Y-87164549D01*
X110736928Y-87212500D01*
X110749188Y-87336982D01*
X110785498Y-87456680D01*
X110844463Y-87566994D01*
X110923815Y-87663685D01*
X111020506Y-87743037D01*
X111130820Y-87802002D01*
X111250518Y-87838312D01*
X111375000Y-87850572D01*
X111964250Y-87847500D01*
X112123000Y-87688750D01*
X112123000Y-86627000D01*
X112377000Y-86627000D01*
X112377000Y-87688750D01*
X112535750Y-87847500D01*
X113125000Y-87850572D01*
X113249482Y-87838312D01*
X113369180Y-87802002D01*
X113479494Y-87743037D01*
X113576185Y-87663685D01*
X113655537Y-87566994D01*
X113714502Y-87456680D01*
X113750000Y-87339659D01*
X113785498Y-87456680D01*
X113844463Y-87566994D01*
X113923815Y-87663685D01*
X114020506Y-87743037D01*
X114130820Y-87802002D01*
X114250518Y-87838312D01*
X114375000Y-87850572D01*
X114964250Y-87847500D01*
X115123000Y-87688750D01*
X115123000Y-86627000D01*
X115377000Y-86627000D01*
X115377000Y-87688750D01*
X115535750Y-87847500D01*
X116125000Y-87850572D01*
X116249482Y-87838312D01*
X116369180Y-87802002D01*
X116479494Y-87743037D01*
X116576185Y-87663685D01*
X116655537Y-87566994D01*
X116714502Y-87456680D01*
X116750000Y-87339659D01*
X116785498Y-87456680D01*
X116844463Y-87566994D01*
X116923815Y-87663685D01*
X117020506Y-87743037D01*
X117130820Y-87802002D01*
X117250518Y-87838312D01*
X117375000Y-87850572D01*
X117964250Y-87847500D01*
X118123000Y-87688750D01*
X118123000Y-86627000D01*
X116898750Y-86627000D01*
X116750000Y-86775750D01*
X116601250Y-86627000D01*
X115377000Y-86627000D01*
X115123000Y-86627000D01*
X113898750Y-86627000D01*
X113750000Y-86775750D01*
X113601250Y-86627000D01*
X112377000Y-86627000D01*
X112123000Y-86627000D01*
X112103000Y-86627000D01*
X112103000Y-86373000D01*
X112123000Y-86373000D01*
X112123000Y-85311250D01*
X112377000Y-85311250D01*
X112377000Y-86373000D01*
X113601250Y-86373000D01*
X113750000Y-86224250D01*
X113898750Y-86373000D01*
X115123000Y-86373000D01*
X115123000Y-85311250D01*
X115377000Y-85311250D01*
X115377000Y-86373000D01*
X116601250Y-86373000D01*
X116750000Y-86224250D01*
X116898750Y-86373000D01*
X118123000Y-86373000D01*
X118123000Y-85311250D01*
X117964250Y-85152500D01*
X117375000Y-85149428D01*
X117250518Y-85161688D01*
X117130820Y-85197998D01*
X117020506Y-85256963D01*
X116923815Y-85336315D01*
X116844463Y-85433006D01*
X116785498Y-85543320D01*
X116750000Y-85660341D01*
X116714502Y-85543320D01*
X116655537Y-85433006D01*
X116576185Y-85336315D01*
X116479494Y-85256963D01*
X116369180Y-85197998D01*
X116249482Y-85161688D01*
X116125000Y-85149428D01*
X115535750Y-85152500D01*
X115377000Y-85311250D01*
X115123000Y-85311250D01*
X114964250Y-85152500D01*
X114375000Y-85149428D01*
X114250518Y-85161688D01*
X114130820Y-85197998D01*
X114020506Y-85256963D01*
X113923815Y-85336315D01*
X113844463Y-85433006D01*
X113785498Y-85543320D01*
X113750000Y-85660341D01*
X113714502Y-85543320D01*
X113655537Y-85433006D01*
X113576185Y-85336315D01*
X113479494Y-85256963D01*
X113369180Y-85197998D01*
X113249482Y-85161688D01*
X113125000Y-85149428D01*
X112535750Y-85152500D01*
X112377000Y-85311250D01*
X112123000Y-85311250D01*
X111964250Y-85152500D01*
X111375000Y-85149428D01*
X111250518Y-85161688D01*
X111130820Y-85197998D01*
X111020506Y-85256963D01*
X110923815Y-85336315D01*
X110844463Y-85433006D01*
X110785498Y-85543320D01*
X110749188Y-85663018D01*
X110736928Y-85787500D01*
X110737273Y-85835451D01*
X110695472Y-85697650D01*
X110613405Y-85544114D01*
X110502962Y-85409538D01*
X110368386Y-85299095D01*
X110214850Y-85217028D01*
X110048254Y-85166492D01*
X109875000Y-85149428D01*
X108625000Y-85149428D01*
X108451746Y-85166492D01*
X108285150Y-85217028D01*
X108131614Y-85299095D01*
X107997038Y-85409538D01*
X107886595Y-85544114D01*
X107804528Y-85697650D01*
X107753992Y-85864246D01*
X107736928Y-86037500D01*
X107736928Y-86962500D01*
X107753992Y-87135754D01*
X107804528Y-87302350D01*
X107870080Y-87424988D01*
X106420568Y-88874500D01*
X105520945Y-88874500D01*
X105565219Y-88694151D01*
X105577104Y-88426518D01*
X105536548Y-88161709D01*
X105445109Y-87909900D01*
X105387950Y-87802965D01*
X105151633Y-87740472D01*
X104392105Y-88500000D01*
X104406248Y-88514143D01*
X104226643Y-88693748D01*
X104212500Y-88679605D01*
X104198358Y-88693748D01*
X104018753Y-88514143D01*
X104032895Y-88500000D01*
X103273367Y-87740472D01*
X103097767Y-87786909D01*
X103099976Y-87560867D01*
X103452972Y-87560867D01*
X104212500Y-88320395D01*
X104972028Y-87560867D01*
X104909535Y-87324550D01*
X104666822Y-87211150D01*
X104406651Y-87147281D01*
X104139018Y-87135396D01*
X103874209Y-87175952D01*
X103622400Y-87267391D01*
X103515465Y-87324550D01*
X103452972Y-87560867D01*
X103099976Y-87560867D01*
X103100572Y-87500000D01*
X103097500Y-87468808D01*
X103097500Y-87372998D01*
X103087548Y-87372998D01*
X103052002Y-87255820D01*
X103032179Y-87218735D01*
X103055962Y-87182391D01*
X103052091Y-87144718D01*
X102959921Y-86919467D01*
X102825578Y-86716526D01*
X102654225Y-86543693D01*
X102452446Y-86407610D01*
X102227996Y-86313507D01*
X101989500Y-86265000D01*
X101639500Y-86265000D01*
X101639500Y-89873000D01*
X101659500Y-89873000D01*
X101659500Y-90127000D01*
X101639500Y-90127000D01*
X101639500Y-91873000D01*
X101659500Y-91873000D01*
X101659500Y-92127000D01*
X101639500Y-92127000D01*
X101639500Y-95735000D01*
X101989500Y-95735000D01*
X102227996Y-95686493D01*
X102452446Y-95592390D01*
X102654225Y-95456307D01*
X102825578Y-95283474D01*
X102959921Y-95080533D01*
X103052091Y-94855282D01*
X103055962Y-94817609D01*
X103032179Y-94781265D01*
X103052002Y-94744180D01*
X103087548Y-94627002D01*
X103097500Y-94627002D01*
X103097500Y-94531192D01*
X103100572Y-94500000D01*
X103099977Y-94439133D01*
X103452972Y-94439133D01*
X103515465Y-94675450D01*
X103758178Y-94788850D01*
X104018349Y-94852719D01*
X104285982Y-94864604D01*
X104550791Y-94824048D01*
X104802600Y-94732609D01*
X104909535Y-94675450D01*
X104972028Y-94439133D01*
X104212500Y-93679605D01*
X103452972Y-94439133D01*
X103099977Y-94439133D01*
X103097767Y-94213091D01*
X103273367Y-94259528D01*
X104032895Y-93500000D01*
X104018753Y-93485858D01*
X104198358Y-93306253D01*
X104212500Y-93320395D01*
X104226643Y-93306253D01*
X104406248Y-93485858D01*
X104392105Y-93500000D01*
X105151633Y-94259528D01*
X105387950Y-94197035D01*
X105501350Y-93954322D01*
X105565219Y-93694151D01*
X105577104Y-93426518D01*
X105536548Y-93161709D01*
X105445109Y-92909900D01*
X105416225Y-92855864D01*
X105473021Y-92753576D01*
X105479971Y-92731918D01*
X107686927Y-94938875D01*
X107686927Y-95875000D01*
X107703991Y-96048254D01*
X107754527Y-96214850D01*
X107836594Y-96368386D01*
X107947037Y-96502962D01*
X108081613Y-96613405D01*
X108235149Y-96695472D01*
X108401745Y-96746008D01*
X108574999Y-96763072D01*
X109499999Y-96763072D01*
X109673253Y-96746008D01*
X109839849Y-96695472D01*
X109993385Y-96613405D01*
X110127961Y-96502962D01*
X110238404Y-96368386D01*
X110320471Y-96214850D01*
X110371007Y-96048254D01*
X110388071Y-95875000D01*
X110388071Y-94625000D01*
X110371007Y-94451746D01*
X110320471Y-94285150D01*
X110238404Y-94131614D01*
X110127961Y-93997038D01*
X109993385Y-93886595D01*
X109839849Y-93804528D01*
X109767230Y-93782500D01*
X109839849Y-93760471D01*
X109993385Y-93678404D01*
X110127961Y-93567961D01*
X110238404Y-93433385D01*
X110320471Y-93279849D01*
X110371007Y-93113253D01*
X110388071Y-92939999D01*
X110388071Y-91689999D01*
X110371007Y-91516745D01*
X110320471Y-91350149D01*
X110238404Y-91196613D01*
X110127961Y-91062037D01*
X109993385Y-90951594D01*
X109839849Y-90869527D01*
X109694948Y-90825572D01*
X109875000Y-90825572D01*
X110048254Y-90808508D01*
X110214850Y-90757972D01*
X110368386Y-90675905D01*
X110502962Y-90565462D01*
X110613405Y-90430886D01*
X110683098Y-90300500D01*
X110816902Y-90300500D01*
X110886595Y-90430886D01*
X110997038Y-90565462D01*
X111131614Y-90675905D01*
X111285150Y-90757972D01*
X111451746Y-90808508D01*
X111467463Y-90810056D01*
X111376745Y-90818991D01*
X111210149Y-90869527D01*
X111056613Y-90951594D01*
X110922037Y-91062037D01*
X110811594Y-91196613D01*
X110729527Y-91350149D01*
X110678991Y-91516745D01*
X110661927Y-91689999D01*
X110661927Y-92939999D01*
X110678991Y-93113253D01*
X110729527Y-93279849D01*
X110811594Y-93433385D01*
X110922037Y-93567961D01*
X111056613Y-93678404D01*
X111210149Y-93760471D01*
X111282768Y-93782500D01*
X111210149Y-93804528D01*
X111056613Y-93886595D01*
X110922037Y-93997038D01*
X110811594Y-94131614D01*
X110729527Y-94285150D01*
X110678991Y-94451746D01*
X110661927Y-94625000D01*
X110661927Y-95875000D01*
X110678991Y-96048254D01*
X110729527Y-96214850D01*
X110811594Y-96368386D01*
X110922037Y-96502962D01*
X111056613Y-96613405D01*
X111210149Y-96695472D01*
X111376745Y-96746008D01*
X111549999Y-96763072D01*
X112474999Y-96763072D01*
X112648253Y-96746008D01*
X112814849Y-96695472D01*
X112946692Y-96625000D01*
X121661928Y-96625000D01*
X121674188Y-96749482D01*
X121710498Y-96869180D01*
X121769463Y-96979494D01*
X121848815Y-97076185D01*
X121945506Y-97155537D01*
X122055820Y-97214502D01*
X122175518Y-97250812D01*
X122300000Y-97263072D01*
X122726750Y-97260000D01*
X122885500Y-97101250D01*
X122885500Y-95877000D01*
X123139500Y-95877000D01*
X123139500Y-97101250D01*
X123298250Y-97260000D01*
X123725000Y-97263072D01*
X123849482Y-97250812D01*
X123969180Y-97214502D01*
X124079494Y-97155537D01*
X124176185Y-97076185D01*
X124255537Y-96979494D01*
X124314502Y-96869180D01*
X124350812Y-96749482D01*
X124363072Y-96625000D01*
X124360000Y-96035750D01*
X124201250Y-95877000D01*
X123139500Y-95877000D01*
X122885500Y-95877000D01*
X121823750Y-95877000D01*
X121665000Y-96035750D01*
X121661928Y-96625000D01*
X112946692Y-96625000D01*
X112968385Y-96613405D01*
X113102961Y-96502962D01*
X113213404Y-96368386D01*
X113295471Y-96214850D01*
X113346007Y-96048254D01*
X113363071Y-95875000D01*
X113363071Y-94938875D01*
X113559446Y-94742500D01*
X121676620Y-94742500D01*
X121674188Y-94750518D01*
X121661928Y-94875000D01*
X121665000Y-95464250D01*
X121823750Y-95623000D01*
X122885500Y-95623000D01*
X122885500Y-95603000D01*
X123139500Y-95603000D01*
X123139500Y-95623000D01*
X124201250Y-95623000D01*
X124360000Y-95464250D01*
X124363072Y-94875000D01*
X124350812Y-94750518D01*
X124348572Y-94743133D01*
X124355004Y-94742500D01*
X124462984Y-94731865D01*
X124601532Y-94689837D01*
X124729219Y-94621587D01*
X124841137Y-94529738D01*
X124864158Y-94501687D01*
X127975845Y-91390001D01*
X128280118Y-91390001D01*
X128421526Y-91601633D01*
X128628369Y-91808476D01*
X128810535Y-91930196D01*
X128693646Y-91999823D01*
X128477413Y-92194732D01*
X128303360Y-92428081D01*
X128178176Y-92690902D01*
X128133525Y-92838111D01*
X128254846Y-93068001D01*
X129448001Y-93068001D01*
X129448001Y-93048001D01*
X129702001Y-93048001D01*
X129702001Y-93068001D01*
X129722001Y-93068001D01*
X129722001Y-93322001D01*
X129702001Y-93322001D01*
X129702001Y-93342001D01*
X129448001Y-93342001D01*
X129448001Y-93322001D01*
X128254846Y-93322001D01*
X128133525Y-93551891D01*
X128178176Y-93699100D01*
X128303360Y-93961921D01*
X128477413Y-94195270D01*
X128693646Y-94390179D01*
X128810535Y-94459806D01*
X128628369Y-94581526D01*
X128421526Y-94788369D01*
X128296823Y-94975001D01*
X127323298Y-94975001D01*
X127321008Y-94951746D01*
X127270472Y-94785150D01*
X127188405Y-94631614D01*
X127077962Y-94497038D01*
X126943386Y-94386595D01*
X126789850Y-94304528D01*
X126623254Y-94253992D01*
X126450000Y-94236928D01*
X125525000Y-94236928D01*
X125351746Y-94253992D01*
X125185150Y-94304528D01*
X125031614Y-94386595D01*
X124897038Y-94497038D01*
X124786595Y-94631614D01*
X124704528Y-94785150D01*
X124653992Y-94951746D01*
X124636928Y-95125000D01*
X124636928Y-96375000D01*
X124653992Y-96548254D01*
X124704528Y-96714850D01*
X124786595Y-96868386D01*
X124897038Y-97002962D01*
X125031614Y-97113405D01*
X125185150Y-97195472D01*
X125351746Y-97246008D01*
X125525000Y-97263072D01*
X126450000Y-97263072D01*
X126623254Y-97246008D01*
X126789850Y-97195472D01*
X126943386Y-97113405D01*
X127077962Y-97002962D01*
X127188405Y-96868386D01*
X127270472Y-96714850D01*
X127321008Y-96548254D01*
X127326253Y-96495001D01*
X128296823Y-96495001D01*
X128421526Y-96681633D01*
X128628369Y-96888476D01*
X128802761Y-97005001D01*
X128628369Y-97121526D01*
X128421526Y-97328369D01*
X128259011Y-97571590D01*
X128147069Y-97841843D01*
X128090001Y-98128741D01*
X128090001Y-98421261D01*
X128147069Y-98708159D01*
X128259011Y-98978412D01*
X128421526Y-99221633D01*
X128539893Y-99340000D01*
X100660000Y-99340000D01*
X100660000Y-95629053D01*
X100797004Y-95686493D01*
X101035500Y-95735000D01*
X101385500Y-95735000D01*
X101385500Y-92127000D01*
X101365500Y-92127000D01*
X101365500Y-91873000D01*
X101385500Y-91873000D01*
X101385500Y-90127000D01*
X101365500Y-90127000D01*
X101365500Y-89873000D01*
X101385500Y-89873000D01*
X101385500Y-86265000D01*
X101035500Y-86265000D01*
X100797004Y-86313507D01*
X100660000Y-86370947D01*
X100660000Y-84410000D01*
X128173354Y-84410000D01*
X128135499Y-84480821D01*
G36*
X128273816Y-86876186D02*
G01*
X128370507Y-86955538D01*
X128480821Y-87014503D01*
X128553381Y-87036514D01*
X128421526Y-87168369D01*
X128259011Y-87411590D01*
X128147069Y-87681843D01*
X128090001Y-87968741D01*
X128090001Y-88261261D01*
X128139657Y-88510898D01*
X123828056Y-92822500D01*
X113559446Y-92822500D01*
X113363071Y-92626125D01*
X113363071Y-91689999D01*
X113346007Y-91516745D01*
X113295471Y-91350149D01*
X113213404Y-91196613D01*
X113102961Y-91062037D01*
X112968385Y-90951594D01*
X112814849Y-90869527D01*
X112669948Y-90825572D01*
X112875000Y-90825572D01*
X113048254Y-90808508D01*
X113214850Y-90757972D01*
X113368386Y-90675905D01*
X113502962Y-90565462D01*
X113613405Y-90430886D01*
X113649156Y-90364000D01*
X113850844Y-90364000D01*
X113886595Y-90430886D01*
X113997038Y-90565462D01*
X114131614Y-90675905D01*
X114285150Y-90757972D01*
X114451746Y-90808508D01*
X114625000Y-90825572D01*
X115875000Y-90825572D01*
X116048254Y-90808508D01*
X116214850Y-90757972D01*
X116368386Y-90675905D01*
X116502962Y-90565462D01*
X116613405Y-90430886D01*
X116649156Y-90364000D01*
X116850844Y-90364000D01*
X116886595Y-90430886D01*
X116997038Y-90565462D01*
X117131614Y-90675905D01*
X117285150Y-90757972D01*
X117451746Y-90808508D01*
X117625000Y-90825572D01*
X118875000Y-90825572D01*
X119048254Y-90808508D01*
X119214850Y-90757972D01*
X119368386Y-90675905D01*
X119502962Y-90565462D01*
X119613405Y-90430886D01*
X119649156Y-90364000D01*
X119837481Y-90364000D01*
X119886595Y-90455886D01*
X119997038Y-90590462D01*
X120131614Y-90700905D01*
X120285150Y-90782972D01*
X120451746Y-90833508D01*
X120625000Y-90850572D01*
X121875000Y-90850572D01*
X122048254Y-90833508D01*
X122214850Y-90782972D01*
X122368386Y-90700905D01*
X122502962Y-90590462D01*
X122613405Y-90455886D01*
X122695472Y-90302350D01*
X122746008Y-90135754D01*
X122755767Y-90036665D01*
X122989698Y-89802734D01*
X122986928Y-90187500D01*
X122999188Y-90311982D01*
X123035498Y-90431680D01*
X123094463Y-90541994D01*
X123173815Y-90638685D01*
X123270506Y-90718037D01*
X123380820Y-90777002D01*
X123500518Y-90813312D01*
X123625000Y-90825572D01*
X124214250Y-90822500D01*
X124373000Y-90663750D01*
X124373000Y-89602000D01*
X124627000Y-89602000D01*
X124627000Y-90663750D01*
X124785750Y-90822500D01*
X125375000Y-90825572D01*
X125499482Y-90813312D01*
X125619180Y-90777002D01*
X125729494Y-90718037D01*
X125826185Y-90638685D01*
X125905537Y-90541994D01*
X125964502Y-90431680D01*
X126000812Y-90311982D01*
X126013072Y-90187500D01*
X126010000Y-89760750D01*
X125851250Y-89602000D01*
X124627000Y-89602000D01*
X124373000Y-89602000D01*
X124353000Y-89602000D01*
X124353000Y-89348000D01*
X124373000Y-89348000D01*
X124373000Y-89328000D01*
X124627000Y-89328000D01*
X124627000Y-89348000D01*
X125851250Y-89348000D01*
X126010000Y-89189250D01*
X126012656Y-88820270D01*
X126080828Y-88813556D01*
X126236436Y-88766353D01*
X126379844Y-88689699D01*
X126505543Y-88586541D01*
X126531400Y-88555034D01*
X128245163Y-86841272D01*
X128273816Y-86876186D01*
G37*
X128273816Y-86876186D02*
X128370507Y-86955538D01*
X128480821Y-87014503D01*
X128553381Y-87036514D01*
X128421526Y-87168369D01*
X128259011Y-87411590D01*
X128147069Y-87681843D01*
X128090001Y-87968741D01*
X128090001Y-88261261D01*
X128139657Y-88510898D01*
X123828056Y-92822500D01*
X113559446Y-92822500D01*
X113363071Y-92626125D01*
X113363071Y-91689999D01*
X113346007Y-91516745D01*
X113295471Y-91350149D01*
X113213404Y-91196613D01*
X113102961Y-91062037D01*
X112968385Y-90951594D01*
X112814849Y-90869527D01*
X112669948Y-90825572D01*
X112875000Y-90825572D01*
X113048254Y-90808508D01*
X113214850Y-90757972D01*
X113368386Y-90675905D01*
X113502962Y-90565462D01*
X113613405Y-90430886D01*
X113649156Y-90364000D01*
X113850844Y-90364000D01*
X113886595Y-90430886D01*
X113997038Y-90565462D01*
X114131614Y-90675905D01*
X114285150Y-90757972D01*
X114451746Y-90808508D01*
X114625000Y-90825572D01*
X115875000Y-90825572D01*
X116048254Y-90808508D01*
X116214850Y-90757972D01*
X116368386Y-90675905D01*
X116502962Y-90565462D01*
X116613405Y-90430886D01*
X116649156Y-90364000D01*
X116850844Y-90364000D01*
X116886595Y-90430886D01*
X116997038Y-90565462D01*
X117131614Y-90675905D01*
X117285150Y-90757972D01*
X117451746Y-90808508D01*
X117625000Y-90825572D01*
X118875000Y-90825572D01*
X119048254Y-90808508D01*
X119214850Y-90757972D01*
X119368386Y-90675905D01*
X119502962Y-90565462D01*
X119613405Y-90430886D01*
X119649156Y-90364000D01*
X119837481Y-90364000D01*
X119886595Y-90455886D01*
X119997038Y-90590462D01*
X120131614Y-90700905D01*
X120285150Y-90782972D01*
X120451746Y-90833508D01*
X120625000Y-90850572D01*
X121875000Y-90850572D01*
X122048254Y-90833508D01*
X122214850Y-90782972D01*
X122368386Y-90700905D01*
X122502962Y-90590462D01*
X122613405Y-90455886D01*
X122695472Y-90302350D01*
X122746008Y-90135754D01*
X122755767Y-90036665D01*
X122989698Y-89802734D01*
X122986928Y-90187500D01*
X122999188Y-90311982D01*
X123035498Y-90431680D01*
X123094463Y-90541994D01*
X123173815Y-90638685D01*
X123270506Y-90718037D01*
X123380820Y-90777002D01*
X123500518Y-90813312D01*
X123625000Y-90825572D01*
X124214250Y-90822500D01*
X124373000Y-90663750D01*
X124373000Y-89602000D01*
X124627000Y-89602000D01*
X124627000Y-90663750D01*
X124785750Y-90822500D01*
X125375000Y-90825572D01*
X125499482Y-90813312D01*
X125619180Y-90777002D01*
X125729494Y-90718037D01*
X125826185Y-90638685D01*
X125905537Y-90541994D01*
X125964502Y-90431680D01*
X126000812Y-90311982D01*
X126013072Y-90187500D01*
X126010000Y-89760750D01*
X125851250Y-89602000D01*
X124627000Y-89602000D01*
X124373000Y-89602000D01*
X124353000Y-89602000D01*
X124353000Y-89348000D01*
X124373000Y-89348000D01*
X124373000Y-89328000D01*
X124627000Y-89328000D01*
X124627000Y-89348000D01*
X125851250Y-89348000D01*
X126010000Y-89189250D01*
X126012656Y-88820270D01*
X126080828Y-88813556D01*
X126236436Y-88766353D01*
X126379844Y-88689699D01*
X126505543Y-88586541D01*
X126531400Y-88555034D01*
X128245163Y-86841272D01*
X128273816Y-86876186D01*
M02*
