G04 #@! TF.GenerationSoftware,KiCad,Pcbnew,(5.1.10)-1*
G04 #@! TF.CreationDate,2021-08-25T17:02:57-07:00*
G04 #@! TF.ProjectId,USB breakout,55534220-6272-4656-916b-6f75742e6b69,rev?*
G04 #@! TF.SameCoordinates,Original*
G04 #@! TF.FileFunction,Copper,L1,Top*
G04 #@! TF.FilePolarity,Positive*
%FSLAX46Y46*%
G04 Gerber Fmt 4.6, Leading zero omitted, Abs format (unit mm)*
G04 Created by KiCad (PCBNEW (5.1.10)-1) date 2021-08-25 17:02:57*
%MOMM*%
%LPD*%
G01*
G04 APERTURE LIST*
G04 #@! TA.AperFunction,ComponentPad*
%ADD10R,1.700000X1.700000*%
G04 #@! TD*
G04 #@! TA.AperFunction,ComponentPad*
%ADD11O,1.700000X1.700000*%
G04 #@! TD*
G04 #@! TA.AperFunction,SMDPad,CuDef*
%ADD12R,1.350000X0.400000*%
G04 #@! TD*
G04 #@! TA.AperFunction,ComponentPad*
%ADD13O,0.950000X1.250000*%
G04 #@! TD*
G04 #@! TA.AperFunction,SMDPad,CuDef*
%ADD14R,1.550000X1.500000*%
G04 #@! TD*
G04 #@! TA.AperFunction,SMDPad,CuDef*
%ADD15R,1.550000X1.200000*%
G04 #@! TD*
G04 #@! TA.AperFunction,ComponentPad*
%ADD16O,1.550000X0.890000*%
G04 #@! TD*
G04 #@! TA.AperFunction,ViaPad*
%ADD17C,0.800000*%
G04 #@! TD*
G04 #@! TA.AperFunction,Conductor*
%ADD18C,0.200000*%
G04 #@! TD*
G04 #@! TA.AperFunction,Conductor*
%ADD19C,0.508000*%
G04 #@! TD*
G04 #@! TA.AperFunction,Conductor*
%ADD20C,0.381000*%
G04 #@! TD*
G04 #@! TA.AperFunction,Conductor*
%ADD21C,0.250000*%
G04 #@! TD*
G04 #@! TA.AperFunction,Conductor*
%ADD22C,0.254000*%
G04 #@! TD*
G04 #@! TA.AperFunction,Conductor*
%ADD23C,0.100000*%
G04 #@! TD*
G04 APERTURE END LIST*
D10*
X132250000Y-85500000D03*
D11*
X132250000Y-88040000D03*
X132250000Y-90580000D03*
X132250000Y-93120000D03*
X132250000Y-95660000D03*
X132250000Y-98200000D03*
G04 #@! TA.AperFunction,SMDPad,CuDef*
G36*
G01*
X124325000Y-90187500D02*
X123075000Y-90187500D01*
G75*
G02*
X122825000Y-89937500I0J250000D01*
G01*
X122825000Y-89012500D01*
G75*
G02*
X123075000Y-88762500I250000J0D01*
G01*
X124325000Y-88762500D01*
G75*
G02*
X124575000Y-89012500I0J-250000D01*
G01*
X124575000Y-89937500D01*
G75*
G02*
X124325000Y-90187500I-250000J0D01*
G01*
G37*
G04 #@! TD.AperFunction*
G04 #@! TA.AperFunction,SMDPad,CuDef*
G36*
G01*
X124325000Y-87212500D02*
X123075000Y-87212500D01*
G75*
G02*
X122825000Y-86962500I0J250000D01*
G01*
X122825000Y-86037500D01*
G75*
G02*
X123075000Y-85787500I250000J0D01*
G01*
X124325000Y-85787500D01*
G75*
G02*
X124575000Y-86037500I0J-250000D01*
G01*
X124575000Y-86962500D01*
G75*
G02*
X124325000Y-87212500I-250000J0D01*
G01*
G37*
G04 #@! TD.AperFunction*
D12*
X104150000Y-89700000D03*
X104150000Y-90350000D03*
X104150000Y-91000000D03*
X104150000Y-91650000D03*
X104150000Y-92300000D03*
D13*
X104150000Y-88500000D03*
X104150000Y-93500000D03*
D14*
X101450000Y-90000000D03*
X101450000Y-92000000D03*
D15*
X101450000Y-88100000D03*
X101450000Y-93900000D03*
D16*
X101450000Y-87500000D03*
X101450000Y-94500000D03*
G04 #@! TA.AperFunction,SMDPad,CuDef*
G36*
G01*
X110449999Y-88887500D02*
X111750001Y-88887500D01*
G75*
G02*
X112000000Y-89137499I0J-249999D01*
G01*
X112000000Y-89962501D01*
G75*
G02*
X111750001Y-90212500I-249999J0D01*
G01*
X110449999Y-90212500D01*
G75*
G02*
X110200000Y-89962501I0J249999D01*
G01*
X110200000Y-89137499D01*
G75*
G02*
X110449999Y-88887500I249999J0D01*
G01*
G37*
G04 #@! TD.AperFunction*
G04 #@! TA.AperFunction,SMDPad,CuDef*
G36*
G01*
X110449999Y-85762500D02*
X111750001Y-85762500D01*
G75*
G02*
X112000000Y-86012499I0J-249999D01*
G01*
X112000000Y-86837501D01*
G75*
G02*
X111750001Y-87087500I-249999J0D01*
G01*
X110449999Y-87087500D01*
G75*
G02*
X110200000Y-86837501I0J249999D01*
G01*
X110200000Y-86012499D01*
G75*
G02*
X110449999Y-85762500I249999J0D01*
G01*
G37*
G04 #@! TD.AperFunction*
G04 #@! TA.AperFunction,SMDPad,CuDef*
G36*
G01*
X114950001Y-87087500D02*
X113649999Y-87087500D01*
G75*
G02*
X113400000Y-86837501I0J249999D01*
G01*
X113400000Y-86012499D01*
G75*
G02*
X113649999Y-85762500I249999J0D01*
G01*
X114950001Y-85762500D01*
G75*
G02*
X115200000Y-86012499I0J-249999D01*
G01*
X115200000Y-86837501D01*
G75*
G02*
X114950001Y-87087500I-249999J0D01*
G01*
G37*
G04 #@! TD.AperFunction*
G04 #@! TA.AperFunction,SMDPad,CuDef*
G36*
G01*
X114950001Y-90212500D02*
X113649999Y-90212500D01*
G75*
G02*
X113400000Y-89962501I0J249999D01*
G01*
X113400000Y-89137499D01*
G75*
G02*
X113649999Y-88887500I249999J0D01*
G01*
X114950001Y-88887500D01*
G75*
G02*
X115200000Y-89137499I0J-249999D01*
G01*
X115200000Y-89962501D01*
G75*
G02*
X114950001Y-90212500I-249999J0D01*
G01*
G37*
G04 #@! TD.AperFunction*
G04 #@! TA.AperFunction,SMDPad,CuDef*
G36*
G01*
X118150001Y-90212500D02*
X116849999Y-90212500D01*
G75*
G02*
X116600000Y-89962501I0J249999D01*
G01*
X116600000Y-89137499D01*
G75*
G02*
X116849999Y-88887500I249999J0D01*
G01*
X118150001Y-88887500D01*
G75*
G02*
X118400000Y-89137499I0J-249999D01*
G01*
X118400000Y-89962501D01*
G75*
G02*
X118150001Y-90212500I-249999J0D01*
G01*
G37*
G04 #@! TD.AperFunction*
G04 #@! TA.AperFunction,SMDPad,CuDef*
G36*
G01*
X118150001Y-87087500D02*
X116849999Y-87087500D01*
G75*
G02*
X116600000Y-86837501I0J249999D01*
G01*
X116600000Y-86012499D01*
G75*
G02*
X116849999Y-85762500I249999J0D01*
G01*
X118150001Y-85762500D01*
G75*
G02*
X118400000Y-86012499I0J-249999D01*
G01*
X118400000Y-86837501D01*
G75*
G02*
X118150001Y-87087500I-249999J0D01*
G01*
G37*
G04 #@! TD.AperFunction*
G04 #@! TA.AperFunction,SMDPad,CuDef*
G36*
G01*
X125150001Y-99225000D02*
X123849999Y-99225000D01*
G75*
G02*
X123600000Y-98975001I0J249999D01*
G01*
X123600000Y-98149999D01*
G75*
G02*
X123849999Y-97900000I249999J0D01*
G01*
X125150001Y-97900000D01*
G75*
G02*
X125400000Y-98149999I0J-249999D01*
G01*
X125400000Y-98975001D01*
G75*
G02*
X125150001Y-99225000I-249999J0D01*
G01*
G37*
G04 #@! TD.AperFunction*
G04 #@! TA.AperFunction,SMDPad,CuDef*
G36*
G01*
X125150001Y-96100000D02*
X123849999Y-96100000D01*
G75*
G02*
X123600000Y-95850001I0J249999D01*
G01*
X123600000Y-95024999D01*
G75*
G02*
X123849999Y-94775000I249999J0D01*
G01*
X125150001Y-94775000D01*
G75*
G02*
X125400000Y-95024999I0J-249999D01*
G01*
X125400000Y-95850001D01*
G75*
G02*
X125150001Y-96100000I-249999J0D01*
G01*
G37*
G04 #@! TD.AperFunction*
G04 #@! TA.AperFunction,SMDPad,CuDef*
G36*
G01*
X112724999Y-94625000D02*
X112724999Y-95875000D01*
G75*
G02*
X112474999Y-96125000I-250000J0D01*
G01*
X111674999Y-96125000D01*
G75*
G02*
X111424999Y-95875000I0J250000D01*
G01*
X111424999Y-94625000D01*
G75*
G02*
X111674999Y-94375000I250000J0D01*
G01*
X112474999Y-94375000D01*
G75*
G02*
X112724999Y-94625000I0J-250000D01*
G01*
G37*
G04 #@! TD.AperFunction*
G04 #@! TA.AperFunction,SMDPad,CuDef*
G36*
G01*
X109624999Y-94625000D02*
X109624999Y-95875000D01*
G75*
G02*
X109374999Y-96125000I-250000J0D01*
G01*
X108574999Y-96125000D01*
G75*
G02*
X108324999Y-95875000I0J250000D01*
G01*
X108324999Y-94625000D01*
G75*
G02*
X108574999Y-94375000I250000J0D01*
G01*
X109374999Y-94375000D01*
G75*
G02*
X109624999Y-94625000I0J-250000D01*
G01*
G37*
G04 #@! TD.AperFunction*
G04 #@! TA.AperFunction,SMDPad,CuDef*
G36*
G01*
X109624999Y-91689999D02*
X109624999Y-92939999D01*
G75*
G02*
X109374999Y-93189999I-250000J0D01*
G01*
X108574999Y-93189999D01*
G75*
G02*
X108324999Y-92939999I0J250000D01*
G01*
X108324999Y-91689999D01*
G75*
G02*
X108574999Y-91439999I250000J0D01*
G01*
X109374999Y-91439999D01*
G75*
G02*
X109624999Y-91689999I0J-250000D01*
G01*
G37*
G04 #@! TD.AperFunction*
G04 #@! TA.AperFunction,SMDPad,CuDef*
G36*
G01*
X112724999Y-91689999D02*
X112724999Y-92939999D01*
G75*
G02*
X112474999Y-93189999I-250000J0D01*
G01*
X111674999Y-93189999D01*
G75*
G02*
X111424999Y-92939999I0J250000D01*
G01*
X111424999Y-91689999D01*
G75*
G02*
X111674999Y-91439999I250000J0D01*
G01*
X112474999Y-91439999D01*
G75*
G02*
X112724999Y-91689999I0J-250000D01*
G01*
G37*
G04 #@! TD.AperFunction*
G04 #@! TA.AperFunction,SMDPad,CuDef*
G36*
G01*
X121325000Y-90200000D02*
X120075000Y-90200000D01*
G75*
G02*
X119825000Y-89950000I0J250000D01*
G01*
X119825000Y-89150000D01*
G75*
G02*
X120075000Y-88900000I250000J0D01*
G01*
X121325000Y-88900000D01*
G75*
G02*
X121575000Y-89150000I0J-250000D01*
G01*
X121575000Y-89950000D01*
G75*
G02*
X121325000Y-90200000I-250000J0D01*
G01*
G37*
G04 #@! TD.AperFunction*
G04 #@! TA.AperFunction,SMDPad,CuDef*
G36*
G01*
X121325000Y-87100000D02*
X120075000Y-87100000D01*
G75*
G02*
X119825000Y-86850000I0J250000D01*
G01*
X119825000Y-86050000D01*
G75*
G02*
X120075000Y-85800000I250000J0D01*
G01*
X121325000Y-85800000D01*
G75*
G02*
X121575000Y-86050000I0J-250000D01*
G01*
X121575000Y-86850000D01*
G75*
G02*
X121325000Y-87100000I-250000J0D01*
G01*
G37*
G04 #@! TD.AperFunction*
G04 #@! TA.AperFunction,SMDPad,CuDef*
G36*
G01*
X108625000Y-90187500D02*
X107375000Y-90187500D01*
G75*
G02*
X107125000Y-89937500I0J250000D01*
G01*
X107125000Y-89137500D01*
G75*
G02*
X107375000Y-88887500I250000J0D01*
G01*
X108625000Y-88887500D01*
G75*
G02*
X108875000Y-89137500I0J-250000D01*
G01*
X108875000Y-89937500D01*
G75*
G02*
X108625000Y-90187500I-250000J0D01*
G01*
G37*
G04 #@! TD.AperFunction*
G04 #@! TA.AperFunction,SMDPad,CuDef*
G36*
G01*
X108625000Y-87087500D02*
X107375000Y-87087500D01*
G75*
G02*
X107125000Y-86837500I0J250000D01*
G01*
X107125000Y-86037500D01*
G75*
G02*
X107375000Y-85787500I250000J0D01*
G01*
X108625000Y-85787500D01*
G75*
G02*
X108875000Y-86037500I0J-250000D01*
G01*
X108875000Y-86837500D01*
G75*
G02*
X108625000Y-87087500I-250000J0D01*
G01*
G37*
G04 #@! TD.AperFunction*
D17*
X128500000Y-89250000D03*
X105750000Y-93000000D03*
X102950000Y-86550000D03*
X102850000Y-95350000D03*
X112600000Y-86400000D03*
X115800000Y-86400000D03*
X119000000Y-86400000D03*
X125100000Y-89500000D03*
X123000000Y-98500000D03*
D18*
X106737384Y-92185999D02*
X106737384Y-92314999D01*
X106737384Y-92314999D02*
X108974999Y-92314999D01*
X105001385Y-90450000D02*
X106737384Y-92185999D01*
X104250000Y-90450000D02*
X105001385Y-90450000D01*
X104150000Y-90350000D02*
X104250000Y-90450000D01*
X106450001Y-92725002D02*
X108974999Y-95250000D01*
X106450001Y-92663999D02*
X106450001Y-92725002D01*
X106086001Y-92299999D02*
X106450001Y-92663999D01*
X106086001Y-92170999D02*
X106086001Y-92299999D01*
X104815002Y-90900000D02*
X106086001Y-92170999D01*
X104250000Y-90900000D02*
X104815002Y-90900000D01*
X104150000Y-91000000D02*
X104250000Y-90900000D01*
D19*
X130892000Y-85500000D02*
X132250000Y-85500000D01*
X128500000Y-87892000D02*
X130892000Y-85500000D01*
X128500000Y-89250000D02*
X128500000Y-87892000D01*
X111087500Y-89537500D02*
X111100000Y-89550000D01*
X108000000Y-89537500D02*
X111087500Y-89537500D01*
X111100000Y-89550000D02*
X114300000Y-89550000D01*
X114300000Y-89550000D02*
X117500000Y-89550000D01*
X117500000Y-89550000D02*
X120700000Y-89550000D01*
X120700000Y-88900000D02*
X121600000Y-88000000D01*
X120700000Y-89550000D02*
X120700000Y-88900000D01*
X128392000Y-88000000D02*
X128500000Y-87892000D01*
X121600000Y-88000000D02*
X128392000Y-88000000D01*
D20*
X105387500Y-89700000D02*
X104150000Y-89700000D01*
X108000000Y-87087500D02*
X105387500Y-89700000D01*
X108000000Y-86437500D02*
X108000000Y-87087500D01*
D19*
X108000000Y-86437500D02*
X108000000Y-89537500D01*
D20*
X104212500Y-92300000D02*
X105050000Y-92300000D01*
X105050000Y-92300000D02*
X105750000Y-93000000D01*
D19*
X101600000Y-89975000D02*
X101600000Y-89700000D01*
X101450000Y-90000000D02*
X102650000Y-88800000D01*
X102950000Y-88500000D02*
X102950000Y-86550000D01*
X102650000Y-88800000D02*
X102950000Y-88500000D01*
X101450000Y-92000000D02*
X101500000Y-92000000D01*
X102850000Y-93350000D02*
X102850000Y-95350000D01*
X101500000Y-92000000D02*
X102850000Y-93350000D01*
X112575000Y-86425000D02*
X112600000Y-86400000D01*
X111100000Y-86425000D02*
X112575000Y-86425000D01*
X115775000Y-86425000D02*
X115800000Y-86400000D01*
X114300000Y-86425000D02*
X115775000Y-86425000D01*
X118975000Y-86425000D02*
X119000000Y-86400000D01*
X117500000Y-86425000D02*
X118975000Y-86425000D01*
X125075000Y-89475000D02*
X125100000Y-89500000D01*
X123700000Y-89475000D02*
X125075000Y-89475000D01*
X123062500Y-98562500D02*
X123000000Y-98500000D01*
X124500000Y-98562500D02*
X123062500Y-98562500D01*
D21*
X132027500Y-95437500D02*
X132250000Y-95660000D01*
X124500000Y-95437500D02*
X132027500Y-95437500D01*
X123650000Y-86450000D02*
X123700000Y-86500000D01*
X120700000Y-86450000D02*
X123650000Y-86450000D01*
D18*
X130028198Y-90261802D02*
X132250000Y-88040000D01*
X126732500Y-93557500D02*
X130028198Y-90261802D01*
X113317499Y-93557500D02*
X126732500Y-93557500D01*
X112074999Y-92315000D02*
X113317499Y-93557500D01*
X112074999Y-92314999D02*
X112074999Y-92315000D01*
X130346397Y-90580000D02*
X132250000Y-90580000D01*
X126918897Y-94007500D02*
X130346397Y-90580000D01*
X113317499Y-94007500D02*
X126918897Y-94007500D01*
X112074999Y-95250000D02*
X113317499Y-94007500D01*
D22*
X130774188Y-84525518D02*
X130764960Y-84619212D01*
X130734325Y-84622229D01*
X130717725Y-84623864D01*
X130644758Y-84645998D01*
X130550149Y-84674697D01*
X130395709Y-84757247D01*
X130260341Y-84868341D01*
X130232506Y-84902258D01*
X128023765Y-87111000D01*
X125198446Y-87111000D01*
X125213072Y-86962500D01*
X125213072Y-86037500D01*
X125196008Y-85864246D01*
X125145472Y-85697650D01*
X125063405Y-85544114D01*
X124952962Y-85409538D01*
X124818386Y-85299095D01*
X124664850Y-85217028D01*
X124498254Y-85166492D01*
X124325000Y-85149428D01*
X123075000Y-85149428D01*
X122901746Y-85166492D01*
X122735150Y-85217028D01*
X122581614Y-85299095D01*
X122447038Y-85409538D01*
X122336595Y-85544114D01*
X122258617Y-85690000D01*
X122134702Y-85690000D01*
X122063405Y-85556614D01*
X121952962Y-85422038D01*
X121818386Y-85311595D01*
X121664850Y-85229528D01*
X121498254Y-85178992D01*
X121325000Y-85161928D01*
X120075000Y-85161928D01*
X119901746Y-85178992D01*
X119735150Y-85229528D01*
X119581614Y-85311595D01*
X119447038Y-85422038D01*
X119336595Y-85556614D01*
X119254528Y-85710150D01*
X119203992Y-85876746D01*
X119186928Y-86050000D01*
X119186928Y-86850000D01*
X119203992Y-87023254D01*
X119254528Y-87189850D01*
X119336595Y-87343386D01*
X119447038Y-87477962D01*
X119581614Y-87588405D01*
X119735150Y-87670472D01*
X119901746Y-87721008D01*
X120075000Y-87738072D01*
X120604692Y-87738072D01*
X120102259Y-88240506D01*
X120076156Y-88261928D01*
X120075000Y-88261928D01*
X119901746Y-88278992D01*
X119735150Y-88329528D01*
X119581614Y-88411595D01*
X119447038Y-88522038D01*
X119336595Y-88656614D01*
X119334251Y-88661000D01*
X118897431Y-88661000D01*
X118888405Y-88644113D01*
X118777962Y-88509538D01*
X118643387Y-88399095D01*
X118489851Y-88317028D01*
X118323255Y-88266492D01*
X118150001Y-88249428D01*
X116849999Y-88249428D01*
X116676745Y-88266492D01*
X116510149Y-88317028D01*
X116356613Y-88399095D01*
X116222038Y-88509538D01*
X116111595Y-88644113D01*
X116102569Y-88661000D01*
X115697431Y-88661000D01*
X115688405Y-88644113D01*
X115577962Y-88509538D01*
X115443387Y-88399095D01*
X115289851Y-88317028D01*
X115123255Y-88266492D01*
X114950001Y-88249428D01*
X113649999Y-88249428D01*
X113476745Y-88266492D01*
X113310149Y-88317028D01*
X113156613Y-88399095D01*
X113022038Y-88509538D01*
X112911595Y-88644113D01*
X112902569Y-88661000D01*
X112497431Y-88661000D01*
X112488405Y-88644113D01*
X112377962Y-88509538D01*
X112243387Y-88399095D01*
X112089851Y-88317028D01*
X111923255Y-88266492D01*
X111750001Y-88249428D01*
X110449999Y-88249428D01*
X110276745Y-88266492D01*
X110110149Y-88317028D01*
X109956613Y-88399095D01*
X109822038Y-88509538D01*
X109711595Y-88644113D01*
X109709250Y-88648500D01*
X109365749Y-88648500D01*
X109363405Y-88644114D01*
X109252962Y-88509538D01*
X109118386Y-88399095D01*
X108964850Y-88317028D01*
X108889000Y-88294019D01*
X108889000Y-87680981D01*
X108964850Y-87657972D01*
X109118386Y-87575905D01*
X109252962Y-87465462D01*
X109363405Y-87330886D01*
X109445472Y-87177350D01*
X109472727Y-87087500D01*
X109561928Y-87087500D01*
X109574188Y-87211982D01*
X109610498Y-87331680D01*
X109669463Y-87441994D01*
X109748815Y-87538685D01*
X109845506Y-87618037D01*
X109955820Y-87677002D01*
X110075518Y-87713312D01*
X110200000Y-87725572D01*
X110814250Y-87722500D01*
X110973000Y-87563750D01*
X110973000Y-86552000D01*
X111227000Y-86552000D01*
X111227000Y-87563750D01*
X111385750Y-87722500D01*
X112000000Y-87725572D01*
X112124482Y-87713312D01*
X112244180Y-87677002D01*
X112354494Y-87618037D01*
X112451185Y-87538685D01*
X112530537Y-87441994D01*
X112589502Y-87331680D01*
X112625812Y-87211982D01*
X112638072Y-87087500D01*
X112761928Y-87087500D01*
X112774188Y-87211982D01*
X112810498Y-87331680D01*
X112869463Y-87441994D01*
X112948815Y-87538685D01*
X113045506Y-87618037D01*
X113155820Y-87677002D01*
X113275518Y-87713312D01*
X113400000Y-87725572D01*
X114014250Y-87722500D01*
X114173000Y-87563750D01*
X114173000Y-86552000D01*
X114427000Y-86552000D01*
X114427000Y-87563750D01*
X114585750Y-87722500D01*
X115200000Y-87725572D01*
X115324482Y-87713312D01*
X115444180Y-87677002D01*
X115554494Y-87618037D01*
X115651185Y-87538685D01*
X115730537Y-87441994D01*
X115789502Y-87331680D01*
X115825812Y-87211982D01*
X115838072Y-87087500D01*
X115961928Y-87087500D01*
X115974188Y-87211982D01*
X116010498Y-87331680D01*
X116069463Y-87441994D01*
X116148815Y-87538685D01*
X116245506Y-87618037D01*
X116355820Y-87677002D01*
X116475518Y-87713312D01*
X116600000Y-87725572D01*
X117214250Y-87722500D01*
X117373000Y-87563750D01*
X117373000Y-86552000D01*
X117627000Y-86552000D01*
X117627000Y-87563750D01*
X117785750Y-87722500D01*
X118400000Y-87725572D01*
X118524482Y-87713312D01*
X118644180Y-87677002D01*
X118754494Y-87618037D01*
X118851185Y-87538685D01*
X118930537Y-87441994D01*
X118989502Y-87331680D01*
X119025812Y-87211982D01*
X119038072Y-87087500D01*
X119035000Y-86710750D01*
X118876250Y-86552000D01*
X117627000Y-86552000D01*
X117373000Y-86552000D01*
X116123750Y-86552000D01*
X115965000Y-86710750D01*
X115961928Y-87087500D01*
X115838072Y-87087500D01*
X115835000Y-86710750D01*
X115676250Y-86552000D01*
X114427000Y-86552000D01*
X114173000Y-86552000D01*
X112923750Y-86552000D01*
X112765000Y-86710750D01*
X112761928Y-87087500D01*
X112638072Y-87087500D01*
X112635000Y-86710750D01*
X112476250Y-86552000D01*
X111227000Y-86552000D01*
X110973000Y-86552000D01*
X109723750Y-86552000D01*
X109565000Y-86710750D01*
X109561928Y-87087500D01*
X109472727Y-87087500D01*
X109496008Y-87010754D01*
X109513072Y-86837500D01*
X109513072Y-86037500D01*
X109496008Y-85864246D01*
X109465144Y-85762500D01*
X109561928Y-85762500D01*
X109565000Y-86139250D01*
X109723750Y-86298000D01*
X110973000Y-86298000D01*
X110973000Y-85286250D01*
X111227000Y-85286250D01*
X111227000Y-86298000D01*
X112476250Y-86298000D01*
X112635000Y-86139250D01*
X112638072Y-85762500D01*
X112761928Y-85762500D01*
X112765000Y-86139250D01*
X112923750Y-86298000D01*
X114173000Y-86298000D01*
X114173000Y-85286250D01*
X114427000Y-85286250D01*
X114427000Y-86298000D01*
X115676250Y-86298000D01*
X115835000Y-86139250D01*
X115838072Y-85762500D01*
X115961928Y-85762500D01*
X115965000Y-86139250D01*
X116123750Y-86298000D01*
X117373000Y-86298000D01*
X117373000Y-85286250D01*
X117627000Y-85286250D01*
X117627000Y-86298000D01*
X118876250Y-86298000D01*
X119035000Y-86139250D01*
X119038072Y-85762500D01*
X119025812Y-85638018D01*
X118989502Y-85518320D01*
X118930537Y-85408006D01*
X118851185Y-85311315D01*
X118754494Y-85231963D01*
X118644180Y-85172998D01*
X118524482Y-85136688D01*
X118400000Y-85124428D01*
X117785750Y-85127500D01*
X117627000Y-85286250D01*
X117373000Y-85286250D01*
X117214250Y-85127500D01*
X116600000Y-85124428D01*
X116475518Y-85136688D01*
X116355820Y-85172998D01*
X116245506Y-85231963D01*
X116148815Y-85311315D01*
X116069463Y-85408006D01*
X116010498Y-85518320D01*
X115974188Y-85638018D01*
X115961928Y-85762500D01*
X115838072Y-85762500D01*
X115825812Y-85638018D01*
X115789502Y-85518320D01*
X115730537Y-85408006D01*
X115651185Y-85311315D01*
X115554494Y-85231963D01*
X115444180Y-85172998D01*
X115324482Y-85136688D01*
X115200000Y-85124428D01*
X114585750Y-85127500D01*
X114427000Y-85286250D01*
X114173000Y-85286250D01*
X114014250Y-85127500D01*
X113400000Y-85124428D01*
X113275518Y-85136688D01*
X113155820Y-85172998D01*
X113045506Y-85231963D01*
X112948815Y-85311315D01*
X112869463Y-85408006D01*
X112810498Y-85518320D01*
X112774188Y-85638018D01*
X112761928Y-85762500D01*
X112638072Y-85762500D01*
X112625812Y-85638018D01*
X112589502Y-85518320D01*
X112530537Y-85408006D01*
X112451185Y-85311315D01*
X112354494Y-85231963D01*
X112244180Y-85172998D01*
X112124482Y-85136688D01*
X112000000Y-85124428D01*
X111385750Y-85127500D01*
X111227000Y-85286250D01*
X110973000Y-85286250D01*
X110814250Y-85127500D01*
X110200000Y-85124428D01*
X110075518Y-85136688D01*
X109955820Y-85172998D01*
X109845506Y-85231963D01*
X109748815Y-85311315D01*
X109669463Y-85408006D01*
X109610498Y-85518320D01*
X109574188Y-85638018D01*
X109561928Y-85762500D01*
X109465144Y-85762500D01*
X109445472Y-85697650D01*
X109363405Y-85544114D01*
X109252962Y-85409538D01*
X109118386Y-85299095D01*
X108964850Y-85217028D01*
X108798254Y-85166492D01*
X108625000Y-85149428D01*
X107375000Y-85149428D01*
X107201746Y-85166492D01*
X107035150Y-85217028D01*
X106881614Y-85299095D01*
X106747038Y-85409538D01*
X106636595Y-85544114D01*
X106554528Y-85697650D01*
X106503992Y-85864246D01*
X106486928Y-86037500D01*
X106486928Y-86837500D01*
X106503992Y-87010754D01*
X106554528Y-87177350D01*
X106620080Y-87299988D01*
X105190302Y-88729766D01*
X105102564Y-88627000D01*
X104277000Y-88627000D01*
X104277000Y-88647000D01*
X104023000Y-88647000D01*
X104023000Y-88627000D01*
X103197436Y-88627000D01*
X103048770Y-88801131D01*
X103094161Y-88991084D01*
X103023815Y-89048815D01*
X102944463Y-89145506D01*
X102885498Y-89255820D01*
X102862533Y-89331527D01*
X102863072Y-89250000D01*
X102850812Y-89125518D01*
X102814502Y-89005820D01*
X102798028Y-88975000D01*
X102814502Y-88944180D01*
X102850812Y-88824482D01*
X102863072Y-88700000D01*
X102860000Y-88385750D01*
X102701250Y-88227000D01*
X102582322Y-88227000D01*
X102609410Y-88198869D01*
X103048770Y-88198869D01*
X103197436Y-88373000D01*
X104023000Y-88373000D01*
X104023000Y-87407266D01*
X104277000Y-87407266D01*
X104277000Y-88373000D01*
X105102564Y-88373000D01*
X105251230Y-88198869D01*
X105200586Y-87986934D01*
X105109569Y-87788951D01*
X104981676Y-87612529D01*
X104821822Y-87464447D01*
X104636150Y-87350397D01*
X104447938Y-87280732D01*
X104277000Y-87407266D01*
X104023000Y-87407266D01*
X103852062Y-87280732D01*
X103663850Y-87350397D01*
X103478178Y-87464447D01*
X103318324Y-87612529D01*
X103190431Y-87788951D01*
X103099414Y-87986934D01*
X103048770Y-88198869D01*
X102609410Y-88198869D01*
X102633479Y-88173874D01*
X102748546Y-87994420D01*
X102785925Y-87888325D01*
X102860000Y-87814250D01*
X102863072Y-87500000D01*
X102860000Y-87468808D01*
X102860000Y-87372998D01*
X102850048Y-87372998D01*
X102814502Y-87255820D01*
X102801113Y-87230770D01*
X102819435Y-87206787D01*
X102748546Y-87005580D01*
X102633479Y-86826126D01*
X102485613Y-86672569D01*
X102310631Y-86550810D01*
X102115257Y-86465528D01*
X101907000Y-86420000D01*
X101577000Y-86420000D01*
X101577000Y-89873000D01*
X101597000Y-89873000D01*
X101597000Y-90127000D01*
X101577000Y-90127000D01*
X101577000Y-91873000D01*
X101597000Y-91873000D01*
X101597000Y-92127000D01*
X101577000Y-92127000D01*
X101577000Y-95580000D01*
X101907000Y-95580000D01*
X102115257Y-95534472D01*
X102310631Y-95449190D01*
X102485613Y-95327431D01*
X102633479Y-95173874D01*
X102748546Y-94994420D01*
X102819435Y-94793213D01*
X102801113Y-94769230D01*
X102814502Y-94744180D01*
X102850048Y-94627002D01*
X102860000Y-94627002D01*
X102860000Y-94531192D01*
X102863072Y-94500000D01*
X102860000Y-94185750D01*
X102785925Y-94111675D01*
X102748546Y-94005580D01*
X102633479Y-93826126D01*
X102609411Y-93801131D01*
X103048770Y-93801131D01*
X103099414Y-94013066D01*
X103190431Y-94211049D01*
X103318324Y-94387471D01*
X103478178Y-94535553D01*
X103663850Y-94649603D01*
X103852062Y-94719268D01*
X104023000Y-94592734D01*
X104023000Y-93627000D01*
X104277000Y-93627000D01*
X104277000Y-94592734D01*
X104447938Y-94719268D01*
X104636150Y-94649603D01*
X104821822Y-94535553D01*
X104981676Y-94387471D01*
X105109569Y-94211049D01*
X105200586Y-94013066D01*
X105251230Y-93801131D01*
X105102564Y-93627000D01*
X104277000Y-93627000D01*
X104023000Y-93627000D01*
X103197436Y-93627000D01*
X103048770Y-93801131D01*
X102609411Y-93801131D01*
X102582322Y-93773000D01*
X102701250Y-93773000D01*
X102860000Y-93614250D01*
X102863072Y-93300000D01*
X102850812Y-93175518D01*
X102814502Y-93055820D01*
X102798028Y-93025000D01*
X102814502Y-92994180D01*
X102850812Y-92874482D01*
X102863072Y-92750000D01*
X102862540Y-92669629D01*
X102889479Y-92753576D01*
X102950200Y-92862933D01*
X103031088Y-92958343D01*
X103094257Y-93008515D01*
X103048770Y-93198869D01*
X103197436Y-93373000D01*
X104023000Y-93373000D01*
X104023000Y-93353000D01*
X104277000Y-93353000D01*
X104277000Y-93373000D01*
X105102564Y-93373000D01*
X105251230Y-93198869D01*
X105205743Y-93008515D01*
X105268912Y-92958343D01*
X105349800Y-92862933D01*
X105410521Y-92753576D01*
X105442226Y-92654776D01*
X105471914Y-92710319D01*
X105563764Y-92822237D01*
X105591809Y-92845253D01*
X105783135Y-93036579D01*
X105835914Y-93135322D01*
X105927764Y-93247240D01*
X105955809Y-93270256D01*
X107686927Y-95001375D01*
X107686927Y-95875000D01*
X107703991Y-96048254D01*
X107754527Y-96214850D01*
X107836594Y-96368386D01*
X107947037Y-96502962D01*
X108081613Y-96613405D01*
X108235149Y-96695472D01*
X108401745Y-96746008D01*
X108574999Y-96763072D01*
X109374999Y-96763072D01*
X109548253Y-96746008D01*
X109714849Y-96695472D01*
X109868385Y-96613405D01*
X110002961Y-96502962D01*
X110113404Y-96368386D01*
X110195471Y-96214850D01*
X110246007Y-96048254D01*
X110263071Y-95875000D01*
X110263071Y-94625000D01*
X110246007Y-94451746D01*
X110195471Y-94285150D01*
X110113404Y-94131614D01*
X110002961Y-93997038D01*
X109868385Y-93886595D01*
X109714849Y-93804528D01*
X109642230Y-93782500D01*
X109714849Y-93760471D01*
X109868385Y-93678404D01*
X110002961Y-93567961D01*
X110113404Y-93433385D01*
X110195471Y-93279849D01*
X110246007Y-93113253D01*
X110263071Y-92939999D01*
X110263071Y-91689999D01*
X110246007Y-91516745D01*
X110195471Y-91350149D01*
X110113404Y-91196613D01*
X110002961Y-91062037D01*
X109868385Y-90951594D01*
X109714849Y-90869527D01*
X109548253Y-90818991D01*
X109374999Y-90801927D01*
X108819949Y-90801927D01*
X108964850Y-90757972D01*
X109118386Y-90675905D01*
X109252962Y-90565462D01*
X109363405Y-90430886D01*
X109365749Y-90426500D01*
X109695887Y-90426500D01*
X109711595Y-90455887D01*
X109822038Y-90590462D01*
X109956613Y-90700905D01*
X110110149Y-90782972D01*
X110276745Y-90833508D01*
X110449999Y-90850572D01*
X111397636Y-90850572D01*
X111335149Y-90869527D01*
X111181613Y-90951594D01*
X111047037Y-91062037D01*
X110936594Y-91196613D01*
X110854527Y-91350149D01*
X110803991Y-91516745D01*
X110786927Y-91689999D01*
X110786927Y-92939999D01*
X110803991Y-93113253D01*
X110854527Y-93279849D01*
X110936594Y-93433385D01*
X111047037Y-93567961D01*
X111181613Y-93678404D01*
X111335149Y-93760471D01*
X111407768Y-93782500D01*
X111335149Y-93804528D01*
X111181613Y-93886595D01*
X111047037Y-93997038D01*
X110936594Y-94131614D01*
X110854527Y-94285150D01*
X110803991Y-94451746D01*
X110786927Y-94625000D01*
X110786927Y-95875000D01*
X110803991Y-96048254D01*
X110854527Y-96214850D01*
X110936594Y-96368386D01*
X111047037Y-96502962D01*
X111181613Y-96613405D01*
X111335149Y-96695472D01*
X111501745Y-96746008D01*
X111674999Y-96763072D01*
X112474999Y-96763072D01*
X112648253Y-96746008D01*
X112814849Y-96695472D01*
X112968385Y-96613405D01*
X113102961Y-96502962D01*
X113213404Y-96368386D01*
X113295471Y-96214850D01*
X113346007Y-96048254D01*
X113363071Y-95875000D01*
X113363071Y-95001375D01*
X113621946Y-94742500D01*
X123012131Y-94742500D01*
X122978992Y-94851745D01*
X122961928Y-95024999D01*
X122961928Y-95850001D01*
X122978992Y-96023255D01*
X123029528Y-96189851D01*
X123111595Y-96343387D01*
X123222038Y-96477962D01*
X123356613Y-96588405D01*
X123510149Y-96670472D01*
X123676745Y-96721008D01*
X123849999Y-96738072D01*
X125150001Y-96738072D01*
X125323255Y-96721008D01*
X125489851Y-96670472D01*
X125643387Y-96588405D01*
X125777962Y-96477962D01*
X125888405Y-96343387D01*
X125966384Y-96197500D01*
X130865288Y-96197500D01*
X130934010Y-96363411D01*
X131096525Y-96606632D01*
X131303368Y-96813475D01*
X131477760Y-96930000D01*
X131303368Y-97046525D01*
X131096525Y-97253368D01*
X130934010Y-97496589D01*
X130822068Y-97766842D01*
X130765000Y-98053740D01*
X130765000Y-98346260D01*
X130822068Y-98633158D01*
X130934010Y-98903411D01*
X131096525Y-99146632D01*
X131289893Y-99340000D01*
X126026746Y-99340000D01*
X126038072Y-99225000D01*
X126035000Y-98848250D01*
X125876250Y-98689500D01*
X124627000Y-98689500D01*
X124627000Y-98709500D01*
X124373000Y-98709500D01*
X124373000Y-98689500D01*
X123123750Y-98689500D01*
X122965000Y-98848250D01*
X122961928Y-99225000D01*
X122973254Y-99340000D01*
X100660000Y-99340000D01*
X100660000Y-97900000D01*
X122961928Y-97900000D01*
X122965000Y-98276750D01*
X123123750Y-98435500D01*
X124373000Y-98435500D01*
X124373000Y-97423750D01*
X124627000Y-97423750D01*
X124627000Y-98435500D01*
X125876250Y-98435500D01*
X126035000Y-98276750D01*
X126038072Y-97900000D01*
X126025812Y-97775518D01*
X125989502Y-97655820D01*
X125930537Y-97545506D01*
X125851185Y-97448815D01*
X125754494Y-97369463D01*
X125644180Y-97310498D01*
X125524482Y-97274188D01*
X125400000Y-97261928D01*
X124785750Y-97265000D01*
X124627000Y-97423750D01*
X124373000Y-97423750D01*
X124214250Y-97265000D01*
X123600000Y-97261928D01*
X123475518Y-97274188D01*
X123355820Y-97310498D01*
X123245506Y-97369463D01*
X123148815Y-97448815D01*
X123069463Y-97545506D01*
X123010498Y-97655820D01*
X122974188Y-97775518D01*
X122961928Y-97900000D01*
X100660000Y-97900000D01*
X100660000Y-95480021D01*
X100784743Y-95534472D01*
X100993000Y-95580000D01*
X101323000Y-95580000D01*
X101323000Y-92127000D01*
X101303000Y-92127000D01*
X101303000Y-91873000D01*
X101323000Y-91873000D01*
X101323000Y-90127000D01*
X101303000Y-90127000D01*
X101303000Y-89873000D01*
X101323000Y-89873000D01*
X101323000Y-86420000D01*
X100993000Y-86420000D01*
X100784743Y-86465528D01*
X100660000Y-86519979D01*
X100660000Y-84410000D01*
X130809230Y-84410000D01*
X130774188Y-84525518D01*
G04 #@! TA.AperFunction,Conductor*
D23*
G36*
X130774188Y-84525518D02*
G01*
X130764960Y-84619212D01*
X130734325Y-84622229D01*
X130717725Y-84623864D01*
X130644758Y-84645998D01*
X130550149Y-84674697D01*
X130395709Y-84757247D01*
X130260341Y-84868341D01*
X130232506Y-84902258D01*
X128023765Y-87111000D01*
X125198446Y-87111000D01*
X125213072Y-86962500D01*
X125213072Y-86037500D01*
X125196008Y-85864246D01*
X125145472Y-85697650D01*
X125063405Y-85544114D01*
X124952962Y-85409538D01*
X124818386Y-85299095D01*
X124664850Y-85217028D01*
X124498254Y-85166492D01*
X124325000Y-85149428D01*
X123075000Y-85149428D01*
X122901746Y-85166492D01*
X122735150Y-85217028D01*
X122581614Y-85299095D01*
X122447038Y-85409538D01*
X122336595Y-85544114D01*
X122258617Y-85690000D01*
X122134702Y-85690000D01*
X122063405Y-85556614D01*
X121952962Y-85422038D01*
X121818386Y-85311595D01*
X121664850Y-85229528D01*
X121498254Y-85178992D01*
X121325000Y-85161928D01*
X120075000Y-85161928D01*
X119901746Y-85178992D01*
X119735150Y-85229528D01*
X119581614Y-85311595D01*
X119447038Y-85422038D01*
X119336595Y-85556614D01*
X119254528Y-85710150D01*
X119203992Y-85876746D01*
X119186928Y-86050000D01*
X119186928Y-86850000D01*
X119203992Y-87023254D01*
X119254528Y-87189850D01*
X119336595Y-87343386D01*
X119447038Y-87477962D01*
X119581614Y-87588405D01*
X119735150Y-87670472D01*
X119901746Y-87721008D01*
X120075000Y-87738072D01*
X120604692Y-87738072D01*
X120102259Y-88240506D01*
X120076156Y-88261928D01*
X120075000Y-88261928D01*
X119901746Y-88278992D01*
X119735150Y-88329528D01*
X119581614Y-88411595D01*
X119447038Y-88522038D01*
X119336595Y-88656614D01*
X119334251Y-88661000D01*
X118897431Y-88661000D01*
X118888405Y-88644113D01*
X118777962Y-88509538D01*
X118643387Y-88399095D01*
X118489851Y-88317028D01*
X118323255Y-88266492D01*
X118150001Y-88249428D01*
X116849999Y-88249428D01*
X116676745Y-88266492D01*
X116510149Y-88317028D01*
X116356613Y-88399095D01*
X116222038Y-88509538D01*
X116111595Y-88644113D01*
X116102569Y-88661000D01*
X115697431Y-88661000D01*
X115688405Y-88644113D01*
X115577962Y-88509538D01*
X115443387Y-88399095D01*
X115289851Y-88317028D01*
X115123255Y-88266492D01*
X114950001Y-88249428D01*
X113649999Y-88249428D01*
X113476745Y-88266492D01*
X113310149Y-88317028D01*
X113156613Y-88399095D01*
X113022038Y-88509538D01*
X112911595Y-88644113D01*
X112902569Y-88661000D01*
X112497431Y-88661000D01*
X112488405Y-88644113D01*
X112377962Y-88509538D01*
X112243387Y-88399095D01*
X112089851Y-88317028D01*
X111923255Y-88266492D01*
X111750001Y-88249428D01*
X110449999Y-88249428D01*
X110276745Y-88266492D01*
X110110149Y-88317028D01*
X109956613Y-88399095D01*
X109822038Y-88509538D01*
X109711595Y-88644113D01*
X109709250Y-88648500D01*
X109365749Y-88648500D01*
X109363405Y-88644114D01*
X109252962Y-88509538D01*
X109118386Y-88399095D01*
X108964850Y-88317028D01*
X108889000Y-88294019D01*
X108889000Y-87680981D01*
X108964850Y-87657972D01*
X109118386Y-87575905D01*
X109252962Y-87465462D01*
X109363405Y-87330886D01*
X109445472Y-87177350D01*
X109472727Y-87087500D01*
X109561928Y-87087500D01*
X109574188Y-87211982D01*
X109610498Y-87331680D01*
X109669463Y-87441994D01*
X109748815Y-87538685D01*
X109845506Y-87618037D01*
X109955820Y-87677002D01*
X110075518Y-87713312D01*
X110200000Y-87725572D01*
X110814250Y-87722500D01*
X110973000Y-87563750D01*
X110973000Y-86552000D01*
X111227000Y-86552000D01*
X111227000Y-87563750D01*
X111385750Y-87722500D01*
X112000000Y-87725572D01*
X112124482Y-87713312D01*
X112244180Y-87677002D01*
X112354494Y-87618037D01*
X112451185Y-87538685D01*
X112530537Y-87441994D01*
X112589502Y-87331680D01*
X112625812Y-87211982D01*
X112638072Y-87087500D01*
X112761928Y-87087500D01*
X112774188Y-87211982D01*
X112810498Y-87331680D01*
X112869463Y-87441994D01*
X112948815Y-87538685D01*
X113045506Y-87618037D01*
X113155820Y-87677002D01*
X113275518Y-87713312D01*
X113400000Y-87725572D01*
X114014250Y-87722500D01*
X114173000Y-87563750D01*
X114173000Y-86552000D01*
X114427000Y-86552000D01*
X114427000Y-87563750D01*
X114585750Y-87722500D01*
X115200000Y-87725572D01*
X115324482Y-87713312D01*
X115444180Y-87677002D01*
X115554494Y-87618037D01*
X115651185Y-87538685D01*
X115730537Y-87441994D01*
X115789502Y-87331680D01*
X115825812Y-87211982D01*
X115838072Y-87087500D01*
X115961928Y-87087500D01*
X115974188Y-87211982D01*
X116010498Y-87331680D01*
X116069463Y-87441994D01*
X116148815Y-87538685D01*
X116245506Y-87618037D01*
X116355820Y-87677002D01*
X116475518Y-87713312D01*
X116600000Y-87725572D01*
X117214250Y-87722500D01*
X117373000Y-87563750D01*
X117373000Y-86552000D01*
X117627000Y-86552000D01*
X117627000Y-87563750D01*
X117785750Y-87722500D01*
X118400000Y-87725572D01*
X118524482Y-87713312D01*
X118644180Y-87677002D01*
X118754494Y-87618037D01*
X118851185Y-87538685D01*
X118930537Y-87441994D01*
X118989502Y-87331680D01*
X119025812Y-87211982D01*
X119038072Y-87087500D01*
X119035000Y-86710750D01*
X118876250Y-86552000D01*
X117627000Y-86552000D01*
X117373000Y-86552000D01*
X116123750Y-86552000D01*
X115965000Y-86710750D01*
X115961928Y-87087500D01*
X115838072Y-87087500D01*
X115835000Y-86710750D01*
X115676250Y-86552000D01*
X114427000Y-86552000D01*
X114173000Y-86552000D01*
X112923750Y-86552000D01*
X112765000Y-86710750D01*
X112761928Y-87087500D01*
X112638072Y-87087500D01*
X112635000Y-86710750D01*
X112476250Y-86552000D01*
X111227000Y-86552000D01*
X110973000Y-86552000D01*
X109723750Y-86552000D01*
X109565000Y-86710750D01*
X109561928Y-87087500D01*
X109472727Y-87087500D01*
X109496008Y-87010754D01*
X109513072Y-86837500D01*
X109513072Y-86037500D01*
X109496008Y-85864246D01*
X109465144Y-85762500D01*
X109561928Y-85762500D01*
X109565000Y-86139250D01*
X109723750Y-86298000D01*
X110973000Y-86298000D01*
X110973000Y-85286250D01*
X111227000Y-85286250D01*
X111227000Y-86298000D01*
X112476250Y-86298000D01*
X112635000Y-86139250D01*
X112638072Y-85762500D01*
X112761928Y-85762500D01*
X112765000Y-86139250D01*
X112923750Y-86298000D01*
X114173000Y-86298000D01*
X114173000Y-85286250D01*
X114427000Y-85286250D01*
X114427000Y-86298000D01*
X115676250Y-86298000D01*
X115835000Y-86139250D01*
X115838072Y-85762500D01*
X115961928Y-85762500D01*
X115965000Y-86139250D01*
X116123750Y-86298000D01*
X117373000Y-86298000D01*
X117373000Y-85286250D01*
X117627000Y-85286250D01*
X117627000Y-86298000D01*
X118876250Y-86298000D01*
X119035000Y-86139250D01*
X119038072Y-85762500D01*
X119025812Y-85638018D01*
X118989502Y-85518320D01*
X118930537Y-85408006D01*
X118851185Y-85311315D01*
X118754494Y-85231963D01*
X118644180Y-85172998D01*
X118524482Y-85136688D01*
X118400000Y-85124428D01*
X117785750Y-85127500D01*
X117627000Y-85286250D01*
X117373000Y-85286250D01*
X117214250Y-85127500D01*
X116600000Y-85124428D01*
X116475518Y-85136688D01*
X116355820Y-85172998D01*
X116245506Y-85231963D01*
X116148815Y-85311315D01*
X116069463Y-85408006D01*
X116010498Y-85518320D01*
X115974188Y-85638018D01*
X115961928Y-85762500D01*
X115838072Y-85762500D01*
X115825812Y-85638018D01*
X115789502Y-85518320D01*
X115730537Y-85408006D01*
X115651185Y-85311315D01*
X115554494Y-85231963D01*
X115444180Y-85172998D01*
X115324482Y-85136688D01*
X115200000Y-85124428D01*
X114585750Y-85127500D01*
X114427000Y-85286250D01*
X114173000Y-85286250D01*
X114014250Y-85127500D01*
X113400000Y-85124428D01*
X113275518Y-85136688D01*
X113155820Y-85172998D01*
X113045506Y-85231963D01*
X112948815Y-85311315D01*
X112869463Y-85408006D01*
X112810498Y-85518320D01*
X112774188Y-85638018D01*
X112761928Y-85762500D01*
X112638072Y-85762500D01*
X112625812Y-85638018D01*
X112589502Y-85518320D01*
X112530537Y-85408006D01*
X112451185Y-85311315D01*
X112354494Y-85231963D01*
X112244180Y-85172998D01*
X112124482Y-85136688D01*
X112000000Y-85124428D01*
X111385750Y-85127500D01*
X111227000Y-85286250D01*
X110973000Y-85286250D01*
X110814250Y-85127500D01*
X110200000Y-85124428D01*
X110075518Y-85136688D01*
X109955820Y-85172998D01*
X109845506Y-85231963D01*
X109748815Y-85311315D01*
X109669463Y-85408006D01*
X109610498Y-85518320D01*
X109574188Y-85638018D01*
X109561928Y-85762500D01*
X109465144Y-85762500D01*
X109445472Y-85697650D01*
X109363405Y-85544114D01*
X109252962Y-85409538D01*
X109118386Y-85299095D01*
X108964850Y-85217028D01*
X108798254Y-85166492D01*
X108625000Y-85149428D01*
X107375000Y-85149428D01*
X107201746Y-85166492D01*
X107035150Y-85217028D01*
X106881614Y-85299095D01*
X106747038Y-85409538D01*
X106636595Y-85544114D01*
X106554528Y-85697650D01*
X106503992Y-85864246D01*
X106486928Y-86037500D01*
X106486928Y-86837500D01*
X106503992Y-87010754D01*
X106554528Y-87177350D01*
X106620080Y-87299988D01*
X105190302Y-88729766D01*
X105102564Y-88627000D01*
X104277000Y-88627000D01*
X104277000Y-88647000D01*
X104023000Y-88647000D01*
X104023000Y-88627000D01*
X103197436Y-88627000D01*
X103048770Y-88801131D01*
X103094161Y-88991084D01*
X103023815Y-89048815D01*
X102944463Y-89145506D01*
X102885498Y-89255820D01*
X102862533Y-89331527D01*
X102863072Y-89250000D01*
X102850812Y-89125518D01*
X102814502Y-89005820D01*
X102798028Y-88975000D01*
X102814502Y-88944180D01*
X102850812Y-88824482D01*
X102863072Y-88700000D01*
X102860000Y-88385750D01*
X102701250Y-88227000D01*
X102582322Y-88227000D01*
X102609410Y-88198869D01*
X103048770Y-88198869D01*
X103197436Y-88373000D01*
X104023000Y-88373000D01*
X104023000Y-87407266D01*
X104277000Y-87407266D01*
X104277000Y-88373000D01*
X105102564Y-88373000D01*
X105251230Y-88198869D01*
X105200586Y-87986934D01*
X105109569Y-87788951D01*
X104981676Y-87612529D01*
X104821822Y-87464447D01*
X104636150Y-87350397D01*
X104447938Y-87280732D01*
X104277000Y-87407266D01*
X104023000Y-87407266D01*
X103852062Y-87280732D01*
X103663850Y-87350397D01*
X103478178Y-87464447D01*
X103318324Y-87612529D01*
X103190431Y-87788951D01*
X103099414Y-87986934D01*
X103048770Y-88198869D01*
X102609410Y-88198869D01*
X102633479Y-88173874D01*
X102748546Y-87994420D01*
X102785925Y-87888325D01*
X102860000Y-87814250D01*
X102863072Y-87500000D01*
X102860000Y-87468808D01*
X102860000Y-87372998D01*
X102850048Y-87372998D01*
X102814502Y-87255820D01*
X102801113Y-87230770D01*
X102819435Y-87206787D01*
X102748546Y-87005580D01*
X102633479Y-86826126D01*
X102485613Y-86672569D01*
X102310631Y-86550810D01*
X102115257Y-86465528D01*
X101907000Y-86420000D01*
X101577000Y-86420000D01*
X101577000Y-89873000D01*
X101597000Y-89873000D01*
X101597000Y-90127000D01*
X101577000Y-90127000D01*
X101577000Y-91873000D01*
X101597000Y-91873000D01*
X101597000Y-92127000D01*
X101577000Y-92127000D01*
X101577000Y-95580000D01*
X101907000Y-95580000D01*
X102115257Y-95534472D01*
X102310631Y-95449190D01*
X102485613Y-95327431D01*
X102633479Y-95173874D01*
X102748546Y-94994420D01*
X102819435Y-94793213D01*
X102801113Y-94769230D01*
X102814502Y-94744180D01*
X102850048Y-94627002D01*
X102860000Y-94627002D01*
X102860000Y-94531192D01*
X102863072Y-94500000D01*
X102860000Y-94185750D01*
X102785925Y-94111675D01*
X102748546Y-94005580D01*
X102633479Y-93826126D01*
X102609411Y-93801131D01*
X103048770Y-93801131D01*
X103099414Y-94013066D01*
X103190431Y-94211049D01*
X103318324Y-94387471D01*
X103478178Y-94535553D01*
X103663850Y-94649603D01*
X103852062Y-94719268D01*
X104023000Y-94592734D01*
X104023000Y-93627000D01*
X104277000Y-93627000D01*
X104277000Y-94592734D01*
X104447938Y-94719268D01*
X104636150Y-94649603D01*
X104821822Y-94535553D01*
X104981676Y-94387471D01*
X105109569Y-94211049D01*
X105200586Y-94013066D01*
X105251230Y-93801131D01*
X105102564Y-93627000D01*
X104277000Y-93627000D01*
X104023000Y-93627000D01*
X103197436Y-93627000D01*
X103048770Y-93801131D01*
X102609411Y-93801131D01*
X102582322Y-93773000D01*
X102701250Y-93773000D01*
X102860000Y-93614250D01*
X102863072Y-93300000D01*
X102850812Y-93175518D01*
X102814502Y-93055820D01*
X102798028Y-93025000D01*
X102814502Y-92994180D01*
X102850812Y-92874482D01*
X102863072Y-92750000D01*
X102862540Y-92669629D01*
X102889479Y-92753576D01*
X102950200Y-92862933D01*
X103031088Y-92958343D01*
X103094257Y-93008515D01*
X103048770Y-93198869D01*
X103197436Y-93373000D01*
X104023000Y-93373000D01*
X104023000Y-93353000D01*
X104277000Y-93353000D01*
X104277000Y-93373000D01*
X105102564Y-93373000D01*
X105251230Y-93198869D01*
X105205743Y-93008515D01*
X105268912Y-92958343D01*
X105349800Y-92862933D01*
X105410521Y-92753576D01*
X105442226Y-92654776D01*
X105471914Y-92710319D01*
X105563764Y-92822237D01*
X105591809Y-92845253D01*
X105783135Y-93036579D01*
X105835914Y-93135322D01*
X105927764Y-93247240D01*
X105955809Y-93270256D01*
X107686927Y-95001375D01*
X107686927Y-95875000D01*
X107703991Y-96048254D01*
X107754527Y-96214850D01*
X107836594Y-96368386D01*
X107947037Y-96502962D01*
X108081613Y-96613405D01*
X108235149Y-96695472D01*
X108401745Y-96746008D01*
X108574999Y-96763072D01*
X109374999Y-96763072D01*
X109548253Y-96746008D01*
X109714849Y-96695472D01*
X109868385Y-96613405D01*
X110002961Y-96502962D01*
X110113404Y-96368386D01*
X110195471Y-96214850D01*
X110246007Y-96048254D01*
X110263071Y-95875000D01*
X110263071Y-94625000D01*
X110246007Y-94451746D01*
X110195471Y-94285150D01*
X110113404Y-94131614D01*
X110002961Y-93997038D01*
X109868385Y-93886595D01*
X109714849Y-93804528D01*
X109642230Y-93782500D01*
X109714849Y-93760471D01*
X109868385Y-93678404D01*
X110002961Y-93567961D01*
X110113404Y-93433385D01*
X110195471Y-93279849D01*
X110246007Y-93113253D01*
X110263071Y-92939999D01*
X110263071Y-91689999D01*
X110246007Y-91516745D01*
X110195471Y-91350149D01*
X110113404Y-91196613D01*
X110002961Y-91062037D01*
X109868385Y-90951594D01*
X109714849Y-90869527D01*
X109548253Y-90818991D01*
X109374999Y-90801927D01*
X108819949Y-90801927D01*
X108964850Y-90757972D01*
X109118386Y-90675905D01*
X109252962Y-90565462D01*
X109363405Y-90430886D01*
X109365749Y-90426500D01*
X109695887Y-90426500D01*
X109711595Y-90455887D01*
X109822038Y-90590462D01*
X109956613Y-90700905D01*
X110110149Y-90782972D01*
X110276745Y-90833508D01*
X110449999Y-90850572D01*
X111397636Y-90850572D01*
X111335149Y-90869527D01*
X111181613Y-90951594D01*
X111047037Y-91062037D01*
X110936594Y-91196613D01*
X110854527Y-91350149D01*
X110803991Y-91516745D01*
X110786927Y-91689999D01*
X110786927Y-92939999D01*
X110803991Y-93113253D01*
X110854527Y-93279849D01*
X110936594Y-93433385D01*
X111047037Y-93567961D01*
X111181613Y-93678404D01*
X111335149Y-93760471D01*
X111407768Y-93782500D01*
X111335149Y-93804528D01*
X111181613Y-93886595D01*
X111047037Y-93997038D01*
X110936594Y-94131614D01*
X110854527Y-94285150D01*
X110803991Y-94451746D01*
X110786927Y-94625000D01*
X110786927Y-95875000D01*
X110803991Y-96048254D01*
X110854527Y-96214850D01*
X110936594Y-96368386D01*
X111047037Y-96502962D01*
X111181613Y-96613405D01*
X111335149Y-96695472D01*
X111501745Y-96746008D01*
X111674999Y-96763072D01*
X112474999Y-96763072D01*
X112648253Y-96746008D01*
X112814849Y-96695472D01*
X112968385Y-96613405D01*
X113102961Y-96502962D01*
X113213404Y-96368386D01*
X113295471Y-96214850D01*
X113346007Y-96048254D01*
X113363071Y-95875000D01*
X113363071Y-95001375D01*
X113621946Y-94742500D01*
X123012131Y-94742500D01*
X122978992Y-94851745D01*
X122961928Y-95024999D01*
X122961928Y-95850001D01*
X122978992Y-96023255D01*
X123029528Y-96189851D01*
X123111595Y-96343387D01*
X123222038Y-96477962D01*
X123356613Y-96588405D01*
X123510149Y-96670472D01*
X123676745Y-96721008D01*
X123849999Y-96738072D01*
X125150001Y-96738072D01*
X125323255Y-96721008D01*
X125489851Y-96670472D01*
X125643387Y-96588405D01*
X125777962Y-96477962D01*
X125888405Y-96343387D01*
X125966384Y-96197500D01*
X130865288Y-96197500D01*
X130934010Y-96363411D01*
X131096525Y-96606632D01*
X131303368Y-96813475D01*
X131477760Y-96930000D01*
X131303368Y-97046525D01*
X131096525Y-97253368D01*
X130934010Y-97496589D01*
X130822068Y-97766842D01*
X130765000Y-98053740D01*
X130765000Y-98346260D01*
X130822068Y-98633158D01*
X130934010Y-98903411D01*
X131096525Y-99146632D01*
X131289893Y-99340000D01*
X126026746Y-99340000D01*
X126038072Y-99225000D01*
X126035000Y-98848250D01*
X125876250Y-98689500D01*
X124627000Y-98689500D01*
X124627000Y-98709500D01*
X124373000Y-98709500D01*
X124373000Y-98689500D01*
X123123750Y-98689500D01*
X122965000Y-98848250D01*
X122961928Y-99225000D01*
X122973254Y-99340000D01*
X100660000Y-99340000D01*
X100660000Y-97900000D01*
X122961928Y-97900000D01*
X122965000Y-98276750D01*
X123123750Y-98435500D01*
X124373000Y-98435500D01*
X124373000Y-97423750D01*
X124627000Y-97423750D01*
X124627000Y-98435500D01*
X125876250Y-98435500D01*
X126035000Y-98276750D01*
X126038072Y-97900000D01*
X126025812Y-97775518D01*
X125989502Y-97655820D01*
X125930537Y-97545506D01*
X125851185Y-97448815D01*
X125754494Y-97369463D01*
X125644180Y-97310498D01*
X125524482Y-97274188D01*
X125400000Y-97261928D01*
X124785750Y-97265000D01*
X124627000Y-97423750D01*
X124373000Y-97423750D01*
X124214250Y-97265000D01*
X123600000Y-97261928D01*
X123475518Y-97274188D01*
X123355820Y-97310498D01*
X123245506Y-97369463D01*
X123148815Y-97448815D01*
X123069463Y-97545506D01*
X123010498Y-97655820D01*
X122974188Y-97775518D01*
X122961928Y-97900000D01*
X100660000Y-97900000D01*
X100660000Y-95480021D01*
X100784743Y-95534472D01*
X100993000Y-95580000D01*
X101323000Y-95580000D01*
X101323000Y-92127000D01*
X101303000Y-92127000D01*
X101303000Y-91873000D01*
X101323000Y-91873000D01*
X101323000Y-90127000D01*
X101303000Y-90127000D01*
X101303000Y-89873000D01*
X101323000Y-89873000D01*
X101323000Y-86420000D01*
X100993000Y-86420000D01*
X100784743Y-86465528D01*
X100660000Y-86519979D01*
X100660000Y-84410000D01*
X130809230Y-84410000D01*
X130774188Y-84525518D01*
G37*
G04 #@! TD.AperFunction*
D22*
X131096525Y-91526632D02*
X131303368Y-91733475D01*
X131485534Y-91855195D01*
X131368645Y-91924822D01*
X131152412Y-92119731D01*
X130978359Y-92353080D01*
X130853175Y-92615901D01*
X130808524Y-92763110D01*
X130929845Y-92993000D01*
X132123000Y-92993000D01*
X132123000Y-92973000D01*
X132377000Y-92973000D01*
X132377000Y-92993000D01*
X132397000Y-92993000D01*
X132397000Y-93247000D01*
X132377000Y-93247000D01*
X132377000Y-93267000D01*
X132123000Y-93267000D01*
X132123000Y-93247000D01*
X130929845Y-93247000D01*
X130808524Y-93476890D01*
X130853175Y-93624099D01*
X130978359Y-93886920D01*
X131152412Y-94120269D01*
X131368645Y-94315178D01*
X131485534Y-94384805D01*
X131303368Y-94506525D01*
X131132393Y-94677500D01*
X127224611Y-94677500D01*
X127329217Y-94621587D01*
X127441135Y-94529738D01*
X127464156Y-94501687D01*
X130650844Y-91315000D01*
X130955117Y-91315000D01*
X131096525Y-91526632D01*
G04 #@! TA.AperFunction,Conductor*
D23*
G36*
X131096525Y-91526632D02*
G01*
X131303368Y-91733475D01*
X131485534Y-91855195D01*
X131368645Y-91924822D01*
X131152412Y-92119731D01*
X130978359Y-92353080D01*
X130853175Y-92615901D01*
X130808524Y-92763110D01*
X130929845Y-92993000D01*
X132123000Y-92993000D01*
X132123000Y-92973000D01*
X132377000Y-92973000D01*
X132377000Y-92993000D01*
X132397000Y-92993000D01*
X132397000Y-93247000D01*
X132377000Y-93247000D01*
X132377000Y-93267000D01*
X132123000Y-93267000D01*
X132123000Y-93247000D01*
X130929845Y-93247000D01*
X130808524Y-93476890D01*
X130853175Y-93624099D01*
X130978359Y-93886920D01*
X131152412Y-94120269D01*
X131368645Y-94315178D01*
X131485534Y-94384805D01*
X131303368Y-94506525D01*
X131132393Y-94677500D01*
X127224611Y-94677500D01*
X127329217Y-94621587D01*
X127441135Y-94529738D01*
X127464156Y-94501687D01*
X130650844Y-91315000D01*
X130955117Y-91315000D01*
X131096525Y-91526632D01*
G37*
G04 #@! TD.AperFunction*
D22*
X130948815Y-86801185D02*
X131045506Y-86880537D01*
X131155820Y-86939502D01*
X131228380Y-86961513D01*
X131096525Y-87093368D01*
X130934010Y-87336589D01*
X130822068Y-87606842D01*
X130765000Y-87893740D01*
X130765000Y-88186260D01*
X130814656Y-88435897D01*
X129534009Y-89716545D01*
X129534004Y-89716549D01*
X126428054Y-92822500D01*
X113621946Y-92822500D01*
X113363071Y-92563625D01*
X113363071Y-91689999D01*
X113346007Y-91516745D01*
X113295471Y-91350149D01*
X113213404Y-91196613D01*
X113102961Y-91062037D01*
X112968385Y-90951594D01*
X112814849Y-90869527D01*
X112648253Y-90818991D01*
X112474999Y-90801927D01*
X112027364Y-90801927D01*
X112089851Y-90782972D01*
X112243387Y-90700905D01*
X112377962Y-90590462D01*
X112488405Y-90455887D01*
X112497431Y-90439000D01*
X112902569Y-90439000D01*
X112911595Y-90455887D01*
X113022038Y-90590462D01*
X113156613Y-90700905D01*
X113310149Y-90782972D01*
X113476745Y-90833508D01*
X113649999Y-90850572D01*
X114950001Y-90850572D01*
X115123255Y-90833508D01*
X115289851Y-90782972D01*
X115443387Y-90700905D01*
X115577962Y-90590462D01*
X115688405Y-90455887D01*
X115697431Y-90439000D01*
X116102569Y-90439000D01*
X116111595Y-90455887D01*
X116222038Y-90590462D01*
X116356613Y-90700905D01*
X116510149Y-90782972D01*
X116676745Y-90833508D01*
X116849999Y-90850572D01*
X118150001Y-90850572D01*
X118323255Y-90833508D01*
X118489851Y-90782972D01*
X118643387Y-90700905D01*
X118777962Y-90590462D01*
X118888405Y-90455887D01*
X118897431Y-90439000D01*
X119334251Y-90439000D01*
X119336595Y-90443386D01*
X119447038Y-90577962D01*
X119581614Y-90688405D01*
X119735150Y-90770472D01*
X119901746Y-90821008D01*
X120075000Y-90838072D01*
X121325000Y-90838072D01*
X121498254Y-90821008D01*
X121664850Y-90770472D01*
X121818386Y-90688405D01*
X121952962Y-90577962D01*
X122063405Y-90443386D01*
X122145472Y-90289850D01*
X122187181Y-90152353D01*
X122186928Y-90187500D01*
X122199188Y-90311982D01*
X122235498Y-90431680D01*
X122294463Y-90541994D01*
X122373815Y-90638685D01*
X122470506Y-90718037D01*
X122580820Y-90777002D01*
X122700518Y-90813312D01*
X122825000Y-90825572D01*
X123414250Y-90822500D01*
X123573000Y-90663750D01*
X123573000Y-89602000D01*
X123827000Y-89602000D01*
X123827000Y-90663750D01*
X123985750Y-90822500D01*
X124575000Y-90825572D01*
X124699482Y-90813312D01*
X124819180Y-90777002D01*
X124929494Y-90718037D01*
X125026185Y-90638685D01*
X125105537Y-90541994D01*
X125164502Y-90431680D01*
X125200812Y-90311982D01*
X125213072Y-90187500D01*
X125210000Y-89760750D01*
X125051250Y-89602000D01*
X123827000Y-89602000D01*
X123573000Y-89602000D01*
X123553000Y-89602000D01*
X123553000Y-89348000D01*
X123573000Y-89348000D01*
X123573000Y-89328000D01*
X123827000Y-89328000D01*
X123827000Y-89348000D01*
X125051250Y-89348000D01*
X125210000Y-89189250D01*
X125212161Y-88889000D01*
X127529255Y-88889000D01*
X127504774Y-88948102D01*
X127465000Y-89148061D01*
X127465000Y-89351939D01*
X127504774Y-89551898D01*
X127582795Y-89740256D01*
X127696063Y-89909774D01*
X127840226Y-90053937D01*
X128009744Y-90167205D01*
X128198102Y-90245226D01*
X128398061Y-90285000D01*
X128601939Y-90285000D01*
X128801898Y-90245226D01*
X128990256Y-90167205D01*
X129159774Y-90053937D01*
X129303937Y-89909774D01*
X129417205Y-89740256D01*
X129495226Y-89551898D01*
X129535000Y-89351939D01*
X129535000Y-89148061D01*
X129495226Y-88948102D01*
X129417205Y-88759744D01*
X129389000Y-88717532D01*
X129389000Y-88260235D01*
X130903395Y-86745841D01*
X130948815Y-86801185D01*
G04 #@! TA.AperFunction,Conductor*
D23*
G36*
X130948815Y-86801185D02*
G01*
X131045506Y-86880537D01*
X131155820Y-86939502D01*
X131228380Y-86961513D01*
X131096525Y-87093368D01*
X130934010Y-87336589D01*
X130822068Y-87606842D01*
X130765000Y-87893740D01*
X130765000Y-88186260D01*
X130814656Y-88435897D01*
X129534009Y-89716545D01*
X129534004Y-89716549D01*
X126428054Y-92822500D01*
X113621946Y-92822500D01*
X113363071Y-92563625D01*
X113363071Y-91689999D01*
X113346007Y-91516745D01*
X113295471Y-91350149D01*
X113213404Y-91196613D01*
X113102961Y-91062037D01*
X112968385Y-90951594D01*
X112814849Y-90869527D01*
X112648253Y-90818991D01*
X112474999Y-90801927D01*
X112027364Y-90801927D01*
X112089851Y-90782972D01*
X112243387Y-90700905D01*
X112377962Y-90590462D01*
X112488405Y-90455887D01*
X112497431Y-90439000D01*
X112902569Y-90439000D01*
X112911595Y-90455887D01*
X113022038Y-90590462D01*
X113156613Y-90700905D01*
X113310149Y-90782972D01*
X113476745Y-90833508D01*
X113649999Y-90850572D01*
X114950001Y-90850572D01*
X115123255Y-90833508D01*
X115289851Y-90782972D01*
X115443387Y-90700905D01*
X115577962Y-90590462D01*
X115688405Y-90455887D01*
X115697431Y-90439000D01*
X116102569Y-90439000D01*
X116111595Y-90455887D01*
X116222038Y-90590462D01*
X116356613Y-90700905D01*
X116510149Y-90782972D01*
X116676745Y-90833508D01*
X116849999Y-90850572D01*
X118150001Y-90850572D01*
X118323255Y-90833508D01*
X118489851Y-90782972D01*
X118643387Y-90700905D01*
X118777962Y-90590462D01*
X118888405Y-90455887D01*
X118897431Y-90439000D01*
X119334251Y-90439000D01*
X119336595Y-90443386D01*
X119447038Y-90577962D01*
X119581614Y-90688405D01*
X119735150Y-90770472D01*
X119901746Y-90821008D01*
X120075000Y-90838072D01*
X121325000Y-90838072D01*
X121498254Y-90821008D01*
X121664850Y-90770472D01*
X121818386Y-90688405D01*
X121952962Y-90577962D01*
X122063405Y-90443386D01*
X122145472Y-90289850D01*
X122187181Y-90152353D01*
X122186928Y-90187500D01*
X122199188Y-90311982D01*
X122235498Y-90431680D01*
X122294463Y-90541994D01*
X122373815Y-90638685D01*
X122470506Y-90718037D01*
X122580820Y-90777002D01*
X122700518Y-90813312D01*
X122825000Y-90825572D01*
X123414250Y-90822500D01*
X123573000Y-90663750D01*
X123573000Y-89602000D01*
X123827000Y-89602000D01*
X123827000Y-90663750D01*
X123985750Y-90822500D01*
X124575000Y-90825572D01*
X124699482Y-90813312D01*
X124819180Y-90777002D01*
X124929494Y-90718037D01*
X125026185Y-90638685D01*
X125105537Y-90541994D01*
X125164502Y-90431680D01*
X125200812Y-90311982D01*
X125213072Y-90187500D01*
X125210000Y-89760750D01*
X125051250Y-89602000D01*
X123827000Y-89602000D01*
X123573000Y-89602000D01*
X123553000Y-89602000D01*
X123553000Y-89348000D01*
X123573000Y-89348000D01*
X123573000Y-89328000D01*
X123827000Y-89328000D01*
X123827000Y-89348000D01*
X125051250Y-89348000D01*
X125210000Y-89189250D01*
X125212161Y-88889000D01*
X127529255Y-88889000D01*
X127504774Y-88948102D01*
X127465000Y-89148061D01*
X127465000Y-89351939D01*
X127504774Y-89551898D01*
X127582795Y-89740256D01*
X127696063Y-89909774D01*
X127840226Y-90053937D01*
X128009744Y-90167205D01*
X128198102Y-90245226D01*
X128398061Y-90285000D01*
X128601939Y-90285000D01*
X128801898Y-90245226D01*
X128990256Y-90167205D01*
X129159774Y-90053937D01*
X129303937Y-89909774D01*
X129417205Y-89740256D01*
X129495226Y-89551898D01*
X129535000Y-89351939D01*
X129535000Y-89148061D01*
X129495226Y-88948102D01*
X129417205Y-88759744D01*
X129389000Y-88717532D01*
X129389000Y-88260235D01*
X130903395Y-86745841D01*
X130948815Y-86801185D01*
G37*
G04 #@! TD.AperFunction*
M02*
