G04 #@! TF.GenerationSoftware,KiCad,Pcbnew,(5.1.10)-1*
G04 #@! TF.CreationDate,2021-08-25T20:16:02-07:00*
G04 #@! TF.ProjectId,USB breakout,55534220-6272-4656-916b-6f75742e6b69,rev?*
G04 #@! TF.SameCoordinates,Original*
G04 #@! TF.FileFunction,Copper,L2,Bot*
G04 #@! TF.FilePolarity,Positive*
%FSLAX46Y46*%
G04 Gerber Fmt 4.6, Leading zero omitted, Abs format (unit mm)*
G04 Created by KiCad (PCBNEW (5.1.10)-1) date 2021-08-25 20:16:02*
%MOMM*%
%LPD*%
G01*
G04 APERTURE LIST*
G04 #@! TA.AperFunction,ComponentPad*
%ADD10R,1.700000X1.700000*%
G04 #@! TD*
G04 #@! TA.AperFunction,ComponentPad*
%ADD11O,1.700000X1.700000*%
G04 #@! TD*
G04 #@! TA.AperFunction,ComponentPad*
%ADD12O,0.950000X1.250000*%
G04 #@! TD*
G04 #@! TA.AperFunction,ComponentPad*
%ADD13O,1.550000X0.890000*%
G04 #@! TD*
G04 #@! TA.AperFunction,ViaPad*
%ADD14C,0.800000*%
G04 #@! TD*
G04 #@! TA.AperFunction,Conductor*
%ADD15C,0.508000*%
G04 #@! TD*
G04 #@! TA.AperFunction,Conductor*
%ADD16C,0.254000*%
G04 #@! TD*
G04 #@! TA.AperFunction,Conductor*
%ADD17C,0.100000*%
G04 #@! TD*
G04 APERTURE END LIST*
D10*
X132250000Y-85500000D03*
D11*
X132250000Y-88040000D03*
X132250000Y-90580000D03*
X132250000Y-93120000D03*
X132250000Y-95660000D03*
X132250000Y-98200000D03*
D12*
X104150000Y-88500000D03*
X104150000Y-93500000D03*
D13*
X101450000Y-87500000D03*
X101450000Y-94500000D03*
D14*
X128500000Y-89250000D03*
X105750000Y-93000000D03*
X102950000Y-86550000D03*
X102850000Y-95350000D03*
X112600000Y-86400000D03*
X115800000Y-86400000D03*
X119000000Y-86400000D03*
X125100000Y-89500000D03*
X123000000Y-98500000D03*
D15*
X128392000Y-89358000D02*
X128500000Y-89250000D01*
X128500000Y-94500000D02*
X128750000Y-94750000D01*
X128500000Y-89250000D02*
X128500000Y-94500000D01*
X132250000Y-98200000D02*
X128750000Y-94750000D01*
D16*
X130774188Y-84525518D02*
X130761928Y-84650000D01*
X130761928Y-86350000D01*
X130774188Y-86474482D01*
X130810498Y-86594180D01*
X130869463Y-86704494D01*
X130948815Y-86801185D01*
X131045506Y-86880537D01*
X131155820Y-86939502D01*
X131228380Y-86961513D01*
X131096525Y-87093368D01*
X130934010Y-87336589D01*
X130822068Y-87606842D01*
X130765000Y-87893740D01*
X130765000Y-88186260D01*
X130822068Y-88473158D01*
X130934010Y-88743411D01*
X131096525Y-88986632D01*
X131303368Y-89193475D01*
X131477760Y-89310000D01*
X131303368Y-89426525D01*
X131096525Y-89633368D01*
X130934010Y-89876589D01*
X130822068Y-90146842D01*
X130765000Y-90433740D01*
X130765000Y-90726260D01*
X130822068Y-91013158D01*
X130934010Y-91283411D01*
X131096525Y-91526632D01*
X131303368Y-91733475D01*
X131485534Y-91855195D01*
X131368645Y-91924822D01*
X131152412Y-92119731D01*
X130978359Y-92353080D01*
X130853175Y-92615901D01*
X130808524Y-92763110D01*
X130929845Y-92993000D01*
X132123000Y-92993000D01*
X132123000Y-92973000D01*
X132377000Y-92973000D01*
X132377000Y-92993000D01*
X132397000Y-92993000D01*
X132397000Y-93247000D01*
X132377000Y-93247000D01*
X132377000Y-93267000D01*
X132123000Y-93267000D01*
X132123000Y-93247000D01*
X130929845Y-93247000D01*
X130808524Y-93476890D01*
X130853175Y-93624099D01*
X130978359Y-93886920D01*
X131152412Y-94120269D01*
X131368645Y-94315178D01*
X131485534Y-94384805D01*
X131303368Y-94506525D01*
X131096525Y-94713368D01*
X130934010Y-94956589D01*
X130822068Y-95226842D01*
X130769293Y-95492159D01*
X129389000Y-94131585D01*
X129389000Y-89782468D01*
X129417205Y-89740256D01*
X129495226Y-89551898D01*
X129535000Y-89351939D01*
X129535000Y-89148061D01*
X129495226Y-88948102D01*
X129417205Y-88759744D01*
X129303937Y-88590226D01*
X129159774Y-88446063D01*
X128990256Y-88332795D01*
X128801898Y-88254774D01*
X128601939Y-88215000D01*
X128398061Y-88215000D01*
X128198102Y-88254774D01*
X128009744Y-88332795D01*
X127840226Y-88446063D01*
X127696063Y-88590226D01*
X127582795Y-88759744D01*
X127504774Y-88948102D01*
X127465000Y-89148061D01*
X127465000Y-89351939D01*
X127504774Y-89551898D01*
X127582795Y-89740256D01*
X127610287Y-89781401D01*
X127611000Y-89782735D01*
X127611001Y-94456330D01*
X127606700Y-94500000D01*
X127623864Y-94674274D01*
X127674698Y-94841852D01*
X127718754Y-94924274D01*
X127757248Y-94996291D01*
X127868342Y-95131659D01*
X127902260Y-95159495D01*
X128092772Y-95350006D01*
X128094823Y-95352469D01*
X128123657Y-95380892D01*
X128152260Y-95409494D01*
X128154735Y-95411525D01*
X130776515Y-97995852D01*
X130765000Y-98053740D01*
X130765000Y-98346260D01*
X130822068Y-98633158D01*
X130934010Y-98903411D01*
X131096525Y-99146632D01*
X131289893Y-99340000D01*
X100660000Y-99340000D01*
X100660000Y-95480021D01*
X100784743Y-95534472D01*
X100993000Y-95580000D01*
X101323000Y-95580000D01*
X101323000Y-94627000D01*
X101577000Y-94627000D01*
X101577000Y-95580000D01*
X101907000Y-95580000D01*
X102115257Y-95534472D01*
X102310631Y-95449190D01*
X102485613Y-95327431D01*
X102633479Y-95173874D01*
X102748546Y-94994420D01*
X102819435Y-94793213D01*
X102692454Y-94627000D01*
X101577000Y-94627000D01*
X101323000Y-94627000D01*
X101303000Y-94627000D01*
X101303000Y-94373000D01*
X101323000Y-94373000D01*
X101323000Y-93420000D01*
X101577000Y-93420000D01*
X101577000Y-94373000D01*
X102692454Y-94373000D01*
X102819435Y-94206787D01*
X102748546Y-94005580D01*
X102633479Y-93826126D01*
X102609411Y-93801131D01*
X103048770Y-93801131D01*
X103099414Y-94013066D01*
X103190431Y-94211049D01*
X103318324Y-94387471D01*
X103478178Y-94535553D01*
X103663850Y-94649603D01*
X103852062Y-94719268D01*
X104023000Y-94592734D01*
X104023000Y-93627000D01*
X104277000Y-93627000D01*
X104277000Y-94592734D01*
X104447938Y-94719268D01*
X104636150Y-94649603D01*
X104821822Y-94535553D01*
X104981676Y-94387471D01*
X105109569Y-94211049D01*
X105200586Y-94013066D01*
X105251230Y-93801131D01*
X105102564Y-93627000D01*
X104277000Y-93627000D01*
X104023000Y-93627000D01*
X103197436Y-93627000D01*
X103048770Y-93801131D01*
X102609411Y-93801131D01*
X102485613Y-93672569D01*
X102310631Y-93550810D01*
X102115257Y-93465528D01*
X101907000Y-93420000D01*
X101577000Y-93420000D01*
X101323000Y-93420000D01*
X100993000Y-93420000D01*
X100784743Y-93465528D01*
X100660000Y-93519979D01*
X100660000Y-93198869D01*
X103048770Y-93198869D01*
X103197436Y-93373000D01*
X104023000Y-93373000D01*
X104023000Y-92407266D01*
X104277000Y-92407266D01*
X104277000Y-93373000D01*
X105102564Y-93373000D01*
X105251230Y-93198869D01*
X105200586Y-92986934D01*
X105109569Y-92788951D01*
X104981676Y-92612529D01*
X104821822Y-92464447D01*
X104636150Y-92350397D01*
X104447938Y-92280732D01*
X104277000Y-92407266D01*
X104023000Y-92407266D01*
X103852062Y-92280732D01*
X103663850Y-92350397D01*
X103478178Y-92464447D01*
X103318324Y-92612529D01*
X103190431Y-92788951D01*
X103099414Y-92986934D01*
X103048770Y-93198869D01*
X100660000Y-93198869D01*
X100660000Y-88801131D01*
X103048770Y-88801131D01*
X103099414Y-89013066D01*
X103190431Y-89211049D01*
X103318324Y-89387471D01*
X103478178Y-89535553D01*
X103663850Y-89649603D01*
X103852062Y-89719268D01*
X104023000Y-89592734D01*
X104023000Y-88627000D01*
X104277000Y-88627000D01*
X104277000Y-89592734D01*
X104447938Y-89719268D01*
X104636150Y-89649603D01*
X104821822Y-89535553D01*
X104981676Y-89387471D01*
X105109569Y-89211049D01*
X105200586Y-89013066D01*
X105251230Y-88801131D01*
X105102564Y-88627000D01*
X104277000Y-88627000D01*
X104023000Y-88627000D01*
X103197436Y-88627000D01*
X103048770Y-88801131D01*
X100660000Y-88801131D01*
X100660000Y-88480021D01*
X100784743Y-88534472D01*
X100993000Y-88580000D01*
X101323000Y-88580000D01*
X101323000Y-87627000D01*
X101577000Y-87627000D01*
X101577000Y-88580000D01*
X101907000Y-88580000D01*
X102115257Y-88534472D01*
X102310631Y-88449190D01*
X102485613Y-88327431D01*
X102609410Y-88198869D01*
X103048770Y-88198869D01*
X103197436Y-88373000D01*
X104023000Y-88373000D01*
X104023000Y-87407266D01*
X104277000Y-87407266D01*
X104277000Y-88373000D01*
X105102564Y-88373000D01*
X105251230Y-88198869D01*
X105200586Y-87986934D01*
X105109569Y-87788951D01*
X104981676Y-87612529D01*
X104821822Y-87464447D01*
X104636150Y-87350397D01*
X104447938Y-87280732D01*
X104277000Y-87407266D01*
X104023000Y-87407266D01*
X103852062Y-87280732D01*
X103663850Y-87350397D01*
X103478178Y-87464447D01*
X103318324Y-87612529D01*
X103190431Y-87788951D01*
X103099414Y-87986934D01*
X103048770Y-88198869D01*
X102609410Y-88198869D01*
X102633479Y-88173874D01*
X102748546Y-87994420D01*
X102819435Y-87793213D01*
X102692454Y-87627000D01*
X101577000Y-87627000D01*
X101323000Y-87627000D01*
X101303000Y-87627000D01*
X101303000Y-87373000D01*
X101323000Y-87373000D01*
X101323000Y-86420000D01*
X101577000Y-86420000D01*
X101577000Y-87373000D01*
X102692454Y-87373000D01*
X102819435Y-87206787D01*
X102748546Y-87005580D01*
X102633479Y-86826126D01*
X102485613Y-86672569D01*
X102310631Y-86550810D01*
X102115257Y-86465528D01*
X101907000Y-86420000D01*
X101577000Y-86420000D01*
X101323000Y-86420000D01*
X100993000Y-86420000D01*
X100784743Y-86465528D01*
X100660000Y-86519979D01*
X100660000Y-84410000D01*
X130809230Y-84410000D01*
X130774188Y-84525518D01*
G04 #@! TA.AperFunction,Conductor*
D17*
G36*
X130774188Y-84525518D02*
G01*
X130761928Y-84650000D01*
X130761928Y-86350000D01*
X130774188Y-86474482D01*
X130810498Y-86594180D01*
X130869463Y-86704494D01*
X130948815Y-86801185D01*
X131045506Y-86880537D01*
X131155820Y-86939502D01*
X131228380Y-86961513D01*
X131096525Y-87093368D01*
X130934010Y-87336589D01*
X130822068Y-87606842D01*
X130765000Y-87893740D01*
X130765000Y-88186260D01*
X130822068Y-88473158D01*
X130934010Y-88743411D01*
X131096525Y-88986632D01*
X131303368Y-89193475D01*
X131477760Y-89310000D01*
X131303368Y-89426525D01*
X131096525Y-89633368D01*
X130934010Y-89876589D01*
X130822068Y-90146842D01*
X130765000Y-90433740D01*
X130765000Y-90726260D01*
X130822068Y-91013158D01*
X130934010Y-91283411D01*
X131096525Y-91526632D01*
X131303368Y-91733475D01*
X131485534Y-91855195D01*
X131368645Y-91924822D01*
X131152412Y-92119731D01*
X130978359Y-92353080D01*
X130853175Y-92615901D01*
X130808524Y-92763110D01*
X130929845Y-92993000D01*
X132123000Y-92993000D01*
X132123000Y-92973000D01*
X132377000Y-92973000D01*
X132377000Y-92993000D01*
X132397000Y-92993000D01*
X132397000Y-93247000D01*
X132377000Y-93247000D01*
X132377000Y-93267000D01*
X132123000Y-93267000D01*
X132123000Y-93247000D01*
X130929845Y-93247000D01*
X130808524Y-93476890D01*
X130853175Y-93624099D01*
X130978359Y-93886920D01*
X131152412Y-94120269D01*
X131368645Y-94315178D01*
X131485534Y-94384805D01*
X131303368Y-94506525D01*
X131096525Y-94713368D01*
X130934010Y-94956589D01*
X130822068Y-95226842D01*
X130769293Y-95492159D01*
X129389000Y-94131585D01*
X129389000Y-89782468D01*
X129417205Y-89740256D01*
X129495226Y-89551898D01*
X129535000Y-89351939D01*
X129535000Y-89148061D01*
X129495226Y-88948102D01*
X129417205Y-88759744D01*
X129303937Y-88590226D01*
X129159774Y-88446063D01*
X128990256Y-88332795D01*
X128801898Y-88254774D01*
X128601939Y-88215000D01*
X128398061Y-88215000D01*
X128198102Y-88254774D01*
X128009744Y-88332795D01*
X127840226Y-88446063D01*
X127696063Y-88590226D01*
X127582795Y-88759744D01*
X127504774Y-88948102D01*
X127465000Y-89148061D01*
X127465000Y-89351939D01*
X127504774Y-89551898D01*
X127582795Y-89740256D01*
X127610287Y-89781401D01*
X127611000Y-89782735D01*
X127611001Y-94456330D01*
X127606700Y-94500000D01*
X127623864Y-94674274D01*
X127674698Y-94841852D01*
X127718754Y-94924274D01*
X127757248Y-94996291D01*
X127868342Y-95131659D01*
X127902260Y-95159495D01*
X128092772Y-95350006D01*
X128094823Y-95352469D01*
X128123657Y-95380892D01*
X128152260Y-95409494D01*
X128154735Y-95411525D01*
X130776515Y-97995852D01*
X130765000Y-98053740D01*
X130765000Y-98346260D01*
X130822068Y-98633158D01*
X130934010Y-98903411D01*
X131096525Y-99146632D01*
X131289893Y-99340000D01*
X100660000Y-99340000D01*
X100660000Y-95480021D01*
X100784743Y-95534472D01*
X100993000Y-95580000D01*
X101323000Y-95580000D01*
X101323000Y-94627000D01*
X101577000Y-94627000D01*
X101577000Y-95580000D01*
X101907000Y-95580000D01*
X102115257Y-95534472D01*
X102310631Y-95449190D01*
X102485613Y-95327431D01*
X102633479Y-95173874D01*
X102748546Y-94994420D01*
X102819435Y-94793213D01*
X102692454Y-94627000D01*
X101577000Y-94627000D01*
X101323000Y-94627000D01*
X101303000Y-94627000D01*
X101303000Y-94373000D01*
X101323000Y-94373000D01*
X101323000Y-93420000D01*
X101577000Y-93420000D01*
X101577000Y-94373000D01*
X102692454Y-94373000D01*
X102819435Y-94206787D01*
X102748546Y-94005580D01*
X102633479Y-93826126D01*
X102609411Y-93801131D01*
X103048770Y-93801131D01*
X103099414Y-94013066D01*
X103190431Y-94211049D01*
X103318324Y-94387471D01*
X103478178Y-94535553D01*
X103663850Y-94649603D01*
X103852062Y-94719268D01*
X104023000Y-94592734D01*
X104023000Y-93627000D01*
X104277000Y-93627000D01*
X104277000Y-94592734D01*
X104447938Y-94719268D01*
X104636150Y-94649603D01*
X104821822Y-94535553D01*
X104981676Y-94387471D01*
X105109569Y-94211049D01*
X105200586Y-94013066D01*
X105251230Y-93801131D01*
X105102564Y-93627000D01*
X104277000Y-93627000D01*
X104023000Y-93627000D01*
X103197436Y-93627000D01*
X103048770Y-93801131D01*
X102609411Y-93801131D01*
X102485613Y-93672569D01*
X102310631Y-93550810D01*
X102115257Y-93465528D01*
X101907000Y-93420000D01*
X101577000Y-93420000D01*
X101323000Y-93420000D01*
X100993000Y-93420000D01*
X100784743Y-93465528D01*
X100660000Y-93519979D01*
X100660000Y-93198869D01*
X103048770Y-93198869D01*
X103197436Y-93373000D01*
X104023000Y-93373000D01*
X104023000Y-92407266D01*
X104277000Y-92407266D01*
X104277000Y-93373000D01*
X105102564Y-93373000D01*
X105251230Y-93198869D01*
X105200586Y-92986934D01*
X105109569Y-92788951D01*
X104981676Y-92612529D01*
X104821822Y-92464447D01*
X104636150Y-92350397D01*
X104447938Y-92280732D01*
X104277000Y-92407266D01*
X104023000Y-92407266D01*
X103852062Y-92280732D01*
X103663850Y-92350397D01*
X103478178Y-92464447D01*
X103318324Y-92612529D01*
X103190431Y-92788951D01*
X103099414Y-92986934D01*
X103048770Y-93198869D01*
X100660000Y-93198869D01*
X100660000Y-88801131D01*
X103048770Y-88801131D01*
X103099414Y-89013066D01*
X103190431Y-89211049D01*
X103318324Y-89387471D01*
X103478178Y-89535553D01*
X103663850Y-89649603D01*
X103852062Y-89719268D01*
X104023000Y-89592734D01*
X104023000Y-88627000D01*
X104277000Y-88627000D01*
X104277000Y-89592734D01*
X104447938Y-89719268D01*
X104636150Y-89649603D01*
X104821822Y-89535553D01*
X104981676Y-89387471D01*
X105109569Y-89211049D01*
X105200586Y-89013066D01*
X105251230Y-88801131D01*
X105102564Y-88627000D01*
X104277000Y-88627000D01*
X104023000Y-88627000D01*
X103197436Y-88627000D01*
X103048770Y-88801131D01*
X100660000Y-88801131D01*
X100660000Y-88480021D01*
X100784743Y-88534472D01*
X100993000Y-88580000D01*
X101323000Y-88580000D01*
X101323000Y-87627000D01*
X101577000Y-87627000D01*
X101577000Y-88580000D01*
X101907000Y-88580000D01*
X102115257Y-88534472D01*
X102310631Y-88449190D01*
X102485613Y-88327431D01*
X102609410Y-88198869D01*
X103048770Y-88198869D01*
X103197436Y-88373000D01*
X104023000Y-88373000D01*
X104023000Y-87407266D01*
X104277000Y-87407266D01*
X104277000Y-88373000D01*
X105102564Y-88373000D01*
X105251230Y-88198869D01*
X105200586Y-87986934D01*
X105109569Y-87788951D01*
X104981676Y-87612529D01*
X104821822Y-87464447D01*
X104636150Y-87350397D01*
X104447938Y-87280732D01*
X104277000Y-87407266D01*
X104023000Y-87407266D01*
X103852062Y-87280732D01*
X103663850Y-87350397D01*
X103478178Y-87464447D01*
X103318324Y-87612529D01*
X103190431Y-87788951D01*
X103099414Y-87986934D01*
X103048770Y-88198869D01*
X102609410Y-88198869D01*
X102633479Y-88173874D01*
X102748546Y-87994420D01*
X102819435Y-87793213D01*
X102692454Y-87627000D01*
X101577000Y-87627000D01*
X101323000Y-87627000D01*
X101303000Y-87627000D01*
X101303000Y-87373000D01*
X101323000Y-87373000D01*
X101323000Y-86420000D01*
X101577000Y-86420000D01*
X101577000Y-87373000D01*
X102692454Y-87373000D01*
X102819435Y-87206787D01*
X102748546Y-87005580D01*
X102633479Y-86826126D01*
X102485613Y-86672569D01*
X102310631Y-86550810D01*
X102115257Y-86465528D01*
X101907000Y-86420000D01*
X101577000Y-86420000D01*
X101323000Y-86420000D01*
X100993000Y-86420000D01*
X100784743Y-86465528D01*
X100660000Y-86519979D01*
X100660000Y-84410000D01*
X130809230Y-84410000D01*
X130774188Y-84525518D01*
G37*
G04 #@! TD.AperFunction*
M02*
