G04 #@! TF.GenerationSoftware,KiCad,Pcbnew,(5.1.5)-3*
G04 #@! TF.CreationDate,2021-08-24T07:45:27-07:00*
G04 #@! TF.ProjectId,USB breakout,55534220-6272-4656-916b-6f75742e6b69,rev?*
G04 #@! TF.SameCoordinates,Original*
G04 #@! TF.FileFunction,Paste,Top*
G04 #@! TF.FilePolarity,Positive*
%FSLAX46Y46*%
G04 Gerber Fmt 4.6, Leading zero omitted, Abs format (unit mm)*
G04 Created by KiCad (PCBNEW (5.1.5)-3) date 2021-08-24 07:45:27*
%MOMM*%
%LPD*%
G04 APERTURE LIST*
%ADD10R,1.900000X1.500000*%
%ADD11R,1.350000X0.400000*%
%ADD12C,0.100000*%
G04 APERTURE END LIST*
D10*
X101512500Y-92000000D03*
D11*
X104212500Y-90350000D03*
X104212500Y-89700000D03*
X104212500Y-92300000D03*
X104212500Y-91650000D03*
X104212500Y-91000000D03*
D10*
X101512500Y-90000000D03*
D12*
G36*
X112899504Y-88763704D02*
G01*
X112923773Y-88767304D01*
X112947571Y-88773265D01*
X112970671Y-88781530D01*
X112992849Y-88792020D01*
X113013893Y-88804633D01*
X113033598Y-88819247D01*
X113051777Y-88835723D01*
X113068253Y-88853902D01*
X113082867Y-88873607D01*
X113095480Y-88894651D01*
X113105970Y-88916829D01*
X113114235Y-88939929D01*
X113120196Y-88963727D01*
X113123796Y-88987996D01*
X113125000Y-89012500D01*
X113125000Y-89937500D01*
X113123796Y-89962004D01*
X113120196Y-89986273D01*
X113114235Y-90010071D01*
X113105970Y-90033171D01*
X113095480Y-90055349D01*
X113082867Y-90076393D01*
X113068253Y-90096098D01*
X113051777Y-90114277D01*
X113033598Y-90130753D01*
X113013893Y-90145367D01*
X112992849Y-90157980D01*
X112970671Y-90168470D01*
X112947571Y-90176735D01*
X112923773Y-90182696D01*
X112899504Y-90186296D01*
X112875000Y-90187500D01*
X111625000Y-90187500D01*
X111600496Y-90186296D01*
X111576227Y-90182696D01*
X111552429Y-90176735D01*
X111529329Y-90168470D01*
X111507151Y-90157980D01*
X111486107Y-90145367D01*
X111466402Y-90130753D01*
X111448223Y-90114277D01*
X111431747Y-90096098D01*
X111417133Y-90076393D01*
X111404520Y-90055349D01*
X111394030Y-90033171D01*
X111385765Y-90010071D01*
X111379804Y-89986273D01*
X111376204Y-89962004D01*
X111375000Y-89937500D01*
X111375000Y-89012500D01*
X111376204Y-88987996D01*
X111379804Y-88963727D01*
X111385765Y-88939929D01*
X111394030Y-88916829D01*
X111404520Y-88894651D01*
X111417133Y-88873607D01*
X111431747Y-88853902D01*
X111448223Y-88835723D01*
X111466402Y-88819247D01*
X111486107Y-88804633D01*
X111507151Y-88792020D01*
X111529329Y-88781530D01*
X111552429Y-88773265D01*
X111576227Y-88767304D01*
X111600496Y-88763704D01*
X111625000Y-88762500D01*
X112875000Y-88762500D01*
X112899504Y-88763704D01*
G37*
G36*
X112899504Y-85788704D02*
G01*
X112923773Y-85792304D01*
X112947571Y-85798265D01*
X112970671Y-85806530D01*
X112992849Y-85817020D01*
X113013893Y-85829633D01*
X113033598Y-85844247D01*
X113051777Y-85860723D01*
X113068253Y-85878902D01*
X113082867Y-85898607D01*
X113095480Y-85919651D01*
X113105970Y-85941829D01*
X113114235Y-85964929D01*
X113120196Y-85988727D01*
X113123796Y-86012996D01*
X113125000Y-86037500D01*
X113125000Y-86962500D01*
X113123796Y-86987004D01*
X113120196Y-87011273D01*
X113114235Y-87035071D01*
X113105970Y-87058171D01*
X113095480Y-87080349D01*
X113082867Y-87101393D01*
X113068253Y-87121098D01*
X113051777Y-87139277D01*
X113033598Y-87155753D01*
X113013893Y-87170367D01*
X112992849Y-87182980D01*
X112970671Y-87193470D01*
X112947571Y-87201735D01*
X112923773Y-87207696D01*
X112899504Y-87211296D01*
X112875000Y-87212500D01*
X111625000Y-87212500D01*
X111600496Y-87211296D01*
X111576227Y-87207696D01*
X111552429Y-87201735D01*
X111529329Y-87193470D01*
X111507151Y-87182980D01*
X111486107Y-87170367D01*
X111466402Y-87155753D01*
X111448223Y-87139277D01*
X111431747Y-87121098D01*
X111417133Y-87101393D01*
X111404520Y-87080349D01*
X111394030Y-87058171D01*
X111385765Y-87035071D01*
X111379804Y-87011273D01*
X111376204Y-86987004D01*
X111375000Y-86962500D01*
X111375000Y-86037500D01*
X111376204Y-86012996D01*
X111379804Y-85988727D01*
X111385765Y-85964929D01*
X111394030Y-85941829D01*
X111404520Y-85919651D01*
X111417133Y-85898607D01*
X111431747Y-85878902D01*
X111448223Y-85860723D01*
X111466402Y-85844247D01*
X111486107Y-85829633D01*
X111507151Y-85817020D01*
X111529329Y-85806530D01*
X111552429Y-85798265D01*
X111576227Y-85792304D01*
X111600496Y-85788704D01*
X111625000Y-85787500D01*
X112875000Y-85787500D01*
X112899504Y-85788704D01*
G37*
G36*
X115899504Y-85788704D02*
G01*
X115923773Y-85792304D01*
X115947571Y-85798265D01*
X115970671Y-85806530D01*
X115992849Y-85817020D01*
X116013893Y-85829633D01*
X116033598Y-85844247D01*
X116051777Y-85860723D01*
X116068253Y-85878902D01*
X116082867Y-85898607D01*
X116095480Y-85919651D01*
X116105970Y-85941829D01*
X116114235Y-85964929D01*
X116120196Y-85988727D01*
X116123796Y-86012996D01*
X116125000Y-86037500D01*
X116125000Y-86962500D01*
X116123796Y-86987004D01*
X116120196Y-87011273D01*
X116114235Y-87035071D01*
X116105970Y-87058171D01*
X116095480Y-87080349D01*
X116082867Y-87101393D01*
X116068253Y-87121098D01*
X116051777Y-87139277D01*
X116033598Y-87155753D01*
X116013893Y-87170367D01*
X115992849Y-87182980D01*
X115970671Y-87193470D01*
X115947571Y-87201735D01*
X115923773Y-87207696D01*
X115899504Y-87211296D01*
X115875000Y-87212500D01*
X114625000Y-87212500D01*
X114600496Y-87211296D01*
X114576227Y-87207696D01*
X114552429Y-87201735D01*
X114529329Y-87193470D01*
X114507151Y-87182980D01*
X114486107Y-87170367D01*
X114466402Y-87155753D01*
X114448223Y-87139277D01*
X114431747Y-87121098D01*
X114417133Y-87101393D01*
X114404520Y-87080349D01*
X114394030Y-87058171D01*
X114385765Y-87035071D01*
X114379804Y-87011273D01*
X114376204Y-86987004D01*
X114375000Y-86962500D01*
X114375000Y-86037500D01*
X114376204Y-86012996D01*
X114379804Y-85988727D01*
X114385765Y-85964929D01*
X114394030Y-85941829D01*
X114404520Y-85919651D01*
X114417133Y-85898607D01*
X114431747Y-85878902D01*
X114448223Y-85860723D01*
X114466402Y-85844247D01*
X114486107Y-85829633D01*
X114507151Y-85817020D01*
X114529329Y-85806530D01*
X114552429Y-85798265D01*
X114576227Y-85792304D01*
X114600496Y-85788704D01*
X114625000Y-85787500D01*
X115875000Y-85787500D01*
X115899504Y-85788704D01*
G37*
G36*
X115899504Y-88763704D02*
G01*
X115923773Y-88767304D01*
X115947571Y-88773265D01*
X115970671Y-88781530D01*
X115992849Y-88792020D01*
X116013893Y-88804633D01*
X116033598Y-88819247D01*
X116051777Y-88835723D01*
X116068253Y-88853902D01*
X116082867Y-88873607D01*
X116095480Y-88894651D01*
X116105970Y-88916829D01*
X116114235Y-88939929D01*
X116120196Y-88963727D01*
X116123796Y-88987996D01*
X116125000Y-89012500D01*
X116125000Y-89937500D01*
X116123796Y-89962004D01*
X116120196Y-89986273D01*
X116114235Y-90010071D01*
X116105970Y-90033171D01*
X116095480Y-90055349D01*
X116082867Y-90076393D01*
X116068253Y-90096098D01*
X116051777Y-90114277D01*
X116033598Y-90130753D01*
X116013893Y-90145367D01*
X115992849Y-90157980D01*
X115970671Y-90168470D01*
X115947571Y-90176735D01*
X115923773Y-90182696D01*
X115899504Y-90186296D01*
X115875000Y-90187500D01*
X114625000Y-90187500D01*
X114600496Y-90186296D01*
X114576227Y-90182696D01*
X114552429Y-90176735D01*
X114529329Y-90168470D01*
X114507151Y-90157980D01*
X114486107Y-90145367D01*
X114466402Y-90130753D01*
X114448223Y-90114277D01*
X114431747Y-90096098D01*
X114417133Y-90076393D01*
X114404520Y-90055349D01*
X114394030Y-90033171D01*
X114385765Y-90010071D01*
X114379804Y-89986273D01*
X114376204Y-89962004D01*
X114375000Y-89937500D01*
X114375000Y-89012500D01*
X114376204Y-88987996D01*
X114379804Y-88963727D01*
X114385765Y-88939929D01*
X114394030Y-88916829D01*
X114404520Y-88894651D01*
X114417133Y-88873607D01*
X114431747Y-88853902D01*
X114448223Y-88835723D01*
X114466402Y-88819247D01*
X114486107Y-88804633D01*
X114507151Y-88792020D01*
X114529329Y-88781530D01*
X114552429Y-88773265D01*
X114576227Y-88767304D01*
X114600496Y-88763704D01*
X114625000Y-88762500D01*
X115875000Y-88762500D01*
X115899504Y-88763704D01*
G37*
G36*
X118899504Y-88763704D02*
G01*
X118923773Y-88767304D01*
X118947571Y-88773265D01*
X118970671Y-88781530D01*
X118992849Y-88792020D01*
X119013893Y-88804633D01*
X119033598Y-88819247D01*
X119051777Y-88835723D01*
X119068253Y-88853902D01*
X119082867Y-88873607D01*
X119095480Y-88894651D01*
X119105970Y-88916829D01*
X119114235Y-88939929D01*
X119120196Y-88963727D01*
X119123796Y-88987996D01*
X119125000Y-89012500D01*
X119125000Y-89937500D01*
X119123796Y-89962004D01*
X119120196Y-89986273D01*
X119114235Y-90010071D01*
X119105970Y-90033171D01*
X119095480Y-90055349D01*
X119082867Y-90076393D01*
X119068253Y-90096098D01*
X119051777Y-90114277D01*
X119033598Y-90130753D01*
X119013893Y-90145367D01*
X118992849Y-90157980D01*
X118970671Y-90168470D01*
X118947571Y-90176735D01*
X118923773Y-90182696D01*
X118899504Y-90186296D01*
X118875000Y-90187500D01*
X117625000Y-90187500D01*
X117600496Y-90186296D01*
X117576227Y-90182696D01*
X117552429Y-90176735D01*
X117529329Y-90168470D01*
X117507151Y-90157980D01*
X117486107Y-90145367D01*
X117466402Y-90130753D01*
X117448223Y-90114277D01*
X117431747Y-90096098D01*
X117417133Y-90076393D01*
X117404520Y-90055349D01*
X117394030Y-90033171D01*
X117385765Y-90010071D01*
X117379804Y-89986273D01*
X117376204Y-89962004D01*
X117375000Y-89937500D01*
X117375000Y-89012500D01*
X117376204Y-88987996D01*
X117379804Y-88963727D01*
X117385765Y-88939929D01*
X117394030Y-88916829D01*
X117404520Y-88894651D01*
X117417133Y-88873607D01*
X117431747Y-88853902D01*
X117448223Y-88835723D01*
X117466402Y-88819247D01*
X117486107Y-88804633D01*
X117507151Y-88792020D01*
X117529329Y-88781530D01*
X117552429Y-88773265D01*
X117576227Y-88767304D01*
X117600496Y-88763704D01*
X117625000Y-88762500D01*
X118875000Y-88762500D01*
X118899504Y-88763704D01*
G37*
G36*
X118899504Y-85788704D02*
G01*
X118923773Y-85792304D01*
X118947571Y-85798265D01*
X118970671Y-85806530D01*
X118992849Y-85817020D01*
X119013893Y-85829633D01*
X119033598Y-85844247D01*
X119051777Y-85860723D01*
X119068253Y-85878902D01*
X119082867Y-85898607D01*
X119095480Y-85919651D01*
X119105970Y-85941829D01*
X119114235Y-85964929D01*
X119120196Y-85988727D01*
X119123796Y-86012996D01*
X119125000Y-86037500D01*
X119125000Y-86962500D01*
X119123796Y-86987004D01*
X119120196Y-87011273D01*
X119114235Y-87035071D01*
X119105970Y-87058171D01*
X119095480Y-87080349D01*
X119082867Y-87101393D01*
X119068253Y-87121098D01*
X119051777Y-87139277D01*
X119033598Y-87155753D01*
X119013893Y-87170367D01*
X118992849Y-87182980D01*
X118970671Y-87193470D01*
X118947571Y-87201735D01*
X118923773Y-87207696D01*
X118899504Y-87211296D01*
X118875000Y-87212500D01*
X117625000Y-87212500D01*
X117600496Y-87211296D01*
X117576227Y-87207696D01*
X117552429Y-87201735D01*
X117529329Y-87193470D01*
X117507151Y-87182980D01*
X117486107Y-87170367D01*
X117466402Y-87155753D01*
X117448223Y-87139277D01*
X117431747Y-87121098D01*
X117417133Y-87101393D01*
X117404520Y-87080349D01*
X117394030Y-87058171D01*
X117385765Y-87035071D01*
X117379804Y-87011273D01*
X117376204Y-86987004D01*
X117375000Y-86962500D01*
X117375000Y-86037500D01*
X117376204Y-86012996D01*
X117379804Y-85988727D01*
X117385765Y-85964929D01*
X117394030Y-85941829D01*
X117404520Y-85919651D01*
X117417133Y-85898607D01*
X117431747Y-85878902D01*
X117448223Y-85860723D01*
X117466402Y-85844247D01*
X117486107Y-85829633D01*
X117507151Y-85817020D01*
X117529329Y-85806530D01*
X117552429Y-85798265D01*
X117576227Y-85792304D01*
X117600496Y-85788704D01*
X117625000Y-85787500D01*
X118875000Y-85787500D01*
X118899504Y-85788704D01*
G37*
G36*
X123499504Y-94876204D02*
G01*
X123523773Y-94879804D01*
X123547571Y-94885765D01*
X123570671Y-94894030D01*
X123592849Y-94904520D01*
X123613893Y-94917133D01*
X123633598Y-94931747D01*
X123651777Y-94948223D01*
X123668253Y-94966402D01*
X123682867Y-94986107D01*
X123695480Y-95007151D01*
X123705970Y-95029329D01*
X123714235Y-95052429D01*
X123720196Y-95076227D01*
X123723796Y-95100496D01*
X123725000Y-95125000D01*
X123725000Y-96375000D01*
X123723796Y-96399504D01*
X123720196Y-96423773D01*
X123714235Y-96447571D01*
X123705970Y-96470671D01*
X123695480Y-96492849D01*
X123682867Y-96513893D01*
X123668253Y-96533598D01*
X123651777Y-96551777D01*
X123633598Y-96568253D01*
X123613893Y-96582867D01*
X123592849Y-96595480D01*
X123570671Y-96605970D01*
X123547571Y-96614235D01*
X123523773Y-96620196D01*
X123499504Y-96623796D01*
X123475000Y-96625000D01*
X122550000Y-96625000D01*
X122525496Y-96623796D01*
X122501227Y-96620196D01*
X122477429Y-96614235D01*
X122454329Y-96605970D01*
X122432151Y-96595480D01*
X122411107Y-96582867D01*
X122391402Y-96568253D01*
X122373223Y-96551777D01*
X122356747Y-96533598D01*
X122342133Y-96513893D01*
X122329520Y-96492849D01*
X122319030Y-96470671D01*
X122310765Y-96447571D01*
X122304804Y-96423773D01*
X122301204Y-96399504D01*
X122300000Y-96375000D01*
X122300000Y-95125000D01*
X122301204Y-95100496D01*
X122304804Y-95076227D01*
X122310765Y-95052429D01*
X122319030Y-95029329D01*
X122329520Y-95007151D01*
X122342133Y-94986107D01*
X122356747Y-94966402D01*
X122373223Y-94948223D01*
X122391402Y-94931747D01*
X122411107Y-94917133D01*
X122432151Y-94904520D01*
X122454329Y-94894030D01*
X122477429Y-94885765D01*
X122501227Y-94879804D01*
X122525496Y-94876204D01*
X122550000Y-94875000D01*
X123475000Y-94875000D01*
X123499504Y-94876204D01*
G37*
G36*
X126474504Y-94876204D02*
G01*
X126498773Y-94879804D01*
X126522571Y-94885765D01*
X126545671Y-94894030D01*
X126567849Y-94904520D01*
X126588893Y-94917133D01*
X126608598Y-94931747D01*
X126626777Y-94948223D01*
X126643253Y-94966402D01*
X126657867Y-94986107D01*
X126670480Y-95007151D01*
X126680970Y-95029329D01*
X126689235Y-95052429D01*
X126695196Y-95076227D01*
X126698796Y-95100496D01*
X126700000Y-95125000D01*
X126700000Y-96375000D01*
X126698796Y-96399504D01*
X126695196Y-96423773D01*
X126689235Y-96447571D01*
X126680970Y-96470671D01*
X126670480Y-96492849D01*
X126657867Y-96513893D01*
X126643253Y-96533598D01*
X126626777Y-96551777D01*
X126608598Y-96568253D01*
X126588893Y-96582867D01*
X126567849Y-96595480D01*
X126545671Y-96605970D01*
X126522571Y-96614235D01*
X126498773Y-96620196D01*
X126474504Y-96623796D01*
X126450000Y-96625000D01*
X125525000Y-96625000D01*
X125500496Y-96623796D01*
X125476227Y-96620196D01*
X125452429Y-96614235D01*
X125429329Y-96605970D01*
X125407151Y-96595480D01*
X125386107Y-96582867D01*
X125366402Y-96568253D01*
X125348223Y-96551777D01*
X125331747Y-96533598D01*
X125317133Y-96513893D01*
X125304520Y-96492849D01*
X125294030Y-96470671D01*
X125285765Y-96447571D01*
X125279804Y-96423773D01*
X125276204Y-96399504D01*
X125275000Y-96375000D01*
X125275000Y-95125000D01*
X125276204Y-95100496D01*
X125279804Y-95076227D01*
X125285765Y-95052429D01*
X125294030Y-95029329D01*
X125304520Y-95007151D01*
X125317133Y-94986107D01*
X125331747Y-94966402D01*
X125348223Y-94948223D01*
X125366402Y-94931747D01*
X125386107Y-94917133D01*
X125407151Y-94904520D01*
X125429329Y-94894030D01*
X125452429Y-94885765D01*
X125476227Y-94879804D01*
X125500496Y-94876204D01*
X125525000Y-94875000D01*
X126450000Y-94875000D01*
X126474504Y-94876204D01*
G37*
G36*
X125149504Y-88763704D02*
G01*
X125173773Y-88767304D01*
X125197571Y-88773265D01*
X125220671Y-88781530D01*
X125242849Y-88792020D01*
X125263893Y-88804633D01*
X125283598Y-88819247D01*
X125301777Y-88835723D01*
X125318253Y-88853902D01*
X125332867Y-88873607D01*
X125345480Y-88894651D01*
X125355970Y-88916829D01*
X125364235Y-88939929D01*
X125370196Y-88963727D01*
X125373796Y-88987996D01*
X125375000Y-89012500D01*
X125375000Y-89937500D01*
X125373796Y-89962004D01*
X125370196Y-89986273D01*
X125364235Y-90010071D01*
X125355970Y-90033171D01*
X125345480Y-90055349D01*
X125332867Y-90076393D01*
X125318253Y-90096098D01*
X125301777Y-90114277D01*
X125283598Y-90130753D01*
X125263893Y-90145367D01*
X125242849Y-90157980D01*
X125220671Y-90168470D01*
X125197571Y-90176735D01*
X125173773Y-90182696D01*
X125149504Y-90186296D01*
X125125000Y-90187500D01*
X123875000Y-90187500D01*
X123850496Y-90186296D01*
X123826227Y-90182696D01*
X123802429Y-90176735D01*
X123779329Y-90168470D01*
X123757151Y-90157980D01*
X123736107Y-90145367D01*
X123716402Y-90130753D01*
X123698223Y-90114277D01*
X123681747Y-90096098D01*
X123667133Y-90076393D01*
X123654520Y-90055349D01*
X123644030Y-90033171D01*
X123635765Y-90010071D01*
X123629804Y-89986273D01*
X123626204Y-89962004D01*
X123625000Y-89937500D01*
X123625000Y-89012500D01*
X123626204Y-88987996D01*
X123629804Y-88963727D01*
X123635765Y-88939929D01*
X123644030Y-88916829D01*
X123654520Y-88894651D01*
X123667133Y-88873607D01*
X123681747Y-88853902D01*
X123698223Y-88835723D01*
X123716402Y-88819247D01*
X123736107Y-88804633D01*
X123757151Y-88792020D01*
X123779329Y-88781530D01*
X123802429Y-88773265D01*
X123826227Y-88767304D01*
X123850496Y-88763704D01*
X123875000Y-88762500D01*
X125125000Y-88762500D01*
X125149504Y-88763704D01*
G37*
G36*
X125149504Y-85788704D02*
G01*
X125173773Y-85792304D01*
X125197571Y-85798265D01*
X125220671Y-85806530D01*
X125242849Y-85817020D01*
X125263893Y-85829633D01*
X125283598Y-85844247D01*
X125301777Y-85860723D01*
X125318253Y-85878902D01*
X125332867Y-85898607D01*
X125345480Y-85919651D01*
X125355970Y-85941829D01*
X125364235Y-85964929D01*
X125370196Y-85988727D01*
X125373796Y-86012996D01*
X125375000Y-86037500D01*
X125375000Y-86962500D01*
X125373796Y-86987004D01*
X125370196Y-87011273D01*
X125364235Y-87035071D01*
X125355970Y-87058171D01*
X125345480Y-87080349D01*
X125332867Y-87101393D01*
X125318253Y-87121098D01*
X125301777Y-87139277D01*
X125283598Y-87155753D01*
X125263893Y-87170367D01*
X125242849Y-87182980D01*
X125220671Y-87193470D01*
X125197571Y-87201735D01*
X125173773Y-87207696D01*
X125149504Y-87211296D01*
X125125000Y-87212500D01*
X123875000Y-87212500D01*
X123850496Y-87211296D01*
X123826227Y-87207696D01*
X123802429Y-87201735D01*
X123779329Y-87193470D01*
X123757151Y-87182980D01*
X123736107Y-87170367D01*
X123716402Y-87155753D01*
X123698223Y-87139277D01*
X123681747Y-87121098D01*
X123667133Y-87101393D01*
X123654520Y-87080349D01*
X123644030Y-87058171D01*
X123635765Y-87035071D01*
X123629804Y-87011273D01*
X123626204Y-86987004D01*
X123625000Y-86962500D01*
X123625000Y-86037500D01*
X123626204Y-86012996D01*
X123629804Y-85988727D01*
X123635765Y-85964929D01*
X123644030Y-85941829D01*
X123654520Y-85919651D01*
X123667133Y-85898607D01*
X123681747Y-85878902D01*
X123698223Y-85860723D01*
X123716402Y-85844247D01*
X123736107Y-85829633D01*
X123757151Y-85817020D01*
X123779329Y-85806530D01*
X123802429Y-85798265D01*
X123826227Y-85792304D01*
X123850496Y-85788704D01*
X123875000Y-85787500D01*
X125125000Y-85787500D01*
X125149504Y-85788704D01*
G37*
G36*
X109899504Y-85788704D02*
G01*
X109923773Y-85792304D01*
X109947571Y-85798265D01*
X109970671Y-85806530D01*
X109992849Y-85817020D01*
X110013893Y-85829633D01*
X110033598Y-85844247D01*
X110051777Y-85860723D01*
X110068253Y-85878902D01*
X110082867Y-85898607D01*
X110095480Y-85919651D01*
X110105970Y-85941829D01*
X110114235Y-85964929D01*
X110120196Y-85988727D01*
X110123796Y-86012996D01*
X110125000Y-86037500D01*
X110125000Y-86962500D01*
X110123796Y-86987004D01*
X110120196Y-87011273D01*
X110114235Y-87035071D01*
X110105970Y-87058171D01*
X110095480Y-87080349D01*
X110082867Y-87101393D01*
X110068253Y-87121098D01*
X110051777Y-87139277D01*
X110033598Y-87155753D01*
X110013893Y-87170367D01*
X109992849Y-87182980D01*
X109970671Y-87193470D01*
X109947571Y-87201735D01*
X109923773Y-87207696D01*
X109899504Y-87211296D01*
X109875000Y-87212500D01*
X108625000Y-87212500D01*
X108600496Y-87211296D01*
X108576227Y-87207696D01*
X108552429Y-87201735D01*
X108529329Y-87193470D01*
X108507151Y-87182980D01*
X108486107Y-87170367D01*
X108466402Y-87155753D01*
X108448223Y-87139277D01*
X108431747Y-87121098D01*
X108417133Y-87101393D01*
X108404520Y-87080349D01*
X108394030Y-87058171D01*
X108385765Y-87035071D01*
X108379804Y-87011273D01*
X108376204Y-86987004D01*
X108375000Y-86962500D01*
X108375000Y-86037500D01*
X108376204Y-86012996D01*
X108379804Y-85988727D01*
X108385765Y-85964929D01*
X108394030Y-85941829D01*
X108404520Y-85919651D01*
X108417133Y-85898607D01*
X108431747Y-85878902D01*
X108448223Y-85860723D01*
X108466402Y-85844247D01*
X108486107Y-85829633D01*
X108507151Y-85817020D01*
X108529329Y-85806530D01*
X108552429Y-85798265D01*
X108576227Y-85792304D01*
X108600496Y-85788704D01*
X108625000Y-85787500D01*
X109875000Y-85787500D01*
X109899504Y-85788704D01*
G37*
G36*
X109899504Y-88763704D02*
G01*
X109923773Y-88767304D01*
X109947571Y-88773265D01*
X109970671Y-88781530D01*
X109992849Y-88792020D01*
X110013893Y-88804633D01*
X110033598Y-88819247D01*
X110051777Y-88835723D01*
X110068253Y-88853902D01*
X110082867Y-88873607D01*
X110095480Y-88894651D01*
X110105970Y-88916829D01*
X110114235Y-88939929D01*
X110120196Y-88963727D01*
X110123796Y-88987996D01*
X110125000Y-89012500D01*
X110125000Y-89937500D01*
X110123796Y-89962004D01*
X110120196Y-89986273D01*
X110114235Y-90010071D01*
X110105970Y-90033171D01*
X110095480Y-90055349D01*
X110082867Y-90076393D01*
X110068253Y-90096098D01*
X110051777Y-90114277D01*
X110033598Y-90130753D01*
X110013893Y-90145367D01*
X109992849Y-90157980D01*
X109970671Y-90168470D01*
X109947571Y-90176735D01*
X109923773Y-90182696D01*
X109899504Y-90186296D01*
X109875000Y-90187500D01*
X108625000Y-90187500D01*
X108600496Y-90186296D01*
X108576227Y-90182696D01*
X108552429Y-90176735D01*
X108529329Y-90168470D01*
X108507151Y-90157980D01*
X108486107Y-90145367D01*
X108466402Y-90130753D01*
X108448223Y-90114277D01*
X108431747Y-90096098D01*
X108417133Y-90076393D01*
X108404520Y-90055349D01*
X108394030Y-90033171D01*
X108385765Y-90010071D01*
X108379804Y-89986273D01*
X108376204Y-89962004D01*
X108375000Y-89937500D01*
X108375000Y-89012500D01*
X108376204Y-88987996D01*
X108379804Y-88963727D01*
X108385765Y-88939929D01*
X108394030Y-88916829D01*
X108404520Y-88894651D01*
X108417133Y-88873607D01*
X108431747Y-88853902D01*
X108448223Y-88835723D01*
X108466402Y-88819247D01*
X108486107Y-88804633D01*
X108507151Y-88792020D01*
X108529329Y-88781530D01*
X108552429Y-88773265D01*
X108576227Y-88767304D01*
X108600496Y-88763704D01*
X108625000Y-88762500D01*
X109875000Y-88762500D01*
X109899504Y-88763704D01*
G37*
G36*
X121899504Y-88788704D02*
G01*
X121923773Y-88792304D01*
X121947571Y-88798265D01*
X121970671Y-88806530D01*
X121992849Y-88817020D01*
X122013893Y-88829633D01*
X122033598Y-88844247D01*
X122051777Y-88860723D01*
X122068253Y-88878902D01*
X122082867Y-88898607D01*
X122095480Y-88919651D01*
X122105970Y-88941829D01*
X122114235Y-88964929D01*
X122120196Y-88988727D01*
X122123796Y-89012996D01*
X122125000Y-89037500D01*
X122125000Y-89962500D01*
X122123796Y-89987004D01*
X122120196Y-90011273D01*
X122114235Y-90035071D01*
X122105970Y-90058171D01*
X122095480Y-90080349D01*
X122082867Y-90101393D01*
X122068253Y-90121098D01*
X122051777Y-90139277D01*
X122033598Y-90155753D01*
X122013893Y-90170367D01*
X121992849Y-90182980D01*
X121970671Y-90193470D01*
X121947571Y-90201735D01*
X121923773Y-90207696D01*
X121899504Y-90211296D01*
X121875000Y-90212500D01*
X120625000Y-90212500D01*
X120600496Y-90211296D01*
X120576227Y-90207696D01*
X120552429Y-90201735D01*
X120529329Y-90193470D01*
X120507151Y-90182980D01*
X120486107Y-90170367D01*
X120466402Y-90155753D01*
X120448223Y-90139277D01*
X120431747Y-90121098D01*
X120417133Y-90101393D01*
X120404520Y-90080349D01*
X120394030Y-90058171D01*
X120385765Y-90035071D01*
X120379804Y-90011273D01*
X120376204Y-89987004D01*
X120375000Y-89962500D01*
X120375000Y-89037500D01*
X120376204Y-89012996D01*
X120379804Y-88988727D01*
X120385765Y-88964929D01*
X120394030Y-88941829D01*
X120404520Y-88919651D01*
X120417133Y-88898607D01*
X120431747Y-88878902D01*
X120448223Y-88860723D01*
X120466402Y-88844247D01*
X120486107Y-88829633D01*
X120507151Y-88817020D01*
X120529329Y-88806530D01*
X120552429Y-88798265D01*
X120576227Y-88792304D01*
X120600496Y-88788704D01*
X120625000Y-88787500D01*
X121875000Y-88787500D01*
X121899504Y-88788704D01*
G37*
G36*
X121899504Y-85813704D02*
G01*
X121923773Y-85817304D01*
X121947571Y-85823265D01*
X121970671Y-85831530D01*
X121992849Y-85842020D01*
X122013893Y-85854633D01*
X122033598Y-85869247D01*
X122051777Y-85885723D01*
X122068253Y-85903902D01*
X122082867Y-85923607D01*
X122095480Y-85944651D01*
X122105970Y-85966829D01*
X122114235Y-85989929D01*
X122120196Y-86013727D01*
X122123796Y-86037996D01*
X122125000Y-86062500D01*
X122125000Y-86987500D01*
X122123796Y-87012004D01*
X122120196Y-87036273D01*
X122114235Y-87060071D01*
X122105970Y-87083171D01*
X122095480Y-87105349D01*
X122082867Y-87126393D01*
X122068253Y-87146098D01*
X122051777Y-87164277D01*
X122033598Y-87180753D01*
X122013893Y-87195367D01*
X121992849Y-87207980D01*
X121970671Y-87218470D01*
X121947571Y-87226735D01*
X121923773Y-87232696D01*
X121899504Y-87236296D01*
X121875000Y-87237500D01*
X120625000Y-87237500D01*
X120600496Y-87236296D01*
X120576227Y-87232696D01*
X120552429Y-87226735D01*
X120529329Y-87218470D01*
X120507151Y-87207980D01*
X120486107Y-87195367D01*
X120466402Y-87180753D01*
X120448223Y-87164277D01*
X120431747Y-87146098D01*
X120417133Y-87126393D01*
X120404520Y-87105349D01*
X120394030Y-87083171D01*
X120385765Y-87060071D01*
X120379804Y-87036273D01*
X120376204Y-87012004D01*
X120375000Y-86987500D01*
X120375000Y-86062500D01*
X120376204Y-86037996D01*
X120379804Y-86013727D01*
X120385765Y-85989929D01*
X120394030Y-85966829D01*
X120404520Y-85944651D01*
X120417133Y-85923607D01*
X120431747Y-85903902D01*
X120448223Y-85885723D01*
X120466402Y-85869247D01*
X120486107Y-85854633D01*
X120507151Y-85842020D01*
X120529329Y-85831530D01*
X120552429Y-85823265D01*
X120576227Y-85817304D01*
X120600496Y-85813704D01*
X120625000Y-85812500D01*
X121875000Y-85812500D01*
X121899504Y-85813704D01*
G37*
G36*
X112499503Y-94376204D02*
G01*
X112523772Y-94379804D01*
X112547570Y-94385765D01*
X112570670Y-94394030D01*
X112592848Y-94404520D01*
X112613892Y-94417133D01*
X112633597Y-94431747D01*
X112651776Y-94448223D01*
X112668252Y-94466402D01*
X112682866Y-94486107D01*
X112695479Y-94507151D01*
X112705969Y-94529329D01*
X112714234Y-94552429D01*
X112720195Y-94576227D01*
X112723795Y-94600496D01*
X112724999Y-94625000D01*
X112724999Y-95875000D01*
X112723795Y-95899504D01*
X112720195Y-95923773D01*
X112714234Y-95947571D01*
X112705969Y-95970671D01*
X112695479Y-95992849D01*
X112682866Y-96013893D01*
X112668252Y-96033598D01*
X112651776Y-96051777D01*
X112633597Y-96068253D01*
X112613892Y-96082867D01*
X112592848Y-96095480D01*
X112570670Y-96105970D01*
X112547570Y-96114235D01*
X112523772Y-96120196D01*
X112499503Y-96123796D01*
X112474999Y-96125000D01*
X111549999Y-96125000D01*
X111525495Y-96123796D01*
X111501226Y-96120196D01*
X111477428Y-96114235D01*
X111454328Y-96105970D01*
X111432150Y-96095480D01*
X111411106Y-96082867D01*
X111391401Y-96068253D01*
X111373222Y-96051777D01*
X111356746Y-96033598D01*
X111342132Y-96013893D01*
X111329519Y-95992849D01*
X111319029Y-95970671D01*
X111310764Y-95947571D01*
X111304803Y-95923773D01*
X111301203Y-95899504D01*
X111299999Y-95875000D01*
X111299999Y-94625000D01*
X111301203Y-94600496D01*
X111304803Y-94576227D01*
X111310764Y-94552429D01*
X111319029Y-94529329D01*
X111329519Y-94507151D01*
X111342132Y-94486107D01*
X111356746Y-94466402D01*
X111373222Y-94448223D01*
X111391401Y-94431747D01*
X111411106Y-94417133D01*
X111432150Y-94404520D01*
X111454328Y-94394030D01*
X111477428Y-94385765D01*
X111501226Y-94379804D01*
X111525495Y-94376204D01*
X111549999Y-94375000D01*
X112474999Y-94375000D01*
X112499503Y-94376204D01*
G37*
G36*
X109524503Y-94376204D02*
G01*
X109548772Y-94379804D01*
X109572570Y-94385765D01*
X109595670Y-94394030D01*
X109617848Y-94404520D01*
X109638892Y-94417133D01*
X109658597Y-94431747D01*
X109676776Y-94448223D01*
X109693252Y-94466402D01*
X109707866Y-94486107D01*
X109720479Y-94507151D01*
X109730969Y-94529329D01*
X109739234Y-94552429D01*
X109745195Y-94576227D01*
X109748795Y-94600496D01*
X109749999Y-94625000D01*
X109749999Y-95875000D01*
X109748795Y-95899504D01*
X109745195Y-95923773D01*
X109739234Y-95947571D01*
X109730969Y-95970671D01*
X109720479Y-95992849D01*
X109707866Y-96013893D01*
X109693252Y-96033598D01*
X109676776Y-96051777D01*
X109658597Y-96068253D01*
X109638892Y-96082867D01*
X109617848Y-96095480D01*
X109595670Y-96105970D01*
X109572570Y-96114235D01*
X109548772Y-96120196D01*
X109524503Y-96123796D01*
X109499999Y-96125000D01*
X108574999Y-96125000D01*
X108550495Y-96123796D01*
X108526226Y-96120196D01*
X108502428Y-96114235D01*
X108479328Y-96105970D01*
X108457150Y-96095480D01*
X108436106Y-96082867D01*
X108416401Y-96068253D01*
X108398222Y-96051777D01*
X108381746Y-96033598D01*
X108367132Y-96013893D01*
X108354519Y-95992849D01*
X108344029Y-95970671D01*
X108335764Y-95947571D01*
X108329803Y-95923773D01*
X108326203Y-95899504D01*
X108324999Y-95875000D01*
X108324999Y-94625000D01*
X108326203Y-94600496D01*
X108329803Y-94576227D01*
X108335764Y-94552429D01*
X108344029Y-94529329D01*
X108354519Y-94507151D01*
X108367132Y-94486107D01*
X108381746Y-94466402D01*
X108398222Y-94448223D01*
X108416401Y-94431747D01*
X108436106Y-94417133D01*
X108457150Y-94404520D01*
X108479328Y-94394030D01*
X108502428Y-94385765D01*
X108526226Y-94379804D01*
X108550495Y-94376204D01*
X108574999Y-94375000D01*
X109499999Y-94375000D01*
X109524503Y-94376204D01*
G37*
G36*
X109524503Y-91441203D02*
G01*
X109548772Y-91444803D01*
X109572570Y-91450764D01*
X109595670Y-91459029D01*
X109617848Y-91469519D01*
X109638892Y-91482132D01*
X109658597Y-91496746D01*
X109676776Y-91513222D01*
X109693252Y-91531401D01*
X109707866Y-91551106D01*
X109720479Y-91572150D01*
X109730969Y-91594328D01*
X109739234Y-91617428D01*
X109745195Y-91641226D01*
X109748795Y-91665495D01*
X109749999Y-91689999D01*
X109749999Y-92939999D01*
X109748795Y-92964503D01*
X109745195Y-92988772D01*
X109739234Y-93012570D01*
X109730969Y-93035670D01*
X109720479Y-93057848D01*
X109707866Y-93078892D01*
X109693252Y-93098597D01*
X109676776Y-93116776D01*
X109658597Y-93133252D01*
X109638892Y-93147866D01*
X109617848Y-93160479D01*
X109595670Y-93170969D01*
X109572570Y-93179234D01*
X109548772Y-93185195D01*
X109524503Y-93188795D01*
X109499999Y-93189999D01*
X108574999Y-93189999D01*
X108550495Y-93188795D01*
X108526226Y-93185195D01*
X108502428Y-93179234D01*
X108479328Y-93170969D01*
X108457150Y-93160479D01*
X108436106Y-93147866D01*
X108416401Y-93133252D01*
X108398222Y-93116776D01*
X108381746Y-93098597D01*
X108367132Y-93078892D01*
X108354519Y-93057848D01*
X108344029Y-93035670D01*
X108335764Y-93012570D01*
X108329803Y-92988772D01*
X108326203Y-92964503D01*
X108324999Y-92939999D01*
X108324999Y-91689999D01*
X108326203Y-91665495D01*
X108329803Y-91641226D01*
X108335764Y-91617428D01*
X108344029Y-91594328D01*
X108354519Y-91572150D01*
X108367132Y-91551106D01*
X108381746Y-91531401D01*
X108398222Y-91513222D01*
X108416401Y-91496746D01*
X108436106Y-91482132D01*
X108457150Y-91469519D01*
X108479328Y-91459029D01*
X108502428Y-91450764D01*
X108526226Y-91444803D01*
X108550495Y-91441203D01*
X108574999Y-91439999D01*
X109499999Y-91439999D01*
X109524503Y-91441203D01*
G37*
G36*
X112499503Y-91441203D02*
G01*
X112523772Y-91444803D01*
X112547570Y-91450764D01*
X112570670Y-91459029D01*
X112592848Y-91469519D01*
X112613892Y-91482132D01*
X112633597Y-91496746D01*
X112651776Y-91513222D01*
X112668252Y-91531401D01*
X112682866Y-91551106D01*
X112695479Y-91572150D01*
X112705969Y-91594328D01*
X112714234Y-91617428D01*
X112720195Y-91641226D01*
X112723795Y-91665495D01*
X112724999Y-91689999D01*
X112724999Y-92939999D01*
X112723795Y-92964503D01*
X112720195Y-92988772D01*
X112714234Y-93012570D01*
X112705969Y-93035670D01*
X112695479Y-93057848D01*
X112682866Y-93078892D01*
X112668252Y-93098597D01*
X112651776Y-93116776D01*
X112633597Y-93133252D01*
X112613892Y-93147866D01*
X112592848Y-93160479D01*
X112570670Y-93170969D01*
X112547570Y-93179234D01*
X112523772Y-93185195D01*
X112499503Y-93188795D01*
X112474999Y-93189999D01*
X111549999Y-93189999D01*
X111525495Y-93188795D01*
X111501226Y-93185195D01*
X111477428Y-93179234D01*
X111454328Y-93170969D01*
X111432150Y-93160479D01*
X111411106Y-93147866D01*
X111391401Y-93133252D01*
X111373222Y-93116776D01*
X111356746Y-93098597D01*
X111342132Y-93078892D01*
X111329519Y-93057848D01*
X111319029Y-93035670D01*
X111310764Y-93012570D01*
X111304803Y-92988772D01*
X111301203Y-92964503D01*
X111299999Y-92939999D01*
X111299999Y-91689999D01*
X111301203Y-91665495D01*
X111304803Y-91641226D01*
X111310764Y-91617428D01*
X111319029Y-91594328D01*
X111329519Y-91572150D01*
X111342132Y-91551106D01*
X111356746Y-91531401D01*
X111373222Y-91513222D01*
X111391401Y-91496746D01*
X111411106Y-91482132D01*
X111432150Y-91469519D01*
X111454328Y-91459029D01*
X111477428Y-91450764D01*
X111501226Y-91444803D01*
X111525495Y-91441203D01*
X111549999Y-91439999D01*
X112474999Y-91439999D01*
X112499503Y-91441203D01*
G37*
M02*
