G04 #@! TF.GenerationSoftware,KiCad,Pcbnew,(5.1.10)-1*
G04 #@! TF.CreationDate,2021-08-25T17:02:57-07:00*
G04 #@! TF.ProjectId,USB breakout,55534220-6272-4656-916b-6f75742e6b69,rev?*
G04 #@! TF.SameCoordinates,Original*
G04 #@! TF.FileFunction,Legend,Bot*
G04 #@! TF.FilePolarity,Positive*
%FSLAX46Y46*%
G04 Gerber Fmt 4.6, Leading zero omitted, Abs format (unit mm)*
G04 Created by KiCad (PCBNEW (5.1.10)-1) date 2021-08-25 17:02:57*
%MOMM*%
%LPD*%
G01*
G04 APERTURE LIST*
%ADD10C,0.150000*%
%ADD11R,1.700000X1.700000*%
%ADD12O,1.700000X1.700000*%
%ADD13O,0.950000X1.250000*%
%ADD14O,1.550000X0.890000*%
G04 APERTURE END LIST*
D10*
X124321428Y-92053571D02*
X124214285Y-92089285D01*
X124035714Y-92089285D01*
X123964285Y-92053571D01*
X123928571Y-92017857D01*
X123892857Y-91946428D01*
X123892857Y-91875000D01*
X123928571Y-91803571D01*
X123964285Y-91767857D01*
X124035714Y-91732142D01*
X124178571Y-91696428D01*
X124250000Y-91660714D01*
X124285714Y-91625000D01*
X124321428Y-91553571D01*
X124321428Y-91482142D01*
X124285714Y-91410714D01*
X124250000Y-91375000D01*
X124178571Y-91339285D01*
X124000000Y-91339285D01*
X123892857Y-91375000D01*
X123464285Y-92089285D02*
X123535714Y-92053571D01*
X123571428Y-92017857D01*
X123607142Y-91946428D01*
X123607142Y-91732142D01*
X123571428Y-91660714D01*
X123535714Y-91625000D01*
X123464285Y-91589285D01*
X123357142Y-91589285D01*
X123285714Y-91625000D01*
X123250000Y-91660714D01*
X123214285Y-91732142D01*
X123214285Y-91946428D01*
X123250000Y-92017857D01*
X123285714Y-92053571D01*
X123357142Y-92089285D01*
X123464285Y-92089285D01*
X122785714Y-92089285D02*
X122857142Y-92053571D01*
X122892857Y-91982142D01*
X122892857Y-91339285D01*
X122178571Y-92089285D02*
X122178571Y-91339285D01*
X122178571Y-92053571D02*
X122250000Y-92089285D01*
X122392857Y-92089285D01*
X122464285Y-92053571D01*
X122500000Y-92017857D01*
X122535714Y-91946428D01*
X122535714Y-91732142D01*
X122500000Y-91660714D01*
X122464285Y-91625000D01*
X122392857Y-91589285D01*
X122250000Y-91589285D01*
X122178571Y-91625000D01*
X121535714Y-92053571D02*
X121607142Y-92089285D01*
X121750000Y-92089285D01*
X121821428Y-92053571D01*
X121857142Y-91982142D01*
X121857142Y-91696428D01*
X121821428Y-91625000D01*
X121750000Y-91589285D01*
X121607142Y-91589285D01*
X121535714Y-91625000D01*
X121500000Y-91696428D01*
X121500000Y-91767857D01*
X121857142Y-91839285D01*
X121178571Y-92089285D02*
X121178571Y-91589285D01*
X121178571Y-91732142D02*
X121142857Y-91660714D01*
X121107142Y-91625000D01*
X121035714Y-91589285D01*
X120964285Y-91589285D01*
X120142857Y-92089285D02*
X120142857Y-91339285D01*
X119821428Y-92089285D02*
X119821428Y-91696428D01*
X119857142Y-91625000D01*
X119928571Y-91589285D01*
X120035714Y-91589285D01*
X120107142Y-91625000D01*
X120142857Y-91660714D01*
X119178571Y-92053571D02*
X119250000Y-92089285D01*
X119392857Y-92089285D01*
X119464285Y-92053571D01*
X119500000Y-91982142D01*
X119500000Y-91696428D01*
X119464285Y-91625000D01*
X119392857Y-91589285D01*
X119250000Y-91589285D01*
X119178571Y-91625000D01*
X119142857Y-91696428D01*
X119142857Y-91767857D01*
X119500000Y-91839285D01*
X118500000Y-92089285D02*
X118500000Y-91696428D01*
X118535714Y-91625000D01*
X118607142Y-91589285D01*
X118750000Y-91589285D01*
X118821428Y-91625000D01*
X118500000Y-92053571D02*
X118571428Y-92089285D01*
X118750000Y-92089285D01*
X118821428Y-92053571D01*
X118857142Y-91982142D01*
X118857142Y-91910714D01*
X118821428Y-91839285D01*
X118750000Y-91803571D01*
X118571428Y-91803571D01*
X118500000Y-91767857D01*
X117821428Y-92089285D02*
X117821428Y-91339285D01*
X117821428Y-92053571D02*
X117892857Y-92089285D01*
X118035714Y-92089285D01*
X118107142Y-92053571D01*
X118142857Y-92017857D01*
X118178571Y-91946428D01*
X118178571Y-91732142D01*
X118142857Y-91660714D01*
X118107142Y-91625000D01*
X118035714Y-91589285D01*
X117892857Y-91589285D01*
X117821428Y-91625000D01*
X117178571Y-92053571D02*
X117250000Y-92089285D01*
X117392857Y-92089285D01*
X117464285Y-92053571D01*
X117500000Y-91982142D01*
X117500000Y-91696428D01*
X117464285Y-91625000D01*
X117392857Y-91589285D01*
X117250000Y-91589285D01*
X117178571Y-91625000D01*
X117142857Y-91696428D01*
X117142857Y-91767857D01*
X117500000Y-91839285D01*
X116821428Y-92089285D02*
X116821428Y-91589285D01*
X116821428Y-91732142D02*
X116785714Y-91660714D01*
X116750000Y-91625000D01*
X116678571Y-91589285D01*
X116607142Y-91589285D01*
X115892857Y-91589285D02*
X115607142Y-91589285D01*
X115785714Y-91339285D02*
X115785714Y-91982142D01*
X115750000Y-92053571D01*
X115678571Y-92089285D01*
X115607142Y-92089285D01*
X115357142Y-92089285D02*
X115357142Y-91339285D01*
X115035714Y-92089285D02*
X115035714Y-91696428D01*
X115071428Y-91625000D01*
X115142857Y-91589285D01*
X115250000Y-91589285D01*
X115321428Y-91625000D01*
X115357142Y-91660714D01*
X114678571Y-92089285D02*
X114678571Y-91589285D01*
X114678571Y-91339285D02*
X114714285Y-91375000D01*
X114678571Y-91410714D01*
X114642857Y-91375000D01*
X114678571Y-91339285D01*
X114678571Y-91410714D01*
X114357142Y-92053571D02*
X114285714Y-92089285D01*
X114142857Y-92089285D01*
X114071428Y-92053571D01*
X114035714Y-91982142D01*
X114035714Y-91946428D01*
X114071428Y-91875000D01*
X114142857Y-91839285D01*
X114250000Y-91839285D01*
X114321428Y-91803571D01*
X114357142Y-91732142D01*
X114357142Y-91696428D01*
X114321428Y-91625000D01*
X114250000Y-91589285D01*
X114142857Y-91589285D01*
X114071428Y-91625000D01*
X113178571Y-92053571D02*
X113107142Y-92089285D01*
X112964285Y-92089285D01*
X112892857Y-92053571D01*
X112857142Y-91982142D01*
X112857142Y-91946428D01*
X112892857Y-91875000D01*
X112964285Y-91839285D01*
X113071428Y-91839285D01*
X113142857Y-91803571D01*
X113178571Y-91732142D01*
X113178571Y-91696428D01*
X113142857Y-91625000D01*
X113071428Y-91589285D01*
X112964285Y-91589285D01*
X112892857Y-91625000D01*
X112535714Y-92089285D02*
X112535714Y-91589285D01*
X112535714Y-91339285D02*
X112571428Y-91375000D01*
X112535714Y-91410714D01*
X112500000Y-91375000D01*
X112535714Y-91339285D01*
X112535714Y-91410714D01*
X111857142Y-92089285D02*
X111857142Y-91339285D01*
X111857142Y-92053571D02*
X111928571Y-92089285D01*
X112071428Y-92089285D01*
X112142857Y-92053571D01*
X112178571Y-92017857D01*
X112214285Y-91946428D01*
X112214285Y-91732142D01*
X112178571Y-91660714D01*
X112142857Y-91625000D01*
X112071428Y-91589285D01*
X111928571Y-91589285D01*
X111857142Y-91625000D01*
X111214285Y-92053571D02*
X111285714Y-92089285D01*
X111428571Y-92089285D01*
X111500000Y-92053571D01*
X111535714Y-91982142D01*
X111535714Y-91696428D01*
X111500000Y-91625000D01*
X111428571Y-91589285D01*
X111285714Y-91589285D01*
X111214285Y-91625000D01*
X111178571Y-91696428D01*
X111178571Y-91767857D01*
X111535714Y-91839285D01*
X129807261Y-97702380D02*
X129473928Y-98702380D01*
X129140595Y-97702380D01*
X128473928Y-98178571D02*
X128331071Y-98226190D01*
X128283452Y-98273809D01*
X128235833Y-98369047D01*
X128235833Y-98511904D01*
X128283452Y-98607142D01*
X128331071Y-98654761D01*
X128426309Y-98702380D01*
X128807261Y-98702380D01*
X128807261Y-97702380D01*
X128473928Y-97702380D01*
X128378690Y-97750000D01*
X128331071Y-97797619D01*
X128283452Y-97892857D01*
X128283452Y-97988095D01*
X128331071Y-98083333D01*
X128378690Y-98130952D01*
X128473928Y-98178571D01*
X128807261Y-98178571D01*
X127378690Y-98035714D02*
X127378690Y-98702380D01*
X127807261Y-98035714D02*
X127807261Y-98559523D01*
X127759642Y-98654761D01*
X127664404Y-98702380D01*
X127521547Y-98702380D01*
X127426309Y-98654761D01*
X127378690Y-98607142D01*
X126950119Y-98654761D02*
X126854880Y-98702380D01*
X126664404Y-98702380D01*
X126569166Y-98654761D01*
X126521547Y-98559523D01*
X126521547Y-98511904D01*
X126569166Y-98416666D01*
X126664404Y-98369047D01*
X126807261Y-98369047D01*
X126902500Y-98321428D01*
X126950119Y-98226190D01*
X126950119Y-98178571D01*
X126902500Y-98083333D01*
X126807261Y-98035714D01*
X126664404Y-98035714D01*
X126569166Y-98083333D01*
X129914404Y-95202380D02*
X129914404Y-96011904D01*
X129866785Y-96107142D01*
X129819166Y-96154761D01*
X129723928Y-96202380D01*
X129533452Y-96202380D01*
X129438214Y-96154761D01*
X129390595Y-96107142D01*
X129342976Y-96011904D01*
X129342976Y-95202380D01*
X128295357Y-96107142D02*
X128342976Y-96154761D01*
X128485833Y-96202380D01*
X128581071Y-96202380D01*
X128723928Y-96154761D01*
X128819166Y-96059523D01*
X128866785Y-95964285D01*
X128914404Y-95773809D01*
X128914404Y-95630952D01*
X128866785Y-95440476D01*
X128819166Y-95345238D01*
X128723928Y-95250000D01*
X128581071Y-95202380D01*
X128485833Y-95202380D01*
X128342976Y-95250000D01*
X128295357Y-95297619D01*
X127438214Y-96202380D02*
X127438214Y-95678571D01*
X127485833Y-95583333D01*
X127581071Y-95535714D01*
X127771547Y-95535714D01*
X127866785Y-95583333D01*
X127438214Y-96154761D02*
X127533452Y-96202380D01*
X127771547Y-96202380D01*
X127866785Y-96154761D01*
X127914404Y-96059523D01*
X127914404Y-95964285D01*
X127866785Y-95869047D01*
X127771547Y-95821428D01*
X127533452Y-95821428D01*
X127438214Y-95773809D01*
X126962023Y-95535714D02*
X126962023Y-96535714D01*
X126962023Y-95583333D02*
X126866785Y-95535714D01*
X126676309Y-95535714D01*
X126581071Y-95583333D01*
X126533452Y-95630952D01*
X126485833Y-95726190D01*
X126485833Y-96011904D01*
X126533452Y-96107142D01*
X126581071Y-96154761D01*
X126676309Y-96202380D01*
X126866785Y-96202380D01*
X126962023Y-96154761D01*
X129914404Y-92452380D02*
X129914404Y-93261904D01*
X129866785Y-93357142D01*
X129819166Y-93404761D01*
X129723928Y-93452380D01*
X129533452Y-93452380D01*
X129438214Y-93404761D01*
X129390595Y-93357142D01*
X129342976Y-93261904D01*
X129342976Y-92452380D01*
X128342976Y-92500000D02*
X128438214Y-92452380D01*
X128581071Y-92452380D01*
X128723928Y-92500000D01*
X128819166Y-92595238D01*
X128866785Y-92690476D01*
X128914404Y-92880952D01*
X128914404Y-93023809D01*
X128866785Y-93214285D01*
X128819166Y-93309523D01*
X128723928Y-93404761D01*
X128581071Y-93452380D01*
X128485833Y-93452380D01*
X128342976Y-93404761D01*
X128295357Y-93357142D01*
X128295357Y-93023809D01*
X128485833Y-93023809D01*
X127866785Y-92785714D02*
X127866785Y-93452380D01*
X127866785Y-92880952D02*
X127819166Y-92833333D01*
X127723928Y-92785714D01*
X127581071Y-92785714D01*
X127485833Y-92833333D01*
X127438214Y-92928571D01*
X127438214Y-93452380D01*
X126533452Y-93452380D02*
X126533452Y-92452380D01*
X126533452Y-93404761D02*
X126628690Y-93452380D01*
X126819166Y-93452380D01*
X126914404Y-93404761D01*
X126962023Y-93357142D01*
X127009642Y-93261904D01*
X127009642Y-92976190D01*
X126962023Y-92880952D01*
X126914404Y-92833333D01*
X126819166Y-92785714D01*
X126628690Y-92785714D01*
X126533452Y-92833333D01*
X129914404Y-90952380D02*
X129914404Y-89952380D01*
X129676309Y-89952380D01*
X129533452Y-90000000D01*
X129438214Y-90095238D01*
X129390595Y-90190476D01*
X129342976Y-90380952D01*
X129342976Y-90523809D01*
X129390595Y-90714285D01*
X129438214Y-90809523D01*
X129533452Y-90904761D01*
X129676309Y-90952380D01*
X129914404Y-90952380D01*
X128914404Y-90571428D02*
X128152500Y-90571428D01*
X128533452Y-90952380D02*
X128533452Y-90190476D01*
X129914404Y-88452380D02*
X129914404Y-87452380D01*
X129676309Y-87452380D01*
X129533452Y-87500000D01*
X129438214Y-87595238D01*
X129390595Y-87690476D01*
X129342976Y-87880952D01*
X129342976Y-88023809D01*
X129390595Y-88214285D01*
X129438214Y-88309523D01*
X129533452Y-88404761D01*
X129676309Y-88452380D01*
X129914404Y-88452380D01*
X128914404Y-88071428D02*
X128152500Y-88071428D01*
X129914404Y-84952380D02*
X129914404Y-85761904D01*
X129866785Y-85857142D01*
X129819166Y-85904761D01*
X129723928Y-85952380D01*
X129533452Y-85952380D01*
X129438214Y-85904761D01*
X129390595Y-85857142D01*
X129342976Y-85761904D01*
X129342976Y-84952380D01*
X129009642Y-84952380D02*
X128676309Y-85952380D01*
X128342976Y-84952380D01*
X127581071Y-85904761D02*
X127676309Y-85952380D01*
X127866785Y-85952380D01*
X127962023Y-85904761D01*
X128009642Y-85857142D01*
X128057261Y-85761904D01*
X128057261Y-85476190D01*
X128009642Y-85380952D01*
X127962023Y-85333333D01*
X127866785Y-85285714D01*
X127676309Y-85285714D01*
X127581071Y-85333333D01*
X126723928Y-85904761D02*
X126819166Y-85952380D01*
X127009642Y-85952380D01*
X127104880Y-85904761D01*
X127152500Y-85857142D01*
X127200119Y-85761904D01*
X127200119Y-85476190D01*
X127152500Y-85380952D01*
X127104880Y-85333333D01*
X127009642Y-85285714D01*
X126819166Y-85285714D01*
X126723928Y-85333333D01*
%LPC*%
D11*
X132250000Y-85500000D03*
D12*
X132250000Y-88040000D03*
X132250000Y-90580000D03*
X132250000Y-93120000D03*
X132250000Y-95660000D03*
X132250000Y-98200000D03*
D13*
X104150000Y-88500000D03*
X104150000Y-93500000D03*
D14*
X101450000Y-87500000D03*
X101450000Y-94500000D03*
M02*
