G04 #@! TF.GenerationSoftware,KiCad,Pcbnew,(5.1.5)-3*
G04 #@! TF.CreationDate,2021-08-24T07:45:27-07:00*
G04 #@! TF.ProjectId,USB breakout,55534220-6272-4656-916b-6f75742e6b69,rev?*
G04 #@! TF.SameCoordinates,Original*
G04 #@! TF.FileFunction,Copper,L2,Bot*
G04 #@! TF.FilePolarity,Positive*
%FSLAX46Y46*%
G04 Gerber Fmt 4.6, Leading zero omitted, Abs format (unit mm)*
G04 Created by KiCad (PCBNEW (5.1.5)-3) date 2021-08-24 07:45:27*
%MOMM*%
%LPD*%
G04 APERTURE LIST*
%ADD10C,1.450000*%
%ADD11O,1.900000X1.200000*%
%ADD12R,1.700000X1.700000*%
%ADD13O,1.700000X1.700000*%
%ADD14C,0.800000*%
%ADD15C,0.254000*%
G04 APERTURE END LIST*
D10*
X104212500Y-88500000D03*
X104212500Y-93500000D03*
D11*
X101512500Y-87500000D03*
X101512500Y-94500000D03*
D12*
X129575001Y-85575001D03*
D13*
X129575001Y-88115001D03*
X129575001Y-90655001D03*
X129575001Y-93195001D03*
X129575001Y-95735001D03*
X129575001Y-98275001D03*
D14*
X124750000Y-90750000D03*
X113750000Y-86500000D03*
X116750000Y-86500000D03*
X119750000Y-86500000D03*
X123000000Y-97250000D03*
X105750000Y-93000000D03*
D15*
G36*
X128135499Y-84480821D02*
G01*
X128099189Y-84600519D01*
X128086929Y-84725001D01*
X128086929Y-86425001D01*
X128099189Y-86549483D01*
X128135499Y-86669181D01*
X128194464Y-86779495D01*
X128273816Y-86876186D01*
X128370507Y-86955538D01*
X128480821Y-87014503D01*
X128553381Y-87036514D01*
X128421526Y-87168369D01*
X128259011Y-87411590D01*
X128147069Y-87681843D01*
X128090001Y-87968741D01*
X128090001Y-88261261D01*
X128147069Y-88548159D01*
X128259011Y-88818412D01*
X128421526Y-89061633D01*
X128628369Y-89268476D01*
X128802761Y-89385001D01*
X128628369Y-89501526D01*
X128421526Y-89708369D01*
X128259011Y-89951590D01*
X128147069Y-90221843D01*
X128090001Y-90508741D01*
X128090001Y-90801261D01*
X128147069Y-91088159D01*
X128259011Y-91358412D01*
X128421526Y-91601633D01*
X128628369Y-91808476D01*
X128810535Y-91930196D01*
X128693646Y-91999823D01*
X128477413Y-92194732D01*
X128303360Y-92428081D01*
X128178176Y-92690902D01*
X128133525Y-92838111D01*
X128254846Y-93068001D01*
X129448001Y-93068001D01*
X129448001Y-93048001D01*
X129702001Y-93048001D01*
X129702001Y-93068001D01*
X129722001Y-93068001D01*
X129722001Y-93322001D01*
X129702001Y-93322001D01*
X129702001Y-93342001D01*
X129448001Y-93342001D01*
X129448001Y-93322001D01*
X128254846Y-93322001D01*
X128133525Y-93551891D01*
X128178176Y-93699100D01*
X128303360Y-93961921D01*
X128477413Y-94195270D01*
X128693646Y-94390179D01*
X128810535Y-94459806D01*
X128628369Y-94581526D01*
X128421526Y-94788369D01*
X128259011Y-95031590D01*
X128147069Y-95301843D01*
X128090001Y-95588741D01*
X128090001Y-95881261D01*
X128147069Y-96168159D01*
X128259011Y-96438412D01*
X128421526Y-96681633D01*
X128628369Y-96888476D01*
X128802761Y-97005001D01*
X128628369Y-97121526D01*
X128421526Y-97328369D01*
X128259011Y-97571590D01*
X128147069Y-97841843D01*
X128090001Y-98128741D01*
X128090001Y-98421261D01*
X128147069Y-98708159D01*
X128259011Y-98978412D01*
X128421526Y-99221633D01*
X128539893Y-99340000D01*
X100660000Y-99340000D01*
X100660000Y-95629053D01*
X100797004Y-95686493D01*
X101035500Y-95735000D01*
X101385500Y-95735000D01*
X101385500Y-94627000D01*
X101639500Y-94627000D01*
X101639500Y-95735000D01*
X101989500Y-95735000D01*
X102227996Y-95686493D01*
X102452446Y-95592390D01*
X102654225Y-95456307D01*
X102825578Y-95283474D01*
X102959921Y-95080533D01*
X103052091Y-94855282D01*
X103055962Y-94817609D01*
X102931231Y-94627000D01*
X101639500Y-94627000D01*
X101385500Y-94627000D01*
X101365500Y-94627000D01*
X101365500Y-94439133D01*
X103452972Y-94439133D01*
X103515465Y-94675450D01*
X103758178Y-94788850D01*
X104018349Y-94852719D01*
X104285982Y-94864604D01*
X104550791Y-94824048D01*
X104802600Y-94732609D01*
X104909535Y-94675450D01*
X104972028Y-94439133D01*
X104212500Y-93679605D01*
X103452972Y-94439133D01*
X101365500Y-94439133D01*
X101365500Y-94373000D01*
X101385500Y-94373000D01*
X101385500Y-93265000D01*
X101639500Y-93265000D01*
X101639500Y-94373000D01*
X102931231Y-94373000D01*
X103045003Y-94199138D01*
X103273367Y-94259528D01*
X104032895Y-93500000D01*
X104392105Y-93500000D01*
X105151633Y-94259528D01*
X105387950Y-94197035D01*
X105501350Y-93954322D01*
X105565219Y-93694151D01*
X105577104Y-93426518D01*
X105536548Y-93161709D01*
X105445109Y-92909900D01*
X105387950Y-92802965D01*
X105151633Y-92740472D01*
X104392105Y-93500000D01*
X104032895Y-93500000D01*
X103273367Y-92740472D01*
X103037050Y-92802965D01*
X102923650Y-93045678D01*
X102859781Y-93305849D01*
X102847896Y-93573482D01*
X102883115Y-93803442D01*
X102825578Y-93716526D01*
X102654225Y-93543693D01*
X102452446Y-93407610D01*
X102227996Y-93313507D01*
X101989500Y-93265000D01*
X101639500Y-93265000D01*
X101385500Y-93265000D01*
X101035500Y-93265000D01*
X100797004Y-93313507D01*
X100660000Y-93370947D01*
X100660000Y-92560867D01*
X103452972Y-92560867D01*
X104212500Y-93320395D01*
X104972028Y-92560867D01*
X104909535Y-92324550D01*
X104666822Y-92211150D01*
X104406651Y-92147281D01*
X104139018Y-92135396D01*
X103874209Y-92175952D01*
X103622400Y-92267391D01*
X103515465Y-92324550D01*
X103452972Y-92560867D01*
X100660000Y-92560867D01*
X100660000Y-89439133D01*
X103452972Y-89439133D01*
X103515465Y-89675450D01*
X103758178Y-89788850D01*
X104018349Y-89852719D01*
X104285982Y-89864604D01*
X104550791Y-89824048D01*
X104802600Y-89732609D01*
X104909535Y-89675450D01*
X104972028Y-89439133D01*
X104212500Y-88679605D01*
X103452972Y-89439133D01*
X100660000Y-89439133D01*
X100660000Y-88629053D01*
X100797004Y-88686493D01*
X101035500Y-88735000D01*
X101385500Y-88735000D01*
X101385500Y-87627000D01*
X101639500Y-87627000D01*
X101639500Y-88735000D01*
X101989500Y-88735000D01*
X102227996Y-88686493D01*
X102452446Y-88592390D01*
X102654225Y-88456307D01*
X102825578Y-88283474D01*
X102888671Y-88188164D01*
X102859781Y-88305849D01*
X102847896Y-88573482D01*
X102888452Y-88838291D01*
X102979891Y-89090100D01*
X103037050Y-89197035D01*
X103273367Y-89259528D01*
X104032895Y-88500000D01*
X104392105Y-88500000D01*
X105151633Y-89259528D01*
X105387950Y-89197035D01*
X105501350Y-88954322D01*
X105565219Y-88694151D01*
X105577104Y-88426518D01*
X105536548Y-88161709D01*
X105445109Y-87909900D01*
X105387950Y-87802965D01*
X105151633Y-87740472D01*
X104392105Y-88500000D01*
X104032895Y-88500000D01*
X103273367Y-87740472D01*
X103045003Y-87800862D01*
X102931231Y-87627000D01*
X101639500Y-87627000D01*
X101385500Y-87627000D01*
X101365500Y-87627000D01*
X101365500Y-87560867D01*
X103452972Y-87560867D01*
X104212500Y-88320395D01*
X104972028Y-87560867D01*
X104909535Y-87324550D01*
X104666822Y-87211150D01*
X104406651Y-87147281D01*
X104139018Y-87135396D01*
X103874209Y-87175952D01*
X103622400Y-87267391D01*
X103515465Y-87324550D01*
X103452972Y-87560867D01*
X101365500Y-87560867D01*
X101365500Y-87373000D01*
X101385500Y-87373000D01*
X101385500Y-86265000D01*
X101639500Y-86265000D01*
X101639500Y-87373000D01*
X102931231Y-87373000D01*
X103055962Y-87182391D01*
X103052091Y-87144718D01*
X102959921Y-86919467D01*
X102825578Y-86716526D01*
X102654225Y-86543693D01*
X102452446Y-86407610D01*
X102227996Y-86313507D01*
X101989500Y-86265000D01*
X101639500Y-86265000D01*
X101385500Y-86265000D01*
X101035500Y-86265000D01*
X100797004Y-86313507D01*
X100660000Y-86370947D01*
X100660000Y-84410000D01*
X128173354Y-84410000D01*
X128135499Y-84480821D01*
G37*
X128135499Y-84480821D02*
X128099189Y-84600519D01*
X128086929Y-84725001D01*
X128086929Y-86425001D01*
X128099189Y-86549483D01*
X128135499Y-86669181D01*
X128194464Y-86779495D01*
X128273816Y-86876186D01*
X128370507Y-86955538D01*
X128480821Y-87014503D01*
X128553381Y-87036514D01*
X128421526Y-87168369D01*
X128259011Y-87411590D01*
X128147069Y-87681843D01*
X128090001Y-87968741D01*
X128090001Y-88261261D01*
X128147069Y-88548159D01*
X128259011Y-88818412D01*
X128421526Y-89061633D01*
X128628369Y-89268476D01*
X128802761Y-89385001D01*
X128628369Y-89501526D01*
X128421526Y-89708369D01*
X128259011Y-89951590D01*
X128147069Y-90221843D01*
X128090001Y-90508741D01*
X128090001Y-90801261D01*
X128147069Y-91088159D01*
X128259011Y-91358412D01*
X128421526Y-91601633D01*
X128628369Y-91808476D01*
X128810535Y-91930196D01*
X128693646Y-91999823D01*
X128477413Y-92194732D01*
X128303360Y-92428081D01*
X128178176Y-92690902D01*
X128133525Y-92838111D01*
X128254846Y-93068001D01*
X129448001Y-93068001D01*
X129448001Y-93048001D01*
X129702001Y-93048001D01*
X129702001Y-93068001D01*
X129722001Y-93068001D01*
X129722001Y-93322001D01*
X129702001Y-93322001D01*
X129702001Y-93342001D01*
X129448001Y-93342001D01*
X129448001Y-93322001D01*
X128254846Y-93322001D01*
X128133525Y-93551891D01*
X128178176Y-93699100D01*
X128303360Y-93961921D01*
X128477413Y-94195270D01*
X128693646Y-94390179D01*
X128810535Y-94459806D01*
X128628369Y-94581526D01*
X128421526Y-94788369D01*
X128259011Y-95031590D01*
X128147069Y-95301843D01*
X128090001Y-95588741D01*
X128090001Y-95881261D01*
X128147069Y-96168159D01*
X128259011Y-96438412D01*
X128421526Y-96681633D01*
X128628369Y-96888476D01*
X128802761Y-97005001D01*
X128628369Y-97121526D01*
X128421526Y-97328369D01*
X128259011Y-97571590D01*
X128147069Y-97841843D01*
X128090001Y-98128741D01*
X128090001Y-98421261D01*
X128147069Y-98708159D01*
X128259011Y-98978412D01*
X128421526Y-99221633D01*
X128539893Y-99340000D01*
X100660000Y-99340000D01*
X100660000Y-95629053D01*
X100797004Y-95686493D01*
X101035500Y-95735000D01*
X101385500Y-95735000D01*
X101385500Y-94627000D01*
X101639500Y-94627000D01*
X101639500Y-95735000D01*
X101989500Y-95735000D01*
X102227996Y-95686493D01*
X102452446Y-95592390D01*
X102654225Y-95456307D01*
X102825578Y-95283474D01*
X102959921Y-95080533D01*
X103052091Y-94855282D01*
X103055962Y-94817609D01*
X102931231Y-94627000D01*
X101639500Y-94627000D01*
X101385500Y-94627000D01*
X101365500Y-94627000D01*
X101365500Y-94439133D01*
X103452972Y-94439133D01*
X103515465Y-94675450D01*
X103758178Y-94788850D01*
X104018349Y-94852719D01*
X104285982Y-94864604D01*
X104550791Y-94824048D01*
X104802600Y-94732609D01*
X104909535Y-94675450D01*
X104972028Y-94439133D01*
X104212500Y-93679605D01*
X103452972Y-94439133D01*
X101365500Y-94439133D01*
X101365500Y-94373000D01*
X101385500Y-94373000D01*
X101385500Y-93265000D01*
X101639500Y-93265000D01*
X101639500Y-94373000D01*
X102931231Y-94373000D01*
X103045003Y-94199138D01*
X103273367Y-94259528D01*
X104032895Y-93500000D01*
X104392105Y-93500000D01*
X105151633Y-94259528D01*
X105387950Y-94197035D01*
X105501350Y-93954322D01*
X105565219Y-93694151D01*
X105577104Y-93426518D01*
X105536548Y-93161709D01*
X105445109Y-92909900D01*
X105387950Y-92802965D01*
X105151633Y-92740472D01*
X104392105Y-93500000D01*
X104032895Y-93500000D01*
X103273367Y-92740472D01*
X103037050Y-92802965D01*
X102923650Y-93045678D01*
X102859781Y-93305849D01*
X102847896Y-93573482D01*
X102883115Y-93803442D01*
X102825578Y-93716526D01*
X102654225Y-93543693D01*
X102452446Y-93407610D01*
X102227996Y-93313507D01*
X101989500Y-93265000D01*
X101639500Y-93265000D01*
X101385500Y-93265000D01*
X101035500Y-93265000D01*
X100797004Y-93313507D01*
X100660000Y-93370947D01*
X100660000Y-92560867D01*
X103452972Y-92560867D01*
X104212500Y-93320395D01*
X104972028Y-92560867D01*
X104909535Y-92324550D01*
X104666822Y-92211150D01*
X104406651Y-92147281D01*
X104139018Y-92135396D01*
X103874209Y-92175952D01*
X103622400Y-92267391D01*
X103515465Y-92324550D01*
X103452972Y-92560867D01*
X100660000Y-92560867D01*
X100660000Y-89439133D01*
X103452972Y-89439133D01*
X103515465Y-89675450D01*
X103758178Y-89788850D01*
X104018349Y-89852719D01*
X104285982Y-89864604D01*
X104550791Y-89824048D01*
X104802600Y-89732609D01*
X104909535Y-89675450D01*
X104972028Y-89439133D01*
X104212500Y-88679605D01*
X103452972Y-89439133D01*
X100660000Y-89439133D01*
X100660000Y-88629053D01*
X100797004Y-88686493D01*
X101035500Y-88735000D01*
X101385500Y-88735000D01*
X101385500Y-87627000D01*
X101639500Y-87627000D01*
X101639500Y-88735000D01*
X101989500Y-88735000D01*
X102227996Y-88686493D01*
X102452446Y-88592390D01*
X102654225Y-88456307D01*
X102825578Y-88283474D01*
X102888671Y-88188164D01*
X102859781Y-88305849D01*
X102847896Y-88573482D01*
X102888452Y-88838291D01*
X102979891Y-89090100D01*
X103037050Y-89197035D01*
X103273367Y-89259528D01*
X104032895Y-88500000D01*
X104392105Y-88500000D01*
X105151633Y-89259528D01*
X105387950Y-89197035D01*
X105501350Y-88954322D01*
X105565219Y-88694151D01*
X105577104Y-88426518D01*
X105536548Y-88161709D01*
X105445109Y-87909900D01*
X105387950Y-87802965D01*
X105151633Y-87740472D01*
X104392105Y-88500000D01*
X104032895Y-88500000D01*
X103273367Y-87740472D01*
X103045003Y-87800862D01*
X102931231Y-87627000D01*
X101639500Y-87627000D01*
X101385500Y-87627000D01*
X101365500Y-87627000D01*
X101365500Y-87560867D01*
X103452972Y-87560867D01*
X104212500Y-88320395D01*
X104972028Y-87560867D01*
X104909535Y-87324550D01*
X104666822Y-87211150D01*
X104406651Y-87147281D01*
X104139018Y-87135396D01*
X103874209Y-87175952D01*
X103622400Y-87267391D01*
X103515465Y-87324550D01*
X103452972Y-87560867D01*
X101365500Y-87560867D01*
X101365500Y-87373000D01*
X101385500Y-87373000D01*
X101385500Y-86265000D01*
X101639500Y-86265000D01*
X101639500Y-87373000D01*
X102931231Y-87373000D01*
X103055962Y-87182391D01*
X103052091Y-87144718D01*
X102959921Y-86919467D01*
X102825578Y-86716526D01*
X102654225Y-86543693D01*
X102452446Y-86407610D01*
X102227996Y-86313507D01*
X101989500Y-86265000D01*
X101639500Y-86265000D01*
X101385500Y-86265000D01*
X101035500Y-86265000D01*
X100797004Y-86313507D01*
X100660000Y-86370947D01*
X100660000Y-84410000D01*
X128173354Y-84410000D01*
X128135499Y-84480821D01*
M02*
