G04 #@! TF.GenerationSoftware,KiCad,Pcbnew,(5.1.10)-1*
G04 #@! TF.CreationDate,2021-08-25T20:16:02-07:00*
G04 #@! TF.ProjectId,USB breakout,55534220-6272-4656-916b-6f75742e6b69,rev?*
G04 #@! TF.SameCoordinates,Original*
G04 #@! TF.FileFunction,Paste,Top*
G04 #@! TF.FilePolarity,Positive*
%FSLAX46Y46*%
G04 Gerber Fmt 4.6, Leading zero omitted, Abs format (unit mm)*
G04 Created by KiCad (PCBNEW (5.1.10)-1) date 2021-08-25 20:16:02*
%MOMM*%
%LPD*%
G01*
G04 APERTURE LIST*
%ADD10R,1.350000X0.400000*%
%ADD11O,1.550000X0.890000*%
%ADD12R,1.550000X1.500000*%
%ADD13R,1.550000X1.200000*%
%ADD14O,0.950000X1.250000*%
G04 APERTURE END LIST*
G36*
G01*
X124325000Y-90187500D02*
X123075000Y-90187500D01*
G75*
G02*
X122825000Y-89937500I0J250000D01*
G01*
X122825000Y-89012500D01*
G75*
G02*
X123075000Y-88762500I250000J0D01*
G01*
X124325000Y-88762500D01*
G75*
G02*
X124575000Y-89012500I0J-250000D01*
G01*
X124575000Y-89937500D01*
G75*
G02*
X124325000Y-90187500I-250000J0D01*
G01*
G37*
G36*
G01*
X124325000Y-87212500D02*
X123075000Y-87212500D01*
G75*
G02*
X122825000Y-86962500I0J250000D01*
G01*
X122825000Y-86037500D01*
G75*
G02*
X123075000Y-85787500I250000J0D01*
G01*
X124325000Y-85787500D01*
G75*
G02*
X124575000Y-86037500I0J-250000D01*
G01*
X124575000Y-86962500D01*
G75*
G02*
X124325000Y-87212500I-250000J0D01*
G01*
G37*
D10*
X104150000Y-89700000D03*
X104150000Y-90350000D03*
X104150000Y-91000000D03*
X104150000Y-91650000D03*
X104150000Y-92300000D03*
D11*
X101450000Y-87500000D03*
D12*
X101450000Y-90000000D03*
X101450000Y-92000000D03*
D11*
X101450000Y-94500000D03*
D13*
X101450000Y-88100000D03*
X101450000Y-93900000D03*
D14*
X104150000Y-88500000D03*
X104150000Y-93500000D03*
G36*
G01*
X110449998Y-88887500D02*
X111750002Y-88887500D01*
G75*
G02*
X112000000Y-89137498I0J-249998D01*
G01*
X112000000Y-89962502D01*
G75*
G02*
X111750002Y-90212500I-249998J0D01*
G01*
X110449998Y-90212500D01*
G75*
G02*
X110200000Y-89962502I0J249998D01*
G01*
X110200000Y-89137498D01*
G75*
G02*
X110449998Y-88887500I249998J0D01*
G01*
G37*
G36*
G01*
X110449998Y-85762500D02*
X111750002Y-85762500D01*
G75*
G02*
X112000000Y-86012498I0J-249998D01*
G01*
X112000000Y-86837502D01*
G75*
G02*
X111750002Y-87087500I-249998J0D01*
G01*
X110449998Y-87087500D01*
G75*
G02*
X110200000Y-86837502I0J249998D01*
G01*
X110200000Y-86012498D01*
G75*
G02*
X110449998Y-85762500I249998J0D01*
G01*
G37*
G36*
G01*
X114950002Y-87087500D02*
X113649998Y-87087500D01*
G75*
G02*
X113400000Y-86837502I0J249998D01*
G01*
X113400000Y-86012498D01*
G75*
G02*
X113649998Y-85762500I249998J0D01*
G01*
X114950002Y-85762500D01*
G75*
G02*
X115200000Y-86012498I0J-249998D01*
G01*
X115200000Y-86837502D01*
G75*
G02*
X114950002Y-87087500I-249998J0D01*
G01*
G37*
G36*
G01*
X114950002Y-90212500D02*
X113649998Y-90212500D01*
G75*
G02*
X113400000Y-89962502I0J249998D01*
G01*
X113400000Y-89137498D01*
G75*
G02*
X113649998Y-88887500I249998J0D01*
G01*
X114950002Y-88887500D01*
G75*
G02*
X115200000Y-89137498I0J-249998D01*
G01*
X115200000Y-89962502D01*
G75*
G02*
X114950002Y-90212500I-249998J0D01*
G01*
G37*
G36*
G01*
X118150002Y-90212500D02*
X116849998Y-90212500D01*
G75*
G02*
X116600000Y-89962502I0J249998D01*
G01*
X116600000Y-89137498D01*
G75*
G02*
X116849998Y-88887500I249998J0D01*
G01*
X118150002Y-88887500D01*
G75*
G02*
X118400000Y-89137498I0J-249998D01*
G01*
X118400000Y-89962502D01*
G75*
G02*
X118150002Y-90212500I-249998J0D01*
G01*
G37*
G36*
G01*
X118150002Y-87087500D02*
X116849998Y-87087500D01*
G75*
G02*
X116600000Y-86837502I0J249998D01*
G01*
X116600000Y-86012498D01*
G75*
G02*
X116849998Y-85762500I249998J0D01*
G01*
X118150002Y-85762500D01*
G75*
G02*
X118400000Y-86012498I0J-249998D01*
G01*
X118400000Y-86837502D01*
G75*
G02*
X118150002Y-87087500I-249998J0D01*
G01*
G37*
G36*
G01*
X125150002Y-99225000D02*
X123849998Y-99225000D01*
G75*
G02*
X123600000Y-98975002I0J249998D01*
G01*
X123600000Y-98149998D01*
G75*
G02*
X123849998Y-97900000I249998J0D01*
G01*
X125150002Y-97900000D01*
G75*
G02*
X125400000Y-98149998I0J-249998D01*
G01*
X125400000Y-98975002D01*
G75*
G02*
X125150002Y-99225000I-249998J0D01*
G01*
G37*
G36*
G01*
X125150002Y-96100000D02*
X123849998Y-96100000D01*
G75*
G02*
X123600000Y-95850002I0J249998D01*
G01*
X123600000Y-95024998D01*
G75*
G02*
X123849998Y-94775000I249998J0D01*
G01*
X125150002Y-94775000D01*
G75*
G02*
X125400000Y-95024998I0J-249998D01*
G01*
X125400000Y-95850002D01*
G75*
G02*
X125150002Y-96100000I-249998J0D01*
G01*
G37*
G36*
G01*
X112724999Y-94624999D02*
X112724999Y-95875001D01*
G75*
G02*
X112475000Y-96125000I-249999J0D01*
G01*
X111674998Y-96125000D01*
G75*
G02*
X111424999Y-95875001I0J249999D01*
G01*
X111424999Y-94624999D01*
G75*
G02*
X111674998Y-94375000I249999J0D01*
G01*
X112475000Y-94375000D01*
G75*
G02*
X112724999Y-94624999I0J-249999D01*
G01*
G37*
G36*
G01*
X109624999Y-94624999D02*
X109624999Y-95875001D01*
G75*
G02*
X109375000Y-96125000I-249999J0D01*
G01*
X108574998Y-96125000D01*
G75*
G02*
X108324999Y-95875001I0J249999D01*
G01*
X108324999Y-94624999D01*
G75*
G02*
X108574998Y-94375000I249999J0D01*
G01*
X109375000Y-94375000D01*
G75*
G02*
X109624999Y-94624999I0J-249999D01*
G01*
G37*
G36*
G01*
X109624999Y-91689998D02*
X109624999Y-92940000D01*
G75*
G02*
X109375000Y-93189999I-249999J0D01*
G01*
X108574998Y-93189999D01*
G75*
G02*
X108324999Y-92940000I0J249999D01*
G01*
X108324999Y-91689998D01*
G75*
G02*
X108574998Y-91439999I249999J0D01*
G01*
X109375000Y-91439999D01*
G75*
G02*
X109624999Y-91689998I0J-249999D01*
G01*
G37*
G36*
G01*
X112724999Y-91689998D02*
X112724999Y-92940000D01*
G75*
G02*
X112475000Y-93189999I-249999J0D01*
G01*
X111674998Y-93189999D01*
G75*
G02*
X111424999Y-92940000I0J249999D01*
G01*
X111424999Y-91689998D01*
G75*
G02*
X111674998Y-91439999I249999J0D01*
G01*
X112475000Y-91439999D01*
G75*
G02*
X112724999Y-91689998I0J-249999D01*
G01*
G37*
G36*
G01*
X121325001Y-90200000D02*
X120074999Y-90200000D01*
G75*
G02*
X119825000Y-89950001I0J249999D01*
G01*
X119825000Y-89149999D01*
G75*
G02*
X120074999Y-88900000I249999J0D01*
G01*
X121325001Y-88900000D01*
G75*
G02*
X121575000Y-89149999I0J-249999D01*
G01*
X121575000Y-89950001D01*
G75*
G02*
X121325001Y-90200000I-249999J0D01*
G01*
G37*
G36*
G01*
X121325001Y-87100000D02*
X120074999Y-87100000D01*
G75*
G02*
X119825000Y-86850001I0J249999D01*
G01*
X119825000Y-86049999D01*
G75*
G02*
X120074999Y-85800000I249999J0D01*
G01*
X121325001Y-85800000D01*
G75*
G02*
X121575000Y-86049999I0J-249999D01*
G01*
X121575000Y-86850001D01*
G75*
G02*
X121325001Y-87100000I-249999J0D01*
G01*
G37*
G36*
G01*
X108625001Y-90187500D02*
X107374999Y-90187500D01*
G75*
G02*
X107125000Y-89937501I0J249999D01*
G01*
X107125000Y-89137499D01*
G75*
G02*
X107374999Y-88887500I249999J0D01*
G01*
X108625001Y-88887500D01*
G75*
G02*
X108875000Y-89137499I0J-249999D01*
G01*
X108875000Y-89937501D01*
G75*
G02*
X108625001Y-90187500I-249999J0D01*
G01*
G37*
G36*
G01*
X108625001Y-87087500D02*
X107374999Y-87087500D01*
G75*
G02*
X107125000Y-86837501I0J249999D01*
G01*
X107125000Y-86037499D01*
G75*
G02*
X107374999Y-85787500I249999J0D01*
G01*
X108625001Y-85787500D01*
G75*
G02*
X108875000Y-86037499I0J-249999D01*
G01*
X108875000Y-86837501D01*
G75*
G02*
X108625001Y-87087500I-249999J0D01*
G01*
G37*
M02*
