G04 #@! TF.GenerationSoftware,KiCad,Pcbnew,(5.1.5)-3*
G04 #@! TF.CreationDate,2021-08-24T07:45:27-07:00*
G04 #@! TF.ProjectId,USB breakout,55534220-6272-4656-916b-6f75742e6b69,rev?*
G04 #@! TF.SameCoordinates,Original*
G04 #@! TF.FileFunction,Soldermask,Top*
G04 #@! TF.FilePolarity,Negative*
%FSLAX46Y46*%
G04 Gerber Fmt 4.6, Leading zero omitted, Abs format (unit mm)*
G04 Created by KiCad (PCBNEW (5.1.5)-3) date 2021-08-24 07:45:27*
%MOMM*%
%LPD*%
G04 APERTURE LIST*
%ADD10C,0.100000*%
G04 APERTURE END LIST*
D10*
G36*
X129688513Y-97378928D02*
G01*
X129837813Y-97408625D01*
X130001785Y-97476545D01*
X130149355Y-97575148D01*
X130274854Y-97700647D01*
X130373457Y-97848217D01*
X130441377Y-98012189D01*
X130476001Y-98186260D01*
X130476001Y-98363742D01*
X130441377Y-98537813D01*
X130373457Y-98701785D01*
X130274854Y-98849355D01*
X130149355Y-98974854D01*
X130001785Y-99073457D01*
X129837813Y-99141377D01*
X129688513Y-99171074D01*
X129663743Y-99176001D01*
X129486259Y-99176001D01*
X129461489Y-99171074D01*
X129312189Y-99141377D01*
X129148217Y-99073457D01*
X129000647Y-98974854D01*
X128875148Y-98849355D01*
X128776545Y-98701785D01*
X128708625Y-98537813D01*
X128674001Y-98363742D01*
X128674001Y-98186260D01*
X128708625Y-98012189D01*
X128776545Y-97848217D01*
X128875148Y-97700647D01*
X129000647Y-97575148D01*
X129148217Y-97476545D01*
X129312189Y-97408625D01*
X129461489Y-97378928D01*
X129486259Y-97374001D01*
X129663743Y-97374001D01*
X129688513Y-97378928D01*
G37*
G36*
X126600562Y-94828181D02*
G01*
X126635481Y-94838774D01*
X126667663Y-94855976D01*
X126695873Y-94879127D01*
X126719024Y-94907337D01*
X126736226Y-94939519D01*
X126746819Y-94974438D01*
X126751000Y-95016895D01*
X126751000Y-96483105D01*
X126746819Y-96525562D01*
X126736226Y-96560481D01*
X126719024Y-96592663D01*
X126695873Y-96620873D01*
X126667663Y-96644024D01*
X126635481Y-96661226D01*
X126600562Y-96671819D01*
X126558105Y-96676000D01*
X125416895Y-96676000D01*
X125374438Y-96671819D01*
X125339519Y-96661226D01*
X125307337Y-96644024D01*
X125279127Y-96620873D01*
X125255976Y-96592663D01*
X125238774Y-96560481D01*
X125228181Y-96525562D01*
X125224000Y-96483105D01*
X125224000Y-95016895D01*
X125228181Y-94974438D01*
X125238774Y-94939519D01*
X125255976Y-94907337D01*
X125279127Y-94879127D01*
X125307337Y-94855976D01*
X125339519Y-94838774D01*
X125374438Y-94828181D01*
X125416895Y-94824000D01*
X126558105Y-94824000D01*
X126600562Y-94828181D01*
G37*
G36*
X123625562Y-94828181D02*
G01*
X123660481Y-94838774D01*
X123692663Y-94855976D01*
X123720873Y-94879127D01*
X123744024Y-94907337D01*
X123761226Y-94939519D01*
X123771819Y-94974438D01*
X123776000Y-95016895D01*
X123776000Y-96483105D01*
X123771819Y-96525562D01*
X123761226Y-96560481D01*
X123744024Y-96592663D01*
X123720873Y-96620873D01*
X123692663Y-96644024D01*
X123660481Y-96661226D01*
X123625562Y-96671819D01*
X123583105Y-96676000D01*
X122441895Y-96676000D01*
X122399438Y-96671819D01*
X122364519Y-96661226D01*
X122332337Y-96644024D01*
X122304127Y-96620873D01*
X122280976Y-96592663D01*
X122263774Y-96560481D01*
X122253181Y-96525562D01*
X122249000Y-96483105D01*
X122249000Y-95016895D01*
X122253181Y-94974438D01*
X122263774Y-94939519D01*
X122280976Y-94907337D01*
X122304127Y-94879127D01*
X122332337Y-94855976D01*
X122364519Y-94838774D01*
X122399438Y-94828181D01*
X122441895Y-94824000D01*
X123583105Y-94824000D01*
X123625562Y-94828181D01*
G37*
G36*
X129687738Y-94838774D02*
G01*
X129837813Y-94868625D01*
X130001785Y-94936545D01*
X130149355Y-95035148D01*
X130274854Y-95160647D01*
X130373457Y-95308217D01*
X130441377Y-95472189D01*
X130476001Y-95646260D01*
X130476001Y-95823742D01*
X130441377Y-95997813D01*
X130373457Y-96161785D01*
X130274854Y-96309355D01*
X130149355Y-96434854D01*
X130001785Y-96533457D01*
X129837813Y-96601377D01*
X129689628Y-96630852D01*
X129663743Y-96636001D01*
X129486259Y-96636001D01*
X129460374Y-96630852D01*
X129312189Y-96601377D01*
X129148217Y-96533457D01*
X129000647Y-96434854D01*
X128875148Y-96309355D01*
X128776545Y-96161785D01*
X128708625Y-95997813D01*
X128674001Y-95823742D01*
X128674001Y-95646260D01*
X128708625Y-95472189D01*
X128776545Y-95308217D01*
X128875148Y-95160647D01*
X129000647Y-95035148D01*
X129148217Y-94936545D01*
X129312189Y-94868625D01*
X129462264Y-94838774D01*
X129486259Y-94834001D01*
X129663743Y-94834001D01*
X129687738Y-94838774D01*
G37*
G36*
X112625561Y-94328181D02*
G01*
X112660480Y-94338774D01*
X112692662Y-94355976D01*
X112720872Y-94379127D01*
X112744023Y-94407337D01*
X112761225Y-94439519D01*
X112771818Y-94474438D01*
X112775999Y-94516895D01*
X112775999Y-95983105D01*
X112771818Y-96025562D01*
X112761225Y-96060481D01*
X112744023Y-96092663D01*
X112720872Y-96120873D01*
X112692662Y-96144024D01*
X112660480Y-96161226D01*
X112625561Y-96171819D01*
X112583104Y-96176000D01*
X111441894Y-96176000D01*
X111399437Y-96171819D01*
X111364518Y-96161226D01*
X111332336Y-96144024D01*
X111304126Y-96120873D01*
X111280975Y-96092663D01*
X111263773Y-96060481D01*
X111253180Y-96025562D01*
X111248999Y-95983105D01*
X111248999Y-94516895D01*
X111253180Y-94474438D01*
X111263773Y-94439519D01*
X111280975Y-94407337D01*
X111304126Y-94379127D01*
X111332336Y-94355976D01*
X111364518Y-94338774D01*
X111399437Y-94328181D01*
X111441894Y-94324000D01*
X112583104Y-94324000D01*
X112625561Y-94328181D01*
G37*
G36*
X109650561Y-94328181D02*
G01*
X109685480Y-94338774D01*
X109717662Y-94355976D01*
X109745872Y-94379127D01*
X109769023Y-94407337D01*
X109786225Y-94439519D01*
X109796818Y-94474438D01*
X109800999Y-94516895D01*
X109800999Y-95983105D01*
X109796818Y-96025562D01*
X109786225Y-96060481D01*
X109769023Y-96092663D01*
X109745872Y-96120873D01*
X109717662Y-96144024D01*
X109685480Y-96161226D01*
X109650561Y-96171819D01*
X109608104Y-96176000D01*
X108466894Y-96176000D01*
X108424437Y-96171819D01*
X108389518Y-96161226D01*
X108357336Y-96144024D01*
X108329126Y-96120873D01*
X108305975Y-96092663D01*
X108288773Y-96060481D01*
X108278180Y-96025562D01*
X108273999Y-95983105D01*
X108273999Y-94516895D01*
X108278180Y-94474438D01*
X108288773Y-94439519D01*
X108305975Y-94407337D01*
X108329126Y-94379127D01*
X108357336Y-94355976D01*
X108389518Y-94338774D01*
X108424437Y-94328181D01*
X108466894Y-94324000D01*
X109608104Y-94324000D01*
X109650561Y-94328181D01*
G37*
G36*
X102513500Y-94461886D02*
G01*
X102514102Y-94474138D01*
X102516649Y-94500000D01*
X102514102Y-94525862D01*
X102513500Y-94538114D01*
X102513500Y-94611406D01*
X102504543Y-94628164D01*
X102500415Y-94639701D01*
X102474632Y-94724693D01*
X102466854Y-94750336D01*
X102406406Y-94863425D01*
X102325054Y-94962554D01*
X102225925Y-95043906D01*
X102112836Y-95104354D01*
X102080904Y-95114040D01*
X101990118Y-95141580D01*
X101926355Y-95147860D01*
X101894474Y-95151000D01*
X101130526Y-95151000D01*
X101098645Y-95147860D01*
X101034882Y-95141580D01*
X100944096Y-95114040D01*
X100912164Y-95104354D01*
X100799075Y-95043906D01*
X100699946Y-94962554D01*
X100618594Y-94863425D01*
X100558146Y-94750336D01*
X100550368Y-94724693D01*
X100524587Y-94639708D01*
X100515213Y-94617075D01*
X100511500Y-94611518D01*
X100511500Y-94538114D01*
X100510898Y-94525862D01*
X100508351Y-94500000D01*
X100510898Y-94474138D01*
X100511500Y-94461886D01*
X100511500Y-93249000D01*
X102513500Y-93249000D01*
X102513500Y-94461886D01*
G37*
G36*
X104438848Y-87753820D02*
G01*
X104438850Y-87753821D01*
X104438851Y-87753821D01*
X104580074Y-87812317D01*
X104580077Y-87812319D01*
X104707169Y-87897239D01*
X104815261Y-88005331D01*
X104900181Y-88132423D01*
X104900183Y-88132426D01*
X104929723Y-88203743D01*
X104958680Y-88273652D01*
X104988500Y-88423569D01*
X104988500Y-88576431D01*
X104958695Y-88726274D01*
X104958679Y-88726351D01*
X104900183Y-88867574D01*
X104900181Y-88867577D01*
X104815261Y-88994669D01*
X104707169Y-89102761D01*
X104622440Y-89159375D01*
X104580074Y-89187683D01*
X104529772Y-89208519D01*
X104508164Y-89220068D01*
X104489222Y-89235614D01*
X104473677Y-89254556D01*
X104462126Y-89276166D01*
X104455013Y-89299615D01*
X104452611Y-89324001D01*
X104455013Y-89348387D01*
X104462126Y-89371836D01*
X104473677Y-89393447D01*
X104489223Y-89412389D01*
X104508165Y-89427934D01*
X104529775Y-89439485D01*
X104553224Y-89446598D01*
X104577610Y-89449000D01*
X104938500Y-89449000D01*
X104938500Y-92551000D01*
X104577610Y-92551000D01*
X104553224Y-92553402D01*
X104529775Y-92560515D01*
X104508164Y-92572066D01*
X104489222Y-92587611D01*
X104473677Y-92606553D01*
X104462126Y-92628164D01*
X104455013Y-92651613D01*
X104452611Y-92675999D01*
X104455013Y-92700385D01*
X104462126Y-92723834D01*
X104473677Y-92745445D01*
X104489222Y-92764387D01*
X104508164Y-92779932D01*
X104529772Y-92791481D01*
X104580074Y-92812317D01*
X104580075Y-92812318D01*
X104707169Y-92897239D01*
X104815261Y-93005331D01*
X104872210Y-93090561D01*
X104900183Y-93132426D01*
X104943423Y-93236818D01*
X104958680Y-93273652D01*
X104988500Y-93423569D01*
X104988500Y-93576431D01*
X104979479Y-93621785D01*
X104958679Y-93726351D01*
X104900183Y-93867574D01*
X104900181Y-93867577D01*
X104815261Y-93994669D01*
X104707169Y-94102761D01*
X104656564Y-94136574D01*
X104580074Y-94187683D01*
X104438851Y-94246179D01*
X104438850Y-94246179D01*
X104438848Y-94246180D01*
X104288931Y-94276000D01*
X104136069Y-94276000D01*
X103986152Y-94246180D01*
X103986150Y-94246179D01*
X103986149Y-94246179D01*
X103844926Y-94187683D01*
X103768436Y-94136574D01*
X103717831Y-94102761D01*
X103609739Y-93994669D01*
X103524819Y-93867577D01*
X103524817Y-93867574D01*
X103466321Y-93726351D01*
X103445522Y-93621785D01*
X103436500Y-93576431D01*
X103436500Y-93423569D01*
X103466320Y-93273652D01*
X103481577Y-93236818D01*
X103524817Y-93132426D01*
X103552790Y-93090561D01*
X103609739Y-93005331D01*
X103717831Y-92897239D01*
X103844925Y-92812318D01*
X103844926Y-92812317D01*
X103895228Y-92791481D01*
X103916836Y-92779932D01*
X103935778Y-92764386D01*
X103951323Y-92745444D01*
X103962874Y-92723834D01*
X103969987Y-92700385D01*
X103972389Y-92675999D01*
X103969987Y-92651613D01*
X103962874Y-92628164D01*
X103951323Y-92606553D01*
X103935777Y-92587611D01*
X103916835Y-92572066D01*
X103895225Y-92560515D01*
X103871776Y-92553402D01*
X103847390Y-92551000D01*
X103486500Y-92551000D01*
X103486500Y-89449000D01*
X103847390Y-89449000D01*
X103871776Y-89446598D01*
X103895225Y-89439485D01*
X103916836Y-89427934D01*
X103935778Y-89412389D01*
X103951323Y-89393447D01*
X103962874Y-89371836D01*
X103969987Y-89348387D01*
X103972389Y-89324001D01*
X103969987Y-89299615D01*
X103962874Y-89276166D01*
X103951323Y-89254555D01*
X103935778Y-89235613D01*
X103916836Y-89220068D01*
X103895228Y-89208519D01*
X103844926Y-89187683D01*
X103802560Y-89159375D01*
X103717831Y-89102761D01*
X103609739Y-88994669D01*
X103524819Y-88867577D01*
X103524817Y-88867574D01*
X103466321Y-88726351D01*
X103466306Y-88726274D01*
X103436500Y-88576431D01*
X103436500Y-88423569D01*
X103466320Y-88273652D01*
X103495277Y-88203743D01*
X103524817Y-88132426D01*
X103524819Y-88132423D01*
X103609739Y-88005331D01*
X103717831Y-87897239D01*
X103844923Y-87812319D01*
X103844926Y-87812317D01*
X103986149Y-87753821D01*
X103986150Y-87753821D01*
X103986152Y-87753820D01*
X104136069Y-87724000D01*
X104288931Y-87724000D01*
X104438848Y-87753820D01*
G37*
G36*
X129688513Y-92298928D02*
G01*
X129837813Y-92328625D01*
X130001785Y-92396545D01*
X130149355Y-92495148D01*
X130274854Y-92620647D01*
X130373457Y-92768217D01*
X130441377Y-92932189D01*
X130476001Y-93106260D01*
X130476001Y-93283742D01*
X130441377Y-93457813D01*
X130373457Y-93621785D01*
X130274854Y-93769355D01*
X130149355Y-93894854D01*
X130001785Y-93993457D01*
X129837813Y-94061377D01*
X129688513Y-94091074D01*
X129663743Y-94096001D01*
X129486259Y-94096001D01*
X129461489Y-94091074D01*
X129312189Y-94061377D01*
X129148217Y-93993457D01*
X129000647Y-93894854D01*
X128875148Y-93769355D01*
X128776545Y-93621785D01*
X128708625Y-93457813D01*
X128674001Y-93283742D01*
X128674001Y-93106260D01*
X128708625Y-92932189D01*
X128776545Y-92768217D01*
X128875148Y-92620647D01*
X129000647Y-92495148D01*
X129148217Y-92396545D01*
X129312189Y-92328625D01*
X129461489Y-92298928D01*
X129486259Y-92294001D01*
X129663743Y-92294001D01*
X129688513Y-92298928D01*
G37*
G36*
X109650561Y-91393180D02*
G01*
X109685480Y-91403773D01*
X109717662Y-91420975D01*
X109745872Y-91444126D01*
X109769023Y-91472336D01*
X109786225Y-91504518D01*
X109796818Y-91539437D01*
X109800999Y-91581894D01*
X109800999Y-93048104D01*
X109796818Y-93090561D01*
X109786225Y-93125480D01*
X109769023Y-93157662D01*
X109745872Y-93185872D01*
X109717662Y-93209023D01*
X109685480Y-93226225D01*
X109650561Y-93236818D01*
X109608104Y-93240999D01*
X108466894Y-93240999D01*
X108424437Y-93236818D01*
X108389518Y-93226225D01*
X108357336Y-93209023D01*
X108329126Y-93185872D01*
X108305975Y-93157662D01*
X108288773Y-93125480D01*
X108278180Y-93090561D01*
X108273999Y-93048104D01*
X108273999Y-91581894D01*
X108278180Y-91539437D01*
X108288773Y-91504518D01*
X108305975Y-91472336D01*
X108329126Y-91444126D01*
X108357336Y-91420975D01*
X108389518Y-91403773D01*
X108424437Y-91393180D01*
X108466894Y-91388999D01*
X109608104Y-91388999D01*
X109650561Y-91393180D01*
G37*
G36*
X112625561Y-91393180D02*
G01*
X112660480Y-91403773D01*
X112692662Y-91420975D01*
X112720872Y-91444126D01*
X112744023Y-91472336D01*
X112761225Y-91504518D01*
X112771818Y-91539437D01*
X112775999Y-91581894D01*
X112775999Y-93048104D01*
X112771818Y-93090561D01*
X112761225Y-93125480D01*
X112744023Y-93157662D01*
X112720872Y-93185872D01*
X112692662Y-93209023D01*
X112660480Y-93226225D01*
X112625561Y-93236818D01*
X112583104Y-93240999D01*
X111441894Y-93240999D01*
X111399437Y-93236818D01*
X111364518Y-93226225D01*
X111332336Y-93209023D01*
X111304126Y-93185872D01*
X111280975Y-93157662D01*
X111263773Y-93125480D01*
X111253180Y-93090561D01*
X111248999Y-93048104D01*
X111248999Y-91581894D01*
X111253180Y-91539437D01*
X111263773Y-91504518D01*
X111280975Y-91472336D01*
X111304126Y-91444126D01*
X111332336Y-91420975D01*
X111364518Y-91403773D01*
X111399437Y-91393180D01*
X111441894Y-91388999D01*
X112583104Y-91388999D01*
X112625561Y-91393180D01*
G37*
G36*
X102513500Y-92801000D02*
G01*
X100511500Y-92801000D01*
X100511500Y-91199000D01*
X102513500Y-91199000D01*
X102513500Y-92801000D01*
G37*
G36*
X129688513Y-89758928D02*
G01*
X129837813Y-89788625D01*
X130001785Y-89856545D01*
X130149355Y-89955148D01*
X130274854Y-90080647D01*
X130373457Y-90228217D01*
X130441377Y-90392189D01*
X130476001Y-90566260D01*
X130476001Y-90743742D01*
X130441377Y-90917813D01*
X130373457Y-91081785D01*
X130274854Y-91229355D01*
X130149355Y-91354854D01*
X130001785Y-91453457D01*
X129837813Y-91521377D01*
X129688513Y-91551074D01*
X129663743Y-91556001D01*
X129486259Y-91556001D01*
X129461489Y-91551074D01*
X129312189Y-91521377D01*
X129148217Y-91453457D01*
X129000647Y-91354854D01*
X128875148Y-91229355D01*
X128776545Y-91081785D01*
X128708625Y-90917813D01*
X128674001Y-90743742D01*
X128674001Y-90566260D01*
X128708625Y-90392189D01*
X128776545Y-90228217D01*
X128875148Y-90080647D01*
X129000647Y-89955148D01*
X129148217Y-89856545D01*
X129312189Y-89788625D01*
X129461489Y-89758928D01*
X129486259Y-89754001D01*
X129663743Y-89754001D01*
X129688513Y-89758928D01*
G37*
G36*
X102513500Y-90801000D02*
G01*
X100511500Y-90801000D01*
X100511500Y-89199000D01*
X102513500Y-89199000D01*
X102513500Y-90801000D01*
G37*
G36*
X122025562Y-88740681D02*
G01*
X122060481Y-88751274D01*
X122092663Y-88768476D01*
X122120873Y-88791627D01*
X122144024Y-88819837D01*
X122161226Y-88852019D01*
X122171819Y-88886938D01*
X122176000Y-88929395D01*
X122176000Y-90070605D01*
X122171819Y-90113062D01*
X122161226Y-90147981D01*
X122144024Y-90180163D01*
X122120873Y-90208373D01*
X122092663Y-90231524D01*
X122060481Y-90248726D01*
X122025562Y-90259319D01*
X121983105Y-90263500D01*
X120516895Y-90263500D01*
X120474438Y-90259319D01*
X120439519Y-90248726D01*
X120407337Y-90231524D01*
X120379127Y-90208373D01*
X120355976Y-90180163D01*
X120338774Y-90147981D01*
X120328181Y-90113062D01*
X120324000Y-90070605D01*
X120324000Y-88929395D01*
X120328181Y-88886938D01*
X120338774Y-88852019D01*
X120355976Y-88819837D01*
X120379127Y-88791627D01*
X120407337Y-88768476D01*
X120439519Y-88751274D01*
X120474438Y-88740681D01*
X120516895Y-88736500D01*
X121983105Y-88736500D01*
X122025562Y-88740681D01*
G37*
G36*
X116025562Y-88715681D02*
G01*
X116060481Y-88726274D01*
X116092663Y-88743476D01*
X116120873Y-88766627D01*
X116144024Y-88794837D01*
X116161226Y-88827019D01*
X116171819Y-88861938D01*
X116176000Y-88904395D01*
X116176000Y-90045605D01*
X116171819Y-90088062D01*
X116161226Y-90122981D01*
X116144024Y-90155163D01*
X116120873Y-90183373D01*
X116092663Y-90206524D01*
X116060481Y-90223726D01*
X116025562Y-90234319D01*
X115983105Y-90238500D01*
X114516895Y-90238500D01*
X114474438Y-90234319D01*
X114439519Y-90223726D01*
X114407337Y-90206524D01*
X114379127Y-90183373D01*
X114355976Y-90155163D01*
X114338774Y-90122981D01*
X114328181Y-90088062D01*
X114324000Y-90045605D01*
X114324000Y-88904395D01*
X114328181Y-88861938D01*
X114338774Y-88827019D01*
X114355976Y-88794837D01*
X114379127Y-88766627D01*
X114407337Y-88743476D01*
X114439519Y-88726274D01*
X114474438Y-88715681D01*
X114516895Y-88711500D01*
X115983105Y-88711500D01*
X116025562Y-88715681D01*
G37*
G36*
X119025562Y-88715681D02*
G01*
X119060481Y-88726274D01*
X119092663Y-88743476D01*
X119120873Y-88766627D01*
X119144024Y-88794837D01*
X119161226Y-88827019D01*
X119171819Y-88861938D01*
X119176000Y-88904395D01*
X119176000Y-90045605D01*
X119171819Y-90088062D01*
X119161226Y-90122981D01*
X119144024Y-90155163D01*
X119120873Y-90183373D01*
X119092663Y-90206524D01*
X119060481Y-90223726D01*
X119025562Y-90234319D01*
X118983105Y-90238500D01*
X117516895Y-90238500D01*
X117474438Y-90234319D01*
X117439519Y-90223726D01*
X117407337Y-90206524D01*
X117379127Y-90183373D01*
X117355976Y-90155163D01*
X117338774Y-90122981D01*
X117328181Y-90088062D01*
X117324000Y-90045605D01*
X117324000Y-88904395D01*
X117328181Y-88861938D01*
X117338774Y-88827019D01*
X117355976Y-88794837D01*
X117379127Y-88766627D01*
X117407337Y-88743476D01*
X117439519Y-88726274D01*
X117474438Y-88715681D01*
X117516895Y-88711500D01*
X118983105Y-88711500D01*
X119025562Y-88715681D01*
G37*
G36*
X125275562Y-88715681D02*
G01*
X125310481Y-88726274D01*
X125342663Y-88743476D01*
X125370873Y-88766627D01*
X125394024Y-88794837D01*
X125411226Y-88827019D01*
X125421819Y-88861938D01*
X125426000Y-88904395D01*
X125426000Y-90045605D01*
X125421819Y-90088062D01*
X125411226Y-90122981D01*
X125394024Y-90155163D01*
X125370873Y-90183373D01*
X125342663Y-90206524D01*
X125310481Y-90223726D01*
X125275562Y-90234319D01*
X125233105Y-90238500D01*
X123766895Y-90238500D01*
X123724438Y-90234319D01*
X123689519Y-90223726D01*
X123657337Y-90206524D01*
X123629127Y-90183373D01*
X123605976Y-90155163D01*
X123588774Y-90122981D01*
X123578181Y-90088062D01*
X123574000Y-90045605D01*
X123574000Y-88904395D01*
X123578181Y-88861938D01*
X123588774Y-88827019D01*
X123605976Y-88794837D01*
X123629127Y-88766627D01*
X123657337Y-88743476D01*
X123689519Y-88726274D01*
X123724438Y-88715681D01*
X123766895Y-88711500D01*
X125233105Y-88711500D01*
X125275562Y-88715681D01*
G37*
G36*
X110025562Y-88715681D02*
G01*
X110060481Y-88726274D01*
X110092663Y-88743476D01*
X110120873Y-88766627D01*
X110144024Y-88794837D01*
X110161226Y-88827019D01*
X110171819Y-88861938D01*
X110176000Y-88904395D01*
X110176000Y-90045605D01*
X110171819Y-90088062D01*
X110161226Y-90122981D01*
X110144024Y-90155163D01*
X110120873Y-90183373D01*
X110092663Y-90206524D01*
X110060481Y-90223726D01*
X110025562Y-90234319D01*
X109983105Y-90238500D01*
X108516895Y-90238500D01*
X108474438Y-90234319D01*
X108439519Y-90223726D01*
X108407337Y-90206524D01*
X108379127Y-90183373D01*
X108355976Y-90155163D01*
X108338774Y-90122981D01*
X108328181Y-90088062D01*
X108324000Y-90045605D01*
X108324000Y-88904395D01*
X108328181Y-88861938D01*
X108338774Y-88827019D01*
X108355976Y-88794837D01*
X108379127Y-88766627D01*
X108407337Y-88743476D01*
X108439519Y-88726274D01*
X108474438Y-88715681D01*
X108516895Y-88711500D01*
X109983105Y-88711500D01*
X110025562Y-88715681D01*
G37*
G36*
X113025562Y-88715681D02*
G01*
X113060481Y-88726274D01*
X113092663Y-88743476D01*
X113120873Y-88766627D01*
X113144024Y-88794837D01*
X113161226Y-88827019D01*
X113171819Y-88861938D01*
X113176000Y-88904395D01*
X113176000Y-90045605D01*
X113171819Y-90088062D01*
X113161226Y-90122981D01*
X113144024Y-90155163D01*
X113120873Y-90183373D01*
X113092663Y-90206524D01*
X113060481Y-90223726D01*
X113025562Y-90234319D01*
X112983105Y-90238500D01*
X111516895Y-90238500D01*
X111474438Y-90234319D01*
X111439519Y-90223726D01*
X111407337Y-90206524D01*
X111379127Y-90183373D01*
X111355976Y-90155163D01*
X111338774Y-90122981D01*
X111328181Y-90088062D01*
X111324000Y-90045605D01*
X111324000Y-88904395D01*
X111328181Y-88861938D01*
X111338774Y-88827019D01*
X111355976Y-88794837D01*
X111379127Y-88766627D01*
X111407337Y-88743476D01*
X111439519Y-88726274D01*
X111474438Y-88715681D01*
X111516895Y-88711500D01*
X112983105Y-88711500D01*
X113025562Y-88715681D01*
G37*
G36*
X129685617Y-87218352D02*
G01*
X129837813Y-87248625D01*
X130001785Y-87316545D01*
X130149355Y-87415148D01*
X130274854Y-87540647D01*
X130373457Y-87688217D01*
X130441377Y-87852189D01*
X130476001Y-88026260D01*
X130476001Y-88203742D01*
X130441377Y-88377813D01*
X130373457Y-88541785D01*
X130274854Y-88689355D01*
X130149355Y-88814854D01*
X130001785Y-88913457D01*
X129837813Y-88981377D01*
X129688513Y-89011074D01*
X129663743Y-89016001D01*
X129486259Y-89016001D01*
X129461489Y-89011074D01*
X129312189Y-88981377D01*
X129148217Y-88913457D01*
X129000647Y-88814854D01*
X128875148Y-88689355D01*
X128776545Y-88541785D01*
X128708625Y-88377813D01*
X128674001Y-88203742D01*
X128674001Y-88026260D01*
X128708625Y-87852189D01*
X128776545Y-87688217D01*
X128875148Y-87540647D01*
X129000647Y-87415148D01*
X129148217Y-87316545D01*
X129312189Y-87248625D01*
X129464385Y-87218352D01*
X129486259Y-87214001D01*
X129663743Y-87214001D01*
X129685617Y-87218352D01*
G37*
G36*
X101926355Y-86852140D02*
G01*
X101990118Y-86858420D01*
X102080904Y-86885960D01*
X102112836Y-86895646D01*
X102225925Y-86956094D01*
X102325054Y-87037446D01*
X102406406Y-87136575D01*
X102466854Y-87249664D01*
X102466855Y-87249668D01*
X102500413Y-87360292D01*
X102509787Y-87382925D01*
X102513500Y-87388482D01*
X102513500Y-87461886D01*
X102514102Y-87474138D01*
X102516649Y-87500000D01*
X102514102Y-87525862D01*
X102513500Y-87538114D01*
X102513500Y-88751000D01*
X100511500Y-88751000D01*
X100511500Y-87538114D01*
X100510898Y-87525862D01*
X100508351Y-87500000D01*
X100510898Y-87474138D01*
X100511500Y-87461886D01*
X100511500Y-87388594D01*
X100520457Y-87371836D01*
X100524585Y-87360299D01*
X100558145Y-87249668D01*
X100558146Y-87249664D01*
X100618594Y-87136575D01*
X100699946Y-87037446D01*
X100799075Y-86956094D01*
X100912164Y-86895646D01*
X100944096Y-86885960D01*
X101034882Y-86858420D01*
X101098645Y-86852140D01*
X101130526Y-86849000D01*
X101894474Y-86849000D01*
X101926355Y-86852140D01*
G37*
G36*
X122025562Y-85765681D02*
G01*
X122060481Y-85776274D01*
X122092663Y-85793476D01*
X122120873Y-85816627D01*
X122144024Y-85844837D01*
X122161226Y-85877019D01*
X122171819Y-85911938D01*
X122176000Y-85954395D01*
X122176000Y-87095605D01*
X122171819Y-87138062D01*
X122161226Y-87172981D01*
X122144024Y-87205163D01*
X122120873Y-87233373D01*
X122092663Y-87256524D01*
X122060481Y-87273726D01*
X122025562Y-87284319D01*
X121983105Y-87288500D01*
X120516895Y-87288500D01*
X120474438Y-87284319D01*
X120439519Y-87273726D01*
X120407337Y-87256524D01*
X120379127Y-87233373D01*
X120355976Y-87205163D01*
X120338774Y-87172981D01*
X120328181Y-87138062D01*
X120324000Y-87095605D01*
X120324000Y-85954395D01*
X120328181Y-85911938D01*
X120338774Y-85877019D01*
X120355976Y-85844837D01*
X120379127Y-85816627D01*
X120407337Y-85793476D01*
X120439519Y-85776274D01*
X120474438Y-85765681D01*
X120516895Y-85761500D01*
X121983105Y-85761500D01*
X122025562Y-85765681D01*
G37*
G36*
X110025562Y-85740681D02*
G01*
X110060481Y-85751274D01*
X110092663Y-85768476D01*
X110120873Y-85791627D01*
X110144024Y-85819837D01*
X110161226Y-85852019D01*
X110171819Y-85886938D01*
X110176000Y-85929395D01*
X110176000Y-87070605D01*
X110171819Y-87113062D01*
X110161226Y-87147981D01*
X110144024Y-87180163D01*
X110120873Y-87208373D01*
X110092663Y-87231524D01*
X110060481Y-87248726D01*
X110025562Y-87259319D01*
X109983105Y-87263500D01*
X108516895Y-87263500D01*
X108474438Y-87259319D01*
X108439519Y-87248726D01*
X108407337Y-87231524D01*
X108379127Y-87208373D01*
X108355976Y-87180163D01*
X108338774Y-87147981D01*
X108328181Y-87113062D01*
X108324000Y-87070605D01*
X108324000Y-85929395D01*
X108328181Y-85886938D01*
X108338774Y-85852019D01*
X108355976Y-85819837D01*
X108379127Y-85791627D01*
X108407337Y-85768476D01*
X108439519Y-85751274D01*
X108474438Y-85740681D01*
X108516895Y-85736500D01*
X109983105Y-85736500D01*
X110025562Y-85740681D01*
G37*
G36*
X125275562Y-85740681D02*
G01*
X125310481Y-85751274D01*
X125342663Y-85768476D01*
X125370873Y-85791627D01*
X125394024Y-85819837D01*
X125411226Y-85852019D01*
X125421819Y-85886938D01*
X125426000Y-85929395D01*
X125426000Y-87070605D01*
X125421819Y-87113062D01*
X125411226Y-87147981D01*
X125394024Y-87180163D01*
X125370873Y-87208373D01*
X125342663Y-87231524D01*
X125310481Y-87248726D01*
X125275562Y-87259319D01*
X125233105Y-87263500D01*
X123766895Y-87263500D01*
X123724438Y-87259319D01*
X123689519Y-87248726D01*
X123657337Y-87231524D01*
X123629127Y-87208373D01*
X123605976Y-87180163D01*
X123588774Y-87147981D01*
X123578181Y-87113062D01*
X123574000Y-87070605D01*
X123574000Y-85929395D01*
X123578181Y-85886938D01*
X123588774Y-85852019D01*
X123605976Y-85819837D01*
X123629127Y-85791627D01*
X123657337Y-85768476D01*
X123689519Y-85751274D01*
X123724438Y-85740681D01*
X123766895Y-85736500D01*
X125233105Y-85736500D01*
X125275562Y-85740681D01*
G37*
G36*
X119025562Y-85740681D02*
G01*
X119060481Y-85751274D01*
X119092663Y-85768476D01*
X119120873Y-85791627D01*
X119144024Y-85819837D01*
X119161226Y-85852019D01*
X119171819Y-85886938D01*
X119176000Y-85929395D01*
X119176000Y-87070605D01*
X119171819Y-87113062D01*
X119161226Y-87147981D01*
X119144024Y-87180163D01*
X119120873Y-87208373D01*
X119092663Y-87231524D01*
X119060481Y-87248726D01*
X119025562Y-87259319D01*
X118983105Y-87263500D01*
X117516895Y-87263500D01*
X117474438Y-87259319D01*
X117439519Y-87248726D01*
X117407337Y-87231524D01*
X117379127Y-87208373D01*
X117355976Y-87180163D01*
X117338774Y-87147981D01*
X117328181Y-87113062D01*
X117324000Y-87070605D01*
X117324000Y-85929395D01*
X117328181Y-85886938D01*
X117338774Y-85852019D01*
X117355976Y-85819837D01*
X117379127Y-85791627D01*
X117407337Y-85768476D01*
X117439519Y-85751274D01*
X117474438Y-85740681D01*
X117516895Y-85736500D01*
X118983105Y-85736500D01*
X119025562Y-85740681D01*
G37*
G36*
X116025562Y-85740681D02*
G01*
X116060481Y-85751274D01*
X116092663Y-85768476D01*
X116120873Y-85791627D01*
X116144024Y-85819837D01*
X116161226Y-85852019D01*
X116171819Y-85886938D01*
X116176000Y-85929395D01*
X116176000Y-87070605D01*
X116171819Y-87113062D01*
X116161226Y-87147981D01*
X116144024Y-87180163D01*
X116120873Y-87208373D01*
X116092663Y-87231524D01*
X116060481Y-87248726D01*
X116025562Y-87259319D01*
X115983105Y-87263500D01*
X114516895Y-87263500D01*
X114474438Y-87259319D01*
X114439519Y-87248726D01*
X114407337Y-87231524D01*
X114379127Y-87208373D01*
X114355976Y-87180163D01*
X114338774Y-87147981D01*
X114328181Y-87113062D01*
X114324000Y-87070605D01*
X114324000Y-85929395D01*
X114328181Y-85886938D01*
X114338774Y-85852019D01*
X114355976Y-85819837D01*
X114379127Y-85791627D01*
X114407337Y-85768476D01*
X114439519Y-85751274D01*
X114474438Y-85740681D01*
X114516895Y-85736500D01*
X115983105Y-85736500D01*
X116025562Y-85740681D01*
G37*
G36*
X113025562Y-85740681D02*
G01*
X113060481Y-85751274D01*
X113092663Y-85768476D01*
X113120873Y-85791627D01*
X113144024Y-85819837D01*
X113161226Y-85852019D01*
X113171819Y-85886938D01*
X113176000Y-85929395D01*
X113176000Y-87070605D01*
X113171819Y-87113062D01*
X113161226Y-87147981D01*
X113144024Y-87180163D01*
X113120873Y-87208373D01*
X113092663Y-87231524D01*
X113060481Y-87248726D01*
X113025562Y-87259319D01*
X112983105Y-87263500D01*
X111516895Y-87263500D01*
X111474438Y-87259319D01*
X111439519Y-87248726D01*
X111407337Y-87231524D01*
X111379127Y-87208373D01*
X111355976Y-87180163D01*
X111338774Y-87147981D01*
X111328181Y-87113062D01*
X111324000Y-87070605D01*
X111324000Y-85929395D01*
X111328181Y-85886938D01*
X111338774Y-85852019D01*
X111355976Y-85819837D01*
X111379127Y-85791627D01*
X111407337Y-85768476D01*
X111439519Y-85751274D01*
X111474438Y-85740681D01*
X111516895Y-85736500D01*
X112983105Y-85736500D01*
X113025562Y-85740681D01*
G37*
G36*
X130476001Y-86476001D02*
G01*
X128674001Y-86476001D01*
X128674001Y-84674001D01*
X130476001Y-84674001D01*
X130476001Y-86476001D01*
G37*
M02*
