M48
; DRILL file {KiCad (5.1.10)-1} date 08/23/21 07:30:22
; FORMAT={-:-/ absolute / metric / decimal}
; #@! TF.CreationDate,2021-08-23T07:30:22-07:00
; #@! TF.GenerationSoftware,Kicad,Pcbnew,(5.1.10)-1
; #@! TF.FileFunction,Plated,1,2,PTH
FMAT,2
METRIC
T1C0.400
T2C0.800
T3C0.900
T4C1.000
T5C1.100
T6C1.190
T7C1.200
T8C1.300
%
G90
G05
T1
X44.37Y-119.345
X86.52Y-78.195
X162.37Y-121.195
X162.37Y-129.145
X162.72Y-78.095
X166.67Y-115.345
X169.62Y-69.095
X169.62Y-79.295
X171.37Y-110.695
X176.145Y-59.37
X178.32Y-65.895
X180.62Y-67.195
X180.62Y-68.195
X182.67Y-139.245
X184.57Y-47.445
X189.045Y-135.145
X190.695Y-135.145
X191.77Y-74.045
X193.57Y-68.295
X193.57Y-74.495
X193.595Y-111.42
X193.62Y-117.52
X195.22Y-132.77
X196.92Y-133.745
X196.97Y-120.345
X197.07Y-129.645
X197.07Y-130.645
X199.77Y-59.22
X200.67Y-117.695
X201.67Y-117.695
X203.595Y-138.17
X204.17Y-66.995
X204.17Y-67.995
X204.489Y-137.027
X205.594Y-138.159
X206.82Y-134.845
X207.72Y-134.795
X208.52Y-116.395
X208.72Y-134.795
X209.375Y-117.54
X209.62Y-126.945
X210.375Y-117.547
X211.47Y-77.045
X212.77Y-125.345
X213.895Y-121.295
X213.923Y-122.295
X214.52Y-125.595
X215.07Y-74.945
X215.07Y-79.195
X215.87Y-118.245
X215.87Y-119.245
X217.97Y-131.595
X219.47Y-116.245
X225.02Y-111.145
T2
X160.72Y-63.647
X160.72Y-71.267
X163.26Y-63.647
X163.26Y-71.267
X165.8Y-63.647
X165.8Y-71.267
X168.34Y-63.647
X168.34Y-71.267
X170.88Y-63.647
X170.88Y-71.267
X173.42Y-63.647
X173.42Y-71.267
X175.96Y-63.647
X175.96Y-71.267
X178.5Y-63.647
X178.5Y-71.267
X184.72Y-63.624
X184.72Y-71.244
X187.26Y-63.624
X187.26Y-71.244
X189.8Y-63.624
X189.8Y-71.244
X192.34Y-63.624
X192.34Y-71.244
X194.88Y-63.624
X194.88Y-71.244
X197.42Y-63.624
X197.42Y-71.244
X199.96Y-63.624
X199.96Y-71.244
X202.5Y-63.624
X202.5Y-71.244
T3
X50.8Y-67.945
X53.34Y-67.945
X63.5Y-67.945
X66.04Y-67.945
X107.95Y-67.945
X110.49Y-67.945
X127.0Y-67.945
X129.54Y-67.945
X139.7Y-67.945
X142.24Y-67.945
X226.631Y-119.888
X226.631Y-122.388
X226.631Y-124.388
X226.631Y-126.888
T4
X179.99Y-132.555
X179.99Y-135.095
X182.53Y-132.555
X182.53Y-135.095
X185.07Y-132.555
X185.07Y-135.095
T5
X93.72Y-109.245
X93.72Y-113.745
X100.22Y-109.245
X100.22Y-113.745
X166.22Y-131.572
X166.22Y-136.072
X172.72Y-131.572
X172.72Y-136.072
T6
X57.15Y-107.95
X59.69Y-107.95
X82.55Y-107.95
X85.09Y-107.95
X107.95Y-107.95
X110.49Y-107.95
X133.35Y-107.95
X135.89Y-107.95
X158.75Y-107.95
X161.29Y-107.95
X184.15Y-107.95
X186.69Y-107.95
X209.55Y-107.95
X212.09Y-107.95
T7
X63.57Y-54.695
X68.57Y-54.695
T4
X76.327Y-55.737G85X76.327Y-53.737
G05
X80.327Y-59.437G85X78.327Y-59.437
G05
X82.327Y-55.737G85X82.327Y-53.737
G05
T8
X221.851Y-123.888G85X221.851Y-122.888
G05
X225.531Y-116.818G85X226.531Y-116.818
G05
X226.531Y-129.958G85X225.531Y-129.958
G05
T0
M30
