G04 #@! TF.GenerationSoftware,KiCad,Pcbnew,(5.1.10)-1*
G04 #@! TF.CreationDate,2021-08-23T07:30:19-07:00*
G04 #@! TF.ProjectId,TBM930 - De-ice panel,54424d39-3330-4202-9d20-44652d696365,rev?*
G04 #@! TF.SameCoordinates,Original*
G04 #@! TF.FileFunction,Soldermask,Bot*
G04 #@! TF.FilePolarity,Negative*
%FSLAX46Y46*%
G04 Gerber Fmt 4.6, Leading zero omitted, Abs format (unit mm)*
G04 Created by KiCad (PCBNEW (5.1.10)-1) date 2021-08-23 07:30:19*
%MOMM*%
%LPD*%
G01*
G04 APERTURE LIST*
%ADD10C,1.820000*%
%ADD11R,0.500000X0.500000*%
%ADD12R,3.500000X3.500000*%
%ADD13C,2.000000*%
%ADD14R,1.400000X1.200000*%
%ADD15R,1.700000X1.700000*%
%ADD16O,1.700000X1.700000*%
%ADD17C,3.200000*%
%ADD18C,6.000000*%
%ADD19C,2.400000*%
%ADD20R,1.800000X1.800000*%
%ADD21C,1.800000*%
%ADD22O,1.740000X2.190000*%
%ADD23R,1.600000X1.600000*%
%ADD24O,1.600000X1.600000*%
%ADD25O,1.900000X2.900000*%
%ADD26O,2.900000X1.900000*%
%ADD27C,1.300000*%
%ADD28R,1.300000X1.300000*%
%ADD29R,2.400000X2.400000*%
%ADD30R,1.500000X0.550000*%
%ADD31R,0.550000X1.500000*%
%ADD32R,4.500000X4.500000*%
G04 APERTURE END LIST*
D10*
X226470000Y-140445000D03*
X226370000Y-45445000D03*
X42370000Y-45445000D03*
D11*
X194310000Y-132377000D03*
X194310000Y-134577000D03*
G36*
G01*
X81077000Y-58562000D02*
X81077000Y-60312000D01*
G75*
G02*
X80202000Y-61187000I-875000J0D01*
G01*
X78452000Y-61187000D01*
G75*
G02*
X77577000Y-60312000I0J875000D01*
G01*
X77577000Y-58562000D01*
G75*
G02*
X78452000Y-57687000I875000J0D01*
G01*
X80202000Y-57687000D01*
G75*
G02*
X81077000Y-58562000I0J-875000D01*
G01*
G37*
G36*
G01*
X83827000Y-53737000D02*
X83827000Y-55737000D01*
G75*
G02*
X83077000Y-56487000I-750000J0D01*
G01*
X81577000Y-56487000D01*
G75*
G02*
X80827000Y-55737000I0J750000D01*
G01*
X80827000Y-53737000D01*
G75*
G02*
X81577000Y-52987000I750000J0D01*
G01*
X83077000Y-52987000D01*
G75*
G02*
X83827000Y-53737000I0J-750000D01*
G01*
G37*
D12*
X76327000Y-54737000D03*
D13*
X172720000Y-136072000D03*
X172720000Y-131572000D03*
X166220000Y-136072000D03*
X166220000Y-131572000D03*
D14*
X203456000Y-134349500D03*
X205656000Y-134349500D03*
X205656000Y-136049500D03*
X203456000Y-136049500D03*
D15*
X185070000Y-135095000D03*
D16*
X185070000Y-132555000D03*
X182530000Y-135095000D03*
X182530000Y-132555000D03*
X179990000Y-135095000D03*
X179990000Y-132555000D03*
G36*
G01*
X212545000Y-126845000D02*
X212545000Y-126345000D01*
G75*
G02*
X212770000Y-126120000I225000J0D01*
G01*
X213220000Y-126120000D01*
G75*
G02*
X213445000Y-126345000I0J-225000D01*
G01*
X213445000Y-126845000D01*
G75*
G02*
X213220000Y-127070000I-225000J0D01*
G01*
X212770000Y-127070000D01*
G75*
G02*
X212545000Y-126845000I0J225000D01*
G01*
G37*
G36*
G01*
X214095000Y-126845000D02*
X214095000Y-126345000D01*
G75*
G02*
X214320000Y-126120000I225000J0D01*
G01*
X214770000Y-126120000D01*
G75*
G02*
X214995000Y-126345000I0J-225000D01*
G01*
X214995000Y-126845000D01*
G75*
G02*
X214770000Y-127070000I-225000J0D01*
G01*
X214320000Y-127070000D01*
G75*
G02*
X214095000Y-126845000I0J225000D01*
G01*
G37*
D13*
X93720000Y-113745000D03*
X93720000Y-109245000D03*
X100220000Y-113745000D03*
X100220000Y-109245000D03*
D17*
X220345000Y-137795000D03*
X220345000Y-52070000D03*
X48895000Y-137795000D03*
X48895000Y-52070000D03*
D18*
X210820000Y-93345000D03*
D19*
X210820000Y-86945000D03*
D18*
X185420000Y-93345000D03*
D19*
X185420000Y-86945000D03*
D18*
X160020000Y-93345000D03*
D19*
X160020000Y-86945000D03*
D18*
X134620000Y-93345000D03*
D19*
X134620000Y-86945000D03*
D18*
X109220000Y-93345000D03*
D19*
X109220000Y-86945000D03*
D18*
X83820000Y-93345000D03*
D19*
X83820000Y-86945000D03*
D18*
X58420000Y-93345000D03*
D19*
X58420000Y-86945000D03*
D20*
X50800000Y-67945000D03*
D21*
X53340000Y-67945000D03*
X66040000Y-67945000D03*
D20*
X63500000Y-67945000D03*
X107950000Y-67945000D03*
D21*
X110490000Y-67945000D03*
X129540000Y-67945000D03*
D20*
X127000000Y-67945000D03*
X139700000Y-67945000D03*
D21*
X142240000Y-67945000D03*
G36*
G01*
X60560000Y-107104999D02*
X60560000Y-108795001D01*
G75*
G02*
X60310001Y-109045000I-249999J0D01*
G01*
X59069999Y-109045000D01*
G75*
G02*
X58820000Y-108795001I0J249999D01*
G01*
X58820000Y-107104999D01*
G75*
G02*
X59069999Y-106855000I249999J0D01*
G01*
X60310001Y-106855000D01*
G75*
G02*
X60560000Y-107104999I0J-249999D01*
G01*
G37*
D22*
X57150000Y-107950000D03*
X82550000Y-107950000D03*
G36*
G01*
X85960000Y-107104999D02*
X85960000Y-108795001D01*
G75*
G02*
X85710001Y-109045000I-249999J0D01*
G01*
X84469999Y-109045000D01*
G75*
G02*
X84220000Y-108795001I0J249999D01*
G01*
X84220000Y-107104999D01*
G75*
G02*
X84469999Y-106855000I249999J0D01*
G01*
X85710001Y-106855000D01*
G75*
G02*
X85960000Y-107104999I0J-249999D01*
G01*
G37*
G36*
G01*
X111360000Y-107104999D02*
X111360000Y-108795001D01*
G75*
G02*
X111110001Y-109045000I-249999J0D01*
G01*
X109869999Y-109045000D01*
G75*
G02*
X109620000Y-108795001I0J249999D01*
G01*
X109620000Y-107104999D01*
G75*
G02*
X109869999Y-106855000I249999J0D01*
G01*
X111110001Y-106855000D01*
G75*
G02*
X111360000Y-107104999I0J-249999D01*
G01*
G37*
X107950000Y-107950000D03*
X133350000Y-107950000D03*
G36*
G01*
X136760000Y-107104999D02*
X136760000Y-108795001D01*
G75*
G02*
X136510001Y-109045000I-249999J0D01*
G01*
X135269999Y-109045000D01*
G75*
G02*
X135020000Y-108795001I0J249999D01*
G01*
X135020000Y-107104999D01*
G75*
G02*
X135269999Y-106855000I249999J0D01*
G01*
X136510001Y-106855000D01*
G75*
G02*
X136760000Y-107104999I0J-249999D01*
G01*
G37*
G36*
G01*
X162160000Y-107104999D02*
X162160000Y-108795001D01*
G75*
G02*
X161910001Y-109045000I-249999J0D01*
G01*
X160669999Y-109045000D01*
G75*
G02*
X160420000Y-108795001I0J249999D01*
G01*
X160420000Y-107104999D01*
G75*
G02*
X160669999Y-106855000I249999J0D01*
G01*
X161910001Y-106855000D01*
G75*
G02*
X162160000Y-107104999I0J-249999D01*
G01*
G37*
X158750000Y-107950000D03*
X184150000Y-107950000D03*
G36*
G01*
X187560000Y-107104999D02*
X187560000Y-108795001D01*
G75*
G02*
X187310001Y-109045000I-249999J0D01*
G01*
X186069999Y-109045000D01*
G75*
G02*
X185820000Y-108795001I0J249999D01*
G01*
X185820000Y-107104999D01*
G75*
G02*
X186069999Y-106855000I249999J0D01*
G01*
X187310001Y-106855000D01*
G75*
G02*
X187560000Y-107104999I0J-249999D01*
G01*
G37*
G36*
G01*
X212960000Y-107104999D02*
X212960000Y-108795001D01*
G75*
G02*
X212710001Y-109045000I-249999J0D01*
G01*
X211469999Y-109045000D01*
G75*
G02*
X211220000Y-108795001I0J249999D01*
G01*
X211220000Y-107104999D01*
G75*
G02*
X211469999Y-106855000I249999J0D01*
G01*
X212710001Y-106855000D01*
G75*
G02*
X212960000Y-107104999I0J-249999D01*
G01*
G37*
X209550000Y-107950000D03*
G36*
G01*
X216539000Y-119070000D02*
X217039000Y-119070000D01*
G75*
G02*
X217264000Y-119295000I0J-225000D01*
G01*
X217264000Y-119745000D01*
G75*
G02*
X217039000Y-119970000I-225000J0D01*
G01*
X216539000Y-119970000D01*
G75*
G02*
X216314000Y-119745000I0J225000D01*
G01*
X216314000Y-119295000D01*
G75*
G02*
X216539000Y-119070000I225000J0D01*
G01*
G37*
G36*
G01*
X216539000Y-117520000D02*
X217039000Y-117520000D01*
G75*
G02*
X217264000Y-117745000I0J-225000D01*
G01*
X217264000Y-118195000D01*
G75*
G02*
X217039000Y-118420000I-225000J0D01*
G01*
X216539000Y-118420000D01*
G75*
G02*
X216314000Y-118195000I0J225000D01*
G01*
X216314000Y-117745000D01*
G75*
G02*
X216539000Y-117520000I225000J0D01*
G01*
G37*
G36*
G01*
X197740500Y-130564500D02*
X198240500Y-130564500D01*
G75*
G02*
X198465500Y-130789500I0J-225000D01*
G01*
X198465500Y-131239500D01*
G75*
G02*
X198240500Y-131464500I-225000J0D01*
G01*
X197740500Y-131464500D01*
G75*
G02*
X197515500Y-131239500I0J225000D01*
G01*
X197515500Y-130789500D01*
G75*
G02*
X197740500Y-130564500I225000J0D01*
G01*
G37*
G36*
G01*
X197740500Y-129014500D02*
X198240500Y-129014500D01*
G75*
G02*
X198465500Y-129239500I0J-225000D01*
G01*
X198465500Y-129689500D01*
G75*
G02*
X198240500Y-129914500I-225000J0D01*
G01*
X197740500Y-129914500D01*
G75*
G02*
X197515500Y-129689500I0J225000D01*
G01*
X197515500Y-129239500D01*
G75*
G02*
X197740500Y-129014500I225000J0D01*
G01*
G37*
G36*
G01*
X219995000Y-127020000D02*
X219995000Y-127570000D01*
G75*
G02*
X219795000Y-127770000I-200000J0D01*
G01*
X219395000Y-127770000D01*
G75*
G02*
X219195000Y-127570000I0J200000D01*
G01*
X219195000Y-127020000D01*
G75*
G02*
X219395000Y-126820000I200000J0D01*
G01*
X219795000Y-126820000D01*
G75*
G02*
X219995000Y-127020000I0J-200000D01*
G01*
G37*
G36*
G01*
X218345000Y-127020000D02*
X218345000Y-127570000D01*
G75*
G02*
X218145000Y-127770000I-200000J0D01*
G01*
X217745000Y-127770000D01*
G75*
G02*
X217545000Y-127570000I0J200000D01*
G01*
X217545000Y-127020000D01*
G75*
G02*
X217745000Y-126820000I200000J0D01*
G01*
X218145000Y-126820000D01*
G75*
G02*
X218345000Y-127020000I0J-200000D01*
G01*
G37*
G36*
G01*
X218345000Y-125370000D02*
X218345000Y-125920000D01*
G75*
G02*
X218145000Y-126120000I-200000J0D01*
G01*
X217745000Y-126120000D01*
G75*
G02*
X217545000Y-125920000I0J200000D01*
G01*
X217545000Y-125370000D01*
G75*
G02*
X217745000Y-125170000I200000J0D01*
G01*
X218145000Y-125170000D01*
G75*
G02*
X218345000Y-125370000I0J-200000D01*
G01*
G37*
G36*
G01*
X219995000Y-125370000D02*
X219995000Y-125920000D01*
G75*
G02*
X219795000Y-126120000I-200000J0D01*
G01*
X219395000Y-126120000D01*
G75*
G02*
X219195000Y-125920000I0J200000D01*
G01*
X219195000Y-125370000D01*
G75*
G02*
X219395000Y-125170000I200000J0D01*
G01*
X219795000Y-125170000D01*
G75*
G02*
X219995000Y-125370000I0J-200000D01*
G01*
G37*
G36*
G01*
X217082500Y-115016500D02*
X216532500Y-115016500D01*
G75*
G02*
X216332500Y-114816500I0J200000D01*
G01*
X216332500Y-114416500D01*
G75*
G02*
X216532500Y-114216500I200000J0D01*
G01*
X217082500Y-114216500D01*
G75*
G02*
X217282500Y-114416500I0J-200000D01*
G01*
X217282500Y-114816500D01*
G75*
G02*
X217082500Y-115016500I-200000J0D01*
G01*
G37*
G36*
G01*
X217082500Y-116666500D02*
X216532500Y-116666500D01*
G75*
G02*
X216332500Y-116466500I0J200000D01*
G01*
X216332500Y-116066500D01*
G75*
G02*
X216532500Y-115866500I200000J0D01*
G01*
X217082500Y-115866500D01*
G75*
G02*
X217282500Y-116066500I0J-200000D01*
G01*
X217282500Y-116466500D01*
G75*
G02*
X217082500Y-116666500I-200000J0D01*
G01*
G37*
G36*
G01*
X205356000Y-67172500D02*
X204856000Y-67172500D01*
G75*
G02*
X204631000Y-66947500I0J225000D01*
G01*
X204631000Y-66497500D01*
G75*
G02*
X204856000Y-66272500I225000J0D01*
G01*
X205356000Y-66272500D01*
G75*
G02*
X205581000Y-66497500I0J-225000D01*
G01*
X205581000Y-66947500D01*
G75*
G02*
X205356000Y-67172500I-225000J0D01*
G01*
G37*
G36*
G01*
X205356000Y-68722500D02*
X204856000Y-68722500D01*
G75*
G02*
X204631000Y-68497500I0J225000D01*
G01*
X204631000Y-68047500D01*
G75*
G02*
X204856000Y-67822500I225000J0D01*
G01*
X205356000Y-67822500D01*
G75*
G02*
X205581000Y-68047500I0J-225000D01*
G01*
X205581000Y-68497500D01*
G75*
G02*
X205356000Y-68722500I-225000J0D01*
G01*
G37*
G36*
G01*
X181787500Y-68872500D02*
X181287500Y-68872500D01*
G75*
G02*
X181062500Y-68647500I0J225000D01*
G01*
X181062500Y-68197500D01*
G75*
G02*
X181287500Y-67972500I225000J0D01*
G01*
X181787500Y-67972500D01*
G75*
G02*
X182012500Y-68197500I0J-225000D01*
G01*
X182012500Y-68647500D01*
G75*
G02*
X181787500Y-68872500I-225000J0D01*
G01*
G37*
G36*
G01*
X181787500Y-67322500D02*
X181287500Y-67322500D01*
G75*
G02*
X181062500Y-67097500I0J225000D01*
G01*
X181062500Y-66647500D01*
G75*
G02*
X181287500Y-66422500I225000J0D01*
G01*
X181787500Y-66422500D01*
G75*
G02*
X182012500Y-66647500I0J-225000D01*
G01*
X182012500Y-67097500D01*
G75*
G02*
X181787500Y-67322500I-225000J0D01*
G01*
G37*
G36*
G01*
X175865000Y-61469000D02*
X176415000Y-61469000D01*
G75*
G02*
X176615000Y-61669000I0J-200000D01*
G01*
X176615000Y-62069000D01*
G75*
G02*
X176415000Y-62269000I-200000J0D01*
G01*
X175865000Y-62269000D01*
G75*
G02*
X175665000Y-62069000I0J200000D01*
G01*
X175665000Y-61669000D01*
G75*
G02*
X175865000Y-61469000I200000J0D01*
G01*
G37*
G36*
G01*
X175865000Y-59819000D02*
X176415000Y-59819000D01*
G75*
G02*
X176615000Y-60019000I0J-200000D01*
G01*
X176615000Y-60419000D01*
G75*
G02*
X176415000Y-60619000I-200000J0D01*
G01*
X175865000Y-60619000D01*
G75*
G02*
X175665000Y-60419000I0J200000D01*
G01*
X175665000Y-60019000D01*
G75*
G02*
X175865000Y-59819000I200000J0D01*
G01*
G37*
G36*
G01*
X199497000Y-59669000D02*
X200047000Y-59669000D01*
G75*
G02*
X200247000Y-59869000I0J-200000D01*
G01*
X200247000Y-60269000D01*
G75*
G02*
X200047000Y-60469000I-200000J0D01*
G01*
X199497000Y-60469000D01*
G75*
G02*
X199297000Y-60269000I0J200000D01*
G01*
X199297000Y-59869000D01*
G75*
G02*
X199497000Y-59669000I200000J0D01*
G01*
G37*
G36*
G01*
X199497000Y-61319000D02*
X200047000Y-61319000D01*
G75*
G02*
X200247000Y-61519000I0J-200000D01*
G01*
X200247000Y-61919000D01*
G75*
G02*
X200047000Y-62119000I-200000J0D01*
G01*
X199497000Y-62119000D01*
G75*
G02*
X199297000Y-61919000I0J200000D01*
G01*
X199297000Y-61519000D01*
G75*
G02*
X199497000Y-61319000I200000J0D01*
G01*
G37*
G36*
G01*
X201545000Y-118895000D02*
X201545000Y-118395000D01*
G75*
G02*
X201770000Y-118170000I225000J0D01*
G01*
X202220000Y-118170000D01*
G75*
G02*
X202445000Y-118395000I0J-225000D01*
G01*
X202445000Y-118895000D01*
G75*
G02*
X202220000Y-119120000I-225000J0D01*
G01*
X201770000Y-119120000D01*
G75*
G02*
X201545000Y-118895000I0J225000D01*
G01*
G37*
G36*
G01*
X199995000Y-118895000D02*
X199995000Y-118395000D01*
G75*
G02*
X200220000Y-118170000I225000J0D01*
G01*
X200670000Y-118170000D01*
G75*
G02*
X200895000Y-118395000I0J-225000D01*
G01*
X200895000Y-118895000D01*
G75*
G02*
X200670000Y-119120000I-225000J0D01*
G01*
X200220000Y-119120000D01*
G75*
G02*
X199995000Y-118895000I0J225000D01*
G01*
G37*
G36*
G01*
X209445000Y-133595000D02*
X209445000Y-134095000D01*
G75*
G02*
X209220000Y-134320000I-225000J0D01*
G01*
X208770000Y-134320000D01*
G75*
G02*
X208545000Y-134095000I0J225000D01*
G01*
X208545000Y-133595000D01*
G75*
G02*
X208770000Y-133370000I225000J0D01*
G01*
X209220000Y-133370000D01*
G75*
G02*
X209445000Y-133595000I0J-225000D01*
G01*
G37*
G36*
G01*
X207895000Y-133595000D02*
X207895000Y-134095000D01*
G75*
G02*
X207670000Y-134320000I-225000J0D01*
G01*
X207220000Y-134320000D01*
G75*
G02*
X206995000Y-134095000I0J225000D01*
G01*
X206995000Y-133595000D01*
G75*
G02*
X207220000Y-133370000I225000J0D01*
G01*
X207670000Y-133370000D01*
G75*
G02*
X207895000Y-133595000I0J-225000D01*
G01*
G37*
G36*
G01*
X209521000Y-118321000D02*
X209521000Y-118821000D01*
G75*
G02*
X209296000Y-119046000I-225000J0D01*
G01*
X208846000Y-119046000D01*
G75*
G02*
X208621000Y-118821000I0J225000D01*
G01*
X208621000Y-118321000D01*
G75*
G02*
X208846000Y-118096000I225000J0D01*
G01*
X209296000Y-118096000D01*
G75*
G02*
X209521000Y-118321000I0J-225000D01*
G01*
G37*
G36*
G01*
X211071000Y-118321000D02*
X211071000Y-118821000D01*
G75*
G02*
X210846000Y-119046000I-225000J0D01*
G01*
X210396000Y-119046000D01*
G75*
G02*
X210171000Y-118821000I0J225000D01*
G01*
X210171000Y-118321000D01*
G75*
G02*
X210396000Y-118096000I225000J0D01*
G01*
X210846000Y-118096000D01*
G75*
G02*
X211071000Y-118321000I0J-225000D01*
G01*
G37*
G36*
G01*
X203549500Y-137592000D02*
X203549500Y-137252000D01*
G75*
G02*
X203689500Y-137112000I140000J0D01*
G01*
X203969500Y-137112000D01*
G75*
G02*
X204109500Y-137252000I0J-140000D01*
G01*
X204109500Y-137592000D01*
G75*
G02*
X203969500Y-137732000I-140000J0D01*
G01*
X203689500Y-137732000D01*
G75*
G02*
X203549500Y-137592000I0J140000D01*
G01*
G37*
G36*
G01*
X202589500Y-137592000D02*
X202589500Y-137252000D01*
G75*
G02*
X202729500Y-137112000I140000J0D01*
G01*
X203009500Y-137112000D01*
G75*
G02*
X203149500Y-137252000I0J-140000D01*
G01*
X203149500Y-137592000D01*
G75*
G02*
X203009500Y-137732000I-140000J0D01*
G01*
X202729500Y-137732000D01*
G75*
G02*
X202589500Y-137592000I0J140000D01*
G01*
G37*
G36*
G01*
X206522500Y-137252000D02*
X206522500Y-137592000D01*
G75*
G02*
X206382500Y-137732000I-140000J0D01*
G01*
X206102500Y-137732000D01*
G75*
G02*
X205962500Y-137592000I0J140000D01*
G01*
X205962500Y-137252000D01*
G75*
G02*
X206102500Y-137112000I140000J0D01*
G01*
X206382500Y-137112000D01*
G75*
G02*
X206522500Y-137252000I0J-140000D01*
G01*
G37*
G36*
G01*
X205562500Y-137252000D02*
X205562500Y-137592000D01*
G75*
G02*
X205422500Y-137732000I-140000J0D01*
G01*
X205142500Y-137732000D01*
G75*
G02*
X205002500Y-137592000I0J140000D01*
G01*
X205002500Y-137252000D01*
G75*
G02*
X205142500Y-137112000I140000J0D01*
G01*
X205422500Y-137112000D01*
G75*
G02*
X205562500Y-137252000I0J-140000D01*
G01*
G37*
G36*
G01*
X218282500Y-117485500D02*
X219232500Y-117485500D01*
G75*
G02*
X219482500Y-117735500I0J-250000D01*
G01*
X219482500Y-118235500D01*
G75*
G02*
X219232500Y-118485500I-250000J0D01*
G01*
X218282500Y-118485500D01*
G75*
G02*
X218032500Y-118235500I0J250000D01*
G01*
X218032500Y-117735500D01*
G75*
G02*
X218282500Y-117485500I250000J0D01*
G01*
G37*
G36*
G01*
X218282500Y-119385500D02*
X219232500Y-119385500D01*
G75*
G02*
X219482500Y-119635500I0J-250000D01*
G01*
X219482500Y-120135500D01*
G75*
G02*
X219232500Y-120385500I-250000J0D01*
G01*
X218282500Y-120385500D01*
G75*
G02*
X218032500Y-120135500I0J250000D01*
G01*
X218032500Y-119635500D01*
G75*
G02*
X218282500Y-119385500I250000J0D01*
G01*
G37*
G36*
G01*
X219195000Y-129220000D02*
X219195000Y-128670000D01*
G75*
G02*
X219395000Y-128470000I200000J0D01*
G01*
X219795000Y-128470000D01*
G75*
G02*
X219995000Y-128670000I0J-200000D01*
G01*
X219995000Y-129220000D01*
G75*
G02*
X219795000Y-129420000I-200000J0D01*
G01*
X219395000Y-129420000D01*
G75*
G02*
X219195000Y-129220000I0J200000D01*
G01*
G37*
G36*
G01*
X217545000Y-129220000D02*
X217545000Y-128670000D01*
G75*
G02*
X217745000Y-128470000I200000J0D01*
G01*
X218145000Y-128470000D01*
G75*
G02*
X218345000Y-128670000I0J-200000D01*
G01*
X218345000Y-129220000D01*
G75*
G02*
X218145000Y-129420000I-200000J0D01*
G01*
X217745000Y-129420000D01*
G75*
G02*
X217545000Y-129220000I0J200000D01*
G01*
G37*
G36*
G01*
X199855500Y-135781500D02*
X199305500Y-135781500D01*
G75*
G02*
X199105500Y-135581500I0J200000D01*
G01*
X199105500Y-135181500D01*
G75*
G02*
X199305500Y-134981500I200000J0D01*
G01*
X199855500Y-134981500D01*
G75*
G02*
X200055500Y-135181500I0J-200000D01*
G01*
X200055500Y-135581500D01*
G75*
G02*
X199855500Y-135781500I-200000J0D01*
G01*
G37*
G36*
G01*
X199855500Y-134131500D02*
X199305500Y-134131500D01*
G75*
G02*
X199105500Y-133931500I0J200000D01*
G01*
X199105500Y-133531500D01*
G75*
G02*
X199305500Y-133331500I200000J0D01*
G01*
X199855500Y-133331500D01*
G75*
G02*
X200055500Y-133531500I0J-200000D01*
G01*
X200055500Y-133931500D01*
G75*
G02*
X199855500Y-134131500I-200000J0D01*
G01*
G37*
G36*
G01*
X175408000Y-132797000D02*
X174858000Y-132797000D01*
G75*
G02*
X174658000Y-132597000I0J200000D01*
G01*
X174658000Y-132197000D01*
G75*
G02*
X174858000Y-131997000I200000J0D01*
G01*
X175408000Y-131997000D01*
G75*
G02*
X175608000Y-132197000I0J-200000D01*
G01*
X175608000Y-132597000D01*
G75*
G02*
X175408000Y-132797000I-200000J0D01*
G01*
G37*
G36*
G01*
X175408000Y-131147000D02*
X174858000Y-131147000D01*
G75*
G02*
X174658000Y-130947000I0J200000D01*
G01*
X174658000Y-130547000D01*
G75*
G02*
X174858000Y-130347000I200000J0D01*
G01*
X175408000Y-130347000D01*
G75*
G02*
X175608000Y-130547000I0J-200000D01*
G01*
X175608000Y-130947000D01*
G75*
G02*
X175408000Y-131147000I-200000J0D01*
G01*
G37*
G36*
G01*
X213245000Y-123070000D02*
X212745000Y-123070000D01*
G75*
G02*
X212520000Y-122845000I0J225000D01*
G01*
X212520000Y-122395000D01*
G75*
G02*
X212745000Y-122170000I225000J0D01*
G01*
X213245000Y-122170000D01*
G75*
G02*
X213470000Y-122395000I0J-225000D01*
G01*
X213470000Y-122845000D01*
G75*
G02*
X213245000Y-123070000I-225000J0D01*
G01*
G37*
G36*
G01*
X213245000Y-121520000D02*
X212745000Y-121520000D01*
G75*
G02*
X212520000Y-121295000I0J225000D01*
G01*
X212520000Y-120845000D01*
G75*
G02*
X212745000Y-120620000I225000J0D01*
G01*
X213245000Y-120620000D01*
G75*
G02*
X213470000Y-120845000I0J-225000D01*
G01*
X213470000Y-121295000D01*
G75*
G02*
X213245000Y-121520000I-225000J0D01*
G01*
G37*
G36*
G01*
X207781000Y-118399500D02*
X207281000Y-118399500D01*
G75*
G02*
X207056000Y-118174500I0J225000D01*
G01*
X207056000Y-117724500D01*
G75*
G02*
X207281000Y-117499500I225000J0D01*
G01*
X207781000Y-117499500D01*
G75*
G02*
X208006000Y-117724500I0J-225000D01*
G01*
X208006000Y-118174500D01*
G75*
G02*
X207781000Y-118399500I-225000J0D01*
G01*
G37*
G36*
G01*
X207781000Y-116849500D02*
X207281000Y-116849500D01*
G75*
G02*
X207056000Y-116624500I0J225000D01*
G01*
X207056000Y-116174500D01*
G75*
G02*
X207281000Y-115949500I225000J0D01*
G01*
X207781000Y-115949500D01*
G75*
G02*
X208006000Y-116174500I0J-225000D01*
G01*
X208006000Y-116624500D01*
G75*
G02*
X207781000Y-116849500I-225000J0D01*
G01*
G37*
G36*
G01*
X190440500Y-133802000D02*
X190940500Y-133802000D01*
G75*
G02*
X191165500Y-134027000I0J-225000D01*
G01*
X191165500Y-134477000D01*
G75*
G02*
X190940500Y-134702000I-225000J0D01*
G01*
X190440500Y-134702000D01*
G75*
G02*
X190215500Y-134477000I0J225000D01*
G01*
X190215500Y-134027000D01*
G75*
G02*
X190440500Y-133802000I225000J0D01*
G01*
G37*
G36*
G01*
X190440500Y-132252000D02*
X190940500Y-132252000D01*
G75*
G02*
X191165500Y-132477000I0J-225000D01*
G01*
X191165500Y-132927000D01*
G75*
G02*
X190940500Y-133152000I-225000J0D01*
G01*
X190440500Y-133152000D01*
G75*
G02*
X190215500Y-132927000I0J225000D01*
G01*
X190215500Y-132477000D01*
G75*
G02*
X190440500Y-132252000I225000J0D01*
G01*
G37*
G36*
G01*
X188789500Y-132252000D02*
X189289500Y-132252000D01*
G75*
G02*
X189514500Y-132477000I0J-225000D01*
G01*
X189514500Y-132927000D01*
G75*
G02*
X189289500Y-133152000I-225000J0D01*
G01*
X188789500Y-133152000D01*
G75*
G02*
X188564500Y-132927000I0J225000D01*
G01*
X188564500Y-132477000D01*
G75*
G02*
X188789500Y-132252000I225000J0D01*
G01*
G37*
G36*
G01*
X188789500Y-133802000D02*
X189289500Y-133802000D01*
G75*
G02*
X189514500Y-134027000I0J-225000D01*
G01*
X189514500Y-134477000D01*
G75*
G02*
X189289500Y-134702000I-225000J0D01*
G01*
X188789500Y-134702000D01*
G75*
G02*
X188564500Y-134477000I0J225000D01*
G01*
X188564500Y-134027000D01*
G75*
G02*
X188789500Y-133802000I225000J0D01*
G01*
G37*
G36*
G01*
X192130000Y-132252000D02*
X192680000Y-132252000D01*
G75*
G02*
X192880000Y-132452000I0J-200000D01*
G01*
X192880000Y-132852000D01*
G75*
G02*
X192680000Y-133052000I-200000J0D01*
G01*
X192130000Y-133052000D01*
G75*
G02*
X191930000Y-132852000I0J200000D01*
G01*
X191930000Y-132452000D01*
G75*
G02*
X192130000Y-132252000I200000J0D01*
G01*
G37*
G36*
G01*
X192130000Y-133902000D02*
X192680000Y-133902000D01*
G75*
G02*
X192880000Y-134102000I0J-200000D01*
G01*
X192880000Y-134502000D01*
G75*
G02*
X192680000Y-134702000I-200000J0D01*
G01*
X192130000Y-134702000D01*
G75*
G02*
X191930000Y-134502000I0J200000D01*
G01*
X191930000Y-134102000D01*
G75*
G02*
X192130000Y-133902000I200000J0D01*
G01*
G37*
D23*
X178500000Y-71267000D03*
D24*
X160720000Y-63647000D03*
X175960000Y-71267000D03*
X163260000Y-63647000D03*
X173420000Y-71267000D03*
X165800000Y-63647000D03*
X170880000Y-71267000D03*
X168340000Y-63647000D03*
X168340000Y-71267000D03*
X170880000Y-63647000D03*
X165800000Y-71267000D03*
X173420000Y-63647000D03*
X163260000Y-71267000D03*
X175960000Y-63647000D03*
X160720000Y-71267000D03*
X178500000Y-63647000D03*
X202500000Y-63624000D03*
X184720000Y-71244000D03*
X199960000Y-63624000D03*
X187260000Y-71244000D03*
X197420000Y-63624000D03*
X189800000Y-71244000D03*
X194880000Y-63624000D03*
X192340000Y-71244000D03*
X192340000Y-63624000D03*
X194880000Y-71244000D03*
X189800000Y-63624000D03*
X197420000Y-71244000D03*
X187260000Y-63624000D03*
X199960000Y-71244000D03*
X184720000Y-63624000D03*
D23*
X202500000Y-71244000D03*
G36*
G01*
X198245000Y-122420000D02*
X197695000Y-122420000D01*
G75*
G02*
X197495000Y-122220000I0J200000D01*
G01*
X197495000Y-121820000D01*
G75*
G02*
X197695000Y-121620000I200000J0D01*
G01*
X198245000Y-121620000D01*
G75*
G02*
X198445000Y-121820000I0J-200000D01*
G01*
X198445000Y-122220000D01*
G75*
G02*
X198245000Y-122420000I-200000J0D01*
G01*
G37*
G36*
G01*
X198245000Y-120770000D02*
X197695000Y-120770000D01*
G75*
G02*
X197495000Y-120570000I0J200000D01*
G01*
X197495000Y-120170000D01*
G75*
G02*
X197695000Y-119970000I200000J0D01*
G01*
X198245000Y-119970000D01*
G75*
G02*
X198445000Y-120170000I0J-200000D01*
G01*
X198445000Y-120570000D01*
G75*
G02*
X198245000Y-120770000I-200000J0D01*
G01*
G37*
D25*
X221851500Y-123388000D03*
D26*
X226031500Y-129958000D03*
X226031500Y-116818000D03*
D27*
X226631500Y-126888000D03*
X226631500Y-124388000D03*
X226631500Y-122388000D03*
D28*
X226631500Y-119888000D03*
D29*
X68570000Y-54695000D03*
D19*
X63570000Y-54695000D03*
D30*
X211170000Y-122145000D03*
X211170000Y-122945000D03*
X211170000Y-123745000D03*
X211170000Y-124545000D03*
X211170000Y-125345000D03*
X211170000Y-126145000D03*
X211170000Y-126945000D03*
X211170000Y-127745000D03*
X211170000Y-128545000D03*
X211170000Y-129345000D03*
X211170000Y-130145000D03*
D31*
X209470000Y-131845000D03*
X208670000Y-131845000D03*
X207870000Y-131845000D03*
X207070000Y-131845000D03*
X206270000Y-131845000D03*
X205470000Y-131845000D03*
X204670000Y-131845000D03*
X203870000Y-131845000D03*
X203070000Y-131845000D03*
X202270000Y-131845000D03*
X201470000Y-131845000D03*
D30*
X199770000Y-130145000D03*
X199770000Y-129345000D03*
X199770000Y-128545000D03*
X199770000Y-127745000D03*
X199770000Y-126945000D03*
X199770000Y-126145000D03*
X199770000Y-125345000D03*
X199770000Y-124545000D03*
X199770000Y-123745000D03*
X199770000Y-122945000D03*
X199770000Y-122145000D03*
D31*
X201470000Y-120445000D03*
X202270000Y-120445000D03*
X203070000Y-120445000D03*
X203870000Y-120445000D03*
X204670000Y-120445000D03*
X205470000Y-120445000D03*
X206270000Y-120445000D03*
X207070000Y-120445000D03*
X207870000Y-120445000D03*
X208670000Y-120445000D03*
X209470000Y-120445000D03*
D32*
X205470000Y-126145000D03*
G36*
G01*
X219120000Y-130851250D02*
X219120000Y-130338750D01*
G75*
G02*
X219338750Y-130120000I218750J0D01*
G01*
X219776250Y-130120000D01*
G75*
G02*
X219995000Y-130338750I0J-218750D01*
G01*
X219995000Y-130851250D01*
G75*
G02*
X219776250Y-131070000I-218750J0D01*
G01*
X219338750Y-131070000D01*
G75*
G02*
X219120000Y-130851250I0J218750D01*
G01*
G37*
G36*
G01*
X217545000Y-130851250D02*
X217545000Y-130338750D01*
G75*
G02*
X217763750Y-130120000I218750J0D01*
G01*
X218201250Y-130120000D01*
G75*
G02*
X218420000Y-130338750I0J-218750D01*
G01*
X218420000Y-130851250D01*
G75*
G02*
X218201250Y-131070000I-218750J0D01*
G01*
X217763750Y-131070000D01*
G75*
G02*
X217545000Y-130851250I0J218750D01*
G01*
G37*
G36*
G01*
X197673250Y-133331500D02*
X198185750Y-133331500D01*
G75*
G02*
X198404500Y-133550250I0J-218750D01*
G01*
X198404500Y-133987750D01*
G75*
G02*
X198185750Y-134206500I-218750J0D01*
G01*
X197673250Y-134206500D01*
G75*
G02*
X197454500Y-133987750I0J218750D01*
G01*
X197454500Y-133550250D01*
G75*
G02*
X197673250Y-133331500I218750J0D01*
G01*
G37*
G36*
G01*
X197673250Y-134906500D02*
X198185750Y-134906500D01*
G75*
G02*
X198404500Y-135125250I0J-218750D01*
G01*
X198404500Y-135562750D01*
G75*
G02*
X198185750Y-135781500I-218750J0D01*
G01*
X197673250Y-135781500D01*
G75*
G02*
X197454500Y-135562750I0J218750D01*
G01*
X197454500Y-135125250D01*
G75*
G02*
X197673250Y-134906500I218750J0D01*
G01*
G37*
G36*
G01*
X218726250Y-116670000D02*
X218213750Y-116670000D01*
G75*
G02*
X217995000Y-116451250I0J218750D01*
G01*
X217995000Y-116013750D01*
G75*
G02*
X218213750Y-115795000I218750J0D01*
G01*
X218726250Y-115795000D01*
G75*
G02*
X218945000Y-116013750I0J-218750D01*
G01*
X218945000Y-116451250D01*
G75*
G02*
X218726250Y-116670000I-218750J0D01*
G01*
G37*
G36*
G01*
X218726250Y-115095000D02*
X218213750Y-115095000D01*
G75*
G02*
X217995000Y-114876250I0J218750D01*
G01*
X217995000Y-114438750D01*
G75*
G02*
X218213750Y-114220000I218750J0D01*
G01*
X218726250Y-114220000D01*
G75*
G02*
X218945000Y-114438750I0J-218750D01*
G01*
X218945000Y-114876250D01*
G75*
G02*
X218726250Y-115095000I-218750J0D01*
G01*
G37*
M02*
