%TF.GenerationSoftware,KiCad,Pcbnew,(5.1.6)-1*%
%TF.CreationDate,2020-10-11T19:25:41-07:00*%
%TF.ProjectId,Autopilot panel,4175746f-7069-46c6-9f74-2070616e656c,rev?*%
%TF.SameCoordinates,Original*%
%TF.FileFunction,Legend,Bot*%
%TF.FilePolarity,Positive*%
%FSLAX46Y46*%
G04 Gerber Fmt 4.6, Leading zero omitted, Abs format (unit mm)*
G04 Created by KiCad (PCBNEW (5.1.6)-1) date 2020-10-11 19:25:41*
%MOMM*%
%LPD*%
G01*
G04 APERTURE LIST*
%ADD10C,0.150000*%
%ADD11C,0.120000*%
G04 APERTURE END LIST*
D10*
X94595238Y-67333333D02*
X94547619Y-67190476D01*
X94547619Y-66952380D01*
X94595238Y-66857142D01*
X94642857Y-66809523D01*
X94738095Y-66761904D01*
X94833333Y-66761904D01*
X94928571Y-66809523D01*
X94976190Y-66857142D01*
X95023809Y-66952380D01*
X95071428Y-67142857D01*
X95119047Y-67238095D01*
X95166666Y-67285714D01*
X95261904Y-67333333D01*
X95357142Y-67333333D01*
X95452380Y-67285714D01*
X95500000Y-67238095D01*
X95547619Y-67142857D01*
X95547619Y-66904761D01*
X95500000Y-66761904D01*
X95547619Y-66428571D02*
X94547619Y-66190476D01*
X95261904Y-66000000D01*
X94547619Y-65809523D01*
X95547619Y-65571428D01*
X94547619Y-64666666D02*
X94547619Y-65238095D01*
X94547619Y-64952380D02*
X95547619Y-64952380D01*
X95404761Y-65047619D01*
X95309523Y-65142857D01*
X95261904Y-65238095D01*
X94928571Y-119285714D02*
X94928571Y-118523809D01*
X94547619Y-118904761D02*
X95309523Y-118904761D01*
X95547619Y-117571428D02*
X95547619Y-118047619D01*
X95071428Y-118095238D01*
X95119047Y-118047619D01*
X95166666Y-117952380D01*
X95166666Y-117714285D01*
X95119047Y-117619047D01*
X95071428Y-117571428D01*
X94976190Y-117523809D01*
X94738095Y-117523809D01*
X94642857Y-117571428D01*
X94595238Y-117619047D01*
X94547619Y-117714285D01*
X94547619Y-117952380D01*
X94595238Y-118047619D01*
X94642857Y-118095238D01*
X95547619Y-117238095D02*
X94547619Y-116904761D01*
X95547619Y-116571428D01*
X127904761Y-89928571D02*
X128238095Y-89928571D01*
X128238095Y-90452380D02*
X128238095Y-89452380D01*
X127761904Y-89452380D01*
X127238095Y-90452380D02*
X127333333Y-90404761D01*
X127380952Y-90309523D01*
X127380952Y-89452380D01*
X126857142Y-90452380D02*
X126857142Y-89785714D01*
X126857142Y-89452380D02*
X126904761Y-89500000D01*
X126857142Y-89547619D01*
X126809523Y-89500000D01*
X126857142Y-89452380D01*
X126857142Y-89547619D01*
X125952380Y-89785714D02*
X125952380Y-90595238D01*
X126000000Y-90690476D01*
X126047619Y-90738095D01*
X126142857Y-90785714D01*
X126285714Y-90785714D01*
X126380952Y-90738095D01*
X125952380Y-90404761D02*
X126047619Y-90452380D01*
X126238095Y-90452380D01*
X126333333Y-90404761D01*
X126380952Y-90357142D01*
X126428571Y-90261904D01*
X126428571Y-89976190D01*
X126380952Y-89880952D01*
X126333333Y-89833333D01*
X126238095Y-89785714D01*
X126047619Y-89785714D01*
X125952380Y-89833333D01*
X125476190Y-90452380D02*
X125476190Y-89452380D01*
X125047619Y-90452380D02*
X125047619Y-89928571D01*
X125095238Y-89833333D01*
X125190476Y-89785714D01*
X125333333Y-89785714D01*
X125428571Y-89833333D01*
X125476190Y-89880952D01*
X124714285Y-89785714D02*
X124333333Y-89785714D01*
X124571428Y-89452380D02*
X124571428Y-90309523D01*
X124523809Y-90404761D01*
X124428571Y-90452380D01*
X124333333Y-90452380D01*
X123285714Y-90404761D02*
X123190476Y-90452380D01*
X123000000Y-90452380D01*
X122904761Y-90404761D01*
X122857142Y-90309523D01*
X122857142Y-90261904D01*
X122904761Y-90166666D01*
X123000000Y-90119047D01*
X123142857Y-90119047D01*
X123238095Y-90071428D01*
X123285714Y-89976190D01*
X123285714Y-89928571D01*
X123238095Y-89833333D01*
X123142857Y-89785714D01*
X123000000Y-89785714D01*
X122904761Y-89833333D01*
X122428571Y-90452380D02*
X122428571Y-89785714D01*
X122428571Y-89452380D02*
X122476190Y-89500000D01*
X122428571Y-89547619D01*
X122380952Y-89500000D01*
X122428571Y-89452380D01*
X122428571Y-89547619D01*
X121952380Y-90452380D02*
X121952380Y-89785714D01*
X121952380Y-89880952D02*
X121904761Y-89833333D01*
X121809523Y-89785714D01*
X121666666Y-89785714D01*
X121571428Y-89833333D01*
X121523809Y-89928571D01*
X121523809Y-90452380D01*
X121523809Y-89928571D02*
X121476190Y-89833333D01*
X121380952Y-89785714D01*
X121238095Y-89785714D01*
X121142857Y-89833333D01*
X121095238Y-89928571D01*
X121095238Y-90452380D01*
X120190476Y-89785714D02*
X120190476Y-90452380D01*
X120619047Y-89785714D02*
X120619047Y-90309523D01*
X120571428Y-90404761D01*
X120476190Y-90452380D01*
X120333333Y-90452380D01*
X120238095Y-90404761D01*
X120190476Y-90357142D01*
X119571428Y-90452380D02*
X119666666Y-90404761D01*
X119714285Y-90309523D01*
X119714285Y-89452380D01*
X118761904Y-90452380D02*
X118761904Y-89928571D01*
X118809523Y-89833333D01*
X118904761Y-89785714D01*
X119095238Y-89785714D01*
X119190476Y-89833333D01*
X118761904Y-90404761D02*
X118857142Y-90452380D01*
X119095238Y-90452380D01*
X119190476Y-90404761D01*
X119238095Y-90309523D01*
X119238095Y-90214285D01*
X119190476Y-90119047D01*
X119095238Y-90071428D01*
X118857142Y-90071428D01*
X118761904Y-90023809D01*
X118428571Y-89785714D02*
X118047619Y-89785714D01*
X118285714Y-89452380D02*
X118285714Y-90309523D01*
X118238095Y-90404761D01*
X118142857Y-90452380D01*
X118047619Y-90452380D01*
X117571428Y-90452380D02*
X117666666Y-90404761D01*
X117714285Y-90357142D01*
X117761904Y-90261904D01*
X117761904Y-89976190D01*
X117714285Y-89880952D01*
X117666666Y-89833333D01*
X117571428Y-89785714D01*
X117428571Y-89785714D01*
X117333333Y-89833333D01*
X117285714Y-89880952D01*
X117238095Y-89976190D01*
X117238095Y-90261904D01*
X117285714Y-90357142D01*
X117333333Y-90404761D01*
X117428571Y-90452380D01*
X117571428Y-90452380D01*
X116809523Y-90452380D02*
X116809523Y-89785714D01*
X116809523Y-89976190D02*
X116761904Y-89880952D01*
X116714285Y-89833333D01*
X116619047Y-89785714D01*
X116523809Y-89785714D01*
X115428571Y-90452380D02*
X115428571Y-89452380D01*
X115333333Y-90071428D02*
X115047619Y-90452380D01*
X115047619Y-89785714D02*
X115428571Y-90166666D01*
X114619047Y-89785714D02*
X114619047Y-90452380D01*
X114619047Y-89880952D02*
X114571428Y-89833333D01*
X114476190Y-89785714D01*
X114333333Y-89785714D01*
X114238095Y-89833333D01*
X114190476Y-89928571D01*
X114190476Y-90452380D01*
X113571428Y-90452380D02*
X113666666Y-90404761D01*
X113714285Y-90357142D01*
X113761904Y-90261904D01*
X113761904Y-89976190D01*
X113714285Y-89880952D01*
X113666666Y-89833333D01*
X113571428Y-89785714D01*
X113428571Y-89785714D01*
X113333333Y-89833333D01*
X113285714Y-89880952D01*
X113238095Y-89976190D01*
X113238095Y-90261904D01*
X113285714Y-90357142D01*
X113333333Y-90404761D01*
X113428571Y-90452380D01*
X113571428Y-90452380D01*
X112809523Y-90452380D02*
X112809523Y-89452380D01*
X112809523Y-89833333D02*
X112714285Y-89785714D01*
X112523809Y-89785714D01*
X112428571Y-89833333D01*
X112380952Y-89880952D01*
X112333333Y-89976190D01*
X112333333Y-90261904D01*
X112380952Y-90357142D01*
X112428571Y-90404761D01*
X112523809Y-90452380D01*
X112714285Y-90452380D01*
X112809523Y-90404761D01*
X111952380Y-90404761D02*
X111857142Y-90452380D01*
X111666666Y-90452380D01*
X111571428Y-90404761D01*
X111523809Y-90309523D01*
X111523809Y-90261904D01*
X111571428Y-90166666D01*
X111666666Y-90119047D01*
X111809523Y-90119047D01*
X111904761Y-90071428D01*
X111952380Y-89976190D01*
X111952380Y-89928571D01*
X111904761Y-89833333D01*
X111809523Y-89785714D01*
X111666666Y-89785714D01*
X111571428Y-89833333D01*
X109904761Y-90452380D02*
X109904761Y-89928571D01*
X109952380Y-89833333D01*
X110047619Y-89785714D01*
X110238095Y-89785714D01*
X110333333Y-89833333D01*
X109904761Y-90404761D02*
X110000000Y-90452380D01*
X110238095Y-90452380D01*
X110333333Y-90404761D01*
X110380952Y-90309523D01*
X110380952Y-90214285D01*
X110333333Y-90119047D01*
X110238095Y-90071428D01*
X110000000Y-90071428D01*
X109904761Y-90023809D01*
X109428571Y-89785714D02*
X109428571Y-90452380D01*
X109428571Y-89880952D02*
X109380952Y-89833333D01*
X109285714Y-89785714D01*
X109142857Y-89785714D01*
X109047619Y-89833333D01*
X109000000Y-89928571D01*
X109000000Y-90452380D01*
X108095238Y-90452380D02*
X108095238Y-89452380D01*
X108095238Y-90404761D02*
X108190476Y-90452380D01*
X108380952Y-90452380D01*
X108476190Y-90404761D01*
X108523809Y-90357142D01*
X108571428Y-90261904D01*
X108571428Y-89976190D01*
X108523809Y-89880952D01*
X108476190Y-89833333D01*
X108380952Y-89785714D01*
X108190476Y-89785714D01*
X108095238Y-89833333D01*
X106857142Y-90452380D02*
X106857142Y-89452380D01*
X106857142Y-89833333D02*
X106761904Y-89785714D01*
X106571428Y-89785714D01*
X106476190Y-89833333D01*
X106428571Y-89880952D01*
X106380952Y-89976190D01*
X106380952Y-90261904D01*
X106428571Y-90357142D01*
X106476190Y-90404761D01*
X106571428Y-90452380D01*
X106761904Y-90452380D01*
X106857142Y-90404761D01*
X105523809Y-89785714D02*
X105523809Y-90452380D01*
X105952380Y-89785714D02*
X105952380Y-90309523D01*
X105904761Y-90404761D01*
X105809523Y-90452380D01*
X105666666Y-90452380D01*
X105571428Y-90404761D01*
X105523809Y-90357142D01*
X105190476Y-89785714D02*
X104809523Y-89785714D01*
X105047619Y-89452380D02*
X105047619Y-90309523D01*
X105000000Y-90404761D01*
X104904761Y-90452380D01*
X104809523Y-90452380D01*
X104619047Y-89785714D02*
X104238095Y-89785714D01*
X104476190Y-89452380D02*
X104476190Y-90309523D01*
X104428571Y-90404761D01*
X104333333Y-90452380D01*
X104238095Y-90452380D01*
X103761904Y-90452380D02*
X103857142Y-90404761D01*
X103904761Y-90357142D01*
X103952380Y-90261904D01*
X103952380Y-89976190D01*
X103904761Y-89880952D01*
X103857142Y-89833333D01*
X103761904Y-89785714D01*
X103619047Y-89785714D01*
X103523809Y-89833333D01*
X103476190Y-89880952D01*
X103428571Y-89976190D01*
X103428571Y-90261904D01*
X103476190Y-90357142D01*
X103523809Y-90404761D01*
X103619047Y-90452380D01*
X103761904Y-90452380D01*
X103000000Y-89785714D02*
X103000000Y-90452380D01*
X103000000Y-89880952D02*
X102952380Y-89833333D01*
X102857142Y-89785714D01*
X102714285Y-89785714D01*
X102619047Y-89833333D01*
X102571428Y-89928571D01*
X102571428Y-90452380D01*
X102142857Y-90404761D02*
X102047619Y-90452380D01*
X101857142Y-90452380D01*
X101761904Y-90404761D01*
X101714285Y-90309523D01*
X101714285Y-90261904D01*
X101761904Y-90166666D01*
X101857142Y-90119047D01*
X102000000Y-90119047D01*
X102095238Y-90071428D01*
X102142857Y-89976190D01*
X102142857Y-89928571D01*
X102095238Y-89833333D01*
X102000000Y-89785714D01*
X101857142Y-89785714D01*
X101761904Y-89833333D01*
D11*
%TO.C,J2*%
X96420000Y-113670000D02*
X96420000Y-115000000D01*
X97750000Y-113670000D02*
X96420000Y-113670000D01*
X96420000Y-116270000D02*
X96420000Y-118870000D01*
X99020000Y-116270000D02*
X96420000Y-116270000D01*
X99020000Y-113670000D02*
X99020000Y-116270000D01*
X96420000Y-118870000D02*
X134640000Y-118870000D01*
X99020000Y-113670000D02*
X134640000Y-113670000D01*
X134640000Y-113670000D02*
X134640000Y-118870000D01*
%TO.C,J8*%
X134640000Y-64670000D02*
X134640000Y-69870000D01*
X99020000Y-64670000D02*
X134640000Y-64670000D01*
X96420000Y-69870000D02*
X134640000Y-69870000D01*
X99020000Y-64670000D02*
X99020000Y-67270000D01*
X99020000Y-67270000D02*
X96420000Y-67270000D01*
X96420000Y-67270000D02*
X96420000Y-69870000D01*
X97750000Y-64670000D02*
X96420000Y-64670000D01*
X96420000Y-64670000D02*
X96420000Y-66000000D01*
%TO.C,C1*%
X40045225Y-82025000D02*
X40045225Y-81525000D01*
X39795225Y-81775000D02*
X40295225Y-81775000D01*
X45201000Y-80584000D02*
X45201000Y-80016000D01*
X45161000Y-80818000D02*
X45161000Y-79782000D01*
X45121000Y-80977000D02*
X45121000Y-79623000D01*
X45081000Y-81105000D02*
X45081000Y-79495000D01*
X45041000Y-81215000D02*
X45041000Y-79385000D01*
X45001000Y-81311000D02*
X45001000Y-79289000D01*
X44961000Y-81398000D02*
X44961000Y-79202000D01*
X44921000Y-81478000D02*
X44921000Y-79122000D01*
X44881000Y-81551000D02*
X44881000Y-79049000D01*
X44841000Y-81619000D02*
X44841000Y-78981000D01*
X44801000Y-81683000D02*
X44801000Y-78917000D01*
X44761000Y-81743000D02*
X44761000Y-78857000D01*
X44721000Y-81800000D02*
X44721000Y-78800000D01*
X44681000Y-81854000D02*
X44681000Y-78746000D01*
X44641000Y-81905000D02*
X44641000Y-78695000D01*
X44601000Y-79260000D02*
X44601000Y-78647000D01*
X44601000Y-81953000D02*
X44601000Y-81340000D01*
X44561000Y-79260000D02*
X44561000Y-78601000D01*
X44561000Y-81999000D02*
X44561000Y-81340000D01*
X44521000Y-79260000D02*
X44521000Y-78557000D01*
X44521000Y-82043000D02*
X44521000Y-81340000D01*
X44481000Y-79260000D02*
X44481000Y-78515000D01*
X44481000Y-82085000D02*
X44481000Y-81340000D01*
X44441000Y-79260000D02*
X44441000Y-78474000D01*
X44441000Y-82126000D02*
X44441000Y-81340000D01*
X44401000Y-79260000D02*
X44401000Y-78436000D01*
X44401000Y-82164000D02*
X44401000Y-81340000D01*
X44361000Y-79260000D02*
X44361000Y-78399000D01*
X44361000Y-82201000D02*
X44361000Y-81340000D01*
X44321000Y-79260000D02*
X44321000Y-78363000D01*
X44321000Y-82237000D02*
X44321000Y-81340000D01*
X44281000Y-79260000D02*
X44281000Y-78329000D01*
X44281000Y-82271000D02*
X44281000Y-81340000D01*
X44241000Y-79260000D02*
X44241000Y-78296000D01*
X44241000Y-82304000D02*
X44241000Y-81340000D01*
X44201000Y-79260000D02*
X44201000Y-78265000D01*
X44201000Y-82335000D02*
X44201000Y-81340000D01*
X44161000Y-79260000D02*
X44161000Y-78235000D01*
X44161000Y-82365000D02*
X44161000Y-81340000D01*
X44121000Y-79260000D02*
X44121000Y-78205000D01*
X44121000Y-82395000D02*
X44121000Y-81340000D01*
X44081000Y-79260000D02*
X44081000Y-78178000D01*
X44081000Y-82422000D02*
X44081000Y-81340000D01*
X44041000Y-79260000D02*
X44041000Y-78151000D01*
X44041000Y-82449000D02*
X44041000Y-81340000D01*
X44001000Y-79260000D02*
X44001000Y-78125000D01*
X44001000Y-82475000D02*
X44001000Y-81340000D01*
X43961000Y-79260000D02*
X43961000Y-78100000D01*
X43961000Y-82500000D02*
X43961000Y-81340000D01*
X43921000Y-79260000D02*
X43921000Y-78076000D01*
X43921000Y-82524000D02*
X43921000Y-81340000D01*
X43881000Y-79260000D02*
X43881000Y-78053000D01*
X43881000Y-82547000D02*
X43881000Y-81340000D01*
X43841000Y-79260000D02*
X43841000Y-78032000D01*
X43841000Y-82568000D02*
X43841000Y-81340000D01*
X43801000Y-79260000D02*
X43801000Y-78010000D01*
X43801000Y-82590000D02*
X43801000Y-81340000D01*
X43761000Y-79260000D02*
X43761000Y-77990000D01*
X43761000Y-82610000D02*
X43761000Y-81340000D01*
X43721000Y-79260000D02*
X43721000Y-77971000D01*
X43721000Y-82629000D02*
X43721000Y-81340000D01*
X43681000Y-79260000D02*
X43681000Y-77952000D01*
X43681000Y-82648000D02*
X43681000Y-81340000D01*
X43641000Y-79260000D02*
X43641000Y-77935000D01*
X43641000Y-82665000D02*
X43641000Y-81340000D01*
X43601000Y-79260000D02*
X43601000Y-77918000D01*
X43601000Y-82682000D02*
X43601000Y-81340000D01*
X43561000Y-79260000D02*
X43561000Y-77902000D01*
X43561000Y-82698000D02*
X43561000Y-81340000D01*
X43521000Y-79260000D02*
X43521000Y-77886000D01*
X43521000Y-82714000D02*
X43521000Y-81340000D01*
X43481000Y-79260000D02*
X43481000Y-77872000D01*
X43481000Y-82728000D02*
X43481000Y-81340000D01*
X43441000Y-79260000D02*
X43441000Y-77858000D01*
X43441000Y-82742000D02*
X43441000Y-81340000D01*
X43401000Y-79260000D02*
X43401000Y-77845000D01*
X43401000Y-82755000D02*
X43401000Y-81340000D01*
X43361000Y-79260000D02*
X43361000Y-77832000D01*
X43361000Y-82768000D02*
X43361000Y-81340000D01*
X43321000Y-79260000D02*
X43321000Y-77820000D01*
X43321000Y-82780000D02*
X43321000Y-81340000D01*
X43280000Y-79260000D02*
X43280000Y-77809000D01*
X43280000Y-82791000D02*
X43280000Y-81340000D01*
X43240000Y-79260000D02*
X43240000Y-77799000D01*
X43240000Y-82801000D02*
X43240000Y-81340000D01*
X43200000Y-79260000D02*
X43200000Y-77789000D01*
X43200000Y-82811000D02*
X43200000Y-81340000D01*
X43160000Y-79260000D02*
X43160000Y-77780000D01*
X43160000Y-82820000D02*
X43160000Y-81340000D01*
X43120000Y-79260000D02*
X43120000Y-77772000D01*
X43120000Y-82828000D02*
X43120000Y-81340000D01*
X43080000Y-79260000D02*
X43080000Y-77764000D01*
X43080000Y-82836000D02*
X43080000Y-81340000D01*
X43040000Y-79260000D02*
X43040000Y-77757000D01*
X43040000Y-82843000D02*
X43040000Y-81340000D01*
X43000000Y-79260000D02*
X43000000Y-77750000D01*
X43000000Y-82850000D02*
X43000000Y-81340000D01*
X42960000Y-79260000D02*
X42960000Y-77744000D01*
X42960000Y-82856000D02*
X42960000Y-81340000D01*
X42920000Y-79260000D02*
X42920000Y-77739000D01*
X42920000Y-82861000D02*
X42920000Y-81340000D01*
X42880000Y-79260000D02*
X42880000Y-77735000D01*
X42880000Y-82865000D02*
X42880000Y-81340000D01*
X42840000Y-79260000D02*
X42840000Y-77731000D01*
X42840000Y-82869000D02*
X42840000Y-81340000D01*
X42800000Y-79260000D02*
X42800000Y-77727000D01*
X42800000Y-82873000D02*
X42800000Y-81340000D01*
X42760000Y-79260000D02*
X42760000Y-77724000D01*
X42760000Y-82876000D02*
X42760000Y-81340000D01*
X42720000Y-79260000D02*
X42720000Y-77722000D01*
X42720000Y-82878000D02*
X42720000Y-81340000D01*
X42680000Y-79260000D02*
X42680000Y-77721000D01*
X42680000Y-82879000D02*
X42680000Y-81340000D01*
X42640000Y-82880000D02*
X42640000Y-81340000D01*
X42640000Y-79260000D02*
X42640000Y-77720000D01*
X42600000Y-82880000D02*
X42600000Y-81340000D01*
X42600000Y-79260000D02*
X42600000Y-77720000D01*
X45220000Y-80300000D02*
G75*
G03*
X45220000Y-80300000I-2620000J0D01*
G01*
%TO.C,J2*%
D10*
X97333333Y-111452380D02*
X97333333Y-112166666D01*
X97380952Y-112309523D01*
X97476190Y-112404761D01*
X97619047Y-112452380D01*
X97714285Y-112452380D01*
X96904761Y-111547619D02*
X96857142Y-111500000D01*
X96761904Y-111452380D01*
X96523809Y-111452380D01*
X96428571Y-111500000D01*
X96380952Y-111547619D01*
X96333333Y-111642857D01*
X96333333Y-111738095D01*
X96380952Y-111880952D01*
X96952380Y-112452380D01*
X96333333Y-112452380D01*
%TO.C,J8*%
X98333333Y-70452380D02*
X98333333Y-71166666D01*
X98380952Y-71309523D01*
X98476190Y-71404761D01*
X98619047Y-71452380D01*
X98714285Y-71452380D01*
X97714285Y-70880952D02*
X97809523Y-70833333D01*
X97857142Y-70785714D01*
X97904761Y-70690476D01*
X97904761Y-70642857D01*
X97857142Y-70547619D01*
X97809523Y-70500000D01*
X97714285Y-70452380D01*
X97523809Y-70452380D01*
X97428571Y-70500000D01*
X97380952Y-70547619D01*
X97333333Y-70642857D01*
X97333333Y-70690476D01*
X97380952Y-70785714D01*
X97428571Y-70833333D01*
X97523809Y-70880952D01*
X97714285Y-70880952D01*
X97809523Y-70928571D01*
X97857142Y-70976190D01*
X97904761Y-71071428D01*
X97904761Y-71261904D01*
X97857142Y-71357142D01*
X97809523Y-71404761D01*
X97714285Y-71452380D01*
X97523809Y-71452380D01*
X97428571Y-71404761D01*
X97380952Y-71357142D01*
X97333333Y-71261904D01*
X97333333Y-71071428D01*
X97380952Y-70976190D01*
X97428571Y-70928571D01*
X97523809Y-70880952D01*
%TO.C,C1*%
X42766666Y-77057142D02*
X42814285Y-77104761D01*
X42957142Y-77152380D01*
X43052380Y-77152380D01*
X43195238Y-77104761D01*
X43290476Y-77009523D01*
X43338095Y-76914285D01*
X43385714Y-76723809D01*
X43385714Y-76580952D01*
X43338095Y-76390476D01*
X43290476Y-76295238D01*
X43195238Y-76200000D01*
X43052380Y-76152380D01*
X42957142Y-76152380D01*
X42814285Y-76200000D01*
X42766666Y-76247619D01*
X41814285Y-77152380D02*
X42385714Y-77152380D01*
X42100000Y-77152380D02*
X42100000Y-76152380D01*
X42195238Y-76295238D01*
X42290476Y-76390476D01*
X42385714Y-76438095D01*
%TD*%
M02*
