%TF.GenerationSoftware,KiCad,Pcbnew,(5.1.6)-1*%
%TF.CreationDate,2020-10-09T15:00:49-07:00*%
%TF.ProjectId,Autopilot panel,4175746f-7069-46c6-9f74-2070616e656c,rev?*%
%TF.SameCoordinates,Original*%
%TF.FileFunction,Soldermask,Bot*%
%TF.FilePolarity,Negative*%
%FSLAX46Y46*%
G04 Gerber Fmt 4.6, Leading zero omitted, Abs format (unit mm)*
G04 Created by KiCad (PCBNEW (5.1.6)-1) date 2020-10-09 15:00:49*
%MOMM*%
%LPD*%
G01*
G04 APERTURE LIST*
%ADD10C,1.900000*%
%ADD11C,5.050000*%
%ADD12C,3.100000*%
%ADD13R,1.900000X1.900000*%
%ADD14C,1.550000*%
%ADD15O,2.000000X1.300000*%
%ADD16R,1.800000X1.800000*%
%ADD17O,1.800000X1.800000*%
%ADD18C,2.100000*%
G04 APERTURE END LIST*
D10*
%TO.C,J6*%
X139000000Y-105000000D03*
X144000000Y-105000000D03*
X141500000Y-105000000D03*
X139000000Y-90500000D03*
X144000000Y-90500000D03*
D11*
X136850000Y-97500000D03*
X146150000Y-97500000D03*
%TD*%
D12*
%TO.C,HOLE4*%
X177000000Y-68000000D03*
%TD*%
%TO.C,HOLE3*%
X177000000Y-116000000D03*
%TD*%
%TO.C,HOLE2*%
X54000000Y-116000000D03*
%TD*%
%TO.C,HOLE1*%
X54000000Y-68000000D03*
%TD*%
D13*
%TO.C,D1*%
X62000000Y-74000000D03*
D10*
X64540000Y-74000000D03*
%TD*%
%TO.C,D2*%
X90540000Y-74000000D03*
D13*
X88000000Y-74000000D03*
%TD*%
%TO.C,D3*%
X114000000Y-74000000D03*
D10*
X116540000Y-74000000D03*
%TD*%
%TO.C,D4*%
X142540000Y-74000000D03*
D13*
X140000000Y-74000000D03*
%TD*%
%TO.C,D5*%
X166000000Y-74000000D03*
D10*
X168540000Y-74000000D03*
%TD*%
D14*
%TO.C,J1*%
X53162500Y-79500000D03*
X53162500Y-84500000D03*
D15*
X50462500Y-78500000D03*
X50462500Y-85500000D03*
%TD*%
D16*
%TO.C,J2*%
X100000000Y-117000000D03*
D17*
X100000000Y-114460000D03*
X102540000Y-117000000D03*
X102540000Y-114460000D03*
X105080000Y-117000000D03*
X105080000Y-114460000D03*
X107620000Y-117000000D03*
X107620000Y-114460000D03*
X110160000Y-117000000D03*
X110160000Y-114460000D03*
X112700000Y-117000000D03*
X112700000Y-114460000D03*
X115240000Y-117000000D03*
X115240000Y-114460000D03*
X117780000Y-117000000D03*
X117780000Y-114460000D03*
X120320000Y-117000000D03*
X120320000Y-114460000D03*
X122860000Y-117000000D03*
X122860000Y-114460000D03*
X125400000Y-117000000D03*
X125400000Y-114460000D03*
X127940000Y-117000000D03*
X127940000Y-114460000D03*
X130480000Y-117000000D03*
X130480000Y-114460000D03*
X133020000Y-117000000D03*
X133020000Y-114460000D03*
X135560000Y-117000000D03*
X135560000Y-114460000D03*
%TD*%
D10*
%TO.C,J3*%
X61000000Y-105000000D03*
X66000000Y-105000000D03*
X63500000Y-105000000D03*
X61000000Y-90500000D03*
X66000000Y-90500000D03*
D11*
X58850000Y-97500000D03*
X68150000Y-97500000D03*
%TD*%
D10*
%TO.C,J4*%
X87000000Y-105000000D03*
X92000000Y-105000000D03*
X89500000Y-105000000D03*
X87000000Y-90500000D03*
X92000000Y-90500000D03*
D11*
X84850000Y-97500000D03*
X94150000Y-97500000D03*
%TD*%
%TO.C,J5*%
X120150000Y-97500000D03*
X110850000Y-97500000D03*
D10*
X118000000Y-90500000D03*
X113000000Y-90500000D03*
X115500000Y-105000000D03*
X118000000Y-105000000D03*
X113000000Y-105000000D03*
%TD*%
D11*
%TO.C,J7*%
X172150000Y-97500000D03*
X162850000Y-97500000D03*
D10*
X170000000Y-90500000D03*
X165000000Y-90500000D03*
X167500000Y-105000000D03*
X170000000Y-105000000D03*
X165000000Y-105000000D03*
%TD*%
D18*
%TO.C,SW1*%
X60000000Y-85500000D03*
X60000000Y-81000000D03*
X66500000Y-85500000D03*
X66500000Y-81000000D03*
%TD*%
%TO.C,SW2*%
X92500000Y-81000000D03*
X92500000Y-85500000D03*
X86000000Y-81000000D03*
X86000000Y-85500000D03*
%TD*%
%TO.C,SW3*%
X112000000Y-85500000D03*
X112000000Y-81000000D03*
X118500000Y-85500000D03*
X118500000Y-81000000D03*
%TD*%
%TO.C,SW4*%
X144500000Y-81000000D03*
X144500000Y-85500000D03*
X138000000Y-81000000D03*
X138000000Y-85500000D03*
%TD*%
%TO.C,SW5*%
X164000000Y-85500000D03*
X164000000Y-81000000D03*
X170500000Y-85500000D03*
X170500000Y-81000000D03*
%TD*%
M02*
