%TF.GenerationSoftware,KiCad,Pcbnew,(5.1.6)-1*%
%TF.CreationDate,2020-10-11T19:25:40-07:00*%
%TF.ProjectId,Autopilot panel,4175746f-7069-46c6-9f74-2070616e656c,rev?*%
%TF.SameCoordinates,Original*%
%TF.FileFunction,Copper,L2,Bot*%
%TF.FilePolarity,Positive*%
%FSLAX46Y46*%
G04 Gerber Fmt 4.6, Leading zero omitted, Abs format (unit mm)*
G04 Created by KiCad (PCBNEW (5.1.6)-1) date 2020-10-11 19:25:40*
%MOMM*%
%LPD*%
G01*
G04 APERTURE LIST*
%TA.AperFunction,ComponentPad*%
%ADD10C,1.800000*%
%TD*%
%TA.AperFunction,ComponentPad*%
%ADD11C,4.950000*%
%TD*%
%TA.AperFunction,ComponentPad*%
%ADD12C,1.450000*%
%TD*%
%TA.AperFunction,ComponentPad*%
%ADD13O,1.900000X1.200000*%
%TD*%
%TA.AperFunction,ComponentPad*%
%ADD14C,2.000000*%
%TD*%
%TA.AperFunction,ComponentPad*%
%ADD15O,1.700000X1.700000*%
%TD*%
%TA.AperFunction,ComponentPad*%
%ADD16R,1.700000X1.700000*%
%TD*%
%TA.AperFunction,ComponentPad*%
%ADD17R,1.800000X1.070000*%
%TD*%
%TA.AperFunction,ComponentPad*%
%ADD18O,1.800000X1.070000*%
%TD*%
%TA.AperFunction,ComponentPad*%
%ADD19R,1.600000X1.600000*%
%TD*%
%TA.AperFunction,ComponentPad*%
%ADD20C,1.600000*%
%TD*%
%TA.AperFunction,ViaPad*%
%ADD21C,0.800000*%
%TD*%
%TA.AperFunction,Conductor*%
%ADD22C,0.250000*%
%TD*%
%TA.AperFunction,Conductor*%
%ADD23C,0.254000*%
%TD*%
G04 APERTURE END LIST*
D10*
%TO.P,J6,A1*%
%TO.N,/sheet5F811AC6/A1*%
X145000000Y-108000000D03*
%TO.P,J6,B1*%
%TO.N,/sheet5F811AC6/B1*%
X150000000Y-108000000D03*
%TO.P,J6,C1*%
%TO.N,GND*%
X147500000Y-108000000D03*
%TO.P,J6,D1*%
%TO.N,ENC4_SW*%
X145000000Y-93500000D03*
%TO.P,J6,E1*%
%TO.N,GND*%
X150000000Y-93500000D03*
D11*
%TO.P,J6,MH1*%
%TO.N,Net-(J6-PadMH1)*%
X142850000Y-100500000D03*
%TO.P,J6,MH2*%
%TO.N,Net-(J6-PadMH2)*%
X152150000Y-100500000D03*
%TD*%
D12*
%TO.P,J1,6*%
%TO.N,Net-(J1-Pad6)*%
X37162500Y-83500000D03*
X37162500Y-88500000D03*
D13*
X34462500Y-82500000D03*
X34462500Y-89500000D03*
%TD*%
D10*
%TO.P,J3,A1*%
%TO.N,/Sheet5F80EAAA/A1*%
X49000000Y-108000000D03*
%TO.P,J3,B1*%
%TO.N,/Sheet5F80EAAA/B1*%
X54000000Y-108000000D03*
%TO.P,J3,C1*%
%TO.N,GND*%
X51500000Y-108000000D03*
%TO.P,J3,D1*%
%TO.N,ENC1_SW*%
X49000000Y-93500000D03*
%TO.P,J3,E1*%
%TO.N,GND*%
X54000000Y-93500000D03*
D11*
%TO.P,J3,MH1*%
%TO.N,Net-(J3-PadMH1)*%
X46850000Y-100500000D03*
%TO.P,J3,MH2*%
%TO.N,Net-(J3-PadMH2)*%
X56150000Y-100500000D03*
%TD*%
D10*
%TO.P,J4,A1*%
%TO.N,/sheet5F811880/A1*%
X81000000Y-108000000D03*
%TO.P,J4,B1*%
%TO.N,/sheet5F811880/B1*%
X86000000Y-108000000D03*
%TO.P,J4,C1*%
%TO.N,GND*%
X83500000Y-108000000D03*
%TO.P,J4,D1*%
%TO.N,ENC2_SW*%
X81000000Y-93500000D03*
%TO.P,J4,E1*%
%TO.N,GND*%
X86000000Y-93500000D03*
D11*
%TO.P,J4,MH1*%
%TO.N,Net-(J4-PadMH1)*%
X78850000Y-100500000D03*
%TO.P,J4,MH2*%
%TO.N,Net-(J4-PadMH2)*%
X88150000Y-100500000D03*
%TD*%
%TO.P,J5,MH2*%
%TO.N,Net-(J5-PadMH2)*%
X120150000Y-100500000D03*
%TO.P,J5,MH1*%
%TO.N,Net-(J5-PadMH1)*%
X110850000Y-100500000D03*
D10*
%TO.P,J5,E1*%
%TO.N,GND*%
X118000000Y-93500000D03*
%TO.P,J5,D1*%
%TO.N,ENC3_SW*%
X113000000Y-93500000D03*
%TO.P,J5,C1*%
%TO.N,GND*%
X115500000Y-108000000D03*
%TO.P,J5,B1*%
%TO.N,/sheet5F81197D/B1*%
X118000000Y-108000000D03*
%TO.P,J5,A1*%
%TO.N,/sheet5F81197D/A1*%
X113000000Y-108000000D03*
%TD*%
D11*
%TO.P,J7,MH2*%
%TO.N,Net-(J7-PadMH2)*%
X184150000Y-100500000D03*
%TO.P,J7,MH1*%
%TO.N,Net-(J7-PadMH1)*%
X174850000Y-100500000D03*
D10*
%TO.P,J7,E1*%
%TO.N,GND*%
X182000000Y-93500000D03*
%TO.P,J7,D1*%
%TO.N,ENC5_SW*%
X177000000Y-93500000D03*
%TO.P,J7,C1*%
%TO.N,GND*%
X179500000Y-108000000D03*
%TO.P,J7,B1*%
%TO.N,/sheet5F811C1F/B1*%
X182000000Y-108000000D03*
%TO.P,J7,A1*%
%TO.N,/sheet5F811C1F/A1*%
X177000000Y-108000000D03*
%TD*%
D14*
%TO.P,SW1,2*%
%TO.N,SW1*%
X48000000Y-86500000D03*
%TO.P,SW1,1*%
%TO.N,GND*%
X48000000Y-82000000D03*
%TO.P,SW1,2*%
%TO.N,SW1*%
X54500000Y-86500000D03*
%TO.P,SW1,1*%
%TO.N,GND*%
X54500000Y-82000000D03*
%TD*%
%TO.P,SW2,1*%
%TO.N,GND*%
X86500000Y-82000000D03*
%TO.P,SW2,2*%
%TO.N,SW2*%
X86500000Y-86500000D03*
%TO.P,SW2,1*%
%TO.N,GND*%
X80000000Y-82000000D03*
%TO.P,SW2,2*%
%TO.N,SW2*%
X80000000Y-86500000D03*
%TD*%
%TO.P,SW3,2*%
%TO.N,SW3*%
X112000000Y-86500000D03*
%TO.P,SW3,1*%
%TO.N,GND*%
X112000000Y-82000000D03*
%TO.P,SW3,2*%
%TO.N,SW3*%
X118500000Y-86500000D03*
%TO.P,SW3,1*%
%TO.N,GND*%
X118500000Y-82000000D03*
%TD*%
%TO.P,SW4,1*%
%TO.N,GND*%
X150500000Y-82000000D03*
%TO.P,SW4,2*%
%TO.N,SW4*%
X150500000Y-86500000D03*
%TO.P,SW4,1*%
%TO.N,GND*%
X144000000Y-82000000D03*
%TO.P,SW4,2*%
%TO.N,SW4*%
X144000000Y-86500000D03*
%TD*%
%TO.P,SW5,2*%
%TO.N,SW5*%
X176000000Y-86500000D03*
%TO.P,SW5,1*%
%TO.N,GND*%
X176000000Y-82000000D03*
%TO.P,SW5,2*%
%TO.N,SW5*%
X182500000Y-86500000D03*
%TO.P,SW5,1*%
%TO.N,GND*%
X182500000Y-82000000D03*
%TD*%
D15*
%TO.P,J2,30*%
%TO.N,Net-(J2-Pad30)*%
X133310000Y-117540000D03*
%TO.P,J2,29*%
%TO.N,ENC5_SW*%
X133310000Y-115000000D03*
%TO.P,J2,28*%
%TO.N,Net-(J2-Pad28)*%
X130770000Y-117540000D03*
%TO.P,J2,27*%
%TO.N,ENC5_LEFT*%
X130770000Y-115000000D03*
%TO.P,J2,26*%
%TO.N,Net-(J2-Pad26)*%
X128230000Y-117540000D03*
%TO.P,J2,25*%
%TO.N,ENC5_RIGHT*%
X128230000Y-115000000D03*
%TO.P,J2,24*%
%TO.N,Net-(J2-Pad24)*%
X125690000Y-117540000D03*
%TO.P,J2,23*%
%TO.N,ENC4_RIGHT*%
X125690000Y-115000000D03*
%TO.P,J2,22*%
%TO.N,Net-(J2-Pad22)*%
X123150000Y-117540000D03*
%TO.P,J2,21*%
%TO.N,ENC4_LEFT*%
X123150000Y-115000000D03*
%TO.P,J2,20*%
%TO.N,Net-(J2-Pad20)*%
X120610000Y-117540000D03*
%TO.P,J2,19*%
%TO.N,ENC4_SW*%
X120610000Y-115000000D03*
%TO.P,J2,18*%
%TO.N,Net-(J2-Pad18)*%
X118070000Y-117540000D03*
%TO.P,J2,17*%
%TO.N,ENC3_RIGHT*%
X118070000Y-115000000D03*
%TO.P,J2,16*%
%TO.N,Net-(J2-Pad16)*%
X115530000Y-117540000D03*
%TO.P,J2,15*%
%TO.N,ENC3_LEFT*%
X115530000Y-115000000D03*
%TO.P,J2,14*%
%TO.N,Net-(J2-Pad14)*%
X112990000Y-117540000D03*
%TO.P,J2,13*%
%TO.N,ENC3_SW*%
X112990000Y-115000000D03*
%TO.P,J2,12*%
%TO.N,Net-(J2-Pad12)*%
X110450000Y-117540000D03*
%TO.P,J2,11*%
%TO.N,ENC2_RIGHT*%
X110450000Y-115000000D03*
%TO.P,J2,10*%
%TO.N,Net-(J2-Pad10)*%
X107910000Y-117540000D03*
%TO.P,J2,9*%
%TO.N,ENC2_LEFT*%
X107910000Y-115000000D03*
%TO.P,J2,8*%
%TO.N,Net-(J2-Pad8)*%
X105370000Y-117540000D03*
%TO.P,J2,7*%
%TO.N,ENC2_SW*%
X105370000Y-115000000D03*
%TO.P,J2,6*%
%TO.N,Net-(J2-Pad6)*%
X102830000Y-117540000D03*
%TO.P,J2,5*%
%TO.N,ENC1_RIGHT*%
X102830000Y-115000000D03*
%TO.P,J2,4*%
%TO.N,GND*%
X100290000Y-117540000D03*
%TO.P,J2,3*%
%TO.N,ENC1_LEFT*%
X100290000Y-115000000D03*
%TO.P,J2,2*%
%TO.N,+5V*%
X97750000Y-117540000D03*
D16*
%TO.P,J2,1*%
%TO.N,ENC1_SW*%
X97750000Y-115000000D03*
%TD*%
%TO.P,J8,1*%
%TO.N,SW1*%
X97750000Y-66000000D03*
D15*
%TO.P,J8,2*%
%TO.N,LED1_R*%
X97750000Y-68540000D03*
%TO.P,J8,3*%
%TO.N,Net-(J8-Pad3)*%
X100290000Y-66000000D03*
%TO.P,J8,4*%
%TO.N,LED1_G*%
X100290000Y-68540000D03*
%TO.P,J8,5*%
%TO.N,Net-(J8-Pad5)*%
X102830000Y-66000000D03*
%TO.P,J8,6*%
%TO.N,LED1_B*%
X102830000Y-68540000D03*
%TO.P,J8,7*%
%TO.N,Net-(J8-Pad7)*%
X105370000Y-66000000D03*
%TO.P,J8,8*%
%TO.N,LED2_R*%
X105370000Y-68540000D03*
%TO.P,J8,9*%
%TO.N,SW2*%
X107910000Y-66000000D03*
%TO.P,J8,10*%
%TO.N,LED2_G*%
X107910000Y-68540000D03*
%TO.P,J8,11*%
%TO.N,Net-(J8-Pad11)*%
X110450000Y-66000000D03*
%TO.P,J8,12*%
%TO.N,LED2_B*%
X110450000Y-68540000D03*
%TO.P,J8,13*%
%TO.N,Net-(J8-Pad13)*%
X112990000Y-66000000D03*
%TO.P,J8,14*%
%TO.N,LED3_R*%
X112990000Y-68540000D03*
%TO.P,J8,15*%
%TO.N,SW3*%
X115530000Y-66000000D03*
%TO.P,J8,16*%
%TO.N,LED3_G*%
X115530000Y-68540000D03*
%TO.P,J8,17*%
%TO.N,Net-(J8-Pad17)*%
X118070000Y-66000000D03*
%TO.P,J8,18*%
%TO.N,LED3_B*%
X118070000Y-68540000D03*
%TO.P,J8,19*%
%TO.N,Net-(J8-Pad19)*%
X120610000Y-66000000D03*
%TO.P,J8,20*%
%TO.N,LED4_R*%
X120610000Y-68540000D03*
%TO.P,J8,21*%
%TO.N,SW4*%
X123150000Y-66000000D03*
%TO.P,J8,22*%
%TO.N,LED4_G*%
X123150000Y-68540000D03*
%TO.P,J8,23*%
%TO.N,Net-(J8-Pad23)*%
X125690000Y-66000000D03*
%TO.P,J8,24*%
%TO.N,LED4_B*%
X125690000Y-68540000D03*
%TO.P,J8,25*%
%TO.N,Net-(J8-Pad25)*%
X128230000Y-66000000D03*
%TO.P,J8,26*%
%TO.N,LED5_R*%
X128230000Y-68540000D03*
%TO.P,J8,27*%
%TO.N,Net-(J8-Pad27)*%
X130770000Y-66000000D03*
%TO.P,J8,28*%
%TO.N,LED5_G*%
X130770000Y-68540000D03*
%TO.P,J8,29*%
%TO.N,SW5*%
X133310000Y-66000000D03*
%TO.P,J8,30*%
%TO.N,LED5_B*%
X133310000Y-68540000D03*
%TD*%
D17*
%TO.P,D1,1*%
%TO.N,Net-(D1-Pad1)*%
X51000000Y-76000000D03*
D18*
%TO.P,D1,2*%
%TO.N,GND*%
X51000000Y-74730000D03*
%TO.P,D1,3*%
%TO.N,Net-(D1-Pad3)*%
X51000000Y-73460000D03*
%TO.P,D1,4*%
%TO.N,Net-(D1-Pad4)*%
X51000000Y-72190000D03*
%TD*%
D17*
%TO.P,D2,1*%
%TO.N,Net-(D2-Pad1)*%
X83500000Y-76000000D03*
D18*
%TO.P,D2,2*%
%TO.N,GND*%
X83500000Y-74730000D03*
%TO.P,D2,3*%
%TO.N,Net-(D2-Pad3)*%
X83500000Y-73460000D03*
%TO.P,D2,4*%
%TO.N,Net-(D2-Pad4)*%
X83500000Y-72190000D03*
%TD*%
D17*
%TO.P,D3,1*%
%TO.N,Net-(D3-Pad1)*%
X115500000Y-76000000D03*
D18*
%TO.P,D3,2*%
%TO.N,GND*%
X115500000Y-74730000D03*
%TO.P,D3,3*%
%TO.N,Net-(D3-Pad3)*%
X115500000Y-73460000D03*
%TO.P,D3,4*%
%TO.N,Net-(D3-Pad4)*%
X115500000Y-72190000D03*
%TD*%
%TO.P,D4,4*%
%TO.N,Net-(D4-Pad4)*%
X147500000Y-72190000D03*
%TO.P,D4,3*%
%TO.N,Net-(D4-Pad3)*%
X147500000Y-73460000D03*
%TO.P,D4,2*%
%TO.N,GND*%
X147500000Y-74730000D03*
D17*
%TO.P,D4,1*%
%TO.N,Net-(D4-Pad1)*%
X147500000Y-76000000D03*
%TD*%
%TO.P,D5,1*%
%TO.N,Net-(D5-Pad1)*%
X180000000Y-75000000D03*
D18*
%TO.P,D5,2*%
%TO.N,GND*%
X180000000Y-73730000D03*
%TO.P,D5,3*%
%TO.N,Net-(D5-Pad3)*%
X180000000Y-72460000D03*
%TO.P,D5,4*%
%TO.N,Net-(D5-Pad4)*%
X180000000Y-71190000D03*
%TD*%
D19*
%TO.P,C1,1*%
%TO.N,+5V*%
X41600000Y-80300000D03*
D20*
%TO.P,C1,2*%
%TO.N,GND*%
X43600000Y-80300000D03*
%TD*%
D21*
%TO.N,GND*%
X38862000Y-87376000D03*
X45212000Y-89154000D03*
X64516000Y-107950000D03*
X71882000Y-106426000D03*
X38608000Y-107950000D03*
X94996000Y-109474000D03*
X103886000Y-109474000D03*
X127000000Y-106426000D03*
X134620000Y-107950000D03*
X160528000Y-107950000D03*
X166624000Y-107950000D03*
X191008000Y-106426000D03*
X45000000Y-70000000D03*
X50000000Y-70000000D03*
X55000000Y-70000000D03*
X45000000Y-75000000D03*
X40000000Y-75000000D03*
X50000000Y-80000000D03*
X55000000Y-80000000D03*
X65000000Y-80000000D03*
X70000000Y-80000000D03*
X75000000Y-80000000D03*
X80000000Y-80000000D03*
X85000000Y-80000000D03*
X90000000Y-80000000D03*
X100000000Y-80000000D03*
X105000000Y-80000000D03*
X110000000Y-80000000D03*
X115000000Y-80000000D03*
X120000000Y-80000000D03*
X125000000Y-80000000D03*
X130000000Y-80000000D03*
X140000000Y-80000000D03*
X145000000Y-80000000D03*
X150000000Y-80000000D03*
X155000000Y-80000000D03*
X160000000Y-80000000D03*
X165000000Y-80000000D03*
X175000000Y-80000000D03*
X180000000Y-80000000D03*
X185000000Y-80000000D03*
X190000000Y-80000000D03*
X190000000Y-85000000D03*
X185000000Y-85000000D03*
X185000000Y-90000000D03*
X190000000Y-90000000D03*
X190000000Y-95000000D03*
X185000000Y-95000000D03*
X180000000Y-95000000D03*
X180000000Y-90000000D03*
X175000000Y-90000000D03*
X170000000Y-90000000D03*
X165000000Y-90000000D03*
X160000000Y-90000000D03*
X155000000Y-90000000D03*
X150000000Y-90000000D03*
X145000000Y-90000000D03*
X140000000Y-90000000D03*
X135000000Y-90000000D03*
X130000000Y-90000000D03*
X125000000Y-90000000D03*
X120000000Y-90000000D03*
X115000000Y-90000000D03*
X110000000Y-90000000D03*
X105000000Y-90000000D03*
X100000000Y-90000000D03*
X95000000Y-90000000D03*
X90000000Y-90000000D03*
X95000000Y-85000000D03*
X100000000Y-85000000D03*
X105000000Y-85000000D03*
X110000000Y-85000000D03*
X120000000Y-85000000D03*
X125000000Y-85000000D03*
X130000000Y-85000000D03*
X135000000Y-85000000D03*
X155000000Y-85000000D03*
X160000000Y-85000000D03*
X165000000Y-85000000D03*
X170000000Y-85000000D03*
X180000000Y-85000000D03*
X170000000Y-95000000D03*
X165000000Y-95000000D03*
X160000000Y-95000000D03*
X155000000Y-95000000D03*
X135000000Y-95000000D03*
X130000000Y-95000000D03*
X125000000Y-95000000D03*
X120000000Y-95000000D03*
X110000000Y-95000000D03*
X105000000Y-95000000D03*
X100000000Y-95000000D03*
X95000000Y-95000000D03*
X90000000Y-95000000D03*
X75000000Y-95000000D03*
X75000000Y-90000000D03*
X85000000Y-90000000D03*
X80000000Y-90000000D03*
X75000000Y-85000000D03*
X70000000Y-85000000D03*
X65000000Y-85000000D03*
X65000000Y-90000000D03*
X70000000Y-90000000D03*
X70000000Y-95000000D03*
X65000000Y-95000000D03*
X60000000Y-95000000D03*
X60000000Y-90000000D03*
X60000000Y-85000000D03*
X55000000Y-90000000D03*
X50000000Y-90000000D03*
X45000000Y-95000000D03*
X50000000Y-105000000D03*
X55000000Y-105000000D03*
X55000000Y-110000000D03*
X60000000Y-110000000D03*
X65000000Y-110000000D03*
X70000000Y-115000000D03*
X65000000Y-115000000D03*
X60000000Y-115000000D03*
%TO.N,ENC1_LEFT*%
X41333400Y-102499500D03*
%TO.N,ENC1_RIGHT*%
X71515100Y-102499500D03*
%TO.N,ENC2_LEFT*%
X73055700Y-101144800D03*
%TO.N,ENC5_LEFT*%
X159545300Y-102555200D03*
%TO.N,Net-(D5-Pad3)*%
X181634600Y-73610800D03*
%TD*%
D22*
%TO.N,ENC1_SW*%
X97750000Y-115000000D02*
X76754000Y-115000000D01*
X76754000Y-115000000D02*
X58715300Y-96961300D01*
X58715300Y-96961300D02*
X52461300Y-96961300D01*
X52461300Y-96961300D02*
X49000000Y-93500000D01*
%TO.N,ENC1_LEFT*%
X100290000Y-115000000D02*
X99114700Y-115000000D01*
X99114700Y-115000000D02*
X99114700Y-115808000D01*
X99114700Y-115808000D02*
X98747300Y-116175400D01*
X98747300Y-116175400D02*
X55009300Y-116175400D01*
X55009300Y-116175400D02*
X41333400Y-102499500D01*
%TO.N,ENC1_RIGHT*%
X102830000Y-115000000D02*
X101654700Y-115000000D01*
X101654700Y-115000000D02*
X101654700Y-114632600D01*
X101654700Y-114632600D02*
X100846800Y-113824700D01*
X100846800Y-113824700D02*
X82840300Y-113824700D01*
X82840300Y-113824700D02*
X71515100Y-102499500D01*
%TO.N,SW1*%
X97750000Y-66000000D02*
X75000000Y-66000000D01*
X75000000Y-66000000D02*
X54500000Y-86500000D01*
%TO.N,ENC2_SW*%
X105370000Y-115000000D02*
X105370000Y-113752700D01*
X105370000Y-113752700D02*
X88128200Y-96510900D01*
X88128200Y-96510900D02*
X84010900Y-96510900D01*
X84010900Y-96510900D02*
X81000000Y-93500000D01*
%TO.N,SW2*%
X107910000Y-66000000D02*
X107910000Y-67175300D01*
X107910000Y-67175300D02*
X107542600Y-67175300D01*
X107542600Y-67175300D02*
X106734700Y-67983200D01*
X106734700Y-67983200D02*
X106734700Y-68905500D01*
X106734700Y-68905500D02*
X89140200Y-86500000D01*
X89140200Y-86500000D02*
X86500000Y-86500000D01*
%TO.N,ENC2_LEFT*%
X107910000Y-115000000D02*
X106734700Y-115000000D01*
X106734700Y-115000000D02*
X106734700Y-115367400D01*
X106734700Y-115367400D02*
X105926800Y-116175300D01*
X105926800Y-116175300D02*
X104881100Y-116175300D01*
X104881100Y-116175300D02*
X104100000Y-115394200D01*
X104100000Y-115394200D02*
X104100000Y-114554900D01*
X104100000Y-114554900D02*
X93327400Y-103782300D01*
X93327400Y-103782300D02*
X75693200Y-103782300D01*
X75693200Y-103782300D02*
X73055700Y-101144800D01*
%TO.N,SW3*%
X116725400Y-84725400D02*
X118500000Y-86500000D01*
X115530000Y-67175300D02*
X115897300Y-67175300D01*
X115897300Y-67175300D02*
X116725400Y-68003400D01*
X116725400Y-68003400D02*
X116725400Y-84725400D01*
X116725400Y-84725400D02*
X113774600Y-84725400D01*
X113774600Y-84725400D02*
X112000000Y-86500000D01*
X115530000Y-66000000D02*
X115530000Y-67175300D01*
%TO.N,SW4*%
X123150000Y-66000000D02*
X123150000Y-67175300D01*
X123150000Y-67175300D02*
X123517400Y-67175300D01*
X123517400Y-67175300D02*
X124325300Y-67983200D01*
X124325300Y-67983200D02*
X124325300Y-68853800D01*
X124325300Y-68853800D02*
X141971500Y-86500000D01*
X141971500Y-86500000D02*
X144000000Y-86500000D01*
%TO.N,ENC3_SW*%
X112990000Y-115000000D02*
X112990000Y-113824700D01*
X112990000Y-113824700D02*
X114250000Y-112564700D01*
X114250000Y-112564700D02*
X114250000Y-94750000D01*
X114250000Y-94750000D02*
X113000000Y-93500000D01*
%TO.N,SW5*%
X133310000Y-66000000D02*
X155500000Y-66000000D01*
X155500000Y-66000000D02*
X176000000Y-86500000D01*
%TO.N,ENC5_SW*%
X133310000Y-115000000D02*
X155500000Y-115000000D01*
X155500000Y-115000000D02*
X177000000Y-93500000D01*
%TO.N,ENC5_LEFT*%
X130770000Y-115000000D02*
X131945300Y-115000000D01*
X131945300Y-115000000D02*
X131945300Y-114632600D01*
X131945300Y-114632600D02*
X132753200Y-113824700D01*
X132753200Y-113824700D02*
X148275800Y-113824700D01*
X148275800Y-113824700D02*
X159545300Y-102555200D01*
%TO.N,ENC4_SW*%
X120610000Y-115000000D02*
X121785300Y-115000000D01*
X121785300Y-115000000D02*
X121785300Y-114632700D01*
X121785300Y-114632700D02*
X142918000Y-93500000D01*
X142918000Y-93500000D02*
X145000000Y-93500000D01*
%TO.N,Net-(D5-Pad3)*%
X180000000Y-72460000D02*
X181225300Y-72460000D01*
X181634600Y-73610800D02*
X181225300Y-73201500D01*
X181225300Y-73201500D02*
X181225300Y-72460000D01*
%TD*%
D23*
%TO.N,GND*%
G36*
X195453893Y-63707670D02*
G01*
X195890498Y-63839489D01*
X196293185Y-64053600D01*
X196646612Y-64341848D01*
X196937327Y-64693261D01*
X197154242Y-65094439D01*
X197289106Y-65530113D01*
X197340000Y-66014344D01*
X197340001Y-117967711D01*
X197292330Y-118453894D01*
X197160512Y-118890497D01*
X196946399Y-119293186D01*
X196658150Y-119646613D01*
X196306739Y-119937327D01*
X195905564Y-120154240D01*
X195469886Y-120289106D01*
X194985664Y-120340000D01*
X36032279Y-120340000D01*
X35546106Y-120292330D01*
X35109503Y-120160512D01*
X34706814Y-119946399D01*
X34353387Y-119658150D01*
X34062673Y-119306739D01*
X33845760Y-118905564D01*
X33710894Y-118469886D01*
X33660000Y-117985664D01*
X33660000Y-114789721D01*
X36865000Y-114789721D01*
X36865000Y-115210279D01*
X36947047Y-115622756D01*
X37107988Y-116011302D01*
X37341637Y-116360983D01*
X37639017Y-116658363D01*
X37988698Y-116892012D01*
X38377244Y-117052953D01*
X38789721Y-117135000D01*
X39210279Y-117135000D01*
X39622756Y-117052953D01*
X40011302Y-116892012D01*
X40360983Y-116658363D01*
X40658363Y-116360983D01*
X40892012Y-116011302D01*
X41052953Y-115622756D01*
X41135000Y-115210279D01*
X41135000Y-114789721D01*
X41052953Y-114377244D01*
X40892012Y-113988698D01*
X40658363Y-113639017D01*
X40360983Y-113341637D01*
X40011302Y-113107988D01*
X39622756Y-112947047D01*
X39210279Y-112865000D01*
X38789721Y-112865000D01*
X38377244Y-112947047D01*
X37988698Y-113107988D01*
X37639017Y-113341637D01*
X37341637Y-113639017D01*
X37107988Y-113988698D01*
X36947047Y-114377244D01*
X36865000Y-114789721D01*
X33660000Y-114789721D01*
X33660000Y-102397561D01*
X40298400Y-102397561D01*
X40298400Y-102601439D01*
X40338174Y-102801398D01*
X40416195Y-102989756D01*
X40529463Y-103159274D01*
X40673626Y-103303437D01*
X40843144Y-103416705D01*
X41031502Y-103494726D01*
X41231461Y-103534500D01*
X41293599Y-103534500D01*
X54445501Y-116686403D01*
X54469299Y-116715401D01*
X54585024Y-116810374D01*
X54717053Y-116880946D01*
X54860314Y-116924403D01*
X54971967Y-116935400D01*
X54971976Y-116935400D01*
X55009299Y-116939076D01*
X55046622Y-116935400D01*
X96393081Y-116935400D01*
X96322068Y-117106842D01*
X96265000Y-117393740D01*
X96265000Y-117686260D01*
X96322068Y-117973158D01*
X96434010Y-118243411D01*
X96596525Y-118486632D01*
X96803368Y-118693475D01*
X97046589Y-118855990D01*
X97316842Y-118967932D01*
X97603740Y-119025000D01*
X97896260Y-119025000D01*
X98183158Y-118967932D01*
X98453411Y-118855990D01*
X98696632Y-118693475D01*
X98903475Y-118486632D01*
X99025195Y-118304466D01*
X99094822Y-118421355D01*
X99289731Y-118637588D01*
X99523080Y-118811641D01*
X99785901Y-118936825D01*
X99933110Y-118981476D01*
X100163000Y-118860155D01*
X100163000Y-117667000D01*
X100143000Y-117667000D01*
X100143000Y-117413000D01*
X100163000Y-117413000D01*
X100163000Y-117393000D01*
X100417000Y-117393000D01*
X100417000Y-117413000D01*
X100437000Y-117413000D01*
X100437000Y-117667000D01*
X100417000Y-117667000D01*
X100417000Y-118860155D01*
X100646890Y-118981476D01*
X100794099Y-118936825D01*
X101056920Y-118811641D01*
X101290269Y-118637588D01*
X101485178Y-118421355D01*
X101554805Y-118304466D01*
X101676525Y-118486632D01*
X101883368Y-118693475D01*
X102126589Y-118855990D01*
X102396842Y-118967932D01*
X102683740Y-119025000D01*
X102976260Y-119025000D01*
X103263158Y-118967932D01*
X103533411Y-118855990D01*
X103776632Y-118693475D01*
X103983475Y-118486632D01*
X104100000Y-118312240D01*
X104216525Y-118486632D01*
X104423368Y-118693475D01*
X104666589Y-118855990D01*
X104936842Y-118967932D01*
X105223740Y-119025000D01*
X105516260Y-119025000D01*
X105803158Y-118967932D01*
X106073411Y-118855990D01*
X106316632Y-118693475D01*
X106523475Y-118486632D01*
X106640000Y-118312240D01*
X106756525Y-118486632D01*
X106963368Y-118693475D01*
X107206589Y-118855990D01*
X107476842Y-118967932D01*
X107763740Y-119025000D01*
X108056260Y-119025000D01*
X108343158Y-118967932D01*
X108613411Y-118855990D01*
X108856632Y-118693475D01*
X109063475Y-118486632D01*
X109180000Y-118312240D01*
X109296525Y-118486632D01*
X109503368Y-118693475D01*
X109746589Y-118855990D01*
X110016842Y-118967932D01*
X110303740Y-119025000D01*
X110596260Y-119025000D01*
X110883158Y-118967932D01*
X111153411Y-118855990D01*
X111396632Y-118693475D01*
X111603475Y-118486632D01*
X111720000Y-118312240D01*
X111836525Y-118486632D01*
X112043368Y-118693475D01*
X112286589Y-118855990D01*
X112556842Y-118967932D01*
X112843740Y-119025000D01*
X113136260Y-119025000D01*
X113423158Y-118967932D01*
X113693411Y-118855990D01*
X113936632Y-118693475D01*
X114143475Y-118486632D01*
X114260000Y-118312240D01*
X114376525Y-118486632D01*
X114583368Y-118693475D01*
X114826589Y-118855990D01*
X115096842Y-118967932D01*
X115383740Y-119025000D01*
X115676260Y-119025000D01*
X115963158Y-118967932D01*
X116233411Y-118855990D01*
X116476632Y-118693475D01*
X116683475Y-118486632D01*
X116800000Y-118312240D01*
X116916525Y-118486632D01*
X117123368Y-118693475D01*
X117366589Y-118855990D01*
X117636842Y-118967932D01*
X117923740Y-119025000D01*
X118216260Y-119025000D01*
X118503158Y-118967932D01*
X118773411Y-118855990D01*
X119016632Y-118693475D01*
X119223475Y-118486632D01*
X119340000Y-118312240D01*
X119456525Y-118486632D01*
X119663368Y-118693475D01*
X119906589Y-118855990D01*
X120176842Y-118967932D01*
X120463740Y-119025000D01*
X120756260Y-119025000D01*
X121043158Y-118967932D01*
X121313411Y-118855990D01*
X121556632Y-118693475D01*
X121763475Y-118486632D01*
X121880000Y-118312240D01*
X121996525Y-118486632D01*
X122203368Y-118693475D01*
X122446589Y-118855990D01*
X122716842Y-118967932D01*
X123003740Y-119025000D01*
X123296260Y-119025000D01*
X123583158Y-118967932D01*
X123853411Y-118855990D01*
X124096632Y-118693475D01*
X124303475Y-118486632D01*
X124420000Y-118312240D01*
X124536525Y-118486632D01*
X124743368Y-118693475D01*
X124986589Y-118855990D01*
X125256842Y-118967932D01*
X125543740Y-119025000D01*
X125836260Y-119025000D01*
X126123158Y-118967932D01*
X126393411Y-118855990D01*
X126636632Y-118693475D01*
X126843475Y-118486632D01*
X126960000Y-118312240D01*
X127076525Y-118486632D01*
X127283368Y-118693475D01*
X127526589Y-118855990D01*
X127796842Y-118967932D01*
X128083740Y-119025000D01*
X128376260Y-119025000D01*
X128663158Y-118967932D01*
X128933411Y-118855990D01*
X129176632Y-118693475D01*
X129383475Y-118486632D01*
X129500000Y-118312240D01*
X129616525Y-118486632D01*
X129823368Y-118693475D01*
X130066589Y-118855990D01*
X130336842Y-118967932D01*
X130623740Y-119025000D01*
X130916260Y-119025000D01*
X131203158Y-118967932D01*
X131473411Y-118855990D01*
X131716632Y-118693475D01*
X131923475Y-118486632D01*
X132040000Y-118312240D01*
X132156525Y-118486632D01*
X132363368Y-118693475D01*
X132606589Y-118855990D01*
X132876842Y-118967932D01*
X133163740Y-119025000D01*
X133456260Y-119025000D01*
X133743158Y-118967932D01*
X134013411Y-118855990D01*
X134256632Y-118693475D01*
X134463475Y-118486632D01*
X134625990Y-118243411D01*
X134737932Y-117973158D01*
X134795000Y-117686260D01*
X134795000Y-117393740D01*
X134737932Y-117106842D01*
X134625990Y-116836589D01*
X134463475Y-116593368D01*
X134256632Y-116386525D01*
X134082240Y-116270000D01*
X134256632Y-116153475D01*
X134463475Y-115946632D01*
X134588178Y-115760000D01*
X155462678Y-115760000D01*
X155500000Y-115763676D01*
X155537322Y-115760000D01*
X155537333Y-115760000D01*
X155648986Y-115749003D01*
X155792247Y-115705546D01*
X155924276Y-115634974D01*
X156040001Y-115540001D01*
X156063804Y-115510997D01*
X156785080Y-114789721D01*
X189865000Y-114789721D01*
X189865000Y-115210279D01*
X189947047Y-115622756D01*
X190107988Y-116011302D01*
X190341637Y-116360983D01*
X190639017Y-116658363D01*
X190988698Y-116892012D01*
X191377244Y-117052953D01*
X191789721Y-117135000D01*
X192210279Y-117135000D01*
X192622756Y-117052953D01*
X193011302Y-116892012D01*
X193360983Y-116658363D01*
X193658363Y-116360983D01*
X193892012Y-116011302D01*
X194052953Y-115622756D01*
X194135000Y-115210279D01*
X194135000Y-114789721D01*
X194052953Y-114377244D01*
X193892012Y-113988698D01*
X193658363Y-113639017D01*
X193360983Y-113341637D01*
X193011302Y-113107988D01*
X192622756Y-112947047D01*
X192210279Y-112865000D01*
X191789721Y-112865000D01*
X191377244Y-112947047D01*
X190988698Y-113107988D01*
X190639017Y-113341637D01*
X190341637Y-113639017D01*
X190107988Y-113988698D01*
X189947047Y-114377244D01*
X189865000Y-114789721D01*
X156785080Y-114789721D01*
X163725985Y-107848816D01*
X175465000Y-107848816D01*
X175465000Y-108151184D01*
X175523989Y-108447743D01*
X175639701Y-108727095D01*
X175807688Y-108978505D01*
X176021495Y-109192312D01*
X176272905Y-109360299D01*
X176552257Y-109476011D01*
X176848816Y-109535000D01*
X177151184Y-109535000D01*
X177447743Y-109476011D01*
X177727095Y-109360299D01*
X177978505Y-109192312D01*
X178106737Y-109064080D01*
X178615525Y-109064080D01*
X178699208Y-109318261D01*
X178971775Y-109449158D01*
X179264642Y-109524365D01*
X179566553Y-109540991D01*
X179865907Y-109498397D01*
X180151199Y-109398222D01*
X180300792Y-109318261D01*
X180384475Y-109064080D01*
X179500000Y-108179605D01*
X178615525Y-109064080D01*
X178106737Y-109064080D01*
X178192312Y-108978505D01*
X178287738Y-108835690D01*
X178435920Y-108884475D01*
X179320395Y-108000000D01*
X179679605Y-108000000D01*
X180564080Y-108884475D01*
X180712262Y-108835690D01*
X180807688Y-108978505D01*
X181021495Y-109192312D01*
X181272905Y-109360299D01*
X181552257Y-109476011D01*
X181848816Y-109535000D01*
X182151184Y-109535000D01*
X182447743Y-109476011D01*
X182727095Y-109360299D01*
X182978505Y-109192312D01*
X183192312Y-108978505D01*
X183360299Y-108727095D01*
X183476011Y-108447743D01*
X183535000Y-108151184D01*
X183535000Y-107848816D01*
X183476011Y-107552257D01*
X183360299Y-107272905D01*
X183192312Y-107021495D01*
X182978505Y-106807688D01*
X182727095Y-106639701D01*
X182447743Y-106523989D01*
X182151184Y-106465000D01*
X181848816Y-106465000D01*
X181552257Y-106523989D01*
X181272905Y-106639701D01*
X181021495Y-106807688D01*
X180807688Y-107021495D01*
X180712262Y-107164310D01*
X180564080Y-107115525D01*
X179679605Y-108000000D01*
X179320395Y-108000000D01*
X178435920Y-107115525D01*
X178287738Y-107164310D01*
X178192312Y-107021495D01*
X178106737Y-106935920D01*
X178615525Y-106935920D01*
X179500000Y-107820395D01*
X180384475Y-106935920D01*
X180300792Y-106681739D01*
X180028225Y-106550842D01*
X179735358Y-106475635D01*
X179433447Y-106459009D01*
X179134093Y-106501603D01*
X178848801Y-106601778D01*
X178699208Y-106681739D01*
X178615525Y-106935920D01*
X178106737Y-106935920D01*
X177978505Y-106807688D01*
X177727095Y-106639701D01*
X177447743Y-106523989D01*
X177151184Y-106465000D01*
X176848816Y-106465000D01*
X176552257Y-106523989D01*
X176272905Y-106639701D01*
X176021495Y-106807688D01*
X175807688Y-107021495D01*
X175639701Y-107272905D01*
X175523989Y-107552257D01*
X175465000Y-107848816D01*
X163725985Y-107848816D01*
X171829114Y-99745688D01*
X171740000Y-100193692D01*
X171740000Y-100806308D01*
X171859516Y-101407154D01*
X172093954Y-101973137D01*
X172434305Y-102482509D01*
X172867491Y-102915695D01*
X173376863Y-103256046D01*
X173942846Y-103490484D01*
X174543692Y-103610000D01*
X175156308Y-103610000D01*
X175757154Y-103490484D01*
X176323137Y-103256046D01*
X176832509Y-102915695D01*
X177265695Y-102482509D01*
X177606046Y-101973137D01*
X177840484Y-101407154D01*
X177960000Y-100806308D01*
X177960000Y-100193692D01*
X181040000Y-100193692D01*
X181040000Y-100806308D01*
X181159516Y-101407154D01*
X181393954Y-101973137D01*
X181734305Y-102482509D01*
X182167491Y-102915695D01*
X182676863Y-103256046D01*
X183242846Y-103490484D01*
X183843692Y-103610000D01*
X184456308Y-103610000D01*
X185057154Y-103490484D01*
X185623137Y-103256046D01*
X186132509Y-102915695D01*
X186565695Y-102482509D01*
X186906046Y-101973137D01*
X187140484Y-101407154D01*
X187260000Y-100806308D01*
X187260000Y-100193692D01*
X187140484Y-99592846D01*
X186906046Y-99026863D01*
X186565695Y-98517491D01*
X186132509Y-98084305D01*
X185623137Y-97743954D01*
X185057154Y-97509516D01*
X184456308Y-97390000D01*
X183843692Y-97390000D01*
X183242846Y-97509516D01*
X182676863Y-97743954D01*
X182167491Y-98084305D01*
X181734305Y-98517491D01*
X181393954Y-99026863D01*
X181159516Y-99592846D01*
X181040000Y-100193692D01*
X177960000Y-100193692D01*
X177840484Y-99592846D01*
X177606046Y-99026863D01*
X177265695Y-98517491D01*
X176832509Y-98084305D01*
X176323137Y-97743954D01*
X175757154Y-97509516D01*
X175156308Y-97390000D01*
X174543692Y-97390000D01*
X174095688Y-97479114D01*
X176591071Y-94983731D01*
X176848816Y-95035000D01*
X177151184Y-95035000D01*
X177447743Y-94976011D01*
X177727095Y-94860299D01*
X177978505Y-94692312D01*
X178106737Y-94564080D01*
X181115525Y-94564080D01*
X181199208Y-94818261D01*
X181471775Y-94949158D01*
X181764642Y-95024365D01*
X182066553Y-95040991D01*
X182365907Y-94998397D01*
X182651199Y-94898222D01*
X182800792Y-94818261D01*
X182884475Y-94564080D01*
X182000000Y-93679605D01*
X181115525Y-94564080D01*
X178106737Y-94564080D01*
X178192312Y-94478505D01*
X178360299Y-94227095D01*
X178476011Y-93947743D01*
X178535000Y-93651184D01*
X178535000Y-93566553D01*
X180459009Y-93566553D01*
X180501603Y-93865907D01*
X180601778Y-94151199D01*
X180681739Y-94300792D01*
X180935920Y-94384475D01*
X181820395Y-93500000D01*
X182179605Y-93500000D01*
X183064080Y-94384475D01*
X183318261Y-94300792D01*
X183449158Y-94028225D01*
X183524365Y-93735358D01*
X183540991Y-93433447D01*
X183498397Y-93134093D01*
X183398222Y-92848801D01*
X183318261Y-92699208D01*
X183064080Y-92615525D01*
X182179605Y-93500000D01*
X181820395Y-93500000D01*
X180935920Y-92615525D01*
X180681739Y-92699208D01*
X180550842Y-92971775D01*
X180475635Y-93264642D01*
X180459009Y-93566553D01*
X178535000Y-93566553D01*
X178535000Y-93348816D01*
X178476011Y-93052257D01*
X178360299Y-92772905D01*
X178192312Y-92521495D01*
X178106737Y-92435920D01*
X181115525Y-92435920D01*
X182000000Y-93320395D01*
X182884475Y-92435920D01*
X182800792Y-92181739D01*
X182528225Y-92050842D01*
X182235358Y-91975635D01*
X181933447Y-91959009D01*
X181634093Y-92001603D01*
X181348801Y-92101778D01*
X181199208Y-92181739D01*
X181115525Y-92435920D01*
X178106737Y-92435920D01*
X177978505Y-92307688D01*
X177727095Y-92139701D01*
X177447743Y-92023989D01*
X177151184Y-91965000D01*
X176848816Y-91965000D01*
X176552257Y-92023989D01*
X176272905Y-92139701D01*
X176021495Y-92307688D01*
X175807688Y-92521495D01*
X175639701Y-92772905D01*
X175523989Y-93052257D01*
X175465000Y-93348816D01*
X175465000Y-93651184D01*
X175516269Y-93908929D01*
X155185199Y-114240000D01*
X148935301Y-114240000D01*
X159585102Y-103590200D01*
X159647239Y-103590200D01*
X159847198Y-103550426D01*
X160035556Y-103472405D01*
X160205074Y-103359137D01*
X160349237Y-103214974D01*
X160462505Y-103045456D01*
X160540526Y-102857098D01*
X160580300Y-102657139D01*
X160580300Y-102453261D01*
X160540526Y-102253302D01*
X160462505Y-102064944D01*
X160349237Y-101895426D01*
X160205074Y-101751263D01*
X160035556Y-101637995D01*
X159847198Y-101559974D01*
X159647239Y-101520200D01*
X159443361Y-101520200D01*
X159243402Y-101559974D01*
X159055044Y-101637995D01*
X158885526Y-101751263D01*
X158741363Y-101895426D01*
X158628095Y-102064944D01*
X158550074Y-102253302D01*
X158510300Y-102453261D01*
X158510300Y-102515398D01*
X147960999Y-113064700D01*
X132790522Y-113064700D01*
X132753199Y-113061024D01*
X132715876Y-113064700D01*
X132715867Y-113064700D01*
X132604214Y-113075697D01*
X132465661Y-113117726D01*
X132460953Y-113119154D01*
X132328923Y-113189726D01*
X132300931Y-113212699D01*
X132213199Y-113284699D01*
X132189402Y-113313696D01*
X131680630Y-113822469D01*
X131473411Y-113684010D01*
X131203158Y-113572068D01*
X130916260Y-113515000D01*
X130623740Y-113515000D01*
X130336842Y-113572068D01*
X130066589Y-113684010D01*
X129823368Y-113846525D01*
X129616525Y-114053368D01*
X129500000Y-114227760D01*
X129383475Y-114053368D01*
X129176632Y-113846525D01*
X128933411Y-113684010D01*
X128663158Y-113572068D01*
X128376260Y-113515000D01*
X128083740Y-113515000D01*
X127796842Y-113572068D01*
X127526589Y-113684010D01*
X127283368Y-113846525D01*
X127076525Y-114053368D01*
X126960000Y-114227760D01*
X126843475Y-114053368D01*
X126636632Y-113846525D01*
X126393411Y-113684010D01*
X126123158Y-113572068D01*
X125836260Y-113515000D01*
X125543740Y-113515000D01*
X125256842Y-113572068D01*
X124986589Y-113684010D01*
X124743368Y-113846525D01*
X124536525Y-114053368D01*
X124420000Y-114227760D01*
X124303475Y-114053368D01*
X124096632Y-113846525D01*
X123853411Y-113684010D01*
X123821860Y-113670941D01*
X129643985Y-107848816D01*
X143465000Y-107848816D01*
X143465000Y-108151184D01*
X143523989Y-108447743D01*
X143639701Y-108727095D01*
X143807688Y-108978505D01*
X144021495Y-109192312D01*
X144272905Y-109360299D01*
X144552257Y-109476011D01*
X144848816Y-109535000D01*
X145151184Y-109535000D01*
X145447743Y-109476011D01*
X145727095Y-109360299D01*
X145978505Y-109192312D01*
X146106737Y-109064080D01*
X146615525Y-109064080D01*
X146699208Y-109318261D01*
X146971775Y-109449158D01*
X147264642Y-109524365D01*
X147566553Y-109540991D01*
X147865907Y-109498397D01*
X148151199Y-109398222D01*
X148300792Y-109318261D01*
X148384475Y-109064080D01*
X147500000Y-108179605D01*
X146615525Y-109064080D01*
X146106737Y-109064080D01*
X146192312Y-108978505D01*
X146287738Y-108835690D01*
X146435920Y-108884475D01*
X147320395Y-108000000D01*
X147679605Y-108000000D01*
X148564080Y-108884475D01*
X148712262Y-108835690D01*
X148807688Y-108978505D01*
X149021495Y-109192312D01*
X149272905Y-109360299D01*
X149552257Y-109476011D01*
X149848816Y-109535000D01*
X150151184Y-109535000D01*
X150447743Y-109476011D01*
X150727095Y-109360299D01*
X150978505Y-109192312D01*
X151192312Y-108978505D01*
X151360299Y-108727095D01*
X151476011Y-108447743D01*
X151535000Y-108151184D01*
X151535000Y-107848816D01*
X151476011Y-107552257D01*
X151360299Y-107272905D01*
X151192312Y-107021495D01*
X150978505Y-106807688D01*
X150727095Y-106639701D01*
X150447743Y-106523989D01*
X150151184Y-106465000D01*
X149848816Y-106465000D01*
X149552257Y-106523989D01*
X149272905Y-106639701D01*
X149021495Y-106807688D01*
X148807688Y-107021495D01*
X148712262Y-107164310D01*
X148564080Y-107115525D01*
X147679605Y-108000000D01*
X147320395Y-108000000D01*
X146435920Y-107115525D01*
X146287738Y-107164310D01*
X146192312Y-107021495D01*
X146106737Y-106935920D01*
X146615525Y-106935920D01*
X147500000Y-107820395D01*
X148384475Y-106935920D01*
X148300792Y-106681739D01*
X148028225Y-106550842D01*
X147735358Y-106475635D01*
X147433447Y-106459009D01*
X147134093Y-106501603D01*
X146848801Y-106601778D01*
X146699208Y-106681739D01*
X146615525Y-106935920D01*
X146106737Y-106935920D01*
X145978505Y-106807688D01*
X145727095Y-106639701D01*
X145447743Y-106523989D01*
X145151184Y-106465000D01*
X144848816Y-106465000D01*
X144552257Y-106523989D01*
X144272905Y-106639701D01*
X144021495Y-106807688D01*
X143807688Y-107021495D01*
X143639701Y-107272905D01*
X143523989Y-107552257D01*
X143465000Y-107848816D01*
X129643985Y-107848816D01*
X137299109Y-100193692D01*
X139740000Y-100193692D01*
X139740000Y-100806308D01*
X139859516Y-101407154D01*
X140093954Y-101973137D01*
X140434305Y-102482509D01*
X140867491Y-102915695D01*
X141376863Y-103256046D01*
X141942846Y-103490484D01*
X142543692Y-103610000D01*
X143156308Y-103610000D01*
X143757154Y-103490484D01*
X144323137Y-103256046D01*
X144832509Y-102915695D01*
X145265695Y-102482509D01*
X145606046Y-101973137D01*
X145840484Y-101407154D01*
X145960000Y-100806308D01*
X145960000Y-100193692D01*
X149040000Y-100193692D01*
X149040000Y-100806308D01*
X149159516Y-101407154D01*
X149393954Y-101973137D01*
X149734305Y-102482509D01*
X150167491Y-102915695D01*
X150676863Y-103256046D01*
X151242846Y-103490484D01*
X151843692Y-103610000D01*
X152456308Y-103610000D01*
X153057154Y-103490484D01*
X153623137Y-103256046D01*
X154132509Y-102915695D01*
X154565695Y-102482509D01*
X154906046Y-101973137D01*
X155140484Y-101407154D01*
X155260000Y-100806308D01*
X155260000Y-100193692D01*
X155140484Y-99592846D01*
X154906046Y-99026863D01*
X154565695Y-98517491D01*
X154132509Y-98084305D01*
X153623137Y-97743954D01*
X153057154Y-97509516D01*
X152456308Y-97390000D01*
X151843692Y-97390000D01*
X151242846Y-97509516D01*
X150676863Y-97743954D01*
X150167491Y-98084305D01*
X149734305Y-98517491D01*
X149393954Y-99026863D01*
X149159516Y-99592846D01*
X149040000Y-100193692D01*
X145960000Y-100193692D01*
X145840484Y-99592846D01*
X145606046Y-99026863D01*
X145265695Y-98517491D01*
X144832509Y-98084305D01*
X144323137Y-97743954D01*
X143757154Y-97509516D01*
X143156308Y-97390000D01*
X142543692Y-97390000D01*
X141942846Y-97509516D01*
X141376863Y-97743954D01*
X140867491Y-98084305D01*
X140434305Y-98517491D01*
X140093954Y-99026863D01*
X139859516Y-99592846D01*
X139740000Y-100193692D01*
X137299109Y-100193692D01*
X143232802Y-94260000D01*
X143661687Y-94260000D01*
X143807688Y-94478505D01*
X144021495Y-94692312D01*
X144272905Y-94860299D01*
X144552257Y-94976011D01*
X144848816Y-95035000D01*
X145151184Y-95035000D01*
X145447743Y-94976011D01*
X145727095Y-94860299D01*
X145978505Y-94692312D01*
X146106737Y-94564080D01*
X149115525Y-94564080D01*
X149199208Y-94818261D01*
X149471775Y-94949158D01*
X149764642Y-95024365D01*
X150066553Y-95040991D01*
X150365907Y-94998397D01*
X150651199Y-94898222D01*
X150800792Y-94818261D01*
X150884475Y-94564080D01*
X150000000Y-93679605D01*
X149115525Y-94564080D01*
X146106737Y-94564080D01*
X146192312Y-94478505D01*
X146360299Y-94227095D01*
X146476011Y-93947743D01*
X146535000Y-93651184D01*
X146535000Y-93566553D01*
X148459009Y-93566553D01*
X148501603Y-93865907D01*
X148601778Y-94151199D01*
X148681739Y-94300792D01*
X148935920Y-94384475D01*
X149820395Y-93500000D01*
X150179605Y-93500000D01*
X151064080Y-94384475D01*
X151318261Y-94300792D01*
X151449158Y-94028225D01*
X151524365Y-93735358D01*
X151540991Y-93433447D01*
X151498397Y-93134093D01*
X151398222Y-92848801D01*
X151318261Y-92699208D01*
X151064080Y-92615525D01*
X150179605Y-93500000D01*
X149820395Y-93500000D01*
X148935920Y-92615525D01*
X148681739Y-92699208D01*
X148550842Y-92971775D01*
X148475635Y-93264642D01*
X148459009Y-93566553D01*
X146535000Y-93566553D01*
X146535000Y-93348816D01*
X146476011Y-93052257D01*
X146360299Y-92772905D01*
X146192312Y-92521495D01*
X146106737Y-92435920D01*
X149115525Y-92435920D01*
X150000000Y-93320395D01*
X150884475Y-92435920D01*
X150800792Y-92181739D01*
X150528225Y-92050842D01*
X150235358Y-91975635D01*
X149933447Y-91959009D01*
X149634093Y-92001603D01*
X149348801Y-92101778D01*
X149199208Y-92181739D01*
X149115525Y-92435920D01*
X146106737Y-92435920D01*
X145978505Y-92307688D01*
X145727095Y-92139701D01*
X145447743Y-92023989D01*
X145151184Y-91965000D01*
X144848816Y-91965000D01*
X144552257Y-92023989D01*
X144272905Y-92139701D01*
X144021495Y-92307688D01*
X143807688Y-92521495D01*
X143661687Y-92740000D01*
X142955323Y-92740000D01*
X142918000Y-92736324D01*
X142880677Y-92740000D01*
X142880667Y-92740000D01*
X142769014Y-92750997D01*
X142625753Y-92794454D01*
X142493723Y-92865026D01*
X142410083Y-92933668D01*
X142377999Y-92959999D01*
X142354201Y-92988997D01*
X121520690Y-113822509D01*
X121313411Y-113684010D01*
X121043158Y-113572068D01*
X120756260Y-113515000D01*
X120463740Y-113515000D01*
X120176842Y-113572068D01*
X119906589Y-113684010D01*
X119663368Y-113846525D01*
X119456525Y-114053368D01*
X119340000Y-114227760D01*
X119223475Y-114053368D01*
X119016632Y-113846525D01*
X118773411Y-113684010D01*
X118503158Y-113572068D01*
X118216260Y-113515000D01*
X117923740Y-113515000D01*
X117636842Y-113572068D01*
X117366589Y-113684010D01*
X117123368Y-113846525D01*
X116916525Y-114053368D01*
X116800000Y-114227760D01*
X116683475Y-114053368D01*
X116476632Y-113846525D01*
X116233411Y-113684010D01*
X115963158Y-113572068D01*
X115676260Y-113515000D01*
X115383740Y-113515000D01*
X115096842Y-113572068D01*
X114826589Y-113684010D01*
X114583368Y-113846525D01*
X114376525Y-114053368D01*
X114260000Y-114227760D01*
X114143475Y-114053368D01*
X113989804Y-113899697D01*
X114761004Y-113128498D01*
X114790001Y-113104701D01*
X114872893Y-113003697D01*
X114884974Y-112988977D01*
X114955546Y-112856947D01*
X114955546Y-112856946D01*
X114999003Y-112713686D01*
X115010000Y-112602033D01*
X115010000Y-112602024D01*
X115013676Y-112564701D01*
X115010000Y-112527378D01*
X115010000Y-109458974D01*
X115264642Y-109524365D01*
X115566553Y-109540991D01*
X115865907Y-109498397D01*
X116151199Y-109398222D01*
X116300792Y-109318261D01*
X116384475Y-109064080D01*
X115500000Y-108179605D01*
X115485858Y-108193748D01*
X115306253Y-108014143D01*
X115320395Y-108000000D01*
X115679605Y-108000000D01*
X116564080Y-108884475D01*
X116712262Y-108835690D01*
X116807688Y-108978505D01*
X117021495Y-109192312D01*
X117272905Y-109360299D01*
X117552257Y-109476011D01*
X117848816Y-109535000D01*
X118151184Y-109535000D01*
X118447743Y-109476011D01*
X118727095Y-109360299D01*
X118978505Y-109192312D01*
X119192312Y-108978505D01*
X119360299Y-108727095D01*
X119476011Y-108447743D01*
X119535000Y-108151184D01*
X119535000Y-107848816D01*
X119476011Y-107552257D01*
X119360299Y-107272905D01*
X119192312Y-107021495D01*
X118978505Y-106807688D01*
X118727095Y-106639701D01*
X118447743Y-106523989D01*
X118151184Y-106465000D01*
X117848816Y-106465000D01*
X117552257Y-106523989D01*
X117272905Y-106639701D01*
X117021495Y-106807688D01*
X116807688Y-107021495D01*
X116712262Y-107164310D01*
X116564080Y-107115525D01*
X115679605Y-108000000D01*
X115320395Y-108000000D01*
X115306253Y-107985858D01*
X115485858Y-107806253D01*
X115500000Y-107820395D01*
X116384475Y-106935920D01*
X116300792Y-106681739D01*
X116028225Y-106550842D01*
X115735358Y-106475635D01*
X115433447Y-106459009D01*
X115134093Y-106501603D01*
X115010000Y-106545176D01*
X115010000Y-100193692D01*
X117040000Y-100193692D01*
X117040000Y-100806308D01*
X117159516Y-101407154D01*
X117393954Y-101973137D01*
X117734305Y-102482509D01*
X118167491Y-102915695D01*
X118676863Y-103256046D01*
X119242846Y-103490484D01*
X119843692Y-103610000D01*
X120456308Y-103610000D01*
X121057154Y-103490484D01*
X121623137Y-103256046D01*
X122132509Y-102915695D01*
X122565695Y-102482509D01*
X122906046Y-101973137D01*
X123140484Y-101407154D01*
X123260000Y-100806308D01*
X123260000Y-100193692D01*
X123140484Y-99592846D01*
X122906046Y-99026863D01*
X122565695Y-98517491D01*
X122132509Y-98084305D01*
X121623137Y-97743954D01*
X121057154Y-97509516D01*
X120456308Y-97390000D01*
X119843692Y-97390000D01*
X119242846Y-97509516D01*
X118676863Y-97743954D01*
X118167491Y-98084305D01*
X117734305Y-98517491D01*
X117393954Y-99026863D01*
X117159516Y-99592846D01*
X117040000Y-100193692D01*
X115010000Y-100193692D01*
X115010000Y-94787323D01*
X115013676Y-94750000D01*
X115010000Y-94712677D01*
X115010000Y-94712667D01*
X114999003Y-94601014D01*
X114987800Y-94564080D01*
X117115525Y-94564080D01*
X117199208Y-94818261D01*
X117471775Y-94949158D01*
X117764642Y-95024365D01*
X118066553Y-95040991D01*
X118365907Y-94998397D01*
X118651199Y-94898222D01*
X118800792Y-94818261D01*
X118884475Y-94564080D01*
X118000000Y-93679605D01*
X117115525Y-94564080D01*
X114987800Y-94564080D01*
X114955546Y-94457753D01*
X114916378Y-94384475D01*
X114884974Y-94325723D01*
X114813799Y-94238997D01*
X114790001Y-94209999D01*
X114761003Y-94186201D01*
X114483731Y-93908930D01*
X114535000Y-93651184D01*
X114535000Y-93566553D01*
X116459009Y-93566553D01*
X116501603Y-93865907D01*
X116601778Y-94151199D01*
X116681739Y-94300792D01*
X116935920Y-94384475D01*
X117820395Y-93500000D01*
X118179605Y-93500000D01*
X119064080Y-94384475D01*
X119318261Y-94300792D01*
X119449158Y-94028225D01*
X119524365Y-93735358D01*
X119540991Y-93433447D01*
X119498397Y-93134093D01*
X119398222Y-92848801D01*
X119318261Y-92699208D01*
X119064080Y-92615525D01*
X118179605Y-93500000D01*
X117820395Y-93500000D01*
X116935920Y-92615525D01*
X116681739Y-92699208D01*
X116550842Y-92971775D01*
X116475635Y-93264642D01*
X116459009Y-93566553D01*
X114535000Y-93566553D01*
X114535000Y-93348816D01*
X114476011Y-93052257D01*
X114360299Y-92772905D01*
X114192312Y-92521495D01*
X114106737Y-92435920D01*
X117115525Y-92435920D01*
X118000000Y-93320395D01*
X118884475Y-92435920D01*
X118800792Y-92181739D01*
X118528225Y-92050842D01*
X118235358Y-91975635D01*
X117933447Y-91959009D01*
X117634093Y-92001603D01*
X117348801Y-92101778D01*
X117199208Y-92181739D01*
X117115525Y-92435920D01*
X114106737Y-92435920D01*
X113978505Y-92307688D01*
X113727095Y-92139701D01*
X113447743Y-92023989D01*
X113151184Y-91965000D01*
X112848816Y-91965000D01*
X112552257Y-92023989D01*
X112272905Y-92139701D01*
X112021495Y-92307688D01*
X111807688Y-92521495D01*
X111639701Y-92772905D01*
X111523989Y-93052257D01*
X111465000Y-93348816D01*
X111465000Y-93651184D01*
X111523989Y-93947743D01*
X111639701Y-94227095D01*
X111807688Y-94478505D01*
X112021495Y-94692312D01*
X112272905Y-94860299D01*
X112552257Y-94976011D01*
X112848816Y-95035000D01*
X113151184Y-95035000D01*
X113408930Y-94983731D01*
X113490001Y-95064803D01*
X113490001Y-98853189D01*
X113265695Y-98517491D01*
X112832509Y-98084305D01*
X112323137Y-97743954D01*
X111757154Y-97509516D01*
X111156308Y-97390000D01*
X110543692Y-97390000D01*
X109942846Y-97509516D01*
X109376863Y-97743954D01*
X108867491Y-98084305D01*
X108434305Y-98517491D01*
X108093954Y-99026863D01*
X107859516Y-99592846D01*
X107740000Y-100193692D01*
X107740000Y-100806308D01*
X107859516Y-101407154D01*
X108093954Y-101973137D01*
X108434305Y-102482509D01*
X108867491Y-102915695D01*
X109376863Y-103256046D01*
X109942846Y-103490484D01*
X110543692Y-103610000D01*
X111156308Y-103610000D01*
X111757154Y-103490484D01*
X112323137Y-103256046D01*
X112832509Y-102915695D01*
X113265695Y-102482509D01*
X113490001Y-102146811D01*
X113490000Y-106541493D01*
X113447743Y-106523989D01*
X113151184Y-106465000D01*
X112848816Y-106465000D01*
X112552257Y-106523989D01*
X112272905Y-106639701D01*
X112021495Y-106807688D01*
X111807688Y-107021495D01*
X111639701Y-107272905D01*
X111523989Y-107552257D01*
X111465000Y-107848816D01*
X111465000Y-108151184D01*
X111523989Y-108447743D01*
X111639701Y-108727095D01*
X111807688Y-108978505D01*
X112021495Y-109192312D01*
X112272905Y-109360299D01*
X112552257Y-109476011D01*
X112848816Y-109535000D01*
X113151184Y-109535000D01*
X113447743Y-109476011D01*
X113490000Y-109458507D01*
X113490000Y-112249898D01*
X112478998Y-113260901D01*
X112450000Y-113284699D01*
X112426203Y-113313696D01*
X112426201Y-113313698D01*
X112355026Y-113400424D01*
X112284454Y-113532454D01*
X112258061Y-113619463D01*
X112240998Y-113675714D01*
X112236912Y-113717203D01*
X112043368Y-113846525D01*
X111836525Y-114053368D01*
X111720000Y-114227760D01*
X111603475Y-114053368D01*
X111396632Y-113846525D01*
X111153411Y-113684010D01*
X110883158Y-113572068D01*
X110596260Y-113515000D01*
X110303740Y-113515000D01*
X110016842Y-113572068D01*
X109746589Y-113684010D01*
X109503368Y-113846525D01*
X109296525Y-114053368D01*
X109180000Y-114227760D01*
X109063475Y-114053368D01*
X108856632Y-113846525D01*
X108613411Y-113684010D01*
X108343158Y-113572068D01*
X108056260Y-113515000D01*
X107763740Y-113515000D01*
X107476842Y-113572068D01*
X107206589Y-113684010D01*
X106963368Y-113846525D01*
X106756525Y-114053368D01*
X106640000Y-114227760D01*
X106523475Y-114053368D01*
X106316632Y-113846525D01*
X106130680Y-113722276D01*
X106130000Y-113715376D01*
X106130000Y-113715367D01*
X106119003Y-113603714D01*
X106075546Y-113460453D01*
X106004974Y-113328424D01*
X105957229Y-113270246D01*
X105933799Y-113241696D01*
X105933795Y-113241692D01*
X105910001Y-113212699D01*
X105881008Y-113188905D01*
X88692004Y-95999903D01*
X88668201Y-95970899D01*
X88552476Y-95875926D01*
X88420447Y-95805354D01*
X88277186Y-95761897D01*
X88165533Y-95750900D01*
X88165522Y-95750900D01*
X88128200Y-95747224D01*
X88090878Y-95750900D01*
X84325702Y-95750900D01*
X83138882Y-94564080D01*
X85115525Y-94564080D01*
X85199208Y-94818261D01*
X85471775Y-94949158D01*
X85764642Y-95024365D01*
X86066553Y-95040991D01*
X86365907Y-94998397D01*
X86651199Y-94898222D01*
X86800792Y-94818261D01*
X86884475Y-94564080D01*
X86000000Y-93679605D01*
X85115525Y-94564080D01*
X83138882Y-94564080D01*
X82483731Y-93908930D01*
X82535000Y-93651184D01*
X82535000Y-93566553D01*
X84459009Y-93566553D01*
X84501603Y-93865907D01*
X84601778Y-94151199D01*
X84681739Y-94300792D01*
X84935920Y-94384475D01*
X85820395Y-93500000D01*
X86179605Y-93500000D01*
X87064080Y-94384475D01*
X87318261Y-94300792D01*
X87449158Y-94028225D01*
X87524365Y-93735358D01*
X87540991Y-93433447D01*
X87498397Y-93134093D01*
X87398222Y-92848801D01*
X87318261Y-92699208D01*
X87064080Y-92615525D01*
X86179605Y-93500000D01*
X85820395Y-93500000D01*
X84935920Y-92615525D01*
X84681739Y-92699208D01*
X84550842Y-92971775D01*
X84475635Y-93264642D01*
X84459009Y-93566553D01*
X82535000Y-93566553D01*
X82535000Y-93348816D01*
X82476011Y-93052257D01*
X82360299Y-92772905D01*
X82192312Y-92521495D01*
X82106737Y-92435920D01*
X85115525Y-92435920D01*
X86000000Y-93320395D01*
X86884475Y-92435920D01*
X86800792Y-92181739D01*
X86528225Y-92050842D01*
X86235358Y-91975635D01*
X85933447Y-91959009D01*
X85634093Y-92001603D01*
X85348801Y-92101778D01*
X85199208Y-92181739D01*
X85115525Y-92435920D01*
X82106737Y-92435920D01*
X81978505Y-92307688D01*
X81727095Y-92139701D01*
X81447743Y-92023989D01*
X81151184Y-91965000D01*
X80848816Y-91965000D01*
X80552257Y-92023989D01*
X80272905Y-92139701D01*
X80021495Y-92307688D01*
X79807688Y-92521495D01*
X79639701Y-92772905D01*
X79523989Y-93052257D01*
X79465000Y-93348816D01*
X79465000Y-93651184D01*
X79523989Y-93947743D01*
X79639701Y-94227095D01*
X79807688Y-94478505D01*
X80021495Y-94692312D01*
X80272905Y-94860299D01*
X80552257Y-94976011D01*
X80848816Y-95035000D01*
X81151184Y-95035000D01*
X81408930Y-94983731D01*
X83447100Y-97021902D01*
X83470899Y-97050901D01*
X83499897Y-97074699D01*
X83586624Y-97145874D01*
X83718653Y-97216446D01*
X83861914Y-97259903D01*
X84010900Y-97274577D01*
X84048233Y-97270900D01*
X87813399Y-97270900D01*
X87932499Y-97390000D01*
X87843692Y-97390000D01*
X87242846Y-97509516D01*
X86676863Y-97743954D01*
X86167491Y-98084305D01*
X85734305Y-98517491D01*
X85393954Y-99026863D01*
X85159516Y-99592846D01*
X85040000Y-100193692D01*
X85040000Y-100806308D01*
X85159516Y-101407154D01*
X85393954Y-101973137D01*
X85734305Y-102482509D01*
X86167491Y-102915695D01*
X86327037Y-103022300D01*
X80672963Y-103022300D01*
X80832509Y-102915695D01*
X81265695Y-102482509D01*
X81606046Y-101973137D01*
X81840484Y-101407154D01*
X81960000Y-100806308D01*
X81960000Y-100193692D01*
X81840484Y-99592846D01*
X81606046Y-99026863D01*
X81265695Y-98517491D01*
X80832509Y-98084305D01*
X80323137Y-97743954D01*
X79757154Y-97509516D01*
X79156308Y-97390000D01*
X78543692Y-97390000D01*
X77942846Y-97509516D01*
X77376863Y-97743954D01*
X76867491Y-98084305D01*
X76434305Y-98517491D01*
X76093954Y-99026863D01*
X75859516Y-99592846D01*
X75740000Y-100193692D01*
X75740000Y-100806308D01*
X75859516Y-101407154D01*
X76093954Y-101973137D01*
X76434305Y-102482509D01*
X76867491Y-102915695D01*
X77027037Y-103022300D01*
X76008002Y-103022300D01*
X74090700Y-101104999D01*
X74090700Y-101042861D01*
X74050926Y-100842902D01*
X73972905Y-100654544D01*
X73859637Y-100485026D01*
X73715474Y-100340863D01*
X73545956Y-100227595D01*
X73357598Y-100149574D01*
X73157639Y-100109800D01*
X72953761Y-100109800D01*
X72753802Y-100149574D01*
X72565444Y-100227595D01*
X72395926Y-100340863D01*
X72251763Y-100485026D01*
X72138495Y-100654544D01*
X72060474Y-100842902D01*
X72020700Y-101042861D01*
X72020700Y-101246739D01*
X72060474Y-101446698D01*
X72138495Y-101635056D01*
X72187080Y-101707769D01*
X72174874Y-101695563D01*
X72005356Y-101582295D01*
X71816998Y-101504274D01*
X71617039Y-101464500D01*
X71413161Y-101464500D01*
X71213202Y-101504274D01*
X71024844Y-101582295D01*
X70855326Y-101695563D01*
X70711163Y-101839726D01*
X70597895Y-102009244D01*
X70519874Y-102197602D01*
X70480100Y-102397561D01*
X70480100Y-102601439D01*
X70519874Y-102801398D01*
X70597895Y-102989756D01*
X70711163Y-103159274D01*
X70855326Y-103303437D01*
X71024844Y-103416705D01*
X71213202Y-103494726D01*
X71413161Y-103534500D01*
X71475299Y-103534500D01*
X82180797Y-114240000D01*
X77068802Y-114240000D01*
X59279104Y-96450303D01*
X59255301Y-96421299D01*
X59139576Y-96326326D01*
X59007547Y-96255754D01*
X58864286Y-96212297D01*
X58752633Y-96201300D01*
X58752622Y-96201300D01*
X58715300Y-96197624D01*
X58677978Y-96201300D01*
X52776103Y-96201300D01*
X51138882Y-94564080D01*
X53115525Y-94564080D01*
X53199208Y-94818261D01*
X53471775Y-94949158D01*
X53764642Y-95024365D01*
X54066553Y-95040991D01*
X54365907Y-94998397D01*
X54651199Y-94898222D01*
X54800792Y-94818261D01*
X54884475Y-94564080D01*
X54000000Y-93679605D01*
X53115525Y-94564080D01*
X51138882Y-94564080D01*
X50483731Y-93908930D01*
X50535000Y-93651184D01*
X50535000Y-93566553D01*
X52459009Y-93566553D01*
X52501603Y-93865907D01*
X52601778Y-94151199D01*
X52681739Y-94300792D01*
X52935920Y-94384475D01*
X53820395Y-93500000D01*
X54179605Y-93500000D01*
X55064080Y-94384475D01*
X55318261Y-94300792D01*
X55449158Y-94028225D01*
X55524365Y-93735358D01*
X55540991Y-93433447D01*
X55498397Y-93134093D01*
X55398222Y-92848801D01*
X55318261Y-92699208D01*
X55064080Y-92615525D01*
X54179605Y-93500000D01*
X53820395Y-93500000D01*
X52935920Y-92615525D01*
X52681739Y-92699208D01*
X52550842Y-92971775D01*
X52475635Y-93264642D01*
X52459009Y-93566553D01*
X50535000Y-93566553D01*
X50535000Y-93348816D01*
X50476011Y-93052257D01*
X50360299Y-92772905D01*
X50192312Y-92521495D01*
X50106737Y-92435920D01*
X53115525Y-92435920D01*
X54000000Y-93320395D01*
X54884475Y-92435920D01*
X54800792Y-92181739D01*
X54528225Y-92050842D01*
X54235358Y-91975635D01*
X53933447Y-91959009D01*
X53634093Y-92001603D01*
X53348801Y-92101778D01*
X53199208Y-92181739D01*
X53115525Y-92435920D01*
X50106737Y-92435920D01*
X49978505Y-92307688D01*
X49727095Y-92139701D01*
X49447743Y-92023989D01*
X49151184Y-91965000D01*
X48848816Y-91965000D01*
X48552257Y-92023989D01*
X48272905Y-92139701D01*
X48021495Y-92307688D01*
X47807688Y-92521495D01*
X47639701Y-92772905D01*
X47523989Y-93052257D01*
X47465000Y-93348816D01*
X47465000Y-93651184D01*
X47523989Y-93947743D01*
X47639701Y-94227095D01*
X47807688Y-94478505D01*
X48021495Y-94692312D01*
X48272905Y-94860299D01*
X48552257Y-94976011D01*
X48848816Y-95035000D01*
X49151184Y-95035000D01*
X49408930Y-94983731D01*
X51897505Y-97472308D01*
X51921299Y-97501301D01*
X51950292Y-97525095D01*
X51950296Y-97525099D01*
X52020985Y-97583111D01*
X52037024Y-97596274D01*
X52169053Y-97666846D01*
X52312314Y-97710303D01*
X52423967Y-97721300D01*
X52423976Y-97721300D01*
X52461299Y-97724976D01*
X52498622Y-97721300D01*
X54731555Y-97721300D01*
X54676863Y-97743954D01*
X54167491Y-98084305D01*
X53734305Y-98517491D01*
X53393954Y-99026863D01*
X53159516Y-99592846D01*
X53040000Y-100193692D01*
X53040000Y-100806308D01*
X53159516Y-101407154D01*
X53393954Y-101973137D01*
X53734305Y-102482509D01*
X54167491Y-102915695D01*
X54676863Y-103256046D01*
X55242846Y-103490484D01*
X55843692Y-103610000D01*
X56456308Y-103610000D01*
X57057154Y-103490484D01*
X57623137Y-103256046D01*
X58132509Y-102915695D01*
X58565695Y-102482509D01*
X58906046Y-101973137D01*
X59140484Y-101407154D01*
X59260000Y-100806308D01*
X59260000Y-100193692D01*
X59140484Y-99592846D01*
X58906046Y-99026863D01*
X58565695Y-98517491D01*
X58132509Y-98084305D01*
X57623137Y-97743954D01*
X57568445Y-97721300D01*
X58400499Y-97721300D01*
X76094598Y-115415400D01*
X55324102Y-115415400D01*
X49395170Y-109486468D01*
X49447743Y-109476011D01*
X49727095Y-109360299D01*
X49978505Y-109192312D01*
X50106737Y-109064080D01*
X50615525Y-109064080D01*
X50699208Y-109318261D01*
X50971775Y-109449158D01*
X51264642Y-109524365D01*
X51566553Y-109540991D01*
X51865907Y-109498397D01*
X52151199Y-109398222D01*
X52300792Y-109318261D01*
X52384475Y-109064080D01*
X51500000Y-108179605D01*
X50615525Y-109064080D01*
X50106737Y-109064080D01*
X50192312Y-108978505D01*
X50287738Y-108835690D01*
X50435920Y-108884475D01*
X51320395Y-108000000D01*
X51679605Y-108000000D01*
X52564080Y-108884475D01*
X52712262Y-108835690D01*
X52807688Y-108978505D01*
X53021495Y-109192312D01*
X53272905Y-109360299D01*
X53552257Y-109476011D01*
X53848816Y-109535000D01*
X54151184Y-109535000D01*
X54447743Y-109476011D01*
X54727095Y-109360299D01*
X54978505Y-109192312D01*
X55192312Y-108978505D01*
X55360299Y-108727095D01*
X55476011Y-108447743D01*
X55535000Y-108151184D01*
X55535000Y-107848816D01*
X55476011Y-107552257D01*
X55360299Y-107272905D01*
X55192312Y-107021495D01*
X54978505Y-106807688D01*
X54727095Y-106639701D01*
X54447743Y-106523989D01*
X54151184Y-106465000D01*
X53848816Y-106465000D01*
X53552257Y-106523989D01*
X53272905Y-106639701D01*
X53021495Y-106807688D01*
X52807688Y-107021495D01*
X52712262Y-107164310D01*
X52564080Y-107115525D01*
X51679605Y-108000000D01*
X51320395Y-108000000D01*
X50435920Y-107115525D01*
X50287738Y-107164310D01*
X50192312Y-107021495D01*
X50106737Y-106935920D01*
X50615525Y-106935920D01*
X51500000Y-107820395D01*
X52384475Y-106935920D01*
X52300792Y-106681739D01*
X52028225Y-106550842D01*
X51735358Y-106475635D01*
X51433447Y-106459009D01*
X51134093Y-106501603D01*
X50848801Y-106601778D01*
X50699208Y-106681739D01*
X50615525Y-106935920D01*
X50106737Y-106935920D01*
X49978505Y-106807688D01*
X49727095Y-106639701D01*
X49447743Y-106523989D01*
X49151184Y-106465000D01*
X48848816Y-106465000D01*
X48552257Y-106523989D01*
X48272905Y-106639701D01*
X48021495Y-106807688D01*
X47807688Y-107021495D01*
X47639701Y-107272905D01*
X47523989Y-107552257D01*
X47513532Y-107604830D01*
X42368400Y-102459699D01*
X42368400Y-102397561D01*
X42328626Y-102197602D01*
X42250605Y-102009244D01*
X42137337Y-101839726D01*
X41993174Y-101695563D01*
X41823656Y-101582295D01*
X41635298Y-101504274D01*
X41435339Y-101464500D01*
X41231461Y-101464500D01*
X41031502Y-101504274D01*
X40843144Y-101582295D01*
X40673626Y-101695563D01*
X40529463Y-101839726D01*
X40416195Y-102009244D01*
X40338174Y-102197602D01*
X40298400Y-102397561D01*
X33660000Y-102397561D01*
X33660000Y-100193692D01*
X43740000Y-100193692D01*
X43740000Y-100806308D01*
X43859516Y-101407154D01*
X44093954Y-101973137D01*
X44434305Y-102482509D01*
X44867491Y-102915695D01*
X45376863Y-103256046D01*
X45942846Y-103490484D01*
X46543692Y-103610000D01*
X47156308Y-103610000D01*
X47757154Y-103490484D01*
X48323137Y-103256046D01*
X48832509Y-102915695D01*
X49265695Y-102482509D01*
X49606046Y-101973137D01*
X49840484Y-101407154D01*
X49960000Y-100806308D01*
X49960000Y-100193692D01*
X49840484Y-99592846D01*
X49606046Y-99026863D01*
X49265695Y-98517491D01*
X48832509Y-98084305D01*
X48323137Y-97743954D01*
X47757154Y-97509516D01*
X47156308Y-97390000D01*
X46543692Y-97390000D01*
X45942846Y-97509516D01*
X45376863Y-97743954D01*
X44867491Y-98084305D01*
X44434305Y-98517491D01*
X44093954Y-99026863D01*
X43859516Y-99592846D01*
X43740000Y-100193692D01*
X33660000Y-100193692D01*
X33660000Y-90653306D01*
X33870398Y-90717130D01*
X34051835Y-90735000D01*
X34873165Y-90735000D01*
X35054602Y-90717130D01*
X35287401Y-90646511D01*
X35501949Y-90531833D01*
X35690002Y-90377502D01*
X35844333Y-90189449D01*
X35959011Y-89974901D01*
X36029630Y-89742102D01*
X36053475Y-89500000D01*
X36029630Y-89257898D01*
X36026617Y-89247965D01*
X36106119Y-89366949D01*
X36295551Y-89556381D01*
X36518299Y-89705216D01*
X36765803Y-89807736D01*
X37028552Y-89860000D01*
X37296448Y-89860000D01*
X37559197Y-89807736D01*
X37806701Y-89705216D01*
X38029449Y-89556381D01*
X38218881Y-89366949D01*
X38367716Y-89144201D01*
X38470236Y-88896697D01*
X38522500Y-88633948D01*
X38522500Y-88366052D01*
X38470236Y-88103303D01*
X38367716Y-87855799D01*
X38218881Y-87633051D01*
X38029449Y-87443619D01*
X37806701Y-87294784D01*
X37559197Y-87192264D01*
X37296448Y-87140000D01*
X37028552Y-87140000D01*
X36765803Y-87192264D01*
X36518299Y-87294784D01*
X36295551Y-87443619D01*
X36106119Y-87633051D01*
X35957284Y-87855799D01*
X35854764Y-88103303D01*
X35802500Y-88366052D01*
X35802500Y-88633948D01*
X35835484Y-88799768D01*
X35690002Y-88622498D01*
X35501949Y-88468167D01*
X35287401Y-88353489D01*
X35054602Y-88282870D01*
X34873165Y-88265000D01*
X34051835Y-88265000D01*
X33870398Y-88282870D01*
X33660000Y-88346694D01*
X33660000Y-86338967D01*
X46365000Y-86338967D01*
X46365000Y-86661033D01*
X46427832Y-86976912D01*
X46551082Y-87274463D01*
X46730013Y-87542252D01*
X46957748Y-87769987D01*
X47225537Y-87948918D01*
X47523088Y-88072168D01*
X47838967Y-88135000D01*
X48161033Y-88135000D01*
X48476912Y-88072168D01*
X48774463Y-87948918D01*
X49042252Y-87769987D01*
X49269987Y-87542252D01*
X49448918Y-87274463D01*
X49572168Y-86976912D01*
X49635000Y-86661033D01*
X49635000Y-86338967D01*
X52865000Y-86338967D01*
X52865000Y-86661033D01*
X52927832Y-86976912D01*
X53051082Y-87274463D01*
X53230013Y-87542252D01*
X53457748Y-87769987D01*
X53725537Y-87948918D01*
X54023088Y-88072168D01*
X54338967Y-88135000D01*
X54661033Y-88135000D01*
X54976912Y-88072168D01*
X55274463Y-87948918D01*
X55542252Y-87769987D01*
X55769987Y-87542252D01*
X55948918Y-87274463D01*
X56072168Y-86976912D01*
X56135000Y-86661033D01*
X56135000Y-86338967D01*
X78365000Y-86338967D01*
X78365000Y-86661033D01*
X78427832Y-86976912D01*
X78551082Y-87274463D01*
X78730013Y-87542252D01*
X78957748Y-87769987D01*
X79225537Y-87948918D01*
X79523088Y-88072168D01*
X79838967Y-88135000D01*
X80161033Y-88135000D01*
X80476912Y-88072168D01*
X80774463Y-87948918D01*
X81042252Y-87769987D01*
X81269987Y-87542252D01*
X81448918Y-87274463D01*
X81572168Y-86976912D01*
X81635000Y-86661033D01*
X81635000Y-86338967D01*
X81572168Y-86023088D01*
X81448918Y-85725537D01*
X81269987Y-85457748D01*
X81042252Y-85230013D01*
X80774463Y-85051082D01*
X80476912Y-84927832D01*
X80161033Y-84865000D01*
X79838967Y-84865000D01*
X79523088Y-84927832D01*
X79225537Y-85051082D01*
X78957748Y-85230013D01*
X78730013Y-85457748D01*
X78551082Y-85725537D01*
X78427832Y-86023088D01*
X78365000Y-86338967D01*
X56135000Y-86338967D01*
X56072168Y-86023088D01*
X56066177Y-86008624D01*
X58939388Y-83135413D01*
X79044192Y-83135413D01*
X79139956Y-83399814D01*
X79429571Y-83540704D01*
X79741108Y-83622384D01*
X80062595Y-83641718D01*
X80381675Y-83597961D01*
X80686088Y-83492795D01*
X80860044Y-83399814D01*
X80955808Y-83135413D01*
X85544192Y-83135413D01*
X85639956Y-83399814D01*
X85929571Y-83540704D01*
X86241108Y-83622384D01*
X86562595Y-83641718D01*
X86881675Y-83597961D01*
X87186088Y-83492795D01*
X87360044Y-83399814D01*
X87455808Y-83135413D01*
X86500000Y-82179605D01*
X85544192Y-83135413D01*
X80955808Y-83135413D01*
X80000000Y-82179605D01*
X79044192Y-83135413D01*
X58939388Y-83135413D01*
X60012206Y-82062595D01*
X78358282Y-82062595D01*
X78402039Y-82381675D01*
X78507205Y-82686088D01*
X78600186Y-82860044D01*
X78864587Y-82955808D01*
X79820395Y-82000000D01*
X80179605Y-82000000D01*
X81135413Y-82955808D01*
X81399814Y-82860044D01*
X81540704Y-82570429D01*
X81622384Y-82258892D01*
X81634189Y-82062595D01*
X84858282Y-82062595D01*
X84902039Y-82381675D01*
X85007205Y-82686088D01*
X85100186Y-82860044D01*
X85364587Y-82955808D01*
X86320395Y-82000000D01*
X86679605Y-82000000D01*
X87635413Y-82955808D01*
X87899814Y-82860044D01*
X88040704Y-82570429D01*
X88122384Y-82258892D01*
X88141718Y-81937405D01*
X88097961Y-81618325D01*
X87992795Y-81313912D01*
X87899814Y-81139956D01*
X87635413Y-81044192D01*
X86679605Y-82000000D01*
X86320395Y-82000000D01*
X85364587Y-81044192D01*
X85100186Y-81139956D01*
X84959296Y-81429571D01*
X84877616Y-81741108D01*
X84858282Y-82062595D01*
X81634189Y-82062595D01*
X81641718Y-81937405D01*
X81597961Y-81618325D01*
X81492795Y-81313912D01*
X81399814Y-81139956D01*
X81135413Y-81044192D01*
X80179605Y-82000000D01*
X79820395Y-82000000D01*
X78864587Y-81044192D01*
X78600186Y-81139956D01*
X78459296Y-81429571D01*
X78377616Y-81741108D01*
X78358282Y-82062595D01*
X60012206Y-82062595D01*
X61210214Y-80864587D01*
X79044192Y-80864587D01*
X80000000Y-81820395D01*
X80955808Y-80864587D01*
X85544192Y-80864587D01*
X86500000Y-81820395D01*
X87455808Y-80864587D01*
X87360044Y-80600186D01*
X87070429Y-80459296D01*
X86758892Y-80377616D01*
X86437405Y-80358282D01*
X86118325Y-80402039D01*
X85813912Y-80507205D01*
X85639956Y-80600186D01*
X85544192Y-80864587D01*
X80955808Y-80864587D01*
X80860044Y-80600186D01*
X80570429Y-80459296D01*
X80258892Y-80377616D01*
X79937405Y-80358282D01*
X79618325Y-80402039D01*
X79313912Y-80507205D01*
X79139956Y-80600186D01*
X79044192Y-80864587D01*
X61210214Y-80864587D01*
X66609801Y-75465000D01*
X81961928Y-75465000D01*
X81961928Y-76535000D01*
X81974188Y-76659482D01*
X82010498Y-76779180D01*
X82069463Y-76889494D01*
X82148815Y-76986185D01*
X82245506Y-77065537D01*
X82355820Y-77124502D01*
X82475518Y-77160812D01*
X82600000Y-77173072D01*
X84400000Y-77173072D01*
X84524482Y-77160812D01*
X84644180Y-77124502D01*
X84754494Y-77065537D01*
X84851185Y-76986185D01*
X84930537Y-76889494D01*
X84989502Y-76779180D01*
X85025812Y-76659482D01*
X85038072Y-76535000D01*
X85038072Y-75465000D01*
X85025812Y-75340518D01*
X84989502Y-75220820D01*
X84952615Y-75151810D01*
X84993900Y-75037383D01*
X84868244Y-74857000D01*
X84583200Y-74857000D01*
X84524482Y-74839188D01*
X84400000Y-74826928D01*
X82600000Y-74826928D01*
X82475518Y-74839188D01*
X82416800Y-74857000D01*
X82131756Y-74857000D01*
X82006100Y-75037383D01*
X82047385Y-75151810D01*
X82010498Y-75220820D01*
X81974188Y-75340518D01*
X81961928Y-75465000D01*
X66609801Y-75465000D01*
X69884801Y-72190000D01*
X81959339Y-72190000D01*
X81981929Y-72419360D01*
X82048831Y-72639906D01*
X82147766Y-72825000D01*
X82048831Y-73010094D01*
X81981929Y-73230640D01*
X81959339Y-73460000D01*
X81981929Y-73689360D01*
X82048831Y-73909906D01*
X82149154Y-74097596D01*
X82091623Y-74185579D01*
X82006100Y-74422617D01*
X82131756Y-74603000D01*
X82872440Y-74603000D01*
X82905640Y-74613071D01*
X83077523Y-74630000D01*
X83922477Y-74630000D01*
X84094360Y-74613071D01*
X84127560Y-74603000D01*
X84868244Y-74603000D01*
X84993900Y-74422617D01*
X84908377Y-74185579D01*
X84850846Y-74097596D01*
X84951169Y-73909906D01*
X85018071Y-73689360D01*
X85040661Y-73460000D01*
X85018071Y-73230640D01*
X84951169Y-73010094D01*
X84852234Y-72825000D01*
X84951169Y-72639906D01*
X85018071Y-72419360D01*
X85040661Y-72190000D01*
X85018071Y-71960640D01*
X84951169Y-71740094D01*
X84842526Y-71536838D01*
X84696318Y-71358682D01*
X84518162Y-71212474D01*
X84314906Y-71103831D01*
X84094360Y-71036929D01*
X83922477Y-71020000D01*
X83077523Y-71020000D01*
X82905640Y-71036929D01*
X82685094Y-71103831D01*
X82481838Y-71212474D01*
X82303682Y-71358682D01*
X82157474Y-71536838D01*
X82048831Y-71740094D01*
X81981929Y-71960640D01*
X81959339Y-72190000D01*
X69884801Y-72190000D01*
X75314802Y-66760000D01*
X96261928Y-66760000D01*
X96261928Y-66850000D01*
X96274188Y-66974482D01*
X96310498Y-67094180D01*
X96369463Y-67204494D01*
X96448815Y-67301185D01*
X96545506Y-67380537D01*
X96655820Y-67439502D01*
X96728380Y-67461513D01*
X96596525Y-67593368D01*
X96434010Y-67836589D01*
X96322068Y-68106842D01*
X96265000Y-68393740D01*
X96265000Y-68686260D01*
X96322068Y-68973158D01*
X96434010Y-69243411D01*
X96596525Y-69486632D01*
X96803368Y-69693475D01*
X97046589Y-69855990D01*
X97316842Y-69967932D01*
X97603740Y-70025000D01*
X97896260Y-70025000D01*
X98183158Y-69967932D01*
X98453411Y-69855990D01*
X98696632Y-69693475D01*
X98903475Y-69486632D01*
X99020000Y-69312240D01*
X99136525Y-69486632D01*
X99343368Y-69693475D01*
X99586589Y-69855990D01*
X99856842Y-69967932D01*
X100143740Y-70025000D01*
X100436260Y-70025000D01*
X100723158Y-69967932D01*
X100993411Y-69855990D01*
X101236632Y-69693475D01*
X101443475Y-69486632D01*
X101560000Y-69312240D01*
X101676525Y-69486632D01*
X101883368Y-69693475D01*
X102126589Y-69855990D01*
X102396842Y-69967932D01*
X102683740Y-70025000D01*
X102976260Y-70025000D01*
X103263158Y-69967932D01*
X103533411Y-69855990D01*
X103776632Y-69693475D01*
X103983475Y-69486632D01*
X104100000Y-69312240D01*
X104216525Y-69486632D01*
X104423368Y-69693475D01*
X104666589Y-69855990D01*
X104696867Y-69868531D01*
X88825399Y-85740000D01*
X87954909Y-85740000D01*
X87948918Y-85725537D01*
X87769987Y-85457748D01*
X87542252Y-85230013D01*
X87274463Y-85051082D01*
X86976912Y-84927832D01*
X86661033Y-84865000D01*
X86338967Y-84865000D01*
X86023088Y-84927832D01*
X85725537Y-85051082D01*
X85457748Y-85230013D01*
X85230013Y-85457748D01*
X85051082Y-85725537D01*
X84927832Y-86023088D01*
X84865000Y-86338967D01*
X84865000Y-86661033D01*
X84927832Y-86976912D01*
X85051082Y-87274463D01*
X85230013Y-87542252D01*
X85457748Y-87769987D01*
X85725537Y-87948918D01*
X86023088Y-88072168D01*
X86338967Y-88135000D01*
X86661033Y-88135000D01*
X86976912Y-88072168D01*
X87274463Y-87948918D01*
X87542252Y-87769987D01*
X87769987Y-87542252D01*
X87948918Y-87274463D01*
X87954909Y-87260000D01*
X89102878Y-87260000D01*
X89140200Y-87263676D01*
X89177522Y-87260000D01*
X89177533Y-87260000D01*
X89289186Y-87249003D01*
X89432447Y-87205546D01*
X89564476Y-87134974D01*
X89680201Y-87040001D01*
X89704004Y-87010997D01*
X93579588Y-83135413D01*
X111044192Y-83135413D01*
X111139956Y-83399814D01*
X111429571Y-83540704D01*
X111741108Y-83622384D01*
X112062595Y-83641718D01*
X112381675Y-83597961D01*
X112686088Y-83492795D01*
X112860044Y-83399814D01*
X112955808Y-83135413D01*
X112000000Y-82179605D01*
X111044192Y-83135413D01*
X93579588Y-83135413D01*
X94652406Y-82062595D01*
X110358282Y-82062595D01*
X110402039Y-82381675D01*
X110507205Y-82686088D01*
X110600186Y-82860044D01*
X110864587Y-82955808D01*
X111820395Y-82000000D01*
X112179605Y-82000000D01*
X113135413Y-82955808D01*
X113399814Y-82860044D01*
X113540704Y-82570429D01*
X113622384Y-82258892D01*
X113641718Y-81937405D01*
X113597961Y-81618325D01*
X113492795Y-81313912D01*
X113399814Y-81139956D01*
X113135413Y-81044192D01*
X112179605Y-82000000D01*
X111820395Y-82000000D01*
X110864587Y-81044192D01*
X110600186Y-81139956D01*
X110459296Y-81429571D01*
X110377616Y-81741108D01*
X110358282Y-82062595D01*
X94652406Y-82062595D01*
X95850414Y-80864587D01*
X111044192Y-80864587D01*
X112000000Y-81820395D01*
X112955808Y-80864587D01*
X112860044Y-80600186D01*
X112570429Y-80459296D01*
X112258892Y-80377616D01*
X111937405Y-80358282D01*
X111618325Y-80402039D01*
X111313912Y-80507205D01*
X111139956Y-80600186D01*
X111044192Y-80864587D01*
X95850414Y-80864587D01*
X106998232Y-69716770D01*
X107206589Y-69855990D01*
X107476842Y-69967932D01*
X107763740Y-70025000D01*
X108056260Y-70025000D01*
X108343158Y-69967932D01*
X108613411Y-69855990D01*
X108856632Y-69693475D01*
X109063475Y-69486632D01*
X109180000Y-69312240D01*
X109296525Y-69486632D01*
X109503368Y-69693475D01*
X109746589Y-69855990D01*
X110016842Y-69967932D01*
X110303740Y-70025000D01*
X110596260Y-70025000D01*
X110883158Y-69967932D01*
X111153411Y-69855990D01*
X111396632Y-69693475D01*
X111603475Y-69486632D01*
X111720000Y-69312240D01*
X111836525Y-69486632D01*
X112043368Y-69693475D01*
X112286589Y-69855990D01*
X112556842Y-69967932D01*
X112843740Y-70025000D01*
X113136260Y-70025000D01*
X113423158Y-69967932D01*
X113693411Y-69855990D01*
X113936632Y-69693475D01*
X114143475Y-69486632D01*
X114260000Y-69312240D01*
X114376525Y-69486632D01*
X114583368Y-69693475D01*
X114826589Y-69855990D01*
X115096842Y-69967932D01*
X115383740Y-70025000D01*
X115676260Y-70025000D01*
X115963158Y-69967932D01*
X115965400Y-69967003D01*
X115965400Y-71024228D01*
X115922477Y-71020000D01*
X115077523Y-71020000D01*
X114905640Y-71036929D01*
X114685094Y-71103831D01*
X114481838Y-71212474D01*
X114303682Y-71358682D01*
X114157474Y-71536838D01*
X114048831Y-71740094D01*
X113981929Y-71960640D01*
X113959339Y-72190000D01*
X113981929Y-72419360D01*
X114048831Y-72639906D01*
X114147766Y-72825000D01*
X114048831Y-73010094D01*
X113981929Y-73230640D01*
X113959339Y-73460000D01*
X113981929Y-73689360D01*
X114048831Y-73909906D01*
X114149154Y-74097596D01*
X114091623Y-74185579D01*
X114006100Y-74422617D01*
X114131756Y-74603000D01*
X114872440Y-74603000D01*
X114905640Y-74613071D01*
X115077523Y-74630000D01*
X115647000Y-74630000D01*
X115647000Y-74826928D01*
X114600000Y-74826928D01*
X114475518Y-74839188D01*
X114416800Y-74857000D01*
X114131756Y-74857000D01*
X114006100Y-75037383D01*
X114047385Y-75151810D01*
X114010498Y-75220820D01*
X113974188Y-75340518D01*
X113961928Y-75465000D01*
X113961928Y-76535000D01*
X113974188Y-76659482D01*
X114010498Y-76779180D01*
X114069463Y-76889494D01*
X114148815Y-76986185D01*
X114245506Y-77065537D01*
X114355820Y-77124502D01*
X114475518Y-77160812D01*
X114600000Y-77173072D01*
X115965401Y-77173072D01*
X115965401Y-83965400D01*
X113811922Y-83965400D01*
X113774599Y-83961724D01*
X113737276Y-83965400D01*
X113737267Y-83965400D01*
X113625614Y-83976397D01*
X113482353Y-84019854D01*
X113350324Y-84090426D01*
X113350322Y-84090427D01*
X113350323Y-84090427D01*
X113263596Y-84161601D01*
X113263592Y-84161605D01*
X113234599Y-84185399D01*
X113210805Y-84214392D01*
X112491375Y-84933823D01*
X112476912Y-84927832D01*
X112161033Y-84865000D01*
X111838967Y-84865000D01*
X111523088Y-84927832D01*
X111225537Y-85051082D01*
X110957748Y-85230013D01*
X110730013Y-85457748D01*
X110551082Y-85725537D01*
X110427832Y-86023088D01*
X110365000Y-86338967D01*
X110365000Y-86661033D01*
X110427832Y-86976912D01*
X110551082Y-87274463D01*
X110730013Y-87542252D01*
X110957748Y-87769987D01*
X111225537Y-87948918D01*
X111523088Y-88072168D01*
X111838967Y-88135000D01*
X112161033Y-88135000D01*
X112476912Y-88072168D01*
X112774463Y-87948918D01*
X113042252Y-87769987D01*
X113269987Y-87542252D01*
X113448918Y-87274463D01*
X113572168Y-86976912D01*
X113635000Y-86661033D01*
X113635000Y-86338967D01*
X113572168Y-86023088D01*
X113566177Y-86008625D01*
X114089403Y-85485400D01*
X116410599Y-85485400D01*
X116933823Y-86008625D01*
X116927832Y-86023088D01*
X116865000Y-86338967D01*
X116865000Y-86661033D01*
X116927832Y-86976912D01*
X117051082Y-87274463D01*
X117230013Y-87542252D01*
X117457748Y-87769987D01*
X117725537Y-87948918D01*
X118023088Y-88072168D01*
X118338967Y-88135000D01*
X118661033Y-88135000D01*
X118976912Y-88072168D01*
X119274463Y-87948918D01*
X119542252Y-87769987D01*
X119769987Y-87542252D01*
X119948918Y-87274463D01*
X120072168Y-86976912D01*
X120135000Y-86661033D01*
X120135000Y-86338967D01*
X120072168Y-86023088D01*
X119948918Y-85725537D01*
X119769987Y-85457748D01*
X119542252Y-85230013D01*
X119274463Y-85051082D01*
X118976912Y-84927832D01*
X118661033Y-84865000D01*
X118338967Y-84865000D01*
X118023088Y-84927832D01*
X118008625Y-84933823D01*
X117485400Y-84410599D01*
X117485400Y-83194208D01*
X117544193Y-83135415D01*
X117639956Y-83399814D01*
X117929571Y-83540704D01*
X118241108Y-83622384D01*
X118562595Y-83641718D01*
X118881675Y-83597961D01*
X119186088Y-83492795D01*
X119360044Y-83399814D01*
X119455808Y-83135413D01*
X118500000Y-82179605D01*
X118485858Y-82193748D01*
X118306253Y-82014143D01*
X118320395Y-82000000D01*
X118679605Y-82000000D01*
X119635413Y-82955808D01*
X119899814Y-82860044D01*
X120040704Y-82570429D01*
X120122384Y-82258892D01*
X120141718Y-81937405D01*
X120097961Y-81618325D01*
X119992795Y-81313912D01*
X119899814Y-81139956D01*
X119635413Y-81044192D01*
X118679605Y-82000000D01*
X118320395Y-82000000D01*
X118306253Y-81985858D01*
X118485858Y-81806253D01*
X118500000Y-81820395D01*
X119455808Y-80864587D01*
X119360044Y-80600186D01*
X119070429Y-80459296D01*
X118758892Y-80377616D01*
X118437405Y-80358282D01*
X118118325Y-80402039D01*
X117813912Y-80507205D01*
X117639956Y-80600186D01*
X117544193Y-80864585D01*
X117485400Y-80805792D01*
X117485400Y-69905203D01*
X117636842Y-69967932D01*
X117923740Y-70025000D01*
X118216260Y-70025000D01*
X118503158Y-69967932D01*
X118773411Y-69855990D01*
X119016632Y-69693475D01*
X119223475Y-69486632D01*
X119340000Y-69312240D01*
X119456525Y-69486632D01*
X119663368Y-69693475D01*
X119906589Y-69855990D01*
X120176842Y-69967932D01*
X120463740Y-70025000D01*
X120756260Y-70025000D01*
X121043158Y-69967932D01*
X121313411Y-69855990D01*
X121556632Y-69693475D01*
X121763475Y-69486632D01*
X121880000Y-69312240D01*
X121996525Y-69486632D01*
X122203368Y-69693475D01*
X122446589Y-69855990D01*
X122716842Y-69967932D01*
X123003740Y-70025000D01*
X123296260Y-70025000D01*
X123583158Y-69967932D01*
X123853411Y-69855990D01*
X124092761Y-69696062D01*
X141407701Y-87011003D01*
X141431499Y-87040001D01*
X141547224Y-87134974D01*
X141679253Y-87205546D01*
X141822514Y-87249003D01*
X141934167Y-87260000D01*
X141934176Y-87260000D01*
X141971499Y-87263676D01*
X142008822Y-87260000D01*
X142545091Y-87260000D01*
X142551082Y-87274463D01*
X142730013Y-87542252D01*
X142957748Y-87769987D01*
X143225537Y-87948918D01*
X143523088Y-88072168D01*
X143838967Y-88135000D01*
X144161033Y-88135000D01*
X144476912Y-88072168D01*
X144774463Y-87948918D01*
X145042252Y-87769987D01*
X145269987Y-87542252D01*
X145448918Y-87274463D01*
X145572168Y-86976912D01*
X145635000Y-86661033D01*
X145635000Y-86338967D01*
X148865000Y-86338967D01*
X148865000Y-86661033D01*
X148927832Y-86976912D01*
X149051082Y-87274463D01*
X149230013Y-87542252D01*
X149457748Y-87769987D01*
X149725537Y-87948918D01*
X150023088Y-88072168D01*
X150338967Y-88135000D01*
X150661033Y-88135000D01*
X150976912Y-88072168D01*
X151274463Y-87948918D01*
X151542252Y-87769987D01*
X151769987Y-87542252D01*
X151948918Y-87274463D01*
X152072168Y-86976912D01*
X152135000Y-86661033D01*
X152135000Y-86338967D01*
X152072168Y-86023088D01*
X151948918Y-85725537D01*
X151769987Y-85457748D01*
X151542252Y-85230013D01*
X151274463Y-85051082D01*
X150976912Y-84927832D01*
X150661033Y-84865000D01*
X150338967Y-84865000D01*
X150023088Y-84927832D01*
X149725537Y-85051082D01*
X149457748Y-85230013D01*
X149230013Y-85457748D01*
X149051082Y-85725537D01*
X148927832Y-86023088D01*
X148865000Y-86338967D01*
X145635000Y-86338967D01*
X145572168Y-86023088D01*
X145448918Y-85725537D01*
X145269987Y-85457748D01*
X145042252Y-85230013D01*
X144774463Y-85051082D01*
X144476912Y-84927832D01*
X144161033Y-84865000D01*
X143838967Y-84865000D01*
X143523088Y-84927832D01*
X143225537Y-85051082D01*
X142957748Y-85230013D01*
X142730013Y-85457748D01*
X142551082Y-85725537D01*
X142545091Y-85740000D01*
X142286302Y-85740000D01*
X139681715Y-83135413D01*
X143044192Y-83135413D01*
X143139956Y-83399814D01*
X143429571Y-83540704D01*
X143741108Y-83622384D01*
X144062595Y-83641718D01*
X144381675Y-83597961D01*
X144686088Y-83492795D01*
X144860044Y-83399814D01*
X144955808Y-83135413D01*
X149544192Y-83135413D01*
X149639956Y-83399814D01*
X149929571Y-83540704D01*
X150241108Y-83622384D01*
X150562595Y-83641718D01*
X150881675Y-83597961D01*
X151186088Y-83492795D01*
X151360044Y-83399814D01*
X151455808Y-83135413D01*
X150500000Y-82179605D01*
X149544192Y-83135413D01*
X144955808Y-83135413D01*
X144000000Y-82179605D01*
X143044192Y-83135413D01*
X139681715Y-83135413D01*
X138608897Y-82062595D01*
X142358282Y-82062595D01*
X142402039Y-82381675D01*
X142507205Y-82686088D01*
X142600186Y-82860044D01*
X142864587Y-82955808D01*
X143820395Y-82000000D01*
X144179605Y-82000000D01*
X145135413Y-82955808D01*
X145399814Y-82860044D01*
X145540704Y-82570429D01*
X145622384Y-82258892D01*
X145634189Y-82062595D01*
X148858282Y-82062595D01*
X148902039Y-82381675D01*
X149007205Y-82686088D01*
X149100186Y-82860044D01*
X149364587Y-82955808D01*
X150320395Y-82000000D01*
X150679605Y-82000000D01*
X151635413Y-82955808D01*
X151899814Y-82860044D01*
X152040704Y-82570429D01*
X152122384Y-82258892D01*
X152141718Y-81937405D01*
X152097961Y-81618325D01*
X151992795Y-81313912D01*
X151899814Y-81139956D01*
X151635413Y-81044192D01*
X150679605Y-82000000D01*
X150320395Y-82000000D01*
X149364587Y-81044192D01*
X149100186Y-81139956D01*
X148959296Y-81429571D01*
X148877616Y-81741108D01*
X148858282Y-82062595D01*
X145634189Y-82062595D01*
X145641718Y-81937405D01*
X145597961Y-81618325D01*
X145492795Y-81313912D01*
X145399814Y-81139956D01*
X145135413Y-81044192D01*
X144179605Y-82000000D01*
X143820395Y-82000000D01*
X142864587Y-81044192D01*
X142600186Y-81139956D01*
X142459296Y-81429571D01*
X142377616Y-81741108D01*
X142358282Y-82062595D01*
X138608897Y-82062595D01*
X137410889Y-80864587D01*
X143044192Y-80864587D01*
X144000000Y-81820395D01*
X144955808Y-80864587D01*
X149544192Y-80864587D01*
X150500000Y-81820395D01*
X151455808Y-80864587D01*
X151360044Y-80600186D01*
X151070429Y-80459296D01*
X150758892Y-80377616D01*
X150437405Y-80358282D01*
X150118325Y-80402039D01*
X149813912Y-80507205D01*
X149639956Y-80600186D01*
X149544192Y-80864587D01*
X144955808Y-80864587D01*
X144860044Y-80600186D01*
X144570429Y-80459296D01*
X144258892Y-80377616D01*
X143937405Y-80358282D01*
X143618325Y-80402039D01*
X143313912Y-80507205D01*
X143139956Y-80600186D01*
X143044192Y-80864587D01*
X137410889Y-80864587D01*
X132011302Y-75465000D01*
X145961928Y-75465000D01*
X145961928Y-76535000D01*
X145974188Y-76659482D01*
X146010498Y-76779180D01*
X146069463Y-76889494D01*
X146148815Y-76986185D01*
X146245506Y-77065537D01*
X146355820Y-77124502D01*
X146475518Y-77160812D01*
X146600000Y-77173072D01*
X148400000Y-77173072D01*
X148524482Y-77160812D01*
X148644180Y-77124502D01*
X148754494Y-77065537D01*
X148851185Y-76986185D01*
X148930537Y-76889494D01*
X148989502Y-76779180D01*
X149025812Y-76659482D01*
X149038072Y-76535000D01*
X149038072Y-75465000D01*
X149025812Y-75340518D01*
X148989502Y-75220820D01*
X148952615Y-75151810D01*
X148993900Y-75037383D01*
X148868244Y-74857000D01*
X148583200Y-74857000D01*
X148524482Y-74839188D01*
X148400000Y-74826928D01*
X146600000Y-74826928D01*
X146475518Y-74839188D01*
X146416800Y-74857000D01*
X146131756Y-74857000D01*
X146006100Y-75037383D01*
X146047385Y-75151810D01*
X146010498Y-75220820D01*
X145974188Y-75340518D01*
X145961928Y-75465000D01*
X132011302Y-75465000D01*
X128736302Y-72190000D01*
X145959339Y-72190000D01*
X145981929Y-72419360D01*
X146048831Y-72639906D01*
X146147766Y-72825000D01*
X146048831Y-73010094D01*
X145981929Y-73230640D01*
X145959339Y-73460000D01*
X145981929Y-73689360D01*
X146048831Y-73909906D01*
X146149154Y-74097596D01*
X146091623Y-74185579D01*
X146006100Y-74422617D01*
X146131756Y-74603000D01*
X146872440Y-74603000D01*
X146905640Y-74613071D01*
X147077523Y-74630000D01*
X147922477Y-74630000D01*
X148094360Y-74613071D01*
X148127560Y-74603000D01*
X148868244Y-74603000D01*
X148993900Y-74422617D01*
X148908377Y-74185579D01*
X148850846Y-74097596D01*
X148951169Y-73909906D01*
X149018071Y-73689360D01*
X149040661Y-73460000D01*
X149018071Y-73230640D01*
X148951169Y-73010094D01*
X148852234Y-72825000D01*
X148951169Y-72639906D01*
X149018071Y-72419360D01*
X149040661Y-72190000D01*
X149018071Y-71960640D01*
X148951169Y-71740094D01*
X148842526Y-71536838D01*
X148696318Y-71358682D01*
X148518162Y-71212474D01*
X148314906Y-71103831D01*
X148094360Y-71036929D01*
X147922477Y-71020000D01*
X147077523Y-71020000D01*
X146905640Y-71036929D01*
X146685094Y-71103831D01*
X146481838Y-71212474D01*
X146303682Y-71358682D01*
X146157474Y-71536838D01*
X146048831Y-71740094D01*
X145981929Y-71960640D01*
X145959339Y-72190000D01*
X128736302Y-72190000D01*
X126398734Y-69852433D01*
X126636632Y-69693475D01*
X126843475Y-69486632D01*
X126960000Y-69312240D01*
X127076525Y-69486632D01*
X127283368Y-69693475D01*
X127526589Y-69855990D01*
X127796842Y-69967932D01*
X128083740Y-70025000D01*
X128376260Y-70025000D01*
X128663158Y-69967932D01*
X128933411Y-69855990D01*
X129176632Y-69693475D01*
X129383475Y-69486632D01*
X129500000Y-69312240D01*
X129616525Y-69486632D01*
X129823368Y-69693475D01*
X130066589Y-69855990D01*
X130336842Y-69967932D01*
X130623740Y-70025000D01*
X130916260Y-70025000D01*
X131203158Y-69967932D01*
X131473411Y-69855990D01*
X131716632Y-69693475D01*
X131923475Y-69486632D01*
X132040000Y-69312240D01*
X132156525Y-69486632D01*
X132363368Y-69693475D01*
X132606589Y-69855990D01*
X132876842Y-69967932D01*
X133163740Y-70025000D01*
X133456260Y-70025000D01*
X133743158Y-69967932D01*
X134013411Y-69855990D01*
X134256632Y-69693475D01*
X134463475Y-69486632D01*
X134625990Y-69243411D01*
X134737932Y-68973158D01*
X134795000Y-68686260D01*
X134795000Y-68393740D01*
X134737932Y-68106842D01*
X134625990Y-67836589D01*
X134463475Y-67593368D01*
X134256632Y-67386525D01*
X134082240Y-67270000D01*
X134256632Y-67153475D01*
X134463475Y-66946632D01*
X134588178Y-66760000D01*
X155185199Y-66760000D01*
X174433823Y-86008625D01*
X174427832Y-86023088D01*
X174365000Y-86338967D01*
X174365000Y-86661033D01*
X174427832Y-86976912D01*
X174551082Y-87274463D01*
X174730013Y-87542252D01*
X174957748Y-87769987D01*
X175225537Y-87948918D01*
X175523088Y-88072168D01*
X175838967Y-88135000D01*
X176161033Y-88135000D01*
X176476912Y-88072168D01*
X176774463Y-87948918D01*
X177042252Y-87769987D01*
X177269987Y-87542252D01*
X177448918Y-87274463D01*
X177572168Y-86976912D01*
X177635000Y-86661033D01*
X177635000Y-86338967D01*
X180865000Y-86338967D01*
X180865000Y-86661033D01*
X180927832Y-86976912D01*
X181051082Y-87274463D01*
X181230013Y-87542252D01*
X181457748Y-87769987D01*
X181725537Y-87948918D01*
X182023088Y-88072168D01*
X182338967Y-88135000D01*
X182661033Y-88135000D01*
X182976912Y-88072168D01*
X183274463Y-87948918D01*
X183542252Y-87769987D01*
X183769987Y-87542252D01*
X183948918Y-87274463D01*
X184072168Y-86976912D01*
X184135000Y-86661033D01*
X184135000Y-86338967D01*
X184072168Y-86023088D01*
X183948918Y-85725537D01*
X183769987Y-85457748D01*
X183542252Y-85230013D01*
X183274463Y-85051082D01*
X182976912Y-84927832D01*
X182661033Y-84865000D01*
X182338967Y-84865000D01*
X182023088Y-84927832D01*
X181725537Y-85051082D01*
X181457748Y-85230013D01*
X181230013Y-85457748D01*
X181051082Y-85725537D01*
X180927832Y-86023088D01*
X180865000Y-86338967D01*
X177635000Y-86338967D01*
X177572168Y-86023088D01*
X177448918Y-85725537D01*
X177269987Y-85457748D01*
X177042252Y-85230013D01*
X176774463Y-85051082D01*
X176476912Y-84927832D01*
X176161033Y-84865000D01*
X175838967Y-84865000D01*
X175523088Y-84927832D01*
X175508625Y-84933823D01*
X173710215Y-83135413D01*
X175044192Y-83135413D01*
X175139956Y-83399814D01*
X175429571Y-83540704D01*
X175741108Y-83622384D01*
X176062595Y-83641718D01*
X176381675Y-83597961D01*
X176686088Y-83492795D01*
X176860044Y-83399814D01*
X176955808Y-83135413D01*
X181544192Y-83135413D01*
X181639956Y-83399814D01*
X181929571Y-83540704D01*
X182241108Y-83622384D01*
X182562595Y-83641718D01*
X182881675Y-83597961D01*
X183186088Y-83492795D01*
X183360044Y-83399814D01*
X183455808Y-83135413D01*
X182500000Y-82179605D01*
X181544192Y-83135413D01*
X176955808Y-83135413D01*
X176000000Y-82179605D01*
X175044192Y-83135413D01*
X173710215Y-83135413D01*
X172637397Y-82062595D01*
X174358282Y-82062595D01*
X174402039Y-82381675D01*
X174507205Y-82686088D01*
X174600186Y-82860044D01*
X174864587Y-82955808D01*
X175820395Y-82000000D01*
X176179605Y-82000000D01*
X177135413Y-82955808D01*
X177399814Y-82860044D01*
X177540704Y-82570429D01*
X177622384Y-82258892D01*
X177634189Y-82062595D01*
X180858282Y-82062595D01*
X180902039Y-82381675D01*
X181007205Y-82686088D01*
X181100186Y-82860044D01*
X181364587Y-82955808D01*
X182320395Y-82000000D01*
X182679605Y-82000000D01*
X183635413Y-82955808D01*
X183899814Y-82860044D01*
X184040704Y-82570429D01*
X184122384Y-82258892D01*
X184141718Y-81937405D01*
X184097961Y-81618325D01*
X183992795Y-81313912D01*
X183899814Y-81139956D01*
X183635413Y-81044192D01*
X182679605Y-82000000D01*
X182320395Y-82000000D01*
X181364587Y-81044192D01*
X181100186Y-81139956D01*
X180959296Y-81429571D01*
X180877616Y-81741108D01*
X180858282Y-82062595D01*
X177634189Y-82062595D01*
X177641718Y-81937405D01*
X177597961Y-81618325D01*
X177492795Y-81313912D01*
X177399814Y-81139956D01*
X177135413Y-81044192D01*
X176179605Y-82000000D01*
X175820395Y-82000000D01*
X174864587Y-81044192D01*
X174600186Y-81139956D01*
X174459296Y-81429571D01*
X174377616Y-81741108D01*
X174358282Y-82062595D01*
X172637397Y-82062595D01*
X171439389Y-80864587D01*
X175044192Y-80864587D01*
X176000000Y-81820395D01*
X176955808Y-80864587D01*
X181544192Y-80864587D01*
X182500000Y-81820395D01*
X183455808Y-80864587D01*
X183360044Y-80600186D01*
X183070429Y-80459296D01*
X182758892Y-80377616D01*
X182437405Y-80358282D01*
X182118325Y-80402039D01*
X181813912Y-80507205D01*
X181639956Y-80600186D01*
X181544192Y-80864587D01*
X176955808Y-80864587D01*
X176860044Y-80600186D01*
X176570429Y-80459296D01*
X176258892Y-80377616D01*
X175937405Y-80358282D01*
X175618325Y-80402039D01*
X175313912Y-80507205D01*
X175139956Y-80600186D01*
X175044192Y-80864587D01*
X171439389Y-80864587D01*
X161764802Y-71190000D01*
X178459339Y-71190000D01*
X178481929Y-71419360D01*
X178548831Y-71639906D01*
X178647766Y-71825000D01*
X178548831Y-72010094D01*
X178481929Y-72230640D01*
X178459339Y-72460000D01*
X178481929Y-72689360D01*
X178548831Y-72909906D01*
X178649154Y-73097596D01*
X178591623Y-73185579D01*
X178506100Y-73422617D01*
X178631756Y-73603000D01*
X179372440Y-73603000D01*
X179405640Y-73613071D01*
X179577523Y-73630000D01*
X180147000Y-73630000D01*
X180147000Y-73826928D01*
X179100000Y-73826928D01*
X178975518Y-73839188D01*
X178916800Y-73857000D01*
X178631756Y-73857000D01*
X178506100Y-74037383D01*
X178547385Y-74151810D01*
X178510498Y-74220820D01*
X178474188Y-74340518D01*
X178461928Y-74465000D01*
X178461928Y-75535000D01*
X178474188Y-75659482D01*
X178510498Y-75779180D01*
X178569463Y-75889494D01*
X178648815Y-75986185D01*
X178745506Y-76065537D01*
X178855820Y-76124502D01*
X178975518Y-76160812D01*
X179100000Y-76173072D01*
X180900000Y-76173072D01*
X181024482Y-76160812D01*
X181144180Y-76124502D01*
X181254494Y-76065537D01*
X181351185Y-75986185D01*
X181430537Y-75889494D01*
X181489502Y-75779180D01*
X181525812Y-75659482D01*
X181538072Y-75535000D01*
X181538072Y-74645800D01*
X181736539Y-74645800D01*
X181936498Y-74606026D01*
X182124856Y-74528005D01*
X182294374Y-74414737D01*
X182438537Y-74270574D01*
X182551805Y-74101056D01*
X182629826Y-73912698D01*
X182669600Y-73712739D01*
X182669600Y-73508861D01*
X182629826Y-73308902D01*
X182551805Y-73120544D01*
X182438537Y-72951026D01*
X182294374Y-72806863D01*
X182124856Y-72693595D01*
X181985300Y-72635789D01*
X181985300Y-72497333D01*
X181988977Y-72460000D01*
X181974303Y-72311014D01*
X181930846Y-72167753D01*
X181860274Y-72035724D01*
X181765301Y-71919999D01*
X181649576Y-71825026D01*
X181517547Y-71754454D01*
X181407745Y-71721146D01*
X181451169Y-71639906D01*
X181518071Y-71419360D01*
X181540661Y-71190000D01*
X181518071Y-70960640D01*
X181451169Y-70740094D01*
X181342526Y-70536838D01*
X181196318Y-70358682D01*
X181018162Y-70212474D01*
X180814906Y-70103831D01*
X180594360Y-70036929D01*
X180422477Y-70020000D01*
X179577523Y-70020000D01*
X179405640Y-70036929D01*
X179185094Y-70103831D01*
X178981838Y-70212474D01*
X178803682Y-70358682D01*
X178657474Y-70536838D01*
X178548831Y-70740094D01*
X178481929Y-70960640D01*
X178459339Y-71190000D01*
X161764802Y-71190000D01*
X159364523Y-68789721D01*
X189865000Y-68789721D01*
X189865000Y-69210279D01*
X189947047Y-69622756D01*
X190107988Y-70011302D01*
X190341637Y-70360983D01*
X190639017Y-70658363D01*
X190988698Y-70892012D01*
X191377244Y-71052953D01*
X191789721Y-71135000D01*
X192210279Y-71135000D01*
X192622756Y-71052953D01*
X193011302Y-70892012D01*
X193360983Y-70658363D01*
X193658363Y-70360983D01*
X193892012Y-70011302D01*
X194052953Y-69622756D01*
X194135000Y-69210279D01*
X194135000Y-68789721D01*
X194052953Y-68377244D01*
X193892012Y-67988698D01*
X193658363Y-67639017D01*
X193360983Y-67341637D01*
X193011302Y-67107988D01*
X192622756Y-66947047D01*
X192210279Y-66865000D01*
X191789721Y-66865000D01*
X191377244Y-66947047D01*
X190988698Y-67107988D01*
X190639017Y-67341637D01*
X190341637Y-67639017D01*
X190107988Y-67988698D01*
X189947047Y-68377244D01*
X189865000Y-68789721D01*
X159364523Y-68789721D01*
X156063804Y-65489003D01*
X156040001Y-65459999D01*
X155924276Y-65365026D01*
X155792247Y-65294454D01*
X155648986Y-65250997D01*
X155537333Y-65240000D01*
X155537322Y-65240000D01*
X155500000Y-65236324D01*
X155462678Y-65240000D01*
X134588178Y-65240000D01*
X134463475Y-65053368D01*
X134256632Y-64846525D01*
X134013411Y-64684010D01*
X133743158Y-64572068D01*
X133456260Y-64515000D01*
X133163740Y-64515000D01*
X132876842Y-64572068D01*
X132606589Y-64684010D01*
X132363368Y-64846525D01*
X132156525Y-65053368D01*
X132040000Y-65227760D01*
X131923475Y-65053368D01*
X131716632Y-64846525D01*
X131473411Y-64684010D01*
X131203158Y-64572068D01*
X130916260Y-64515000D01*
X130623740Y-64515000D01*
X130336842Y-64572068D01*
X130066589Y-64684010D01*
X129823368Y-64846525D01*
X129616525Y-65053368D01*
X129500000Y-65227760D01*
X129383475Y-65053368D01*
X129176632Y-64846525D01*
X128933411Y-64684010D01*
X128663158Y-64572068D01*
X128376260Y-64515000D01*
X128083740Y-64515000D01*
X127796842Y-64572068D01*
X127526589Y-64684010D01*
X127283368Y-64846525D01*
X127076525Y-65053368D01*
X126960000Y-65227760D01*
X126843475Y-65053368D01*
X126636632Y-64846525D01*
X126393411Y-64684010D01*
X126123158Y-64572068D01*
X125836260Y-64515000D01*
X125543740Y-64515000D01*
X125256842Y-64572068D01*
X124986589Y-64684010D01*
X124743368Y-64846525D01*
X124536525Y-65053368D01*
X124420000Y-65227760D01*
X124303475Y-65053368D01*
X124096632Y-64846525D01*
X123853411Y-64684010D01*
X123583158Y-64572068D01*
X123296260Y-64515000D01*
X123003740Y-64515000D01*
X122716842Y-64572068D01*
X122446589Y-64684010D01*
X122203368Y-64846525D01*
X121996525Y-65053368D01*
X121880000Y-65227760D01*
X121763475Y-65053368D01*
X121556632Y-64846525D01*
X121313411Y-64684010D01*
X121043158Y-64572068D01*
X120756260Y-64515000D01*
X120463740Y-64515000D01*
X120176842Y-64572068D01*
X119906589Y-64684010D01*
X119663368Y-64846525D01*
X119456525Y-65053368D01*
X119340000Y-65227760D01*
X119223475Y-65053368D01*
X119016632Y-64846525D01*
X118773411Y-64684010D01*
X118503158Y-64572068D01*
X118216260Y-64515000D01*
X117923740Y-64515000D01*
X117636842Y-64572068D01*
X117366589Y-64684010D01*
X117123368Y-64846525D01*
X116916525Y-65053368D01*
X116800000Y-65227760D01*
X116683475Y-65053368D01*
X116476632Y-64846525D01*
X116233411Y-64684010D01*
X115963158Y-64572068D01*
X115676260Y-64515000D01*
X115383740Y-64515000D01*
X115096842Y-64572068D01*
X114826589Y-64684010D01*
X114583368Y-64846525D01*
X114376525Y-65053368D01*
X114260000Y-65227760D01*
X114143475Y-65053368D01*
X113936632Y-64846525D01*
X113693411Y-64684010D01*
X113423158Y-64572068D01*
X113136260Y-64515000D01*
X112843740Y-64515000D01*
X112556842Y-64572068D01*
X112286589Y-64684010D01*
X112043368Y-64846525D01*
X111836525Y-65053368D01*
X111720000Y-65227760D01*
X111603475Y-65053368D01*
X111396632Y-64846525D01*
X111153411Y-64684010D01*
X110883158Y-64572068D01*
X110596260Y-64515000D01*
X110303740Y-64515000D01*
X110016842Y-64572068D01*
X109746589Y-64684010D01*
X109503368Y-64846525D01*
X109296525Y-65053368D01*
X109180000Y-65227760D01*
X109063475Y-65053368D01*
X108856632Y-64846525D01*
X108613411Y-64684010D01*
X108343158Y-64572068D01*
X108056260Y-64515000D01*
X107763740Y-64515000D01*
X107476842Y-64572068D01*
X107206589Y-64684010D01*
X106963368Y-64846525D01*
X106756525Y-65053368D01*
X106640000Y-65227760D01*
X106523475Y-65053368D01*
X106316632Y-64846525D01*
X106073411Y-64684010D01*
X105803158Y-64572068D01*
X105516260Y-64515000D01*
X105223740Y-64515000D01*
X104936842Y-64572068D01*
X104666589Y-64684010D01*
X104423368Y-64846525D01*
X104216525Y-65053368D01*
X104100000Y-65227760D01*
X103983475Y-65053368D01*
X103776632Y-64846525D01*
X103533411Y-64684010D01*
X103263158Y-64572068D01*
X102976260Y-64515000D01*
X102683740Y-64515000D01*
X102396842Y-64572068D01*
X102126589Y-64684010D01*
X101883368Y-64846525D01*
X101676525Y-65053368D01*
X101560000Y-65227760D01*
X101443475Y-65053368D01*
X101236632Y-64846525D01*
X100993411Y-64684010D01*
X100723158Y-64572068D01*
X100436260Y-64515000D01*
X100143740Y-64515000D01*
X99856842Y-64572068D01*
X99586589Y-64684010D01*
X99343368Y-64846525D01*
X99211513Y-64978380D01*
X99189502Y-64905820D01*
X99130537Y-64795506D01*
X99051185Y-64698815D01*
X98954494Y-64619463D01*
X98844180Y-64560498D01*
X98724482Y-64524188D01*
X98600000Y-64511928D01*
X96900000Y-64511928D01*
X96775518Y-64524188D01*
X96655820Y-64560498D01*
X96545506Y-64619463D01*
X96448815Y-64698815D01*
X96369463Y-64795506D01*
X96310498Y-64905820D01*
X96274188Y-65025518D01*
X96261928Y-65150000D01*
X96261928Y-65240000D01*
X75037322Y-65240000D01*
X74999999Y-65236324D01*
X74962676Y-65240000D01*
X74962667Y-65240000D01*
X74851014Y-65250997D01*
X74707753Y-65294454D01*
X74575723Y-65365026D01*
X74508495Y-65420199D01*
X74459999Y-65459999D01*
X74436201Y-65488997D01*
X54991376Y-84933823D01*
X54976912Y-84927832D01*
X54661033Y-84865000D01*
X54338967Y-84865000D01*
X54023088Y-84927832D01*
X53725537Y-85051082D01*
X53457748Y-85230013D01*
X53230013Y-85457748D01*
X53051082Y-85725537D01*
X52927832Y-86023088D01*
X52865000Y-86338967D01*
X49635000Y-86338967D01*
X49572168Y-86023088D01*
X49448918Y-85725537D01*
X49269987Y-85457748D01*
X49042252Y-85230013D01*
X48774463Y-85051082D01*
X48476912Y-84927832D01*
X48161033Y-84865000D01*
X47838967Y-84865000D01*
X47523088Y-84927832D01*
X47225537Y-85051082D01*
X46957748Y-85230013D01*
X46730013Y-85457748D01*
X46551082Y-85725537D01*
X46427832Y-86023088D01*
X46365000Y-86338967D01*
X33660000Y-86338967D01*
X33660000Y-83653306D01*
X33870398Y-83717130D01*
X34051835Y-83735000D01*
X34873165Y-83735000D01*
X35054602Y-83717130D01*
X35287401Y-83646511D01*
X35501949Y-83531833D01*
X35690002Y-83377502D01*
X35835484Y-83200232D01*
X35802500Y-83366052D01*
X35802500Y-83633948D01*
X35854764Y-83896697D01*
X35957284Y-84144201D01*
X36106119Y-84366949D01*
X36295551Y-84556381D01*
X36518299Y-84705216D01*
X36765803Y-84807736D01*
X37028552Y-84860000D01*
X37296448Y-84860000D01*
X37559197Y-84807736D01*
X37806701Y-84705216D01*
X38029449Y-84556381D01*
X38218881Y-84366949D01*
X38367716Y-84144201D01*
X38470236Y-83896697D01*
X38522500Y-83633948D01*
X38522500Y-83366052D01*
X38476624Y-83135413D01*
X47044192Y-83135413D01*
X47139956Y-83399814D01*
X47429571Y-83540704D01*
X47741108Y-83622384D01*
X48062595Y-83641718D01*
X48381675Y-83597961D01*
X48686088Y-83492795D01*
X48860044Y-83399814D01*
X48955808Y-83135413D01*
X53544192Y-83135413D01*
X53639956Y-83399814D01*
X53929571Y-83540704D01*
X54241108Y-83622384D01*
X54562595Y-83641718D01*
X54881675Y-83597961D01*
X55186088Y-83492795D01*
X55360044Y-83399814D01*
X55455808Y-83135413D01*
X54500000Y-82179605D01*
X53544192Y-83135413D01*
X48955808Y-83135413D01*
X48000000Y-82179605D01*
X47044192Y-83135413D01*
X38476624Y-83135413D01*
X38470236Y-83103303D01*
X38367716Y-82855799D01*
X38218881Y-82633051D01*
X38029449Y-82443619D01*
X37806701Y-82294784D01*
X37559197Y-82192264D01*
X37296448Y-82140000D01*
X37028552Y-82140000D01*
X36765803Y-82192264D01*
X36518299Y-82294784D01*
X36295551Y-82443619D01*
X36106119Y-82633051D01*
X36026617Y-82752035D01*
X36029630Y-82742102D01*
X36053475Y-82500000D01*
X36029630Y-82257898D01*
X35970386Y-82062595D01*
X46358282Y-82062595D01*
X46402039Y-82381675D01*
X46507205Y-82686088D01*
X46600186Y-82860044D01*
X46864587Y-82955808D01*
X47820395Y-82000000D01*
X48179605Y-82000000D01*
X49135413Y-82955808D01*
X49399814Y-82860044D01*
X49540704Y-82570429D01*
X49622384Y-82258892D01*
X49634189Y-82062595D01*
X52858282Y-82062595D01*
X52902039Y-82381675D01*
X53007205Y-82686088D01*
X53100186Y-82860044D01*
X53364587Y-82955808D01*
X54320395Y-82000000D01*
X54679605Y-82000000D01*
X55635413Y-82955808D01*
X55899814Y-82860044D01*
X56040704Y-82570429D01*
X56122384Y-82258892D01*
X56141718Y-81937405D01*
X56097961Y-81618325D01*
X55992795Y-81313912D01*
X55899814Y-81139956D01*
X55635413Y-81044192D01*
X54679605Y-82000000D01*
X54320395Y-82000000D01*
X53364587Y-81044192D01*
X53100186Y-81139956D01*
X52959296Y-81429571D01*
X52877616Y-81741108D01*
X52858282Y-82062595D01*
X49634189Y-82062595D01*
X49641718Y-81937405D01*
X49597961Y-81618325D01*
X49492795Y-81313912D01*
X49399814Y-81139956D01*
X49135413Y-81044192D01*
X48179605Y-82000000D01*
X47820395Y-82000000D01*
X46864587Y-81044192D01*
X46600186Y-81139956D01*
X46459296Y-81429571D01*
X46377616Y-81741108D01*
X46358282Y-82062595D01*
X35970386Y-82062595D01*
X35959011Y-82025099D01*
X35844333Y-81810551D01*
X35690002Y-81622498D01*
X35501949Y-81468167D01*
X35287401Y-81353489D01*
X35054602Y-81282870D01*
X34873165Y-81265000D01*
X34051835Y-81265000D01*
X33870398Y-81282870D01*
X33660000Y-81346694D01*
X33660000Y-79500000D01*
X40161928Y-79500000D01*
X40161928Y-81100000D01*
X40174188Y-81224482D01*
X40210498Y-81344180D01*
X40269463Y-81454494D01*
X40348815Y-81551185D01*
X40445506Y-81630537D01*
X40555820Y-81689502D01*
X40675518Y-81725812D01*
X40800000Y-81738072D01*
X42400000Y-81738072D01*
X42524482Y-81725812D01*
X42644180Y-81689502D01*
X42754494Y-81630537D01*
X42851185Y-81551185D01*
X42861807Y-81538242D01*
X43113996Y-81657571D01*
X43388184Y-81726300D01*
X43670512Y-81740217D01*
X43950130Y-81698787D01*
X44216292Y-81603603D01*
X44341514Y-81536671D01*
X44413097Y-81292702D01*
X43600000Y-80479605D01*
X43585858Y-80493748D01*
X43406253Y-80314143D01*
X43420395Y-80300000D01*
X43779605Y-80300000D01*
X44592702Y-81113097D01*
X44836671Y-81041514D01*
X44920387Y-80864587D01*
X47044192Y-80864587D01*
X48000000Y-81820395D01*
X48955808Y-80864587D01*
X53544192Y-80864587D01*
X54500000Y-81820395D01*
X55455808Y-80864587D01*
X55360044Y-80600186D01*
X55070429Y-80459296D01*
X54758892Y-80377616D01*
X54437405Y-80358282D01*
X54118325Y-80402039D01*
X53813912Y-80507205D01*
X53639956Y-80600186D01*
X53544192Y-80864587D01*
X48955808Y-80864587D01*
X48860044Y-80600186D01*
X48570429Y-80459296D01*
X48258892Y-80377616D01*
X47937405Y-80358282D01*
X47618325Y-80402039D01*
X47313912Y-80507205D01*
X47139956Y-80600186D01*
X47044192Y-80864587D01*
X44920387Y-80864587D01*
X44957571Y-80786004D01*
X45026300Y-80511816D01*
X45040217Y-80229488D01*
X44998787Y-79949870D01*
X44903603Y-79683708D01*
X44836671Y-79558486D01*
X44592702Y-79486903D01*
X43779605Y-80300000D01*
X43420395Y-80300000D01*
X43406253Y-80285858D01*
X43585858Y-80106253D01*
X43600000Y-80120395D01*
X44413097Y-79307298D01*
X44341514Y-79063329D01*
X44086004Y-78942429D01*
X43811816Y-78873700D01*
X43529488Y-78859783D01*
X43249870Y-78901213D01*
X42983708Y-78996397D01*
X42861691Y-79061616D01*
X42851185Y-79048815D01*
X42754494Y-78969463D01*
X42644180Y-78910498D01*
X42524482Y-78874188D01*
X42400000Y-78861928D01*
X40800000Y-78861928D01*
X40675518Y-78874188D01*
X40555820Y-78910498D01*
X40445506Y-78969463D01*
X40348815Y-79048815D01*
X40269463Y-79145506D01*
X40210498Y-79255820D01*
X40174188Y-79375518D01*
X40161928Y-79500000D01*
X33660000Y-79500000D01*
X33660000Y-75465000D01*
X49461928Y-75465000D01*
X49461928Y-76535000D01*
X49474188Y-76659482D01*
X49510498Y-76779180D01*
X49569463Y-76889494D01*
X49648815Y-76986185D01*
X49745506Y-77065537D01*
X49855820Y-77124502D01*
X49975518Y-77160812D01*
X50100000Y-77173072D01*
X51900000Y-77173072D01*
X52024482Y-77160812D01*
X52144180Y-77124502D01*
X52254494Y-77065537D01*
X52351185Y-76986185D01*
X52430537Y-76889494D01*
X52489502Y-76779180D01*
X52525812Y-76659482D01*
X52538072Y-76535000D01*
X52538072Y-75465000D01*
X52525812Y-75340518D01*
X52489502Y-75220820D01*
X52452615Y-75151810D01*
X52493900Y-75037383D01*
X52368244Y-74857000D01*
X52083200Y-74857000D01*
X52024482Y-74839188D01*
X51900000Y-74826928D01*
X50100000Y-74826928D01*
X49975518Y-74839188D01*
X49916800Y-74857000D01*
X49631756Y-74857000D01*
X49506100Y-75037383D01*
X49547385Y-75151810D01*
X49510498Y-75220820D01*
X49474188Y-75340518D01*
X49461928Y-75465000D01*
X33660000Y-75465000D01*
X33660000Y-72190000D01*
X49459339Y-72190000D01*
X49481929Y-72419360D01*
X49548831Y-72639906D01*
X49647766Y-72825000D01*
X49548831Y-73010094D01*
X49481929Y-73230640D01*
X49459339Y-73460000D01*
X49481929Y-73689360D01*
X49548831Y-73909906D01*
X49649154Y-74097596D01*
X49591623Y-74185579D01*
X49506100Y-74422617D01*
X49631756Y-74603000D01*
X50372440Y-74603000D01*
X50405640Y-74613071D01*
X50577523Y-74630000D01*
X51422477Y-74630000D01*
X51594360Y-74613071D01*
X51627560Y-74603000D01*
X52368244Y-74603000D01*
X52493900Y-74422617D01*
X52408377Y-74185579D01*
X52350846Y-74097596D01*
X52451169Y-73909906D01*
X52518071Y-73689360D01*
X52540661Y-73460000D01*
X52518071Y-73230640D01*
X52451169Y-73010094D01*
X52352234Y-72825000D01*
X52451169Y-72639906D01*
X52518071Y-72419360D01*
X52540661Y-72190000D01*
X52518071Y-71960640D01*
X52451169Y-71740094D01*
X52342526Y-71536838D01*
X52196318Y-71358682D01*
X52018162Y-71212474D01*
X51814906Y-71103831D01*
X51594360Y-71036929D01*
X51422477Y-71020000D01*
X50577523Y-71020000D01*
X50405640Y-71036929D01*
X50185094Y-71103831D01*
X49981838Y-71212474D01*
X49803682Y-71358682D01*
X49657474Y-71536838D01*
X49548831Y-71740094D01*
X49481929Y-71960640D01*
X49459339Y-72190000D01*
X33660000Y-72190000D01*
X33660000Y-68789721D01*
X36865000Y-68789721D01*
X36865000Y-69210279D01*
X36947047Y-69622756D01*
X37107988Y-70011302D01*
X37341637Y-70360983D01*
X37639017Y-70658363D01*
X37988698Y-70892012D01*
X38377244Y-71052953D01*
X38789721Y-71135000D01*
X39210279Y-71135000D01*
X39622756Y-71052953D01*
X40011302Y-70892012D01*
X40360983Y-70658363D01*
X40658363Y-70360983D01*
X40892012Y-70011302D01*
X41052953Y-69622756D01*
X41135000Y-69210279D01*
X41135000Y-68789721D01*
X41052953Y-68377244D01*
X40892012Y-67988698D01*
X40658363Y-67639017D01*
X40360983Y-67341637D01*
X40011302Y-67107988D01*
X39622756Y-66947047D01*
X39210279Y-66865000D01*
X38789721Y-66865000D01*
X38377244Y-66947047D01*
X37988698Y-67107988D01*
X37639017Y-67341637D01*
X37341637Y-67639017D01*
X37107988Y-67988698D01*
X36947047Y-68377244D01*
X36865000Y-68789721D01*
X33660000Y-68789721D01*
X33660000Y-66032279D01*
X33707670Y-65546107D01*
X33839489Y-65109502D01*
X34053600Y-64706815D01*
X34341848Y-64353388D01*
X34693261Y-64062673D01*
X35094439Y-63845758D01*
X35530113Y-63710894D01*
X36014344Y-63660000D01*
X194967721Y-63660000D01*
X195453893Y-63707670D01*
G37*
X195453893Y-63707670D02*
X195890498Y-63839489D01*
X196293185Y-64053600D01*
X196646612Y-64341848D01*
X196937327Y-64693261D01*
X197154242Y-65094439D01*
X197289106Y-65530113D01*
X197340000Y-66014344D01*
X197340001Y-117967711D01*
X197292330Y-118453894D01*
X197160512Y-118890497D01*
X196946399Y-119293186D01*
X196658150Y-119646613D01*
X196306739Y-119937327D01*
X195905564Y-120154240D01*
X195469886Y-120289106D01*
X194985664Y-120340000D01*
X36032279Y-120340000D01*
X35546106Y-120292330D01*
X35109503Y-120160512D01*
X34706814Y-119946399D01*
X34353387Y-119658150D01*
X34062673Y-119306739D01*
X33845760Y-118905564D01*
X33710894Y-118469886D01*
X33660000Y-117985664D01*
X33660000Y-114789721D01*
X36865000Y-114789721D01*
X36865000Y-115210279D01*
X36947047Y-115622756D01*
X37107988Y-116011302D01*
X37341637Y-116360983D01*
X37639017Y-116658363D01*
X37988698Y-116892012D01*
X38377244Y-117052953D01*
X38789721Y-117135000D01*
X39210279Y-117135000D01*
X39622756Y-117052953D01*
X40011302Y-116892012D01*
X40360983Y-116658363D01*
X40658363Y-116360983D01*
X40892012Y-116011302D01*
X41052953Y-115622756D01*
X41135000Y-115210279D01*
X41135000Y-114789721D01*
X41052953Y-114377244D01*
X40892012Y-113988698D01*
X40658363Y-113639017D01*
X40360983Y-113341637D01*
X40011302Y-113107988D01*
X39622756Y-112947047D01*
X39210279Y-112865000D01*
X38789721Y-112865000D01*
X38377244Y-112947047D01*
X37988698Y-113107988D01*
X37639017Y-113341637D01*
X37341637Y-113639017D01*
X37107988Y-113988698D01*
X36947047Y-114377244D01*
X36865000Y-114789721D01*
X33660000Y-114789721D01*
X33660000Y-102397561D01*
X40298400Y-102397561D01*
X40298400Y-102601439D01*
X40338174Y-102801398D01*
X40416195Y-102989756D01*
X40529463Y-103159274D01*
X40673626Y-103303437D01*
X40843144Y-103416705D01*
X41031502Y-103494726D01*
X41231461Y-103534500D01*
X41293599Y-103534500D01*
X54445501Y-116686403D01*
X54469299Y-116715401D01*
X54585024Y-116810374D01*
X54717053Y-116880946D01*
X54860314Y-116924403D01*
X54971967Y-116935400D01*
X54971976Y-116935400D01*
X55009299Y-116939076D01*
X55046622Y-116935400D01*
X96393081Y-116935400D01*
X96322068Y-117106842D01*
X96265000Y-117393740D01*
X96265000Y-117686260D01*
X96322068Y-117973158D01*
X96434010Y-118243411D01*
X96596525Y-118486632D01*
X96803368Y-118693475D01*
X97046589Y-118855990D01*
X97316842Y-118967932D01*
X97603740Y-119025000D01*
X97896260Y-119025000D01*
X98183158Y-118967932D01*
X98453411Y-118855990D01*
X98696632Y-118693475D01*
X98903475Y-118486632D01*
X99025195Y-118304466D01*
X99094822Y-118421355D01*
X99289731Y-118637588D01*
X99523080Y-118811641D01*
X99785901Y-118936825D01*
X99933110Y-118981476D01*
X100163000Y-118860155D01*
X100163000Y-117667000D01*
X100143000Y-117667000D01*
X100143000Y-117413000D01*
X100163000Y-117413000D01*
X100163000Y-117393000D01*
X100417000Y-117393000D01*
X100417000Y-117413000D01*
X100437000Y-117413000D01*
X100437000Y-117667000D01*
X100417000Y-117667000D01*
X100417000Y-118860155D01*
X100646890Y-118981476D01*
X100794099Y-118936825D01*
X101056920Y-118811641D01*
X101290269Y-118637588D01*
X101485178Y-118421355D01*
X101554805Y-118304466D01*
X101676525Y-118486632D01*
X101883368Y-118693475D01*
X102126589Y-118855990D01*
X102396842Y-118967932D01*
X102683740Y-119025000D01*
X102976260Y-119025000D01*
X103263158Y-118967932D01*
X103533411Y-118855990D01*
X103776632Y-118693475D01*
X103983475Y-118486632D01*
X104100000Y-118312240D01*
X104216525Y-118486632D01*
X104423368Y-118693475D01*
X104666589Y-118855990D01*
X104936842Y-118967932D01*
X105223740Y-119025000D01*
X105516260Y-119025000D01*
X105803158Y-118967932D01*
X106073411Y-118855990D01*
X106316632Y-118693475D01*
X106523475Y-118486632D01*
X106640000Y-118312240D01*
X106756525Y-118486632D01*
X106963368Y-118693475D01*
X107206589Y-118855990D01*
X107476842Y-118967932D01*
X107763740Y-119025000D01*
X108056260Y-119025000D01*
X108343158Y-118967932D01*
X108613411Y-118855990D01*
X108856632Y-118693475D01*
X109063475Y-118486632D01*
X109180000Y-118312240D01*
X109296525Y-118486632D01*
X109503368Y-118693475D01*
X109746589Y-118855990D01*
X110016842Y-118967932D01*
X110303740Y-119025000D01*
X110596260Y-119025000D01*
X110883158Y-118967932D01*
X111153411Y-118855990D01*
X111396632Y-118693475D01*
X111603475Y-118486632D01*
X111720000Y-118312240D01*
X111836525Y-118486632D01*
X112043368Y-118693475D01*
X112286589Y-118855990D01*
X112556842Y-118967932D01*
X112843740Y-119025000D01*
X113136260Y-119025000D01*
X113423158Y-118967932D01*
X113693411Y-118855990D01*
X113936632Y-118693475D01*
X114143475Y-118486632D01*
X114260000Y-118312240D01*
X114376525Y-118486632D01*
X114583368Y-118693475D01*
X114826589Y-118855990D01*
X115096842Y-118967932D01*
X115383740Y-119025000D01*
X115676260Y-119025000D01*
X115963158Y-118967932D01*
X116233411Y-118855990D01*
X116476632Y-118693475D01*
X116683475Y-118486632D01*
X116800000Y-118312240D01*
X116916525Y-118486632D01*
X117123368Y-118693475D01*
X117366589Y-118855990D01*
X117636842Y-118967932D01*
X117923740Y-119025000D01*
X118216260Y-119025000D01*
X118503158Y-118967932D01*
X118773411Y-118855990D01*
X119016632Y-118693475D01*
X119223475Y-118486632D01*
X119340000Y-118312240D01*
X119456525Y-118486632D01*
X119663368Y-118693475D01*
X119906589Y-118855990D01*
X120176842Y-118967932D01*
X120463740Y-119025000D01*
X120756260Y-119025000D01*
X121043158Y-118967932D01*
X121313411Y-118855990D01*
X121556632Y-118693475D01*
X121763475Y-118486632D01*
X121880000Y-118312240D01*
X121996525Y-118486632D01*
X122203368Y-118693475D01*
X122446589Y-118855990D01*
X122716842Y-118967932D01*
X123003740Y-119025000D01*
X123296260Y-119025000D01*
X123583158Y-118967932D01*
X123853411Y-118855990D01*
X124096632Y-118693475D01*
X124303475Y-118486632D01*
X124420000Y-118312240D01*
X124536525Y-118486632D01*
X124743368Y-118693475D01*
X124986589Y-118855990D01*
X125256842Y-118967932D01*
X125543740Y-119025000D01*
X125836260Y-119025000D01*
X126123158Y-118967932D01*
X126393411Y-118855990D01*
X126636632Y-118693475D01*
X126843475Y-118486632D01*
X126960000Y-118312240D01*
X127076525Y-118486632D01*
X127283368Y-118693475D01*
X127526589Y-118855990D01*
X127796842Y-118967932D01*
X128083740Y-119025000D01*
X128376260Y-119025000D01*
X128663158Y-118967932D01*
X128933411Y-118855990D01*
X129176632Y-118693475D01*
X129383475Y-118486632D01*
X129500000Y-118312240D01*
X129616525Y-118486632D01*
X129823368Y-118693475D01*
X130066589Y-118855990D01*
X130336842Y-118967932D01*
X130623740Y-119025000D01*
X130916260Y-119025000D01*
X131203158Y-118967932D01*
X131473411Y-118855990D01*
X131716632Y-118693475D01*
X131923475Y-118486632D01*
X132040000Y-118312240D01*
X132156525Y-118486632D01*
X132363368Y-118693475D01*
X132606589Y-118855990D01*
X132876842Y-118967932D01*
X133163740Y-119025000D01*
X133456260Y-119025000D01*
X133743158Y-118967932D01*
X134013411Y-118855990D01*
X134256632Y-118693475D01*
X134463475Y-118486632D01*
X134625990Y-118243411D01*
X134737932Y-117973158D01*
X134795000Y-117686260D01*
X134795000Y-117393740D01*
X134737932Y-117106842D01*
X134625990Y-116836589D01*
X134463475Y-116593368D01*
X134256632Y-116386525D01*
X134082240Y-116270000D01*
X134256632Y-116153475D01*
X134463475Y-115946632D01*
X134588178Y-115760000D01*
X155462678Y-115760000D01*
X155500000Y-115763676D01*
X155537322Y-115760000D01*
X155537333Y-115760000D01*
X155648986Y-115749003D01*
X155792247Y-115705546D01*
X155924276Y-115634974D01*
X156040001Y-115540001D01*
X156063804Y-115510997D01*
X156785080Y-114789721D01*
X189865000Y-114789721D01*
X189865000Y-115210279D01*
X189947047Y-115622756D01*
X190107988Y-116011302D01*
X190341637Y-116360983D01*
X190639017Y-116658363D01*
X190988698Y-116892012D01*
X191377244Y-117052953D01*
X191789721Y-117135000D01*
X192210279Y-117135000D01*
X192622756Y-117052953D01*
X193011302Y-116892012D01*
X193360983Y-116658363D01*
X193658363Y-116360983D01*
X193892012Y-116011302D01*
X194052953Y-115622756D01*
X194135000Y-115210279D01*
X194135000Y-114789721D01*
X194052953Y-114377244D01*
X193892012Y-113988698D01*
X193658363Y-113639017D01*
X193360983Y-113341637D01*
X193011302Y-113107988D01*
X192622756Y-112947047D01*
X192210279Y-112865000D01*
X191789721Y-112865000D01*
X191377244Y-112947047D01*
X190988698Y-113107988D01*
X190639017Y-113341637D01*
X190341637Y-113639017D01*
X190107988Y-113988698D01*
X189947047Y-114377244D01*
X189865000Y-114789721D01*
X156785080Y-114789721D01*
X163725985Y-107848816D01*
X175465000Y-107848816D01*
X175465000Y-108151184D01*
X175523989Y-108447743D01*
X175639701Y-108727095D01*
X175807688Y-108978505D01*
X176021495Y-109192312D01*
X176272905Y-109360299D01*
X176552257Y-109476011D01*
X176848816Y-109535000D01*
X177151184Y-109535000D01*
X177447743Y-109476011D01*
X177727095Y-109360299D01*
X177978505Y-109192312D01*
X178106737Y-109064080D01*
X178615525Y-109064080D01*
X178699208Y-109318261D01*
X178971775Y-109449158D01*
X179264642Y-109524365D01*
X179566553Y-109540991D01*
X179865907Y-109498397D01*
X180151199Y-109398222D01*
X180300792Y-109318261D01*
X180384475Y-109064080D01*
X179500000Y-108179605D01*
X178615525Y-109064080D01*
X178106737Y-109064080D01*
X178192312Y-108978505D01*
X178287738Y-108835690D01*
X178435920Y-108884475D01*
X179320395Y-108000000D01*
X179679605Y-108000000D01*
X180564080Y-108884475D01*
X180712262Y-108835690D01*
X180807688Y-108978505D01*
X181021495Y-109192312D01*
X181272905Y-109360299D01*
X181552257Y-109476011D01*
X181848816Y-109535000D01*
X182151184Y-109535000D01*
X182447743Y-109476011D01*
X182727095Y-109360299D01*
X182978505Y-109192312D01*
X183192312Y-108978505D01*
X183360299Y-108727095D01*
X183476011Y-108447743D01*
X183535000Y-108151184D01*
X183535000Y-107848816D01*
X183476011Y-107552257D01*
X183360299Y-107272905D01*
X183192312Y-107021495D01*
X182978505Y-106807688D01*
X182727095Y-106639701D01*
X182447743Y-106523989D01*
X182151184Y-106465000D01*
X181848816Y-106465000D01*
X181552257Y-106523989D01*
X181272905Y-106639701D01*
X181021495Y-106807688D01*
X180807688Y-107021495D01*
X180712262Y-107164310D01*
X180564080Y-107115525D01*
X179679605Y-108000000D01*
X179320395Y-108000000D01*
X178435920Y-107115525D01*
X178287738Y-107164310D01*
X178192312Y-107021495D01*
X178106737Y-106935920D01*
X178615525Y-106935920D01*
X179500000Y-107820395D01*
X180384475Y-106935920D01*
X180300792Y-106681739D01*
X180028225Y-106550842D01*
X179735358Y-106475635D01*
X179433447Y-106459009D01*
X179134093Y-106501603D01*
X178848801Y-106601778D01*
X178699208Y-106681739D01*
X178615525Y-106935920D01*
X178106737Y-106935920D01*
X177978505Y-106807688D01*
X177727095Y-106639701D01*
X177447743Y-106523989D01*
X177151184Y-106465000D01*
X176848816Y-106465000D01*
X176552257Y-106523989D01*
X176272905Y-106639701D01*
X176021495Y-106807688D01*
X175807688Y-107021495D01*
X175639701Y-107272905D01*
X175523989Y-107552257D01*
X175465000Y-107848816D01*
X163725985Y-107848816D01*
X171829114Y-99745688D01*
X171740000Y-100193692D01*
X171740000Y-100806308D01*
X171859516Y-101407154D01*
X172093954Y-101973137D01*
X172434305Y-102482509D01*
X172867491Y-102915695D01*
X173376863Y-103256046D01*
X173942846Y-103490484D01*
X174543692Y-103610000D01*
X175156308Y-103610000D01*
X175757154Y-103490484D01*
X176323137Y-103256046D01*
X176832509Y-102915695D01*
X177265695Y-102482509D01*
X177606046Y-101973137D01*
X177840484Y-101407154D01*
X177960000Y-100806308D01*
X177960000Y-100193692D01*
X181040000Y-100193692D01*
X181040000Y-100806308D01*
X181159516Y-101407154D01*
X181393954Y-101973137D01*
X181734305Y-102482509D01*
X182167491Y-102915695D01*
X182676863Y-103256046D01*
X183242846Y-103490484D01*
X183843692Y-103610000D01*
X184456308Y-103610000D01*
X185057154Y-103490484D01*
X185623137Y-103256046D01*
X186132509Y-102915695D01*
X186565695Y-102482509D01*
X186906046Y-101973137D01*
X187140484Y-101407154D01*
X187260000Y-100806308D01*
X187260000Y-100193692D01*
X187140484Y-99592846D01*
X186906046Y-99026863D01*
X186565695Y-98517491D01*
X186132509Y-98084305D01*
X185623137Y-97743954D01*
X185057154Y-97509516D01*
X184456308Y-97390000D01*
X183843692Y-97390000D01*
X183242846Y-97509516D01*
X182676863Y-97743954D01*
X182167491Y-98084305D01*
X181734305Y-98517491D01*
X181393954Y-99026863D01*
X181159516Y-99592846D01*
X181040000Y-100193692D01*
X177960000Y-100193692D01*
X177840484Y-99592846D01*
X177606046Y-99026863D01*
X177265695Y-98517491D01*
X176832509Y-98084305D01*
X176323137Y-97743954D01*
X175757154Y-97509516D01*
X175156308Y-97390000D01*
X174543692Y-97390000D01*
X174095688Y-97479114D01*
X176591071Y-94983731D01*
X176848816Y-95035000D01*
X177151184Y-95035000D01*
X177447743Y-94976011D01*
X177727095Y-94860299D01*
X177978505Y-94692312D01*
X178106737Y-94564080D01*
X181115525Y-94564080D01*
X181199208Y-94818261D01*
X181471775Y-94949158D01*
X181764642Y-95024365D01*
X182066553Y-95040991D01*
X182365907Y-94998397D01*
X182651199Y-94898222D01*
X182800792Y-94818261D01*
X182884475Y-94564080D01*
X182000000Y-93679605D01*
X181115525Y-94564080D01*
X178106737Y-94564080D01*
X178192312Y-94478505D01*
X178360299Y-94227095D01*
X178476011Y-93947743D01*
X178535000Y-93651184D01*
X178535000Y-93566553D01*
X180459009Y-93566553D01*
X180501603Y-93865907D01*
X180601778Y-94151199D01*
X180681739Y-94300792D01*
X180935920Y-94384475D01*
X181820395Y-93500000D01*
X182179605Y-93500000D01*
X183064080Y-94384475D01*
X183318261Y-94300792D01*
X183449158Y-94028225D01*
X183524365Y-93735358D01*
X183540991Y-93433447D01*
X183498397Y-93134093D01*
X183398222Y-92848801D01*
X183318261Y-92699208D01*
X183064080Y-92615525D01*
X182179605Y-93500000D01*
X181820395Y-93500000D01*
X180935920Y-92615525D01*
X180681739Y-92699208D01*
X180550842Y-92971775D01*
X180475635Y-93264642D01*
X180459009Y-93566553D01*
X178535000Y-93566553D01*
X178535000Y-93348816D01*
X178476011Y-93052257D01*
X178360299Y-92772905D01*
X178192312Y-92521495D01*
X178106737Y-92435920D01*
X181115525Y-92435920D01*
X182000000Y-93320395D01*
X182884475Y-92435920D01*
X182800792Y-92181739D01*
X182528225Y-92050842D01*
X182235358Y-91975635D01*
X181933447Y-91959009D01*
X181634093Y-92001603D01*
X181348801Y-92101778D01*
X181199208Y-92181739D01*
X181115525Y-92435920D01*
X178106737Y-92435920D01*
X177978505Y-92307688D01*
X177727095Y-92139701D01*
X177447743Y-92023989D01*
X177151184Y-91965000D01*
X176848816Y-91965000D01*
X176552257Y-92023989D01*
X176272905Y-92139701D01*
X176021495Y-92307688D01*
X175807688Y-92521495D01*
X175639701Y-92772905D01*
X175523989Y-93052257D01*
X175465000Y-93348816D01*
X175465000Y-93651184D01*
X175516269Y-93908929D01*
X155185199Y-114240000D01*
X148935301Y-114240000D01*
X159585102Y-103590200D01*
X159647239Y-103590200D01*
X159847198Y-103550426D01*
X160035556Y-103472405D01*
X160205074Y-103359137D01*
X160349237Y-103214974D01*
X160462505Y-103045456D01*
X160540526Y-102857098D01*
X160580300Y-102657139D01*
X160580300Y-102453261D01*
X160540526Y-102253302D01*
X160462505Y-102064944D01*
X160349237Y-101895426D01*
X160205074Y-101751263D01*
X160035556Y-101637995D01*
X159847198Y-101559974D01*
X159647239Y-101520200D01*
X159443361Y-101520200D01*
X159243402Y-101559974D01*
X159055044Y-101637995D01*
X158885526Y-101751263D01*
X158741363Y-101895426D01*
X158628095Y-102064944D01*
X158550074Y-102253302D01*
X158510300Y-102453261D01*
X158510300Y-102515398D01*
X147960999Y-113064700D01*
X132790522Y-113064700D01*
X132753199Y-113061024D01*
X132715876Y-113064700D01*
X132715867Y-113064700D01*
X132604214Y-113075697D01*
X132465661Y-113117726D01*
X132460953Y-113119154D01*
X132328923Y-113189726D01*
X132300931Y-113212699D01*
X132213199Y-113284699D01*
X132189402Y-113313696D01*
X131680630Y-113822469D01*
X131473411Y-113684010D01*
X131203158Y-113572068D01*
X130916260Y-113515000D01*
X130623740Y-113515000D01*
X130336842Y-113572068D01*
X130066589Y-113684010D01*
X129823368Y-113846525D01*
X129616525Y-114053368D01*
X129500000Y-114227760D01*
X129383475Y-114053368D01*
X129176632Y-113846525D01*
X128933411Y-113684010D01*
X128663158Y-113572068D01*
X128376260Y-113515000D01*
X128083740Y-113515000D01*
X127796842Y-113572068D01*
X127526589Y-113684010D01*
X127283368Y-113846525D01*
X127076525Y-114053368D01*
X126960000Y-114227760D01*
X126843475Y-114053368D01*
X126636632Y-113846525D01*
X126393411Y-113684010D01*
X126123158Y-113572068D01*
X125836260Y-113515000D01*
X125543740Y-113515000D01*
X125256842Y-113572068D01*
X124986589Y-113684010D01*
X124743368Y-113846525D01*
X124536525Y-114053368D01*
X124420000Y-114227760D01*
X124303475Y-114053368D01*
X124096632Y-113846525D01*
X123853411Y-113684010D01*
X123821860Y-113670941D01*
X129643985Y-107848816D01*
X143465000Y-107848816D01*
X143465000Y-108151184D01*
X143523989Y-108447743D01*
X143639701Y-108727095D01*
X143807688Y-108978505D01*
X144021495Y-109192312D01*
X144272905Y-109360299D01*
X144552257Y-109476011D01*
X144848816Y-109535000D01*
X145151184Y-109535000D01*
X145447743Y-109476011D01*
X145727095Y-109360299D01*
X145978505Y-109192312D01*
X146106737Y-109064080D01*
X146615525Y-109064080D01*
X146699208Y-109318261D01*
X146971775Y-109449158D01*
X147264642Y-109524365D01*
X147566553Y-109540991D01*
X147865907Y-109498397D01*
X148151199Y-109398222D01*
X148300792Y-109318261D01*
X148384475Y-109064080D01*
X147500000Y-108179605D01*
X146615525Y-109064080D01*
X146106737Y-109064080D01*
X146192312Y-108978505D01*
X146287738Y-108835690D01*
X146435920Y-108884475D01*
X147320395Y-108000000D01*
X147679605Y-108000000D01*
X148564080Y-108884475D01*
X148712262Y-108835690D01*
X148807688Y-108978505D01*
X149021495Y-109192312D01*
X149272905Y-109360299D01*
X149552257Y-109476011D01*
X149848816Y-109535000D01*
X150151184Y-109535000D01*
X150447743Y-109476011D01*
X150727095Y-109360299D01*
X150978505Y-109192312D01*
X151192312Y-108978505D01*
X151360299Y-108727095D01*
X151476011Y-108447743D01*
X151535000Y-108151184D01*
X151535000Y-107848816D01*
X151476011Y-107552257D01*
X151360299Y-107272905D01*
X151192312Y-107021495D01*
X150978505Y-106807688D01*
X150727095Y-106639701D01*
X150447743Y-106523989D01*
X150151184Y-106465000D01*
X149848816Y-106465000D01*
X149552257Y-106523989D01*
X149272905Y-106639701D01*
X149021495Y-106807688D01*
X148807688Y-107021495D01*
X148712262Y-107164310D01*
X148564080Y-107115525D01*
X147679605Y-108000000D01*
X147320395Y-108000000D01*
X146435920Y-107115525D01*
X146287738Y-107164310D01*
X146192312Y-107021495D01*
X146106737Y-106935920D01*
X146615525Y-106935920D01*
X147500000Y-107820395D01*
X148384475Y-106935920D01*
X148300792Y-106681739D01*
X148028225Y-106550842D01*
X147735358Y-106475635D01*
X147433447Y-106459009D01*
X147134093Y-106501603D01*
X146848801Y-106601778D01*
X146699208Y-106681739D01*
X146615525Y-106935920D01*
X146106737Y-106935920D01*
X145978505Y-106807688D01*
X145727095Y-106639701D01*
X145447743Y-106523989D01*
X145151184Y-106465000D01*
X144848816Y-106465000D01*
X144552257Y-106523989D01*
X144272905Y-106639701D01*
X144021495Y-106807688D01*
X143807688Y-107021495D01*
X143639701Y-107272905D01*
X143523989Y-107552257D01*
X143465000Y-107848816D01*
X129643985Y-107848816D01*
X137299109Y-100193692D01*
X139740000Y-100193692D01*
X139740000Y-100806308D01*
X139859516Y-101407154D01*
X140093954Y-101973137D01*
X140434305Y-102482509D01*
X140867491Y-102915695D01*
X141376863Y-103256046D01*
X141942846Y-103490484D01*
X142543692Y-103610000D01*
X143156308Y-103610000D01*
X143757154Y-103490484D01*
X144323137Y-103256046D01*
X144832509Y-102915695D01*
X145265695Y-102482509D01*
X145606046Y-101973137D01*
X145840484Y-101407154D01*
X145960000Y-100806308D01*
X145960000Y-100193692D01*
X149040000Y-100193692D01*
X149040000Y-100806308D01*
X149159516Y-101407154D01*
X149393954Y-101973137D01*
X149734305Y-102482509D01*
X150167491Y-102915695D01*
X150676863Y-103256046D01*
X151242846Y-103490484D01*
X151843692Y-103610000D01*
X152456308Y-103610000D01*
X153057154Y-103490484D01*
X153623137Y-103256046D01*
X154132509Y-102915695D01*
X154565695Y-102482509D01*
X154906046Y-101973137D01*
X155140484Y-101407154D01*
X155260000Y-100806308D01*
X155260000Y-100193692D01*
X155140484Y-99592846D01*
X154906046Y-99026863D01*
X154565695Y-98517491D01*
X154132509Y-98084305D01*
X153623137Y-97743954D01*
X153057154Y-97509516D01*
X152456308Y-97390000D01*
X151843692Y-97390000D01*
X151242846Y-97509516D01*
X150676863Y-97743954D01*
X150167491Y-98084305D01*
X149734305Y-98517491D01*
X149393954Y-99026863D01*
X149159516Y-99592846D01*
X149040000Y-100193692D01*
X145960000Y-100193692D01*
X145840484Y-99592846D01*
X145606046Y-99026863D01*
X145265695Y-98517491D01*
X144832509Y-98084305D01*
X144323137Y-97743954D01*
X143757154Y-97509516D01*
X143156308Y-97390000D01*
X142543692Y-97390000D01*
X141942846Y-97509516D01*
X141376863Y-97743954D01*
X140867491Y-98084305D01*
X140434305Y-98517491D01*
X140093954Y-99026863D01*
X139859516Y-99592846D01*
X139740000Y-100193692D01*
X137299109Y-100193692D01*
X143232802Y-94260000D01*
X143661687Y-94260000D01*
X143807688Y-94478505D01*
X144021495Y-94692312D01*
X144272905Y-94860299D01*
X144552257Y-94976011D01*
X144848816Y-95035000D01*
X145151184Y-95035000D01*
X145447743Y-94976011D01*
X145727095Y-94860299D01*
X145978505Y-94692312D01*
X146106737Y-94564080D01*
X149115525Y-94564080D01*
X149199208Y-94818261D01*
X149471775Y-94949158D01*
X149764642Y-95024365D01*
X150066553Y-95040991D01*
X150365907Y-94998397D01*
X150651199Y-94898222D01*
X150800792Y-94818261D01*
X150884475Y-94564080D01*
X150000000Y-93679605D01*
X149115525Y-94564080D01*
X146106737Y-94564080D01*
X146192312Y-94478505D01*
X146360299Y-94227095D01*
X146476011Y-93947743D01*
X146535000Y-93651184D01*
X146535000Y-93566553D01*
X148459009Y-93566553D01*
X148501603Y-93865907D01*
X148601778Y-94151199D01*
X148681739Y-94300792D01*
X148935920Y-94384475D01*
X149820395Y-93500000D01*
X150179605Y-93500000D01*
X151064080Y-94384475D01*
X151318261Y-94300792D01*
X151449158Y-94028225D01*
X151524365Y-93735358D01*
X151540991Y-93433447D01*
X151498397Y-93134093D01*
X151398222Y-92848801D01*
X151318261Y-92699208D01*
X151064080Y-92615525D01*
X150179605Y-93500000D01*
X149820395Y-93500000D01*
X148935920Y-92615525D01*
X148681739Y-92699208D01*
X148550842Y-92971775D01*
X148475635Y-93264642D01*
X148459009Y-93566553D01*
X146535000Y-93566553D01*
X146535000Y-93348816D01*
X146476011Y-93052257D01*
X146360299Y-92772905D01*
X146192312Y-92521495D01*
X146106737Y-92435920D01*
X149115525Y-92435920D01*
X150000000Y-93320395D01*
X150884475Y-92435920D01*
X150800792Y-92181739D01*
X150528225Y-92050842D01*
X150235358Y-91975635D01*
X149933447Y-91959009D01*
X149634093Y-92001603D01*
X149348801Y-92101778D01*
X149199208Y-92181739D01*
X149115525Y-92435920D01*
X146106737Y-92435920D01*
X145978505Y-92307688D01*
X145727095Y-92139701D01*
X145447743Y-92023989D01*
X145151184Y-91965000D01*
X144848816Y-91965000D01*
X144552257Y-92023989D01*
X144272905Y-92139701D01*
X144021495Y-92307688D01*
X143807688Y-92521495D01*
X143661687Y-92740000D01*
X142955323Y-92740000D01*
X142918000Y-92736324D01*
X142880677Y-92740000D01*
X142880667Y-92740000D01*
X142769014Y-92750997D01*
X142625753Y-92794454D01*
X142493723Y-92865026D01*
X142410083Y-92933668D01*
X142377999Y-92959999D01*
X142354201Y-92988997D01*
X121520690Y-113822509D01*
X121313411Y-113684010D01*
X121043158Y-113572068D01*
X120756260Y-113515000D01*
X120463740Y-113515000D01*
X120176842Y-113572068D01*
X119906589Y-113684010D01*
X119663368Y-113846525D01*
X119456525Y-114053368D01*
X119340000Y-114227760D01*
X119223475Y-114053368D01*
X119016632Y-113846525D01*
X118773411Y-113684010D01*
X118503158Y-113572068D01*
X118216260Y-113515000D01*
X117923740Y-113515000D01*
X117636842Y-113572068D01*
X117366589Y-113684010D01*
X117123368Y-113846525D01*
X116916525Y-114053368D01*
X116800000Y-114227760D01*
X116683475Y-114053368D01*
X116476632Y-113846525D01*
X116233411Y-113684010D01*
X115963158Y-113572068D01*
X115676260Y-113515000D01*
X115383740Y-113515000D01*
X115096842Y-113572068D01*
X114826589Y-113684010D01*
X114583368Y-113846525D01*
X114376525Y-114053368D01*
X114260000Y-114227760D01*
X114143475Y-114053368D01*
X113989804Y-113899697D01*
X114761004Y-113128498D01*
X114790001Y-113104701D01*
X114872893Y-113003697D01*
X114884974Y-112988977D01*
X114955546Y-112856947D01*
X114955546Y-112856946D01*
X114999003Y-112713686D01*
X115010000Y-112602033D01*
X115010000Y-112602024D01*
X115013676Y-112564701D01*
X115010000Y-112527378D01*
X115010000Y-109458974D01*
X115264642Y-109524365D01*
X115566553Y-109540991D01*
X115865907Y-109498397D01*
X116151199Y-109398222D01*
X116300792Y-109318261D01*
X116384475Y-109064080D01*
X115500000Y-108179605D01*
X115485858Y-108193748D01*
X115306253Y-108014143D01*
X115320395Y-108000000D01*
X115679605Y-108000000D01*
X116564080Y-108884475D01*
X116712262Y-108835690D01*
X116807688Y-108978505D01*
X117021495Y-109192312D01*
X117272905Y-109360299D01*
X117552257Y-109476011D01*
X117848816Y-109535000D01*
X118151184Y-109535000D01*
X118447743Y-109476011D01*
X118727095Y-109360299D01*
X118978505Y-109192312D01*
X119192312Y-108978505D01*
X119360299Y-108727095D01*
X119476011Y-108447743D01*
X119535000Y-108151184D01*
X119535000Y-107848816D01*
X119476011Y-107552257D01*
X119360299Y-107272905D01*
X119192312Y-107021495D01*
X118978505Y-106807688D01*
X118727095Y-106639701D01*
X118447743Y-106523989D01*
X118151184Y-106465000D01*
X117848816Y-106465000D01*
X117552257Y-106523989D01*
X117272905Y-106639701D01*
X117021495Y-106807688D01*
X116807688Y-107021495D01*
X116712262Y-107164310D01*
X116564080Y-107115525D01*
X115679605Y-108000000D01*
X115320395Y-108000000D01*
X115306253Y-107985858D01*
X115485858Y-107806253D01*
X115500000Y-107820395D01*
X116384475Y-106935920D01*
X116300792Y-106681739D01*
X116028225Y-106550842D01*
X115735358Y-106475635D01*
X115433447Y-106459009D01*
X115134093Y-106501603D01*
X115010000Y-106545176D01*
X115010000Y-100193692D01*
X117040000Y-100193692D01*
X117040000Y-100806308D01*
X117159516Y-101407154D01*
X117393954Y-101973137D01*
X117734305Y-102482509D01*
X118167491Y-102915695D01*
X118676863Y-103256046D01*
X119242846Y-103490484D01*
X119843692Y-103610000D01*
X120456308Y-103610000D01*
X121057154Y-103490484D01*
X121623137Y-103256046D01*
X122132509Y-102915695D01*
X122565695Y-102482509D01*
X122906046Y-101973137D01*
X123140484Y-101407154D01*
X123260000Y-100806308D01*
X123260000Y-100193692D01*
X123140484Y-99592846D01*
X122906046Y-99026863D01*
X122565695Y-98517491D01*
X122132509Y-98084305D01*
X121623137Y-97743954D01*
X121057154Y-97509516D01*
X120456308Y-97390000D01*
X119843692Y-97390000D01*
X119242846Y-97509516D01*
X118676863Y-97743954D01*
X118167491Y-98084305D01*
X117734305Y-98517491D01*
X117393954Y-99026863D01*
X117159516Y-99592846D01*
X117040000Y-100193692D01*
X115010000Y-100193692D01*
X115010000Y-94787323D01*
X115013676Y-94750000D01*
X115010000Y-94712677D01*
X115010000Y-94712667D01*
X114999003Y-94601014D01*
X114987800Y-94564080D01*
X117115525Y-94564080D01*
X117199208Y-94818261D01*
X117471775Y-94949158D01*
X117764642Y-95024365D01*
X118066553Y-95040991D01*
X118365907Y-94998397D01*
X118651199Y-94898222D01*
X118800792Y-94818261D01*
X118884475Y-94564080D01*
X118000000Y-93679605D01*
X117115525Y-94564080D01*
X114987800Y-94564080D01*
X114955546Y-94457753D01*
X114916378Y-94384475D01*
X114884974Y-94325723D01*
X114813799Y-94238997D01*
X114790001Y-94209999D01*
X114761003Y-94186201D01*
X114483731Y-93908930D01*
X114535000Y-93651184D01*
X114535000Y-93566553D01*
X116459009Y-93566553D01*
X116501603Y-93865907D01*
X116601778Y-94151199D01*
X116681739Y-94300792D01*
X116935920Y-94384475D01*
X117820395Y-93500000D01*
X118179605Y-93500000D01*
X119064080Y-94384475D01*
X119318261Y-94300792D01*
X119449158Y-94028225D01*
X119524365Y-93735358D01*
X119540991Y-93433447D01*
X119498397Y-93134093D01*
X119398222Y-92848801D01*
X119318261Y-92699208D01*
X119064080Y-92615525D01*
X118179605Y-93500000D01*
X117820395Y-93500000D01*
X116935920Y-92615525D01*
X116681739Y-92699208D01*
X116550842Y-92971775D01*
X116475635Y-93264642D01*
X116459009Y-93566553D01*
X114535000Y-93566553D01*
X114535000Y-93348816D01*
X114476011Y-93052257D01*
X114360299Y-92772905D01*
X114192312Y-92521495D01*
X114106737Y-92435920D01*
X117115525Y-92435920D01*
X118000000Y-93320395D01*
X118884475Y-92435920D01*
X118800792Y-92181739D01*
X118528225Y-92050842D01*
X118235358Y-91975635D01*
X117933447Y-91959009D01*
X117634093Y-92001603D01*
X117348801Y-92101778D01*
X117199208Y-92181739D01*
X117115525Y-92435920D01*
X114106737Y-92435920D01*
X113978505Y-92307688D01*
X113727095Y-92139701D01*
X113447743Y-92023989D01*
X113151184Y-91965000D01*
X112848816Y-91965000D01*
X112552257Y-92023989D01*
X112272905Y-92139701D01*
X112021495Y-92307688D01*
X111807688Y-92521495D01*
X111639701Y-92772905D01*
X111523989Y-93052257D01*
X111465000Y-93348816D01*
X111465000Y-93651184D01*
X111523989Y-93947743D01*
X111639701Y-94227095D01*
X111807688Y-94478505D01*
X112021495Y-94692312D01*
X112272905Y-94860299D01*
X112552257Y-94976011D01*
X112848816Y-95035000D01*
X113151184Y-95035000D01*
X113408930Y-94983731D01*
X113490001Y-95064803D01*
X113490001Y-98853189D01*
X113265695Y-98517491D01*
X112832509Y-98084305D01*
X112323137Y-97743954D01*
X111757154Y-97509516D01*
X111156308Y-97390000D01*
X110543692Y-97390000D01*
X109942846Y-97509516D01*
X109376863Y-97743954D01*
X108867491Y-98084305D01*
X108434305Y-98517491D01*
X108093954Y-99026863D01*
X107859516Y-99592846D01*
X107740000Y-100193692D01*
X107740000Y-100806308D01*
X107859516Y-101407154D01*
X108093954Y-101973137D01*
X108434305Y-102482509D01*
X108867491Y-102915695D01*
X109376863Y-103256046D01*
X109942846Y-103490484D01*
X110543692Y-103610000D01*
X111156308Y-103610000D01*
X111757154Y-103490484D01*
X112323137Y-103256046D01*
X112832509Y-102915695D01*
X113265695Y-102482509D01*
X113490001Y-102146811D01*
X113490000Y-106541493D01*
X113447743Y-106523989D01*
X113151184Y-106465000D01*
X112848816Y-106465000D01*
X112552257Y-106523989D01*
X112272905Y-106639701D01*
X112021495Y-106807688D01*
X111807688Y-107021495D01*
X111639701Y-107272905D01*
X111523989Y-107552257D01*
X111465000Y-107848816D01*
X111465000Y-108151184D01*
X111523989Y-108447743D01*
X111639701Y-108727095D01*
X111807688Y-108978505D01*
X112021495Y-109192312D01*
X112272905Y-109360299D01*
X112552257Y-109476011D01*
X112848816Y-109535000D01*
X113151184Y-109535000D01*
X113447743Y-109476011D01*
X113490000Y-109458507D01*
X113490000Y-112249898D01*
X112478998Y-113260901D01*
X112450000Y-113284699D01*
X112426203Y-113313696D01*
X112426201Y-113313698D01*
X112355026Y-113400424D01*
X112284454Y-113532454D01*
X112258061Y-113619463D01*
X112240998Y-113675714D01*
X112236912Y-113717203D01*
X112043368Y-113846525D01*
X111836525Y-114053368D01*
X111720000Y-114227760D01*
X111603475Y-114053368D01*
X111396632Y-113846525D01*
X111153411Y-113684010D01*
X110883158Y-113572068D01*
X110596260Y-113515000D01*
X110303740Y-113515000D01*
X110016842Y-113572068D01*
X109746589Y-113684010D01*
X109503368Y-113846525D01*
X109296525Y-114053368D01*
X109180000Y-114227760D01*
X109063475Y-114053368D01*
X108856632Y-113846525D01*
X108613411Y-113684010D01*
X108343158Y-113572068D01*
X108056260Y-113515000D01*
X107763740Y-113515000D01*
X107476842Y-113572068D01*
X107206589Y-113684010D01*
X106963368Y-113846525D01*
X106756525Y-114053368D01*
X106640000Y-114227760D01*
X106523475Y-114053368D01*
X106316632Y-113846525D01*
X106130680Y-113722276D01*
X106130000Y-113715376D01*
X106130000Y-113715367D01*
X106119003Y-113603714D01*
X106075546Y-113460453D01*
X106004974Y-113328424D01*
X105957229Y-113270246D01*
X105933799Y-113241696D01*
X105933795Y-113241692D01*
X105910001Y-113212699D01*
X105881008Y-113188905D01*
X88692004Y-95999903D01*
X88668201Y-95970899D01*
X88552476Y-95875926D01*
X88420447Y-95805354D01*
X88277186Y-95761897D01*
X88165533Y-95750900D01*
X88165522Y-95750900D01*
X88128200Y-95747224D01*
X88090878Y-95750900D01*
X84325702Y-95750900D01*
X83138882Y-94564080D01*
X85115525Y-94564080D01*
X85199208Y-94818261D01*
X85471775Y-94949158D01*
X85764642Y-95024365D01*
X86066553Y-95040991D01*
X86365907Y-94998397D01*
X86651199Y-94898222D01*
X86800792Y-94818261D01*
X86884475Y-94564080D01*
X86000000Y-93679605D01*
X85115525Y-94564080D01*
X83138882Y-94564080D01*
X82483731Y-93908930D01*
X82535000Y-93651184D01*
X82535000Y-93566553D01*
X84459009Y-93566553D01*
X84501603Y-93865907D01*
X84601778Y-94151199D01*
X84681739Y-94300792D01*
X84935920Y-94384475D01*
X85820395Y-93500000D01*
X86179605Y-93500000D01*
X87064080Y-94384475D01*
X87318261Y-94300792D01*
X87449158Y-94028225D01*
X87524365Y-93735358D01*
X87540991Y-93433447D01*
X87498397Y-93134093D01*
X87398222Y-92848801D01*
X87318261Y-92699208D01*
X87064080Y-92615525D01*
X86179605Y-93500000D01*
X85820395Y-93500000D01*
X84935920Y-92615525D01*
X84681739Y-92699208D01*
X84550842Y-92971775D01*
X84475635Y-93264642D01*
X84459009Y-93566553D01*
X82535000Y-93566553D01*
X82535000Y-93348816D01*
X82476011Y-93052257D01*
X82360299Y-92772905D01*
X82192312Y-92521495D01*
X82106737Y-92435920D01*
X85115525Y-92435920D01*
X86000000Y-93320395D01*
X86884475Y-92435920D01*
X86800792Y-92181739D01*
X86528225Y-92050842D01*
X86235358Y-91975635D01*
X85933447Y-91959009D01*
X85634093Y-92001603D01*
X85348801Y-92101778D01*
X85199208Y-92181739D01*
X85115525Y-92435920D01*
X82106737Y-92435920D01*
X81978505Y-92307688D01*
X81727095Y-92139701D01*
X81447743Y-92023989D01*
X81151184Y-91965000D01*
X80848816Y-91965000D01*
X80552257Y-92023989D01*
X80272905Y-92139701D01*
X80021495Y-92307688D01*
X79807688Y-92521495D01*
X79639701Y-92772905D01*
X79523989Y-93052257D01*
X79465000Y-93348816D01*
X79465000Y-93651184D01*
X79523989Y-93947743D01*
X79639701Y-94227095D01*
X79807688Y-94478505D01*
X80021495Y-94692312D01*
X80272905Y-94860299D01*
X80552257Y-94976011D01*
X80848816Y-95035000D01*
X81151184Y-95035000D01*
X81408930Y-94983731D01*
X83447100Y-97021902D01*
X83470899Y-97050901D01*
X83499897Y-97074699D01*
X83586624Y-97145874D01*
X83718653Y-97216446D01*
X83861914Y-97259903D01*
X84010900Y-97274577D01*
X84048233Y-97270900D01*
X87813399Y-97270900D01*
X87932499Y-97390000D01*
X87843692Y-97390000D01*
X87242846Y-97509516D01*
X86676863Y-97743954D01*
X86167491Y-98084305D01*
X85734305Y-98517491D01*
X85393954Y-99026863D01*
X85159516Y-99592846D01*
X85040000Y-100193692D01*
X85040000Y-100806308D01*
X85159516Y-101407154D01*
X85393954Y-101973137D01*
X85734305Y-102482509D01*
X86167491Y-102915695D01*
X86327037Y-103022300D01*
X80672963Y-103022300D01*
X80832509Y-102915695D01*
X81265695Y-102482509D01*
X81606046Y-101973137D01*
X81840484Y-101407154D01*
X81960000Y-100806308D01*
X81960000Y-100193692D01*
X81840484Y-99592846D01*
X81606046Y-99026863D01*
X81265695Y-98517491D01*
X80832509Y-98084305D01*
X80323137Y-97743954D01*
X79757154Y-97509516D01*
X79156308Y-97390000D01*
X78543692Y-97390000D01*
X77942846Y-97509516D01*
X77376863Y-97743954D01*
X76867491Y-98084305D01*
X76434305Y-98517491D01*
X76093954Y-99026863D01*
X75859516Y-99592846D01*
X75740000Y-100193692D01*
X75740000Y-100806308D01*
X75859516Y-101407154D01*
X76093954Y-101973137D01*
X76434305Y-102482509D01*
X76867491Y-102915695D01*
X77027037Y-103022300D01*
X76008002Y-103022300D01*
X74090700Y-101104999D01*
X74090700Y-101042861D01*
X74050926Y-100842902D01*
X73972905Y-100654544D01*
X73859637Y-100485026D01*
X73715474Y-100340863D01*
X73545956Y-100227595D01*
X73357598Y-100149574D01*
X73157639Y-100109800D01*
X72953761Y-100109800D01*
X72753802Y-100149574D01*
X72565444Y-100227595D01*
X72395926Y-100340863D01*
X72251763Y-100485026D01*
X72138495Y-100654544D01*
X72060474Y-100842902D01*
X72020700Y-101042861D01*
X72020700Y-101246739D01*
X72060474Y-101446698D01*
X72138495Y-101635056D01*
X72187080Y-101707769D01*
X72174874Y-101695563D01*
X72005356Y-101582295D01*
X71816998Y-101504274D01*
X71617039Y-101464500D01*
X71413161Y-101464500D01*
X71213202Y-101504274D01*
X71024844Y-101582295D01*
X70855326Y-101695563D01*
X70711163Y-101839726D01*
X70597895Y-102009244D01*
X70519874Y-102197602D01*
X70480100Y-102397561D01*
X70480100Y-102601439D01*
X70519874Y-102801398D01*
X70597895Y-102989756D01*
X70711163Y-103159274D01*
X70855326Y-103303437D01*
X71024844Y-103416705D01*
X71213202Y-103494726D01*
X71413161Y-103534500D01*
X71475299Y-103534500D01*
X82180797Y-114240000D01*
X77068802Y-114240000D01*
X59279104Y-96450303D01*
X59255301Y-96421299D01*
X59139576Y-96326326D01*
X59007547Y-96255754D01*
X58864286Y-96212297D01*
X58752633Y-96201300D01*
X58752622Y-96201300D01*
X58715300Y-96197624D01*
X58677978Y-96201300D01*
X52776103Y-96201300D01*
X51138882Y-94564080D01*
X53115525Y-94564080D01*
X53199208Y-94818261D01*
X53471775Y-94949158D01*
X53764642Y-95024365D01*
X54066553Y-95040991D01*
X54365907Y-94998397D01*
X54651199Y-94898222D01*
X54800792Y-94818261D01*
X54884475Y-94564080D01*
X54000000Y-93679605D01*
X53115525Y-94564080D01*
X51138882Y-94564080D01*
X50483731Y-93908930D01*
X50535000Y-93651184D01*
X50535000Y-93566553D01*
X52459009Y-93566553D01*
X52501603Y-93865907D01*
X52601778Y-94151199D01*
X52681739Y-94300792D01*
X52935920Y-94384475D01*
X53820395Y-93500000D01*
X54179605Y-93500000D01*
X55064080Y-94384475D01*
X55318261Y-94300792D01*
X55449158Y-94028225D01*
X55524365Y-93735358D01*
X55540991Y-93433447D01*
X55498397Y-93134093D01*
X55398222Y-92848801D01*
X55318261Y-92699208D01*
X55064080Y-92615525D01*
X54179605Y-93500000D01*
X53820395Y-93500000D01*
X52935920Y-92615525D01*
X52681739Y-92699208D01*
X52550842Y-92971775D01*
X52475635Y-93264642D01*
X52459009Y-93566553D01*
X50535000Y-93566553D01*
X50535000Y-93348816D01*
X50476011Y-93052257D01*
X50360299Y-92772905D01*
X50192312Y-92521495D01*
X50106737Y-92435920D01*
X53115525Y-92435920D01*
X54000000Y-93320395D01*
X54884475Y-92435920D01*
X54800792Y-92181739D01*
X54528225Y-92050842D01*
X54235358Y-91975635D01*
X53933447Y-91959009D01*
X53634093Y-92001603D01*
X53348801Y-92101778D01*
X53199208Y-92181739D01*
X53115525Y-92435920D01*
X50106737Y-92435920D01*
X49978505Y-92307688D01*
X49727095Y-92139701D01*
X49447743Y-92023989D01*
X49151184Y-91965000D01*
X48848816Y-91965000D01*
X48552257Y-92023989D01*
X48272905Y-92139701D01*
X48021495Y-92307688D01*
X47807688Y-92521495D01*
X47639701Y-92772905D01*
X47523989Y-93052257D01*
X47465000Y-93348816D01*
X47465000Y-93651184D01*
X47523989Y-93947743D01*
X47639701Y-94227095D01*
X47807688Y-94478505D01*
X48021495Y-94692312D01*
X48272905Y-94860299D01*
X48552257Y-94976011D01*
X48848816Y-95035000D01*
X49151184Y-95035000D01*
X49408930Y-94983731D01*
X51897505Y-97472308D01*
X51921299Y-97501301D01*
X51950292Y-97525095D01*
X51950296Y-97525099D01*
X52020985Y-97583111D01*
X52037024Y-97596274D01*
X52169053Y-97666846D01*
X52312314Y-97710303D01*
X52423967Y-97721300D01*
X52423976Y-97721300D01*
X52461299Y-97724976D01*
X52498622Y-97721300D01*
X54731555Y-97721300D01*
X54676863Y-97743954D01*
X54167491Y-98084305D01*
X53734305Y-98517491D01*
X53393954Y-99026863D01*
X53159516Y-99592846D01*
X53040000Y-100193692D01*
X53040000Y-100806308D01*
X53159516Y-101407154D01*
X53393954Y-101973137D01*
X53734305Y-102482509D01*
X54167491Y-102915695D01*
X54676863Y-103256046D01*
X55242846Y-103490484D01*
X55843692Y-103610000D01*
X56456308Y-103610000D01*
X57057154Y-103490484D01*
X57623137Y-103256046D01*
X58132509Y-102915695D01*
X58565695Y-102482509D01*
X58906046Y-101973137D01*
X59140484Y-101407154D01*
X59260000Y-100806308D01*
X59260000Y-100193692D01*
X59140484Y-99592846D01*
X58906046Y-99026863D01*
X58565695Y-98517491D01*
X58132509Y-98084305D01*
X57623137Y-97743954D01*
X57568445Y-97721300D01*
X58400499Y-97721300D01*
X76094598Y-115415400D01*
X55324102Y-115415400D01*
X49395170Y-109486468D01*
X49447743Y-109476011D01*
X49727095Y-109360299D01*
X49978505Y-109192312D01*
X50106737Y-109064080D01*
X50615525Y-109064080D01*
X50699208Y-109318261D01*
X50971775Y-109449158D01*
X51264642Y-109524365D01*
X51566553Y-109540991D01*
X51865907Y-109498397D01*
X52151199Y-109398222D01*
X52300792Y-109318261D01*
X52384475Y-109064080D01*
X51500000Y-108179605D01*
X50615525Y-109064080D01*
X50106737Y-109064080D01*
X50192312Y-108978505D01*
X50287738Y-108835690D01*
X50435920Y-108884475D01*
X51320395Y-108000000D01*
X51679605Y-108000000D01*
X52564080Y-108884475D01*
X52712262Y-108835690D01*
X52807688Y-108978505D01*
X53021495Y-109192312D01*
X53272905Y-109360299D01*
X53552257Y-109476011D01*
X53848816Y-109535000D01*
X54151184Y-109535000D01*
X54447743Y-109476011D01*
X54727095Y-109360299D01*
X54978505Y-109192312D01*
X55192312Y-108978505D01*
X55360299Y-108727095D01*
X55476011Y-108447743D01*
X55535000Y-108151184D01*
X55535000Y-107848816D01*
X55476011Y-107552257D01*
X55360299Y-107272905D01*
X55192312Y-107021495D01*
X54978505Y-106807688D01*
X54727095Y-106639701D01*
X54447743Y-106523989D01*
X54151184Y-106465000D01*
X53848816Y-106465000D01*
X53552257Y-106523989D01*
X53272905Y-106639701D01*
X53021495Y-106807688D01*
X52807688Y-107021495D01*
X52712262Y-107164310D01*
X52564080Y-107115525D01*
X51679605Y-108000000D01*
X51320395Y-108000000D01*
X50435920Y-107115525D01*
X50287738Y-107164310D01*
X50192312Y-107021495D01*
X50106737Y-106935920D01*
X50615525Y-106935920D01*
X51500000Y-107820395D01*
X52384475Y-106935920D01*
X52300792Y-106681739D01*
X52028225Y-106550842D01*
X51735358Y-106475635D01*
X51433447Y-106459009D01*
X51134093Y-106501603D01*
X50848801Y-106601778D01*
X50699208Y-106681739D01*
X50615525Y-106935920D01*
X50106737Y-106935920D01*
X49978505Y-106807688D01*
X49727095Y-106639701D01*
X49447743Y-106523989D01*
X49151184Y-106465000D01*
X48848816Y-106465000D01*
X48552257Y-106523989D01*
X48272905Y-106639701D01*
X48021495Y-106807688D01*
X47807688Y-107021495D01*
X47639701Y-107272905D01*
X47523989Y-107552257D01*
X47513532Y-107604830D01*
X42368400Y-102459699D01*
X42368400Y-102397561D01*
X42328626Y-102197602D01*
X42250605Y-102009244D01*
X42137337Y-101839726D01*
X41993174Y-101695563D01*
X41823656Y-101582295D01*
X41635298Y-101504274D01*
X41435339Y-101464500D01*
X41231461Y-101464500D01*
X41031502Y-101504274D01*
X40843144Y-101582295D01*
X40673626Y-101695563D01*
X40529463Y-101839726D01*
X40416195Y-102009244D01*
X40338174Y-102197602D01*
X40298400Y-102397561D01*
X33660000Y-102397561D01*
X33660000Y-100193692D01*
X43740000Y-100193692D01*
X43740000Y-100806308D01*
X43859516Y-101407154D01*
X44093954Y-101973137D01*
X44434305Y-102482509D01*
X44867491Y-102915695D01*
X45376863Y-103256046D01*
X45942846Y-103490484D01*
X46543692Y-103610000D01*
X47156308Y-103610000D01*
X47757154Y-103490484D01*
X48323137Y-103256046D01*
X48832509Y-102915695D01*
X49265695Y-102482509D01*
X49606046Y-101973137D01*
X49840484Y-101407154D01*
X49960000Y-100806308D01*
X49960000Y-100193692D01*
X49840484Y-99592846D01*
X49606046Y-99026863D01*
X49265695Y-98517491D01*
X48832509Y-98084305D01*
X48323137Y-97743954D01*
X47757154Y-97509516D01*
X47156308Y-97390000D01*
X46543692Y-97390000D01*
X45942846Y-97509516D01*
X45376863Y-97743954D01*
X44867491Y-98084305D01*
X44434305Y-98517491D01*
X44093954Y-99026863D01*
X43859516Y-99592846D01*
X43740000Y-100193692D01*
X33660000Y-100193692D01*
X33660000Y-90653306D01*
X33870398Y-90717130D01*
X34051835Y-90735000D01*
X34873165Y-90735000D01*
X35054602Y-90717130D01*
X35287401Y-90646511D01*
X35501949Y-90531833D01*
X35690002Y-90377502D01*
X35844333Y-90189449D01*
X35959011Y-89974901D01*
X36029630Y-89742102D01*
X36053475Y-89500000D01*
X36029630Y-89257898D01*
X36026617Y-89247965D01*
X36106119Y-89366949D01*
X36295551Y-89556381D01*
X36518299Y-89705216D01*
X36765803Y-89807736D01*
X37028552Y-89860000D01*
X37296448Y-89860000D01*
X37559197Y-89807736D01*
X37806701Y-89705216D01*
X38029449Y-89556381D01*
X38218881Y-89366949D01*
X38367716Y-89144201D01*
X38470236Y-88896697D01*
X38522500Y-88633948D01*
X38522500Y-88366052D01*
X38470236Y-88103303D01*
X38367716Y-87855799D01*
X38218881Y-87633051D01*
X38029449Y-87443619D01*
X37806701Y-87294784D01*
X37559197Y-87192264D01*
X37296448Y-87140000D01*
X37028552Y-87140000D01*
X36765803Y-87192264D01*
X36518299Y-87294784D01*
X36295551Y-87443619D01*
X36106119Y-87633051D01*
X35957284Y-87855799D01*
X35854764Y-88103303D01*
X35802500Y-88366052D01*
X35802500Y-88633948D01*
X35835484Y-88799768D01*
X35690002Y-88622498D01*
X35501949Y-88468167D01*
X35287401Y-88353489D01*
X35054602Y-88282870D01*
X34873165Y-88265000D01*
X34051835Y-88265000D01*
X33870398Y-88282870D01*
X33660000Y-88346694D01*
X33660000Y-86338967D01*
X46365000Y-86338967D01*
X46365000Y-86661033D01*
X46427832Y-86976912D01*
X46551082Y-87274463D01*
X46730013Y-87542252D01*
X46957748Y-87769987D01*
X47225537Y-87948918D01*
X47523088Y-88072168D01*
X47838967Y-88135000D01*
X48161033Y-88135000D01*
X48476912Y-88072168D01*
X48774463Y-87948918D01*
X49042252Y-87769987D01*
X49269987Y-87542252D01*
X49448918Y-87274463D01*
X49572168Y-86976912D01*
X49635000Y-86661033D01*
X49635000Y-86338967D01*
X52865000Y-86338967D01*
X52865000Y-86661033D01*
X52927832Y-86976912D01*
X53051082Y-87274463D01*
X53230013Y-87542252D01*
X53457748Y-87769987D01*
X53725537Y-87948918D01*
X54023088Y-88072168D01*
X54338967Y-88135000D01*
X54661033Y-88135000D01*
X54976912Y-88072168D01*
X55274463Y-87948918D01*
X55542252Y-87769987D01*
X55769987Y-87542252D01*
X55948918Y-87274463D01*
X56072168Y-86976912D01*
X56135000Y-86661033D01*
X56135000Y-86338967D01*
X78365000Y-86338967D01*
X78365000Y-86661033D01*
X78427832Y-86976912D01*
X78551082Y-87274463D01*
X78730013Y-87542252D01*
X78957748Y-87769987D01*
X79225537Y-87948918D01*
X79523088Y-88072168D01*
X79838967Y-88135000D01*
X80161033Y-88135000D01*
X80476912Y-88072168D01*
X80774463Y-87948918D01*
X81042252Y-87769987D01*
X81269987Y-87542252D01*
X81448918Y-87274463D01*
X81572168Y-86976912D01*
X81635000Y-86661033D01*
X81635000Y-86338967D01*
X81572168Y-86023088D01*
X81448918Y-85725537D01*
X81269987Y-85457748D01*
X81042252Y-85230013D01*
X80774463Y-85051082D01*
X80476912Y-84927832D01*
X80161033Y-84865000D01*
X79838967Y-84865000D01*
X79523088Y-84927832D01*
X79225537Y-85051082D01*
X78957748Y-85230013D01*
X78730013Y-85457748D01*
X78551082Y-85725537D01*
X78427832Y-86023088D01*
X78365000Y-86338967D01*
X56135000Y-86338967D01*
X56072168Y-86023088D01*
X56066177Y-86008624D01*
X58939388Y-83135413D01*
X79044192Y-83135413D01*
X79139956Y-83399814D01*
X79429571Y-83540704D01*
X79741108Y-83622384D01*
X80062595Y-83641718D01*
X80381675Y-83597961D01*
X80686088Y-83492795D01*
X80860044Y-83399814D01*
X80955808Y-83135413D01*
X85544192Y-83135413D01*
X85639956Y-83399814D01*
X85929571Y-83540704D01*
X86241108Y-83622384D01*
X86562595Y-83641718D01*
X86881675Y-83597961D01*
X87186088Y-83492795D01*
X87360044Y-83399814D01*
X87455808Y-83135413D01*
X86500000Y-82179605D01*
X85544192Y-83135413D01*
X80955808Y-83135413D01*
X80000000Y-82179605D01*
X79044192Y-83135413D01*
X58939388Y-83135413D01*
X60012206Y-82062595D01*
X78358282Y-82062595D01*
X78402039Y-82381675D01*
X78507205Y-82686088D01*
X78600186Y-82860044D01*
X78864587Y-82955808D01*
X79820395Y-82000000D01*
X80179605Y-82000000D01*
X81135413Y-82955808D01*
X81399814Y-82860044D01*
X81540704Y-82570429D01*
X81622384Y-82258892D01*
X81634189Y-82062595D01*
X84858282Y-82062595D01*
X84902039Y-82381675D01*
X85007205Y-82686088D01*
X85100186Y-82860044D01*
X85364587Y-82955808D01*
X86320395Y-82000000D01*
X86679605Y-82000000D01*
X87635413Y-82955808D01*
X87899814Y-82860044D01*
X88040704Y-82570429D01*
X88122384Y-82258892D01*
X88141718Y-81937405D01*
X88097961Y-81618325D01*
X87992795Y-81313912D01*
X87899814Y-81139956D01*
X87635413Y-81044192D01*
X86679605Y-82000000D01*
X86320395Y-82000000D01*
X85364587Y-81044192D01*
X85100186Y-81139956D01*
X84959296Y-81429571D01*
X84877616Y-81741108D01*
X84858282Y-82062595D01*
X81634189Y-82062595D01*
X81641718Y-81937405D01*
X81597961Y-81618325D01*
X81492795Y-81313912D01*
X81399814Y-81139956D01*
X81135413Y-81044192D01*
X80179605Y-82000000D01*
X79820395Y-82000000D01*
X78864587Y-81044192D01*
X78600186Y-81139956D01*
X78459296Y-81429571D01*
X78377616Y-81741108D01*
X78358282Y-82062595D01*
X60012206Y-82062595D01*
X61210214Y-80864587D01*
X79044192Y-80864587D01*
X80000000Y-81820395D01*
X80955808Y-80864587D01*
X85544192Y-80864587D01*
X86500000Y-81820395D01*
X87455808Y-80864587D01*
X87360044Y-80600186D01*
X87070429Y-80459296D01*
X86758892Y-80377616D01*
X86437405Y-80358282D01*
X86118325Y-80402039D01*
X85813912Y-80507205D01*
X85639956Y-80600186D01*
X85544192Y-80864587D01*
X80955808Y-80864587D01*
X80860044Y-80600186D01*
X80570429Y-80459296D01*
X80258892Y-80377616D01*
X79937405Y-80358282D01*
X79618325Y-80402039D01*
X79313912Y-80507205D01*
X79139956Y-80600186D01*
X79044192Y-80864587D01*
X61210214Y-80864587D01*
X66609801Y-75465000D01*
X81961928Y-75465000D01*
X81961928Y-76535000D01*
X81974188Y-76659482D01*
X82010498Y-76779180D01*
X82069463Y-76889494D01*
X82148815Y-76986185D01*
X82245506Y-77065537D01*
X82355820Y-77124502D01*
X82475518Y-77160812D01*
X82600000Y-77173072D01*
X84400000Y-77173072D01*
X84524482Y-77160812D01*
X84644180Y-77124502D01*
X84754494Y-77065537D01*
X84851185Y-76986185D01*
X84930537Y-76889494D01*
X84989502Y-76779180D01*
X85025812Y-76659482D01*
X85038072Y-76535000D01*
X85038072Y-75465000D01*
X85025812Y-75340518D01*
X84989502Y-75220820D01*
X84952615Y-75151810D01*
X84993900Y-75037383D01*
X84868244Y-74857000D01*
X84583200Y-74857000D01*
X84524482Y-74839188D01*
X84400000Y-74826928D01*
X82600000Y-74826928D01*
X82475518Y-74839188D01*
X82416800Y-74857000D01*
X82131756Y-74857000D01*
X82006100Y-75037383D01*
X82047385Y-75151810D01*
X82010498Y-75220820D01*
X81974188Y-75340518D01*
X81961928Y-75465000D01*
X66609801Y-75465000D01*
X69884801Y-72190000D01*
X81959339Y-72190000D01*
X81981929Y-72419360D01*
X82048831Y-72639906D01*
X82147766Y-72825000D01*
X82048831Y-73010094D01*
X81981929Y-73230640D01*
X81959339Y-73460000D01*
X81981929Y-73689360D01*
X82048831Y-73909906D01*
X82149154Y-74097596D01*
X82091623Y-74185579D01*
X82006100Y-74422617D01*
X82131756Y-74603000D01*
X82872440Y-74603000D01*
X82905640Y-74613071D01*
X83077523Y-74630000D01*
X83922477Y-74630000D01*
X84094360Y-74613071D01*
X84127560Y-74603000D01*
X84868244Y-74603000D01*
X84993900Y-74422617D01*
X84908377Y-74185579D01*
X84850846Y-74097596D01*
X84951169Y-73909906D01*
X85018071Y-73689360D01*
X85040661Y-73460000D01*
X85018071Y-73230640D01*
X84951169Y-73010094D01*
X84852234Y-72825000D01*
X84951169Y-72639906D01*
X85018071Y-72419360D01*
X85040661Y-72190000D01*
X85018071Y-71960640D01*
X84951169Y-71740094D01*
X84842526Y-71536838D01*
X84696318Y-71358682D01*
X84518162Y-71212474D01*
X84314906Y-71103831D01*
X84094360Y-71036929D01*
X83922477Y-71020000D01*
X83077523Y-71020000D01*
X82905640Y-71036929D01*
X82685094Y-71103831D01*
X82481838Y-71212474D01*
X82303682Y-71358682D01*
X82157474Y-71536838D01*
X82048831Y-71740094D01*
X81981929Y-71960640D01*
X81959339Y-72190000D01*
X69884801Y-72190000D01*
X75314802Y-66760000D01*
X96261928Y-66760000D01*
X96261928Y-66850000D01*
X96274188Y-66974482D01*
X96310498Y-67094180D01*
X96369463Y-67204494D01*
X96448815Y-67301185D01*
X96545506Y-67380537D01*
X96655820Y-67439502D01*
X96728380Y-67461513D01*
X96596525Y-67593368D01*
X96434010Y-67836589D01*
X96322068Y-68106842D01*
X96265000Y-68393740D01*
X96265000Y-68686260D01*
X96322068Y-68973158D01*
X96434010Y-69243411D01*
X96596525Y-69486632D01*
X96803368Y-69693475D01*
X97046589Y-69855990D01*
X97316842Y-69967932D01*
X97603740Y-70025000D01*
X97896260Y-70025000D01*
X98183158Y-69967932D01*
X98453411Y-69855990D01*
X98696632Y-69693475D01*
X98903475Y-69486632D01*
X99020000Y-69312240D01*
X99136525Y-69486632D01*
X99343368Y-69693475D01*
X99586589Y-69855990D01*
X99856842Y-69967932D01*
X100143740Y-70025000D01*
X100436260Y-70025000D01*
X100723158Y-69967932D01*
X100993411Y-69855990D01*
X101236632Y-69693475D01*
X101443475Y-69486632D01*
X101560000Y-69312240D01*
X101676525Y-69486632D01*
X101883368Y-69693475D01*
X102126589Y-69855990D01*
X102396842Y-69967932D01*
X102683740Y-70025000D01*
X102976260Y-70025000D01*
X103263158Y-69967932D01*
X103533411Y-69855990D01*
X103776632Y-69693475D01*
X103983475Y-69486632D01*
X104100000Y-69312240D01*
X104216525Y-69486632D01*
X104423368Y-69693475D01*
X104666589Y-69855990D01*
X104696867Y-69868531D01*
X88825399Y-85740000D01*
X87954909Y-85740000D01*
X87948918Y-85725537D01*
X87769987Y-85457748D01*
X87542252Y-85230013D01*
X87274463Y-85051082D01*
X86976912Y-84927832D01*
X86661033Y-84865000D01*
X86338967Y-84865000D01*
X86023088Y-84927832D01*
X85725537Y-85051082D01*
X85457748Y-85230013D01*
X85230013Y-85457748D01*
X85051082Y-85725537D01*
X84927832Y-86023088D01*
X84865000Y-86338967D01*
X84865000Y-86661033D01*
X84927832Y-86976912D01*
X85051082Y-87274463D01*
X85230013Y-87542252D01*
X85457748Y-87769987D01*
X85725537Y-87948918D01*
X86023088Y-88072168D01*
X86338967Y-88135000D01*
X86661033Y-88135000D01*
X86976912Y-88072168D01*
X87274463Y-87948918D01*
X87542252Y-87769987D01*
X87769987Y-87542252D01*
X87948918Y-87274463D01*
X87954909Y-87260000D01*
X89102878Y-87260000D01*
X89140200Y-87263676D01*
X89177522Y-87260000D01*
X89177533Y-87260000D01*
X89289186Y-87249003D01*
X89432447Y-87205546D01*
X89564476Y-87134974D01*
X89680201Y-87040001D01*
X89704004Y-87010997D01*
X93579588Y-83135413D01*
X111044192Y-83135413D01*
X111139956Y-83399814D01*
X111429571Y-83540704D01*
X111741108Y-83622384D01*
X112062595Y-83641718D01*
X112381675Y-83597961D01*
X112686088Y-83492795D01*
X112860044Y-83399814D01*
X112955808Y-83135413D01*
X112000000Y-82179605D01*
X111044192Y-83135413D01*
X93579588Y-83135413D01*
X94652406Y-82062595D01*
X110358282Y-82062595D01*
X110402039Y-82381675D01*
X110507205Y-82686088D01*
X110600186Y-82860044D01*
X110864587Y-82955808D01*
X111820395Y-82000000D01*
X112179605Y-82000000D01*
X113135413Y-82955808D01*
X113399814Y-82860044D01*
X113540704Y-82570429D01*
X113622384Y-82258892D01*
X113641718Y-81937405D01*
X113597961Y-81618325D01*
X113492795Y-81313912D01*
X113399814Y-81139956D01*
X113135413Y-81044192D01*
X112179605Y-82000000D01*
X111820395Y-82000000D01*
X110864587Y-81044192D01*
X110600186Y-81139956D01*
X110459296Y-81429571D01*
X110377616Y-81741108D01*
X110358282Y-82062595D01*
X94652406Y-82062595D01*
X95850414Y-80864587D01*
X111044192Y-80864587D01*
X112000000Y-81820395D01*
X112955808Y-80864587D01*
X112860044Y-80600186D01*
X112570429Y-80459296D01*
X112258892Y-80377616D01*
X111937405Y-80358282D01*
X111618325Y-80402039D01*
X111313912Y-80507205D01*
X111139956Y-80600186D01*
X111044192Y-80864587D01*
X95850414Y-80864587D01*
X106998232Y-69716770D01*
X107206589Y-69855990D01*
X107476842Y-69967932D01*
X107763740Y-70025000D01*
X108056260Y-70025000D01*
X108343158Y-69967932D01*
X108613411Y-69855990D01*
X108856632Y-69693475D01*
X109063475Y-69486632D01*
X109180000Y-69312240D01*
X109296525Y-69486632D01*
X109503368Y-69693475D01*
X109746589Y-69855990D01*
X110016842Y-69967932D01*
X110303740Y-70025000D01*
X110596260Y-70025000D01*
X110883158Y-69967932D01*
X111153411Y-69855990D01*
X111396632Y-69693475D01*
X111603475Y-69486632D01*
X111720000Y-69312240D01*
X111836525Y-69486632D01*
X112043368Y-69693475D01*
X112286589Y-69855990D01*
X112556842Y-69967932D01*
X112843740Y-70025000D01*
X113136260Y-70025000D01*
X113423158Y-69967932D01*
X113693411Y-69855990D01*
X113936632Y-69693475D01*
X114143475Y-69486632D01*
X114260000Y-69312240D01*
X114376525Y-69486632D01*
X114583368Y-69693475D01*
X114826589Y-69855990D01*
X115096842Y-69967932D01*
X115383740Y-70025000D01*
X115676260Y-70025000D01*
X115963158Y-69967932D01*
X115965400Y-69967003D01*
X115965400Y-71024228D01*
X115922477Y-71020000D01*
X115077523Y-71020000D01*
X114905640Y-71036929D01*
X114685094Y-71103831D01*
X114481838Y-71212474D01*
X114303682Y-71358682D01*
X114157474Y-71536838D01*
X114048831Y-71740094D01*
X113981929Y-71960640D01*
X113959339Y-72190000D01*
X113981929Y-72419360D01*
X114048831Y-72639906D01*
X114147766Y-72825000D01*
X114048831Y-73010094D01*
X113981929Y-73230640D01*
X113959339Y-73460000D01*
X113981929Y-73689360D01*
X114048831Y-73909906D01*
X114149154Y-74097596D01*
X114091623Y-74185579D01*
X114006100Y-74422617D01*
X114131756Y-74603000D01*
X114872440Y-74603000D01*
X114905640Y-74613071D01*
X115077523Y-74630000D01*
X115647000Y-74630000D01*
X115647000Y-74826928D01*
X114600000Y-74826928D01*
X114475518Y-74839188D01*
X114416800Y-74857000D01*
X114131756Y-74857000D01*
X114006100Y-75037383D01*
X114047385Y-75151810D01*
X114010498Y-75220820D01*
X113974188Y-75340518D01*
X113961928Y-75465000D01*
X113961928Y-76535000D01*
X113974188Y-76659482D01*
X114010498Y-76779180D01*
X114069463Y-76889494D01*
X114148815Y-76986185D01*
X114245506Y-77065537D01*
X114355820Y-77124502D01*
X114475518Y-77160812D01*
X114600000Y-77173072D01*
X115965401Y-77173072D01*
X115965401Y-83965400D01*
X113811922Y-83965400D01*
X113774599Y-83961724D01*
X113737276Y-83965400D01*
X113737267Y-83965400D01*
X113625614Y-83976397D01*
X113482353Y-84019854D01*
X113350324Y-84090426D01*
X113350322Y-84090427D01*
X113350323Y-84090427D01*
X113263596Y-84161601D01*
X113263592Y-84161605D01*
X113234599Y-84185399D01*
X113210805Y-84214392D01*
X112491375Y-84933823D01*
X112476912Y-84927832D01*
X112161033Y-84865000D01*
X111838967Y-84865000D01*
X111523088Y-84927832D01*
X111225537Y-85051082D01*
X110957748Y-85230013D01*
X110730013Y-85457748D01*
X110551082Y-85725537D01*
X110427832Y-86023088D01*
X110365000Y-86338967D01*
X110365000Y-86661033D01*
X110427832Y-86976912D01*
X110551082Y-87274463D01*
X110730013Y-87542252D01*
X110957748Y-87769987D01*
X111225537Y-87948918D01*
X111523088Y-88072168D01*
X111838967Y-88135000D01*
X112161033Y-88135000D01*
X112476912Y-88072168D01*
X112774463Y-87948918D01*
X113042252Y-87769987D01*
X113269987Y-87542252D01*
X113448918Y-87274463D01*
X113572168Y-86976912D01*
X113635000Y-86661033D01*
X113635000Y-86338967D01*
X113572168Y-86023088D01*
X113566177Y-86008625D01*
X114089403Y-85485400D01*
X116410599Y-85485400D01*
X116933823Y-86008625D01*
X116927832Y-86023088D01*
X116865000Y-86338967D01*
X116865000Y-86661033D01*
X116927832Y-86976912D01*
X117051082Y-87274463D01*
X117230013Y-87542252D01*
X117457748Y-87769987D01*
X117725537Y-87948918D01*
X118023088Y-88072168D01*
X118338967Y-88135000D01*
X118661033Y-88135000D01*
X118976912Y-88072168D01*
X119274463Y-87948918D01*
X119542252Y-87769987D01*
X119769987Y-87542252D01*
X119948918Y-87274463D01*
X120072168Y-86976912D01*
X120135000Y-86661033D01*
X120135000Y-86338967D01*
X120072168Y-86023088D01*
X119948918Y-85725537D01*
X119769987Y-85457748D01*
X119542252Y-85230013D01*
X119274463Y-85051082D01*
X118976912Y-84927832D01*
X118661033Y-84865000D01*
X118338967Y-84865000D01*
X118023088Y-84927832D01*
X118008625Y-84933823D01*
X117485400Y-84410599D01*
X117485400Y-83194208D01*
X117544193Y-83135415D01*
X117639956Y-83399814D01*
X117929571Y-83540704D01*
X118241108Y-83622384D01*
X118562595Y-83641718D01*
X118881675Y-83597961D01*
X119186088Y-83492795D01*
X119360044Y-83399814D01*
X119455808Y-83135413D01*
X118500000Y-82179605D01*
X118485858Y-82193748D01*
X118306253Y-82014143D01*
X118320395Y-82000000D01*
X118679605Y-82000000D01*
X119635413Y-82955808D01*
X119899814Y-82860044D01*
X120040704Y-82570429D01*
X120122384Y-82258892D01*
X120141718Y-81937405D01*
X120097961Y-81618325D01*
X119992795Y-81313912D01*
X119899814Y-81139956D01*
X119635413Y-81044192D01*
X118679605Y-82000000D01*
X118320395Y-82000000D01*
X118306253Y-81985858D01*
X118485858Y-81806253D01*
X118500000Y-81820395D01*
X119455808Y-80864587D01*
X119360044Y-80600186D01*
X119070429Y-80459296D01*
X118758892Y-80377616D01*
X118437405Y-80358282D01*
X118118325Y-80402039D01*
X117813912Y-80507205D01*
X117639956Y-80600186D01*
X117544193Y-80864585D01*
X117485400Y-80805792D01*
X117485400Y-69905203D01*
X117636842Y-69967932D01*
X117923740Y-70025000D01*
X118216260Y-70025000D01*
X118503158Y-69967932D01*
X118773411Y-69855990D01*
X119016632Y-69693475D01*
X119223475Y-69486632D01*
X119340000Y-69312240D01*
X119456525Y-69486632D01*
X119663368Y-69693475D01*
X119906589Y-69855990D01*
X120176842Y-69967932D01*
X120463740Y-70025000D01*
X120756260Y-70025000D01*
X121043158Y-69967932D01*
X121313411Y-69855990D01*
X121556632Y-69693475D01*
X121763475Y-69486632D01*
X121880000Y-69312240D01*
X121996525Y-69486632D01*
X122203368Y-69693475D01*
X122446589Y-69855990D01*
X122716842Y-69967932D01*
X123003740Y-70025000D01*
X123296260Y-70025000D01*
X123583158Y-69967932D01*
X123853411Y-69855990D01*
X124092761Y-69696062D01*
X141407701Y-87011003D01*
X141431499Y-87040001D01*
X141547224Y-87134974D01*
X141679253Y-87205546D01*
X141822514Y-87249003D01*
X141934167Y-87260000D01*
X141934176Y-87260000D01*
X141971499Y-87263676D01*
X142008822Y-87260000D01*
X142545091Y-87260000D01*
X142551082Y-87274463D01*
X142730013Y-87542252D01*
X142957748Y-87769987D01*
X143225537Y-87948918D01*
X143523088Y-88072168D01*
X143838967Y-88135000D01*
X144161033Y-88135000D01*
X144476912Y-88072168D01*
X144774463Y-87948918D01*
X145042252Y-87769987D01*
X145269987Y-87542252D01*
X145448918Y-87274463D01*
X145572168Y-86976912D01*
X145635000Y-86661033D01*
X145635000Y-86338967D01*
X148865000Y-86338967D01*
X148865000Y-86661033D01*
X148927832Y-86976912D01*
X149051082Y-87274463D01*
X149230013Y-87542252D01*
X149457748Y-87769987D01*
X149725537Y-87948918D01*
X150023088Y-88072168D01*
X150338967Y-88135000D01*
X150661033Y-88135000D01*
X150976912Y-88072168D01*
X151274463Y-87948918D01*
X151542252Y-87769987D01*
X151769987Y-87542252D01*
X151948918Y-87274463D01*
X152072168Y-86976912D01*
X152135000Y-86661033D01*
X152135000Y-86338967D01*
X152072168Y-86023088D01*
X151948918Y-85725537D01*
X151769987Y-85457748D01*
X151542252Y-85230013D01*
X151274463Y-85051082D01*
X150976912Y-84927832D01*
X150661033Y-84865000D01*
X150338967Y-84865000D01*
X150023088Y-84927832D01*
X149725537Y-85051082D01*
X149457748Y-85230013D01*
X149230013Y-85457748D01*
X149051082Y-85725537D01*
X148927832Y-86023088D01*
X148865000Y-86338967D01*
X145635000Y-86338967D01*
X145572168Y-86023088D01*
X145448918Y-85725537D01*
X145269987Y-85457748D01*
X145042252Y-85230013D01*
X144774463Y-85051082D01*
X144476912Y-84927832D01*
X144161033Y-84865000D01*
X143838967Y-84865000D01*
X143523088Y-84927832D01*
X143225537Y-85051082D01*
X142957748Y-85230013D01*
X142730013Y-85457748D01*
X142551082Y-85725537D01*
X142545091Y-85740000D01*
X142286302Y-85740000D01*
X139681715Y-83135413D01*
X143044192Y-83135413D01*
X143139956Y-83399814D01*
X143429571Y-83540704D01*
X143741108Y-83622384D01*
X144062595Y-83641718D01*
X144381675Y-83597961D01*
X144686088Y-83492795D01*
X144860044Y-83399814D01*
X144955808Y-83135413D01*
X149544192Y-83135413D01*
X149639956Y-83399814D01*
X149929571Y-83540704D01*
X150241108Y-83622384D01*
X150562595Y-83641718D01*
X150881675Y-83597961D01*
X151186088Y-83492795D01*
X151360044Y-83399814D01*
X151455808Y-83135413D01*
X150500000Y-82179605D01*
X149544192Y-83135413D01*
X144955808Y-83135413D01*
X144000000Y-82179605D01*
X143044192Y-83135413D01*
X139681715Y-83135413D01*
X138608897Y-82062595D01*
X142358282Y-82062595D01*
X142402039Y-82381675D01*
X142507205Y-82686088D01*
X142600186Y-82860044D01*
X142864587Y-82955808D01*
X143820395Y-82000000D01*
X144179605Y-82000000D01*
X145135413Y-82955808D01*
X145399814Y-82860044D01*
X145540704Y-82570429D01*
X145622384Y-82258892D01*
X145634189Y-82062595D01*
X148858282Y-82062595D01*
X148902039Y-82381675D01*
X149007205Y-82686088D01*
X149100186Y-82860044D01*
X149364587Y-82955808D01*
X150320395Y-82000000D01*
X150679605Y-82000000D01*
X151635413Y-82955808D01*
X151899814Y-82860044D01*
X152040704Y-82570429D01*
X152122384Y-82258892D01*
X152141718Y-81937405D01*
X152097961Y-81618325D01*
X151992795Y-81313912D01*
X151899814Y-81139956D01*
X151635413Y-81044192D01*
X150679605Y-82000000D01*
X150320395Y-82000000D01*
X149364587Y-81044192D01*
X149100186Y-81139956D01*
X148959296Y-81429571D01*
X148877616Y-81741108D01*
X148858282Y-82062595D01*
X145634189Y-82062595D01*
X145641718Y-81937405D01*
X145597961Y-81618325D01*
X145492795Y-81313912D01*
X145399814Y-81139956D01*
X145135413Y-81044192D01*
X144179605Y-82000000D01*
X143820395Y-82000000D01*
X142864587Y-81044192D01*
X142600186Y-81139956D01*
X142459296Y-81429571D01*
X142377616Y-81741108D01*
X142358282Y-82062595D01*
X138608897Y-82062595D01*
X137410889Y-80864587D01*
X143044192Y-80864587D01*
X144000000Y-81820395D01*
X144955808Y-80864587D01*
X149544192Y-80864587D01*
X150500000Y-81820395D01*
X151455808Y-80864587D01*
X151360044Y-80600186D01*
X151070429Y-80459296D01*
X150758892Y-80377616D01*
X150437405Y-80358282D01*
X150118325Y-80402039D01*
X149813912Y-80507205D01*
X149639956Y-80600186D01*
X149544192Y-80864587D01*
X144955808Y-80864587D01*
X144860044Y-80600186D01*
X144570429Y-80459296D01*
X144258892Y-80377616D01*
X143937405Y-80358282D01*
X143618325Y-80402039D01*
X143313912Y-80507205D01*
X143139956Y-80600186D01*
X143044192Y-80864587D01*
X137410889Y-80864587D01*
X132011302Y-75465000D01*
X145961928Y-75465000D01*
X145961928Y-76535000D01*
X145974188Y-76659482D01*
X146010498Y-76779180D01*
X146069463Y-76889494D01*
X146148815Y-76986185D01*
X146245506Y-77065537D01*
X146355820Y-77124502D01*
X146475518Y-77160812D01*
X146600000Y-77173072D01*
X148400000Y-77173072D01*
X148524482Y-77160812D01*
X148644180Y-77124502D01*
X148754494Y-77065537D01*
X148851185Y-76986185D01*
X148930537Y-76889494D01*
X148989502Y-76779180D01*
X149025812Y-76659482D01*
X149038072Y-76535000D01*
X149038072Y-75465000D01*
X149025812Y-75340518D01*
X148989502Y-75220820D01*
X148952615Y-75151810D01*
X148993900Y-75037383D01*
X148868244Y-74857000D01*
X148583200Y-74857000D01*
X148524482Y-74839188D01*
X148400000Y-74826928D01*
X146600000Y-74826928D01*
X146475518Y-74839188D01*
X146416800Y-74857000D01*
X146131756Y-74857000D01*
X146006100Y-75037383D01*
X146047385Y-75151810D01*
X146010498Y-75220820D01*
X145974188Y-75340518D01*
X145961928Y-75465000D01*
X132011302Y-75465000D01*
X128736302Y-72190000D01*
X145959339Y-72190000D01*
X145981929Y-72419360D01*
X146048831Y-72639906D01*
X146147766Y-72825000D01*
X146048831Y-73010094D01*
X145981929Y-73230640D01*
X145959339Y-73460000D01*
X145981929Y-73689360D01*
X146048831Y-73909906D01*
X146149154Y-74097596D01*
X146091623Y-74185579D01*
X146006100Y-74422617D01*
X146131756Y-74603000D01*
X146872440Y-74603000D01*
X146905640Y-74613071D01*
X147077523Y-74630000D01*
X147922477Y-74630000D01*
X148094360Y-74613071D01*
X148127560Y-74603000D01*
X148868244Y-74603000D01*
X148993900Y-74422617D01*
X148908377Y-74185579D01*
X148850846Y-74097596D01*
X148951169Y-73909906D01*
X149018071Y-73689360D01*
X149040661Y-73460000D01*
X149018071Y-73230640D01*
X148951169Y-73010094D01*
X148852234Y-72825000D01*
X148951169Y-72639906D01*
X149018071Y-72419360D01*
X149040661Y-72190000D01*
X149018071Y-71960640D01*
X148951169Y-71740094D01*
X148842526Y-71536838D01*
X148696318Y-71358682D01*
X148518162Y-71212474D01*
X148314906Y-71103831D01*
X148094360Y-71036929D01*
X147922477Y-71020000D01*
X147077523Y-71020000D01*
X146905640Y-71036929D01*
X146685094Y-71103831D01*
X146481838Y-71212474D01*
X146303682Y-71358682D01*
X146157474Y-71536838D01*
X146048831Y-71740094D01*
X145981929Y-71960640D01*
X145959339Y-72190000D01*
X128736302Y-72190000D01*
X126398734Y-69852433D01*
X126636632Y-69693475D01*
X126843475Y-69486632D01*
X126960000Y-69312240D01*
X127076525Y-69486632D01*
X127283368Y-69693475D01*
X127526589Y-69855990D01*
X127796842Y-69967932D01*
X128083740Y-70025000D01*
X128376260Y-70025000D01*
X128663158Y-69967932D01*
X128933411Y-69855990D01*
X129176632Y-69693475D01*
X129383475Y-69486632D01*
X129500000Y-69312240D01*
X129616525Y-69486632D01*
X129823368Y-69693475D01*
X130066589Y-69855990D01*
X130336842Y-69967932D01*
X130623740Y-70025000D01*
X130916260Y-70025000D01*
X131203158Y-69967932D01*
X131473411Y-69855990D01*
X131716632Y-69693475D01*
X131923475Y-69486632D01*
X132040000Y-69312240D01*
X132156525Y-69486632D01*
X132363368Y-69693475D01*
X132606589Y-69855990D01*
X132876842Y-69967932D01*
X133163740Y-70025000D01*
X133456260Y-70025000D01*
X133743158Y-69967932D01*
X134013411Y-69855990D01*
X134256632Y-69693475D01*
X134463475Y-69486632D01*
X134625990Y-69243411D01*
X134737932Y-68973158D01*
X134795000Y-68686260D01*
X134795000Y-68393740D01*
X134737932Y-68106842D01*
X134625990Y-67836589D01*
X134463475Y-67593368D01*
X134256632Y-67386525D01*
X134082240Y-67270000D01*
X134256632Y-67153475D01*
X134463475Y-66946632D01*
X134588178Y-66760000D01*
X155185199Y-66760000D01*
X174433823Y-86008625D01*
X174427832Y-86023088D01*
X174365000Y-86338967D01*
X174365000Y-86661033D01*
X174427832Y-86976912D01*
X174551082Y-87274463D01*
X174730013Y-87542252D01*
X174957748Y-87769987D01*
X175225537Y-87948918D01*
X175523088Y-88072168D01*
X175838967Y-88135000D01*
X176161033Y-88135000D01*
X176476912Y-88072168D01*
X176774463Y-87948918D01*
X177042252Y-87769987D01*
X177269987Y-87542252D01*
X177448918Y-87274463D01*
X177572168Y-86976912D01*
X177635000Y-86661033D01*
X177635000Y-86338967D01*
X180865000Y-86338967D01*
X180865000Y-86661033D01*
X180927832Y-86976912D01*
X181051082Y-87274463D01*
X181230013Y-87542252D01*
X181457748Y-87769987D01*
X181725537Y-87948918D01*
X182023088Y-88072168D01*
X182338967Y-88135000D01*
X182661033Y-88135000D01*
X182976912Y-88072168D01*
X183274463Y-87948918D01*
X183542252Y-87769987D01*
X183769987Y-87542252D01*
X183948918Y-87274463D01*
X184072168Y-86976912D01*
X184135000Y-86661033D01*
X184135000Y-86338967D01*
X184072168Y-86023088D01*
X183948918Y-85725537D01*
X183769987Y-85457748D01*
X183542252Y-85230013D01*
X183274463Y-85051082D01*
X182976912Y-84927832D01*
X182661033Y-84865000D01*
X182338967Y-84865000D01*
X182023088Y-84927832D01*
X181725537Y-85051082D01*
X181457748Y-85230013D01*
X181230013Y-85457748D01*
X181051082Y-85725537D01*
X180927832Y-86023088D01*
X180865000Y-86338967D01*
X177635000Y-86338967D01*
X177572168Y-86023088D01*
X177448918Y-85725537D01*
X177269987Y-85457748D01*
X177042252Y-85230013D01*
X176774463Y-85051082D01*
X176476912Y-84927832D01*
X176161033Y-84865000D01*
X175838967Y-84865000D01*
X175523088Y-84927832D01*
X175508625Y-84933823D01*
X173710215Y-83135413D01*
X175044192Y-83135413D01*
X175139956Y-83399814D01*
X175429571Y-83540704D01*
X175741108Y-83622384D01*
X176062595Y-83641718D01*
X176381675Y-83597961D01*
X176686088Y-83492795D01*
X176860044Y-83399814D01*
X176955808Y-83135413D01*
X181544192Y-83135413D01*
X181639956Y-83399814D01*
X181929571Y-83540704D01*
X182241108Y-83622384D01*
X182562595Y-83641718D01*
X182881675Y-83597961D01*
X183186088Y-83492795D01*
X183360044Y-83399814D01*
X183455808Y-83135413D01*
X182500000Y-82179605D01*
X181544192Y-83135413D01*
X176955808Y-83135413D01*
X176000000Y-82179605D01*
X175044192Y-83135413D01*
X173710215Y-83135413D01*
X172637397Y-82062595D01*
X174358282Y-82062595D01*
X174402039Y-82381675D01*
X174507205Y-82686088D01*
X174600186Y-82860044D01*
X174864587Y-82955808D01*
X175820395Y-82000000D01*
X176179605Y-82000000D01*
X177135413Y-82955808D01*
X177399814Y-82860044D01*
X177540704Y-82570429D01*
X177622384Y-82258892D01*
X177634189Y-82062595D01*
X180858282Y-82062595D01*
X180902039Y-82381675D01*
X181007205Y-82686088D01*
X181100186Y-82860044D01*
X181364587Y-82955808D01*
X182320395Y-82000000D01*
X182679605Y-82000000D01*
X183635413Y-82955808D01*
X183899814Y-82860044D01*
X184040704Y-82570429D01*
X184122384Y-82258892D01*
X184141718Y-81937405D01*
X184097961Y-81618325D01*
X183992795Y-81313912D01*
X183899814Y-81139956D01*
X183635413Y-81044192D01*
X182679605Y-82000000D01*
X182320395Y-82000000D01*
X181364587Y-81044192D01*
X181100186Y-81139956D01*
X180959296Y-81429571D01*
X180877616Y-81741108D01*
X180858282Y-82062595D01*
X177634189Y-82062595D01*
X177641718Y-81937405D01*
X177597961Y-81618325D01*
X177492795Y-81313912D01*
X177399814Y-81139956D01*
X177135413Y-81044192D01*
X176179605Y-82000000D01*
X175820395Y-82000000D01*
X174864587Y-81044192D01*
X174600186Y-81139956D01*
X174459296Y-81429571D01*
X174377616Y-81741108D01*
X174358282Y-82062595D01*
X172637397Y-82062595D01*
X171439389Y-80864587D01*
X175044192Y-80864587D01*
X176000000Y-81820395D01*
X176955808Y-80864587D01*
X181544192Y-80864587D01*
X182500000Y-81820395D01*
X183455808Y-80864587D01*
X183360044Y-80600186D01*
X183070429Y-80459296D01*
X182758892Y-80377616D01*
X182437405Y-80358282D01*
X182118325Y-80402039D01*
X181813912Y-80507205D01*
X181639956Y-80600186D01*
X181544192Y-80864587D01*
X176955808Y-80864587D01*
X176860044Y-80600186D01*
X176570429Y-80459296D01*
X176258892Y-80377616D01*
X175937405Y-80358282D01*
X175618325Y-80402039D01*
X175313912Y-80507205D01*
X175139956Y-80600186D01*
X175044192Y-80864587D01*
X171439389Y-80864587D01*
X161764802Y-71190000D01*
X178459339Y-71190000D01*
X178481929Y-71419360D01*
X178548831Y-71639906D01*
X178647766Y-71825000D01*
X178548831Y-72010094D01*
X178481929Y-72230640D01*
X178459339Y-72460000D01*
X178481929Y-72689360D01*
X178548831Y-72909906D01*
X178649154Y-73097596D01*
X178591623Y-73185579D01*
X178506100Y-73422617D01*
X178631756Y-73603000D01*
X179372440Y-73603000D01*
X179405640Y-73613071D01*
X179577523Y-73630000D01*
X180147000Y-73630000D01*
X180147000Y-73826928D01*
X179100000Y-73826928D01*
X178975518Y-73839188D01*
X178916800Y-73857000D01*
X178631756Y-73857000D01*
X178506100Y-74037383D01*
X178547385Y-74151810D01*
X178510498Y-74220820D01*
X178474188Y-74340518D01*
X178461928Y-74465000D01*
X178461928Y-75535000D01*
X178474188Y-75659482D01*
X178510498Y-75779180D01*
X178569463Y-75889494D01*
X178648815Y-75986185D01*
X178745506Y-76065537D01*
X178855820Y-76124502D01*
X178975518Y-76160812D01*
X179100000Y-76173072D01*
X180900000Y-76173072D01*
X181024482Y-76160812D01*
X181144180Y-76124502D01*
X181254494Y-76065537D01*
X181351185Y-75986185D01*
X181430537Y-75889494D01*
X181489502Y-75779180D01*
X181525812Y-75659482D01*
X181538072Y-75535000D01*
X181538072Y-74645800D01*
X181736539Y-74645800D01*
X181936498Y-74606026D01*
X182124856Y-74528005D01*
X182294374Y-74414737D01*
X182438537Y-74270574D01*
X182551805Y-74101056D01*
X182629826Y-73912698D01*
X182669600Y-73712739D01*
X182669600Y-73508861D01*
X182629826Y-73308902D01*
X182551805Y-73120544D01*
X182438537Y-72951026D01*
X182294374Y-72806863D01*
X182124856Y-72693595D01*
X181985300Y-72635789D01*
X181985300Y-72497333D01*
X181988977Y-72460000D01*
X181974303Y-72311014D01*
X181930846Y-72167753D01*
X181860274Y-72035724D01*
X181765301Y-71919999D01*
X181649576Y-71825026D01*
X181517547Y-71754454D01*
X181407745Y-71721146D01*
X181451169Y-71639906D01*
X181518071Y-71419360D01*
X181540661Y-71190000D01*
X181518071Y-70960640D01*
X181451169Y-70740094D01*
X181342526Y-70536838D01*
X181196318Y-70358682D01*
X181018162Y-70212474D01*
X180814906Y-70103831D01*
X180594360Y-70036929D01*
X180422477Y-70020000D01*
X179577523Y-70020000D01*
X179405640Y-70036929D01*
X179185094Y-70103831D01*
X178981838Y-70212474D01*
X178803682Y-70358682D01*
X178657474Y-70536838D01*
X178548831Y-70740094D01*
X178481929Y-70960640D01*
X178459339Y-71190000D01*
X161764802Y-71190000D01*
X159364523Y-68789721D01*
X189865000Y-68789721D01*
X189865000Y-69210279D01*
X189947047Y-69622756D01*
X190107988Y-70011302D01*
X190341637Y-70360983D01*
X190639017Y-70658363D01*
X190988698Y-70892012D01*
X191377244Y-71052953D01*
X191789721Y-71135000D01*
X192210279Y-71135000D01*
X192622756Y-71052953D01*
X193011302Y-70892012D01*
X193360983Y-70658363D01*
X193658363Y-70360983D01*
X193892012Y-70011302D01*
X194052953Y-69622756D01*
X194135000Y-69210279D01*
X194135000Y-68789721D01*
X194052953Y-68377244D01*
X193892012Y-67988698D01*
X193658363Y-67639017D01*
X193360983Y-67341637D01*
X193011302Y-67107988D01*
X192622756Y-66947047D01*
X192210279Y-66865000D01*
X191789721Y-66865000D01*
X191377244Y-66947047D01*
X190988698Y-67107988D01*
X190639017Y-67341637D01*
X190341637Y-67639017D01*
X190107988Y-67988698D01*
X189947047Y-68377244D01*
X189865000Y-68789721D01*
X159364523Y-68789721D01*
X156063804Y-65489003D01*
X156040001Y-65459999D01*
X155924276Y-65365026D01*
X155792247Y-65294454D01*
X155648986Y-65250997D01*
X155537333Y-65240000D01*
X155537322Y-65240000D01*
X155500000Y-65236324D01*
X155462678Y-65240000D01*
X134588178Y-65240000D01*
X134463475Y-65053368D01*
X134256632Y-64846525D01*
X134013411Y-64684010D01*
X133743158Y-64572068D01*
X133456260Y-64515000D01*
X133163740Y-64515000D01*
X132876842Y-64572068D01*
X132606589Y-64684010D01*
X132363368Y-64846525D01*
X132156525Y-65053368D01*
X132040000Y-65227760D01*
X131923475Y-65053368D01*
X131716632Y-64846525D01*
X131473411Y-64684010D01*
X131203158Y-64572068D01*
X130916260Y-64515000D01*
X130623740Y-64515000D01*
X130336842Y-64572068D01*
X130066589Y-64684010D01*
X129823368Y-64846525D01*
X129616525Y-65053368D01*
X129500000Y-65227760D01*
X129383475Y-65053368D01*
X129176632Y-64846525D01*
X128933411Y-64684010D01*
X128663158Y-64572068D01*
X128376260Y-64515000D01*
X128083740Y-64515000D01*
X127796842Y-64572068D01*
X127526589Y-64684010D01*
X127283368Y-64846525D01*
X127076525Y-65053368D01*
X126960000Y-65227760D01*
X126843475Y-65053368D01*
X126636632Y-64846525D01*
X126393411Y-64684010D01*
X126123158Y-64572068D01*
X125836260Y-64515000D01*
X125543740Y-64515000D01*
X125256842Y-64572068D01*
X124986589Y-64684010D01*
X124743368Y-64846525D01*
X124536525Y-65053368D01*
X124420000Y-65227760D01*
X124303475Y-65053368D01*
X124096632Y-64846525D01*
X123853411Y-64684010D01*
X123583158Y-64572068D01*
X123296260Y-64515000D01*
X123003740Y-64515000D01*
X122716842Y-64572068D01*
X122446589Y-64684010D01*
X122203368Y-64846525D01*
X121996525Y-65053368D01*
X121880000Y-65227760D01*
X121763475Y-65053368D01*
X121556632Y-64846525D01*
X121313411Y-64684010D01*
X121043158Y-64572068D01*
X120756260Y-64515000D01*
X120463740Y-64515000D01*
X120176842Y-64572068D01*
X119906589Y-64684010D01*
X119663368Y-64846525D01*
X119456525Y-65053368D01*
X119340000Y-65227760D01*
X119223475Y-65053368D01*
X119016632Y-64846525D01*
X118773411Y-64684010D01*
X118503158Y-64572068D01*
X118216260Y-64515000D01*
X117923740Y-64515000D01*
X117636842Y-64572068D01*
X117366589Y-64684010D01*
X117123368Y-64846525D01*
X116916525Y-65053368D01*
X116800000Y-65227760D01*
X116683475Y-65053368D01*
X116476632Y-64846525D01*
X116233411Y-64684010D01*
X115963158Y-64572068D01*
X115676260Y-64515000D01*
X115383740Y-64515000D01*
X115096842Y-64572068D01*
X114826589Y-64684010D01*
X114583368Y-64846525D01*
X114376525Y-65053368D01*
X114260000Y-65227760D01*
X114143475Y-65053368D01*
X113936632Y-64846525D01*
X113693411Y-64684010D01*
X113423158Y-64572068D01*
X113136260Y-64515000D01*
X112843740Y-64515000D01*
X112556842Y-64572068D01*
X112286589Y-64684010D01*
X112043368Y-64846525D01*
X111836525Y-65053368D01*
X111720000Y-65227760D01*
X111603475Y-65053368D01*
X111396632Y-64846525D01*
X111153411Y-64684010D01*
X110883158Y-64572068D01*
X110596260Y-64515000D01*
X110303740Y-64515000D01*
X110016842Y-64572068D01*
X109746589Y-64684010D01*
X109503368Y-64846525D01*
X109296525Y-65053368D01*
X109180000Y-65227760D01*
X109063475Y-65053368D01*
X108856632Y-64846525D01*
X108613411Y-64684010D01*
X108343158Y-64572068D01*
X108056260Y-64515000D01*
X107763740Y-64515000D01*
X107476842Y-64572068D01*
X107206589Y-64684010D01*
X106963368Y-64846525D01*
X106756525Y-65053368D01*
X106640000Y-65227760D01*
X106523475Y-65053368D01*
X106316632Y-64846525D01*
X106073411Y-64684010D01*
X105803158Y-64572068D01*
X105516260Y-64515000D01*
X105223740Y-64515000D01*
X104936842Y-64572068D01*
X104666589Y-64684010D01*
X104423368Y-64846525D01*
X104216525Y-65053368D01*
X104100000Y-65227760D01*
X103983475Y-65053368D01*
X103776632Y-64846525D01*
X103533411Y-64684010D01*
X103263158Y-64572068D01*
X102976260Y-64515000D01*
X102683740Y-64515000D01*
X102396842Y-64572068D01*
X102126589Y-64684010D01*
X101883368Y-64846525D01*
X101676525Y-65053368D01*
X101560000Y-65227760D01*
X101443475Y-65053368D01*
X101236632Y-64846525D01*
X100993411Y-64684010D01*
X100723158Y-64572068D01*
X100436260Y-64515000D01*
X100143740Y-64515000D01*
X99856842Y-64572068D01*
X99586589Y-64684010D01*
X99343368Y-64846525D01*
X99211513Y-64978380D01*
X99189502Y-64905820D01*
X99130537Y-64795506D01*
X99051185Y-64698815D01*
X98954494Y-64619463D01*
X98844180Y-64560498D01*
X98724482Y-64524188D01*
X98600000Y-64511928D01*
X96900000Y-64511928D01*
X96775518Y-64524188D01*
X96655820Y-64560498D01*
X96545506Y-64619463D01*
X96448815Y-64698815D01*
X96369463Y-64795506D01*
X96310498Y-64905820D01*
X96274188Y-65025518D01*
X96261928Y-65150000D01*
X96261928Y-65240000D01*
X75037322Y-65240000D01*
X74999999Y-65236324D01*
X74962676Y-65240000D01*
X74962667Y-65240000D01*
X74851014Y-65250997D01*
X74707753Y-65294454D01*
X74575723Y-65365026D01*
X74508495Y-65420199D01*
X74459999Y-65459999D01*
X74436201Y-65488997D01*
X54991376Y-84933823D01*
X54976912Y-84927832D01*
X54661033Y-84865000D01*
X54338967Y-84865000D01*
X54023088Y-84927832D01*
X53725537Y-85051082D01*
X53457748Y-85230013D01*
X53230013Y-85457748D01*
X53051082Y-85725537D01*
X52927832Y-86023088D01*
X52865000Y-86338967D01*
X49635000Y-86338967D01*
X49572168Y-86023088D01*
X49448918Y-85725537D01*
X49269987Y-85457748D01*
X49042252Y-85230013D01*
X48774463Y-85051082D01*
X48476912Y-84927832D01*
X48161033Y-84865000D01*
X47838967Y-84865000D01*
X47523088Y-84927832D01*
X47225537Y-85051082D01*
X46957748Y-85230013D01*
X46730013Y-85457748D01*
X46551082Y-85725537D01*
X46427832Y-86023088D01*
X46365000Y-86338967D01*
X33660000Y-86338967D01*
X33660000Y-83653306D01*
X33870398Y-83717130D01*
X34051835Y-83735000D01*
X34873165Y-83735000D01*
X35054602Y-83717130D01*
X35287401Y-83646511D01*
X35501949Y-83531833D01*
X35690002Y-83377502D01*
X35835484Y-83200232D01*
X35802500Y-83366052D01*
X35802500Y-83633948D01*
X35854764Y-83896697D01*
X35957284Y-84144201D01*
X36106119Y-84366949D01*
X36295551Y-84556381D01*
X36518299Y-84705216D01*
X36765803Y-84807736D01*
X37028552Y-84860000D01*
X37296448Y-84860000D01*
X37559197Y-84807736D01*
X37806701Y-84705216D01*
X38029449Y-84556381D01*
X38218881Y-84366949D01*
X38367716Y-84144201D01*
X38470236Y-83896697D01*
X38522500Y-83633948D01*
X38522500Y-83366052D01*
X38476624Y-83135413D01*
X47044192Y-83135413D01*
X47139956Y-83399814D01*
X47429571Y-83540704D01*
X47741108Y-83622384D01*
X48062595Y-83641718D01*
X48381675Y-83597961D01*
X48686088Y-83492795D01*
X48860044Y-83399814D01*
X48955808Y-83135413D01*
X53544192Y-83135413D01*
X53639956Y-83399814D01*
X53929571Y-83540704D01*
X54241108Y-83622384D01*
X54562595Y-83641718D01*
X54881675Y-83597961D01*
X55186088Y-83492795D01*
X55360044Y-83399814D01*
X55455808Y-83135413D01*
X54500000Y-82179605D01*
X53544192Y-83135413D01*
X48955808Y-83135413D01*
X48000000Y-82179605D01*
X47044192Y-83135413D01*
X38476624Y-83135413D01*
X38470236Y-83103303D01*
X38367716Y-82855799D01*
X38218881Y-82633051D01*
X38029449Y-82443619D01*
X37806701Y-82294784D01*
X37559197Y-82192264D01*
X37296448Y-82140000D01*
X37028552Y-82140000D01*
X36765803Y-82192264D01*
X36518299Y-82294784D01*
X36295551Y-82443619D01*
X36106119Y-82633051D01*
X36026617Y-82752035D01*
X36029630Y-82742102D01*
X36053475Y-82500000D01*
X36029630Y-82257898D01*
X35970386Y-82062595D01*
X46358282Y-82062595D01*
X46402039Y-82381675D01*
X46507205Y-82686088D01*
X46600186Y-82860044D01*
X46864587Y-82955808D01*
X47820395Y-82000000D01*
X48179605Y-82000000D01*
X49135413Y-82955808D01*
X49399814Y-82860044D01*
X49540704Y-82570429D01*
X49622384Y-82258892D01*
X49634189Y-82062595D01*
X52858282Y-82062595D01*
X52902039Y-82381675D01*
X53007205Y-82686088D01*
X53100186Y-82860044D01*
X53364587Y-82955808D01*
X54320395Y-82000000D01*
X54679605Y-82000000D01*
X55635413Y-82955808D01*
X55899814Y-82860044D01*
X56040704Y-82570429D01*
X56122384Y-82258892D01*
X56141718Y-81937405D01*
X56097961Y-81618325D01*
X55992795Y-81313912D01*
X55899814Y-81139956D01*
X55635413Y-81044192D01*
X54679605Y-82000000D01*
X54320395Y-82000000D01*
X53364587Y-81044192D01*
X53100186Y-81139956D01*
X52959296Y-81429571D01*
X52877616Y-81741108D01*
X52858282Y-82062595D01*
X49634189Y-82062595D01*
X49641718Y-81937405D01*
X49597961Y-81618325D01*
X49492795Y-81313912D01*
X49399814Y-81139956D01*
X49135413Y-81044192D01*
X48179605Y-82000000D01*
X47820395Y-82000000D01*
X46864587Y-81044192D01*
X46600186Y-81139956D01*
X46459296Y-81429571D01*
X46377616Y-81741108D01*
X46358282Y-82062595D01*
X35970386Y-82062595D01*
X35959011Y-82025099D01*
X35844333Y-81810551D01*
X35690002Y-81622498D01*
X35501949Y-81468167D01*
X35287401Y-81353489D01*
X35054602Y-81282870D01*
X34873165Y-81265000D01*
X34051835Y-81265000D01*
X33870398Y-81282870D01*
X33660000Y-81346694D01*
X33660000Y-79500000D01*
X40161928Y-79500000D01*
X40161928Y-81100000D01*
X40174188Y-81224482D01*
X40210498Y-81344180D01*
X40269463Y-81454494D01*
X40348815Y-81551185D01*
X40445506Y-81630537D01*
X40555820Y-81689502D01*
X40675518Y-81725812D01*
X40800000Y-81738072D01*
X42400000Y-81738072D01*
X42524482Y-81725812D01*
X42644180Y-81689502D01*
X42754494Y-81630537D01*
X42851185Y-81551185D01*
X42861807Y-81538242D01*
X43113996Y-81657571D01*
X43388184Y-81726300D01*
X43670512Y-81740217D01*
X43950130Y-81698787D01*
X44216292Y-81603603D01*
X44341514Y-81536671D01*
X44413097Y-81292702D01*
X43600000Y-80479605D01*
X43585858Y-80493748D01*
X43406253Y-80314143D01*
X43420395Y-80300000D01*
X43779605Y-80300000D01*
X44592702Y-81113097D01*
X44836671Y-81041514D01*
X44920387Y-80864587D01*
X47044192Y-80864587D01*
X48000000Y-81820395D01*
X48955808Y-80864587D01*
X53544192Y-80864587D01*
X54500000Y-81820395D01*
X55455808Y-80864587D01*
X55360044Y-80600186D01*
X55070429Y-80459296D01*
X54758892Y-80377616D01*
X54437405Y-80358282D01*
X54118325Y-80402039D01*
X53813912Y-80507205D01*
X53639956Y-80600186D01*
X53544192Y-80864587D01*
X48955808Y-80864587D01*
X48860044Y-80600186D01*
X48570429Y-80459296D01*
X48258892Y-80377616D01*
X47937405Y-80358282D01*
X47618325Y-80402039D01*
X47313912Y-80507205D01*
X47139956Y-80600186D01*
X47044192Y-80864587D01*
X44920387Y-80864587D01*
X44957571Y-80786004D01*
X45026300Y-80511816D01*
X45040217Y-80229488D01*
X44998787Y-79949870D01*
X44903603Y-79683708D01*
X44836671Y-79558486D01*
X44592702Y-79486903D01*
X43779605Y-80300000D01*
X43420395Y-80300000D01*
X43406253Y-80285858D01*
X43585858Y-80106253D01*
X43600000Y-80120395D01*
X44413097Y-79307298D01*
X44341514Y-79063329D01*
X44086004Y-78942429D01*
X43811816Y-78873700D01*
X43529488Y-78859783D01*
X43249870Y-78901213D01*
X42983708Y-78996397D01*
X42861691Y-79061616D01*
X42851185Y-79048815D01*
X42754494Y-78969463D01*
X42644180Y-78910498D01*
X42524482Y-78874188D01*
X42400000Y-78861928D01*
X40800000Y-78861928D01*
X40675518Y-78874188D01*
X40555820Y-78910498D01*
X40445506Y-78969463D01*
X40348815Y-79048815D01*
X40269463Y-79145506D01*
X40210498Y-79255820D01*
X40174188Y-79375518D01*
X40161928Y-79500000D01*
X33660000Y-79500000D01*
X33660000Y-75465000D01*
X49461928Y-75465000D01*
X49461928Y-76535000D01*
X49474188Y-76659482D01*
X49510498Y-76779180D01*
X49569463Y-76889494D01*
X49648815Y-76986185D01*
X49745506Y-77065537D01*
X49855820Y-77124502D01*
X49975518Y-77160812D01*
X50100000Y-77173072D01*
X51900000Y-77173072D01*
X52024482Y-77160812D01*
X52144180Y-77124502D01*
X52254494Y-77065537D01*
X52351185Y-76986185D01*
X52430537Y-76889494D01*
X52489502Y-76779180D01*
X52525812Y-76659482D01*
X52538072Y-76535000D01*
X52538072Y-75465000D01*
X52525812Y-75340518D01*
X52489502Y-75220820D01*
X52452615Y-75151810D01*
X52493900Y-75037383D01*
X52368244Y-74857000D01*
X52083200Y-74857000D01*
X52024482Y-74839188D01*
X51900000Y-74826928D01*
X50100000Y-74826928D01*
X49975518Y-74839188D01*
X49916800Y-74857000D01*
X49631756Y-74857000D01*
X49506100Y-75037383D01*
X49547385Y-75151810D01*
X49510498Y-75220820D01*
X49474188Y-75340518D01*
X49461928Y-75465000D01*
X33660000Y-75465000D01*
X33660000Y-72190000D01*
X49459339Y-72190000D01*
X49481929Y-72419360D01*
X49548831Y-72639906D01*
X49647766Y-72825000D01*
X49548831Y-73010094D01*
X49481929Y-73230640D01*
X49459339Y-73460000D01*
X49481929Y-73689360D01*
X49548831Y-73909906D01*
X49649154Y-74097596D01*
X49591623Y-74185579D01*
X49506100Y-74422617D01*
X49631756Y-74603000D01*
X50372440Y-74603000D01*
X50405640Y-74613071D01*
X50577523Y-74630000D01*
X51422477Y-74630000D01*
X51594360Y-74613071D01*
X51627560Y-74603000D01*
X52368244Y-74603000D01*
X52493900Y-74422617D01*
X52408377Y-74185579D01*
X52350846Y-74097596D01*
X52451169Y-73909906D01*
X52518071Y-73689360D01*
X52540661Y-73460000D01*
X52518071Y-73230640D01*
X52451169Y-73010094D01*
X52352234Y-72825000D01*
X52451169Y-72639906D01*
X52518071Y-72419360D01*
X52540661Y-72190000D01*
X52518071Y-71960640D01*
X52451169Y-71740094D01*
X52342526Y-71536838D01*
X52196318Y-71358682D01*
X52018162Y-71212474D01*
X51814906Y-71103831D01*
X51594360Y-71036929D01*
X51422477Y-71020000D01*
X50577523Y-71020000D01*
X50405640Y-71036929D01*
X50185094Y-71103831D01*
X49981838Y-71212474D01*
X49803682Y-71358682D01*
X49657474Y-71536838D01*
X49548831Y-71740094D01*
X49481929Y-71960640D01*
X49459339Y-72190000D01*
X33660000Y-72190000D01*
X33660000Y-68789721D01*
X36865000Y-68789721D01*
X36865000Y-69210279D01*
X36947047Y-69622756D01*
X37107988Y-70011302D01*
X37341637Y-70360983D01*
X37639017Y-70658363D01*
X37988698Y-70892012D01*
X38377244Y-71052953D01*
X38789721Y-71135000D01*
X39210279Y-71135000D01*
X39622756Y-71052953D01*
X40011302Y-70892012D01*
X40360983Y-70658363D01*
X40658363Y-70360983D01*
X40892012Y-70011302D01*
X41052953Y-69622756D01*
X41135000Y-69210279D01*
X41135000Y-68789721D01*
X41052953Y-68377244D01*
X40892012Y-67988698D01*
X40658363Y-67639017D01*
X40360983Y-67341637D01*
X40011302Y-67107988D01*
X39622756Y-66947047D01*
X39210279Y-66865000D01*
X38789721Y-66865000D01*
X38377244Y-66947047D01*
X37988698Y-67107988D01*
X37639017Y-67341637D01*
X37341637Y-67639017D01*
X37107988Y-67988698D01*
X36947047Y-68377244D01*
X36865000Y-68789721D01*
X33660000Y-68789721D01*
X33660000Y-66032279D01*
X33707670Y-65546107D01*
X33839489Y-65109502D01*
X34053600Y-64706815D01*
X34341848Y-64353388D01*
X34693261Y-64062673D01*
X35094439Y-63845758D01*
X35530113Y-63710894D01*
X36014344Y-63660000D01*
X194967721Y-63660000D01*
X195453893Y-63707670D01*
G36*
X72395926Y-101948737D02*
G01*
X72565444Y-102062005D01*
X72753802Y-102140026D01*
X72953761Y-102179800D01*
X73015899Y-102179800D01*
X75129400Y-104293302D01*
X75153199Y-104322301D01*
X75268924Y-104417274D01*
X75400953Y-104487846D01*
X75544214Y-104531303D01*
X75655867Y-104542300D01*
X75655876Y-104542300D01*
X75693199Y-104545976D01*
X75730522Y-104542300D01*
X93012599Y-104542300D01*
X102146189Y-113675891D01*
X102126589Y-113684010D01*
X101919371Y-113822469D01*
X101410603Y-113313702D01*
X101386801Y-113284699D01*
X101271076Y-113189726D01*
X101139047Y-113119154D01*
X100995786Y-113075697D01*
X100884133Y-113064700D01*
X100884122Y-113064700D01*
X100846800Y-113061024D01*
X100809478Y-113064700D01*
X83155103Y-113064700D01*
X77939219Y-107848816D01*
X79465000Y-107848816D01*
X79465000Y-108151184D01*
X79523989Y-108447743D01*
X79639701Y-108727095D01*
X79807688Y-108978505D01*
X80021495Y-109192312D01*
X80272905Y-109360299D01*
X80552257Y-109476011D01*
X80848816Y-109535000D01*
X81151184Y-109535000D01*
X81447743Y-109476011D01*
X81727095Y-109360299D01*
X81978505Y-109192312D01*
X82106737Y-109064080D01*
X82615525Y-109064080D01*
X82699208Y-109318261D01*
X82971775Y-109449158D01*
X83264642Y-109524365D01*
X83566553Y-109540991D01*
X83865907Y-109498397D01*
X84151199Y-109398222D01*
X84300792Y-109318261D01*
X84384475Y-109064080D01*
X83500000Y-108179605D01*
X82615525Y-109064080D01*
X82106737Y-109064080D01*
X82192312Y-108978505D01*
X82287738Y-108835690D01*
X82435920Y-108884475D01*
X83320395Y-108000000D01*
X83679605Y-108000000D01*
X84564080Y-108884475D01*
X84712262Y-108835690D01*
X84807688Y-108978505D01*
X85021495Y-109192312D01*
X85272905Y-109360299D01*
X85552257Y-109476011D01*
X85848816Y-109535000D01*
X86151184Y-109535000D01*
X86447743Y-109476011D01*
X86727095Y-109360299D01*
X86978505Y-109192312D01*
X87192312Y-108978505D01*
X87360299Y-108727095D01*
X87476011Y-108447743D01*
X87535000Y-108151184D01*
X87535000Y-107848816D01*
X87476011Y-107552257D01*
X87360299Y-107272905D01*
X87192312Y-107021495D01*
X86978505Y-106807688D01*
X86727095Y-106639701D01*
X86447743Y-106523989D01*
X86151184Y-106465000D01*
X85848816Y-106465000D01*
X85552257Y-106523989D01*
X85272905Y-106639701D01*
X85021495Y-106807688D01*
X84807688Y-107021495D01*
X84712262Y-107164310D01*
X84564080Y-107115525D01*
X83679605Y-108000000D01*
X83320395Y-108000000D01*
X82435920Y-107115525D01*
X82287738Y-107164310D01*
X82192312Y-107021495D01*
X82106737Y-106935920D01*
X82615525Y-106935920D01*
X83500000Y-107820395D01*
X84384475Y-106935920D01*
X84300792Y-106681739D01*
X84028225Y-106550842D01*
X83735358Y-106475635D01*
X83433447Y-106459009D01*
X83134093Y-106501603D01*
X82848801Y-106601778D01*
X82699208Y-106681739D01*
X82615525Y-106935920D01*
X82106737Y-106935920D01*
X81978505Y-106807688D01*
X81727095Y-106639701D01*
X81447743Y-106523989D01*
X81151184Y-106465000D01*
X80848816Y-106465000D01*
X80552257Y-106523989D01*
X80272905Y-106639701D01*
X80021495Y-106807688D01*
X79807688Y-107021495D01*
X79639701Y-107272905D01*
X79523989Y-107552257D01*
X79465000Y-107848816D01*
X77939219Y-107848816D01*
X72550100Y-102459699D01*
X72550100Y-102397561D01*
X72510326Y-102197602D01*
X72432305Y-102009244D01*
X72383720Y-101936531D01*
X72395926Y-101948737D01*
G37*
X72395926Y-101948737D02*
X72565444Y-102062005D01*
X72753802Y-102140026D01*
X72953761Y-102179800D01*
X73015899Y-102179800D01*
X75129400Y-104293302D01*
X75153199Y-104322301D01*
X75268924Y-104417274D01*
X75400953Y-104487846D01*
X75544214Y-104531303D01*
X75655867Y-104542300D01*
X75655876Y-104542300D01*
X75693199Y-104545976D01*
X75730522Y-104542300D01*
X93012599Y-104542300D01*
X102146189Y-113675891D01*
X102126589Y-113684010D01*
X101919371Y-113822469D01*
X101410603Y-113313702D01*
X101386801Y-113284699D01*
X101271076Y-113189726D01*
X101139047Y-113119154D01*
X100995786Y-113075697D01*
X100884133Y-113064700D01*
X100884122Y-113064700D01*
X100846800Y-113061024D01*
X100809478Y-113064700D01*
X83155103Y-113064700D01*
X77939219Y-107848816D01*
X79465000Y-107848816D01*
X79465000Y-108151184D01*
X79523989Y-108447743D01*
X79639701Y-108727095D01*
X79807688Y-108978505D01*
X80021495Y-109192312D01*
X80272905Y-109360299D01*
X80552257Y-109476011D01*
X80848816Y-109535000D01*
X81151184Y-109535000D01*
X81447743Y-109476011D01*
X81727095Y-109360299D01*
X81978505Y-109192312D01*
X82106737Y-109064080D01*
X82615525Y-109064080D01*
X82699208Y-109318261D01*
X82971775Y-109449158D01*
X83264642Y-109524365D01*
X83566553Y-109540991D01*
X83865907Y-109498397D01*
X84151199Y-109398222D01*
X84300792Y-109318261D01*
X84384475Y-109064080D01*
X83500000Y-108179605D01*
X82615525Y-109064080D01*
X82106737Y-109064080D01*
X82192312Y-108978505D01*
X82287738Y-108835690D01*
X82435920Y-108884475D01*
X83320395Y-108000000D01*
X83679605Y-108000000D01*
X84564080Y-108884475D01*
X84712262Y-108835690D01*
X84807688Y-108978505D01*
X85021495Y-109192312D01*
X85272905Y-109360299D01*
X85552257Y-109476011D01*
X85848816Y-109535000D01*
X86151184Y-109535000D01*
X86447743Y-109476011D01*
X86727095Y-109360299D01*
X86978505Y-109192312D01*
X87192312Y-108978505D01*
X87360299Y-108727095D01*
X87476011Y-108447743D01*
X87535000Y-108151184D01*
X87535000Y-107848816D01*
X87476011Y-107552257D01*
X87360299Y-107272905D01*
X87192312Y-107021495D01*
X86978505Y-106807688D01*
X86727095Y-106639701D01*
X86447743Y-106523989D01*
X86151184Y-106465000D01*
X85848816Y-106465000D01*
X85552257Y-106523989D01*
X85272905Y-106639701D01*
X85021495Y-106807688D01*
X84807688Y-107021495D01*
X84712262Y-107164310D01*
X84564080Y-107115525D01*
X83679605Y-108000000D01*
X83320395Y-108000000D01*
X82435920Y-107115525D01*
X82287738Y-107164310D01*
X82192312Y-107021495D01*
X82106737Y-106935920D01*
X82615525Y-106935920D01*
X83500000Y-107820395D01*
X84384475Y-106935920D01*
X84300792Y-106681739D01*
X84028225Y-106550842D01*
X83735358Y-106475635D01*
X83433447Y-106459009D01*
X83134093Y-106501603D01*
X82848801Y-106601778D01*
X82699208Y-106681739D01*
X82615525Y-106935920D01*
X82106737Y-106935920D01*
X81978505Y-106807688D01*
X81727095Y-106639701D01*
X81447743Y-106523989D01*
X81151184Y-106465000D01*
X80848816Y-106465000D01*
X80552257Y-106523989D01*
X80272905Y-106639701D01*
X80021495Y-106807688D01*
X79807688Y-107021495D01*
X79639701Y-107272905D01*
X79523989Y-107552257D01*
X79465000Y-107848816D01*
X77939219Y-107848816D01*
X72550100Y-102459699D01*
X72550100Y-102397561D01*
X72510326Y-102197602D01*
X72432305Y-102009244D01*
X72383720Y-101936531D01*
X72395926Y-101948737D01*
%TD*%
M02*
