%TF.GenerationSoftware,KiCad,Pcbnew,(5.1.6)-1*%
%TF.CreationDate,2020-10-09T15:00:49-07:00*%
%TF.ProjectId,Autopilot panel,4175746f-7069-46c6-9f74-2070616e656c,rev?*%
%TF.SameCoordinates,Original*%
%TF.FileFunction,Copper,L2,Bot*%
%TF.FilePolarity,Positive*%
%FSLAX46Y46*%
G04 Gerber Fmt 4.6, Leading zero omitted, Abs format (unit mm)*
G04 Created by KiCad (PCBNEW (5.1.6)-1) date 2020-10-09 15:00:49*
%MOMM*%
%LPD*%
G01*
G04 APERTURE LIST*
%TA.AperFunction,ComponentPad*%
%ADD10C,1.800000*%
%TD*%
%TA.AperFunction,ComponentPad*%
%ADD11C,4.950000*%
%TD*%
%TA.AperFunction,ComponentPad*%
%ADD12R,1.800000X1.800000*%
%TD*%
%TA.AperFunction,ComponentPad*%
%ADD13C,1.450000*%
%TD*%
%TA.AperFunction,ComponentPad*%
%ADD14O,1.900000X1.200000*%
%TD*%
%TA.AperFunction,ComponentPad*%
%ADD15R,1.700000X1.700000*%
%TD*%
%TA.AperFunction,ComponentPad*%
%ADD16O,1.700000X1.700000*%
%TD*%
%TA.AperFunction,ComponentPad*%
%ADD17C,2.000000*%
%TD*%
%TA.AperFunction,ViaPad*%
%ADD18C,0.800000*%
%TD*%
%TA.AperFunction,Conductor*%
%ADD19C,0.250000*%
%TD*%
%TA.AperFunction,Conductor*%
%ADD20C,0.254000*%
%TD*%
G04 APERTURE END LIST*
D10*
%TO.P,J6,A1*%
%TO.N,/sheet5F811AC6/A1*%
X139000000Y-105000000D03*
%TO.P,J6,B1*%
%TO.N,/sheet5F811AC6/B1*%
X144000000Y-105000000D03*
%TO.P,J6,C1*%
%TO.N,GND*%
X141500000Y-105000000D03*
%TO.P,J6,D1*%
%TO.N,ENC4_SW*%
X139000000Y-90500000D03*
%TO.P,J6,E1*%
%TO.N,GND*%
X144000000Y-90500000D03*
D11*
%TO.P,J6,MH1*%
%TO.N,Net-(J6-PadMH1)*%
X136850000Y-97500000D03*
%TO.P,J6,MH2*%
%TO.N,Net-(J6-PadMH2)*%
X146150000Y-97500000D03*
%TD*%
D12*
%TO.P,D1,1*%
%TO.N,GND*%
X62000000Y-74000000D03*
D10*
%TO.P,D1,2*%
%TO.N,Net-(D1-Pad2)*%
X64540000Y-74000000D03*
%TD*%
%TO.P,D2,2*%
%TO.N,Net-(D2-Pad2)*%
X90540000Y-74000000D03*
D12*
%TO.P,D2,1*%
%TO.N,GND*%
X88000000Y-74000000D03*
%TD*%
%TO.P,D3,1*%
%TO.N,GND*%
X114000000Y-74000000D03*
D10*
%TO.P,D3,2*%
%TO.N,Net-(D3-Pad2)*%
X116540000Y-74000000D03*
%TD*%
%TO.P,D4,2*%
%TO.N,Net-(D4-Pad2)*%
X142540000Y-74000000D03*
D12*
%TO.P,D4,1*%
%TO.N,GND*%
X140000000Y-74000000D03*
%TD*%
%TO.P,D5,1*%
%TO.N,GND*%
X166000000Y-74000000D03*
D10*
%TO.P,D5,2*%
%TO.N,Net-(D5-Pad2)*%
X168540000Y-74000000D03*
%TD*%
D13*
%TO.P,J1,6*%
%TO.N,Net-(J1-Pad6)*%
X53162500Y-79500000D03*
X53162500Y-84500000D03*
D14*
X50462500Y-78500000D03*
X50462500Y-85500000D03*
%TD*%
D15*
%TO.P,J2,1*%
%TO.N,LED1*%
X100000000Y-117000000D03*
D16*
%TO.P,J2,2*%
%TO.N,+5V*%
X100000000Y-114460000D03*
%TO.P,J2,3*%
%TO.N,LED2*%
X102540000Y-117000000D03*
%TO.P,J2,4*%
%TO.N,GND*%
X102540000Y-114460000D03*
%TO.P,J2,5*%
%TO.N,LED3*%
X105080000Y-117000000D03*
%TO.P,J2,6*%
%TO.N,ENC1_SW*%
X105080000Y-114460000D03*
%TO.P,J2,7*%
%TO.N,LED4*%
X107620000Y-117000000D03*
%TO.P,J2,8*%
%TO.N,ENC1_LEFT*%
X107620000Y-114460000D03*
%TO.P,J2,9*%
%TO.N,LED5*%
X110160000Y-117000000D03*
%TO.P,J2,10*%
%TO.N,ENC1_RIGHT*%
X110160000Y-114460000D03*
%TO.P,J2,11*%
%TO.N,SW1*%
X112700000Y-117000000D03*
%TO.P,J2,12*%
%TO.N,ENC2_SW*%
X112700000Y-114460000D03*
%TO.P,J2,13*%
%TO.N,SW2*%
X115240000Y-117000000D03*
%TO.P,J2,14*%
%TO.N,ENC2_LEFT*%
X115240000Y-114460000D03*
%TO.P,J2,15*%
%TO.N,SW3*%
X117780000Y-117000000D03*
%TO.P,J2,16*%
%TO.N,ENC2_RIGHT*%
X117780000Y-114460000D03*
%TO.P,J2,17*%
%TO.N,SW4*%
X120320000Y-117000000D03*
%TO.P,J2,18*%
%TO.N,ENC3_SW*%
X120320000Y-114460000D03*
%TO.P,J2,19*%
%TO.N,SW5*%
X122860000Y-117000000D03*
%TO.P,J2,20*%
%TO.N,ENC3_LEFT*%
X122860000Y-114460000D03*
%TO.P,J2,21*%
%TO.N,ENC5_SW*%
X125400000Y-117000000D03*
%TO.P,J2,22*%
%TO.N,ENC3_RIGHT*%
X125400000Y-114460000D03*
%TO.P,J2,23*%
%TO.N,ENC5_LEFT*%
X127940000Y-117000000D03*
%TO.P,J2,24*%
%TO.N,ENC4_SW*%
X127940000Y-114460000D03*
%TO.P,J2,25*%
%TO.N,ENC5_RIGHT*%
X130480000Y-117000000D03*
%TO.P,J2,26*%
%TO.N,ENC4_LEFT*%
X130480000Y-114460000D03*
%TO.P,J2,27*%
%TO.N,GND*%
X133020000Y-117000000D03*
%TO.P,J2,28*%
%TO.N,ENC4_RIGHT*%
X133020000Y-114460000D03*
%TO.P,J2,29*%
%TO.N,GND*%
X135560000Y-117000000D03*
%TO.P,J2,30*%
X135560000Y-114460000D03*
%TD*%
D10*
%TO.P,J3,A1*%
%TO.N,/Sheet5F80EAAA/A1*%
X61000000Y-105000000D03*
%TO.P,J3,B1*%
%TO.N,/Sheet5F80EAAA/B1*%
X66000000Y-105000000D03*
%TO.P,J3,C1*%
%TO.N,GND*%
X63500000Y-105000000D03*
%TO.P,J3,D1*%
%TO.N,ENC1_SW*%
X61000000Y-90500000D03*
%TO.P,J3,E1*%
%TO.N,GND*%
X66000000Y-90500000D03*
D11*
%TO.P,J3,MH1*%
%TO.N,Net-(J3-PadMH1)*%
X58850000Y-97500000D03*
%TO.P,J3,MH2*%
%TO.N,Net-(J3-PadMH2)*%
X68150000Y-97500000D03*
%TD*%
D10*
%TO.P,J4,A1*%
%TO.N,/sheet5F811880/A1*%
X87000000Y-105000000D03*
%TO.P,J4,B1*%
%TO.N,/sheet5F811880/B1*%
X92000000Y-105000000D03*
%TO.P,J4,C1*%
%TO.N,GND*%
X89500000Y-105000000D03*
%TO.P,J4,D1*%
%TO.N,ENC2_SW*%
X87000000Y-90500000D03*
%TO.P,J4,E1*%
%TO.N,GND*%
X92000000Y-90500000D03*
D11*
%TO.P,J4,MH1*%
%TO.N,Net-(J4-PadMH1)*%
X84850000Y-97500000D03*
%TO.P,J4,MH2*%
%TO.N,Net-(J4-PadMH2)*%
X94150000Y-97500000D03*
%TD*%
%TO.P,J5,MH2*%
%TO.N,Net-(J5-PadMH2)*%
X120150000Y-97500000D03*
%TO.P,J5,MH1*%
%TO.N,Net-(J5-PadMH1)*%
X110850000Y-97500000D03*
D10*
%TO.P,J5,E1*%
%TO.N,GND*%
X118000000Y-90500000D03*
%TO.P,J5,D1*%
%TO.N,ENC3_SW*%
X113000000Y-90500000D03*
%TO.P,J5,C1*%
%TO.N,GND*%
X115500000Y-105000000D03*
%TO.P,J5,B1*%
%TO.N,/sheet5F81197D/B1*%
X118000000Y-105000000D03*
%TO.P,J5,A1*%
%TO.N,/sheet5F81197D/A1*%
X113000000Y-105000000D03*
%TD*%
D11*
%TO.P,J7,MH2*%
%TO.N,Net-(J7-PadMH2)*%
X172150000Y-97500000D03*
%TO.P,J7,MH1*%
%TO.N,Net-(J7-PadMH1)*%
X162850000Y-97500000D03*
D10*
%TO.P,J7,E1*%
%TO.N,GND*%
X170000000Y-90500000D03*
%TO.P,J7,D1*%
%TO.N,ENC5_SW*%
X165000000Y-90500000D03*
%TO.P,J7,C1*%
%TO.N,GND*%
X167500000Y-105000000D03*
%TO.P,J7,B1*%
%TO.N,/sheet5F811C1F/B1*%
X170000000Y-105000000D03*
%TO.P,J7,A1*%
%TO.N,/sheet5F811C1F/A1*%
X165000000Y-105000000D03*
%TD*%
D17*
%TO.P,SW1,2*%
%TO.N,SW1*%
X60000000Y-85500000D03*
%TO.P,SW1,1*%
%TO.N,GND*%
X60000000Y-81000000D03*
%TO.P,SW1,2*%
%TO.N,SW1*%
X66500000Y-85500000D03*
%TO.P,SW1,1*%
%TO.N,GND*%
X66500000Y-81000000D03*
%TD*%
%TO.P,SW2,1*%
%TO.N,GND*%
X92500000Y-81000000D03*
%TO.P,SW2,2*%
%TO.N,SW2*%
X92500000Y-85500000D03*
%TO.P,SW2,1*%
%TO.N,GND*%
X86000000Y-81000000D03*
%TO.P,SW2,2*%
%TO.N,SW2*%
X86000000Y-85500000D03*
%TD*%
%TO.P,SW3,2*%
%TO.N,SW3*%
X112000000Y-85500000D03*
%TO.P,SW3,1*%
%TO.N,GND*%
X112000000Y-81000000D03*
%TO.P,SW3,2*%
%TO.N,SW3*%
X118500000Y-85500000D03*
%TO.P,SW3,1*%
%TO.N,GND*%
X118500000Y-81000000D03*
%TD*%
%TO.P,SW4,1*%
%TO.N,GND*%
X144500000Y-81000000D03*
%TO.P,SW4,2*%
%TO.N,SW4*%
X144500000Y-85500000D03*
%TO.P,SW4,1*%
%TO.N,GND*%
X138000000Y-81000000D03*
%TO.P,SW4,2*%
%TO.N,SW4*%
X138000000Y-85500000D03*
%TD*%
%TO.P,SW5,2*%
%TO.N,SW5*%
X164000000Y-85500000D03*
%TO.P,SW5,1*%
%TO.N,GND*%
X164000000Y-81000000D03*
%TO.P,SW5,2*%
%TO.N,SW5*%
X170500000Y-85500000D03*
%TO.P,SW5,1*%
%TO.N,GND*%
X170500000Y-81000000D03*
%TD*%
D18*
%TO.N,GND*%
X62500000Y-67500000D03*
X70000000Y-67500000D03*
X77500000Y-67500000D03*
X85000000Y-67500000D03*
X92500000Y-67500000D03*
X100000000Y-67500000D03*
X107500000Y-67500000D03*
X115000000Y-67500000D03*
X122500000Y-67500000D03*
X130000000Y-67500000D03*
X137500000Y-67500000D03*
X145000000Y-67500000D03*
X152500000Y-67500000D03*
X160000000Y-67500000D03*
X167500000Y-67500000D03*
X152500000Y-77500000D03*
X152500000Y-87500000D03*
X160000000Y-77500000D03*
X160000000Y-87500000D03*
X160000000Y-102500000D03*
X160000000Y-112500000D03*
X152500000Y-112500000D03*
X145000000Y-112500000D03*
X137500000Y-112500000D03*
X100000000Y-77500000D03*
X100000000Y-87500000D03*
X107500000Y-77500000D03*
X77500000Y-77500000D03*
X85000000Y-77500000D03*
X70000000Y-77500000D03*
X62500000Y-77500000D03*
X70000000Y-85000000D03*
X70000000Y-92500000D03*
X59944000Y-78232000D03*
X58674000Y-76454000D03*
X55118000Y-83312000D03*
X54356000Y-106934000D03*
X74930000Y-107188000D03*
X77978000Y-107188000D03*
X101092000Y-106426000D03*
X102616000Y-106426000D03*
X127000000Y-106934000D03*
X130048000Y-106680000D03*
X152908000Y-106934000D03*
X155956000Y-106934000D03*
X177038000Y-107188000D03*
X70000000Y-107500000D03*
X60000000Y-107500000D03*
X60000000Y-112500000D03*
%TO.N,LED1*%
X74365100Y-79610000D03*
X77462500Y-85037500D03*
%TO.N,LED2*%
X76737200Y-92876400D03*
%TO.N,LED3*%
X118153100Y-72021700D03*
%TO.N,ENC1_SW*%
X87750700Y-113284700D03*
%TO.N,LED4*%
X107331000Y-90905200D03*
%TO.N,ENC2_SW*%
X107121500Y-92150500D03*
%TO.N,ENC2_LEFT*%
X77975000Y-98976700D03*
%TO.N,ENC3_RIGHT*%
X127025000Y-98324400D03*
%TO.N,ENC5_LEFT*%
X153841800Y-99056500D03*
%TO.N,ENC4_RIGHT*%
X152975400Y-98336000D03*
%TO.N,/sheet5F811AC6/B1*%
X148614100Y-101000000D03*
%TD*%
D19*
%TO.N,Net-(J1-Pad6)*%
X50462500Y-78500000D02*
X52162500Y-78500000D01*
X52162500Y-78500000D02*
X53162500Y-79500000D01*
%TO.N,LED1*%
X98824700Y-117000000D02*
X88250000Y-106425300D01*
X88250000Y-106425300D02*
X88250000Y-104517000D01*
X88250000Y-104517000D02*
X85048900Y-101315900D01*
X85048900Y-101315900D02*
X84703100Y-101315900D01*
X84703100Y-101315900D02*
X77462500Y-94075300D01*
X77462500Y-94075300D02*
X77462500Y-85037500D01*
X77462500Y-82707400D02*
X74365100Y-79610000D01*
X100000000Y-117000000D02*
X98824700Y-117000000D01*
X77462500Y-85037500D02*
X77462500Y-82707400D01*
%TO.N,LED2*%
X101364700Y-117000000D02*
X101364700Y-117808000D01*
X101364700Y-117808000D02*
X100997300Y-118175400D01*
X100997300Y-118175400D02*
X98440300Y-118175400D01*
X98440300Y-118175400D02*
X80439400Y-100174500D01*
X80439400Y-100174500D02*
X80439400Y-99537700D01*
X80439400Y-99537700D02*
X76737200Y-95835500D01*
X76737200Y-95835500D02*
X76737200Y-92876400D01*
X102540000Y-117000000D02*
X101364700Y-117000000D01*
%TO.N,LED3*%
X118153100Y-72021700D02*
X118153100Y-76768500D01*
X118153100Y-76768500D02*
X105925400Y-88996200D01*
X105925400Y-88996200D02*
X105925400Y-93253800D01*
X105925400Y-93253800D02*
X106255300Y-93583700D01*
X106255300Y-93583700D02*
X106255300Y-115016800D01*
X106255300Y-115016800D02*
X105447400Y-115824700D01*
X105447400Y-115824700D02*
X105080000Y-115824700D01*
X105080000Y-117000000D02*
X105080000Y-115824700D01*
%TO.N,ENC1_SW*%
X61000000Y-90500000D02*
X62250000Y-91750000D01*
X62250000Y-91750000D02*
X62250000Y-105510700D01*
X62250000Y-105510700D02*
X70024000Y-113284700D01*
X70024000Y-113284700D02*
X87750700Y-113284700D01*
%TO.N,LED4*%
X107620000Y-117000000D02*
X107620000Y-115824700D01*
X107620000Y-115824700D02*
X107987300Y-115824700D01*
X107987300Y-115824700D02*
X108810600Y-115001400D01*
X108810600Y-115001400D02*
X108810600Y-107521300D01*
X108810600Y-107521300D02*
X106771500Y-105482200D01*
X106771500Y-105482200D02*
X106771500Y-93072800D01*
X106771500Y-93072800D02*
X106393500Y-92694800D01*
X106393500Y-92694800D02*
X106393500Y-91842700D01*
X106393500Y-91842700D02*
X107331000Y-90905200D01*
%TO.N,SW1*%
X66500000Y-85500000D02*
X66500000Y-86421800D01*
X66500000Y-86421800D02*
X79764000Y-99685800D01*
X79764000Y-99685800D02*
X79764000Y-100205700D01*
X79764000Y-100205700D02*
X98204300Y-118646000D01*
X98204300Y-118646000D02*
X110246000Y-118646000D01*
X110246000Y-118646000D02*
X111524700Y-117367300D01*
X111524700Y-117367300D02*
X111524700Y-117000000D01*
X112700000Y-117000000D02*
X111524700Y-117000000D01*
%TO.N,ENC2_SW*%
X107121500Y-92150500D02*
X107221900Y-92250900D01*
X107221900Y-92250900D02*
X107221900Y-103213100D01*
X107221900Y-103213100D02*
X112700000Y-108691200D01*
X112700000Y-108691200D02*
X112700000Y-114460000D01*
%TO.N,SW2*%
X115240000Y-117000000D02*
X114064700Y-117000000D01*
X92500000Y-85500000D02*
X103810000Y-96810000D01*
X103810000Y-96810000D02*
X103810000Y-117452500D01*
X103810000Y-117452500D02*
X104553100Y-118195600D01*
X104553100Y-118195600D02*
X108088100Y-118195600D01*
X108088100Y-118195600D02*
X108923400Y-117360300D01*
X108923400Y-117360300D02*
X108923400Y-116496400D01*
X108923400Y-116496400D02*
X109595100Y-115824700D01*
X109595100Y-115824700D02*
X113256800Y-115824700D01*
X113256800Y-115824700D02*
X114064700Y-116632600D01*
X114064700Y-116632600D02*
X114064700Y-117000000D01*
%TO.N,ENC2_LEFT*%
X77975000Y-98976700D02*
X77975000Y-99053600D01*
X77975000Y-99053600D02*
X98026800Y-119105400D01*
X98026800Y-119105400D02*
X114815900Y-119105400D01*
X114815900Y-119105400D02*
X116447000Y-117474300D01*
X116447000Y-117474300D02*
X116447000Y-116475000D01*
X116447000Y-116475000D02*
X115607300Y-115635300D01*
X115607300Y-115635300D02*
X115240000Y-115635300D01*
X115240000Y-114460000D02*
X115240000Y-115635300D01*
%TO.N,SW3*%
X117780000Y-117000000D02*
X117780000Y-115824700D01*
X112000000Y-85500000D02*
X111746400Y-85753600D01*
X111746400Y-85753600D02*
X111746400Y-92806200D01*
X111746400Y-92806200D02*
X114250000Y-95309800D01*
X114250000Y-95309800D02*
X114250000Y-109604300D01*
X114250000Y-109604300D02*
X116604700Y-111959000D01*
X116604700Y-111959000D02*
X116604700Y-115016800D01*
X116604700Y-115016800D02*
X117412600Y-115824700D01*
X117412600Y-115824700D02*
X117780000Y-115824700D01*
%TO.N,SW4*%
X120320000Y-117000000D02*
X120320000Y-115824700D01*
X138000000Y-85500000D02*
X121495300Y-102004700D01*
X121495300Y-102004700D02*
X121495300Y-115016800D01*
X121495300Y-115016800D02*
X120687400Y-115824700D01*
X120687400Y-115824700D02*
X120320000Y-115824700D01*
%TO.N,ENC3_SW*%
X120320000Y-114460000D02*
X120320000Y-113284700D01*
X113000000Y-90500000D02*
X116747500Y-94247500D01*
X116747500Y-94247500D02*
X116747500Y-109712200D01*
X116747500Y-109712200D02*
X120320000Y-113284700D01*
%TO.N,SW5*%
X122860000Y-117000000D02*
X124035300Y-117000000D01*
X164000000Y-85500000D02*
X150761200Y-98738800D01*
X150761200Y-98738800D02*
X150761200Y-99980400D01*
X150761200Y-99980400D02*
X144113100Y-106628500D01*
X144113100Y-106628500D02*
X139174400Y-106628500D01*
X139174400Y-106628500D02*
X131750000Y-114052900D01*
X131750000Y-114052900D02*
X131750000Y-114891000D01*
X131750000Y-114891000D02*
X130816300Y-115824700D01*
X130816300Y-115824700D02*
X124843200Y-115824700D01*
X124843200Y-115824700D02*
X124035300Y-116632600D01*
X124035300Y-116632600D02*
X124035300Y-117000000D01*
%TO.N,ENC5_SW*%
X125400000Y-117000000D02*
X126575300Y-117000000D01*
X165000000Y-90500000D02*
X136870000Y-118630000D01*
X136870000Y-118630000D02*
X127838000Y-118630000D01*
X127838000Y-118630000D02*
X126575300Y-117367300D01*
X126575300Y-117367300D02*
X126575300Y-117000000D01*
%TO.N,ENC3_RIGHT*%
X125400000Y-114460000D02*
X125400000Y-99949400D01*
X125400000Y-99949400D02*
X127025000Y-98324400D01*
%TO.N,ENC5_LEFT*%
X127940000Y-117000000D02*
X129115300Y-117000000D01*
X129115300Y-117000000D02*
X129115300Y-117370300D01*
X129115300Y-117370300D02*
X129920300Y-118175300D01*
X129920300Y-118175300D02*
X136059600Y-118175300D01*
X136059600Y-118175300D02*
X153841800Y-100393100D01*
X153841800Y-100393100D02*
X153841800Y-99056500D01*
%TO.N,ENC4_SW*%
X139000000Y-90500000D02*
X127940000Y-101560000D01*
X127940000Y-101560000D02*
X127940000Y-114460000D01*
%TO.N,ENC4_RIGHT*%
X134195300Y-114460000D02*
X134195300Y-114092600D01*
X134195300Y-114092600D02*
X135003200Y-113284700D01*
X135003200Y-113284700D02*
X138125900Y-113284700D01*
X138125900Y-113284700D02*
X152975400Y-98435200D01*
X152975400Y-98435200D02*
X152975400Y-98336000D01*
X133020000Y-114460000D02*
X134195300Y-114460000D01*
%TO.N,/sheet5F811AC6/B1*%
X144000000Y-105000000D02*
X144614100Y-105000000D01*
X144614100Y-105000000D02*
X148614100Y-101000000D01*
%TD*%
D20*
%TO.N,GND*%
G36*
X179453893Y-63707670D02*
G01*
X179890498Y-63839489D01*
X180293185Y-64053600D01*
X180646612Y-64341848D01*
X180937327Y-64693261D01*
X181154242Y-65094439D01*
X181289106Y-65530113D01*
X181340000Y-66014344D01*
X181340001Y-117967711D01*
X181292330Y-118453894D01*
X181160512Y-118890497D01*
X180946399Y-119293186D01*
X180658150Y-119646613D01*
X180306739Y-119937327D01*
X179905564Y-120154240D01*
X179469886Y-120289106D01*
X178985664Y-120340000D01*
X52032279Y-120340000D01*
X51546106Y-120292330D01*
X51109503Y-120160512D01*
X50706814Y-119946399D01*
X50353387Y-119658150D01*
X50062673Y-119306739D01*
X49845760Y-118905564D01*
X49710894Y-118469886D01*
X49660000Y-117985664D01*
X49660000Y-115789721D01*
X51865000Y-115789721D01*
X51865000Y-116210279D01*
X51947047Y-116622756D01*
X52107988Y-117011302D01*
X52341637Y-117360983D01*
X52639017Y-117658363D01*
X52988698Y-117892012D01*
X53377244Y-118052953D01*
X53789721Y-118135000D01*
X54210279Y-118135000D01*
X54622756Y-118052953D01*
X55011302Y-117892012D01*
X55360983Y-117658363D01*
X55658363Y-117360983D01*
X55892012Y-117011302D01*
X56052953Y-116622756D01*
X56135000Y-116210279D01*
X56135000Y-115789721D01*
X56052953Y-115377244D01*
X55892012Y-114988698D01*
X55658363Y-114639017D01*
X55360983Y-114341637D01*
X55011302Y-114107988D01*
X54622756Y-113947047D01*
X54210279Y-113865000D01*
X53789721Y-113865000D01*
X53377244Y-113947047D01*
X52988698Y-114107988D01*
X52639017Y-114341637D01*
X52341637Y-114639017D01*
X52107988Y-114988698D01*
X51947047Y-115377244D01*
X51865000Y-115789721D01*
X49660000Y-115789721D01*
X49660000Y-97193692D01*
X55740000Y-97193692D01*
X55740000Y-97806308D01*
X55859516Y-98407154D01*
X56093954Y-98973137D01*
X56434305Y-99482509D01*
X56867491Y-99915695D01*
X57376863Y-100256046D01*
X57942846Y-100490484D01*
X58543692Y-100610000D01*
X59156308Y-100610000D01*
X59757154Y-100490484D01*
X60323137Y-100256046D01*
X60832509Y-99915695D01*
X61265695Y-99482509D01*
X61490001Y-99146812D01*
X61490001Y-103541493D01*
X61447743Y-103523989D01*
X61151184Y-103465000D01*
X60848816Y-103465000D01*
X60552257Y-103523989D01*
X60272905Y-103639701D01*
X60021495Y-103807688D01*
X59807688Y-104021495D01*
X59639701Y-104272905D01*
X59523989Y-104552257D01*
X59465000Y-104848816D01*
X59465000Y-105151184D01*
X59523989Y-105447743D01*
X59639701Y-105727095D01*
X59807688Y-105978505D01*
X60021495Y-106192312D01*
X60272905Y-106360299D01*
X60552257Y-106476011D01*
X60848816Y-106535000D01*
X61151184Y-106535000D01*
X61447743Y-106476011D01*
X61727095Y-106360299D01*
X61905555Y-106241056D01*
X69460201Y-113795703D01*
X69483999Y-113824701D01*
X69599724Y-113919674D01*
X69731753Y-113990246D01*
X69875014Y-114033703D01*
X69986667Y-114044700D01*
X69986676Y-114044700D01*
X70023999Y-114048376D01*
X70061322Y-114044700D01*
X87046989Y-114044700D01*
X87090926Y-114088637D01*
X87260444Y-114201905D01*
X87448802Y-114279926D01*
X87648761Y-114319700D01*
X87852639Y-114319700D01*
X88052598Y-114279926D01*
X88240956Y-114201905D01*
X88410474Y-114088637D01*
X88554637Y-113944474D01*
X88667905Y-113774956D01*
X88745926Y-113586598D01*
X88785700Y-113386639D01*
X88785700Y-113182761D01*
X88745926Y-112982802D01*
X88667905Y-112794444D01*
X88554637Y-112624926D01*
X88410474Y-112480763D01*
X88240956Y-112367495D01*
X88052598Y-112289474D01*
X87852639Y-112249700D01*
X87648761Y-112249700D01*
X87448802Y-112289474D01*
X87260444Y-112367495D01*
X87090926Y-112480763D01*
X87046989Y-112524700D01*
X70338802Y-112524700D01*
X64191032Y-106376930D01*
X64300792Y-106318261D01*
X64384475Y-106064080D01*
X63500000Y-105179605D01*
X63485858Y-105193748D01*
X63306253Y-105014143D01*
X63320395Y-105000000D01*
X63679605Y-105000000D01*
X64564080Y-105884475D01*
X64712262Y-105835690D01*
X64807688Y-105978505D01*
X65021495Y-106192312D01*
X65272905Y-106360299D01*
X65552257Y-106476011D01*
X65848816Y-106535000D01*
X66151184Y-106535000D01*
X66447743Y-106476011D01*
X66727095Y-106360299D01*
X66978505Y-106192312D01*
X67192312Y-105978505D01*
X67360299Y-105727095D01*
X67476011Y-105447743D01*
X67535000Y-105151184D01*
X67535000Y-104848816D01*
X67476011Y-104552257D01*
X67360299Y-104272905D01*
X67192312Y-104021495D01*
X66978505Y-103807688D01*
X66727095Y-103639701D01*
X66447743Y-103523989D01*
X66151184Y-103465000D01*
X65848816Y-103465000D01*
X65552257Y-103523989D01*
X65272905Y-103639701D01*
X65021495Y-103807688D01*
X64807688Y-104021495D01*
X64712262Y-104164310D01*
X64564080Y-104115525D01*
X63679605Y-105000000D01*
X63320395Y-105000000D01*
X63306253Y-104985858D01*
X63485858Y-104806253D01*
X63500000Y-104820395D01*
X64384475Y-103935920D01*
X64300792Y-103681739D01*
X64028225Y-103550842D01*
X63735358Y-103475635D01*
X63433447Y-103459009D01*
X63134093Y-103501603D01*
X63010000Y-103545176D01*
X63010000Y-97193692D01*
X65040000Y-97193692D01*
X65040000Y-97806308D01*
X65159516Y-98407154D01*
X65393954Y-98973137D01*
X65734305Y-99482509D01*
X66167491Y-99915695D01*
X66676863Y-100256046D01*
X67242846Y-100490484D01*
X67843692Y-100610000D01*
X68456308Y-100610000D01*
X69057154Y-100490484D01*
X69623137Y-100256046D01*
X70132509Y-99915695D01*
X70565695Y-99482509D01*
X70906046Y-98973137D01*
X71140484Y-98407154D01*
X71260000Y-97806308D01*
X71260000Y-97193692D01*
X71140484Y-96592846D01*
X70906046Y-96026863D01*
X70565695Y-95517491D01*
X70132509Y-95084305D01*
X69623137Y-94743954D01*
X69057154Y-94509516D01*
X68456308Y-94390000D01*
X67843692Y-94390000D01*
X67242846Y-94509516D01*
X66676863Y-94743954D01*
X66167491Y-95084305D01*
X65734305Y-95517491D01*
X65393954Y-96026863D01*
X65159516Y-96592846D01*
X65040000Y-97193692D01*
X63010000Y-97193692D01*
X63010000Y-91787323D01*
X63013676Y-91750000D01*
X63010000Y-91712677D01*
X63010000Y-91712667D01*
X62999003Y-91601014D01*
X62987800Y-91564080D01*
X65115525Y-91564080D01*
X65199208Y-91818261D01*
X65471775Y-91949158D01*
X65764642Y-92024365D01*
X66066553Y-92040991D01*
X66365907Y-91998397D01*
X66651199Y-91898222D01*
X66800792Y-91818261D01*
X66884475Y-91564080D01*
X66000000Y-90679605D01*
X65115525Y-91564080D01*
X62987800Y-91564080D01*
X62955546Y-91457753D01*
X62896113Y-91346563D01*
X62884974Y-91325723D01*
X62813799Y-91238997D01*
X62790001Y-91209999D01*
X62761004Y-91186202D01*
X62483731Y-90908930D01*
X62535000Y-90651184D01*
X62535000Y-90566553D01*
X64459009Y-90566553D01*
X64501603Y-90865907D01*
X64601778Y-91151199D01*
X64681739Y-91300792D01*
X64935920Y-91384475D01*
X65820395Y-90500000D01*
X66179605Y-90500000D01*
X67064080Y-91384475D01*
X67318261Y-91300792D01*
X67449158Y-91028225D01*
X67524365Y-90735358D01*
X67540991Y-90433447D01*
X67498397Y-90134093D01*
X67398222Y-89848801D01*
X67318261Y-89699208D01*
X67064080Y-89615525D01*
X66179605Y-90500000D01*
X65820395Y-90500000D01*
X64935920Y-89615525D01*
X64681739Y-89699208D01*
X64550842Y-89971775D01*
X64475635Y-90264642D01*
X64459009Y-90566553D01*
X62535000Y-90566553D01*
X62535000Y-90348816D01*
X62476011Y-90052257D01*
X62360299Y-89772905D01*
X62192312Y-89521495D01*
X62106737Y-89435920D01*
X65115525Y-89435920D01*
X66000000Y-90320395D01*
X66884475Y-89435920D01*
X66800792Y-89181739D01*
X66528225Y-89050842D01*
X66235358Y-88975635D01*
X65933447Y-88959009D01*
X65634093Y-89001603D01*
X65348801Y-89101778D01*
X65199208Y-89181739D01*
X65115525Y-89435920D01*
X62106737Y-89435920D01*
X61978505Y-89307688D01*
X61727095Y-89139701D01*
X61447743Y-89023989D01*
X61151184Y-88965000D01*
X60848816Y-88965000D01*
X60552257Y-89023989D01*
X60272905Y-89139701D01*
X60021495Y-89307688D01*
X59807688Y-89521495D01*
X59639701Y-89772905D01*
X59523989Y-90052257D01*
X59465000Y-90348816D01*
X59465000Y-90651184D01*
X59523989Y-90947743D01*
X59639701Y-91227095D01*
X59807688Y-91478505D01*
X60021495Y-91692312D01*
X60272905Y-91860299D01*
X60552257Y-91976011D01*
X60848816Y-92035000D01*
X61151184Y-92035000D01*
X61408930Y-91983731D01*
X61490000Y-92064802D01*
X61490000Y-95853188D01*
X61265695Y-95517491D01*
X60832509Y-95084305D01*
X60323137Y-94743954D01*
X59757154Y-94509516D01*
X59156308Y-94390000D01*
X58543692Y-94390000D01*
X57942846Y-94509516D01*
X57376863Y-94743954D01*
X56867491Y-95084305D01*
X56434305Y-95517491D01*
X56093954Y-96026863D01*
X55859516Y-96592846D01*
X55740000Y-97193692D01*
X49660000Y-97193692D01*
X49660000Y-86653306D01*
X49870398Y-86717130D01*
X50051835Y-86735000D01*
X50873165Y-86735000D01*
X51054602Y-86717130D01*
X51287401Y-86646511D01*
X51501949Y-86531833D01*
X51690002Y-86377502D01*
X51844333Y-86189449D01*
X51959011Y-85974901D01*
X52029630Y-85742102D01*
X52053475Y-85500000D01*
X52029630Y-85257898D01*
X52026617Y-85247965D01*
X52106119Y-85366949D01*
X52295551Y-85556381D01*
X52518299Y-85705216D01*
X52765803Y-85807736D01*
X53028552Y-85860000D01*
X53296448Y-85860000D01*
X53559197Y-85807736D01*
X53806701Y-85705216D01*
X54029449Y-85556381D01*
X54218881Y-85366949D01*
X54237577Y-85338967D01*
X58365000Y-85338967D01*
X58365000Y-85661033D01*
X58427832Y-85976912D01*
X58551082Y-86274463D01*
X58730013Y-86542252D01*
X58957748Y-86769987D01*
X59225537Y-86948918D01*
X59523088Y-87072168D01*
X59838967Y-87135000D01*
X60161033Y-87135000D01*
X60476912Y-87072168D01*
X60774463Y-86948918D01*
X61042252Y-86769987D01*
X61269987Y-86542252D01*
X61448918Y-86274463D01*
X61572168Y-85976912D01*
X61635000Y-85661033D01*
X61635000Y-85338967D01*
X64865000Y-85338967D01*
X64865000Y-85661033D01*
X64927832Y-85976912D01*
X65051082Y-86274463D01*
X65230013Y-86542252D01*
X65457748Y-86769987D01*
X65725537Y-86948918D01*
X66023088Y-87072168D01*
X66088598Y-87085199D01*
X77245694Y-98242295D01*
X77171063Y-98316926D01*
X77057795Y-98486444D01*
X76979774Y-98674802D01*
X76940000Y-98874761D01*
X76940000Y-99078639D01*
X76979774Y-99278598D01*
X77057795Y-99466956D01*
X77171063Y-99636474D01*
X77315226Y-99780637D01*
X77484744Y-99893905D01*
X77673102Y-99971926D01*
X77854634Y-100008035D01*
X97463001Y-119616403D01*
X97486799Y-119645401D01*
X97515797Y-119669199D01*
X97602524Y-119740374D01*
X97734553Y-119810946D01*
X97877814Y-119854403D01*
X98026800Y-119869077D01*
X98064133Y-119865400D01*
X114778578Y-119865400D01*
X114815900Y-119869076D01*
X114853222Y-119865400D01*
X114853233Y-119865400D01*
X114964886Y-119854403D01*
X115108147Y-119810946D01*
X115240176Y-119740374D01*
X115355901Y-119645401D01*
X115379704Y-119616397D01*
X116838918Y-118157184D01*
X117076589Y-118315990D01*
X117346842Y-118427932D01*
X117633740Y-118485000D01*
X117926260Y-118485000D01*
X118213158Y-118427932D01*
X118483411Y-118315990D01*
X118726632Y-118153475D01*
X118933475Y-117946632D01*
X119050000Y-117772240D01*
X119166525Y-117946632D01*
X119373368Y-118153475D01*
X119616589Y-118315990D01*
X119886842Y-118427932D01*
X120173740Y-118485000D01*
X120466260Y-118485000D01*
X120753158Y-118427932D01*
X121023411Y-118315990D01*
X121266632Y-118153475D01*
X121473475Y-117946632D01*
X121590000Y-117772240D01*
X121706525Y-117946632D01*
X121913368Y-118153475D01*
X122156589Y-118315990D01*
X122426842Y-118427932D01*
X122713740Y-118485000D01*
X123006260Y-118485000D01*
X123293158Y-118427932D01*
X123563411Y-118315990D01*
X123806632Y-118153475D01*
X124013475Y-117946632D01*
X124130000Y-117772240D01*
X124246525Y-117946632D01*
X124453368Y-118153475D01*
X124696589Y-118315990D01*
X124966842Y-118427932D01*
X125253740Y-118485000D01*
X125546260Y-118485000D01*
X125833158Y-118427932D01*
X126103411Y-118315990D01*
X126310690Y-118177491D01*
X127274205Y-119141008D01*
X127297999Y-119170001D01*
X127326992Y-119193795D01*
X127326996Y-119193799D01*
X127383277Y-119239987D01*
X127413724Y-119264974D01*
X127545753Y-119335546D01*
X127689014Y-119379003D01*
X127800667Y-119390000D01*
X127800676Y-119390000D01*
X127837999Y-119393676D01*
X127875322Y-119390000D01*
X136832678Y-119390000D01*
X136870000Y-119393676D01*
X136907322Y-119390000D01*
X136907333Y-119390000D01*
X137018986Y-119379003D01*
X137162247Y-119335546D01*
X137294276Y-119264974D01*
X137410001Y-119170001D01*
X137433804Y-119140997D01*
X140785080Y-115789721D01*
X174865000Y-115789721D01*
X174865000Y-116210279D01*
X174947047Y-116622756D01*
X175107988Y-117011302D01*
X175341637Y-117360983D01*
X175639017Y-117658363D01*
X175988698Y-117892012D01*
X176377244Y-118052953D01*
X176789721Y-118135000D01*
X177210279Y-118135000D01*
X177622756Y-118052953D01*
X178011302Y-117892012D01*
X178360983Y-117658363D01*
X178658363Y-117360983D01*
X178892012Y-117011302D01*
X179052953Y-116622756D01*
X179135000Y-116210279D01*
X179135000Y-115789721D01*
X179052953Y-115377244D01*
X178892012Y-114988698D01*
X178658363Y-114639017D01*
X178360983Y-114341637D01*
X178011302Y-114107988D01*
X177622756Y-113947047D01*
X177210279Y-113865000D01*
X176789721Y-113865000D01*
X176377244Y-113947047D01*
X175988698Y-114107988D01*
X175639017Y-114341637D01*
X175341637Y-114639017D01*
X175107988Y-114988698D01*
X174947047Y-115377244D01*
X174865000Y-115789721D01*
X140785080Y-115789721D01*
X151725985Y-104848816D01*
X163465000Y-104848816D01*
X163465000Y-105151184D01*
X163523989Y-105447743D01*
X163639701Y-105727095D01*
X163807688Y-105978505D01*
X164021495Y-106192312D01*
X164272905Y-106360299D01*
X164552257Y-106476011D01*
X164848816Y-106535000D01*
X165151184Y-106535000D01*
X165447743Y-106476011D01*
X165727095Y-106360299D01*
X165978505Y-106192312D01*
X166106737Y-106064080D01*
X166615525Y-106064080D01*
X166699208Y-106318261D01*
X166971775Y-106449158D01*
X167264642Y-106524365D01*
X167566553Y-106540991D01*
X167865907Y-106498397D01*
X168151199Y-106398222D01*
X168300792Y-106318261D01*
X168384475Y-106064080D01*
X167500000Y-105179605D01*
X166615525Y-106064080D01*
X166106737Y-106064080D01*
X166192312Y-105978505D01*
X166287738Y-105835690D01*
X166435920Y-105884475D01*
X167320395Y-105000000D01*
X167679605Y-105000000D01*
X168564080Y-105884475D01*
X168712262Y-105835690D01*
X168807688Y-105978505D01*
X169021495Y-106192312D01*
X169272905Y-106360299D01*
X169552257Y-106476011D01*
X169848816Y-106535000D01*
X170151184Y-106535000D01*
X170447743Y-106476011D01*
X170727095Y-106360299D01*
X170978505Y-106192312D01*
X171192312Y-105978505D01*
X171360299Y-105727095D01*
X171476011Y-105447743D01*
X171535000Y-105151184D01*
X171535000Y-104848816D01*
X171476011Y-104552257D01*
X171360299Y-104272905D01*
X171192312Y-104021495D01*
X170978505Y-103807688D01*
X170727095Y-103639701D01*
X170447743Y-103523989D01*
X170151184Y-103465000D01*
X169848816Y-103465000D01*
X169552257Y-103523989D01*
X169272905Y-103639701D01*
X169021495Y-103807688D01*
X168807688Y-104021495D01*
X168712262Y-104164310D01*
X168564080Y-104115525D01*
X167679605Y-105000000D01*
X167320395Y-105000000D01*
X166435920Y-104115525D01*
X166287738Y-104164310D01*
X166192312Y-104021495D01*
X166106737Y-103935920D01*
X166615525Y-103935920D01*
X167500000Y-104820395D01*
X168384475Y-103935920D01*
X168300792Y-103681739D01*
X168028225Y-103550842D01*
X167735358Y-103475635D01*
X167433447Y-103459009D01*
X167134093Y-103501603D01*
X166848801Y-103601778D01*
X166699208Y-103681739D01*
X166615525Y-103935920D01*
X166106737Y-103935920D01*
X165978505Y-103807688D01*
X165727095Y-103639701D01*
X165447743Y-103523989D01*
X165151184Y-103465000D01*
X164848816Y-103465000D01*
X164552257Y-103523989D01*
X164272905Y-103639701D01*
X164021495Y-103807688D01*
X163807688Y-104021495D01*
X163639701Y-104272905D01*
X163523989Y-104552257D01*
X163465000Y-104848816D01*
X151725985Y-104848816D01*
X159829114Y-96745688D01*
X159740000Y-97193692D01*
X159740000Y-97806308D01*
X159859516Y-98407154D01*
X160093954Y-98973137D01*
X160434305Y-99482509D01*
X160867491Y-99915695D01*
X161376863Y-100256046D01*
X161942846Y-100490484D01*
X162543692Y-100610000D01*
X163156308Y-100610000D01*
X163757154Y-100490484D01*
X164323137Y-100256046D01*
X164832509Y-99915695D01*
X165265695Y-99482509D01*
X165606046Y-98973137D01*
X165840484Y-98407154D01*
X165960000Y-97806308D01*
X165960000Y-97193692D01*
X169040000Y-97193692D01*
X169040000Y-97806308D01*
X169159516Y-98407154D01*
X169393954Y-98973137D01*
X169734305Y-99482509D01*
X170167491Y-99915695D01*
X170676863Y-100256046D01*
X171242846Y-100490484D01*
X171843692Y-100610000D01*
X172456308Y-100610000D01*
X173057154Y-100490484D01*
X173623137Y-100256046D01*
X174132509Y-99915695D01*
X174565695Y-99482509D01*
X174906046Y-98973137D01*
X175140484Y-98407154D01*
X175260000Y-97806308D01*
X175260000Y-97193692D01*
X175140484Y-96592846D01*
X174906046Y-96026863D01*
X174565695Y-95517491D01*
X174132509Y-95084305D01*
X173623137Y-94743954D01*
X173057154Y-94509516D01*
X172456308Y-94390000D01*
X171843692Y-94390000D01*
X171242846Y-94509516D01*
X170676863Y-94743954D01*
X170167491Y-95084305D01*
X169734305Y-95517491D01*
X169393954Y-96026863D01*
X169159516Y-96592846D01*
X169040000Y-97193692D01*
X165960000Y-97193692D01*
X165840484Y-96592846D01*
X165606046Y-96026863D01*
X165265695Y-95517491D01*
X164832509Y-95084305D01*
X164323137Y-94743954D01*
X163757154Y-94509516D01*
X163156308Y-94390000D01*
X162543692Y-94390000D01*
X162095688Y-94479114D01*
X164591071Y-91983731D01*
X164848816Y-92035000D01*
X165151184Y-92035000D01*
X165447743Y-91976011D01*
X165727095Y-91860299D01*
X165978505Y-91692312D01*
X166106737Y-91564080D01*
X169115525Y-91564080D01*
X169199208Y-91818261D01*
X169471775Y-91949158D01*
X169764642Y-92024365D01*
X170066553Y-92040991D01*
X170365907Y-91998397D01*
X170651199Y-91898222D01*
X170800792Y-91818261D01*
X170884475Y-91564080D01*
X170000000Y-90679605D01*
X169115525Y-91564080D01*
X166106737Y-91564080D01*
X166192312Y-91478505D01*
X166360299Y-91227095D01*
X166476011Y-90947743D01*
X166535000Y-90651184D01*
X166535000Y-90566553D01*
X168459009Y-90566553D01*
X168501603Y-90865907D01*
X168601778Y-91151199D01*
X168681739Y-91300792D01*
X168935920Y-91384475D01*
X169820395Y-90500000D01*
X170179605Y-90500000D01*
X171064080Y-91384475D01*
X171318261Y-91300792D01*
X171449158Y-91028225D01*
X171524365Y-90735358D01*
X171540991Y-90433447D01*
X171498397Y-90134093D01*
X171398222Y-89848801D01*
X171318261Y-89699208D01*
X171064080Y-89615525D01*
X170179605Y-90500000D01*
X169820395Y-90500000D01*
X168935920Y-89615525D01*
X168681739Y-89699208D01*
X168550842Y-89971775D01*
X168475635Y-90264642D01*
X168459009Y-90566553D01*
X166535000Y-90566553D01*
X166535000Y-90348816D01*
X166476011Y-90052257D01*
X166360299Y-89772905D01*
X166192312Y-89521495D01*
X166106737Y-89435920D01*
X169115525Y-89435920D01*
X170000000Y-90320395D01*
X170884475Y-89435920D01*
X170800792Y-89181739D01*
X170528225Y-89050842D01*
X170235358Y-88975635D01*
X169933447Y-88959009D01*
X169634093Y-89001603D01*
X169348801Y-89101778D01*
X169199208Y-89181739D01*
X169115525Y-89435920D01*
X166106737Y-89435920D01*
X165978505Y-89307688D01*
X165727095Y-89139701D01*
X165447743Y-89023989D01*
X165151184Y-88965000D01*
X164848816Y-88965000D01*
X164552257Y-89023989D01*
X164272905Y-89139701D01*
X164021495Y-89307688D01*
X163807688Y-89521495D01*
X163639701Y-89772905D01*
X163523989Y-90052257D01*
X163465000Y-90348816D01*
X163465000Y-90651184D01*
X163516269Y-90908929D01*
X154601800Y-99823398D01*
X154601800Y-99760211D01*
X154645737Y-99716274D01*
X154759005Y-99546756D01*
X154837026Y-99358398D01*
X154876800Y-99158439D01*
X154876800Y-98954561D01*
X154837026Y-98754602D01*
X154759005Y-98566244D01*
X154645737Y-98396726D01*
X154501574Y-98252563D01*
X154332056Y-98139295D01*
X154143698Y-98061274D01*
X153967352Y-98026197D01*
X153892605Y-97845744D01*
X153779337Y-97676226D01*
X153635174Y-97532063D01*
X153465656Y-97418795D01*
X153277298Y-97340774D01*
X153241206Y-97333595D01*
X163508625Y-87066177D01*
X163523088Y-87072168D01*
X163838967Y-87135000D01*
X164161033Y-87135000D01*
X164476912Y-87072168D01*
X164774463Y-86948918D01*
X165042252Y-86769987D01*
X165269987Y-86542252D01*
X165448918Y-86274463D01*
X165572168Y-85976912D01*
X165635000Y-85661033D01*
X165635000Y-85338967D01*
X168865000Y-85338967D01*
X168865000Y-85661033D01*
X168927832Y-85976912D01*
X169051082Y-86274463D01*
X169230013Y-86542252D01*
X169457748Y-86769987D01*
X169725537Y-86948918D01*
X170023088Y-87072168D01*
X170338967Y-87135000D01*
X170661033Y-87135000D01*
X170976912Y-87072168D01*
X171274463Y-86948918D01*
X171542252Y-86769987D01*
X171769987Y-86542252D01*
X171948918Y-86274463D01*
X172072168Y-85976912D01*
X172135000Y-85661033D01*
X172135000Y-85338967D01*
X172072168Y-85023088D01*
X171948918Y-84725537D01*
X171769987Y-84457748D01*
X171542252Y-84230013D01*
X171274463Y-84051082D01*
X170976912Y-83927832D01*
X170661033Y-83865000D01*
X170338967Y-83865000D01*
X170023088Y-83927832D01*
X169725537Y-84051082D01*
X169457748Y-84230013D01*
X169230013Y-84457748D01*
X169051082Y-84725537D01*
X168927832Y-85023088D01*
X168865000Y-85338967D01*
X165635000Y-85338967D01*
X165572168Y-85023088D01*
X165448918Y-84725537D01*
X165269987Y-84457748D01*
X165042252Y-84230013D01*
X164774463Y-84051082D01*
X164476912Y-83927832D01*
X164161033Y-83865000D01*
X163838967Y-83865000D01*
X163523088Y-83927832D01*
X163225537Y-84051082D01*
X162957748Y-84230013D01*
X162730013Y-84457748D01*
X162551082Y-84725537D01*
X162427832Y-85023088D01*
X162365000Y-85338967D01*
X162365000Y-85661033D01*
X162427832Y-85976912D01*
X162433823Y-85991375D01*
X150250203Y-98174996D01*
X150221199Y-98198799D01*
X150166071Y-98265974D01*
X150126226Y-98314524D01*
X150108304Y-98348054D01*
X150055654Y-98446554D01*
X150012197Y-98589815D01*
X150001200Y-98701468D01*
X150001200Y-98701478D01*
X149997524Y-98738800D01*
X150001200Y-98776123D01*
X150001201Y-99665597D01*
X149372305Y-100294494D01*
X149273874Y-100196063D01*
X149104356Y-100082795D01*
X148915998Y-100004774D01*
X148716039Y-99965000D01*
X148512161Y-99965000D01*
X148312202Y-100004774D01*
X148123844Y-100082795D01*
X147954326Y-100196063D01*
X147810163Y-100340226D01*
X147696895Y-100509744D01*
X147618874Y-100698102D01*
X147579100Y-100898061D01*
X147579100Y-100960198D01*
X144830503Y-103708796D01*
X144727095Y-103639701D01*
X144447743Y-103523989D01*
X144151184Y-103465000D01*
X143848816Y-103465000D01*
X143552257Y-103523989D01*
X143272905Y-103639701D01*
X143021495Y-103807688D01*
X142807688Y-104021495D01*
X142712262Y-104164310D01*
X142564080Y-104115525D01*
X141679605Y-105000000D01*
X141693748Y-105014143D01*
X141514143Y-105193748D01*
X141500000Y-105179605D01*
X141485858Y-105193748D01*
X141306253Y-105014143D01*
X141320395Y-105000000D01*
X140435920Y-104115525D01*
X140287738Y-104164310D01*
X140192312Y-104021495D01*
X140106737Y-103935920D01*
X140615525Y-103935920D01*
X141500000Y-104820395D01*
X142384475Y-103935920D01*
X142300792Y-103681739D01*
X142028225Y-103550842D01*
X141735358Y-103475635D01*
X141433447Y-103459009D01*
X141134093Y-103501603D01*
X140848801Y-103601778D01*
X140699208Y-103681739D01*
X140615525Y-103935920D01*
X140106737Y-103935920D01*
X139978505Y-103807688D01*
X139727095Y-103639701D01*
X139447743Y-103523989D01*
X139151184Y-103465000D01*
X138848816Y-103465000D01*
X138552257Y-103523989D01*
X138272905Y-103639701D01*
X138021495Y-103807688D01*
X137807688Y-104021495D01*
X137639701Y-104272905D01*
X137523989Y-104552257D01*
X137465000Y-104848816D01*
X137465000Y-105151184D01*
X137523989Y-105447743D01*
X137639701Y-105727095D01*
X137807688Y-105978505D01*
X138021495Y-106192312D01*
X138272905Y-106360299D01*
X138340005Y-106388093D01*
X131423600Y-113304499D01*
X131183411Y-113144010D01*
X130913158Y-113032068D01*
X130626260Y-112975000D01*
X130333740Y-112975000D01*
X130046842Y-113032068D01*
X129776589Y-113144010D01*
X129533368Y-113306525D01*
X129326525Y-113513368D01*
X129210000Y-113687760D01*
X129093475Y-113513368D01*
X128886632Y-113306525D01*
X128700000Y-113181822D01*
X128700000Y-101874801D01*
X133829114Y-96745688D01*
X133740000Y-97193692D01*
X133740000Y-97806308D01*
X133859516Y-98407154D01*
X134093954Y-98973137D01*
X134434305Y-99482509D01*
X134867491Y-99915695D01*
X135376863Y-100256046D01*
X135942846Y-100490484D01*
X136543692Y-100610000D01*
X137156308Y-100610000D01*
X137757154Y-100490484D01*
X138323137Y-100256046D01*
X138832509Y-99915695D01*
X139265695Y-99482509D01*
X139606046Y-98973137D01*
X139840484Y-98407154D01*
X139960000Y-97806308D01*
X139960000Y-97193692D01*
X143040000Y-97193692D01*
X143040000Y-97806308D01*
X143159516Y-98407154D01*
X143393954Y-98973137D01*
X143734305Y-99482509D01*
X144167491Y-99915695D01*
X144676863Y-100256046D01*
X145242846Y-100490484D01*
X145843692Y-100610000D01*
X146456308Y-100610000D01*
X147057154Y-100490484D01*
X147623137Y-100256046D01*
X148132509Y-99915695D01*
X148565695Y-99482509D01*
X148906046Y-98973137D01*
X149140484Y-98407154D01*
X149260000Y-97806308D01*
X149260000Y-97193692D01*
X149140484Y-96592846D01*
X148906046Y-96026863D01*
X148565695Y-95517491D01*
X148132509Y-95084305D01*
X147623137Y-94743954D01*
X147057154Y-94509516D01*
X146456308Y-94390000D01*
X145843692Y-94390000D01*
X145242846Y-94509516D01*
X144676863Y-94743954D01*
X144167491Y-95084305D01*
X143734305Y-95517491D01*
X143393954Y-96026863D01*
X143159516Y-96592846D01*
X143040000Y-97193692D01*
X139960000Y-97193692D01*
X139840484Y-96592846D01*
X139606046Y-96026863D01*
X139265695Y-95517491D01*
X138832509Y-95084305D01*
X138323137Y-94743954D01*
X137757154Y-94509516D01*
X137156308Y-94390000D01*
X136543692Y-94390000D01*
X136095688Y-94479114D01*
X138591070Y-91983731D01*
X138848816Y-92035000D01*
X139151184Y-92035000D01*
X139447743Y-91976011D01*
X139727095Y-91860299D01*
X139978505Y-91692312D01*
X140106737Y-91564080D01*
X143115525Y-91564080D01*
X143199208Y-91818261D01*
X143471775Y-91949158D01*
X143764642Y-92024365D01*
X144066553Y-92040991D01*
X144365907Y-91998397D01*
X144651199Y-91898222D01*
X144800792Y-91818261D01*
X144884475Y-91564080D01*
X144000000Y-90679605D01*
X143115525Y-91564080D01*
X140106737Y-91564080D01*
X140192312Y-91478505D01*
X140360299Y-91227095D01*
X140476011Y-90947743D01*
X140535000Y-90651184D01*
X140535000Y-90566553D01*
X142459009Y-90566553D01*
X142501603Y-90865907D01*
X142601778Y-91151199D01*
X142681739Y-91300792D01*
X142935920Y-91384475D01*
X143820395Y-90500000D01*
X144179605Y-90500000D01*
X145064080Y-91384475D01*
X145318261Y-91300792D01*
X145449158Y-91028225D01*
X145524365Y-90735358D01*
X145540991Y-90433447D01*
X145498397Y-90134093D01*
X145398222Y-89848801D01*
X145318261Y-89699208D01*
X145064080Y-89615525D01*
X144179605Y-90500000D01*
X143820395Y-90500000D01*
X142935920Y-89615525D01*
X142681739Y-89699208D01*
X142550842Y-89971775D01*
X142475635Y-90264642D01*
X142459009Y-90566553D01*
X140535000Y-90566553D01*
X140535000Y-90348816D01*
X140476011Y-90052257D01*
X140360299Y-89772905D01*
X140192312Y-89521495D01*
X140106737Y-89435920D01*
X143115525Y-89435920D01*
X144000000Y-90320395D01*
X144884475Y-89435920D01*
X144800792Y-89181739D01*
X144528225Y-89050842D01*
X144235358Y-88975635D01*
X143933447Y-88959009D01*
X143634093Y-89001603D01*
X143348801Y-89101778D01*
X143199208Y-89181739D01*
X143115525Y-89435920D01*
X140106737Y-89435920D01*
X139978505Y-89307688D01*
X139727095Y-89139701D01*
X139447743Y-89023989D01*
X139151184Y-88965000D01*
X138848816Y-88965000D01*
X138552257Y-89023989D01*
X138272905Y-89139701D01*
X138021495Y-89307688D01*
X137807688Y-89521495D01*
X137639701Y-89772905D01*
X137523989Y-90052257D01*
X137465000Y-90348816D01*
X137465000Y-90651184D01*
X137516269Y-90908930D01*
X127429003Y-100996196D01*
X127399999Y-101019999D01*
X127344871Y-101087174D01*
X127305026Y-101135724D01*
X127288354Y-101166915D01*
X127234454Y-101267754D01*
X127190997Y-101411015D01*
X127180000Y-101522668D01*
X127180000Y-101522678D01*
X127176324Y-101560000D01*
X127180000Y-101597322D01*
X127180001Y-113181821D01*
X126993368Y-113306525D01*
X126786525Y-113513368D01*
X126670000Y-113687760D01*
X126553475Y-113513368D01*
X126346632Y-113306525D01*
X126160000Y-113181822D01*
X126160000Y-100264201D01*
X127064802Y-99359400D01*
X127126939Y-99359400D01*
X127326898Y-99319626D01*
X127515256Y-99241605D01*
X127684774Y-99128337D01*
X127828937Y-98984174D01*
X127942205Y-98814656D01*
X128020226Y-98626298D01*
X128060000Y-98426339D01*
X128060000Y-98222461D01*
X128020226Y-98022502D01*
X127942205Y-97834144D01*
X127828937Y-97664626D01*
X127684774Y-97520463D01*
X127515256Y-97407195D01*
X127326898Y-97329174D01*
X127259111Y-97315690D01*
X137508625Y-87066177D01*
X137523088Y-87072168D01*
X137838967Y-87135000D01*
X138161033Y-87135000D01*
X138476912Y-87072168D01*
X138774463Y-86948918D01*
X139042252Y-86769987D01*
X139269987Y-86542252D01*
X139448918Y-86274463D01*
X139572168Y-85976912D01*
X139635000Y-85661033D01*
X139635000Y-85338967D01*
X142865000Y-85338967D01*
X142865000Y-85661033D01*
X142927832Y-85976912D01*
X143051082Y-86274463D01*
X143230013Y-86542252D01*
X143457748Y-86769987D01*
X143725537Y-86948918D01*
X144023088Y-87072168D01*
X144338967Y-87135000D01*
X144661033Y-87135000D01*
X144976912Y-87072168D01*
X145274463Y-86948918D01*
X145542252Y-86769987D01*
X145769987Y-86542252D01*
X145948918Y-86274463D01*
X146072168Y-85976912D01*
X146135000Y-85661033D01*
X146135000Y-85338967D01*
X146072168Y-85023088D01*
X145948918Y-84725537D01*
X145769987Y-84457748D01*
X145542252Y-84230013D01*
X145274463Y-84051082D01*
X144976912Y-83927832D01*
X144661033Y-83865000D01*
X144338967Y-83865000D01*
X144023088Y-83927832D01*
X143725537Y-84051082D01*
X143457748Y-84230013D01*
X143230013Y-84457748D01*
X143051082Y-84725537D01*
X142927832Y-85023088D01*
X142865000Y-85338967D01*
X139635000Y-85338967D01*
X139572168Y-85023088D01*
X139448918Y-84725537D01*
X139269987Y-84457748D01*
X139042252Y-84230013D01*
X138774463Y-84051082D01*
X138476912Y-83927832D01*
X138161033Y-83865000D01*
X137838967Y-83865000D01*
X137523088Y-83927832D01*
X137225537Y-84051082D01*
X136957748Y-84230013D01*
X136730013Y-84457748D01*
X136551082Y-84725537D01*
X136427832Y-85023088D01*
X136365000Y-85338967D01*
X136365000Y-85661033D01*
X136427832Y-85976912D01*
X136433823Y-85991375D01*
X120984303Y-101440896D01*
X120955299Y-101464699D01*
X120917299Y-101511003D01*
X120860326Y-101580424D01*
X120845508Y-101608147D01*
X120789754Y-101712454D01*
X120746297Y-101855715D01*
X120735300Y-101967368D01*
X120735300Y-101967378D01*
X120731624Y-102004700D01*
X120735300Y-102042022D01*
X120735301Y-112625199D01*
X117507500Y-109397399D01*
X117507500Y-106457472D01*
X117552257Y-106476011D01*
X117848816Y-106535000D01*
X118151184Y-106535000D01*
X118447743Y-106476011D01*
X118727095Y-106360299D01*
X118978505Y-106192312D01*
X119192312Y-105978505D01*
X119360299Y-105727095D01*
X119476011Y-105447743D01*
X119535000Y-105151184D01*
X119535000Y-104848816D01*
X119476011Y-104552257D01*
X119360299Y-104272905D01*
X119192312Y-104021495D01*
X118978505Y-103807688D01*
X118727095Y-103639701D01*
X118447743Y-103523989D01*
X118151184Y-103465000D01*
X117848816Y-103465000D01*
X117552257Y-103523989D01*
X117507500Y-103542528D01*
X117507500Y-99143071D01*
X117734305Y-99482509D01*
X118167491Y-99915695D01*
X118676863Y-100256046D01*
X119242846Y-100490484D01*
X119843692Y-100610000D01*
X120456308Y-100610000D01*
X121057154Y-100490484D01*
X121623137Y-100256046D01*
X122132509Y-99915695D01*
X122565695Y-99482509D01*
X122906046Y-98973137D01*
X123140484Y-98407154D01*
X123260000Y-97806308D01*
X123260000Y-97193692D01*
X123140484Y-96592846D01*
X122906046Y-96026863D01*
X122565695Y-95517491D01*
X122132509Y-95084305D01*
X121623137Y-94743954D01*
X121057154Y-94509516D01*
X120456308Y-94390000D01*
X119843692Y-94390000D01*
X119242846Y-94509516D01*
X118676863Y-94743954D01*
X118167491Y-95084305D01*
X117734305Y-95517491D01*
X117507500Y-95856929D01*
X117507500Y-94284822D01*
X117511176Y-94247499D01*
X117507500Y-94210176D01*
X117507500Y-94210167D01*
X117496503Y-94098514D01*
X117453046Y-93955253D01*
X117382474Y-93823224D01*
X117287501Y-93707499D01*
X117258504Y-93683702D01*
X115138882Y-91564080D01*
X117115525Y-91564080D01*
X117199208Y-91818261D01*
X117471775Y-91949158D01*
X117764642Y-92024365D01*
X118066553Y-92040991D01*
X118365907Y-91998397D01*
X118651199Y-91898222D01*
X118800792Y-91818261D01*
X118884475Y-91564080D01*
X118000000Y-90679605D01*
X117115525Y-91564080D01*
X115138882Y-91564080D01*
X114483731Y-90908930D01*
X114535000Y-90651184D01*
X114535000Y-90566553D01*
X116459009Y-90566553D01*
X116501603Y-90865907D01*
X116601778Y-91151199D01*
X116681739Y-91300792D01*
X116935920Y-91384475D01*
X117820395Y-90500000D01*
X118179605Y-90500000D01*
X119064080Y-91384475D01*
X119318261Y-91300792D01*
X119449158Y-91028225D01*
X119524365Y-90735358D01*
X119540991Y-90433447D01*
X119498397Y-90134093D01*
X119398222Y-89848801D01*
X119318261Y-89699208D01*
X119064080Y-89615525D01*
X118179605Y-90500000D01*
X117820395Y-90500000D01*
X116935920Y-89615525D01*
X116681739Y-89699208D01*
X116550842Y-89971775D01*
X116475635Y-90264642D01*
X116459009Y-90566553D01*
X114535000Y-90566553D01*
X114535000Y-90348816D01*
X114476011Y-90052257D01*
X114360299Y-89772905D01*
X114192312Y-89521495D01*
X114106737Y-89435920D01*
X117115525Y-89435920D01*
X118000000Y-90320395D01*
X118884475Y-89435920D01*
X118800792Y-89181739D01*
X118528225Y-89050842D01*
X118235358Y-88975635D01*
X117933447Y-88959009D01*
X117634093Y-89001603D01*
X117348801Y-89101778D01*
X117199208Y-89181739D01*
X117115525Y-89435920D01*
X114106737Y-89435920D01*
X113978505Y-89307688D01*
X113727095Y-89139701D01*
X113447743Y-89023989D01*
X113151184Y-88965000D01*
X112848816Y-88965000D01*
X112552257Y-89023989D01*
X112506400Y-89042984D01*
X112506400Y-87059954D01*
X112774463Y-86948918D01*
X113042252Y-86769987D01*
X113269987Y-86542252D01*
X113448918Y-86274463D01*
X113572168Y-85976912D01*
X113635000Y-85661033D01*
X113635000Y-85338967D01*
X116865000Y-85338967D01*
X116865000Y-85661033D01*
X116927832Y-85976912D01*
X117051082Y-86274463D01*
X117230013Y-86542252D01*
X117457748Y-86769987D01*
X117725537Y-86948918D01*
X118023088Y-87072168D01*
X118338967Y-87135000D01*
X118661033Y-87135000D01*
X118976912Y-87072168D01*
X119274463Y-86948918D01*
X119542252Y-86769987D01*
X119769987Y-86542252D01*
X119948918Y-86274463D01*
X120072168Y-85976912D01*
X120135000Y-85661033D01*
X120135000Y-85338967D01*
X120072168Y-85023088D01*
X119948918Y-84725537D01*
X119769987Y-84457748D01*
X119542252Y-84230013D01*
X119274463Y-84051082D01*
X118976912Y-83927832D01*
X118661033Y-83865000D01*
X118338967Y-83865000D01*
X118023088Y-83927832D01*
X117725537Y-84051082D01*
X117457748Y-84230013D01*
X117230013Y-84457748D01*
X117051082Y-84725537D01*
X116927832Y-85023088D01*
X116865000Y-85338967D01*
X113635000Y-85338967D01*
X113572168Y-85023088D01*
X113448918Y-84725537D01*
X113269987Y-84457748D01*
X113042252Y-84230013D01*
X112774463Y-84051082D01*
X112476912Y-83927832D01*
X112161033Y-83865000D01*
X112131401Y-83865000D01*
X113860988Y-82135413D01*
X117544192Y-82135413D01*
X117639956Y-82399814D01*
X117929571Y-82540704D01*
X118241108Y-82622384D01*
X118562595Y-82641718D01*
X118881675Y-82597961D01*
X119186088Y-82492795D01*
X119360044Y-82399814D01*
X119455808Y-82135413D01*
X137044192Y-82135413D01*
X137139956Y-82399814D01*
X137429571Y-82540704D01*
X137741108Y-82622384D01*
X138062595Y-82641718D01*
X138381675Y-82597961D01*
X138686088Y-82492795D01*
X138860044Y-82399814D01*
X138955808Y-82135413D01*
X143544192Y-82135413D01*
X143639956Y-82399814D01*
X143929571Y-82540704D01*
X144241108Y-82622384D01*
X144562595Y-82641718D01*
X144881675Y-82597961D01*
X145186088Y-82492795D01*
X145360044Y-82399814D01*
X145455808Y-82135413D01*
X163044192Y-82135413D01*
X163139956Y-82399814D01*
X163429571Y-82540704D01*
X163741108Y-82622384D01*
X164062595Y-82641718D01*
X164381675Y-82597961D01*
X164686088Y-82492795D01*
X164860044Y-82399814D01*
X164955808Y-82135413D01*
X169544192Y-82135413D01*
X169639956Y-82399814D01*
X169929571Y-82540704D01*
X170241108Y-82622384D01*
X170562595Y-82641718D01*
X170881675Y-82597961D01*
X171186088Y-82492795D01*
X171360044Y-82399814D01*
X171455808Y-82135413D01*
X170500000Y-81179605D01*
X169544192Y-82135413D01*
X164955808Y-82135413D01*
X164000000Y-81179605D01*
X163044192Y-82135413D01*
X145455808Y-82135413D01*
X144500000Y-81179605D01*
X143544192Y-82135413D01*
X138955808Y-82135413D01*
X138000000Y-81179605D01*
X137044192Y-82135413D01*
X119455808Y-82135413D01*
X118500000Y-81179605D01*
X117544192Y-82135413D01*
X113860988Y-82135413D01*
X114933806Y-81062595D01*
X116858282Y-81062595D01*
X116902039Y-81381675D01*
X117007205Y-81686088D01*
X117100186Y-81860044D01*
X117364587Y-81955808D01*
X118320395Y-81000000D01*
X118679605Y-81000000D01*
X119635413Y-81955808D01*
X119899814Y-81860044D01*
X120040704Y-81570429D01*
X120122384Y-81258892D01*
X120134189Y-81062595D01*
X136358282Y-81062595D01*
X136402039Y-81381675D01*
X136507205Y-81686088D01*
X136600186Y-81860044D01*
X136864587Y-81955808D01*
X137820395Y-81000000D01*
X138179605Y-81000000D01*
X139135413Y-81955808D01*
X139399814Y-81860044D01*
X139540704Y-81570429D01*
X139622384Y-81258892D01*
X139634189Y-81062595D01*
X142858282Y-81062595D01*
X142902039Y-81381675D01*
X143007205Y-81686088D01*
X143100186Y-81860044D01*
X143364587Y-81955808D01*
X144320395Y-81000000D01*
X144679605Y-81000000D01*
X145635413Y-81955808D01*
X145899814Y-81860044D01*
X146040704Y-81570429D01*
X146122384Y-81258892D01*
X146134189Y-81062595D01*
X162358282Y-81062595D01*
X162402039Y-81381675D01*
X162507205Y-81686088D01*
X162600186Y-81860044D01*
X162864587Y-81955808D01*
X163820395Y-81000000D01*
X164179605Y-81000000D01*
X165135413Y-81955808D01*
X165399814Y-81860044D01*
X165540704Y-81570429D01*
X165622384Y-81258892D01*
X165634189Y-81062595D01*
X168858282Y-81062595D01*
X168902039Y-81381675D01*
X169007205Y-81686088D01*
X169100186Y-81860044D01*
X169364587Y-81955808D01*
X170320395Y-81000000D01*
X170679605Y-81000000D01*
X171635413Y-81955808D01*
X171899814Y-81860044D01*
X172040704Y-81570429D01*
X172122384Y-81258892D01*
X172141718Y-80937405D01*
X172097961Y-80618325D01*
X171992795Y-80313912D01*
X171899814Y-80139956D01*
X171635413Y-80044192D01*
X170679605Y-81000000D01*
X170320395Y-81000000D01*
X169364587Y-80044192D01*
X169100186Y-80139956D01*
X168959296Y-80429571D01*
X168877616Y-80741108D01*
X168858282Y-81062595D01*
X165634189Y-81062595D01*
X165641718Y-80937405D01*
X165597961Y-80618325D01*
X165492795Y-80313912D01*
X165399814Y-80139956D01*
X165135413Y-80044192D01*
X164179605Y-81000000D01*
X163820395Y-81000000D01*
X162864587Y-80044192D01*
X162600186Y-80139956D01*
X162459296Y-80429571D01*
X162377616Y-80741108D01*
X162358282Y-81062595D01*
X146134189Y-81062595D01*
X146141718Y-80937405D01*
X146097961Y-80618325D01*
X145992795Y-80313912D01*
X145899814Y-80139956D01*
X145635413Y-80044192D01*
X144679605Y-81000000D01*
X144320395Y-81000000D01*
X143364587Y-80044192D01*
X143100186Y-80139956D01*
X142959296Y-80429571D01*
X142877616Y-80741108D01*
X142858282Y-81062595D01*
X139634189Y-81062595D01*
X139641718Y-80937405D01*
X139597961Y-80618325D01*
X139492795Y-80313912D01*
X139399814Y-80139956D01*
X139135413Y-80044192D01*
X138179605Y-81000000D01*
X137820395Y-81000000D01*
X136864587Y-80044192D01*
X136600186Y-80139956D01*
X136459296Y-80429571D01*
X136377616Y-80741108D01*
X136358282Y-81062595D01*
X120134189Y-81062595D01*
X120141718Y-80937405D01*
X120097961Y-80618325D01*
X119992795Y-80313912D01*
X119899814Y-80139956D01*
X119635413Y-80044192D01*
X118679605Y-81000000D01*
X118320395Y-81000000D01*
X117364587Y-80044192D01*
X117100186Y-80139956D01*
X116959296Y-80429571D01*
X116877616Y-80741108D01*
X116858282Y-81062595D01*
X114933806Y-81062595D01*
X116131814Y-79864587D01*
X117544192Y-79864587D01*
X118500000Y-80820395D01*
X119455808Y-79864587D01*
X137044192Y-79864587D01*
X138000000Y-80820395D01*
X138955808Y-79864587D01*
X143544192Y-79864587D01*
X144500000Y-80820395D01*
X145455808Y-79864587D01*
X163044192Y-79864587D01*
X164000000Y-80820395D01*
X164955808Y-79864587D01*
X169544192Y-79864587D01*
X170500000Y-80820395D01*
X171455808Y-79864587D01*
X171360044Y-79600186D01*
X171070429Y-79459296D01*
X170758892Y-79377616D01*
X170437405Y-79358282D01*
X170118325Y-79402039D01*
X169813912Y-79507205D01*
X169639956Y-79600186D01*
X169544192Y-79864587D01*
X164955808Y-79864587D01*
X164860044Y-79600186D01*
X164570429Y-79459296D01*
X164258892Y-79377616D01*
X163937405Y-79358282D01*
X163618325Y-79402039D01*
X163313912Y-79507205D01*
X163139956Y-79600186D01*
X163044192Y-79864587D01*
X145455808Y-79864587D01*
X145360044Y-79600186D01*
X145070429Y-79459296D01*
X144758892Y-79377616D01*
X144437405Y-79358282D01*
X144118325Y-79402039D01*
X143813912Y-79507205D01*
X143639956Y-79600186D01*
X143544192Y-79864587D01*
X138955808Y-79864587D01*
X138860044Y-79600186D01*
X138570429Y-79459296D01*
X138258892Y-79377616D01*
X137937405Y-79358282D01*
X137618325Y-79402039D01*
X137313912Y-79507205D01*
X137139956Y-79600186D01*
X137044192Y-79864587D01*
X119455808Y-79864587D01*
X119360044Y-79600186D01*
X119070429Y-79459296D01*
X118758892Y-79377616D01*
X118437405Y-79358282D01*
X118118325Y-79402039D01*
X117813912Y-79507205D01*
X117639956Y-79600186D01*
X117544192Y-79864587D01*
X116131814Y-79864587D01*
X118664103Y-77332299D01*
X118693101Y-77308501D01*
X118788074Y-77192776D01*
X118858646Y-77060747D01*
X118902103Y-76917486D01*
X118913100Y-76805833D01*
X118913100Y-76805824D01*
X118916776Y-76768501D01*
X118913100Y-76731178D01*
X118913100Y-74900000D01*
X138461928Y-74900000D01*
X138474188Y-75024482D01*
X138510498Y-75144180D01*
X138569463Y-75254494D01*
X138648815Y-75351185D01*
X138745506Y-75430537D01*
X138855820Y-75489502D01*
X138975518Y-75525812D01*
X139100000Y-75538072D01*
X139714250Y-75535000D01*
X139873000Y-75376250D01*
X139873000Y-74127000D01*
X138623750Y-74127000D01*
X138465000Y-74285750D01*
X138461928Y-74900000D01*
X118913100Y-74900000D01*
X118913100Y-73100000D01*
X138461928Y-73100000D01*
X138465000Y-73714250D01*
X138623750Y-73873000D01*
X139873000Y-73873000D01*
X139873000Y-72623750D01*
X140127000Y-72623750D01*
X140127000Y-73873000D01*
X140147000Y-73873000D01*
X140147000Y-74127000D01*
X140127000Y-74127000D01*
X140127000Y-75376250D01*
X140285750Y-75535000D01*
X140900000Y-75538072D01*
X141024482Y-75525812D01*
X141144180Y-75489502D01*
X141254494Y-75430537D01*
X141351185Y-75351185D01*
X141430537Y-75254494D01*
X141489502Y-75144180D01*
X141495056Y-75125873D01*
X141561495Y-75192312D01*
X141812905Y-75360299D01*
X142092257Y-75476011D01*
X142388816Y-75535000D01*
X142691184Y-75535000D01*
X142987743Y-75476011D01*
X143267095Y-75360299D01*
X143518505Y-75192312D01*
X143732312Y-74978505D01*
X143784767Y-74900000D01*
X164461928Y-74900000D01*
X164474188Y-75024482D01*
X164510498Y-75144180D01*
X164569463Y-75254494D01*
X164648815Y-75351185D01*
X164745506Y-75430537D01*
X164855820Y-75489502D01*
X164975518Y-75525812D01*
X165100000Y-75538072D01*
X165714250Y-75535000D01*
X165873000Y-75376250D01*
X165873000Y-74127000D01*
X164623750Y-74127000D01*
X164465000Y-74285750D01*
X164461928Y-74900000D01*
X143784767Y-74900000D01*
X143900299Y-74727095D01*
X144016011Y-74447743D01*
X144075000Y-74151184D01*
X144075000Y-73848816D01*
X144016011Y-73552257D01*
X143900299Y-73272905D01*
X143784768Y-73100000D01*
X164461928Y-73100000D01*
X164465000Y-73714250D01*
X164623750Y-73873000D01*
X165873000Y-73873000D01*
X165873000Y-72623750D01*
X166127000Y-72623750D01*
X166127000Y-73873000D01*
X166147000Y-73873000D01*
X166147000Y-74127000D01*
X166127000Y-74127000D01*
X166127000Y-75376250D01*
X166285750Y-75535000D01*
X166900000Y-75538072D01*
X167024482Y-75525812D01*
X167144180Y-75489502D01*
X167254494Y-75430537D01*
X167351185Y-75351185D01*
X167430537Y-75254494D01*
X167489502Y-75144180D01*
X167495056Y-75125873D01*
X167561495Y-75192312D01*
X167812905Y-75360299D01*
X168092257Y-75476011D01*
X168388816Y-75535000D01*
X168691184Y-75535000D01*
X168987743Y-75476011D01*
X169267095Y-75360299D01*
X169518505Y-75192312D01*
X169732312Y-74978505D01*
X169900299Y-74727095D01*
X170016011Y-74447743D01*
X170075000Y-74151184D01*
X170075000Y-73848816D01*
X170016011Y-73552257D01*
X169900299Y-73272905D01*
X169732312Y-73021495D01*
X169518505Y-72807688D01*
X169267095Y-72639701D01*
X168987743Y-72523989D01*
X168691184Y-72465000D01*
X168388816Y-72465000D01*
X168092257Y-72523989D01*
X167812905Y-72639701D01*
X167561495Y-72807688D01*
X167495056Y-72874127D01*
X167489502Y-72855820D01*
X167430537Y-72745506D01*
X167351185Y-72648815D01*
X167254494Y-72569463D01*
X167144180Y-72510498D01*
X167024482Y-72474188D01*
X166900000Y-72461928D01*
X166285750Y-72465000D01*
X166127000Y-72623750D01*
X165873000Y-72623750D01*
X165714250Y-72465000D01*
X165100000Y-72461928D01*
X164975518Y-72474188D01*
X164855820Y-72510498D01*
X164745506Y-72569463D01*
X164648815Y-72648815D01*
X164569463Y-72745506D01*
X164510498Y-72855820D01*
X164474188Y-72975518D01*
X164461928Y-73100000D01*
X143784768Y-73100000D01*
X143732312Y-73021495D01*
X143518505Y-72807688D01*
X143267095Y-72639701D01*
X142987743Y-72523989D01*
X142691184Y-72465000D01*
X142388816Y-72465000D01*
X142092257Y-72523989D01*
X141812905Y-72639701D01*
X141561495Y-72807688D01*
X141495056Y-72874127D01*
X141489502Y-72855820D01*
X141430537Y-72745506D01*
X141351185Y-72648815D01*
X141254494Y-72569463D01*
X141144180Y-72510498D01*
X141024482Y-72474188D01*
X140900000Y-72461928D01*
X140285750Y-72465000D01*
X140127000Y-72623750D01*
X139873000Y-72623750D01*
X139714250Y-72465000D01*
X139100000Y-72461928D01*
X138975518Y-72474188D01*
X138855820Y-72510498D01*
X138745506Y-72569463D01*
X138648815Y-72648815D01*
X138569463Y-72745506D01*
X138510498Y-72855820D01*
X138474188Y-72975518D01*
X138461928Y-73100000D01*
X118913100Y-73100000D01*
X118913100Y-72725411D01*
X118957037Y-72681474D01*
X119070305Y-72511956D01*
X119148326Y-72323598D01*
X119188100Y-72123639D01*
X119188100Y-71919761D01*
X119148326Y-71719802D01*
X119070305Y-71531444D01*
X118957037Y-71361926D01*
X118812874Y-71217763D01*
X118643356Y-71104495D01*
X118454998Y-71026474D01*
X118255039Y-70986700D01*
X118051161Y-70986700D01*
X117851202Y-71026474D01*
X117662844Y-71104495D01*
X117493326Y-71217763D01*
X117349163Y-71361926D01*
X117235895Y-71531444D01*
X117157874Y-71719802D01*
X117118100Y-71919761D01*
X117118100Y-72123639D01*
X117157874Y-72323598D01*
X117235895Y-72511956D01*
X117349163Y-72681474D01*
X117388531Y-72720842D01*
X117267095Y-72639701D01*
X116987743Y-72523989D01*
X116691184Y-72465000D01*
X116388816Y-72465000D01*
X116092257Y-72523989D01*
X115812905Y-72639701D01*
X115561495Y-72807688D01*
X115495056Y-72874127D01*
X115489502Y-72855820D01*
X115430537Y-72745506D01*
X115351185Y-72648815D01*
X115254494Y-72569463D01*
X115144180Y-72510498D01*
X115024482Y-72474188D01*
X114900000Y-72461928D01*
X114285750Y-72465000D01*
X114127000Y-72623750D01*
X114127000Y-73873000D01*
X114147000Y-73873000D01*
X114147000Y-74127000D01*
X114127000Y-74127000D01*
X114127000Y-75376250D01*
X114285750Y-75535000D01*
X114900000Y-75538072D01*
X115024482Y-75525812D01*
X115144180Y-75489502D01*
X115254494Y-75430537D01*
X115351185Y-75351185D01*
X115430537Y-75254494D01*
X115489502Y-75144180D01*
X115495056Y-75125873D01*
X115561495Y-75192312D01*
X115812905Y-75360299D01*
X116092257Y-75476011D01*
X116388816Y-75535000D01*
X116691184Y-75535000D01*
X116987743Y-75476011D01*
X117267095Y-75360299D01*
X117393101Y-75276105D01*
X117393101Y-76453697D01*
X113503089Y-80343709D01*
X113492795Y-80313912D01*
X113399814Y-80139956D01*
X113135413Y-80044192D01*
X112179605Y-81000000D01*
X112193748Y-81014143D01*
X112014143Y-81193748D01*
X112000000Y-81179605D01*
X111044192Y-82135413D01*
X111139956Y-82399814D01*
X111346504Y-82500294D01*
X105414403Y-88432396D01*
X105385399Y-88456199D01*
X105330271Y-88523374D01*
X105290426Y-88571924D01*
X105219855Y-88703953D01*
X105219854Y-88703954D01*
X105176397Y-88847215D01*
X105165400Y-88958868D01*
X105165400Y-88958878D01*
X105161724Y-88996200D01*
X105165400Y-89033523D01*
X105165401Y-93216468D01*
X105161724Y-93253800D01*
X105165401Y-93291133D01*
X105172840Y-93366656D01*
X105176398Y-93402785D01*
X105219854Y-93546046D01*
X105290426Y-93678076D01*
X105361601Y-93764802D01*
X105385400Y-93793801D01*
X105414398Y-93817599D01*
X105495300Y-93898501D01*
X105495301Y-113028516D01*
X105226260Y-112975000D01*
X104933740Y-112975000D01*
X104646842Y-113032068D01*
X104570000Y-113063897D01*
X104570000Y-96847322D01*
X104573676Y-96809999D01*
X104570000Y-96772676D01*
X104570000Y-96772667D01*
X104559003Y-96661014D01*
X104515546Y-96517753D01*
X104444974Y-96385724D01*
X104431811Y-96369685D01*
X104373799Y-96298996D01*
X104373795Y-96298992D01*
X104350001Y-96269999D01*
X104321010Y-96246207D01*
X94066177Y-85991376D01*
X94072168Y-85976912D01*
X94135000Y-85661033D01*
X94135000Y-85338967D01*
X94072168Y-85023088D01*
X93948918Y-84725537D01*
X93769987Y-84457748D01*
X93542252Y-84230013D01*
X93274463Y-84051082D01*
X92976912Y-83927832D01*
X92661033Y-83865000D01*
X92338967Y-83865000D01*
X92023088Y-83927832D01*
X91725537Y-84051082D01*
X91457748Y-84230013D01*
X91230013Y-84457748D01*
X91051082Y-84725537D01*
X90927832Y-85023088D01*
X90865000Y-85338967D01*
X90865000Y-85661033D01*
X90927832Y-85976912D01*
X91051082Y-86274463D01*
X91230013Y-86542252D01*
X91457748Y-86769987D01*
X91725537Y-86948918D01*
X92023088Y-87072168D01*
X92338967Y-87135000D01*
X92661033Y-87135000D01*
X92976912Y-87072168D01*
X92991376Y-87066177D01*
X103050000Y-97124803D01*
X103050001Y-113065986D01*
X103044099Y-113063175D01*
X102896890Y-113018524D01*
X102667000Y-113139845D01*
X102667000Y-114333000D01*
X102687000Y-114333000D01*
X102687000Y-114587000D01*
X102667000Y-114587000D01*
X102667000Y-114607000D01*
X102413000Y-114607000D01*
X102413000Y-114587000D01*
X102393000Y-114587000D01*
X102393000Y-114333000D01*
X102413000Y-114333000D01*
X102413000Y-113139845D01*
X102183110Y-113018524D01*
X102035901Y-113063175D01*
X101773080Y-113188359D01*
X101539731Y-113362412D01*
X101344822Y-113578645D01*
X101275195Y-113695534D01*
X101153475Y-113513368D01*
X100946632Y-113306525D01*
X100703411Y-113144010D01*
X100433158Y-113032068D01*
X100146260Y-112975000D01*
X99853740Y-112975000D01*
X99566842Y-113032068D01*
X99296589Y-113144010D01*
X99053368Y-113306525D01*
X98846525Y-113513368D01*
X98684010Y-113756589D01*
X98572068Y-114026842D01*
X98515000Y-114313740D01*
X98515000Y-114606260D01*
X98572068Y-114893158D01*
X98684010Y-115163411D01*
X98846525Y-115406632D01*
X98978380Y-115538487D01*
X98905820Y-115560498D01*
X98795506Y-115619463D01*
X98698815Y-115698815D01*
X98653515Y-115754013D01*
X89433145Y-106533644D01*
X89566553Y-106540991D01*
X89865907Y-106498397D01*
X90151199Y-106398222D01*
X90300792Y-106318261D01*
X90384475Y-106064080D01*
X89500000Y-105179605D01*
X89485858Y-105193748D01*
X89306253Y-105014143D01*
X89320395Y-105000000D01*
X89679605Y-105000000D01*
X90564080Y-105884475D01*
X90712262Y-105835690D01*
X90807688Y-105978505D01*
X91021495Y-106192312D01*
X91272905Y-106360299D01*
X91552257Y-106476011D01*
X91848816Y-106535000D01*
X92151184Y-106535000D01*
X92447743Y-106476011D01*
X92727095Y-106360299D01*
X92978505Y-106192312D01*
X93192312Y-105978505D01*
X93360299Y-105727095D01*
X93476011Y-105447743D01*
X93535000Y-105151184D01*
X93535000Y-104848816D01*
X93476011Y-104552257D01*
X93360299Y-104272905D01*
X93192312Y-104021495D01*
X92978505Y-103807688D01*
X92727095Y-103639701D01*
X92447743Y-103523989D01*
X92151184Y-103465000D01*
X91848816Y-103465000D01*
X91552257Y-103523989D01*
X91272905Y-103639701D01*
X91021495Y-103807688D01*
X90807688Y-104021495D01*
X90712262Y-104164310D01*
X90564080Y-104115525D01*
X89679605Y-105000000D01*
X89320395Y-105000000D01*
X89306253Y-104985858D01*
X89485858Y-104806253D01*
X89500000Y-104820395D01*
X90384475Y-103935920D01*
X90300792Y-103681739D01*
X90028225Y-103550842D01*
X89735358Y-103475635D01*
X89433447Y-103459009D01*
X89134093Y-103501603D01*
X88848801Y-103601778D01*
X88699208Y-103681739D01*
X88647277Y-103839475D01*
X85612704Y-100804903D01*
X85588901Y-100775899D01*
X85473176Y-100680926D01*
X85341147Y-100610354D01*
X85267239Y-100587934D01*
X85757154Y-100490484D01*
X86323137Y-100256046D01*
X86832509Y-99915695D01*
X87265695Y-99482509D01*
X87606046Y-98973137D01*
X87840484Y-98407154D01*
X87960000Y-97806308D01*
X87960000Y-97193692D01*
X91040000Y-97193692D01*
X91040000Y-97806308D01*
X91159516Y-98407154D01*
X91393954Y-98973137D01*
X91734305Y-99482509D01*
X92167491Y-99915695D01*
X92676863Y-100256046D01*
X93242846Y-100490484D01*
X93843692Y-100610000D01*
X94456308Y-100610000D01*
X95057154Y-100490484D01*
X95623137Y-100256046D01*
X96132509Y-99915695D01*
X96565695Y-99482509D01*
X96906046Y-98973137D01*
X97140484Y-98407154D01*
X97260000Y-97806308D01*
X97260000Y-97193692D01*
X97140484Y-96592846D01*
X96906046Y-96026863D01*
X96565695Y-95517491D01*
X96132509Y-95084305D01*
X95623137Y-94743954D01*
X95057154Y-94509516D01*
X94456308Y-94390000D01*
X93843692Y-94390000D01*
X93242846Y-94509516D01*
X92676863Y-94743954D01*
X92167491Y-95084305D01*
X91734305Y-95517491D01*
X91393954Y-96026863D01*
X91159516Y-96592846D01*
X91040000Y-97193692D01*
X87960000Y-97193692D01*
X87840484Y-96592846D01*
X87606046Y-96026863D01*
X87265695Y-95517491D01*
X86832509Y-95084305D01*
X86323137Y-94743954D01*
X85757154Y-94509516D01*
X85156308Y-94390000D01*
X84543692Y-94390000D01*
X83942846Y-94509516D01*
X83376863Y-94743954D01*
X82867491Y-95084305D01*
X82434305Y-95517491D01*
X82093954Y-96026863D01*
X81859516Y-96592846D01*
X81740000Y-97193692D01*
X81740000Y-97277998D01*
X78222500Y-93760499D01*
X78222500Y-90348816D01*
X85465000Y-90348816D01*
X85465000Y-90651184D01*
X85523989Y-90947743D01*
X85639701Y-91227095D01*
X85807688Y-91478505D01*
X86021495Y-91692312D01*
X86272905Y-91860299D01*
X86552257Y-91976011D01*
X86848816Y-92035000D01*
X87151184Y-92035000D01*
X87447743Y-91976011D01*
X87727095Y-91860299D01*
X87978505Y-91692312D01*
X88106737Y-91564080D01*
X91115525Y-91564080D01*
X91199208Y-91818261D01*
X91471775Y-91949158D01*
X91764642Y-92024365D01*
X92066553Y-92040991D01*
X92365907Y-91998397D01*
X92651199Y-91898222D01*
X92800792Y-91818261D01*
X92884475Y-91564080D01*
X92000000Y-90679605D01*
X91115525Y-91564080D01*
X88106737Y-91564080D01*
X88192312Y-91478505D01*
X88360299Y-91227095D01*
X88476011Y-90947743D01*
X88535000Y-90651184D01*
X88535000Y-90566553D01*
X90459009Y-90566553D01*
X90501603Y-90865907D01*
X90601778Y-91151199D01*
X90681739Y-91300792D01*
X90935920Y-91384475D01*
X91820395Y-90500000D01*
X92179605Y-90500000D01*
X93064080Y-91384475D01*
X93318261Y-91300792D01*
X93449158Y-91028225D01*
X93524365Y-90735358D01*
X93540991Y-90433447D01*
X93498397Y-90134093D01*
X93398222Y-89848801D01*
X93318261Y-89699208D01*
X93064080Y-89615525D01*
X92179605Y-90500000D01*
X91820395Y-90500000D01*
X90935920Y-89615525D01*
X90681739Y-89699208D01*
X90550842Y-89971775D01*
X90475635Y-90264642D01*
X90459009Y-90566553D01*
X88535000Y-90566553D01*
X88535000Y-90348816D01*
X88476011Y-90052257D01*
X88360299Y-89772905D01*
X88192312Y-89521495D01*
X88106737Y-89435920D01*
X91115525Y-89435920D01*
X92000000Y-90320395D01*
X92884475Y-89435920D01*
X92800792Y-89181739D01*
X92528225Y-89050842D01*
X92235358Y-88975635D01*
X91933447Y-88959009D01*
X91634093Y-89001603D01*
X91348801Y-89101778D01*
X91199208Y-89181739D01*
X91115525Y-89435920D01*
X88106737Y-89435920D01*
X87978505Y-89307688D01*
X87727095Y-89139701D01*
X87447743Y-89023989D01*
X87151184Y-88965000D01*
X86848816Y-88965000D01*
X86552257Y-89023989D01*
X86272905Y-89139701D01*
X86021495Y-89307688D01*
X85807688Y-89521495D01*
X85639701Y-89772905D01*
X85523989Y-90052257D01*
X85465000Y-90348816D01*
X78222500Y-90348816D01*
X78222500Y-85741211D01*
X78266437Y-85697274D01*
X78379705Y-85527756D01*
X78457726Y-85339398D01*
X78457811Y-85338967D01*
X84365000Y-85338967D01*
X84365000Y-85661033D01*
X84427832Y-85976912D01*
X84551082Y-86274463D01*
X84730013Y-86542252D01*
X84957748Y-86769987D01*
X85225537Y-86948918D01*
X85523088Y-87072168D01*
X85838967Y-87135000D01*
X86161033Y-87135000D01*
X86476912Y-87072168D01*
X86774463Y-86948918D01*
X87042252Y-86769987D01*
X87269987Y-86542252D01*
X87448918Y-86274463D01*
X87572168Y-85976912D01*
X87635000Y-85661033D01*
X87635000Y-85338967D01*
X87572168Y-85023088D01*
X87448918Y-84725537D01*
X87269987Y-84457748D01*
X87042252Y-84230013D01*
X86774463Y-84051082D01*
X86476912Y-83927832D01*
X86161033Y-83865000D01*
X85838967Y-83865000D01*
X85523088Y-83927832D01*
X85225537Y-84051082D01*
X84957748Y-84230013D01*
X84730013Y-84457748D01*
X84551082Y-84725537D01*
X84427832Y-85023088D01*
X84365000Y-85338967D01*
X78457811Y-85338967D01*
X78497500Y-85139439D01*
X78497500Y-84935561D01*
X78457726Y-84735602D01*
X78379705Y-84547244D01*
X78266437Y-84377726D01*
X78222500Y-84333789D01*
X78222500Y-82744722D01*
X78226176Y-82707399D01*
X78222500Y-82670076D01*
X78222500Y-82670067D01*
X78211503Y-82558414D01*
X78168046Y-82415153D01*
X78159847Y-82399814D01*
X78097474Y-82283123D01*
X78026299Y-82196397D01*
X78002501Y-82167399D01*
X77973503Y-82143601D01*
X77965315Y-82135413D01*
X85044192Y-82135413D01*
X85139956Y-82399814D01*
X85429571Y-82540704D01*
X85741108Y-82622384D01*
X86062595Y-82641718D01*
X86381675Y-82597961D01*
X86686088Y-82492795D01*
X86860044Y-82399814D01*
X86955808Y-82135413D01*
X91544192Y-82135413D01*
X91639956Y-82399814D01*
X91929571Y-82540704D01*
X92241108Y-82622384D01*
X92562595Y-82641718D01*
X92881675Y-82597961D01*
X93186088Y-82492795D01*
X93360044Y-82399814D01*
X93455808Y-82135413D01*
X92500000Y-81179605D01*
X91544192Y-82135413D01*
X86955808Y-82135413D01*
X86000000Y-81179605D01*
X85044192Y-82135413D01*
X77965315Y-82135413D01*
X76892497Y-81062595D01*
X84358282Y-81062595D01*
X84402039Y-81381675D01*
X84507205Y-81686088D01*
X84600186Y-81860044D01*
X84864587Y-81955808D01*
X85820395Y-81000000D01*
X86179605Y-81000000D01*
X87135413Y-81955808D01*
X87399814Y-81860044D01*
X87540704Y-81570429D01*
X87622384Y-81258892D01*
X87634189Y-81062595D01*
X90858282Y-81062595D01*
X90902039Y-81381675D01*
X91007205Y-81686088D01*
X91100186Y-81860044D01*
X91364587Y-81955808D01*
X92320395Y-81000000D01*
X92679605Y-81000000D01*
X93635413Y-81955808D01*
X93899814Y-81860044D01*
X94040704Y-81570429D01*
X94122384Y-81258892D01*
X94134189Y-81062595D01*
X110358282Y-81062595D01*
X110402039Y-81381675D01*
X110507205Y-81686088D01*
X110600186Y-81860044D01*
X110864587Y-81955808D01*
X111820395Y-81000000D01*
X110864587Y-80044192D01*
X110600186Y-80139956D01*
X110459296Y-80429571D01*
X110377616Y-80741108D01*
X110358282Y-81062595D01*
X94134189Y-81062595D01*
X94141718Y-80937405D01*
X94097961Y-80618325D01*
X93992795Y-80313912D01*
X93899814Y-80139956D01*
X93635413Y-80044192D01*
X92679605Y-81000000D01*
X92320395Y-81000000D01*
X91364587Y-80044192D01*
X91100186Y-80139956D01*
X90959296Y-80429571D01*
X90877616Y-80741108D01*
X90858282Y-81062595D01*
X87634189Y-81062595D01*
X87641718Y-80937405D01*
X87597961Y-80618325D01*
X87492795Y-80313912D01*
X87399814Y-80139956D01*
X87135413Y-80044192D01*
X86179605Y-81000000D01*
X85820395Y-81000000D01*
X84864587Y-80044192D01*
X84600186Y-80139956D01*
X84459296Y-80429571D01*
X84377616Y-80741108D01*
X84358282Y-81062595D01*
X76892497Y-81062595D01*
X75694489Y-79864587D01*
X85044192Y-79864587D01*
X86000000Y-80820395D01*
X86955808Y-79864587D01*
X91544192Y-79864587D01*
X92500000Y-80820395D01*
X93455808Y-79864587D01*
X111044192Y-79864587D01*
X112000000Y-80820395D01*
X112955808Y-79864587D01*
X112860044Y-79600186D01*
X112570429Y-79459296D01*
X112258892Y-79377616D01*
X111937405Y-79358282D01*
X111618325Y-79402039D01*
X111313912Y-79507205D01*
X111139956Y-79600186D01*
X111044192Y-79864587D01*
X93455808Y-79864587D01*
X93360044Y-79600186D01*
X93070429Y-79459296D01*
X92758892Y-79377616D01*
X92437405Y-79358282D01*
X92118325Y-79402039D01*
X91813912Y-79507205D01*
X91639956Y-79600186D01*
X91544192Y-79864587D01*
X86955808Y-79864587D01*
X86860044Y-79600186D01*
X86570429Y-79459296D01*
X86258892Y-79377616D01*
X85937405Y-79358282D01*
X85618325Y-79402039D01*
X85313912Y-79507205D01*
X85139956Y-79600186D01*
X85044192Y-79864587D01*
X75694489Y-79864587D01*
X75400100Y-79570199D01*
X75400100Y-79508061D01*
X75360326Y-79308102D01*
X75282305Y-79119744D01*
X75169037Y-78950226D01*
X75024874Y-78806063D01*
X74855356Y-78692795D01*
X74666998Y-78614774D01*
X74467039Y-78575000D01*
X74263161Y-78575000D01*
X74063202Y-78614774D01*
X73874844Y-78692795D01*
X73705326Y-78806063D01*
X73561163Y-78950226D01*
X73447895Y-79119744D01*
X73369874Y-79308102D01*
X73330100Y-79508061D01*
X73330100Y-79711939D01*
X73369874Y-79911898D01*
X73447895Y-80100256D01*
X73561163Y-80269774D01*
X73705326Y-80413937D01*
X73874844Y-80527205D01*
X74063202Y-80605226D01*
X74263161Y-80645000D01*
X74325299Y-80645000D01*
X76702501Y-83022203D01*
X76702500Y-84333789D01*
X76658563Y-84377726D01*
X76545295Y-84547244D01*
X76467274Y-84735602D01*
X76427500Y-84935561D01*
X76427500Y-85139439D01*
X76467274Y-85339398D01*
X76545295Y-85527756D01*
X76658563Y-85697274D01*
X76702501Y-85741212D01*
X76702500Y-91841400D01*
X76635261Y-91841400D01*
X76435302Y-91881174D01*
X76246944Y-91959195D01*
X76077426Y-92072463D01*
X75933263Y-92216626D01*
X75819995Y-92386144D01*
X75741974Y-92574502D01*
X75702200Y-92774461D01*
X75702200Y-92978339D01*
X75741974Y-93178298D01*
X75819995Y-93366656D01*
X75933263Y-93536174D01*
X75977201Y-93580112D01*
X75977200Y-94824199D01*
X67732620Y-86579619D01*
X67769987Y-86542252D01*
X67948918Y-86274463D01*
X68072168Y-85976912D01*
X68135000Y-85661033D01*
X68135000Y-85338967D01*
X68072168Y-85023088D01*
X67948918Y-84725537D01*
X67769987Y-84457748D01*
X67542252Y-84230013D01*
X67274463Y-84051082D01*
X66976912Y-83927832D01*
X66661033Y-83865000D01*
X66338967Y-83865000D01*
X66023088Y-83927832D01*
X65725537Y-84051082D01*
X65457748Y-84230013D01*
X65230013Y-84457748D01*
X65051082Y-84725537D01*
X64927832Y-85023088D01*
X64865000Y-85338967D01*
X61635000Y-85338967D01*
X61572168Y-85023088D01*
X61448918Y-84725537D01*
X61269987Y-84457748D01*
X61042252Y-84230013D01*
X60774463Y-84051082D01*
X60476912Y-83927832D01*
X60161033Y-83865000D01*
X59838967Y-83865000D01*
X59523088Y-83927832D01*
X59225537Y-84051082D01*
X58957748Y-84230013D01*
X58730013Y-84457748D01*
X58551082Y-84725537D01*
X58427832Y-85023088D01*
X58365000Y-85338967D01*
X54237577Y-85338967D01*
X54367716Y-85144201D01*
X54470236Y-84896697D01*
X54522500Y-84633948D01*
X54522500Y-84366052D01*
X54470236Y-84103303D01*
X54367716Y-83855799D01*
X54218881Y-83633051D01*
X54029449Y-83443619D01*
X53806701Y-83294784D01*
X53559197Y-83192264D01*
X53296448Y-83140000D01*
X53028552Y-83140000D01*
X52765803Y-83192264D01*
X52518299Y-83294784D01*
X52295551Y-83443619D01*
X52106119Y-83633051D01*
X51957284Y-83855799D01*
X51854764Y-84103303D01*
X51802500Y-84366052D01*
X51802500Y-84633948D01*
X51835484Y-84799768D01*
X51690002Y-84622498D01*
X51501949Y-84468167D01*
X51287401Y-84353489D01*
X51054602Y-84282870D01*
X50873165Y-84265000D01*
X50051835Y-84265000D01*
X49870398Y-84282870D01*
X49660000Y-84346694D01*
X49660000Y-82135413D01*
X59044192Y-82135413D01*
X59139956Y-82399814D01*
X59429571Y-82540704D01*
X59741108Y-82622384D01*
X60062595Y-82641718D01*
X60381675Y-82597961D01*
X60686088Y-82492795D01*
X60860044Y-82399814D01*
X60955808Y-82135413D01*
X65544192Y-82135413D01*
X65639956Y-82399814D01*
X65929571Y-82540704D01*
X66241108Y-82622384D01*
X66562595Y-82641718D01*
X66881675Y-82597961D01*
X67186088Y-82492795D01*
X67360044Y-82399814D01*
X67455808Y-82135413D01*
X66500000Y-81179605D01*
X65544192Y-82135413D01*
X60955808Y-82135413D01*
X60000000Y-81179605D01*
X59044192Y-82135413D01*
X49660000Y-82135413D01*
X49660000Y-81062595D01*
X58358282Y-81062595D01*
X58402039Y-81381675D01*
X58507205Y-81686088D01*
X58600186Y-81860044D01*
X58864587Y-81955808D01*
X59820395Y-81000000D01*
X60179605Y-81000000D01*
X61135413Y-81955808D01*
X61399814Y-81860044D01*
X61540704Y-81570429D01*
X61622384Y-81258892D01*
X61634189Y-81062595D01*
X64858282Y-81062595D01*
X64902039Y-81381675D01*
X65007205Y-81686088D01*
X65100186Y-81860044D01*
X65364587Y-81955808D01*
X66320395Y-81000000D01*
X66679605Y-81000000D01*
X67635413Y-81955808D01*
X67899814Y-81860044D01*
X68040704Y-81570429D01*
X68122384Y-81258892D01*
X68141718Y-80937405D01*
X68097961Y-80618325D01*
X67992795Y-80313912D01*
X67899814Y-80139956D01*
X67635413Y-80044192D01*
X66679605Y-81000000D01*
X66320395Y-81000000D01*
X65364587Y-80044192D01*
X65100186Y-80139956D01*
X64959296Y-80429571D01*
X64877616Y-80741108D01*
X64858282Y-81062595D01*
X61634189Y-81062595D01*
X61641718Y-80937405D01*
X61597961Y-80618325D01*
X61492795Y-80313912D01*
X61399814Y-80139956D01*
X61135413Y-80044192D01*
X60179605Y-81000000D01*
X59820395Y-81000000D01*
X58864587Y-80044192D01*
X58600186Y-80139956D01*
X58459296Y-80429571D01*
X58377616Y-80741108D01*
X58358282Y-81062595D01*
X49660000Y-81062595D01*
X49660000Y-79653306D01*
X49870398Y-79717130D01*
X50051835Y-79735000D01*
X50873165Y-79735000D01*
X51054602Y-79717130D01*
X51287401Y-79646511D01*
X51501949Y-79531833D01*
X51690002Y-79377502D01*
X51786433Y-79260000D01*
X51823595Y-79260000D01*
X51802500Y-79366052D01*
X51802500Y-79633948D01*
X51854764Y-79896697D01*
X51957284Y-80144201D01*
X52106119Y-80366949D01*
X52295551Y-80556381D01*
X52518299Y-80705216D01*
X52765803Y-80807736D01*
X53028552Y-80860000D01*
X53296448Y-80860000D01*
X53559197Y-80807736D01*
X53806701Y-80705216D01*
X54029449Y-80556381D01*
X54218881Y-80366949D01*
X54367716Y-80144201D01*
X54470236Y-79896697D01*
X54476623Y-79864587D01*
X59044192Y-79864587D01*
X60000000Y-80820395D01*
X60955808Y-79864587D01*
X65544192Y-79864587D01*
X66500000Y-80820395D01*
X67455808Y-79864587D01*
X67360044Y-79600186D01*
X67070429Y-79459296D01*
X66758892Y-79377616D01*
X66437405Y-79358282D01*
X66118325Y-79402039D01*
X65813912Y-79507205D01*
X65639956Y-79600186D01*
X65544192Y-79864587D01*
X60955808Y-79864587D01*
X60860044Y-79600186D01*
X60570429Y-79459296D01*
X60258892Y-79377616D01*
X59937405Y-79358282D01*
X59618325Y-79402039D01*
X59313912Y-79507205D01*
X59139956Y-79600186D01*
X59044192Y-79864587D01*
X54476623Y-79864587D01*
X54522500Y-79633948D01*
X54522500Y-79366052D01*
X54470236Y-79103303D01*
X54367716Y-78855799D01*
X54218881Y-78633051D01*
X54029449Y-78443619D01*
X53806701Y-78294784D01*
X53559197Y-78192264D01*
X53296448Y-78140000D01*
X53028552Y-78140000D01*
X52902395Y-78165094D01*
X52726304Y-77989002D01*
X52702501Y-77959999D01*
X52586776Y-77865026D01*
X52454747Y-77794454D01*
X52311486Y-77750997D01*
X52199833Y-77740000D01*
X52199822Y-77740000D01*
X52162500Y-77736324D01*
X52125178Y-77740000D01*
X51786433Y-77740000D01*
X51690002Y-77622498D01*
X51501949Y-77468167D01*
X51287401Y-77353489D01*
X51054602Y-77282870D01*
X50873165Y-77265000D01*
X50051835Y-77265000D01*
X49870398Y-77282870D01*
X49660000Y-77346694D01*
X49660000Y-74900000D01*
X60461928Y-74900000D01*
X60474188Y-75024482D01*
X60510498Y-75144180D01*
X60569463Y-75254494D01*
X60648815Y-75351185D01*
X60745506Y-75430537D01*
X60855820Y-75489502D01*
X60975518Y-75525812D01*
X61100000Y-75538072D01*
X61714250Y-75535000D01*
X61873000Y-75376250D01*
X61873000Y-74127000D01*
X60623750Y-74127000D01*
X60465000Y-74285750D01*
X60461928Y-74900000D01*
X49660000Y-74900000D01*
X49660000Y-73100000D01*
X60461928Y-73100000D01*
X60465000Y-73714250D01*
X60623750Y-73873000D01*
X61873000Y-73873000D01*
X61873000Y-72623750D01*
X62127000Y-72623750D01*
X62127000Y-73873000D01*
X62147000Y-73873000D01*
X62147000Y-74127000D01*
X62127000Y-74127000D01*
X62127000Y-75376250D01*
X62285750Y-75535000D01*
X62900000Y-75538072D01*
X63024482Y-75525812D01*
X63144180Y-75489502D01*
X63254494Y-75430537D01*
X63351185Y-75351185D01*
X63430537Y-75254494D01*
X63489502Y-75144180D01*
X63495056Y-75125873D01*
X63561495Y-75192312D01*
X63812905Y-75360299D01*
X64092257Y-75476011D01*
X64388816Y-75535000D01*
X64691184Y-75535000D01*
X64987743Y-75476011D01*
X65267095Y-75360299D01*
X65518505Y-75192312D01*
X65732312Y-74978505D01*
X65784767Y-74900000D01*
X86461928Y-74900000D01*
X86474188Y-75024482D01*
X86510498Y-75144180D01*
X86569463Y-75254494D01*
X86648815Y-75351185D01*
X86745506Y-75430537D01*
X86855820Y-75489502D01*
X86975518Y-75525812D01*
X87100000Y-75538072D01*
X87714250Y-75535000D01*
X87873000Y-75376250D01*
X87873000Y-74127000D01*
X86623750Y-74127000D01*
X86465000Y-74285750D01*
X86461928Y-74900000D01*
X65784767Y-74900000D01*
X65900299Y-74727095D01*
X66016011Y-74447743D01*
X66075000Y-74151184D01*
X66075000Y-73848816D01*
X66016011Y-73552257D01*
X65900299Y-73272905D01*
X65784768Y-73100000D01*
X86461928Y-73100000D01*
X86465000Y-73714250D01*
X86623750Y-73873000D01*
X87873000Y-73873000D01*
X87873000Y-72623750D01*
X88127000Y-72623750D01*
X88127000Y-73873000D01*
X88147000Y-73873000D01*
X88147000Y-74127000D01*
X88127000Y-74127000D01*
X88127000Y-75376250D01*
X88285750Y-75535000D01*
X88900000Y-75538072D01*
X89024482Y-75525812D01*
X89144180Y-75489502D01*
X89254494Y-75430537D01*
X89351185Y-75351185D01*
X89430537Y-75254494D01*
X89489502Y-75144180D01*
X89495056Y-75125873D01*
X89561495Y-75192312D01*
X89812905Y-75360299D01*
X90092257Y-75476011D01*
X90388816Y-75535000D01*
X90691184Y-75535000D01*
X90987743Y-75476011D01*
X91267095Y-75360299D01*
X91518505Y-75192312D01*
X91732312Y-74978505D01*
X91784767Y-74900000D01*
X112461928Y-74900000D01*
X112474188Y-75024482D01*
X112510498Y-75144180D01*
X112569463Y-75254494D01*
X112648815Y-75351185D01*
X112745506Y-75430537D01*
X112855820Y-75489502D01*
X112975518Y-75525812D01*
X113100000Y-75538072D01*
X113714250Y-75535000D01*
X113873000Y-75376250D01*
X113873000Y-74127000D01*
X112623750Y-74127000D01*
X112465000Y-74285750D01*
X112461928Y-74900000D01*
X91784767Y-74900000D01*
X91900299Y-74727095D01*
X92016011Y-74447743D01*
X92075000Y-74151184D01*
X92075000Y-73848816D01*
X92016011Y-73552257D01*
X91900299Y-73272905D01*
X91784768Y-73100000D01*
X112461928Y-73100000D01*
X112465000Y-73714250D01*
X112623750Y-73873000D01*
X113873000Y-73873000D01*
X113873000Y-72623750D01*
X113714250Y-72465000D01*
X113100000Y-72461928D01*
X112975518Y-72474188D01*
X112855820Y-72510498D01*
X112745506Y-72569463D01*
X112648815Y-72648815D01*
X112569463Y-72745506D01*
X112510498Y-72855820D01*
X112474188Y-72975518D01*
X112461928Y-73100000D01*
X91784768Y-73100000D01*
X91732312Y-73021495D01*
X91518505Y-72807688D01*
X91267095Y-72639701D01*
X90987743Y-72523989D01*
X90691184Y-72465000D01*
X90388816Y-72465000D01*
X90092257Y-72523989D01*
X89812905Y-72639701D01*
X89561495Y-72807688D01*
X89495056Y-72874127D01*
X89489502Y-72855820D01*
X89430537Y-72745506D01*
X89351185Y-72648815D01*
X89254494Y-72569463D01*
X89144180Y-72510498D01*
X89024482Y-72474188D01*
X88900000Y-72461928D01*
X88285750Y-72465000D01*
X88127000Y-72623750D01*
X87873000Y-72623750D01*
X87714250Y-72465000D01*
X87100000Y-72461928D01*
X86975518Y-72474188D01*
X86855820Y-72510498D01*
X86745506Y-72569463D01*
X86648815Y-72648815D01*
X86569463Y-72745506D01*
X86510498Y-72855820D01*
X86474188Y-72975518D01*
X86461928Y-73100000D01*
X65784768Y-73100000D01*
X65732312Y-73021495D01*
X65518505Y-72807688D01*
X65267095Y-72639701D01*
X64987743Y-72523989D01*
X64691184Y-72465000D01*
X64388816Y-72465000D01*
X64092257Y-72523989D01*
X63812905Y-72639701D01*
X63561495Y-72807688D01*
X63495056Y-72874127D01*
X63489502Y-72855820D01*
X63430537Y-72745506D01*
X63351185Y-72648815D01*
X63254494Y-72569463D01*
X63144180Y-72510498D01*
X63024482Y-72474188D01*
X62900000Y-72461928D01*
X62285750Y-72465000D01*
X62127000Y-72623750D01*
X61873000Y-72623750D01*
X61714250Y-72465000D01*
X61100000Y-72461928D01*
X60975518Y-72474188D01*
X60855820Y-72510498D01*
X60745506Y-72569463D01*
X60648815Y-72648815D01*
X60569463Y-72745506D01*
X60510498Y-72855820D01*
X60474188Y-72975518D01*
X60461928Y-73100000D01*
X49660000Y-73100000D01*
X49660000Y-67789721D01*
X51865000Y-67789721D01*
X51865000Y-68210279D01*
X51947047Y-68622756D01*
X52107988Y-69011302D01*
X52341637Y-69360983D01*
X52639017Y-69658363D01*
X52988698Y-69892012D01*
X53377244Y-70052953D01*
X53789721Y-70135000D01*
X54210279Y-70135000D01*
X54622756Y-70052953D01*
X55011302Y-69892012D01*
X55360983Y-69658363D01*
X55658363Y-69360983D01*
X55892012Y-69011302D01*
X56052953Y-68622756D01*
X56135000Y-68210279D01*
X56135000Y-67789721D01*
X174865000Y-67789721D01*
X174865000Y-68210279D01*
X174947047Y-68622756D01*
X175107988Y-69011302D01*
X175341637Y-69360983D01*
X175639017Y-69658363D01*
X175988698Y-69892012D01*
X176377244Y-70052953D01*
X176789721Y-70135000D01*
X177210279Y-70135000D01*
X177622756Y-70052953D01*
X178011302Y-69892012D01*
X178360983Y-69658363D01*
X178658363Y-69360983D01*
X178892012Y-69011302D01*
X179052953Y-68622756D01*
X179135000Y-68210279D01*
X179135000Y-67789721D01*
X179052953Y-67377244D01*
X178892012Y-66988698D01*
X178658363Y-66639017D01*
X178360983Y-66341637D01*
X178011302Y-66107988D01*
X177622756Y-65947047D01*
X177210279Y-65865000D01*
X176789721Y-65865000D01*
X176377244Y-65947047D01*
X175988698Y-66107988D01*
X175639017Y-66341637D01*
X175341637Y-66639017D01*
X175107988Y-66988698D01*
X174947047Y-67377244D01*
X174865000Y-67789721D01*
X56135000Y-67789721D01*
X56052953Y-67377244D01*
X55892012Y-66988698D01*
X55658363Y-66639017D01*
X55360983Y-66341637D01*
X55011302Y-66107988D01*
X54622756Y-65947047D01*
X54210279Y-65865000D01*
X53789721Y-65865000D01*
X53377244Y-65947047D01*
X52988698Y-66107988D01*
X52639017Y-66341637D01*
X52341637Y-66639017D01*
X52107988Y-66988698D01*
X51947047Y-67377244D01*
X51865000Y-67789721D01*
X49660000Y-67789721D01*
X49660000Y-66032279D01*
X49707670Y-65546107D01*
X49839489Y-65109502D01*
X50053600Y-64706815D01*
X50341848Y-64353388D01*
X50693261Y-64062673D01*
X51094439Y-63845758D01*
X51530113Y-63710894D01*
X52014344Y-63660000D01*
X178967721Y-63660000D01*
X179453893Y-63707670D01*
G37*
X179453893Y-63707670D02*
X179890498Y-63839489D01*
X180293185Y-64053600D01*
X180646612Y-64341848D01*
X180937327Y-64693261D01*
X181154242Y-65094439D01*
X181289106Y-65530113D01*
X181340000Y-66014344D01*
X181340001Y-117967711D01*
X181292330Y-118453894D01*
X181160512Y-118890497D01*
X180946399Y-119293186D01*
X180658150Y-119646613D01*
X180306739Y-119937327D01*
X179905564Y-120154240D01*
X179469886Y-120289106D01*
X178985664Y-120340000D01*
X52032279Y-120340000D01*
X51546106Y-120292330D01*
X51109503Y-120160512D01*
X50706814Y-119946399D01*
X50353387Y-119658150D01*
X50062673Y-119306739D01*
X49845760Y-118905564D01*
X49710894Y-118469886D01*
X49660000Y-117985664D01*
X49660000Y-115789721D01*
X51865000Y-115789721D01*
X51865000Y-116210279D01*
X51947047Y-116622756D01*
X52107988Y-117011302D01*
X52341637Y-117360983D01*
X52639017Y-117658363D01*
X52988698Y-117892012D01*
X53377244Y-118052953D01*
X53789721Y-118135000D01*
X54210279Y-118135000D01*
X54622756Y-118052953D01*
X55011302Y-117892012D01*
X55360983Y-117658363D01*
X55658363Y-117360983D01*
X55892012Y-117011302D01*
X56052953Y-116622756D01*
X56135000Y-116210279D01*
X56135000Y-115789721D01*
X56052953Y-115377244D01*
X55892012Y-114988698D01*
X55658363Y-114639017D01*
X55360983Y-114341637D01*
X55011302Y-114107988D01*
X54622756Y-113947047D01*
X54210279Y-113865000D01*
X53789721Y-113865000D01*
X53377244Y-113947047D01*
X52988698Y-114107988D01*
X52639017Y-114341637D01*
X52341637Y-114639017D01*
X52107988Y-114988698D01*
X51947047Y-115377244D01*
X51865000Y-115789721D01*
X49660000Y-115789721D01*
X49660000Y-97193692D01*
X55740000Y-97193692D01*
X55740000Y-97806308D01*
X55859516Y-98407154D01*
X56093954Y-98973137D01*
X56434305Y-99482509D01*
X56867491Y-99915695D01*
X57376863Y-100256046D01*
X57942846Y-100490484D01*
X58543692Y-100610000D01*
X59156308Y-100610000D01*
X59757154Y-100490484D01*
X60323137Y-100256046D01*
X60832509Y-99915695D01*
X61265695Y-99482509D01*
X61490001Y-99146812D01*
X61490001Y-103541493D01*
X61447743Y-103523989D01*
X61151184Y-103465000D01*
X60848816Y-103465000D01*
X60552257Y-103523989D01*
X60272905Y-103639701D01*
X60021495Y-103807688D01*
X59807688Y-104021495D01*
X59639701Y-104272905D01*
X59523989Y-104552257D01*
X59465000Y-104848816D01*
X59465000Y-105151184D01*
X59523989Y-105447743D01*
X59639701Y-105727095D01*
X59807688Y-105978505D01*
X60021495Y-106192312D01*
X60272905Y-106360299D01*
X60552257Y-106476011D01*
X60848816Y-106535000D01*
X61151184Y-106535000D01*
X61447743Y-106476011D01*
X61727095Y-106360299D01*
X61905555Y-106241056D01*
X69460201Y-113795703D01*
X69483999Y-113824701D01*
X69599724Y-113919674D01*
X69731753Y-113990246D01*
X69875014Y-114033703D01*
X69986667Y-114044700D01*
X69986676Y-114044700D01*
X70023999Y-114048376D01*
X70061322Y-114044700D01*
X87046989Y-114044700D01*
X87090926Y-114088637D01*
X87260444Y-114201905D01*
X87448802Y-114279926D01*
X87648761Y-114319700D01*
X87852639Y-114319700D01*
X88052598Y-114279926D01*
X88240956Y-114201905D01*
X88410474Y-114088637D01*
X88554637Y-113944474D01*
X88667905Y-113774956D01*
X88745926Y-113586598D01*
X88785700Y-113386639D01*
X88785700Y-113182761D01*
X88745926Y-112982802D01*
X88667905Y-112794444D01*
X88554637Y-112624926D01*
X88410474Y-112480763D01*
X88240956Y-112367495D01*
X88052598Y-112289474D01*
X87852639Y-112249700D01*
X87648761Y-112249700D01*
X87448802Y-112289474D01*
X87260444Y-112367495D01*
X87090926Y-112480763D01*
X87046989Y-112524700D01*
X70338802Y-112524700D01*
X64191032Y-106376930D01*
X64300792Y-106318261D01*
X64384475Y-106064080D01*
X63500000Y-105179605D01*
X63485858Y-105193748D01*
X63306253Y-105014143D01*
X63320395Y-105000000D01*
X63679605Y-105000000D01*
X64564080Y-105884475D01*
X64712262Y-105835690D01*
X64807688Y-105978505D01*
X65021495Y-106192312D01*
X65272905Y-106360299D01*
X65552257Y-106476011D01*
X65848816Y-106535000D01*
X66151184Y-106535000D01*
X66447743Y-106476011D01*
X66727095Y-106360299D01*
X66978505Y-106192312D01*
X67192312Y-105978505D01*
X67360299Y-105727095D01*
X67476011Y-105447743D01*
X67535000Y-105151184D01*
X67535000Y-104848816D01*
X67476011Y-104552257D01*
X67360299Y-104272905D01*
X67192312Y-104021495D01*
X66978505Y-103807688D01*
X66727095Y-103639701D01*
X66447743Y-103523989D01*
X66151184Y-103465000D01*
X65848816Y-103465000D01*
X65552257Y-103523989D01*
X65272905Y-103639701D01*
X65021495Y-103807688D01*
X64807688Y-104021495D01*
X64712262Y-104164310D01*
X64564080Y-104115525D01*
X63679605Y-105000000D01*
X63320395Y-105000000D01*
X63306253Y-104985858D01*
X63485858Y-104806253D01*
X63500000Y-104820395D01*
X64384475Y-103935920D01*
X64300792Y-103681739D01*
X64028225Y-103550842D01*
X63735358Y-103475635D01*
X63433447Y-103459009D01*
X63134093Y-103501603D01*
X63010000Y-103545176D01*
X63010000Y-97193692D01*
X65040000Y-97193692D01*
X65040000Y-97806308D01*
X65159516Y-98407154D01*
X65393954Y-98973137D01*
X65734305Y-99482509D01*
X66167491Y-99915695D01*
X66676863Y-100256046D01*
X67242846Y-100490484D01*
X67843692Y-100610000D01*
X68456308Y-100610000D01*
X69057154Y-100490484D01*
X69623137Y-100256046D01*
X70132509Y-99915695D01*
X70565695Y-99482509D01*
X70906046Y-98973137D01*
X71140484Y-98407154D01*
X71260000Y-97806308D01*
X71260000Y-97193692D01*
X71140484Y-96592846D01*
X70906046Y-96026863D01*
X70565695Y-95517491D01*
X70132509Y-95084305D01*
X69623137Y-94743954D01*
X69057154Y-94509516D01*
X68456308Y-94390000D01*
X67843692Y-94390000D01*
X67242846Y-94509516D01*
X66676863Y-94743954D01*
X66167491Y-95084305D01*
X65734305Y-95517491D01*
X65393954Y-96026863D01*
X65159516Y-96592846D01*
X65040000Y-97193692D01*
X63010000Y-97193692D01*
X63010000Y-91787323D01*
X63013676Y-91750000D01*
X63010000Y-91712677D01*
X63010000Y-91712667D01*
X62999003Y-91601014D01*
X62987800Y-91564080D01*
X65115525Y-91564080D01*
X65199208Y-91818261D01*
X65471775Y-91949158D01*
X65764642Y-92024365D01*
X66066553Y-92040991D01*
X66365907Y-91998397D01*
X66651199Y-91898222D01*
X66800792Y-91818261D01*
X66884475Y-91564080D01*
X66000000Y-90679605D01*
X65115525Y-91564080D01*
X62987800Y-91564080D01*
X62955546Y-91457753D01*
X62896113Y-91346563D01*
X62884974Y-91325723D01*
X62813799Y-91238997D01*
X62790001Y-91209999D01*
X62761004Y-91186202D01*
X62483731Y-90908930D01*
X62535000Y-90651184D01*
X62535000Y-90566553D01*
X64459009Y-90566553D01*
X64501603Y-90865907D01*
X64601778Y-91151199D01*
X64681739Y-91300792D01*
X64935920Y-91384475D01*
X65820395Y-90500000D01*
X66179605Y-90500000D01*
X67064080Y-91384475D01*
X67318261Y-91300792D01*
X67449158Y-91028225D01*
X67524365Y-90735358D01*
X67540991Y-90433447D01*
X67498397Y-90134093D01*
X67398222Y-89848801D01*
X67318261Y-89699208D01*
X67064080Y-89615525D01*
X66179605Y-90500000D01*
X65820395Y-90500000D01*
X64935920Y-89615525D01*
X64681739Y-89699208D01*
X64550842Y-89971775D01*
X64475635Y-90264642D01*
X64459009Y-90566553D01*
X62535000Y-90566553D01*
X62535000Y-90348816D01*
X62476011Y-90052257D01*
X62360299Y-89772905D01*
X62192312Y-89521495D01*
X62106737Y-89435920D01*
X65115525Y-89435920D01*
X66000000Y-90320395D01*
X66884475Y-89435920D01*
X66800792Y-89181739D01*
X66528225Y-89050842D01*
X66235358Y-88975635D01*
X65933447Y-88959009D01*
X65634093Y-89001603D01*
X65348801Y-89101778D01*
X65199208Y-89181739D01*
X65115525Y-89435920D01*
X62106737Y-89435920D01*
X61978505Y-89307688D01*
X61727095Y-89139701D01*
X61447743Y-89023989D01*
X61151184Y-88965000D01*
X60848816Y-88965000D01*
X60552257Y-89023989D01*
X60272905Y-89139701D01*
X60021495Y-89307688D01*
X59807688Y-89521495D01*
X59639701Y-89772905D01*
X59523989Y-90052257D01*
X59465000Y-90348816D01*
X59465000Y-90651184D01*
X59523989Y-90947743D01*
X59639701Y-91227095D01*
X59807688Y-91478505D01*
X60021495Y-91692312D01*
X60272905Y-91860299D01*
X60552257Y-91976011D01*
X60848816Y-92035000D01*
X61151184Y-92035000D01*
X61408930Y-91983731D01*
X61490000Y-92064802D01*
X61490000Y-95853188D01*
X61265695Y-95517491D01*
X60832509Y-95084305D01*
X60323137Y-94743954D01*
X59757154Y-94509516D01*
X59156308Y-94390000D01*
X58543692Y-94390000D01*
X57942846Y-94509516D01*
X57376863Y-94743954D01*
X56867491Y-95084305D01*
X56434305Y-95517491D01*
X56093954Y-96026863D01*
X55859516Y-96592846D01*
X55740000Y-97193692D01*
X49660000Y-97193692D01*
X49660000Y-86653306D01*
X49870398Y-86717130D01*
X50051835Y-86735000D01*
X50873165Y-86735000D01*
X51054602Y-86717130D01*
X51287401Y-86646511D01*
X51501949Y-86531833D01*
X51690002Y-86377502D01*
X51844333Y-86189449D01*
X51959011Y-85974901D01*
X52029630Y-85742102D01*
X52053475Y-85500000D01*
X52029630Y-85257898D01*
X52026617Y-85247965D01*
X52106119Y-85366949D01*
X52295551Y-85556381D01*
X52518299Y-85705216D01*
X52765803Y-85807736D01*
X53028552Y-85860000D01*
X53296448Y-85860000D01*
X53559197Y-85807736D01*
X53806701Y-85705216D01*
X54029449Y-85556381D01*
X54218881Y-85366949D01*
X54237577Y-85338967D01*
X58365000Y-85338967D01*
X58365000Y-85661033D01*
X58427832Y-85976912D01*
X58551082Y-86274463D01*
X58730013Y-86542252D01*
X58957748Y-86769987D01*
X59225537Y-86948918D01*
X59523088Y-87072168D01*
X59838967Y-87135000D01*
X60161033Y-87135000D01*
X60476912Y-87072168D01*
X60774463Y-86948918D01*
X61042252Y-86769987D01*
X61269987Y-86542252D01*
X61448918Y-86274463D01*
X61572168Y-85976912D01*
X61635000Y-85661033D01*
X61635000Y-85338967D01*
X64865000Y-85338967D01*
X64865000Y-85661033D01*
X64927832Y-85976912D01*
X65051082Y-86274463D01*
X65230013Y-86542252D01*
X65457748Y-86769987D01*
X65725537Y-86948918D01*
X66023088Y-87072168D01*
X66088598Y-87085199D01*
X77245694Y-98242295D01*
X77171063Y-98316926D01*
X77057795Y-98486444D01*
X76979774Y-98674802D01*
X76940000Y-98874761D01*
X76940000Y-99078639D01*
X76979774Y-99278598D01*
X77057795Y-99466956D01*
X77171063Y-99636474D01*
X77315226Y-99780637D01*
X77484744Y-99893905D01*
X77673102Y-99971926D01*
X77854634Y-100008035D01*
X97463001Y-119616403D01*
X97486799Y-119645401D01*
X97515797Y-119669199D01*
X97602524Y-119740374D01*
X97734553Y-119810946D01*
X97877814Y-119854403D01*
X98026800Y-119869077D01*
X98064133Y-119865400D01*
X114778578Y-119865400D01*
X114815900Y-119869076D01*
X114853222Y-119865400D01*
X114853233Y-119865400D01*
X114964886Y-119854403D01*
X115108147Y-119810946D01*
X115240176Y-119740374D01*
X115355901Y-119645401D01*
X115379704Y-119616397D01*
X116838918Y-118157184D01*
X117076589Y-118315990D01*
X117346842Y-118427932D01*
X117633740Y-118485000D01*
X117926260Y-118485000D01*
X118213158Y-118427932D01*
X118483411Y-118315990D01*
X118726632Y-118153475D01*
X118933475Y-117946632D01*
X119050000Y-117772240D01*
X119166525Y-117946632D01*
X119373368Y-118153475D01*
X119616589Y-118315990D01*
X119886842Y-118427932D01*
X120173740Y-118485000D01*
X120466260Y-118485000D01*
X120753158Y-118427932D01*
X121023411Y-118315990D01*
X121266632Y-118153475D01*
X121473475Y-117946632D01*
X121590000Y-117772240D01*
X121706525Y-117946632D01*
X121913368Y-118153475D01*
X122156589Y-118315990D01*
X122426842Y-118427932D01*
X122713740Y-118485000D01*
X123006260Y-118485000D01*
X123293158Y-118427932D01*
X123563411Y-118315990D01*
X123806632Y-118153475D01*
X124013475Y-117946632D01*
X124130000Y-117772240D01*
X124246525Y-117946632D01*
X124453368Y-118153475D01*
X124696589Y-118315990D01*
X124966842Y-118427932D01*
X125253740Y-118485000D01*
X125546260Y-118485000D01*
X125833158Y-118427932D01*
X126103411Y-118315990D01*
X126310690Y-118177491D01*
X127274205Y-119141008D01*
X127297999Y-119170001D01*
X127326992Y-119193795D01*
X127326996Y-119193799D01*
X127383277Y-119239987D01*
X127413724Y-119264974D01*
X127545753Y-119335546D01*
X127689014Y-119379003D01*
X127800667Y-119390000D01*
X127800676Y-119390000D01*
X127837999Y-119393676D01*
X127875322Y-119390000D01*
X136832678Y-119390000D01*
X136870000Y-119393676D01*
X136907322Y-119390000D01*
X136907333Y-119390000D01*
X137018986Y-119379003D01*
X137162247Y-119335546D01*
X137294276Y-119264974D01*
X137410001Y-119170001D01*
X137433804Y-119140997D01*
X140785080Y-115789721D01*
X174865000Y-115789721D01*
X174865000Y-116210279D01*
X174947047Y-116622756D01*
X175107988Y-117011302D01*
X175341637Y-117360983D01*
X175639017Y-117658363D01*
X175988698Y-117892012D01*
X176377244Y-118052953D01*
X176789721Y-118135000D01*
X177210279Y-118135000D01*
X177622756Y-118052953D01*
X178011302Y-117892012D01*
X178360983Y-117658363D01*
X178658363Y-117360983D01*
X178892012Y-117011302D01*
X179052953Y-116622756D01*
X179135000Y-116210279D01*
X179135000Y-115789721D01*
X179052953Y-115377244D01*
X178892012Y-114988698D01*
X178658363Y-114639017D01*
X178360983Y-114341637D01*
X178011302Y-114107988D01*
X177622756Y-113947047D01*
X177210279Y-113865000D01*
X176789721Y-113865000D01*
X176377244Y-113947047D01*
X175988698Y-114107988D01*
X175639017Y-114341637D01*
X175341637Y-114639017D01*
X175107988Y-114988698D01*
X174947047Y-115377244D01*
X174865000Y-115789721D01*
X140785080Y-115789721D01*
X151725985Y-104848816D01*
X163465000Y-104848816D01*
X163465000Y-105151184D01*
X163523989Y-105447743D01*
X163639701Y-105727095D01*
X163807688Y-105978505D01*
X164021495Y-106192312D01*
X164272905Y-106360299D01*
X164552257Y-106476011D01*
X164848816Y-106535000D01*
X165151184Y-106535000D01*
X165447743Y-106476011D01*
X165727095Y-106360299D01*
X165978505Y-106192312D01*
X166106737Y-106064080D01*
X166615525Y-106064080D01*
X166699208Y-106318261D01*
X166971775Y-106449158D01*
X167264642Y-106524365D01*
X167566553Y-106540991D01*
X167865907Y-106498397D01*
X168151199Y-106398222D01*
X168300792Y-106318261D01*
X168384475Y-106064080D01*
X167500000Y-105179605D01*
X166615525Y-106064080D01*
X166106737Y-106064080D01*
X166192312Y-105978505D01*
X166287738Y-105835690D01*
X166435920Y-105884475D01*
X167320395Y-105000000D01*
X167679605Y-105000000D01*
X168564080Y-105884475D01*
X168712262Y-105835690D01*
X168807688Y-105978505D01*
X169021495Y-106192312D01*
X169272905Y-106360299D01*
X169552257Y-106476011D01*
X169848816Y-106535000D01*
X170151184Y-106535000D01*
X170447743Y-106476011D01*
X170727095Y-106360299D01*
X170978505Y-106192312D01*
X171192312Y-105978505D01*
X171360299Y-105727095D01*
X171476011Y-105447743D01*
X171535000Y-105151184D01*
X171535000Y-104848816D01*
X171476011Y-104552257D01*
X171360299Y-104272905D01*
X171192312Y-104021495D01*
X170978505Y-103807688D01*
X170727095Y-103639701D01*
X170447743Y-103523989D01*
X170151184Y-103465000D01*
X169848816Y-103465000D01*
X169552257Y-103523989D01*
X169272905Y-103639701D01*
X169021495Y-103807688D01*
X168807688Y-104021495D01*
X168712262Y-104164310D01*
X168564080Y-104115525D01*
X167679605Y-105000000D01*
X167320395Y-105000000D01*
X166435920Y-104115525D01*
X166287738Y-104164310D01*
X166192312Y-104021495D01*
X166106737Y-103935920D01*
X166615525Y-103935920D01*
X167500000Y-104820395D01*
X168384475Y-103935920D01*
X168300792Y-103681739D01*
X168028225Y-103550842D01*
X167735358Y-103475635D01*
X167433447Y-103459009D01*
X167134093Y-103501603D01*
X166848801Y-103601778D01*
X166699208Y-103681739D01*
X166615525Y-103935920D01*
X166106737Y-103935920D01*
X165978505Y-103807688D01*
X165727095Y-103639701D01*
X165447743Y-103523989D01*
X165151184Y-103465000D01*
X164848816Y-103465000D01*
X164552257Y-103523989D01*
X164272905Y-103639701D01*
X164021495Y-103807688D01*
X163807688Y-104021495D01*
X163639701Y-104272905D01*
X163523989Y-104552257D01*
X163465000Y-104848816D01*
X151725985Y-104848816D01*
X159829114Y-96745688D01*
X159740000Y-97193692D01*
X159740000Y-97806308D01*
X159859516Y-98407154D01*
X160093954Y-98973137D01*
X160434305Y-99482509D01*
X160867491Y-99915695D01*
X161376863Y-100256046D01*
X161942846Y-100490484D01*
X162543692Y-100610000D01*
X163156308Y-100610000D01*
X163757154Y-100490484D01*
X164323137Y-100256046D01*
X164832509Y-99915695D01*
X165265695Y-99482509D01*
X165606046Y-98973137D01*
X165840484Y-98407154D01*
X165960000Y-97806308D01*
X165960000Y-97193692D01*
X169040000Y-97193692D01*
X169040000Y-97806308D01*
X169159516Y-98407154D01*
X169393954Y-98973137D01*
X169734305Y-99482509D01*
X170167491Y-99915695D01*
X170676863Y-100256046D01*
X171242846Y-100490484D01*
X171843692Y-100610000D01*
X172456308Y-100610000D01*
X173057154Y-100490484D01*
X173623137Y-100256046D01*
X174132509Y-99915695D01*
X174565695Y-99482509D01*
X174906046Y-98973137D01*
X175140484Y-98407154D01*
X175260000Y-97806308D01*
X175260000Y-97193692D01*
X175140484Y-96592846D01*
X174906046Y-96026863D01*
X174565695Y-95517491D01*
X174132509Y-95084305D01*
X173623137Y-94743954D01*
X173057154Y-94509516D01*
X172456308Y-94390000D01*
X171843692Y-94390000D01*
X171242846Y-94509516D01*
X170676863Y-94743954D01*
X170167491Y-95084305D01*
X169734305Y-95517491D01*
X169393954Y-96026863D01*
X169159516Y-96592846D01*
X169040000Y-97193692D01*
X165960000Y-97193692D01*
X165840484Y-96592846D01*
X165606046Y-96026863D01*
X165265695Y-95517491D01*
X164832509Y-95084305D01*
X164323137Y-94743954D01*
X163757154Y-94509516D01*
X163156308Y-94390000D01*
X162543692Y-94390000D01*
X162095688Y-94479114D01*
X164591071Y-91983731D01*
X164848816Y-92035000D01*
X165151184Y-92035000D01*
X165447743Y-91976011D01*
X165727095Y-91860299D01*
X165978505Y-91692312D01*
X166106737Y-91564080D01*
X169115525Y-91564080D01*
X169199208Y-91818261D01*
X169471775Y-91949158D01*
X169764642Y-92024365D01*
X170066553Y-92040991D01*
X170365907Y-91998397D01*
X170651199Y-91898222D01*
X170800792Y-91818261D01*
X170884475Y-91564080D01*
X170000000Y-90679605D01*
X169115525Y-91564080D01*
X166106737Y-91564080D01*
X166192312Y-91478505D01*
X166360299Y-91227095D01*
X166476011Y-90947743D01*
X166535000Y-90651184D01*
X166535000Y-90566553D01*
X168459009Y-90566553D01*
X168501603Y-90865907D01*
X168601778Y-91151199D01*
X168681739Y-91300792D01*
X168935920Y-91384475D01*
X169820395Y-90500000D01*
X170179605Y-90500000D01*
X171064080Y-91384475D01*
X171318261Y-91300792D01*
X171449158Y-91028225D01*
X171524365Y-90735358D01*
X171540991Y-90433447D01*
X171498397Y-90134093D01*
X171398222Y-89848801D01*
X171318261Y-89699208D01*
X171064080Y-89615525D01*
X170179605Y-90500000D01*
X169820395Y-90500000D01*
X168935920Y-89615525D01*
X168681739Y-89699208D01*
X168550842Y-89971775D01*
X168475635Y-90264642D01*
X168459009Y-90566553D01*
X166535000Y-90566553D01*
X166535000Y-90348816D01*
X166476011Y-90052257D01*
X166360299Y-89772905D01*
X166192312Y-89521495D01*
X166106737Y-89435920D01*
X169115525Y-89435920D01*
X170000000Y-90320395D01*
X170884475Y-89435920D01*
X170800792Y-89181739D01*
X170528225Y-89050842D01*
X170235358Y-88975635D01*
X169933447Y-88959009D01*
X169634093Y-89001603D01*
X169348801Y-89101778D01*
X169199208Y-89181739D01*
X169115525Y-89435920D01*
X166106737Y-89435920D01*
X165978505Y-89307688D01*
X165727095Y-89139701D01*
X165447743Y-89023989D01*
X165151184Y-88965000D01*
X164848816Y-88965000D01*
X164552257Y-89023989D01*
X164272905Y-89139701D01*
X164021495Y-89307688D01*
X163807688Y-89521495D01*
X163639701Y-89772905D01*
X163523989Y-90052257D01*
X163465000Y-90348816D01*
X163465000Y-90651184D01*
X163516269Y-90908929D01*
X154601800Y-99823398D01*
X154601800Y-99760211D01*
X154645737Y-99716274D01*
X154759005Y-99546756D01*
X154837026Y-99358398D01*
X154876800Y-99158439D01*
X154876800Y-98954561D01*
X154837026Y-98754602D01*
X154759005Y-98566244D01*
X154645737Y-98396726D01*
X154501574Y-98252563D01*
X154332056Y-98139295D01*
X154143698Y-98061274D01*
X153967352Y-98026197D01*
X153892605Y-97845744D01*
X153779337Y-97676226D01*
X153635174Y-97532063D01*
X153465656Y-97418795D01*
X153277298Y-97340774D01*
X153241206Y-97333595D01*
X163508625Y-87066177D01*
X163523088Y-87072168D01*
X163838967Y-87135000D01*
X164161033Y-87135000D01*
X164476912Y-87072168D01*
X164774463Y-86948918D01*
X165042252Y-86769987D01*
X165269987Y-86542252D01*
X165448918Y-86274463D01*
X165572168Y-85976912D01*
X165635000Y-85661033D01*
X165635000Y-85338967D01*
X168865000Y-85338967D01*
X168865000Y-85661033D01*
X168927832Y-85976912D01*
X169051082Y-86274463D01*
X169230013Y-86542252D01*
X169457748Y-86769987D01*
X169725537Y-86948918D01*
X170023088Y-87072168D01*
X170338967Y-87135000D01*
X170661033Y-87135000D01*
X170976912Y-87072168D01*
X171274463Y-86948918D01*
X171542252Y-86769987D01*
X171769987Y-86542252D01*
X171948918Y-86274463D01*
X172072168Y-85976912D01*
X172135000Y-85661033D01*
X172135000Y-85338967D01*
X172072168Y-85023088D01*
X171948918Y-84725537D01*
X171769987Y-84457748D01*
X171542252Y-84230013D01*
X171274463Y-84051082D01*
X170976912Y-83927832D01*
X170661033Y-83865000D01*
X170338967Y-83865000D01*
X170023088Y-83927832D01*
X169725537Y-84051082D01*
X169457748Y-84230013D01*
X169230013Y-84457748D01*
X169051082Y-84725537D01*
X168927832Y-85023088D01*
X168865000Y-85338967D01*
X165635000Y-85338967D01*
X165572168Y-85023088D01*
X165448918Y-84725537D01*
X165269987Y-84457748D01*
X165042252Y-84230013D01*
X164774463Y-84051082D01*
X164476912Y-83927832D01*
X164161033Y-83865000D01*
X163838967Y-83865000D01*
X163523088Y-83927832D01*
X163225537Y-84051082D01*
X162957748Y-84230013D01*
X162730013Y-84457748D01*
X162551082Y-84725537D01*
X162427832Y-85023088D01*
X162365000Y-85338967D01*
X162365000Y-85661033D01*
X162427832Y-85976912D01*
X162433823Y-85991375D01*
X150250203Y-98174996D01*
X150221199Y-98198799D01*
X150166071Y-98265974D01*
X150126226Y-98314524D01*
X150108304Y-98348054D01*
X150055654Y-98446554D01*
X150012197Y-98589815D01*
X150001200Y-98701468D01*
X150001200Y-98701478D01*
X149997524Y-98738800D01*
X150001200Y-98776123D01*
X150001201Y-99665597D01*
X149372305Y-100294494D01*
X149273874Y-100196063D01*
X149104356Y-100082795D01*
X148915998Y-100004774D01*
X148716039Y-99965000D01*
X148512161Y-99965000D01*
X148312202Y-100004774D01*
X148123844Y-100082795D01*
X147954326Y-100196063D01*
X147810163Y-100340226D01*
X147696895Y-100509744D01*
X147618874Y-100698102D01*
X147579100Y-100898061D01*
X147579100Y-100960198D01*
X144830503Y-103708796D01*
X144727095Y-103639701D01*
X144447743Y-103523989D01*
X144151184Y-103465000D01*
X143848816Y-103465000D01*
X143552257Y-103523989D01*
X143272905Y-103639701D01*
X143021495Y-103807688D01*
X142807688Y-104021495D01*
X142712262Y-104164310D01*
X142564080Y-104115525D01*
X141679605Y-105000000D01*
X141693748Y-105014143D01*
X141514143Y-105193748D01*
X141500000Y-105179605D01*
X141485858Y-105193748D01*
X141306253Y-105014143D01*
X141320395Y-105000000D01*
X140435920Y-104115525D01*
X140287738Y-104164310D01*
X140192312Y-104021495D01*
X140106737Y-103935920D01*
X140615525Y-103935920D01*
X141500000Y-104820395D01*
X142384475Y-103935920D01*
X142300792Y-103681739D01*
X142028225Y-103550842D01*
X141735358Y-103475635D01*
X141433447Y-103459009D01*
X141134093Y-103501603D01*
X140848801Y-103601778D01*
X140699208Y-103681739D01*
X140615525Y-103935920D01*
X140106737Y-103935920D01*
X139978505Y-103807688D01*
X139727095Y-103639701D01*
X139447743Y-103523989D01*
X139151184Y-103465000D01*
X138848816Y-103465000D01*
X138552257Y-103523989D01*
X138272905Y-103639701D01*
X138021495Y-103807688D01*
X137807688Y-104021495D01*
X137639701Y-104272905D01*
X137523989Y-104552257D01*
X137465000Y-104848816D01*
X137465000Y-105151184D01*
X137523989Y-105447743D01*
X137639701Y-105727095D01*
X137807688Y-105978505D01*
X138021495Y-106192312D01*
X138272905Y-106360299D01*
X138340005Y-106388093D01*
X131423600Y-113304499D01*
X131183411Y-113144010D01*
X130913158Y-113032068D01*
X130626260Y-112975000D01*
X130333740Y-112975000D01*
X130046842Y-113032068D01*
X129776589Y-113144010D01*
X129533368Y-113306525D01*
X129326525Y-113513368D01*
X129210000Y-113687760D01*
X129093475Y-113513368D01*
X128886632Y-113306525D01*
X128700000Y-113181822D01*
X128700000Y-101874801D01*
X133829114Y-96745688D01*
X133740000Y-97193692D01*
X133740000Y-97806308D01*
X133859516Y-98407154D01*
X134093954Y-98973137D01*
X134434305Y-99482509D01*
X134867491Y-99915695D01*
X135376863Y-100256046D01*
X135942846Y-100490484D01*
X136543692Y-100610000D01*
X137156308Y-100610000D01*
X137757154Y-100490484D01*
X138323137Y-100256046D01*
X138832509Y-99915695D01*
X139265695Y-99482509D01*
X139606046Y-98973137D01*
X139840484Y-98407154D01*
X139960000Y-97806308D01*
X139960000Y-97193692D01*
X143040000Y-97193692D01*
X143040000Y-97806308D01*
X143159516Y-98407154D01*
X143393954Y-98973137D01*
X143734305Y-99482509D01*
X144167491Y-99915695D01*
X144676863Y-100256046D01*
X145242846Y-100490484D01*
X145843692Y-100610000D01*
X146456308Y-100610000D01*
X147057154Y-100490484D01*
X147623137Y-100256046D01*
X148132509Y-99915695D01*
X148565695Y-99482509D01*
X148906046Y-98973137D01*
X149140484Y-98407154D01*
X149260000Y-97806308D01*
X149260000Y-97193692D01*
X149140484Y-96592846D01*
X148906046Y-96026863D01*
X148565695Y-95517491D01*
X148132509Y-95084305D01*
X147623137Y-94743954D01*
X147057154Y-94509516D01*
X146456308Y-94390000D01*
X145843692Y-94390000D01*
X145242846Y-94509516D01*
X144676863Y-94743954D01*
X144167491Y-95084305D01*
X143734305Y-95517491D01*
X143393954Y-96026863D01*
X143159516Y-96592846D01*
X143040000Y-97193692D01*
X139960000Y-97193692D01*
X139840484Y-96592846D01*
X139606046Y-96026863D01*
X139265695Y-95517491D01*
X138832509Y-95084305D01*
X138323137Y-94743954D01*
X137757154Y-94509516D01*
X137156308Y-94390000D01*
X136543692Y-94390000D01*
X136095688Y-94479114D01*
X138591070Y-91983731D01*
X138848816Y-92035000D01*
X139151184Y-92035000D01*
X139447743Y-91976011D01*
X139727095Y-91860299D01*
X139978505Y-91692312D01*
X140106737Y-91564080D01*
X143115525Y-91564080D01*
X143199208Y-91818261D01*
X143471775Y-91949158D01*
X143764642Y-92024365D01*
X144066553Y-92040991D01*
X144365907Y-91998397D01*
X144651199Y-91898222D01*
X144800792Y-91818261D01*
X144884475Y-91564080D01*
X144000000Y-90679605D01*
X143115525Y-91564080D01*
X140106737Y-91564080D01*
X140192312Y-91478505D01*
X140360299Y-91227095D01*
X140476011Y-90947743D01*
X140535000Y-90651184D01*
X140535000Y-90566553D01*
X142459009Y-90566553D01*
X142501603Y-90865907D01*
X142601778Y-91151199D01*
X142681739Y-91300792D01*
X142935920Y-91384475D01*
X143820395Y-90500000D01*
X144179605Y-90500000D01*
X145064080Y-91384475D01*
X145318261Y-91300792D01*
X145449158Y-91028225D01*
X145524365Y-90735358D01*
X145540991Y-90433447D01*
X145498397Y-90134093D01*
X145398222Y-89848801D01*
X145318261Y-89699208D01*
X145064080Y-89615525D01*
X144179605Y-90500000D01*
X143820395Y-90500000D01*
X142935920Y-89615525D01*
X142681739Y-89699208D01*
X142550842Y-89971775D01*
X142475635Y-90264642D01*
X142459009Y-90566553D01*
X140535000Y-90566553D01*
X140535000Y-90348816D01*
X140476011Y-90052257D01*
X140360299Y-89772905D01*
X140192312Y-89521495D01*
X140106737Y-89435920D01*
X143115525Y-89435920D01*
X144000000Y-90320395D01*
X144884475Y-89435920D01*
X144800792Y-89181739D01*
X144528225Y-89050842D01*
X144235358Y-88975635D01*
X143933447Y-88959009D01*
X143634093Y-89001603D01*
X143348801Y-89101778D01*
X143199208Y-89181739D01*
X143115525Y-89435920D01*
X140106737Y-89435920D01*
X139978505Y-89307688D01*
X139727095Y-89139701D01*
X139447743Y-89023989D01*
X139151184Y-88965000D01*
X138848816Y-88965000D01*
X138552257Y-89023989D01*
X138272905Y-89139701D01*
X138021495Y-89307688D01*
X137807688Y-89521495D01*
X137639701Y-89772905D01*
X137523989Y-90052257D01*
X137465000Y-90348816D01*
X137465000Y-90651184D01*
X137516269Y-90908930D01*
X127429003Y-100996196D01*
X127399999Y-101019999D01*
X127344871Y-101087174D01*
X127305026Y-101135724D01*
X127288354Y-101166915D01*
X127234454Y-101267754D01*
X127190997Y-101411015D01*
X127180000Y-101522668D01*
X127180000Y-101522678D01*
X127176324Y-101560000D01*
X127180000Y-101597322D01*
X127180001Y-113181821D01*
X126993368Y-113306525D01*
X126786525Y-113513368D01*
X126670000Y-113687760D01*
X126553475Y-113513368D01*
X126346632Y-113306525D01*
X126160000Y-113181822D01*
X126160000Y-100264201D01*
X127064802Y-99359400D01*
X127126939Y-99359400D01*
X127326898Y-99319626D01*
X127515256Y-99241605D01*
X127684774Y-99128337D01*
X127828937Y-98984174D01*
X127942205Y-98814656D01*
X128020226Y-98626298D01*
X128060000Y-98426339D01*
X128060000Y-98222461D01*
X128020226Y-98022502D01*
X127942205Y-97834144D01*
X127828937Y-97664626D01*
X127684774Y-97520463D01*
X127515256Y-97407195D01*
X127326898Y-97329174D01*
X127259111Y-97315690D01*
X137508625Y-87066177D01*
X137523088Y-87072168D01*
X137838967Y-87135000D01*
X138161033Y-87135000D01*
X138476912Y-87072168D01*
X138774463Y-86948918D01*
X139042252Y-86769987D01*
X139269987Y-86542252D01*
X139448918Y-86274463D01*
X139572168Y-85976912D01*
X139635000Y-85661033D01*
X139635000Y-85338967D01*
X142865000Y-85338967D01*
X142865000Y-85661033D01*
X142927832Y-85976912D01*
X143051082Y-86274463D01*
X143230013Y-86542252D01*
X143457748Y-86769987D01*
X143725537Y-86948918D01*
X144023088Y-87072168D01*
X144338967Y-87135000D01*
X144661033Y-87135000D01*
X144976912Y-87072168D01*
X145274463Y-86948918D01*
X145542252Y-86769987D01*
X145769987Y-86542252D01*
X145948918Y-86274463D01*
X146072168Y-85976912D01*
X146135000Y-85661033D01*
X146135000Y-85338967D01*
X146072168Y-85023088D01*
X145948918Y-84725537D01*
X145769987Y-84457748D01*
X145542252Y-84230013D01*
X145274463Y-84051082D01*
X144976912Y-83927832D01*
X144661033Y-83865000D01*
X144338967Y-83865000D01*
X144023088Y-83927832D01*
X143725537Y-84051082D01*
X143457748Y-84230013D01*
X143230013Y-84457748D01*
X143051082Y-84725537D01*
X142927832Y-85023088D01*
X142865000Y-85338967D01*
X139635000Y-85338967D01*
X139572168Y-85023088D01*
X139448918Y-84725537D01*
X139269987Y-84457748D01*
X139042252Y-84230013D01*
X138774463Y-84051082D01*
X138476912Y-83927832D01*
X138161033Y-83865000D01*
X137838967Y-83865000D01*
X137523088Y-83927832D01*
X137225537Y-84051082D01*
X136957748Y-84230013D01*
X136730013Y-84457748D01*
X136551082Y-84725537D01*
X136427832Y-85023088D01*
X136365000Y-85338967D01*
X136365000Y-85661033D01*
X136427832Y-85976912D01*
X136433823Y-85991375D01*
X120984303Y-101440896D01*
X120955299Y-101464699D01*
X120917299Y-101511003D01*
X120860326Y-101580424D01*
X120845508Y-101608147D01*
X120789754Y-101712454D01*
X120746297Y-101855715D01*
X120735300Y-101967368D01*
X120735300Y-101967378D01*
X120731624Y-102004700D01*
X120735300Y-102042022D01*
X120735301Y-112625199D01*
X117507500Y-109397399D01*
X117507500Y-106457472D01*
X117552257Y-106476011D01*
X117848816Y-106535000D01*
X118151184Y-106535000D01*
X118447743Y-106476011D01*
X118727095Y-106360299D01*
X118978505Y-106192312D01*
X119192312Y-105978505D01*
X119360299Y-105727095D01*
X119476011Y-105447743D01*
X119535000Y-105151184D01*
X119535000Y-104848816D01*
X119476011Y-104552257D01*
X119360299Y-104272905D01*
X119192312Y-104021495D01*
X118978505Y-103807688D01*
X118727095Y-103639701D01*
X118447743Y-103523989D01*
X118151184Y-103465000D01*
X117848816Y-103465000D01*
X117552257Y-103523989D01*
X117507500Y-103542528D01*
X117507500Y-99143071D01*
X117734305Y-99482509D01*
X118167491Y-99915695D01*
X118676863Y-100256046D01*
X119242846Y-100490484D01*
X119843692Y-100610000D01*
X120456308Y-100610000D01*
X121057154Y-100490484D01*
X121623137Y-100256046D01*
X122132509Y-99915695D01*
X122565695Y-99482509D01*
X122906046Y-98973137D01*
X123140484Y-98407154D01*
X123260000Y-97806308D01*
X123260000Y-97193692D01*
X123140484Y-96592846D01*
X122906046Y-96026863D01*
X122565695Y-95517491D01*
X122132509Y-95084305D01*
X121623137Y-94743954D01*
X121057154Y-94509516D01*
X120456308Y-94390000D01*
X119843692Y-94390000D01*
X119242846Y-94509516D01*
X118676863Y-94743954D01*
X118167491Y-95084305D01*
X117734305Y-95517491D01*
X117507500Y-95856929D01*
X117507500Y-94284822D01*
X117511176Y-94247499D01*
X117507500Y-94210176D01*
X117507500Y-94210167D01*
X117496503Y-94098514D01*
X117453046Y-93955253D01*
X117382474Y-93823224D01*
X117287501Y-93707499D01*
X117258504Y-93683702D01*
X115138882Y-91564080D01*
X117115525Y-91564080D01*
X117199208Y-91818261D01*
X117471775Y-91949158D01*
X117764642Y-92024365D01*
X118066553Y-92040991D01*
X118365907Y-91998397D01*
X118651199Y-91898222D01*
X118800792Y-91818261D01*
X118884475Y-91564080D01*
X118000000Y-90679605D01*
X117115525Y-91564080D01*
X115138882Y-91564080D01*
X114483731Y-90908930D01*
X114535000Y-90651184D01*
X114535000Y-90566553D01*
X116459009Y-90566553D01*
X116501603Y-90865907D01*
X116601778Y-91151199D01*
X116681739Y-91300792D01*
X116935920Y-91384475D01*
X117820395Y-90500000D01*
X118179605Y-90500000D01*
X119064080Y-91384475D01*
X119318261Y-91300792D01*
X119449158Y-91028225D01*
X119524365Y-90735358D01*
X119540991Y-90433447D01*
X119498397Y-90134093D01*
X119398222Y-89848801D01*
X119318261Y-89699208D01*
X119064080Y-89615525D01*
X118179605Y-90500000D01*
X117820395Y-90500000D01*
X116935920Y-89615525D01*
X116681739Y-89699208D01*
X116550842Y-89971775D01*
X116475635Y-90264642D01*
X116459009Y-90566553D01*
X114535000Y-90566553D01*
X114535000Y-90348816D01*
X114476011Y-90052257D01*
X114360299Y-89772905D01*
X114192312Y-89521495D01*
X114106737Y-89435920D01*
X117115525Y-89435920D01*
X118000000Y-90320395D01*
X118884475Y-89435920D01*
X118800792Y-89181739D01*
X118528225Y-89050842D01*
X118235358Y-88975635D01*
X117933447Y-88959009D01*
X117634093Y-89001603D01*
X117348801Y-89101778D01*
X117199208Y-89181739D01*
X117115525Y-89435920D01*
X114106737Y-89435920D01*
X113978505Y-89307688D01*
X113727095Y-89139701D01*
X113447743Y-89023989D01*
X113151184Y-88965000D01*
X112848816Y-88965000D01*
X112552257Y-89023989D01*
X112506400Y-89042984D01*
X112506400Y-87059954D01*
X112774463Y-86948918D01*
X113042252Y-86769987D01*
X113269987Y-86542252D01*
X113448918Y-86274463D01*
X113572168Y-85976912D01*
X113635000Y-85661033D01*
X113635000Y-85338967D01*
X116865000Y-85338967D01*
X116865000Y-85661033D01*
X116927832Y-85976912D01*
X117051082Y-86274463D01*
X117230013Y-86542252D01*
X117457748Y-86769987D01*
X117725537Y-86948918D01*
X118023088Y-87072168D01*
X118338967Y-87135000D01*
X118661033Y-87135000D01*
X118976912Y-87072168D01*
X119274463Y-86948918D01*
X119542252Y-86769987D01*
X119769987Y-86542252D01*
X119948918Y-86274463D01*
X120072168Y-85976912D01*
X120135000Y-85661033D01*
X120135000Y-85338967D01*
X120072168Y-85023088D01*
X119948918Y-84725537D01*
X119769987Y-84457748D01*
X119542252Y-84230013D01*
X119274463Y-84051082D01*
X118976912Y-83927832D01*
X118661033Y-83865000D01*
X118338967Y-83865000D01*
X118023088Y-83927832D01*
X117725537Y-84051082D01*
X117457748Y-84230013D01*
X117230013Y-84457748D01*
X117051082Y-84725537D01*
X116927832Y-85023088D01*
X116865000Y-85338967D01*
X113635000Y-85338967D01*
X113572168Y-85023088D01*
X113448918Y-84725537D01*
X113269987Y-84457748D01*
X113042252Y-84230013D01*
X112774463Y-84051082D01*
X112476912Y-83927832D01*
X112161033Y-83865000D01*
X112131401Y-83865000D01*
X113860988Y-82135413D01*
X117544192Y-82135413D01*
X117639956Y-82399814D01*
X117929571Y-82540704D01*
X118241108Y-82622384D01*
X118562595Y-82641718D01*
X118881675Y-82597961D01*
X119186088Y-82492795D01*
X119360044Y-82399814D01*
X119455808Y-82135413D01*
X137044192Y-82135413D01*
X137139956Y-82399814D01*
X137429571Y-82540704D01*
X137741108Y-82622384D01*
X138062595Y-82641718D01*
X138381675Y-82597961D01*
X138686088Y-82492795D01*
X138860044Y-82399814D01*
X138955808Y-82135413D01*
X143544192Y-82135413D01*
X143639956Y-82399814D01*
X143929571Y-82540704D01*
X144241108Y-82622384D01*
X144562595Y-82641718D01*
X144881675Y-82597961D01*
X145186088Y-82492795D01*
X145360044Y-82399814D01*
X145455808Y-82135413D01*
X163044192Y-82135413D01*
X163139956Y-82399814D01*
X163429571Y-82540704D01*
X163741108Y-82622384D01*
X164062595Y-82641718D01*
X164381675Y-82597961D01*
X164686088Y-82492795D01*
X164860044Y-82399814D01*
X164955808Y-82135413D01*
X169544192Y-82135413D01*
X169639956Y-82399814D01*
X169929571Y-82540704D01*
X170241108Y-82622384D01*
X170562595Y-82641718D01*
X170881675Y-82597961D01*
X171186088Y-82492795D01*
X171360044Y-82399814D01*
X171455808Y-82135413D01*
X170500000Y-81179605D01*
X169544192Y-82135413D01*
X164955808Y-82135413D01*
X164000000Y-81179605D01*
X163044192Y-82135413D01*
X145455808Y-82135413D01*
X144500000Y-81179605D01*
X143544192Y-82135413D01*
X138955808Y-82135413D01*
X138000000Y-81179605D01*
X137044192Y-82135413D01*
X119455808Y-82135413D01*
X118500000Y-81179605D01*
X117544192Y-82135413D01*
X113860988Y-82135413D01*
X114933806Y-81062595D01*
X116858282Y-81062595D01*
X116902039Y-81381675D01*
X117007205Y-81686088D01*
X117100186Y-81860044D01*
X117364587Y-81955808D01*
X118320395Y-81000000D01*
X118679605Y-81000000D01*
X119635413Y-81955808D01*
X119899814Y-81860044D01*
X120040704Y-81570429D01*
X120122384Y-81258892D01*
X120134189Y-81062595D01*
X136358282Y-81062595D01*
X136402039Y-81381675D01*
X136507205Y-81686088D01*
X136600186Y-81860044D01*
X136864587Y-81955808D01*
X137820395Y-81000000D01*
X138179605Y-81000000D01*
X139135413Y-81955808D01*
X139399814Y-81860044D01*
X139540704Y-81570429D01*
X139622384Y-81258892D01*
X139634189Y-81062595D01*
X142858282Y-81062595D01*
X142902039Y-81381675D01*
X143007205Y-81686088D01*
X143100186Y-81860044D01*
X143364587Y-81955808D01*
X144320395Y-81000000D01*
X144679605Y-81000000D01*
X145635413Y-81955808D01*
X145899814Y-81860044D01*
X146040704Y-81570429D01*
X146122384Y-81258892D01*
X146134189Y-81062595D01*
X162358282Y-81062595D01*
X162402039Y-81381675D01*
X162507205Y-81686088D01*
X162600186Y-81860044D01*
X162864587Y-81955808D01*
X163820395Y-81000000D01*
X164179605Y-81000000D01*
X165135413Y-81955808D01*
X165399814Y-81860044D01*
X165540704Y-81570429D01*
X165622384Y-81258892D01*
X165634189Y-81062595D01*
X168858282Y-81062595D01*
X168902039Y-81381675D01*
X169007205Y-81686088D01*
X169100186Y-81860044D01*
X169364587Y-81955808D01*
X170320395Y-81000000D01*
X170679605Y-81000000D01*
X171635413Y-81955808D01*
X171899814Y-81860044D01*
X172040704Y-81570429D01*
X172122384Y-81258892D01*
X172141718Y-80937405D01*
X172097961Y-80618325D01*
X171992795Y-80313912D01*
X171899814Y-80139956D01*
X171635413Y-80044192D01*
X170679605Y-81000000D01*
X170320395Y-81000000D01*
X169364587Y-80044192D01*
X169100186Y-80139956D01*
X168959296Y-80429571D01*
X168877616Y-80741108D01*
X168858282Y-81062595D01*
X165634189Y-81062595D01*
X165641718Y-80937405D01*
X165597961Y-80618325D01*
X165492795Y-80313912D01*
X165399814Y-80139956D01*
X165135413Y-80044192D01*
X164179605Y-81000000D01*
X163820395Y-81000000D01*
X162864587Y-80044192D01*
X162600186Y-80139956D01*
X162459296Y-80429571D01*
X162377616Y-80741108D01*
X162358282Y-81062595D01*
X146134189Y-81062595D01*
X146141718Y-80937405D01*
X146097961Y-80618325D01*
X145992795Y-80313912D01*
X145899814Y-80139956D01*
X145635413Y-80044192D01*
X144679605Y-81000000D01*
X144320395Y-81000000D01*
X143364587Y-80044192D01*
X143100186Y-80139956D01*
X142959296Y-80429571D01*
X142877616Y-80741108D01*
X142858282Y-81062595D01*
X139634189Y-81062595D01*
X139641718Y-80937405D01*
X139597961Y-80618325D01*
X139492795Y-80313912D01*
X139399814Y-80139956D01*
X139135413Y-80044192D01*
X138179605Y-81000000D01*
X137820395Y-81000000D01*
X136864587Y-80044192D01*
X136600186Y-80139956D01*
X136459296Y-80429571D01*
X136377616Y-80741108D01*
X136358282Y-81062595D01*
X120134189Y-81062595D01*
X120141718Y-80937405D01*
X120097961Y-80618325D01*
X119992795Y-80313912D01*
X119899814Y-80139956D01*
X119635413Y-80044192D01*
X118679605Y-81000000D01*
X118320395Y-81000000D01*
X117364587Y-80044192D01*
X117100186Y-80139956D01*
X116959296Y-80429571D01*
X116877616Y-80741108D01*
X116858282Y-81062595D01*
X114933806Y-81062595D01*
X116131814Y-79864587D01*
X117544192Y-79864587D01*
X118500000Y-80820395D01*
X119455808Y-79864587D01*
X137044192Y-79864587D01*
X138000000Y-80820395D01*
X138955808Y-79864587D01*
X143544192Y-79864587D01*
X144500000Y-80820395D01*
X145455808Y-79864587D01*
X163044192Y-79864587D01*
X164000000Y-80820395D01*
X164955808Y-79864587D01*
X169544192Y-79864587D01*
X170500000Y-80820395D01*
X171455808Y-79864587D01*
X171360044Y-79600186D01*
X171070429Y-79459296D01*
X170758892Y-79377616D01*
X170437405Y-79358282D01*
X170118325Y-79402039D01*
X169813912Y-79507205D01*
X169639956Y-79600186D01*
X169544192Y-79864587D01*
X164955808Y-79864587D01*
X164860044Y-79600186D01*
X164570429Y-79459296D01*
X164258892Y-79377616D01*
X163937405Y-79358282D01*
X163618325Y-79402039D01*
X163313912Y-79507205D01*
X163139956Y-79600186D01*
X163044192Y-79864587D01*
X145455808Y-79864587D01*
X145360044Y-79600186D01*
X145070429Y-79459296D01*
X144758892Y-79377616D01*
X144437405Y-79358282D01*
X144118325Y-79402039D01*
X143813912Y-79507205D01*
X143639956Y-79600186D01*
X143544192Y-79864587D01*
X138955808Y-79864587D01*
X138860044Y-79600186D01*
X138570429Y-79459296D01*
X138258892Y-79377616D01*
X137937405Y-79358282D01*
X137618325Y-79402039D01*
X137313912Y-79507205D01*
X137139956Y-79600186D01*
X137044192Y-79864587D01*
X119455808Y-79864587D01*
X119360044Y-79600186D01*
X119070429Y-79459296D01*
X118758892Y-79377616D01*
X118437405Y-79358282D01*
X118118325Y-79402039D01*
X117813912Y-79507205D01*
X117639956Y-79600186D01*
X117544192Y-79864587D01*
X116131814Y-79864587D01*
X118664103Y-77332299D01*
X118693101Y-77308501D01*
X118788074Y-77192776D01*
X118858646Y-77060747D01*
X118902103Y-76917486D01*
X118913100Y-76805833D01*
X118913100Y-76805824D01*
X118916776Y-76768501D01*
X118913100Y-76731178D01*
X118913100Y-74900000D01*
X138461928Y-74900000D01*
X138474188Y-75024482D01*
X138510498Y-75144180D01*
X138569463Y-75254494D01*
X138648815Y-75351185D01*
X138745506Y-75430537D01*
X138855820Y-75489502D01*
X138975518Y-75525812D01*
X139100000Y-75538072D01*
X139714250Y-75535000D01*
X139873000Y-75376250D01*
X139873000Y-74127000D01*
X138623750Y-74127000D01*
X138465000Y-74285750D01*
X138461928Y-74900000D01*
X118913100Y-74900000D01*
X118913100Y-73100000D01*
X138461928Y-73100000D01*
X138465000Y-73714250D01*
X138623750Y-73873000D01*
X139873000Y-73873000D01*
X139873000Y-72623750D01*
X140127000Y-72623750D01*
X140127000Y-73873000D01*
X140147000Y-73873000D01*
X140147000Y-74127000D01*
X140127000Y-74127000D01*
X140127000Y-75376250D01*
X140285750Y-75535000D01*
X140900000Y-75538072D01*
X141024482Y-75525812D01*
X141144180Y-75489502D01*
X141254494Y-75430537D01*
X141351185Y-75351185D01*
X141430537Y-75254494D01*
X141489502Y-75144180D01*
X141495056Y-75125873D01*
X141561495Y-75192312D01*
X141812905Y-75360299D01*
X142092257Y-75476011D01*
X142388816Y-75535000D01*
X142691184Y-75535000D01*
X142987743Y-75476011D01*
X143267095Y-75360299D01*
X143518505Y-75192312D01*
X143732312Y-74978505D01*
X143784767Y-74900000D01*
X164461928Y-74900000D01*
X164474188Y-75024482D01*
X164510498Y-75144180D01*
X164569463Y-75254494D01*
X164648815Y-75351185D01*
X164745506Y-75430537D01*
X164855820Y-75489502D01*
X164975518Y-75525812D01*
X165100000Y-75538072D01*
X165714250Y-75535000D01*
X165873000Y-75376250D01*
X165873000Y-74127000D01*
X164623750Y-74127000D01*
X164465000Y-74285750D01*
X164461928Y-74900000D01*
X143784767Y-74900000D01*
X143900299Y-74727095D01*
X144016011Y-74447743D01*
X144075000Y-74151184D01*
X144075000Y-73848816D01*
X144016011Y-73552257D01*
X143900299Y-73272905D01*
X143784768Y-73100000D01*
X164461928Y-73100000D01*
X164465000Y-73714250D01*
X164623750Y-73873000D01*
X165873000Y-73873000D01*
X165873000Y-72623750D01*
X166127000Y-72623750D01*
X166127000Y-73873000D01*
X166147000Y-73873000D01*
X166147000Y-74127000D01*
X166127000Y-74127000D01*
X166127000Y-75376250D01*
X166285750Y-75535000D01*
X166900000Y-75538072D01*
X167024482Y-75525812D01*
X167144180Y-75489502D01*
X167254494Y-75430537D01*
X167351185Y-75351185D01*
X167430537Y-75254494D01*
X167489502Y-75144180D01*
X167495056Y-75125873D01*
X167561495Y-75192312D01*
X167812905Y-75360299D01*
X168092257Y-75476011D01*
X168388816Y-75535000D01*
X168691184Y-75535000D01*
X168987743Y-75476011D01*
X169267095Y-75360299D01*
X169518505Y-75192312D01*
X169732312Y-74978505D01*
X169900299Y-74727095D01*
X170016011Y-74447743D01*
X170075000Y-74151184D01*
X170075000Y-73848816D01*
X170016011Y-73552257D01*
X169900299Y-73272905D01*
X169732312Y-73021495D01*
X169518505Y-72807688D01*
X169267095Y-72639701D01*
X168987743Y-72523989D01*
X168691184Y-72465000D01*
X168388816Y-72465000D01*
X168092257Y-72523989D01*
X167812905Y-72639701D01*
X167561495Y-72807688D01*
X167495056Y-72874127D01*
X167489502Y-72855820D01*
X167430537Y-72745506D01*
X167351185Y-72648815D01*
X167254494Y-72569463D01*
X167144180Y-72510498D01*
X167024482Y-72474188D01*
X166900000Y-72461928D01*
X166285750Y-72465000D01*
X166127000Y-72623750D01*
X165873000Y-72623750D01*
X165714250Y-72465000D01*
X165100000Y-72461928D01*
X164975518Y-72474188D01*
X164855820Y-72510498D01*
X164745506Y-72569463D01*
X164648815Y-72648815D01*
X164569463Y-72745506D01*
X164510498Y-72855820D01*
X164474188Y-72975518D01*
X164461928Y-73100000D01*
X143784768Y-73100000D01*
X143732312Y-73021495D01*
X143518505Y-72807688D01*
X143267095Y-72639701D01*
X142987743Y-72523989D01*
X142691184Y-72465000D01*
X142388816Y-72465000D01*
X142092257Y-72523989D01*
X141812905Y-72639701D01*
X141561495Y-72807688D01*
X141495056Y-72874127D01*
X141489502Y-72855820D01*
X141430537Y-72745506D01*
X141351185Y-72648815D01*
X141254494Y-72569463D01*
X141144180Y-72510498D01*
X141024482Y-72474188D01*
X140900000Y-72461928D01*
X140285750Y-72465000D01*
X140127000Y-72623750D01*
X139873000Y-72623750D01*
X139714250Y-72465000D01*
X139100000Y-72461928D01*
X138975518Y-72474188D01*
X138855820Y-72510498D01*
X138745506Y-72569463D01*
X138648815Y-72648815D01*
X138569463Y-72745506D01*
X138510498Y-72855820D01*
X138474188Y-72975518D01*
X138461928Y-73100000D01*
X118913100Y-73100000D01*
X118913100Y-72725411D01*
X118957037Y-72681474D01*
X119070305Y-72511956D01*
X119148326Y-72323598D01*
X119188100Y-72123639D01*
X119188100Y-71919761D01*
X119148326Y-71719802D01*
X119070305Y-71531444D01*
X118957037Y-71361926D01*
X118812874Y-71217763D01*
X118643356Y-71104495D01*
X118454998Y-71026474D01*
X118255039Y-70986700D01*
X118051161Y-70986700D01*
X117851202Y-71026474D01*
X117662844Y-71104495D01*
X117493326Y-71217763D01*
X117349163Y-71361926D01*
X117235895Y-71531444D01*
X117157874Y-71719802D01*
X117118100Y-71919761D01*
X117118100Y-72123639D01*
X117157874Y-72323598D01*
X117235895Y-72511956D01*
X117349163Y-72681474D01*
X117388531Y-72720842D01*
X117267095Y-72639701D01*
X116987743Y-72523989D01*
X116691184Y-72465000D01*
X116388816Y-72465000D01*
X116092257Y-72523989D01*
X115812905Y-72639701D01*
X115561495Y-72807688D01*
X115495056Y-72874127D01*
X115489502Y-72855820D01*
X115430537Y-72745506D01*
X115351185Y-72648815D01*
X115254494Y-72569463D01*
X115144180Y-72510498D01*
X115024482Y-72474188D01*
X114900000Y-72461928D01*
X114285750Y-72465000D01*
X114127000Y-72623750D01*
X114127000Y-73873000D01*
X114147000Y-73873000D01*
X114147000Y-74127000D01*
X114127000Y-74127000D01*
X114127000Y-75376250D01*
X114285750Y-75535000D01*
X114900000Y-75538072D01*
X115024482Y-75525812D01*
X115144180Y-75489502D01*
X115254494Y-75430537D01*
X115351185Y-75351185D01*
X115430537Y-75254494D01*
X115489502Y-75144180D01*
X115495056Y-75125873D01*
X115561495Y-75192312D01*
X115812905Y-75360299D01*
X116092257Y-75476011D01*
X116388816Y-75535000D01*
X116691184Y-75535000D01*
X116987743Y-75476011D01*
X117267095Y-75360299D01*
X117393101Y-75276105D01*
X117393101Y-76453697D01*
X113503089Y-80343709D01*
X113492795Y-80313912D01*
X113399814Y-80139956D01*
X113135413Y-80044192D01*
X112179605Y-81000000D01*
X112193748Y-81014143D01*
X112014143Y-81193748D01*
X112000000Y-81179605D01*
X111044192Y-82135413D01*
X111139956Y-82399814D01*
X111346504Y-82500294D01*
X105414403Y-88432396D01*
X105385399Y-88456199D01*
X105330271Y-88523374D01*
X105290426Y-88571924D01*
X105219855Y-88703953D01*
X105219854Y-88703954D01*
X105176397Y-88847215D01*
X105165400Y-88958868D01*
X105165400Y-88958878D01*
X105161724Y-88996200D01*
X105165400Y-89033523D01*
X105165401Y-93216468D01*
X105161724Y-93253800D01*
X105165401Y-93291133D01*
X105172840Y-93366656D01*
X105176398Y-93402785D01*
X105219854Y-93546046D01*
X105290426Y-93678076D01*
X105361601Y-93764802D01*
X105385400Y-93793801D01*
X105414398Y-93817599D01*
X105495300Y-93898501D01*
X105495301Y-113028516D01*
X105226260Y-112975000D01*
X104933740Y-112975000D01*
X104646842Y-113032068D01*
X104570000Y-113063897D01*
X104570000Y-96847322D01*
X104573676Y-96809999D01*
X104570000Y-96772676D01*
X104570000Y-96772667D01*
X104559003Y-96661014D01*
X104515546Y-96517753D01*
X104444974Y-96385724D01*
X104431811Y-96369685D01*
X104373799Y-96298996D01*
X104373795Y-96298992D01*
X104350001Y-96269999D01*
X104321010Y-96246207D01*
X94066177Y-85991376D01*
X94072168Y-85976912D01*
X94135000Y-85661033D01*
X94135000Y-85338967D01*
X94072168Y-85023088D01*
X93948918Y-84725537D01*
X93769987Y-84457748D01*
X93542252Y-84230013D01*
X93274463Y-84051082D01*
X92976912Y-83927832D01*
X92661033Y-83865000D01*
X92338967Y-83865000D01*
X92023088Y-83927832D01*
X91725537Y-84051082D01*
X91457748Y-84230013D01*
X91230013Y-84457748D01*
X91051082Y-84725537D01*
X90927832Y-85023088D01*
X90865000Y-85338967D01*
X90865000Y-85661033D01*
X90927832Y-85976912D01*
X91051082Y-86274463D01*
X91230013Y-86542252D01*
X91457748Y-86769987D01*
X91725537Y-86948918D01*
X92023088Y-87072168D01*
X92338967Y-87135000D01*
X92661033Y-87135000D01*
X92976912Y-87072168D01*
X92991376Y-87066177D01*
X103050000Y-97124803D01*
X103050001Y-113065986D01*
X103044099Y-113063175D01*
X102896890Y-113018524D01*
X102667000Y-113139845D01*
X102667000Y-114333000D01*
X102687000Y-114333000D01*
X102687000Y-114587000D01*
X102667000Y-114587000D01*
X102667000Y-114607000D01*
X102413000Y-114607000D01*
X102413000Y-114587000D01*
X102393000Y-114587000D01*
X102393000Y-114333000D01*
X102413000Y-114333000D01*
X102413000Y-113139845D01*
X102183110Y-113018524D01*
X102035901Y-113063175D01*
X101773080Y-113188359D01*
X101539731Y-113362412D01*
X101344822Y-113578645D01*
X101275195Y-113695534D01*
X101153475Y-113513368D01*
X100946632Y-113306525D01*
X100703411Y-113144010D01*
X100433158Y-113032068D01*
X100146260Y-112975000D01*
X99853740Y-112975000D01*
X99566842Y-113032068D01*
X99296589Y-113144010D01*
X99053368Y-113306525D01*
X98846525Y-113513368D01*
X98684010Y-113756589D01*
X98572068Y-114026842D01*
X98515000Y-114313740D01*
X98515000Y-114606260D01*
X98572068Y-114893158D01*
X98684010Y-115163411D01*
X98846525Y-115406632D01*
X98978380Y-115538487D01*
X98905820Y-115560498D01*
X98795506Y-115619463D01*
X98698815Y-115698815D01*
X98653515Y-115754013D01*
X89433145Y-106533644D01*
X89566553Y-106540991D01*
X89865907Y-106498397D01*
X90151199Y-106398222D01*
X90300792Y-106318261D01*
X90384475Y-106064080D01*
X89500000Y-105179605D01*
X89485858Y-105193748D01*
X89306253Y-105014143D01*
X89320395Y-105000000D01*
X89679605Y-105000000D01*
X90564080Y-105884475D01*
X90712262Y-105835690D01*
X90807688Y-105978505D01*
X91021495Y-106192312D01*
X91272905Y-106360299D01*
X91552257Y-106476011D01*
X91848816Y-106535000D01*
X92151184Y-106535000D01*
X92447743Y-106476011D01*
X92727095Y-106360299D01*
X92978505Y-106192312D01*
X93192312Y-105978505D01*
X93360299Y-105727095D01*
X93476011Y-105447743D01*
X93535000Y-105151184D01*
X93535000Y-104848816D01*
X93476011Y-104552257D01*
X93360299Y-104272905D01*
X93192312Y-104021495D01*
X92978505Y-103807688D01*
X92727095Y-103639701D01*
X92447743Y-103523989D01*
X92151184Y-103465000D01*
X91848816Y-103465000D01*
X91552257Y-103523989D01*
X91272905Y-103639701D01*
X91021495Y-103807688D01*
X90807688Y-104021495D01*
X90712262Y-104164310D01*
X90564080Y-104115525D01*
X89679605Y-105000000D01*
X89320395Y-105000000D01*
X89306253Y-104985858D01*
X89485858Y-104806253D01*
X89500000Y-104820395D01*
X90384475Y-103935920D01*
X90300792Y-103681739D01*
X90028225Y-103550842D01*
X89735358Y-103475635D01*
X89433447Y-103459009D01*
X89134093Y-103501603D01*
X88848801Y-103601778D01*
X88699208Y-103681739D01*
X88647277Y-103839475D01*
X85612704Y-100804903D01*
X85588901Y-100775899D01*
X85473176Y-100680926D01*
X85341147Y-100610354D01*
X85267239Y-100587934D01*
X85757154Y-100490484D01*
X86323137Y-100256046D01*
X86832509Y-99915695D01*
X87265695Y-99482509D01*
X87606046Y-98973137D01*
X87840484Y-98407154D01*
X87960000Y-97806308D01*
X87960000Y-97193692D01*
X91040000Y-97193692D01*
X91040000Y-97806308D01*
X91159516Y-98407154D01*
X91393954Y-98973137D01*
X91734305Y-99482509D01*
X92167491Y-99915695D01*
X92676863Y-100256046D01*
X93242846Y-100490484D01*
X93843692Y-100610000D01*
X94456308Y-100610000D01*
X95057154Y-100490484D01*
X95623137Y-100256046D01*
X96132509Y-99915695D01*
X96565695Y-99482509D01*
X96906046Y-98973137D01*
X97140484Y-98407154D01*
X97260000Y-97806308D01*
X97260000Y-97193692D01*
X97140484Y-96592846D01*
X96906046Y-96026863D01*
X96565695Y-95517491D01*
X96132509Y-95084305D01*
X95623137Y-94743954D01*
X95057154Y-94509516D01*
X94456308Y-94390000D01*
X93843692Y-94390000D01*
X93242846Y-94509516D01*
X92676863Y-94743954D01*
X92167491Y-95084305D01*
X91734305Y-95517491D01*
X91393954Y-96026863D01*
X91159516Y-96592846D01*
X91040000Y-97193692D01*
X87960000Y-97193692D01*
X87840484Y-96592846D01*
X87606046Y-96026863D01*
X87265695Y-95517491D01*
X86832509Y-95084305D01*
X86323137Y-94743954D01*
X85757154Y-94509516D01*
X85156308Y-94390000D01*
X84543692Y-94390000D01*
X83942846Y-94509516D01*
X83376863Y-94743954D01*
X82867491Y-95084305D01*
X82434305Y-95517491D01*
X82093954Y-96026863D01*
X81859516Y-96592846D01*
X81740000Y-97193692D01*
X81740000Y-97277998D01*
X78222500Y-93760499D01*
X78222500Y-90348816D01*
X85465000Y-90348816D01*
X85465000Y-90651184D01*
X85523989Y-90947743D01*
X85639701Y-91227095D01*
X85807688Y-91478505D01*
X86021495Y-91692312D01*
X86272905Y-91860299D01*
X86552257Y-91976011D01*
X86848816Y-92035000D01*
X87151184Y-92035000D01*
X87447743Y-91976011D01*
X87727095Y-91860299D01*
X87978505Y-91692312D01*
X88106737Y-91564080D01*
X91115525Y-91564080D01*
X91199208Y-91818261D01*
X91471775Y-91949158D01*
X91764642Y-92024365D01*
X92066553Y-92040991D01*
X92365907Y-91998397D01*
X92651199Y-91898222D01*
X92800792Y-91818261D01*
X92884475Y-91564080D01*
X92000000Y-90679605D01*
X91115525Y-91564080D01*
X88106737Y-91564080D01*
X88192312Y-91478505D01*
X88360299Y-91227095D01*
X88476011Y-90947743D01*
X88535000Y-90651184D01*
X88535000Y-90566553D01*
X90459009Y-90566553D01*
X90501603Y-90865907D01*
X90601778Y-91151199D01*
X90681739Y-91300792D01*
X90935920Y-91384475D01*
X91820395Y-90500000D01*
X92179605Y-90500000D01*
X93064080Y-91384475D01*
X93318261Y-91300792D01*
X93449158Y-91028225D01*
X93524365Y-90735358D01*
X93540991Y-90433447D01*
X93498397Y-90134093D01*
X93398222Y-89848801D01*
X93318261Y-89699208D01*
X93064080Y-89615525D01*
X92179605Y-90500000D01*
X91820395Y-90500000D01*
X90935920Y-89615525D01*
X90681739Y-89699208D01*
X90550842Y-89971775D01*
X90475635Y-90264642D01*
X90459009Y-90566553D01*
X88535000Y-90566553D01*
X88535000Y-90348816D01*
X88476011Y-90052257D01*
X88360299Y-89772905D01*
X88192312Y-89521495D01*
X88106737Y-89435920D01*
X91115525Y-89435920D01*
X92000000Y-90320395D01*
X92884475Y-89435920D01*
X92800792Y-89181739D01*
X92528225Y-89050842D01*
X92235358Y-88975635D01*
X91933447Y-88959009D01*
X91634093Y-89001603D01*
X91348801Y-89101778D01*
X91199208Y-89181739D01*
X91115525Y-89435920D01*
X88106737Y-89435920D01*
X87978505Y-89307688D01*
X87727095Y-89139701D01*
X87447743Y-89023989D01*
X87151184Y-88965000D01*
X86848816Y-88965000D01*
X86552257Y-89023989D01*
X86272905Y-89139701D01*
X86021495Y-89307688D01*
X85807688Y-89521495D01*
X85639701Y-89772905D01*
X85523989Y-90052257D01*
X85465000Y-90348816D01*
X78222500Y-90348816D01*
X78222500Y-85741211D01*
X78266437Y-85697274D01*
X78379705Y-85527756D01*
X78457726Y-85339398D01*
X78457811Y-85338967D01*
X84365000Y-85338967D01*
X84365000Y-85661033D01*
X84427832Y-85976912D01*
X84551082Y-86274463D01*
X84730013Y-86542252D01*
X84957748Y-86769987D01*
X85225537Y-86948918D01*
X85523088Y-87072168D01*
X85838967Y-87135000D01*
X86161033Y-87135000D01*
X86476912Y-87072168D01*
X86774463Y-86948918D01*
X87042252Y-86769987D01*
X87269987Y-86542252D01*
X87448918Y-86274463D01*
X87572168Y-85976912D01*
X87635000Y-85661033D01*
X87635000Y-85338967D01*
X87572168Y-85023088D01*
X87448918Y-84725537D01*
X87269987Y-84457748D01*
X87042252Y-84230013D01*
X86774463Y-84051082D01*
X86476912Y-83927832D01*
X86161033Y-83865000D01*
X85838967Y-83865000D01*
X85523088Y-83927832D01*
X85225537Y-84051082D01*
X84957748Y-84230013D01*
X84730013Y-84457748D01*
X84551082Y-84725537D01*
X84427832Y-85023088D01*
X84365000Y-85338967D01*
X78457811Y-85338967D01*
X78497500Y-85139439D01*
X78497500Y-84935561D01*
X78457726Y-84735602D01*
X78379705Y-84547244D01*
X78266437Y-84377726D01*
X78222500Y-84333789D01*
X78222500Y-82744722D01*
X78226176Y-82707399D01*
X78222500Y-82670076D01*
X78222500Y-82670067D01*
X78211503Y-82558414D01*
X78168046Y-82415153D01*
X78159847Y-82399814D01*
X78097474Y-82283123D01*
X78026299Y-82196397D01*
X78002501Y-82167399D01*
X77973503Y-82143601D01*
X77965315Y-82135413D01*
X85044192Y-82135413D01*
X85139956Y-82399814D01*
X85429571Y-82540704D01*
X85741108Y-82622384D01*
X86062595Y-82641718D01*
X86381675Y-82597961D01*
X86686088Y-82492795D01*
X86860044Y-82399814D01*
X86955808Y-82135413D01*
X91544192Y-82135413D01*
X91639956Y-82399814D01*
X91929571Y-82540704D01*
X92241108Y-82622384D01*
X92562595Y-82641718D01*
X92881675Y-82597961D01*
X93186088Y-82492795D01*
X93360044Y-82399814D01*
X93455808Y-82135413D01*
X92500000Y-81179605D01*
X91544192Y-82135413D01*
X86955808Y-82135413D01*
X86000000Y-81179605D01*
X85044192Y-82135413D01*
X77965315Y-82135413D01*
X76892497Y-81062595D01*
X84358282Y-81062595D01*
X84402039Y-81381675D01*
X84507205Y-81686088D01*
X84600186Y-81860044D01*
X84864587Y-81955808D01*
X85820395Y-81000000D01*
X86179605Y-81000000D01*
X87135413Y-81955808D01*
X87399814Y-81860044D01*
X87540704Y-81570429D01*
X87622384Y-81258892D01*
X87634189Y-81062595D01*
X90858282Y-81062595D01*
X90902039Y-81381675D01*
X91007205Y-81686088D01*
X91100186Y-81860044D01*
X91364587Y-81955808D01*
X92320395Y-81000000D01*
X92679605Y-81000000D01*
X93635413Y-81955808D01*
X93899814Y-81860044D01*
X94040704Y-81570429D01*
X94122384Y-81258892D01*
X94134189Y-81062595D01*
X110358282Y-81062595D01*
X110402039Y-81381675D01*
X110507205Y-81686088D01*
X110600186Y-81860044D01*
X110864587Y-81955808D01*
X111820395Y-81000000D01*
X110864587Y-80044192D01*
X110600186Y-80139956D01*
X110459296Y-80429571D01*
X110377616Y-80741108D01*
X110358282Y-81062595D01*
X94134189Y-81062595D01*
X94141718Y-80937405D01*
X94097961Y-80618325D01*
X93992795Y-80313912D01*
X93899814Y-80139956D01*
X93635413Y-80044192D01*
X92679605Y-81000000D01*
X92320395Y-81000000D01*
X91364587Y-80044192D01*
X91100186Y-80139956D01*
X90959296Y-80429571D01*
X90877616Y-80741108D01*
X90858282Y-81062595D01*
X87634189Y-81062595D01*
X87641718Y-80937405D01*
X87597961Y-80618325D01*
X87492795Y-80313912D01*
X87399814Y-80139956D01*
X87135413Y-80044192D01*
X86179605Y-81000000D01*
X85820395Y-81000000D01*
X84864587Y-80044192D01*
X84600186Y-80139956D01*
X84459296Y-80429571D01*
X84377616Y-80741108D01*
X84358282Y-81062595D01*
X76892497Y-81062595D01*
X75694489Y-79864587D01*
X85044192Y-79864587D01*
X86000000Y-80820395D01*
X86955808Y-79864587D01*
X91544192Y-79864587D01*
X92500000Y-80820395D01*
X93455808Y-79864587D01*
X111044192Y-79864587D01*
X112000000Y-80820395D01*
X112955808Y-79864587D01*
X112860044Y-79600186D01*
X112570429Y-79459296D01*
X112258892Y-79377616D01*
X111937405Y-79358282D01*
X111618325Y-79402039D01*
X111313912Y-79507205D01*
X111139956Y-79600186D01*
X111044192Y-79864587D01*
X93455808Y-79864587D01*
X93360044Y-79600186D01*
X93070429Y-79459296D01*
X92758892Y-79377616D01*
X92437405Y-79358282D01*
X92118325Y-79402039D01*
X91813912Y-79507205D01*
X91639956Y-79600186D01*
X91544192Y-79864587D01*
X86955808Y-79864587D01*
X86860044Y-79600186D01*
X86570429Y-79459296D01*
X86258892Y-79377616D01*
X85937405Y-79358282D01*
X85618325Y-79402039D01*
X85313912Y-79507205D01*
X85139956Y-79600186D01*
X85044192Y-79864587D01*
X75694489Y-79864587D01*
X75400100Y-79570199D01*
X75400100Y-79508061D01*
X75360326Y-79308102D01*
X75282305Y-79119744D01*
X75169037Y-78950226D01*
X75024874Y-78806063D01*
X74855356Y-78692795D01*
X74666998Y-78614774D01*
X74467039Y-78575000D01*
X74263161Y-78575000D01*
X74063202Y-78614774D01*
X73874844Y-78692795D01*
X73705326Y-78806063D01*
X73561163Y-78950226D01*
X73447895Y-79119744D01*
X73369874Y-79308102D01*
X73330100Y-79508061D01*
X73330100Y-79711939D01*
X73369874Y-79911898D01*
X73447895Y-80100256D01*
X73561163Y-80269774D01*
X73705326Y-80413937D01*
X73874844Y-80527205D01*
X74063202Y-80605226D01*
X74263161Y-80645000D01*
X74325299Y-80645000D01*
X76702501Y-83022203D01*
X76702500Y-84333789D01*
X76658563Y-84377726D01*
X76545295Y-84547244D01*
X76467274Y-84735602D01*
X76427500Y-84935561D01*
X76427500Y-85139439D01*
X76467274Y-85339398D01*
X76545295Y-85527756D01*
X76658563Y-85697274D01*
X76702501Y-85741212D01*
X76702500Y-91841400D01*
X76635261Y-91841400D01*
X76435302Y-91881174D01*
X76246944Y-91959195D01*
X76077426Y-92072463D01*
X75933263Y-92216626D01*
X75819995Y-92386144D01*
X75741974Y-92574502D01*
X75702200Y-92774461D01*
X75702200Y-92978339D01*
X75741974Y-93178298D01*
X75819995Y-93366656D01*
X75933263Y-93536174D01*
X75977201Y-93580112D01*
X75977200Y-94824199D01*
X67732620Y-86579619D01*
X67769987Y-86542252D01*
X67948918Y-86274463D01*
X68072168Y-85976912D01*
X68135000Y-85661033D01*
X68135000Y-85338967D01*
X68072168Y-85023088D01*
X67948918Y-84725537D01*
X67769987Y-84457748D01*
X67542252Y-84230013D01*
X67274463Y-84051082D01*
X66976912Y-83927832D01*
X66661033Y-83865000D01*
X66338967Y-83865000D01*
X66023088Y-83927832D01*
X65725537Y-84051082D01*
X65457748Y-84230013D01*
X65230013Y-84457748D01*
X65051082Y-84725537D01*
X64927832Y-85023088D01*
X64865000Y-85338967D01*
X61635000Y-85338967D01*
X61572168Y-85023088D01*
X61448918Y-84725537D01*
X61269987Y-84457748D01*
X61042252Y-84230013D01*
X60774463Y-84051082D01*
X60476912Y-83927832D01*
X60161033Y-83865000D01*
X59838967Y-83865000D01*
X59523088Y-83927832D01*
X59225537Y-84051082D01*
X58957748Y-84230013D01*
X58730013Y-84457748D01*
X58551082Y-84725537D01*
X58427832Y-85023088D01*
X58365000Y-85338967D01*
X54237577Y-85338967D01*
X54367716Y-85144201D01*
X54470236Y-84896697D01*
X54522500Y-84633948D01*
X54522500Y-84366052D01*
X54470236Y-84103303D01*
X54367716Y-83855799D01*
X54218881Y-83633051D01*
X54029449Y-83443619D01*
X53806701Y-83294784D01*
X53559197Y-83192264D01*
X53296448Y-83140000D01*
X53028552Y-83140000D01*
X52765803Y-83192264D01*
X52518299Y-83294784D01*
X52295551Y-83443619D01*
X52106119Y-83633051D01*
X51957284Y-83855799D01*
X51854764Y-84103303D01*
X51802500Y-84366052D01*
X51802500Y-84633948D01*
X51835484Y-84799768D01*
X51690002Y-84622498D01*
X51501949Y-84468167D01*
X51287401Y-84353489D01*
X51054602Y-84282870D01*
X50873165Y-84265000D01*
X50051835Y-84265000D01*
X49870398Y-84282870D01*
X49660000Y-84346694D01*
X49660000Y-82135413D01*
X59044192Y-82135413D01*
X59139956Y-82399814D01*
X59429571Y-82540704D01*
X59741108Y-82622384D01*
X60062595Y-82641718D01*
X60381675Y-82597961D01*
X60686088Y-82492795D01*
X60860044Y-82399814D01*
X60955808Y-82135413D01*
X65544192Y-82135413D01*
X65639956Y-82399814D01*
X65929571Y-82540704D01*
X66241108Y-82622384D01*
X66562595Y-82641718D01*
X66881675Y-82597961D01*
X67186088Y-82492795D01*
X67360044Y-82399814D01*
X67455808Y-82135413D01*
X66500000Y-81179605D01*
X65544192Y-82135413D01*
X60955808Y-82135413D01*
X60000000Y-81179605D01*
X59044192Y-82135413D01*
X49660000Y-82135413D01*
X49660000Y-81062595D01*
X58358282Y-81062595D01*
X58402039Y-81381675D01*
X58507205Y-81686088D01*
X58600186Y-81860044D01*
X58864587Y-81955808D01*
X59820395Y-81000000D01*
X60179605Y-81000000D01*
X61135413Y-81955808D01*
X61399814Y-81860044D01*
X61540704Y-81570429D01*
X61622384Y-81258892D01*
X61634189Y-81062595D01*
X64858282Y-81062595D01*
X64902039Y-81381675D01*
X65007205Y-81686088D01*
X65100186Y-81860044D01*
X65364587Y-81955808D01*
X66320395Y-81000000D01*
X66679605Y-81000000D01*
X67635413Y-81955808D01*
X67899814Y-81860044D01*
X68040704Y-81570429D01*
X68122384Y-81258892D01*
X68141718Y-80937405D01*
X68097961Y-80618325D01*
X67992795Y-80313912D01*
X67899814Y-80139956D01*
X67635413Y-80044192D01*
X66679605Y-81000000D01*
X66320395Y-81000000D01*
X65364587Y-80044192D01*
X65100186Y-80139956D01*
X64959296Y-80429571D01*
X64877616Y-80741108D01*
X64858282Y-81062595D01*
X61634189Y-81062595D01*
X61641718Y-80937405D01*
X61597961Y-80618325D01*
X61492795Y-80313912D01*
X61399814Y-80139956D01*
X61135413Y-80044192D01*
X60179605Y-81000000D01*
X59820395Y-81000000D01*
X58864587Y-80044192D01*
X58600186Y-80139956D01*
X58459296Y-80429571D01*
X58377616Y-80741108D01*
X58358282Y-81062595D01*
X49660000Y-81062595D01*
X49660000Y-79653306D01*
X49870398Y-79717130D01*
X50051835Y-79735000D01*
X50873165Y-79735000D01*
X51054602Y-79717130D01*
X51287401Y-79646511D01*
X51501949Y-79531833D01*
X51690002Y-79377502D01*
X51786433Y-79260000D01*
X51823595Y-79260000D01*
X51802500Y-79366052D01*
X51802500Y-79633948D01*
X51854764Y-79896697D01*
X51957284Y-80144201D01*
X52106119Y-80366949D01*
X52295551Y-80556381D01*
X52518299Y-80705216D01*
X52765803Y-80807736D01*
X53028552Y-80860000D01*
X53296448Y-80860000D01*
X53559197Y-80807736D01*
X53806701Y-80705216D01*
X54029449Y-80556381D01*
X54218881Y-80366949D01*
X54367716Y-80144201D01*
X54470236Y-79896697D01*
X54476623Y-79864587D01*
X59044192Y-79864587D01*
X60000000Y-80820395D01*
X60955808Y-79864587D01*
X65544192Y-79864587D01*
X66500000Y-80820395D01*
X67455808Y-79864587D01*
X67360044Y-79600186D01*
X67070429Y-79459296D01*
X66758892Y-79377616D01*
X66437405Y-79358282D01*
X66118325Y-79402039D01*
X65813912Y-79507205D01*
X65639956Y-79600186D01*
X65544192Y-79864587D01*
X60955808Y-79864587D01*
X60860044Y-79600186D01*
X60570429Y-79459296D01*
X60258892Y-79377616D01*
X59937405Y-79358282D01*
X59618325Y-79402039D01*
X59313912Y-79507205D01*
X59139956Y-79600186D01*
X59044192Y-79864587D01*
X54476623Y-79864587D01*
X54522500Y-79633948D01*
X54522500Y-79366052D01*
X54470236Y-79103303D01*
X54367716Y-78855799D01*
X54218881Y-78633051D01*
X54029449Y-78443619D01*
X53806701Y-78294784D01*
X53559197Y-78192264D01*
X53296448Y-78140000D01*
X53028552Y-78140000D01*
X52902395Y-78165094D01*
X52726304Y-77989002D01*
X52702501Y-77959999D01*
X52586776Y-77865026D01*
X52454747Y-77794454D01*
X52311486Y-77750997D01*
X52199833Y-77740000D01*
X52199822Y-77740000D01*
X52162500Y-77736324D01*
X52125178Y-77740000D01*
X51786433Y-77740000D01*
X51690002Y-77622498D01*
X51501949Y-77468167D01*
X51287401Y-77353489D01*
X51054602Y-77282870D01*
X50873165Y-77265000D01*
X50051835Y-77265000D01*
X49870398Y-77282870D01*
X49660000Y-77346694D01*
X49660000Y-74900000D01*
X60461928Y-74900000D01*
X60474188Y-75024482D01*
X60510498Y-75144180D01*
X60569463Y-75254494D01*
X60648815Y-75351185D01*
X60745506Y-75430537D01*
X60855820Y-75489502D01*
X60975518Y-75525812D01*
X61100000Y-75538072D01*
X61714250Y-75535000D01*
X61873000Y-75376250D01*
X61873000Y-74127000D01*
X60623750Y-74127000D01*
X60465000Y-74285750D01*
X60461928Y-74900000D01*
X49660000Y-74900000D01*
X49660000Y-73100000D01*
X60461928Y-73100000D01*
X60465000Y-73714250D01*
X60623750Y-73873000D01*
X61873000Y-73873000D01*
X61873000Y-72623750D01*
X62127000Y-72623750D01*
X62127000Y-73873000D01*
X62147000Y-73873000D01*
X62147000Y-74127000D01*
X62127000Y-74127000D01*
X62127000Y-75376250D01*
X62285750Y-75535000D01*
X62900000Y-75538072D01*
X63024482Y-75525812D01*
X63144180Y-75489502D01*
X63254494Y-75430537D01*
X63351185Y-75351185D01*
X63430537Y-75254494D01*
X63489502Y-75144180D01*
X63495056Y-75125873D01*
X63561495Y-75192312D01*
X63812905Y-75360299D01*
X64092257Y-75476011D01*
X64388816Y-75535000D01*
X64691184Y-75535000D01*
X64987743Y-75476011D01*
X65267095Y-75360299D01*
X65518505Y-75192312D01*
X65732312Y-74978505D01*
X65784767Y-74900000D01*
X86461928Y-74900000D01*
X86474188Y-75024482D01*
X86510498Y-75144180D01*
X86569463Y-75254494D01*
X86648815Y-75351185D01*
X86745506Y-75430537D01*
X86855820Y-75489502D01*
X86975518Y-75525812D01*
X87100000Y-75538072D01*
X87714250Y-75535000D01*
X87873000Y-75376250D01*
X87873000Y-74127000D01*
X86623750Y-74127000D01*
X86465000Y-74285750D01*
X86461928Y-74900000D01*
X65784767Y-74900000D01*
X65900299Y-74727095D01*
X66016011Y-74447743D01*
X66075000Y-74151184D01*
X66075000Y-73848816D01*
X66016011Y-73552257D01*
X65900299Y-73272905D01*
X65784768Y-73100000D01*
X86461928Y-73100000D01*
X86465000Y-73714250D01*
X86623750Y-73873000D01*
X87873000Y-73873000D01*
X87873000Y-72623750D01*
X88127000Y-72623750D01*
X88127000Y-73873000D01*
X88147000Y-73873000D01*
X88147000Y-74127000D01*
X88127000Y-74127000D01*
X88127000Y-75376250D01*
X88285750Y-75535000D01*
X88900000Y-75538072D01*
X89024482Y-75525812D01*
X89144180Y-75489502D01*
X89254494Y-75430537D01*
X89351185Y-75351185D01*
X89430537Y-75254494D01*
X89489502Y-75144180D01*
X89495056Y-75125873D01*
X89561495Y-75192312D01*
X89812905Y-75360299D01*
X90092257Y-75476011D01*
X90388816Y-75535000D01*
X90691184Y-75535000D01*
X90987743Y-75476011D01*
X91267095Y-75360299D01*
X91518505Y-75192312D01*
X91732312Y-74978505D01*
X91784767Y-74900000D01*
X112461928Y-74900000D01*
X112474188Y-75024482D01*
X112510498Y-75144180D01*
X112569463Y-75254494D01*
X112648815Y-75351185D01*
X112745506Y-75430537D01*
X112855820Y-75489502D01*
X112975518Y-75525812D01*
X113100000Y-75538072D01*
X113714250Y-75535000D01*
X113873000Y-75376250D01*
X113873000Y-74127000D01*
X112623750Y-74127000D01*
X112465000Y-74285750D01*
X112461928Y-74900000D01*
X91784767Y-74900000D01*
X91900299Y-74727095D01*
X92016011Y-74447743D01*
X92075000Y-74151184D01*
X92075000Y-73848816D01*
X92016011Y-73552257D01*
X91900299Y-73272905D01*
X91784768Y-73100000D01*
X112461928Y-73100000D01*
X112465000Y-73714250D01*
X112623750Y-73873000D01*
X113873000Y-73873000D01*
X113873000Y-72623750D01*
X113714250Y-72465000D01*
X113100000Y-72461928D01*
X112975518Y-72474188D01*
X112855820Y-72510498D01*
X112745506Y-72569463D01*
X112648815Y-72648815D01*
X112569463Y-72745506D01*
X112510498Y-72855820D01*
X112474188Y-72975518D01*
X112461928Y-73100000D01*
X91784768Y-73100000D01*
X91732312Y-73021495D01*
X91518505Y-72807688D01*
X91267095Y-72639701D01*
X90987743Y-72523989D01*
X90691184Y-72465000D01*
X90388816Y-72465000D01*
X90092257Y-72523989D01*
X89812905Y-72639701D01*
X89561495Y-72807688D01*
X89495056Y-72874127D01*
X89489502Y-72855820D01*
X89430537Y-72745506D01*
X89351185Y-72648815D01*
X89254494Y-72569463D01*
X89144180Y-72510498D01*
X89024482Y-72474188D01*
X88900000Y-72461928D01*
X88285750Y-72465000D01*
X88127000Y-72623750D01*
X87873000Y-72623750D01*
X87714250Y-72465000D01*
X87100000Y-72461928D01*
X86975518Y-72474188D01*
X86855820Y-72510498D01*
X86745506Y-72569463D01*
X86648815Y-72648815D01*
X86569463Y-72745506D01*
X86510498Y-72855820D01*
X86474188Y-72975518D01*
X86461928Y-73100000D01*
X65784768Y-73100000D01*
X65732312Y-73021495D01*
X65518505Y-72807688D01*
X65267095Y-72639701D01*
X64987743Y-72523989D01*
X64691184Y-72465000D01*
X64388816Y-72465000D01*
X64092257Y-72523989D01*
X63812905Y-72639701D01*
X63561495Y-72807688D01*
X63495056Y-72874127D01*
X63489502Y-72855820D01*
X63430537Y-72745506D01*
X63351185Y-72648815D01*
X63254494Y-72569463D01*
X63144180Y-72510498D01*
X63024482Y-72474188D01*
X62900000Y-72461928D01*
X62285750Y-72465000D01*
X62127000Y-72623750D01*
X61873000Y-72623750D01*
X61714250Y-72465000D01*
X61100000Y-72461928D01*
X60975518Y-72474188D01*
X60855820Y-72510498D01*
X60745506Y-72569463D01*
X60648815Y-72648815D01*
X60569463Y-72745506D01*
X60510498Y-72855820D01*
X60474188Y-72975518D01*
X60461928Y-73100000D01*
X49660000Y-73100000D01*
X49660000Y-67789721D01*
X51865000Y-67789721D01*
X51865000Y-68210279D01*
X51947047Y-68622756D01*
X52107988Y-69011302D01*
X52341637Y-69360983D01*
X52639017Y-69658363D01*
X52988698Y-69892012D01*
X53377244Y-70052953D01*
X53789721Y-70135000D01*
X54210279Y-70135000D01*
X54622756Y-70052953D01*
X55011302Y-69892012D01*
X55360983Y-69658363D01*
X55658363Y-69360983D01*
X55892012Y-69011302D01*
X56052953Y-68622756D01*
X56135000Y-68210279D01*
X56135000Y-67789721D01*
X174865000Y-67789721D01*
X174865000Y-68210279D01*
X174947047Y-68622756D01*
X175107988Y-69011302D01*
X175341637Y-69360983D01*
X175639017Y-69658363D01*
X175988698Y-69892012D01*
X176377244Y-70052953D01*
X176789721Y-70135000D01*
X177210279Y-70135000D01*
X177622756Y-70052953D01*
X178011302Y-69892012D01*
X178360983Y-69658363D01*
X178658363Y-69360983D01*
X178892012Y-69011302D01*
X179052953Y-68622756D01*
X179135000Y-68210279D01*
X179135000Y-67789721D01*
X179052953Y-67377244D01*
X178892012Y-66988698D01*
X178658363Y-66639017D01*
X178360983Y-66341637D01*
X178011302Y-66107988D01*
X177622756Y-65947047D01*
X177210279Y-65865000D01*
X176789721Y-65865000D01*
X176377244Y-65947047D01*
X175988698Y-66107988D01*
X175639017Y-66341637D01*
X175341637Y-66639017D01*
X175107988Y-66988698D01*
X174947047Y-67377244D01*
X174865000Y-67789721D01*
X56135000Y-67789721D01*
X56052953Y-67377244D01*
X55892012Y-66988698D01*
X55658363Y-66639017D01*
X55360983Y-66341637D01*
X55011302Y-66107988D01*
X54622756Y-65947047D01*
X54210279Y-65865000D01*
X53789721Y-65865000D01*
X53377244Y-65947047D01*
X52988698Y-66107988D01*
X52639017Y-66341637D01*
X52341637Y-66639017D01*
X52107988Y-66988698D01*
X51947047Y-67377244D01*
X51865000Y-67789721D01*
X49660000Y-67789721D01*
X49660000Y-66032279D01*
X49707670Y-65546107D01*
X49839489Y-65109502D01*
X50053600Y-64706815D01*
X50341848Y-64353388D01*
X50693261Y-64062673D01*
X51094439Y-63845758D01*
X51530113Y-63710894D01*
X52014344Y-63660000D01*
X178967721Y-63660000D01*
X179453893Y-63707670D01*
G36*
X153037863Y-99716274D02*
G01*
X153081800Y-99760211D01*
X153081800Y-100078297D01*
X136862046Y-116298053D01*
X136755178Y-116118645D01*
X136560269Y-115902412D01*
X136329120Y-115730000D01*
X136560269Y-115557588D01*
X136755178Y-115341355D01*
X136904157Y-115091252D01*
X137001481Y-114816891D01*
X136880814Y-114587000D01*
X135687000Y-114587000D01*
X135687000Y-116873000D01*
X135707000Y-116873000D01*
X135707000Y-117127000D01*
X135687000Y-117127000D01*
X135687000Y-117147000D01*
X135433000Y-117147000D01*
X135433000Y-117127000D01*
X133147000Y-117127000D01*
X133147000Y-117147000D01*
X132893000Y-117147000D01*
X132893000Y-117127000D01*
X132873000Y-117127000D01*
X132873000Y-116873000D01*
X132893000Y-116873000D01*
X132893000Y-116853000D01*
X133147000Y-116853000D01*
X133147000Y-116873000D01*
X135433000Y-116873000D01*
X135433000Y-114587000D01*
X135413000Y-114587000D01*
X135413000Y-114333000D01*
X135433000Y-114333000D01*
X135433000Y-114313000D01*
X135687000Y-114313000D01*
X135687000Y-114333000D01*
X136880814Y-114333000D01*
X137001481Y-114103109D01*
X136980762Y-114044700D01*
X138088578Y-114044700D01*
X138125900Y-114048376D01*
X138163222Y-114044700D01*
X138163233Y-114044700D01*
X138274886Y-114033703D01*
X138418147Y-113990246D01*
X138550176Y-113919674D01*
X138665901Y-113824701D01*
X138689704Y-113795697D01*
X152930223Y-99555179D01*
X153037863Y-99716274D01*
G37*
X153037863Y-99716274D02*
X153081800Y-99760211D01*
X153081800Y-100078297D01*
X136862046Y-116298053D01*
X136755178Y-116118645D01*
X136560269Y-115902412D01*
X136329120Y-115730000D01*
X136560269Y-115557588D01*
X136755178Y-115341355D01*
X136904157Y-115091252D01*
X137001481Y-114816891D01*
X136880814Y-114587000D01*
X135687000Y-114587000D01*
X135687000Y-116873000D01*
X135707000Y-116873000D01*
X135707000Y-117127000D01*
X135687000Y-117127000D01*
X135687000Y-117147000D01*
X135433000Y-117147000D01*
X135433000Y-117127000D01*
X133147000Y-117127000D01*
X133147000Y-117147000D01*
X132893000Y-117147000D01*
X132893000Y-117127000D01*
X132873000Y-117127000D01*
X132873000Y-116873000D01*
X132893000Y-116873000D01*
X132893000Y-116853000D01*
X133147000Y-116853000D01*
X133147000Y-116873000D01*
X135433000Y-116873000D01*
X135433000Y-114587000D01*
X135413000Y-114587000D01*
X135413000Y-114333000D01*
X135433000Y-114333000D01*
X135433000Y-114313000D01*
X135687000Y-114313000D01*
X135687000Y-114333000D01*
X136880814Y-114333000D01*
X137001481Y-114103109D01*
X136980762Y-114044700D01*
X138088578Y-114044700D01*
X138125900Y-114048376D01*
X138163222Y-114044700D01*
X138163233Y-114044700D01*
X138274886Y-114033703D01*
X138418147Y-113990246D01*
X138550176Y-113919674D01*
X138665901Y-113824701D01*
X138689704Y-113795697D01*
X152930223Y-99555179D01*
X153037863Y-99716274D01*
G36*
X137811099Y-112524700D02*
G01*
X135040522Y-112524700D01*
X135003199Y-112521024D01*
X134965876Y-112524700D01*
X134965867Y-112524700D01*
X134854214Y-112535697D01*
X134710953Y-112579154D01*
X134578923Y-112649726D01*
X134507913Y-112708003D01*
X134463199Y-112744699D01*
X134439401Y-112773697D01*
X133930630Y-113282469D01*
X133729574Y-113148128D01*
X139489202Y-107388500D01*
X142947299Y-107388500D01*
X137811099Y-112524700D01*
G37*
X137811099Y-112524700D02*
X135040522Y-112524700D01*
X135003199Y-112521024D01*
X134965876Y-112524700D01*
X134965867Y-112524700D01*
X134854214Y-112535697D01*
X134710953Y-112579154D01*
X134578923Y-112649726D01*
X134507913Y-112708003D01*
X134463199Y-112744699D01*
X134439401Y-112773697D01*
X133930630Y-113282469D01*
X133729574Y-113148128D01*
X139489202Y-107388500D01*
X142947299Y-107388500D01*
X137811099Y-112524700D01*
G36*
X115693748Y-104985858D02*
G01*
X115679605Y-105000000D01*
X115693748Y-105014143D01*
X115514143Y-105193748D01*
X115500000Y-105179605D01*
X115485858Y-105193748D01*
X115306253Y-105014143D01*
X115320395Y-105000000D01*
X115306253Y-104985858D01*
X115485858Y-104806253D01*
X115500000Y-104820395D01*
X115514143Y-104806253D01*
X115693748Y-104985858D01*
G37*
X115693748Y-104985858D02*
X115679605Y-105000000D01*
X115693748Y-105014143D01*
X115514143Y-105193748D01*
X115500000Y-105179605D01*
X115485858Y-105193748D01*
X115306253Y-105014143D01*
X115320395Y-105000000D01*
X115306253Y-104985858D01*
X115485858Y-104806253D01*
X115500000Y-104820395D01*
X115514143Y-104806253D01*
X115693748Y-104985858D01*
%TD*%
M02*
