M48
INCH,TZ
T1C0.0157
T2C0.0236
T3C0.0335
T4C0.0354
T5C0.0394
T6C0.0433
T7C0.0472
T8C0.1299
%
G90
G05
T1
X21063Y-42028
X21654Y-32776
X21654Y-35433
X22539Y-31496
X23031Y-30020
X23622Y-27559
X23622Y-43307
X25591Y-39370
X25591Y-43307
X25591Y-45276
X27559Y-31496
X27559Y-33465
X27559Y-35433
X27559Y-43307
X27559Y-45276
X29528Y-29528
X29528Y-31496
X29528Y-33465
X29528Y-35433
X29528Y-42126
X29528Y-43307
X29528Y-45276
X30626Y-38973
X30709Y-42126
X31307Y-38744
X31496Y-29528
X31496Y-31496
X31496Y-33465
X31496Y-35433
X31496Y-43307
X31496Y-45276
X33465Y-29528
X33465Y-43307
X33465Y-45276
X35433Y-43307
X35433Y-45276
X37402Y-31496
X37402Y-35433
X37402Y-43307
X37402Y-45276
X39370Y-29528
X39370Y-33465
X39370Y-35433
X39862Y-42028
X40945Y-42028
X41339Y-31496
X41339Y-33465
X41339Y-35433
X43307Y-29528
X43307Y-31496
X43307Y-33465
X43307Y-35433
X49213Y-29528
X49213Y-31496
X49213Y-33465
X49213Y-35433
X49592Y-39000
X49902Y-42028
X50886Y-41929
X51181Y-29528
X51181Y-31496
X51181Y-33465
X51181Y-35433
X53150Y-29528
X53150Y-33465
X53150Y-35433
X55118Y-43307
X57087Y-45276
X59055Y-29528
X59055Y-31496
X59055Y-33465
X59055Y-35433
X59055Y-43307
X59055Y-45276
X60335Y-42028
X60810Y-39068
X61024Y-31496
X61024Y-33465
X61024Y-35433
X61024Y-43307
X61024Y-45276
X61417Y-42028
X62992Y-29528
X62992Y-33465
X62992Y-35433
X62992Y-43307
X62992Y-45276
X64961Y-43307
X64961Y-45276
X66929Y-43307
X66929Y-45276
X68898Y-27559
X68898Y-29528
X68898Y-31496
X68898Y-33465
X68898Y-35433
X68898Y-43307
X69882Y-42028
T3
X20930Y-31299
X20930Y-33268
T4
X34449Y-29134
X34949Y-29134
X35449Y-29134
X35949Y-29134
X24213Y-29134
X24713Y-29134
X25213Y-29134
X25713Y-29134
X65354Y-28740
X65854Y-28740
X66354Y-28740
X66854Y-28740
X54921Y-29134
X55421Y-29134
X55921Y-29134
X56421Y-29134
X44685Y-29134
X45185Y-29134
X45685Y-29134
X46185Y-29134
T5
X38484Y-25984
X38484Y-26984
X39484Y-25984
X39484Y-26984
X40484Y-25984
X40484Y-26984
X41484Y-25984
X41484Y-26984
X42484Y-25984
X42484Y-26984
X43484Y-25984
X43484Y-26984
X44484Y-25984
X44484Y-26984
X45484Y-25984
X45484Y-26984
X46484Y-25984
X46484Y-26984
X47484Y-25984
X47484Y-26984
X48484Y-25984
X48484Y-26984
X49484Y-25984
X49484Y-26984
X50484Y-25984
X50484Y-26984
X51484Y-25984
X51484Y-26984
X52484Y-25984
X52484Y-26984
X38484Y-45276
X38484Y-46276
X39484Y-45276
X39484Y-46276
X40484Y-45276
X40484Y-46276
X41484Y-45276
X41484Y-46276
X42484Y-45276
X42484Y-46276
X43484Y-45276
X43484Y-46276
X44484Y-45276
X44484Y-46276
X45484Y-45276
X45484Y-46276
X46484Y-45276
X46484Y-46276
X47484Y-45276
X47484Y-46276
X48484Y-45276
X48484Y-46276
X49484Y-45276
X49484Y-46276
X50484Y-45276
X50484Y-46276
X51484Y-45276
X51484Y-46276
X52484Y-45276
X52484Y-46276
T6
X23622Y-31890
X23622Y-33661
X26181Y-31890
X26181Y-33661
X64567Y-31890
X64567Y-33661
X67126Y-31890
X67126Y-33661
X44094Y-31890
X44094Y-33661
X46654Y-31890
X46654Y-33661
X54331Y-31890
X54331Y-33661
X56890Y-31890
X56890Y-33661
X33858Y-31890
X33858Y-33661
X36417Y-31890
X36417Y-33661
T7
X44488Y-35630
X44488Y-41339
X45472Y-41339
X46457Y-35630
X46457Y-41339
X54724Y-35630
X54724Y-41339
X55709Y-41339
X56693Y-35630
X56693Y-41339
X24016Y-35630
X24016Y-41339
X25000Y-41339
X25984Y-35630
X25984Y-41339
X34252Y-35630
X34252Y-41339
X35236Y-41339
X36220Y-35630
X36220Y-41339
X64961Y-35630
X64961Y-41339
X65945Y-41339
X66929Y-35630
X66929Y-41339
T8
X43642Y-38386
X47303Y-38386
X53878Y-38386
X57539Y-38386
X23169Y-38386
X26831Y-38386
X33406Y-38386
X37067Y-38386
X64114Y-38386
X67776Y-38386
T2
G00X19729Y-30906
M15
G01X20005Y-30906
M16
G05
G00X20005Y-33661
M15
G01X19729Y-33661
M16
G05
T0
M30
