%TF.GenerationSoftware,KiCad,Pcbnew,(5.1.6)-1*%
%TF.CreationDate,2020-10-09T15:00:49-07:00*%
%TF.ProjectId,Autopilot panel,4175746f-7069-46c6-9f74-2070616e656c,rev?*%
%TF.SameCoordinates,Original*%
%TF.FileFunction,Soldermask,Top*%
%TF.FilePolarity,Negative*%
%FSLAX46Y46*%
G04 Gerber Fmt 4.6, Leading zero omitted, Abs format (unit mm)*
G04 Created by KiCad (PCBNEW (5.1.6)-1) date 2020-10-09 15:00:49*
%MOMM*%
%LPD*%
G01*
G04 APERTURE LIST*
%ADD10C,1.900000*%
%ADD11C,5.050000*%
%ADD12C,3.100000*%
%ADD13R,1.900000X1.900000*%
%ADD14R,2.000000X1.600000*%
%ADD15C,1.550000*%
%ADD16R,1.450000X0.500000*%
%ADD17O,2.000000X1.300000*%
%ADD18R,2.000000X1.300000*%
%ADD19R,1.800000X1.800000*%
%ADD20O,1.800000X1.800000*%
%ADD21C,2.100000*%
G04 APERTURE END LIST*
D10*
%TO.C,J6*%
X139000000Y-105000000D03*
X144000000Y-105000000D03*
X141500000Y-105000000D03*
X139000000Y-90500000D03*
X144000000Y-90500000D03*
D11*
X136850000Y-97500000D03*
X146150000Y-97500000D03*
%TD*%
D12*
%TO.C,HOLE4*%
X177000000Y-68000000D03*
%TD*%
%TO.C,HOLE3*%
X177000000Y-116000000D03*
%TD*%
%TO.C,HOLE2*%
X54000000Y-116000000D03*
%TD*%
%TO.C,HOLE1*%
X54000000Y-68000000D03*
%TD*%
%TO.C,C1*%
G36*
G01*
X54796000Y-78688482D02*
X54796000Y-77775518D01*
G75*
G02*
X55064518Y-77507000I268518J0D01*
G01*
X56027482Y-77507000D01*
G75*
G02*
X56296000Y-77775518I0J-268518D01*
G01*
X56296000Y-78688482D01*
G75*
G02*
X56027482Y-78957000I-268518J0D01*
G01*
X55064518Y-78957000D01*
G75*
G02*
X54796000Y-78688482I0J268518D01*
G01*
G37*
G36*
G01*
X57496000Y-78688482D02*
X57496000Y-77775518D01*
G75*
G02*
X57764518Y-77507000I268518J0D01*
G01*
X58727482Y-77507000D01*
G75*
G02*
X58996000Y-77775518I0J-268518D01*
G01*
X58996000Y-78688482D01*
G75*
G02*
X58727482Y-78957000I-268518J0D01*
G01*
X57764518Y-78957000D01*
G75*
G02*
X57496000Y-78688482I0J268518D01*
G01*
G37*
%TD*%
%TO.C,C2*%
G36*
G01*
X53425000Y-105478262D02*
X53425000Y-104521738D01*
G75*
G02*
X53696738Y-104250000I271738J0D01*
G01*
X54403262Y-104250000D01*
G75*
G02*
X54675000Y-104521738I0J-271738D01*
G01*
X54675000Y-105478262D01*
G75*
G02*
X54403262Y-105750000I-271738J0D01*
G01*
X53696738Y-105750000D01*
G75*
G02*
X53425000Y-105478262I0J271738D01*
G01*
G37*
G36*
G01*
X51375000Y-105478262D02*
X51375000Y-104521738D01*
G75*
G02*
X51646738Y-104250000I271738J0D01*
G01*
X52353262Y-104250000D01*
G75*
G02*
X52625000Y-104521738I0J-271738D01*
G01*
X52625000Y-105478262D01*
G75*
G02*
X52353262Y-105750000I-271738J0D01*
G01*
X51646738Y-105750000D01*
G75*
G02*
X51375000Y-105478262I0J271738D01*
G01*
G37*
%TD*%
%TO.C,C3*%
G36*
G01*
X75650000Y-104521738D02*
X75650000Y-105478262D01*
G75*
G02*
X75378262Y-105750000I-271738J0D01*
G01*
X74671738Y-105750000D01*
G75*
G02*
X74400000Y-105478262I0J271738D01*
G01*
X74400000Y-104521738D01*
G75*
G02*
X74671738Y-104250000I271738J0D01*
G01*
X75378262Y-104250000D01*
G75*
G02*
X75650000Y-104521738I0J-271738D01*
G01*
G37*
G36*
G01*
X73600000Y-104521738D02*
X73600000Y-105478262D01*
G75*
G02*
X73328262Y-105750000I-271738J0D01*
G01*
X72621738Y-105750000D01*
G75*
G02*
X72350000Y-105478262I0J271738D01*
G01*
X72350000Y-104521738D01*
G75*
G02*
X72621738Y-104250000I271738J0D01*
G01*
X73328262Y-104250000D01*
G75*
G02*
X73600000Y-104521738I0J-271738D01*
G01*
G37*
%TD*%
%TO.C,C4*%
G36*
G01*
X77350000Y-105478262D02*
X77350000Y-104521738D01*
G75*
G02*
X77621738Y-104250000I271738J0D01*
G01*
X78328262Y-104250000D01*
G75*
G02*
X78600000Y-104521738I0J-271738D01*
G01*
X78600000Y-105478262D01*
G75*
G02*
X78328262Y-105750000I-271738J0D01*
G01*
X77621738Y-105750000D01*
G75*
G02*
X77350000Y-105478262I0J271738D01*
G01*
G37*
G36*
G01*
X79400000Y-105478262D02*
X79400000Y-104521738D01*
G75*
G02*
X79671738Y-104250000I271738J0D01*
G01*
X80378262Y-104250000D01*
G75*
G02*
X80650000Y-104521738I0J-271738D01*
G01*
X80650000Y-105478262D01*
G75*
G02*
X80378262Y-105750000I-271738J0D01*
G01*
X79671738Y-105750000D01*
G75*
G02*
X79400000Y-105478262I0J271738D01*
G01*
G37*
%TD*%
%TO.C,C5*%
G36*
G01*
X99600000Y-104521738D02*
X99600000Y-105478262D01*
G75*
G02*
X99328262Y-105750000I-271738J0D01*
G01*
X98621738Y-105750000D01*
G75*
G02*
X98350000Y-105478262I0J271738D01*
G01*
X98350000Y-104521738D01*
G75*
G02*
X98621738Y-104250000I271738J0D01*
G01*
X99328262Y-104250000D01*
G75*
G02*
X99600000Y-104521738I0J-271738D01*
G01*
G37*
G36*
G01*
X101650000Y-104521738D02*
X101650000Y-105478262D01*
G75*
G02*
X101378262Y-105750000I-271738J0D01*
G01*
X100671738Y-105750000D01*
G75*
G02*
X100400000Y-105478262I0J271738D01*
G01*
X100400000Y-104521738D01*
G75*
G02*
X100671738Y-104250000I271738J0D01*
G01*
X101378262Y-104250000D01*
G75*
G02*
X101650000Y-104521738I0J-271738D01*
G01*
G37*
%TD*%
%TO.C,C6*%
G36*
G01*
X103350000Y-105478262D02*
X103350000Y-104521738D01*
G75*
G02*
X103621738Y-104250000I271738J0D01*
G01*
X104328262Y-104250000D01*
G75*
G02*
X104600000Y-104521738I0J-271738D01*
G01*
X104600000Y-105478262D01*
G75*
G02*
X104328262Y-105750000I-271738J0D01*
G01*
X103621738Y-105750000D01*
G75*
G02*
X103350000Y-105478262I0J271738D01*
G01*
G37*
G36*
G01*
X105400000Y-105478262D02*
X105400000Y-104521738D01*
G75*
G02*
X105671738Y-104250000I271738J0D01*
G01*
X106378262Y-104250000D01*
G75*
G02*
X106650000Y-104521738I0J-271738D01*
G01*
X106650000Y-105478262D01*
G75*
G02*
X106378262Y-105750000I-271738J0D01*
G01*
X105671738Y-105750000D01*
G75*
G02*
X105400000Y-105478262I0J271738D01*
G01*
G37*
%TD*%
%TO.C,C7*%
G36*
G01*
X125600000Y-104521738D02*
X125600000Y-105478262D01*
G75*
G02*
X125328262Y-105750000I-271738J0D01*
G01*
X124621738Y-105750000D01*
G75*
G02*
X124350000Y-105478262I0J271738D01*
G01*
X124350000Y-104521738D01*
G75*
G02*
X124621738Y-104250000I271738J0D01*
G01*
X125328262Y-104250000D01*
G75*
G02*
X125600000Y-104521738I0J-271738D01*
G01*
G37*
G36*
G01*
X127650000Y-104521738D02*
X127650000Y-105478262D01*
G75*
G02*
X127378262Y-105750000I-271738J0D01*
G01*
X126671738Y-105750000D01*
G75*
G02*
X126400000Y-105478262I0J271738D01*
G01*
X126400000Y-104521738D01*
G75*
G02*
X126671738Y-104250000I271738J0D01*
G01*
X127378262Y-104250000D01*
G75*
G02*
X127650000Y-104521738I0J-271738D01*
G01*
G37*
%TD*%
%TO.C,C8*%
G36*
G01*
X131400000Y-105478262D02*
X131400000Y-104521738D01*
G75*
G02*
X131671738Y-104250000I271738J0D01*
G01*
X132378262Y-104250000D01*
G75*
G02*
X132650000Y-104521738I0J-271738D01*
G01*
X132650000Y-105478262D01*
G75*
G02*
X132378262Y-105750000I-271738J0D01*
G01*
X131671738Y-105750000D01*
G75*
G02*
X131400000Y-105478262I0J271738D01*
G01*
G37*
G36*
G01*
X129350000Y-105478262D02*
X129350000Y-104521738D01*
G75*
G02*
X129621738Y-104250000I271738J0D01*
G01*
X130328262Y-104250000D01*
G75*
G02*
X130600000Y-104521738I0J-271738D01*
G01*
X130600000Y-105478262D01*
G75*
G02*
X130328262Y-105750000I-271738J0D01*
G01*
X129621738Y-105750000D01*
G75*
G02*
X129350000Y-105478262I0J271738D01*
G01*
G37*
%TD*%
%TO.C,C9*%
G36*
G01*
X153650000Y-104521738D02*
X153650000Y-105478262D01*
G75*
G02*
X153378262Y-105750000I-271738J0D01*
G01*
X152671738Y-105750000D01*
G75*
G02*
X152400000Y-105478262I0J271738D01*
G01*
X152400000Y-104521738D01*
G75*
G02*
X152671738Y-104250000I271738J0D01*
G01*
X153378262Y-104250000D01*
G75*
G02*
X153650000Y-104521738I0J-271738D01*
G01*
G37*
G36*
G01*
X151600000Y-104521738D02*
X151600000Y-105478262D01*
G75*
G02*
X151328262Y-105750000I-271738J0D01*
G01*
X150621738Y-105750000D01*
G75*
G02*
X150350000Y-105478262I0J271738D01*
G01*
X150350000Y-104521738D01*
G75*
G02*
X150621738Y-104250000I271738J0D01*
G01*
X151328262Y-104250000D01*
G75*
G02*
X151600000Y-104521738I0J-271738D01*
G01*
G37*
%TD*%
%TO.C,C10*%
G36*
G01*
X155350000Y-105478262D02*
X155350000Y-104521738D01*
G75*
G02*
X155621738Y-104250000I271738J0D01*
G01*
X156328262Y-104250000D01*
G75*
G02*
X156600000Y-104521738I0J-271738D01*
G01*
X156600000Y-105478262D01*
G75*
G02*
X156328262Y-105750000I-271738J0D01*
G01*
X155621738Y-105750000D01*
G75*
G02*
X155350000Y-105478262I0J271738D01*
G01*
G37*
G36*
G01*
X157400000Y-105478262D02*
X157400000Y-104521738D01*
G75*
G02*
X157671738Y-104250000I271738J0D01*
G01*
X158378262Y-104250000D01*
G75*
G02*
X158650000Y-104521738I0J-271738D01*
G01*
X158650000Y-105478262D01*
G75*
G02*
X158378262Y-105750000I-271738J0D01*
G01*
X157671738Y-105750000D01*
G75*
G02*
X157400000Y-105478262I0J271738D01*
G01*
G37*
%TD*%
%TO.C,C11*%
G36*
G01*
X177600000Y-104521738D02*
X177600000Y-105478262D01*
G75*
G02*
X177328262Y-105750000I-271738J0D01*
G01*
X176621738Y-105750000D01*
G75*
G02*
X176350000Y-105478262I0J271738D01*
G01*
X176350000Y-104521738D01*
G75*
G02*
X176621738Y-104250000I271738J0D01*
G01*
X177328262Y-104250000D01*
G75*
G02*
X177600000Y-104521738I0J-271738D01*
G01*
G37*
G36*
G01*
X179650000Y-104521738D02*
X179650000Y-105478262D01*
G75*
G02*
X179378262Y-105750000I-271738J0D01*
G01*
X178671738Y-105750000D01*
G75*
G02*
X178400000Y-105478262I0J271738D01*
G01*
X178400000Y-104521738D01*
G75*
G02*
X178671738Y-104250000I271738J0D01*
G01*
X179378262Y-104250000D01*
G75*
G02*
X179650000Y-104521738I0J-271738D01*
G01*
G37*
%TD*%
D13*
%TO.C,D1*%
X62000000Y-74000000D03*
D10*
X64540000Y-74000000D03*
%TD*%
%TO.C,D2*%
X90540000Y-74000000D03*
D13*
X88000000Y-74000000D03*
%TD*%
%TO.C,D3*%
X114000000Y-74000000D03*
D10*
X116540000Y-74000000D03*
%TD*%
%TO.C,D4*%
X142540000Y-74000000D03*
D13*
X140000000Y-74000000D03*
%TD*%
%TO.C,D5*%
X166000000Y-74000000D03*
D10*
X168540000Y-74000000D03*
%TD*%
D14*
%TO.C,J1*%
X50462500Y-83000000D03*
D15*
X53162500Y-79500000D03*
D16*
X53162500Y-81350000D03*
X53162500Y-80700000D03*
X53162500Y-83300000D03*
X53162500Y-82650000D03*
X53162500Y-82000000D03*
D15*
X53162500Y-84500000D03*
D14*
X50462500Y-81000000D03*
D17*
X50462500Y-78500000D03*
X50462500Y-85500000D03*
D18*
X50462500Y-84900000D03*
X50462500Y-79100000D03*
%TD*%
D19*
%TO.C,J2*%
X100000000Y-117000000D03*
D20*
X100000000Y-114460000D03*
X102540000Y-117000000D03*
X102540000Y-114460000D03*
X105080000Y-117000000D03*
X105080000Y-114460000D03*
X107620000Y-117000000D03*
X107620000Y-114460000D03*
X110160000Y-117000000D03*
X110160000Y-114460000D03*
X112700000Y-117000000D03*
X112700000Y-114460000D03*
X115240000Y-117000000D03*
X115240000Y-114460000D03*
X117780000Y-117000000D03*
X117780000Y-114460000D03*
X120320000Y-117000000D03*
X120320000Y-114460000D03*
X122860000Y-117000000D03*
X122860000Y-114460000D03*
X125400000Y-117000000D03*
X125400000Y-114460000D03*
X127940000Y-117000000D03*
X127940000Y-114460000D03*
X130480000Y-117000000D03*
X130480000Y-114460000D03*
X133020000Y-117000000D03*
X133020000Y-114460000D03*
X135560000Y-117000000D03*
X135560000Y-114460000D03*
%TD*%
D10*
%TO.C,J3*%
X61000000Y-105000000D03*
X66000000Y-105000000D03*
X63500000Y-105000000D03*
X61000000Y-90500000D03*
X66000000Y-90500000D03*
D11*
X58850000Y-97500000D03*
X68150000Y-97500000D03*
%TD*%
D10*
%TO.C,J4*%
X87000000Y-105000000D03*
X92000000Y-105000000D03*
X89500000Y-105000000D03*
X87000000Y-90500000D03*
X92000000Y-90500000D03*
D11*
X84850000Y-97500000D03*
X94150000Y-97500000D03*
%TD*%
%TO.C,J5*%
X120150000Y-97500000D03*
X110850000Y-97500000D03*
D10*
X118000000Y-90500000D03*
X113000000Y-90500000D03*
X115500000Y-105000000D03*
X118000000Y-105000000D03*
X113000000Y-105000000D03*
%TD*%
D11*
%TO.C,J7*%
X172150000Y-97500000D03*
X162850000Y-97500000D03*
D10*
X170000000Y-90500000D03*
X165000000Y-90500000D03*
X167500000Y-105000000D03*
X170000000Y-105000000D03*
X165000000Y-105000000D03*
%TD*%
%TO.C,R1*%
G36*
G01*
X67521738Y-71350000D02*
X68478262Y-71350000D01*
G75*
G02*
X68750000Y-71621738I0J-271738D01*
G01*
X68750000Y-72328262D01*
G75*
G02*
X68478262Y-72600000I-271738J0D01*
G01*
X67521738Y-72600000D01*
G75*
G02*
X67250000Y-72328262I0J271738D01*
G01*
X67250000Y-71621738D01*
G75*
G02*
X67521738Y-71350000I271738J0D01*
G01*
G37*
G36*
G01*
X67521738Y-73400000D02*
X68478262Y-73400000D01*
G75*
G02*
X68750000Y-73671738I0J-271738D01*
G01*
X68750000Y-74378262D01*
G75*
G02*
X68478262Y-74650000I-271738J0D01*
G01*
X67521738Y-74650000D01*
G75*
G02*
X67250000Y-74378262I0J271738D01*
G01*
X67250000Y-73671738D01*
G75*
G02*
X67521738Y-73400000I271738J0D01*
G01*
G37*
%TD*%
%TO.C,R2*%
G36*
G01*
X93521738Y-73400000D02*
X94478262Y-73400000D01*
G75*
G02*
X94750000Y-73671738I0J-271738D01*
G01*
X94750000Y-74378262D01*
G75*
G02*
X94478262Y-74650000I-271738J0D01*
G01*
X93521738Y-74650000D01*
G75*
G02*
X93250000Y-74378262I0J271738D01*
G01*
X93250000Y-73671738D01*
G75*
G02*
X93521738Y-73400000I271738J0D01*
G01*
G37*
G36*
G01*
X93521738Y-71350000D02*
X94478262Y-71350000D01*
G75*
G02*
X94750000Y-71621738I0J-271738D01*
G01*
X94750000Y-72328262D01*
G75*
G02*
X94478262Y-72600000I-271738J0D01*
G01*
X93521738Y-72600000D01*
G75*
G02*
X93250000Y-72328262I0J271738D01*
G01*
X93250000Y-71621738D01*
G75*
G02*
X93521738Y-71350000I271738J0D01*
G01*
G37*
%TD*%
%TO.C,R3*%
G36*
G01*
X119521738Y-71350000D02*
X120478262Y-71350000D01*
G75*
G02*
X120750000Y-71621738I0J-271738D01*
G01*
X120750000Y-72328262D01*
G75*
G02*
X120478262Y-72600000I-271738J0D01*
G01*
X119521738Y-72600000D01*
G75*
G02*
X119250000Y-72328262I0J271738D01*
G01*
X119250000Y-71621738D01*
G75*
G02*
X119521738Y-71350000I271738J0D01*
G01*
G37*
G36*
G01*
X119521738Y-73400000D02*
X120478262Y-73400000D01*
G75*
G02*
X120750000Y-73671738I0J-271738D01*
G01*
X120750000Y-74378262D01*
G75*
G02*
X120478262Y-74650000I-271738J0D01*
G01*
X119521738Y-74650000D01*
G75*
G02*
X119250000Y-74378262I0J271738D01*
G01*
X119250000Y-73671738D01*
G75*
G02*
X119521738Y-73400000I271738J0D01*
G01*
G37*
%TD*%
%TO.C,R4*%
G36*
G01*
X145521738Y-73400000D02*
X146478262Y-73400000D01*
G75*
G02*
X146750000Y-73671738I0J-271738D01*
G01*
X146750000Y-74378262D01*
G75*
G02*
X146478262Y-74650000I-271738J0D01*
G01*
X145521738Y-74650000D01*
G75*
G02*
X145250000Y-74378262I0J271738D01*
G01*
X145250000Y-73671738D01*
G75*
G02*
X145521738Y-73400000I271738J0D01*
G01*
G37*
G36*
G01*
X145521738Y-71350000D02*
X146478262Y-71350000D01*
G75*
G02*
X146750000Y-71621738I0J-271738D01*
G01*
X146750000Y-72328262D01*
G75*
G02*
X146478262Y-72600000I-271738J0D01*
G01*
X145521738Y-72600000D01*
G75*
G02*
X145250000Y-72328262I0J271738D01*
G01*
X145250000Y-71621738D01*
G75*
G02*
X145521738Y-71350000I271738J0D01*
G01*
G37*
%TD*%
%TO.C,R5*%
G36*
G01*
X171521738Y-71350000D02*
X172478262Y-71350000D01*
G75*
G02*
X172750000Y-71621738I0J-271738D01*
G01*
X172750000Y-72328262D01*
G75*
G02*
X172478262Y-72600000I-271738J0D01*
G01*
X171521738Y-72600000D01*
G75*
G02*
X171250000Y-72328262I0J271738D01*
G01*
X171250000Y-71621738D01*
G75*
G02*
X171521738Y-71350000I271738J0D01*
G01*
G37*
G36*
G01*
X171521738Y-73400000D02*
X172478262Y-73400000D01*
G75*
G02*
X172750000Y-73671738I0J-271738D01*
G01*
X172750000Y-74378262D01*
G75*
G02*
X172478262Y-74650000I-271738J0D01*
G01*
X171521738Y-74650000D01*
G75*
G02*
X171250000Y-74378262I0J271738D01*
G01*
X171250000Y-73671738D01*
G75*
G02*
X171521738Y-73400000I271738J0D01*
G01*
G37*
%TD*%
%TO.C,R6*%
G36*
G01*
X53400000Y-101478262D02*
X53400000Y-100521738D01*
G75*
G02*
X53671738Y-100250000I271738J0D01*
G01*
X54378262Y-100250000D01*
G75*
G02*
X54650000Y-100521738I0J-271738D01*
G01*
X54650000Y-101478262D01*
G75*
G02*
X54378262Y-101750000I-271738J0D01*
G01*
X53671738Y-101750000D01*
G75*
G02*
X53400000Y-101478262I0J271738D01*
G01*
G37*
G36*
G01*
X51350000Y-101478262D02*
X51350000Y-100521738D01*
G75*
G02*
X51621738Y-100250000I271738J0D01*
G01*
X52328262Y-100250000D01*
G75*
G02*
X52600000Y-100521738I0J-271738D01*
G01*
X52600000Y-101478262D01*
G75*
G02*
X52328262Y-101750000I-271738J0D01*
G01*
X51621738Y-101750000D01*
G75*
G02*
X51350000Y-101478262I0J271738D01*
G01*
G37*
%TD*%
%TO.C,R7*%
G36*
G01*
X75650000Y-100521738D02*
X75650000Y-101478262D01*
G75*
G02*
X75378262Y-101750000I-271738J0D01*
G01*
X74671738Y-101750000D01*
G75*
G02*
X74400000Y-101478262I0J271738D01*
G01*
X74400000Y-100521738D01*
G75*
G02*
X74671738Y-100250000I271738J0D01*
G01*
X75378262Y-100250000D01*
G75*
G02*
X75650000Y-100521738I0J-271738D01*
G01*
G37*
G36*
G01*
X73600000Y-100521738D02*
X73600000Y-101478262D01*
G75*
G02*
X73328262Y-101750000I-271738J0D01*
G01*
X72621738Y-101750000D01*
G75*
G02*
X72350000Y-101478262I0J271738D01*
G01*
X72350000Y-100521738D01*
G75*
G02*
X72621738Y-100250000I271738J0D01*
G01*
X73328262Y-100250000D01*
G75*
G02*
X73600000Y-100521738I0J-271738D01*
G01*
G37*
%TD*%
%TO.C,R8*%
G36*
G01*
X51350000Y-97478262D02*
X51350000Y-96521738D01*
G75*
G02*
X51621738Y-96250000I271738J0D01*
G01*
X52328262Y-96250000D01*
G75*
G02*
X52600000Y-96521738I0J-271738D01*
G01*
X52600000Y-97478262D01*
G75*
G02*
X52328262Y-97750000I-271738J0D01*
G01*
X51621738Y-97750000D01*
G75*
G02*
X51350000Y-97478262I0J271738D01*
G01*
G37*
G36*
G01*
X53400000Y-97478262D02*
X53400000Y-96521738D01*
G75*
G02*
X53671738Y-96250000I271738J0D01*
G01*
X54378262Y-96250000D01*
G75*
G02*
X54650000Y-96521738I0J-271738D01*
G01*
X54650000Y-97478262D01*
G75*
G02*
X54378262Y-97750000I-271738J0D01*
G01*
X53671738Y-97750000D01*
G75*
G02*
X53400000Y-97478262I0J271738D01*
G01*
G37*
%TD*%
%TO.C,R9*%
G36*
G01*
X73600000Y-96521738D02*
X73600000Y-97478262D01*
G75*
G02*
X73328262Y-97750000I-271738J0D01*
G01*
X72621738Y-97750000D01*
G75*
G02*
X72350000Y-97478262I0J271738D01*
G01*
X72350000Y-96521738D01*
G75*
G02*
X72621738Y-96250000I271738J0D01*
G01*
X73328262Y-96250000D01*
G75*
G02*
X73600000Y-96521738I0J-271738D01*
G01*
G37*
G36*
G01*
X75650000Y-96521738D02*
X75650000Y-97478262D01*
G75*
G02*
X75378262Y-97750000I-271738J0D01*
G01*
X74671738Y-97750000D01*
G75*
G02*
X74400000Y-97478262I0J271738D01*
G01*
X74400000Y-96521738D01*
G75*
G02*
X74671738Y-96250000I271738J0D01*
G01*
X75378262Y-96250000D01*
G75*
G02*
X75650000Y-96521738I0J-271738D01*
G01*
G37*
%TD*%
%TO.C,R10*%
G36*
G01*
X79400000Y-101478262D02*
X79400000Y-100521738D01*
G75*
G02*
X79671738Y-100250000I271738J0D01*
G01*
X80378262Y-100250000D01*
G75*
G02*
X80650000Y-100521738I0J-271738D01*
G01*
X80650000Y-101478262D01*
G75*
G02*
X80378262Y-101750000I-271738J0D01*
G01*
X79671738Y-101750000D01*
G75*
G02*
X79400000Y-101478262I0J271738D01*
G01*
G37*
G36*
G01*
X77350000Y-101478262D02*
X77350000Y-100521738D01*
G75*
G02*
X77621738Y-100250000I271738J0D01*
G01*
X78328262Y-100250000D01*
G75*
G02*
X78600000Y-100521738I0J-271738D01*
G01*
X78600000Y-101478262D01*
G75*
G02*
X78328262Y-101750000I-271738J0D01*
G01*
X77621738Y-101750000D01*
G75*
G02*
X77350000Y-101478262I0J271738D01*
G01*
G37*
%TD*%
%TO.C,R11*%
G36*
G01*
X99600000Y-100521738D02*
X99600000Y-101478262D01*
G75*
G02*
X99328262Y-101750000I-271738J0D01*
G01*
X98621738Y-101750000D01*
G75*
G02*
X98350000Y-101478262I0J271738D01*
G01*
X98350000Y-100521738D01*
G75*
G02*
X98621738Y-100250000I271738J0D01*
G01*
X99328262Y-100250000D01*
G75*
G02*
X99600000Y-100521738I0J-271738D01*
G01*
G37*
G36*
G01*
X101650000Y-100521738D02*
X101650000Y-101478262D01*
G75*
G02*
X101378262Y-101750000I-271738J0D01*
G01*
X100671738Y-101750000D01*
G75*
G02*
X100400000Y-101478262I0J271738D01*
G01*
X100400000Y-100521738D01*
G75*
G02*
X100671738Y-100250000I271738J0D01*
G01*
X101378262Y-100250000D01*
G75*
G02*
X101650000Y-100521738I0J-271738D01*
G01*
G37*
%TD*%
%TO.C,R12*%
G36*
G01*
X79400000Y-97478262D02*
X79400000Y-96521738D01*
G75*
G02*
X79671738Y-96250000I271738J0D01*
G01*
X80378262Y-96250000D01*
G75*
G02*
X80650000Y-96521738I0J-271738D01*
G01*
X80650000Y-97478262D01*
G75*
G02*
X80378262Y-97750000I-271738J0D01*
G01*
X79671738Y-97750000D01*
G75*
G02*
X79400000Y-97478262I0J271738D01*
G01*
G37*
G36*
G01*
X77350000Y-97478262D02*
X77350000Y-96521738D01*
G75*
G02*
X77621738Y-96250000I271738J0D01*
G01*
X78328262Y-96250000D01*
G75*
G02*
X78600000Y-96521738I0J-271738D01*
G01*
X78600000Y-97478262D01*
G75*
G02*
X78328262Y-97750000I-271738J0D01*
G01*
X77621738Y-97750000D01*
G75*
G02*
X77350000Y-97478262I0J271738D01*
G01*
G37*
%TD*%
%TO.C,R13*%
G36*
G01*
X101650000Y-96521738D02*
X101650000Y-97478262D01*
G75*
G02*
X101378262Y-97750000I-271738J0D01*
G01*
X100671738Y-97750000D01*
G75*
G02*
X100400000Y-97478262I0J271738D01*
G01*
X100400000Y-96521738D01*
G75*
G02*
X100671738Y-96250000I271738J0D01*
G01*
X101378262Y-96250000D01*
G75*
G02*
X101650000Y-96521738I0J-271738D01*
G01*
G37*
G36*
G01*
X99600000Y-96521738D02*
X99600000Y-97478262D01*
G75*
G02*
X99328262Y-97750000I-271738J0D01*
G01*
X98621738Y-97750000D01*
G75*
G02*
X98350000Y-97478262I0J271738D01*
G01*
X98350000Y-96521738D01*
G75*
G02*
X98621738Y-96250000I271738J0D01*
G01*
X99328262Y-96250000D01*
G75*
G02*
X99600000Y-96521738I0J-271738D01*
G01*
G37*
%TD*%
%TO.C,R14*%
G36*
G01*
X103350000Y-101478262D02*
X103350000Y-100521738D01*
G75*
G02*
X103621738Y-100250000I271738J0D01*
G01*
X104328262Y-100250000D01*
G75*
G02*
X104600000Y-100521738I0J-271738D01*
G01*
X104600000Y-101478262D01*
G75*
G02*
X104328262Y-101750000I-271738J0D01*
G01*
X103621738Y-101750000D01*
G75*
G02*
X103350000Y-101478262I0J271738D01*
G01*
G37*
G36*
G01*
X105400000Y-101478262D02*
X105400000Y-100521738D01*
G75*
G02*
X105671738Y-100250000I271738J0D01*
G01*
X106378262Y-100250000D01*
G75*
G02*
X106650000Y-100521738I0J-271738D01*
G01*
X106650000Y-101478262D01*
G75*
G02*
X106378262Y-101750000I-271738J0D01*
G01*
X105671738Y-101750000D01*
G75*
G02*
X105400000Y-101478262I0J271738D01*
G01*
G37*
%TD*%
%TO.C,R15*%
G36*
G01*
X125600000Y-100521738D02*
X125600000Y-101478262D01*
G75*
G02*
X125328262Y-101750000I-271738J0D01*
G01*
X124621738Y-101750000D01*
G75*
G02*
X124350000Y-101478262I0J271738D01*
G01*
X124350000Y-100521738D01*
G75*
G02*
X124621738Y-100250000I271738J0D01*
G01*
X125328262Y-100250000D01*
G75*
G02*
X125600000Y-100521738I0J-271738D01*
G01*
G37*
G36*
G01*
X127650000Y-100521738D02*
X127650000Y-101478262D01*
G75*
G02*
X127378262Y-101750000I-271738J0D01*
G01*
X126671738Y-101750000D01*
G75*
G02*
X126400000Y-101478262I0J271738D01*
G01*
X126400000Y-100521738D01*
G75*
G02*
X126671738Y-100250000I271738J0D01*
G01*
X127378262Y-100250000D01*
G75*
G02*
X127650000Y-100521738I0J-271738D01*
G01*
G37*
%TD*%
%TO.C,R16*%
G36*
G01*
X103350000Y-97478262D02*
X103350000Y-96521738D01*
G75*
G02*
X103621738Y-96250000I271738J0D01*
G01*
X104328262Y-96250000D01*
G75*
G02*
X104600000Y-96521738I0J-271738D01*
G01*
X104600000Y-97478262D01*
G75*
G02*
X104328262Y-97750000I-271738J0D01*
G01*
X103621738Y-97750000D01*
G75*
G02*
X103350000Y-97478262I0J271738D01*
G01*
G37*
G36*
G01*
X105400000Y-97478262D02*
X105400000Y-96521738D01*
G75*
G02*
X105671738Y-96250000I271738J0D01*
G01*
X106378262Y-96250000D01*
G75*
G02*
X106650000Y-96521738I0J-271738D01*
G01*
X106650000Y-97478262D01*
G75*
G02*
X106378262Y-97750000I-271738J0D01*
G01*
X105671738Y-97750000D01*
G75*
G02*
X105400000Y-97478262I0J271738D01*
G01*
G37*
%TD*%
%TO.C,R17*%
G36*
G01*
X127650000Y-96521738D02*
X127650000Y-97478262D01*
G75*
G02*
X127378262Y-97750000I-271738J0D01*
G01*
X126671738Y-97750000D01*
G75*
G02*
X126400000Y-97478262I0J271738D01*
G01*
X126400000Y-96521738D01*
G75*
G02*
X126671738Y-96250000I271738J0D01*
G01*
X127378262Y-96250000D01*
G75*
G02*
X127650000Y-96521738I0J-271738D01*
G01*
G37*
G36*
G01*
X125600000Y-96521738D02*
X125600000Y-97478262D01*
G75*
G02*
X125328262Y-97750000I-271738J0D01*
G01*
X124621738Y-97750000D01*
G75*
G02*
X124350000Y-97478262I0J271738D01*
G01*
X124350000Y-96521738D01*
G75*
G02*
X124621738Y-96250000I271738J0D01*
G01*
X125328262Y-96250000D01*
G75*
G02*
X125600000Y-96521738I0J-271738D01*
G01*
G37*
%TD*%
%TO.C,R18*%
G36*
G01*
X129350000Y-101478262D02*
X129350000Y-100521738D01*
G75*
G02*
X129621738Y-100250000I271738J0D01*
G01*
X130328262Y-100250000D01*
G75*
G02*
X130600000Y-100521738I0J-271738D01*
G01*
X130600000Y-101478262D01*
G75*
G02*
X130328262Y-101750000I-271738J0D01*
G01*
X129621738Y-101750000D01*
G75*
G02*
X129350000Y-101478262I0J271738D01*
G01*
G37*
G36*
G01*
X131400000Y-101478262D02*
X131400000Y-100521738D01*
G75*
G02*
X131671738Y-100250000I271738J0D01*
G01*
X132378262Y-100250000D01*
G75*
G02*
X132650000Y-100521738I0J-271738D01*
G01*
X132650000Y-101478262D01*
G75*
G02*
X132378262Y-101750000I-271738J0D01*
G01*
X131671738Y-101750000D01*
G75*
G02*
X131400000Y-101478262I0J271738D01*
G01*
G37*
%TD*%
%TO.C,R19*%
G36*
G01*
X151600000Y-100521738D02*
X151600000Y-101478262D01*
G75*
G02*
X151328262Y-101750000I-271738J0D01*
G01*
X150621738Y-101750000D01*
G75*
G02*
X150350000Y-101478262I0J271738D01*
G01*
X150350000Y-100521738D01*
G75*
G02*
X150621738Y-100250000I271738J0D01*
G01*
X151328262Y-100250000D01*
G75*
G02*
X151600000Y-100521738I0J-271738D01*
G01*
G37*
G36*
G01*
X153650000Y-100521738D02*
X153650000Y-101478262D01*
G75*
G02*
X153378262Y-101750000I-271738J0D01*
G01*
X152671738Y-101750000D01*
G75*
G02*
X152400000Y-101478262I0J271738D01*
G01*
X152400000Y-100521738D01*
G75*
G02*
X152671738Y-100250000I271738J0D01*
G01*
X153378262Y-100250000D01*
G75*
G02*
X153650000Y-100521738I0J-271738D01*
G01*
G37*
%TD*%
%TO.C,R20*%
G36*
G01*
X131400000Y-97478262D02*
X131400000Y-96521738D01*
G75*
G02*
X131671738Y-96250000I271738J0D01*
G01*
X132378262Y-96250000D01*
G75*
G02*
X132650000Y-96521738I0J-271738D01*
G01*
X132650000Y-97478262D01*
G75*
G02*
X132378262Y-97750000I-271738J0D01*
G01*
X131671738Y-97750000D01*
G75*
G02*
X131400000Y-97478262I0J271738D01*
G01*
G37*
G36*
G01*
X129350000Y-97478262D02*
X129350000Y-96521738D01*
G75*
G02*
X129621738Y-96250000I271738J0D01*
G01*
X130328262Y-96250000D01*
G75*
G02*
X130600000Y-96521738I0J-271738D01*
G01*
X130600000Y-97478262D01*
G75*
G02*
X130328262Y-97750000I-271738J0D01*
G01*
X129621738Y-97750000D01*
G75*
G02*
X129350000Y-97478262I0J271738D01*
G01*
G37*
%TD*%
%TO.C,R21*%
G36*
G01*
X153650000Y-96521738D02*
X153650000Y-97478262D01*
G75*
G02*
X153378262Y-97750000I-271738J0D01*
G01*
X152671738Y-97750000D01*
G75*
G02*
X152400000Y-97478262I0J271738D01*
G01*
X152400000Y-96521738D01*
G75*
G02*
X152671738Y-96250000I271738J0D01*
G01*
X153378262Y-96250000D01*
G75*
G02*
X153650000Y-96521738I0J-271738D01*
G01*
G37*
G36*
G01*
X151600000Y-96521738D02*
X151600000Y-97478262D01*
G75*
G02*
X151328262Y-97750000I-271738J0D01*
G01*
X150621738Y-97750000D01*
G75*
G02*
X150350000Y-97478262I0J271738D01*
G01*
X150350000Y-96521738D01*
G75*
G02*
X150621738Y-96250000I271738J0D01*
G01*
X151328262Y-96250000D01*
G75*
G02*
X151600000Y-96521738I0J-271738D01*
G01*
G37*
%TD*%
%TO.C,R22*%
G36*
G01*
X155350000Y-101478262D02*
X155350000Y-100521738D01*
G75*
G02*
X155621738Y-100250000I271738J0D01*
G01*
X156328262Y-100250000D01*
G75*
G02*
X156600000Y-100521738I0J-271738D01*
G01*
X156600000Y-101478262D01*
G75*
G02*
X156328262Y-101750000I-271738J0D01*
G01*
X155621738Y-101750000D01*
G75*
G02*
X155350000Y-101478262I0J271738D01*
G01*
G37*
G36*
G01*
X157400000Y-101478262D02*
X157400000Y-100521738D01*
G75*
G02*
X157671738Y-100250000I271738J0D01*
G01*
X158378262Y-100250000D01*
G75*
G02*
X158650000Y-100521738I0J-271738D01*
G01*
X158650000Y-101478262D01*
G75*
G02*
X158378262Y-101750000I-271738J0D01*
G01*
X157671738Y-101750000D01*
G75*
G02*
X157400000Y-101478262I0J271738D01*
G01*
G37*
%TD*%
%TO.C,R23*%
G36*
G01*
X177600000Y-100521738D02*
X177600000Y-101478262D01*
G75*
G02*
X177328262Y-101750000I-271738J0D01*
G01*
X176621738Y-101750000D01*
G75*
G02*
X176350000Y-101478262I0J271738D01*
G01*
X176350000Y-100521738D01*
G75*
G02*
X176621738Y-100250000I271738J0D01*
G01*
X177328262Y-100250000D01*
G75*
G02*
X177600000Y-100521738I0J-271738D01*
G01*
G37*
G36*
G01*
X179650000Y-100521738D02*
X179650000Y-101478262D01*
G75*
G02*
X179378262Y-101750000I-271738J0D01*
G01*
X178671738Y-101750000D01*
G75*
G02*
X178400000Y-101478262I0J271738D01*
G01*
X178400000Y-100521738D01*
G75*
G02*
X178671738Y-100250000I271738J0D01*
G01*
X179378262Y-100250000D01*
G75*
G02*
X179650000Y-100521738I0J-271738D01*
G01*
G37*
%TD*%
%TO.C,R24*%
G36*
G01*
X157400000Y-97478262D02*
X157400000Y-96521738D01*
G75*
G02*
X157671738Y-96250000I271738J0D01*
G01*
X158378262Y-96250000D01*
G75*
G02*
X158650000Y-96521738I0J-271738D01*
G01*
X158650000Y-97478262D01*
G75*
G02*
X158378262Y-97750000I-271738J0D01*
G01*
X157671738Y-97750000D01*
G75*
G02*
X157400000Y-97478262I0J271738D01*
G01*
G37*
G36*
G01*
X155350000Y-97478262D02*
X155350000Y-96521738D01*
G75*
G02*
X155621738Y-96250000I271738J0D01*
G01*
X156328262Y-96250000D01*
G75*
G02*
X156600000Y-96521738I0J-271738D01*
G01*
X156600000Y-97478262D01*
G75*
G02*
X156328262Y-97750000I-271738J0D01*
G01*
X155621738Y-97750000D01*
G75*
G02*
X155350000Y-97478262I0J271738D01*
G01*
G37*
%TD*%
%TO.C,R25*%
G36*
G01*
X179650000Y-96521738D02*
X179650000Y-97478262D01*
G75*
G02*
X179378262Y-97750000I-271738J0D01*
G01*
X178671738Y-97750000D01*
G75*
G02*
X178400000Y-97478262I0J271738D01*
G01*
X178400000Y-96521738D01*
G75*
G02*
X178671738Y-96250000I271738J0D01*
G01*
X179378262Y-96250000D01*
G75*
G02*
X179650000Y-96521738I0J-271738D01*
G01*
G37*
G36*
G01*
X177600000Y-96521738D02*
X177600000Y-97478262D01*
G75*
G02*
X177328262Y-97750000I-271738J0D01*
G01*
X176621738Y-97750000D01*
G75*
G02*
X176350000Y-97478262I0J271738D01*
G01*
X176350000Y-96521738D01*
G75*
G02*
X176621738Y-96250000I271738J0D01*
G01*
X177328262Y-96250000D01*
G75*
G02*
X177600000Y-96521738I0J-271738D01*
G01*
G37*
%TD*%
D21*
%TO.C,SW1*%
X60000000Y-85500000D03*
X60000000Y-81000000D03*
X66500000Y-85500000D03*
X66500000Y-81000000D03*
%TD*%
%TO.C,SW2*%
X92500000Y-81000000D03*
X92500000Y-85500000D03*
X86000000Y-81000000D03*
X86000000Y-85500000D03*
%TD*%
%TO.C,SW3*%
X112000000Y-85500000D03*
X112000000Y-81000000D03*
X118500000Y-85500000D03*
X118500000Y-81000000D03*
%TD*%
%TO.C,SW4*%
X144500000Y-81000000D03*
X144500000Y-85500000D03*
X138000000Y-81000000D03*
X138000000Y-85500000D03*
%TD*%
%TO.C,SW5*%
X164000000Y-85500000D03*
X164000000Y-81000000D03*
X170500000Y-85500000D03*
X170500000Y-81000000D03*
%TD*%
%TO.C,D6*%
G36*
G01*
X58986262Y-75380000D02*
X58029738Y-75380000D01*
G75*
G02*
X57758000Y-75108262I0J271738D01*
G01*
X57758000Y-74401738D01*
G75*
G02*
X58029738Y-74130000I271738J0D01*
G01*
X58986262Y-74130000D01*
G75*
G02*
X59258000Y-74401738I0J-271738D01*
G01*
X59258000Y-75108262D01*
G75*
G02*
X58986262Y-75380000I-271738J0D01*
G01*
G37*
G36*
G01*
X58986262Y-73330000D02*
X58029738Y-73330000D01*
G75*
G02*
X57758000Y-73058262I0J271738D01*
G01*
X57758000Y-72351738D01*
G75*
G02*
X58029738Y-72080000I271738J0D01*
G01*
X58986262Y-72080000D01*
G75*
G02*
X59258000Y-72351738I0J-271738D01*
G01*
X59258000Y-73058262D01*
G75*
G02*
X58986262Y-73330000I-271738J0D01*
G01*
G37*
%TD*%
%TO.C,R26*%
G36*
G01*
X55986262Y-75380000D02*
X55029738Y-75380000D01*
G75*
G02*
X54758000Y-75108262I0J271738D01*
G01*
X54758000Y-74401738D01*
G75*
G02*
X55029738Y-74130000I271738J0D01*
G01*
X55986262Y-74130000D01*
G75*
G02*
X56258000Y-74401738I0J-271738D01*
G01*
X56258000Y-75108262D01*
G75*
G02*
X55986262Y-75380000I-271738J0D01*
G01*
G37*
G36*
G01*
X55986262Y-73330000D02*
X55029738Y-73330000D01*
G75*
G02*
X54758000Y-73058262I0J271738D01*
G01*
X54758000Y-72351738D01*
G75*
G02*
X55029738Y-72080000I271738J0D01*
G01*
X55986262Y-72080000D01*
G75*
G02*
X56258000Y-72351738I0J-271738D01*
G01*
X56258000Y-73058262D01*
G75*
G02*
X55986262Y-73330000I-271738J0D01*
G01*
G37*
%TD*%
M02*
