%TF.GenerationSoftware,KiCad,Pcbnew,(5.1.6)-1*%
%TF.CreationDate,2020-10-11T13:06:13-07:00*%
%TF.ProjectId,Autopilot panel,4175746f-7069-46c6-9f74-2070616e656c,rev?*%
%TF.SameCoordinates,Original*%
%TF.FileFunction,Legend,Bot*%
%TF.FilePolarity,Positive*%
%FSLAX46Y46*%
G04 Gerber Fmt 4.6, Leading zero omitted, Abs format (unit mm)*
G04 Created by KiCad (PCBNEW (5.1.6)-1) date 2020-10-11 13:06:13*
%MOMM*%
%LPD*%
G01*
G04 APERTURE LIST*
%ADD10C,0.120000*%
%ADD11C,0.150000*%
G04 APERTURE END LIST*
D10*
%TO.C,J2*%
X96420000Y-113670000D02*
X96420000Y-115000000D01*
X97750000Y-113670000D02*
X96420000Y-113670000D01*
X96420000Y-116270000D02*
X96420000Y-118870000D01*
X99020000Y-116270000D02*
X96420000Y-116270000D01*
X99020000Y-113670000D02*
X99020000Y-116270000D01*
X96420000Y-118870000D02*
X134640000Y-118870000D01*
X99020000Y-113670000D02*
X134640000Y-113670000D01*
X134640000Y-113670000D02*
X134640000Y-118870000D01*
%TO.C,J8*%
X134640000Y-64670000D02*
X134640000Y-69870000D01*
X99020000Y-64670000D02*
X134640000Y-64670000D01*
X96420000Y-69870000D02*
X134640000Y-69870000D01*
X99020000Y-64670000D02*
X99020000Y-67270000D01*
X99020000Y-67270000D02*
X96420000Y-67270000D01*
X96420000Y-67270000D02*
X96420000Y-69870000D01*
X97750000Y-64670000D02*
X96420000Y-64670000D01*
X96420000Y-64670000D02*
X96420000Y-66000000D01*
%TO.C,J2*%
D11*
X94872380Y-115936666D02*
X95586666Y-115936666D01*
X95729523Y-115889047D01*
X95824761Y-115793809D01*
X95872380Y-115650952D01*
X95872380Y-115555714D01*
X94967619Y-116365238D02*
X94920000Y-116412857D01*
X94872380Y-116508095D01*
X94872380Y-116746190D01*
X94920000Y-116841428D01*
X94967619Y-116889047D01*
X95062857Y-116936666D01*
X95158095Y-116936666D01*
X95300952Y-116889047D01*
X95872380Y-116317619D01*
X95872380Y-116936666D01*
%TO.C,J8*%
X94872380Y-66936666D02*
X95586666Y-66936666D01*
X95729523Y-66889047D01*
X95824761Y-66793809D01*
X95872380Y-66650952D01*
X95872380Y-66555714D01*
X95300952Y-67555714D02*
X95253333Y-67460476D01*
X95205714Y-67412857D01*
X95110476Y-67365238D01*
X95062857Y-67365238D01*
X94967619Y-67412857D01*
X94920000Y-67460476D01*
X94872380Y-67555714D01*
X94872380Y-67746190D01*
X94920000Y-67841428D01*
X94967619Y-67889047D01*
X95062857Y-67936666D01*
X95110476Y-67936666D01*
X95205714Y-67889047D01*
X95253333Y-67841428D01*
X95300952Y-67746190D01*
X95300952Y-67555714D01*
X95348571Y-67460476D01*
X95396190Y-67412857D01*
X95491428Y-67365238D01*
X95681904Y-67365238D01*
X95777142Y-67412857D01*
X95824761Y-67460476D01*
X95872380Y-67555714D01*
X95872380Y-67746190D01*
X95824761Y-67841428D01*
X95777142Y-67889047D01*
X95681904Y-67936666D01*
X95491428Y-67936666D01*
X95396190Y-67889047D01*
X95348571Y-67841428D01*
X95300952Y-67746190D01*
%TD*%
M02*
