M48
INCH,TZ
T1C0.0157
T2C0.0236
T3C0.0335
T4C0.0354
T5C0.0394
T6C0.0433
T7C0.0472
T8C0.1299
%
G90
G05
T1
X21400Y-42100
X21700Y-32800
X23100Y-30100
X23600Y-30800
X23622Y-42323
X23622Y-44291
X24606Y-26575
X24606Y-30512
X27559Y-26575
X27559Y-30512
X27559Y-33465
X27559Y-36417
X27559Y-42323
X29278Y-31343
X29500Y-42200
X30211Y-36566
X30497Y-33479
X30512Y-26575
X30512Y-30512
X30699Y-38967
X30700Y-42200
X33465Y-26575
X33465Y-30512
X34548Y-44600
X36417Y-26575
X39370Y-26575
X39370Y-30512
X39370Y-34449
X39800Y-41900
X40400Y-41900
X42174Y-36280
X42256Y-35789
X42323Y-26575
X42323Y-30512
X45276Y-26575
X46517Y-28355
X48228Y-26575
X50000Y-42100
X50010Y-38710
X51181Y-26575
X51200Y-42000
X54134Y-26575
X54134Y-44291
X57087Y-26575
X57087Y-44291
X58509Y-39764
X60039Y-26575
X60039Y-30512
X60039Y-34449
X60039Y-44291
X60200Y-42100
X60227Y-38715
X60568Y-38999
X61400Y-42100
X62992Y-26575
X62992Y-30512
X62992Y-34449
X62992Y-40354
X62992Y-44291
X65945Y-26575
X69700Y-42200
T3
X20930Y-31299
X20930Y-33268
T4
X44882Y-29134
X45882Y-29134
X66354Y-29134
X24409Y-29134
X25409Y-29134
X34646Y-29134
X35646Y-29134
X55118Y-29134
X56118Y-29134
X65354Y-29134
T5
X39370Y-45063
X39370Y-46063
X40370Y-45063
X40370Y-46063
X41370Y-45063
X41370Y-46063
X42370Y-45063
X42370Y-46063
X43370Y-45063
X43370Y-46063
X44370Y-45063
X44370Y-46063
X45370Y-45063
X45370Y-46063
X46370Y-45063
X46370Y-46063
X47370Y-45063
X47370Y-46063
X48370Y-45063
X48370Y-46063
X49370Y-45063
X49370Y-46063
X50370Y-45063
X50370Y-46063
X51370Y-45063
X51370Y-46063
X52370Y-45063
X52370Y-46063
X53370Y-45063
X53370Y-46063
T6
X23622Y-31890
X23622Y-33661
X26181Y-31890
X26181Y-33661
X54331Y-31890
X54331Y-33661
X56890Y-31890
X56890Y-33661
X64567Y-31890
X64567Y-33661
X67126Y-31890
X67126Y-33661
X44094Y-31890
X44094Y-33661
X46654Y-31890
X46654Y-33661
X33858Y-31890
X33858Y-33661
X36417Y-31890
X36417Y-33661
T7
X34252Y-35630
X34252Y-41339
X35236Y-41339
X36220Y-35630
X36220Y-41339
X64961Y-35630
X64961Y-41339
X65945Y-41339
X66929Y-35630
X66929Y-41339
X24016Y-35630
X24016Y-41339
X25000Y-41339
X25984Y-35630
X25984Y-41339
X54724Y-35630
X54724Y-41339
X55709Y-41339
X56693Y-35630
X56693Y-41339
X44488Y-35630
X44488Y-41339
X45472Y-41339
X46457Y-35630
X46457Y-41339
T8
X43642Y-38386
X64114Y-38386
X67776Y-38386
X53878Y-38386
X57539Y-38386
X47303Y-38386
X33406Y-38386
X37067Y-38386
X23169Y-38386
X26831Y-38386
T2
G00X19729Y-30906
M15
G01X20005Y-30906
M16
G05
G00X20005Y-33661
M15
G01X19729Y-33661
M16
G05
T0
M30
