%TF.GenerationSoftware,KiCad,Pcbnew,(5.1.6)-1*%
%TF.CreationDate,2020-10-11T19:25:41-07:00*%
%TF.ProjectId,Autopilot panel,4175746f-7069-46c6-9f74-2070616e656c,rev?*%
%TF.SameCoordinates,Original*%
%TF.FileFunction,Soldermask,Bot*%
%TF.FilePolarity,Negative*%
%FSLAX46Y46*%
G04 Gerber Fmt 4.6, Leading zero omitted, Abs format (unit mm)*
G04 Created by KiCad (PCBNEW (5.1.6)-1) date 2020-10-11 19:25:41*
%MOMM*%
%LPD*%
G01*
G04 APERTURE LIST*
%ADD10C,1.900000*%
%ADD11C,5.050000*%
%ADD12C,3.100000*%
%ADD13C,1.550000*%
%ADD14O,2.000000X1.300000*%
%ADD15C,2.100000*%
%ADD16O,1.800000X1.800000*%
%ADD17R,1.800000X1.800000*%
%ADD18R,1.900000X1.170000*%
%ADD19O,1.900000X1.170000*%
%ADD20R,1.700000X1.700000*%
%ADD21C,1.700000*%
G04 APERTURE END LIST*
D10*
%TO.C,J6*%
X145000000Y-108000000D03*
X150000000Y-108000000D03*
X147500000Y-108000000D03*
X145000000Y-93500000D03*
X150000000Y-93500000D03*
D11*
X142850000Y-100500000D03*
X152150000Y-100500000D03*
%TD*%
D12*
%TO.C,HOLE4*%
X192000000Y-69000000D03*
%TD*%
%TO.C,HOLE3*%
X192000000Y-115000000D03*
%TD*%
%TO.C,HOLE2*%
X39000000Y-115000000D03*
%TD*%
%TO.C,HOLE1*%
X39000000Y-69000000D03*
%TD*%
D13*
%TO.C,J1*%
X37162500Y-83500000D03*
X37162500Y-88500000D03*
D14*
X34462500Y-82500000D03*
X34462500Y-89500000D03*
%TD*%
D10*
%TO.C,J3*%
X49000000Y-108000000D03*
X54000000Y-108000000D03*
X51500000Y-108000000D03*
X49000000Y-93500000D03*
X54000000Y-93500000D03*
D11*
X46850000Y-100500000D03*
X56150000Y-100500000D03*
%TD*%
D10*
%TO.C,J4*%
X81000000Y-108000000D03*
X86000000Y-108000000D03*
X83500000Y-108000000D03*
X81000000Y-93500000D03*
X86000000Y-93500000D03*
D11*
X78850000Y-100500000D03*
X88150000Y-100500000D03*
%TD*%
%TO.C,J5*%
X120150000Y-100500000D03*
X110850000Y-100500000D03*
D10*
X118000000Y-93500000D03*
X113000000Y-93500000D03*
X115500000Y-108000000D03*
X118000000Y-108000000D03*
X113000000Y-108000000D03*
%TD*%
D11*
%TO.C,J7*%
X184150000Y-100500000D03*
X174850000Y-100500000D03*
D10*
X182000000Y-93500000D03*
X177000000Y-93500000D03*
X179500000Y-108000000D03*
X182000000Y-108000000D03*
X177000000Y-108000000D03*
%TD*%
D15*
%TO.C,SW1*%
X48000000Y-86500000D03*
X48000000Y-82000000D03*
X54500000Y-86500000D03*
X54500000Y-82000000D03*
%TD*%
%TO.C,SW2*%
X86500000Y-82000000D03*
X86500000Y-86500000D03*
X80000000Y-82000000D03*
X80000000Y-86500000D03*
%TD*%
%TO.C,SW3*%
X112000000Y-86500000D03*
X112000000Y-82000000D03*
X118500000Y-86500000D03*
X118500000Y-82000000D03*
%TD*%
%TO.C,SW4*%
X150500000Y-82000000D03*
X150500000Y-86500000D03*
X144000000Y-82000000D03*
X144000000Y-86500000D03*
%TD*%
%TO.C,SW5*%
X176000000Y-86500000D03*
X176000000Y-82000000D03*
X182500000Y-86500000D03*
X182500000Y-82000000D03*
%TD*%
D16*
%TO.C,J2*%
X133310000Y-117540000D03*
X133310000Y-115000000D03*
X130770000Y-117540000D03*
X130770000Y-115000000D03*
X128230000Y-117540000D03*
X128230000Y-115000000D03*
X125690000Y-117540000D03*
X125690000Y-115000000D03*
X123150000Y-117540000D03*
X123150000Y-115000000D03*
X120610000Y-117540000D03*
X120610000Y-115000000D03*
X118070000Y-117540000D03*
X118070000Y-115000000D03*
X115530000Y-117540000D03*
X115530000Y-115000000D03*
X112990000Y-117540000D03*
X112990000Y-115000000D03*
X110450000Y-117540000D03*
X110450000Y-115000000D03*
X107910000Y-117540000D03*
X107910000Y-115000000D03*
X105370000Y-117540000D03*
X105370000Y-115000000D03*
X102830000Y-117540000D03*
X102830000Y-115000000D03*
X100290000Y-117540000D03*
X100290000Y-115000000D03*
X97750000Y-117540000D03*
D17*
X97750000Y-115000000D03*
%TD*%
%TO.C,J8*%
X97750000Y-66000000D03*
D16*
X97750000Y-68540000D03*
X100290000Y-66000000D03*
X100290000Y-68540000D03*
X102830000Y-66000000D03*
X102830000Y-68540000D03*
X105370000Y-66000000D03*
X105370000Y-68540000D03*
X107910000Y-66000000D03*
X107910000Y-68540000D03*
X110450000Y-66000000D03*
X110450000Y-68540000D03*
X112990000Y-66000000D03*
X112990000Y-68540000D03*
X115530000Y-66000000D03*
X115530000Y-68540000D03*
X118070000Y-66000000D03*
X118070000Y-68540000D03*
X120610000Y-66000000D03*
X120610000Y-68540000D03*
X123150000Y-66000000D03*
X123150000Y-68540000D03*
X125690000Y-66000000D03*
X125690000Y-68540000D03*
X128230000Y-66000000D03*
X128230000Y-68540000D03*
X130770000Y-66000000D03*
X130770000Y-68540000D03*
X133310000Y-66000000D03*
X133310000Y-68540000D03*
%TD*%
D18*
%TO.C,D1*%
X51000000Y-76000000D03*
D19*
X51000000Y-74730000D03*
X51000000Y-73460000D03*
X51000000Y-72190000D03*
%TD*%
D18*
%TO.C,D2*%
X83500000Y-76000000D03*
D19*
X83500000Y-74730000D03*
X83500000Y-73460000D03*
X83500000Y-72190000D03*
%TD*%
D18*
%TO.C,D3*%
X115500000Y-76000000D03*
D19*
X115500000Y-74730000D03*
X115500000Y-73460000D03*
X115500000Y-72190000D03*
%TD*%
%TO.C,D4*%
X147500000Y-72190000D03*
X147500000Y-73460000D03*
X147500000Y-74730000D03*
D18*
X147500000Y-76000000D03*
%TD*%
%TO.C,D5*%
X180000000Y-75000000D03*
D19*
X180000000Y-73730000D03*
X180000000Y-72460000D03*
X180000000Y-71190000D03*
%TD*%
D20*
%TO.C,C1*%
X41600000Y-80300000D03*
D21*
X43600000Y-80300000D03*
%TD*%
M02*
