%TF.GenerationSoftware,KiCad,Pcbnew,(5.1.6)-1*%
%TF.CreationDate,2020-10-11T19:25:40-07:00*%
%TF.ProjectId,Autopilot panel,4175746f-7069-46c6-9f74-2070616e656c,rev?*%
%TF.SameCoordinates,Original*%
%TF.FileFunction,Paste,Top*%
%TF.FilePolarity,Positive*%
%FSLAX46Y46*%
G04 Gerber Fmt 4.6, Leading zero omitted, Abs format (unit mm)*
G04 Created by KiCad (PCBNEW (5.1.6)-1) date 2020-10-11 19:25:40*
%MOMM*%
%LPD*%
G01*
G04 APERTURE LIST*
%ADD10R,1.900000X1.500000*%
%ADD11R,1.350000X0.400000*%
%ADD12R,0.800000X0.500000*%
%ADD13R,0.800000X0.400000*%
G04 APERTURE END LIST*
%TO.C,C2*%
G36*
G01*
X41475000Y-108450001D02*
X41475000Y-107549999D01*
G75*
G02*
X41724999Y-107300000I249999J0D01*
G01*
X42375001Y-107300000D01*
G75*
G02*
X42625000Y-107549999I0J-249999D01*
G01*
X42625000Y-108450001D01*
G75*
G02*
X42375001Y-108700000I-249999J0D01*
G01*
X41724999Y-108700000D01*
G75*
G02*
X41475000Y-108450001I0J249999D01*
G01*
G37*
G36*
G01*
X39425000Y-108450001D02*
X39425000Y-107549999D01*
G75*
G02*
X39674999Y-107300000I249999J0D01*
G01*
X40325001Y-107300000D01*
G75*
G02*
X40575000Y-107549999I0J-249999D01*
G01*
X40575000Y-108450001D01*
G75*
G02*
X40325001Y-108700000I-249999J0D01*
G01*
X39674999Y-108700000D01*
G75*
G02*
X39425000Y-108450001I0J249999D01*
G01*
G37*
%TD*%
%TO.C,C3*%
G36*
G01*
X63600000Y-107549999D02*
X63600000Y-108450001D01*
G75*
G02*
X63350001Y-108700000I-249999J0D01*
G01*
X62699999Y-108700000D01*
G75*
G02*
X62450000Y-108450001I0J249999D01*
G01*
X62450000Y-107549999D01*
G75*
G02*
X62699999Y-107300000I249999J0D01*
G01*
X63350001Y-107300000D01*
G75*
G02*
X63600000Y-107549999I0J-249999D01*
G01*
G37*
G36*
G01*
X61550000Y-107549999D02*
X61550000Y-108450001D01*
G75*
G02*
X61300001Y-108700000I-249999J0D01*
G01*
X60649999Y-108700000D01*
G75*
G02*
X60400000Y-108450001I0J249999D01*
G01*
X60400000Y-107549999D01*
G75*
G02*
X60649999Y-107300000I249999J0D01*
G01*
X61300001Y-107300000D01*
G75*
G02*
X61550000Y-107549999I0J-249999D01*
G01*
G37*
%TD*%
%TO.C,C4*%
G36*
G01*
X71400000Y-108450001D02*
X71400000Y-107549999D01*
G75*
G02*
X71649999Y-107300000I249999J0D01*
G01*
X72300001Y-107300000D01*
G75*
G02*
X72550000Y-107549999I0J-249999D01*
G01*
X72550000Y-108450001D01*
G75*
G02*
X72300001Y-108700000I-249999J0D01*
G01*
X71649999Y-108700000D01*
G75*
G02*
X71400000Y-108450001I0J249999D01*
G01*
G37*
G36*
G01*
X73450000Y-108450001D02*
X73450000Y-107549999D01*
G75*
G02*
X73699999Y-107300000I249999J0D01*
G01*
X74350001Y-107300000D01*
G75*
G02*
X74600000Y-107549999I0J-249999D01*
G01*
X74600000Y-108450001D01*
G75*
G02*
X74350001Y-108700000I-249999J0D01*
G01*
X73699999Y-108700000D01*
G75*
G02*
X73450000Y-108450001I0J249999D01*
G01*
G37*
%TD*%
%TO.C,C5*%
G36*
G01*
X93550000Y-107549999D02*
X93550000Y-108450001D01*
G75*
G02*
X93300001Y-108700000I-249999J0D01*
G01*
X92649999Y-108700000D01*
G75*
G02*
X92400000Y-108450001I0J249999D01*
G01*
X92400000Y-107549999D01*
G75*
G02*
X92649999Y-107300000I249999J0D01*
G01*
X93300001Y-107300000D01*
G75*
G02*
X93550000Y-107549999I0J-249999D01*
G01*
G37*
G36*
G01*
X95600000Y-107549999D02*
X95600000Y-108450001D01*
G75*
G02*
X95350001Y-108700000I-249999J0D01*
G01*
X94699999Y-108700000D01*
G75*
G02*
X94450000Y-108450001I0J249999D01*
G01*
X94450000Y-107549999D01*
G75*
G02*
X94699999Y-107300000I249999J0D01*
G01*
X95350001Y-107300000D01*
G75*
G02*
X95600000Y-107549999I0J-249999D01*
G01*
G37*
%TD*%
%TO.C,C6*%
G36*
G01*
X103400000Y-108450001D02*
X103400000Y-107549999D01*
G75*
G02*
X103649999Y-107300000I249999J0D01*
G01*
X104300001Y-107300000D01*
G75*
G02*
X104550000Y-107549999I0J-249999D01*
G01*
X104550000Y-108450001D01*
G75*
G02*
X104300001Y-108700000I-249999J0D01*
G01*
X103649999Y-108700000D01*
G75*
G02*
X103400000Y-108450001I0J249999D01*
G01*
G37*
G36*
G01*
X105450000Y-108450001D02*
X105450000Y-107549999D01*
G75*
G02*
X105699999Y-107300000I249999J0D01*
G01*
X106350001Y-107300000D01*
G75*
G02*
X106600000Y-107549999I0J-249999D01*
G01*
X106600000Y-108450001D01*
G75*
G02*
X106350001Y-108700000I-249999J0D01*
G01*
X105699999Y-108700000D01*
G75*
G02*
X105450000Y-108450001I0J249999D01*
G01*
G37*
%TD*%
%TO.C,C7*%
G36*
G01*
X125550000Y-107549999D02*
X125550000Y-108450001D01*
G75*
G02*
X125300001Y-108700000I-249999J0D01*
G01*
X124649999Y-108700000D01*
G75*
G02*
X124400000Y-108450001I0J249999D01*
G01*
X124400000Y-107549999D01*
G75*
G02*
X124649999Y-107300000I249999J0D01*
G01*
X125300001Y-107300000D01*
G75*
G02*
X125550000Y-107549999I0J-249999D01*
G01*
G37*
G36*
G01*
X127600000Y-107549999D02*
X127600000Y-108450001D01*
G75*
G02*
X127350001Y-108700000I-249999J0D01*
G01*
X126699999Y-108700000D01*
G75*
G02*
X126450000Y-108450001I0J249999D01*
G01*
X126450000Y-107549999D01*
G75*
G02*
X126699999Y-107300000I249999J0D01*
G01*
X127350001Y-107300000D01*
G75*
G02*
X127600000Y-107549999I0J-249999D01*
G01*
G37*
%TD*%
%TO.C,C8*%
G36*
G01*
X137450000Y-108450001D02*
X137450000Y-107549999D01*
G75*
G02*
X137699999Y-107300000I249999J0D01*
G01*
X138350001Y-107300000D01*
G75*
G02*
X138600000Y-107549999I0J-249999D01*
G01*
X138600000Y-108450001D01*
G75*
G02*
X138350001Y-108700000I-249999J0D01*
G01*
X137699999Y-108700000D01*
G75*
G02*
X137450000Y-108450001I0J249999D01*
G01*
G37*
G36*
G01*
X135400000Y-108450001D02*
X135400000Y-107549999D01*
G75*
G02*
X135649999Y-107300000I249999J0D01*
G01*
X136300001Y-107300000D01*
G75*
G02*
X136550000Y-107549999I0J-249999D01*
G01*
X136550000Y-108450001D01*
G75*
G02*
X136300001Y-108700000I-249999J0D01*
G01*
X135649999Y-108700000D01*
G75*
G02*
X135400000Y-108450001I0J249999D01*
G01*
G37*
%TD*%
%TO.C,C9*%
G36*
G01*
X159600000Y-107549999D02*
X159600000Y-108450001D01*
G75*
G02*
X159350001Y-108700000I-249999J0D01*
G01*
X158699999Y-108700000D01*
G75*
G02*
X158450000Y-108450001I0J249999D01*
G01*
X158450000Y-107549999D01*
G75*
G02*
X158699999Y-107300000I249999J0D01*
G01*
X159350001Y-107300000D01*
G75*
G02*
X159600000Y-107549999I0J-249999D01*
G01*
G37*
G36*
G01*
X157550000Y-107549999D02*
X157550000Y-108450001D01*
G75*
G02*
X157300001Y-108700000I-249999J0D01*
G01*
X156649999Y-108700000D01*
G75*
G02*
X156400000Y-108450001I0J249999D01*
G01*
X156400000Y-107549999D01*
G75*
G02*
X156649999Y-107300000I249999J0D01*
G01*
X157300001Y-107300000D01*
G75*
G02*
X157550000Y-107549999I0J-249999D01*
G01*
G37*
%TD*%
%TO.C,C10*%
G36*
G01*
X167400000Y-108450001D02*
X167400000Y-107549999D01*
G75*
G02*
X167649999Y-107300000I249999J0D01*
G01*
X168300001Y-107300000D01*
G75*
G02*
X168550000Y-107549999I0J-249999D01*
G01*
X168550000Y-108450001D01*
G75*
G02*
X168300001Y-108700000I-249999J0D01*
G01*
X167649999Y-108700000D01*
G75*
G02*
X167400000Y-108450001I0J249999D01*
G01*
G37*
G36*
G01*
X169450000Y-108450001D02*
X169450000Y-107549999D01*
G75*
G02*
X169699999Y-107300000I249999J0D01*
G01*
X170350001Y-107300000D01*
G75*
G02*
X170600000Y-107549999I0J-249999D01*
G01*
X170600000Y-108450001D01*
G75*
G02*
X170350001Y-108700000I-249999J0D01*
G01*
X169699999Y-108700000D01*
G75*
G02*
X169450000Y-108450001I0J249999D01*
G01*
G37*
%TD*%
%TO.C,C11*%
G36*
G01*
X189550000Y-107549999D02*
X189550000Y-108450001D01*
G75*
G02*
X189300001Y-108700000I-249999J0D01*
G01*
X188649999Y-108700000D01*
G75*
G02*
X188400000Y-108450001I0J249999D01*
G01*
X188400000Y-107549999D01*
G75*
G02*
X188649999Y-107300000I249999J0D01*
G01*
X189300001Y-107300000D01*
G75*
G02*
X189550000Y-107549999I0J-249999D01*
G01*
G37*
G36*
G01*
X191600000Y-107549999D02*
X191600000Y-108450001D01*
G75*
G02*
X191350001Y-108700000I-249999J0D01*
G01*
X190699999Y-108700000D01*
G75*
G02*
X190450000Y-108450001I0J249999D01*
G01*
X190450000Y-107549999D01*
G75*
G02*
X190699999Y-107300000I249999J0D01*
G01*
X191350001Y-107300000D01*
G75*
G02*
X191600000Y-107549999I0J-249999D01*
G01*
G37*
%TD*%
D10*
%TO.C,J1*%
X34462500Y-87000000D03*
D11*
X37162500Y-85350000D03*
X37162500Y-84700000D03*
X37162500Y-87300000D03*
X37162500Y-86650000D03*
X37162500Y-86000000D03*
D10*
X34462500Y-85000000D03*
%TD*%
%TO.C,R6*%
G36*
G01*
X41450000Y-104450001D02*
X41450000Y-103549999D01*
G75*
G02*
X41699999Y-103300000I249999J0D01*
G01*
X42350001Y-103300000D01*
G75*
G02*
X42600000Y-103549999I0J-249999D01*
G01*
X42600000Y-104450001D01*
G75*
G02*
X42350001Y-104700000I-249999J0D01*
G01*
X41699999Y-104700000D01*
G75*
G02*
X41450000Y-104450001I0J249999D01*
G01*
G37*
G36*
G01*
X39400000Y-104450001D02*
X39400000Y-103549999D01*
G75*
G02*
X39649999Y-103300000I249999J0D01*
G01*
X40300001Y-103300000D01*
G75*
G02*
X40550000Y-103549999I0J-249999D01*
G01*
X40550000Y-104450001D01*
G75*
G02*
X40300001Y-104700000I-249999J0D01*
G01*
X39649999Y-104700000D01*
G75*
G02*
X39400000Y-104450001I0J249999D01*
G01*
G37*
%TD*%
%TO.C,R7*%
G36*
G01*
X63600000Y-103549999D02*
X63600000Y-104450001D01*
G75*
G02*
X63350001Y-104700000I-249999J0D01*
G01*
X62699999Y-104700000D01*
G75*
G02*
X62450000Y-104450001I0J249999D01*
G01*
X62450000Y-103549999D01*
G75*
G02*
X62699999Y-103300000I249999J0D01*
G01*
X63350001Y-103300000D01*
G75*
G02*
X63600000Y-103549999I0J-249999D01*
G01*
G37*
G36*
G01*
X61550000Y-103549999D02*
X61550000Y-104450001D01*
G75*
G02*
X61300001Y-104700000I-249999J0D01*
G01*
X60649999Y-104700000D01*
G75*
G02*
X60400000Y-104450001I0J249999D01*
G01*
X60400000Y-103549999D01*
G75*
G02*
X60649999Y-103300000I249999J0D01*
G01*
X61300001Y-103300000D01*
G75*
G02*
X61550000Y-103549999I0J-249999D01*
G01*
G37*
%TD*%
%TO.C,R8*%
G36*
G01*
X39400000Y-100450001D02*
X39400000Y-99549999D01*
G75*
G02*
X39649999Y-99300000I249999J0D01*
G01*
X40300001Y-99300000D01*
G75*
G02*
X40550000Y-99549999I0J-249999D01*
G01*
X40550000Y-100450001D01*
G75*
G02*
X40300001Y-100700000I-249999J0D01*
G01*
X39649999Y-100700000D01*
G75*
G02*
X39400000Y-100450001I0J249999D01*
G01*
G37*
G36*
G01*
X41450000Y-100450001D02*
X41450000Y-99549999D01*
G75*
G02*
X41699999Y-99300000I249999J0D01*
G01*
X42350001Y-99300000D01*
G75*
G02*
X42600000Y-99549999I0J-249999D01*
G01*
X42600000Y-100450001D01*
G75*
G02*
X42350001Y-100700000I-249999J0D01*
G01*
X41699999Y-100700000D01*
G75*
G02*
X41450000Y-100450001I0J249999D01*
G01*
G37*
%TD*%
%TO.C,R9*%
G36*
G01*
X61550000Y-99549999D02*
X61550000Y-100450001D01*
G75*
G02*
X61300001Y-100700000I-249999J0D01*
G01*
X60649999Y-100700000D01*
G75*
G02*
X60400000Y-100450001I0J249999D01*
G01*
X60400000Y-99549999D01*
G75*
G02*
X60649999Y-99300000I249999J0D01*
G01*
X61300001Y-99300000D01*
G75*
G02*
X61550000Y-99549999I0J-249999D01*
G01*
G37*
G36*
G01*
X63600000Y-99549999D02*
X63600000Y-100450001D01*
G75*
G02*
X63350001Y-100700000I-249999J0D01*
G01*
X62699999Y-100700000D01*
G75*
G02*
X62450000Y-100450001I0J249999D01*
G01*
X62450000Y-99549999D01*
G75*
G02*
X62699999Y-99300000I249999J0D01*
G01*
X63350001Y-99300000D01*
G75*
G02*
X63600000Y-99549999I0J-249999D01*
G01*
G37*
%TD*%
%TO.C,R10*%
G36*
G01*
X73450000Y-104450001D02*
X73450000Y-103549999D01*
G75*
G02*
X73699999Y-103300000I249999J0D01*
G01*
X74350001Y-103300000D01*
G75*
G02*
X74600000Y-103549999I0J-249999D01*
G01*
X74600000Y-104450001D01*
G75*
G02*
X74350001Y-104700000I-249999J0D01*
G01*
X73699999Y-104700000D01*
G75*
G02*
X73450000Y-104450001I0J249999D01*
G01*
G37*
G36*
G01*
X71400000Y-104450001D02*
X71400000Y-103549999D01*
G75*
G02*
X71649999Y-103300000I249999J0D01*
G01*
X72300001Y-103300000D01*
G75*
G02*
X72550000Y-103549999I0J-249999D01*
G01*
X72550000Y-104450001D01*
G75*
G02*
X72300001Y-104700000I-249999J0D01*
G01*
X71649999Y-104700000D01*
G75*
G02*
X71400000Y-104450001I0J249999D01*
G01*
G37*
%TD*%
%TO.C,R11*%
G36*
G01*
X93550000Y-103549999D02*
X93550000Y-104450001D01*
G75*
G02*
X93300001Y-104700000I-249999J0D01*
G01*
X92649999Y-104700000D01*
G75*
G02*
X92400000Y-104450001I0J249999D01*
G01*
X92400000Y-103549999D01*
G75*
G02*
X92649999Y-103300000I249999J0D01*
G01*
X93300001Y-103300000D01*
G75*
G02*
X93550000Y-103549999I0J-249999D01*
G01*
G37*
G36*
G01*
X95600000Y-103549999D02*
X95600000Y-104450001D01*
G75*
G02*
X95350001Y-104700000I-249999J0D01*
G01*
X94699999Y-104700000D01*
G75*
G02*
X94450000Y-104450001I0J249999D01*
G01*
X94450000Y-103549999D01*
G75*
G02*
X94699999Y-103300000I249999J0D01*
G01*
X95350001Y-103300000D01*
G75*
G02*
X95600000Y-103549999I0J-249999D01*
G01*
G37*
%TD*%
%TO.C,R12*%
G36*
G01*
X73450000Y-100450001D02*
X73450000Y-99549999D01*
G75*
G02*
X73699999Y-99300000I249999J0D01*
G01*
X74350001Y-99300000D01*
G75*
G02*
X74600000Y-99549999I0J-249999D01*
G01*
X74600000Y-100450001D01*
G75*
G02*
X74350001Y-100700000I-249999J0D01*
G01*
X73699999Y-100700000D01*
G75*
G02*
X73450000Y-100450001I0J249999D01*
G01*
G37*
G36*
G01*
X71400000Y-100450001D02*
X71400000Y-99549999D01*
G75*
G02*
X71649999Y-99300000I249999J0D01*
G01*
X72300001Y-99300000D01*
G75*
G02*
X72550000Y-99549999I0J-249999D01*
G01*
X72550000Y-100450001D01*
G75*
G02*
X72300001Y-100700000I-249999J0D01*
G01*
X71649999Y-100700000D01*
G75*
G02*
X71400000Y-100450001I0J249999D01*
G01*
G37*
%TD*%
%TO.C,R13*%
G36*
G01*
X95600000Y-99549999D02*
X95600000Y-100450001D01*
G75*
G02*
X95350001Y-100700000I-249999J0D01*
G01*
X94699999Y-100700000D01*
G75*
G02*
X94450000Y-100450001I0J249999D01*
G01*
X94450000Y-99549999D01*
G75*
G02*
X94699999Y-99300000I249999J0D01*
G01*
X95350001Y-99300000D01*
G75*
G02*
X95600000Y-99549999I0J-249999D01*
G01*
G37*
G36*
G01*
X93550000Y-99549999D02*
X93550000Y-100450001D01*
G75*
G02*
X93300001Y-100700000I-249999J0D01*
G01*
X92649999Y-100700000D01*
G75*
G02*
X92400000Y-100450001I0J249999D01*
G01*
X92400000Y-99549999D01*
G75*
G02*
X92649999Y-99300000I249999J0D01*
G01*
X93300001Y-99300000D01*
G75*
G02*
X93550000Y-99549999I0J-249999D01*
G01*
G37*
%TD*%
%TO.C,R14*%
G36*
G01*
X103400000Y-104450001D02*
X103400000Y-103549999D01*
G75*
G02*
X103649999Y-103300000I249999J0D01*
G01*
X104300001Y-103300000D01*
G75*
G02*
X104550000Y-103549999I0J-249999D01*
G01*
X104550000Y-104450001D01*
G75*
G02*
X104300001Y-104700000I-249999J0D01*
G01*
X103649999Y-104700000D01*
G75*
G02*
X103400000Y-104450001I0J249999D01*
G01*
G37*
G36*
G01*
X105450000Y-104450001D02*
X105450000Y-103549999D01*
G75*
G02*
X105699999Y-103300000I249999J0D01*
G01*
X106350001Y-103300000D01*
G75*
G02*
X106600000Y-103549999I0J-249999D01*
G01*
X106600000Y-104450001D01*
G75*
G02*
X106350001Y-104700000I-249999J0D01*
G01*
X105699999Y-104700000D01*
G75*
G02*
X105450000Y-104450001I0J249999D01*
G01*
G37*
%TD*%
%TO.C,R15*%
G36*
G01*
X125550000Y-103549999D02*
X125550000Y-104450001D01*
G75*
G02*
X125300001Y-104700000I-249999J0D01*
G01*
X124649999Y-104700000D01*
G75*
G02*
X124400000Y-104450001I0J249999D01*
G01*
X124400000Y-103549999D01*
G75*
G02*
X124649999Y-103300000I249999J0D01*
G01*
X125300001Y-103300000D01*
G75*
G02*
X125550000Y-103549999I0J-249999D01*
G01*
G37*
G36*
G01*
X127600000Y-103549999D02*
X127600000Y-104450001D01*
G75*
G02*
X127350001Y-104700000I-249999J0D01*
G01*
X126699999Y-104700000D01*
G75*
G02*
X126450000Y-104450001I0J249999D01*
G01*
X126450000Y-103549999D01*
G75*
G02*
X126699999Y-103300000I249999J0D01*
G01*
X127350001Y-103300000D01*
G75*
G02*
X127600000Y-103549999I0J-249999D01*
G01*
G37*
%TD*%
%TO.C,R16*%
G36*
G01*
X103400000Y-100450001D02*
X103400000Y-99549999D01*
G75*
G02*
X103649999Y-99300000I249999J0D01*
G01*
X104300001Y-99300000D01*
G75*
G02*
X104550000Y-99549999I0J-249999D01*
G01*
X104550000Y-100450001D01*
G75*
G02*
X104300001Y-100700000I-249999J0D01*
G01*
X103649999Y-100700000D01*
G75*
G02*
X103400000Y-100450001I0J249999D01*
G01*
G37*
G36*
G01*
X105450000Y-100450001D02*
X105450000Y-99549999D01*
G75*
G02*
X105699999Y-99300000I249999J0D01*
G01*
X106350001Y-99300000D01*
G75*
G02*
X106600000Y-99549999I0J-249999D01*
G01*
X106600000Y-100450001D01*
G75*
G02*
X106350001Y-100700000I-249999J0D01*
G01*
X105699999Y-100700000D01*
G75*
G02*
X105450000Y-100450001I0J249999D01*
G01*
G37*
%TD*%
%TO.C,R17*%
G36*
G01*
X127600000Y-99549999D02*
X127600000Y-100450001D01*
G75*
G02*
X127350001Y-100700000I-249999J0D01*
G01*
X126699999Y-100700000D01*
G75*
G02*
X126450000Y-100450001I0J249999D01*
G01*
X126450000Y-99549999D01*
G75*
G02*
X126699999Y-99300000I249999J0D01*
G01*
X127350001Y-99300000D01*
G75*
G02*
X127600000Y-99549999I0J-249999D01*
G01*
G37*
G36*
G01*
X125550000Y-99549999D02*
X125550000Y-100450001D01*
G75*
G02*
X125300001Y-100700000I-249999J0D01*
G01*
X124649999Y-100700000D01*
G75*
G02*
X124400000Y-100450001I0J249999D01*
G01*
X124400000Y-99549999D01*
G75*
G02*
X124649999Y-99300000I249999J0D01*
G01*
X125300001Y-99300000D01*
G75*
G02*
X125550000Y-99549999I0J-249999D01*
G01*
G37*
%TD*%
%TO.C,R18*%
G36*
G01*
X135400000Y-104450001D02*
X135400000Y-103549999D01*
G75*
G02*
X135649999Y-103300000I249999J0D01*
G01*
X136300001Y-103300000D01*
G75*
G02*
X136550000Y-103549999I0J-249999D01*
G01*
X136550000Y-104450001D01*
G75*
G02*
X136300001Y-104700000I-249999J0D01*
G01*
X135649999Y-104700000D01*
G75*
G02*
X135400000Y-104450001I0J249999D01*
G01*
G37*
G36*
G01*
X137450000Y-104450001D02*
X137450000Y-103549999D01*
G75*
G02*
X137699999Y-103300000I249999J0D01*
G01*
X138350001Y-103300000D01*
G75*
G02*
X138600000Y-103549999I0J-249999D01*
G01*
X138600000Y-104450001D01*
G75*
G02*
X138350001Y-104700000I-249999J0D01*
G01*
X137699999Y-104700000D01*
G75*
G02*
X137450000Y-104450001I0J249999D01*
G01*
G37*
%TD*%
%TO.C,R19*%
G36*
G01*
X157550000Y-103549999D02*
X157550000Y-104450001D01*
G75*
G02*
X157300001Y-104700000I-249999J0D01*
G01*
X156649999Y-104700000D01*
G75*
G02*
X156400000Y-104450001I0J249999D01*
G01*
X156400000Y-103549999D01*
G75*
G02*
X156649999Y-103300000I249999J0D01*
G01*
X157300001Y-103300000D01*
G75*
G02*
X157550000Y-103549999I0J-249999D01*
G01*
G37*
G36*
G01*
X159600000Y-103549999D02*
X159600000Y-104450001D01*
G75*
G02*
X159350001Y-104700000I-249999J0D01*
G01*
X158699999Y-104700000D01*
G75*
G02*
X158450000Y-104450001I0J249999D01*
G01*
X158450000Y-103549999D01*
G75*
G02*
X158699999Y-103300000I249999J0D01*
G01*
X159350001Y-103300000D01*
G75*
G02*
X159600000Y-103549999I0J-249999D01*
G01*
G37*
%TD*%
%TO.C,R20*%
G36*
G01*
X137450000Y-100450001D02*
X137450000Y-99549999D01*
G75*
G02*
X137699999Y-99300000I249999J0D01*
G01*
X138350001Y-99300000D01*
G75*
G02*
X138600000Y-99549999I0J-249999D01*
G01*
X138600000Y-100450001D01*
G75*
G02*
X138350001Y-100700000I-249999J0D01*
G01*
X137699999Y-100700000D01*
G75*
G02*
X137450000Y-100450001I0J249999D01*
G01*
G37*
G36*
G01*
X135400000Y-100450001D02*
X135400000Y-99549999D01*
G75*
G02*
X135649999Y-99300000I249999J0D01*
G01*
X136300001Y-99300000D01*
G75*
G02*
X136550000Y-99549999I0J-249999D01*
G01*
X136550000Y-100450001D01*
G75*
G02*
X136300001Y-100700000I-249999J0D01*
G01*
X135649999Y-100700000D01*
G75*
G02*
X135400000Y-100450001I0J249999D01*
G01*
G37*
%TD*%
%TO.C,R21*%
G36*
G01*
X159600000Y-99549999D02*
X159600000Y-100450001D01*
G75*
G02*
X159350001Y-100700000I-249999J0D01*
G01*
X158699999Y-100700000D01*
G75*
G02*
X158450000Y-100450001I0J249999D01*
G01*
X158450000Y-99549999D01*
G75*
G02*
X158699999Y-99300000I249999J0D01*
G01*
X159350001Y-99300000D01*
G75*
G02*
X159600000Y-99549999I0J-249999D01*
G01*
G37*
G36*
G01*
X157550000Y-99549999D02*
X157550000Y-100450001D01*
G75*
G02*
X157300001Y-100700000I-249999J0D01*
G01*
X156649999Y-100700000D01*
G75*
G02*
X156400000Y-100450001I0J249999D01*
G01*
X156400000Y-99549999D01*
G75*
G02*
X156649999Y-99300000I249999J0D01*
G01*
X157300001Y-99300000D01*
G75*
G02*
X157550000Y-99549999I0J-249999D01*
G01*
G37*
%TD*%
%TO.C,R22*%
G36*
G01*
X167400000Y-104450001D02*
X167400000Y-103549999D01*
G75*
G02*
X167649999Y-103300000I249999J0D01*
G01*
X168300001Y-103300000D01*
G75*
G02*
X168550000Y-103549999I0J-249999D01*
G01*
X168550000Y-104450001D01*
G75*
G02*
X168300001Y-104700000I-249999J0D01*
G01*
X167649999Y-104700000D01*
G75*
G02*
X167400000Y-104450001I0J249999D01*
G01*
G37*
G36*
G01*
X169450000Y-104450001D02*
X169450000Y-103549999D01*
G75*
G02*
X169699999Y-103300000I249999J0D01*
G01*
X170350001Y-103300000D01*
G75*
G02*
X170600000Y-103549999I0J-249999D01*
G01*
X170600000Y-104450001D01*
G75*
G02*
X170350001Y-104700000I-249999J0D01*
G01*
X169699999Y-104700000D01*
G75*
G02*
X169450000Y-104450001I0J249999D01*
G01*
G37*
%TD*%
%TO.C,R23*%
G36*
G01*
X189550000Y-103549999D02*
X189550000Y-104450001D01*
G75*
G02*
X189300001Y-104700000I-249999J0D01*
G01*
X188649999Y-104700000D01*
G75*
G02*
X188400000Y-104450001I0J249999D01*
G01*
X188400000Y-103549999D01*
G75*
G02*
X188649999Y-103300000I249999J0D01*
G01*
X189300001Y-103300000D01*
G75*
G02*
X189550000Y-103549999I0J-249999D01*
G01*
G37*
G36*
G01*
X191600000Y-103549999D02*
X191600000Y-104450001D01*
G75*
G02*
X191350001Y-104700000I-249999J0D01*
G01*
X190699999Y-104700000D01*
G75*
G02*
X190450000Y-104450001I0J249999D01*
G01*
X190450000Y-103549999D01*
G75*
G02*
X190699999Y-103300000I249999J0D01*
G01*
X191350001Y-103300000D01*
G75*
G02*
X191600000Y-103549999I0J-249999D01*
G01*
G37*
%TD*%
%TO.C,R24*%
G36*
G01*
X169450000Y-100450001D02*
X169450000Y-99549999D01*
G75*
G02*
X169699999Y-99300000I249999J0D01*
G01*
X170350001Y-99300000D01*
G75*
G02*
X170600000Y-99549999I0J-249999D01*
G01*
X170600000Y-100450001D01*
G75*
G02*
X170350001Y-100700000I-249999J0D01*
G01*
X169699999Y-100700000D01*
G75*
G02*
X169450000Y-100450001I0J249999D01*
G01*
G37*
G36*
G01*
X167400000Y-100450001D02*
X167400000Y-99549999D01*
G75*
G02*
X167649999Y-99300000I249999J0D01*
G01*
X168300001Y-99300000D01*
G75*
G02*
X168550000Y-99549999I0J-249999D01*
G01*
X168550000Y-100450001D01*
G75*
G02*
X168300001Y-100700000I-249999J0D01*
G01*
X167649999Y-100700000D01*
G75*
G02*
X167400000Y-100450001I0J249999D01*
G01*
G37*
%TD*%
%TO.C,R25*%
G36*
G01*
X191600000Y-99549999D02*
X191600000Y-100450001D01*
G75*
G02*
X191350001Y-100700000I-249999J0D01*
G01*
X190699999Y-100700000D01*
G75*
G02*
X190450000Y-100450001I0J249999D01*
G01*
X190450000Y-99549999D01*
G75*
G02*
X190699999Y-99300000I249999J0D01*
G01*
X191350001Y-99300000D01*
G75*
G02*
X191600000Y-99549999I0J-249999D01*
G01*
G37*
G36*
G01*
X189550000Y-99549999D02*
X189550000Y-100450001D01*
G75*
G02*
X189300001Y-100700000I-249999J0D01*
G01*
X188649999Y-100700000D01*
G75*
G02*
X188400000Y-100450001I0J249999D01*
G01*
X188400000Y-99549999D01*
G75*
G02*
X188649999Y-99300000I249999J0D01*
G01*
X189300001Y-99300000D01*
G75*
G02*
X189550000Y-99549999I0J-249999D01*
G01*
G37*
%TD*%
%TO.C,D6*%
G36*
G01*
X44100000Y-88549999D02*
X44100000Y-89450001D01*
G75*
G02*
X43850001Y-89700000I-249999J0D01*
G01*
X43199999Y-89700000D01*
G75*
G02*
X42950000Y-89450001I0J249999D01*
G01*
X42950000Y-88549999D01*
G75*
G02*
X43199999Y-88300000I249999J0D01*
G01*
X43850001Y-88300000D01*
G75*
G02*
X44100000Y-88549999I0J-249999D01*
G01*
G37*
G36*
G01*
X42050000Y-88549999D02*
X42050000Y-89450001D01*
G75*
G02*
X41800001Y-89700000I-249999J0D01*
G01*
X41149999Y-89700000D01*
G75*
G02*
X40900000Y-89450001I0J249999D01*
G01*
X40900000Y-88549999D01*
G75*
G02*
X41149999Y-88300000I249999J0D01*
G01*
X41800001Y-88300000D01*
G75*
G02*
X42050000Y-88549999I0J-249999D01*
G01*
G37*
%TD*%
%TO.C,R26*%
G36*
G01*
X40900000Y-86450001D02*
X40900000Y-85549999D01*
G75*
G02*
X41149999Y-85300000I249999J0D01*
G01*
X41800001Y-85300000D01*
G75*
G02*
X42050000Y-85549999I0J-249999D01*
G01*
X42050000Y-86450001D01*
G75*
G02*
X41800001Y-86700000I-249999J0D01*
G01*
X41149999Y-86700000D01*
G75*
G02*
X40900000Y-86450001I0J249999D01*
G01*
G37*
G36*
G01*
X42950000Y-86450001D02*
X42950000Y-85549999D01*
G75*
G02*
X43199999Y-85300000I249999J0D01*
G01*
X43850001Y-85300000D01*
G75*
G02*
X44100000Y-85549999I0J-249999D01*
G01*
X44100000Y-86450001D01*
G75*
G02*
X43850001Y-86700000I-249999J0D01*
G01*
X43199999Y-86700000D01*
G75*
G02*
X42950000Y-86450001I0J249999D01*
G01*
G37*
%TD*%
D12*
%TO.C,RN1*%
X55600000Y-72800000D03*
D13*
X55600000Y-74400000D03*
X55600000Y-73600000D03*
D12*
X55600000Y-75200000D03*
D13*
X57400000Y-73600000D03*
D12*
X57400000Y-72800000D03*
D13*
X57400000Y-74400000D03*
D12*
X57400000Y-75200000D03*
%TD*%
%TO.C,RN2*%
X89900000Y-75700000D03*
D13*
X89900000Y-74900000D03*
D12*
X89900000Y-73300000D03*
D13*
X89900000Y-74100000D03*
D12*
X88100000Y-75700000D03*
D13*
X88100000Y-74100000D03*
X88100000Y-74900000D03*
D12*
X88100000Y-73300000D03*
%TD*%
%TO.C,RN3*%
X120100000Y-73300000D03*
D13*
X120100000Y-74900000D03*
X120100000Y-74100000D03*
D12*
X120100000Y-75700000D03*
D13*
X121900000Y-74100000D03*
D12*
X121900000Y-73300000D03*
D13*
X121900000Y-74900000D03*
D12*
X121900000Y-75700000D03*
%TD*%
%TO.C,RN4*%
X153900000Y-75200000D03*
D13*
X153900000Y-74400000D03*
D12*
X153900000Y-72800000D03*
D13*
X153900000Y-73600000D03*
D12*
X152100000Y-75200000D03*
D13*
X152100000Y-73600000D03*
X152100000Y-74400000D03*
D12*
X152100000Y-72800000D03*
%TD*%
%TO.C,RN5*%
X184600000Y-71800000D03*
D13*
X184600000Y-73400000D03*
X184600000Y-72600000D03*
D12*
X184600000Y-74200000D03*
D13*
X186400000Y-72600000D03*
D12*
X186400000Y-71800000D03*
D13*
X186400000Y-73400000D03*
D12*
X186400000Y-74200000D03*
%TD*%
M02*
