%TF.GenerationSoftware,KiCad,Pcbnew,(5.1.6)-1*%
%TF.CreationDate,2020-10-11T13:06:13-07:00*%
%TF.ProjectId,Autopilot panel,4175746f-7069-46c6-9f74-2070616e656c,rev?*%
%TF.SameCoordinates,Original*%
%TF.FileFunction,Paste,Top*%
%TF.FilePolarity,Positive*%
%FSLAX46Y46*%
G04 Gerber Fmt 4.6, Leading zero omitted, Abs format (unit mm)*
G04 Created by KiCad (PCBNEW (5.1.6)-1) date 2020-10-11 13:06:13*
%MOMM*%
%LPD*%
G01*
G04 APERTURE LIST*
%ADD10R,1.900000X1.500000*%
%ADD11R,1.350000X0.400000*%
G04 APERTURE END LIST*
%TO.C,C1*%
G36*
G01*
X54846000Y-78657001D02*
X54846000Y-77806999D01*
G75*
G02*
X55095999Y-77557000I249999J0D01*
G01*
X55996001Y-77557000D01*
G75*
G02*
X56246000Y-77806999I0J-249999D01*
G01*
X56246000Y-78657001D01*
G75*
G02*
X55996001Y-78907000I-249999J0D01*
G01*
X55095999Y-78907000D01*
G75*
G02*
X54846000Y-78657001I0J249999D01*
G01*
G37*
G36*
G01*
X57546000Y-78657001D02*
X57546000Y-77806999D01*
G75*
G02*
X57795999Y-77557000I249999J0D01*
G01*
X58696001Y-77557000D01*
G75*
G02*
X58946000Y-77806999I0J-249999D01*
G01*
X58946000Y-78657001D01*
G75*
G02*
X58696001Y-78907000I-249999J0D01*
G01*
X57795999Y-78907000D01*
G75*
G02*
X57546000Y-78657001I0J249999D01*
G01*
G37*
%TD*%
%TO.C,C2*%
G36*
G01*
X53475000Y-105450001D02*
X53475000Y-104549999D01*
G75*
G02*
X53724999Y-104300000I249999J0D01*
G01*
X54375001Y-104300000D01*
G75*
G02*
X54625000Y-104549999I0J-249999D01*
G01*
X54625000Y-105450001D01*
G75*
G02*
X54375001Y-105700000I-249999J0D01*
G01*
X53724999Y-105700000D01*
G75*
G02*
X53475000Y-105450001I0J249999D01*
G01*
G37*
G36*
G01*
X51425000Y-105450001D02*
X51425000Y-104549999D01*
G75*
G02*
X51674999Y-104300000I249999J0D01*
G01*
X52325001Y-104300000D01*
G75*
G02*
X52575000Y-104549999I0J-249999D01*
G01*
X52575000Y-105450001D01*
G75*
G02*
X52325001Y-105700000I-249999J0D01*
G01*
X51674999Y-105700000D01*
G75*
G02*
X51425000Y-105450001I0J249999D01*
G01*
G37*
%TD*%
%TO.C,C3*%
G36*
G01*
X75600000Y-104549999D02*
X75600000Y-105450001D01*
G75*
G02*
X75350001Y-105700000I-249999J0D01*
G01*
X74699999Y-105700000D01*
G75*
G02*
X74450000Y-105450001I0J249999D01*
G01*
X74450000Y-104549999D01*
G75*
G02*
X74699999Y-104300000I249999J0D01*
G01*
X75350001Y-104300000D01*
G75*
G02*
X75600000Y-104549999I0J-249999D01*
G01*
G37*
G36*
G01*
X73550000Y-104549999D02*
X73550000Y-105450001D01*
G75*
G02*
X73300001Y-105700000I-249999J0D01*
G01*
X72649999Y-105700000D01*
G75*
G02*
X72400000Y-105450001I0J249999D01*
G01*
X72400000Y-104549999D01*
G75*
G02*
X72649999Y-104300000I249999J0D01*
G01*
X73300001Y-104300000D01*
G75*
G02*
X73550000Y-104549999I0J-249999D01*
G01*
G37*
%TD*%
%TO.C,C4*%
G36*
G01*
X77400000Y-105450001D02*
X77400000Y-104549999D01*
G75*
G02*
X77649999Y-104300000I249999J0D01*
G01*
X78300001Y-104300000D01*
G75*
G02*
X78550000Y-104549999I0J-249999D01*
G01*
X78550000Y-105450001D01*
G75*
G02*
X78300001Y-105700000I-249999J0D01*
G01*
X77649999Y-105700000D01*
G75*
G02*
X77400000Y-105450001I0J249999D01*
G01*
G37*
G36*
G01*
X79450000Y-105450001D02*
X79450000Y-104549999D01*
G75*
G02*
X79699999Y-104300000I249999J0D01*
G01*
X80350001Y-104300000D01*
G75*
G02*
X80600000Y-104549999I0J-249999D01*
G01*
X80600000Y-105450001D01*
G75*
G02*
X80350001Y-105700000I-249999J0D01*
G01*
X79699999Y-105700000D01*
G75*
G02*
X79450000Y-105450001I0J249999D01*
G01*
G37*
%TD*%
%TO.C,C5*%
G36*
G01*
X99550000Y-104549999D02*
X99550000Y-105450001D01*
G75*
G02*
X99300001Y-105700000I-249999J0D01*
G01*
X98649999Y-105700000D01*
G75*
G02*
X98400000Y-105450001I0J249999D01*
G01*
X98400000Y-104549999D01*
G75*
G02*
X98649999Y-104300000I249999J0D01*
G01*
X99300001Y-104300000D01*
G75*
G02*
X99550000Y-104549999I0J-249999D01*
G01*
G37*
G36*
G01*
X101600000Y-104549999D02*
X101600000Y-105450001D01*
G75*
G02*
X101350001Y-105700000I-249999J0D01*
G01*
X100699999Y-105700000D01*
G75*
G02*
X100450000Y-105450001I0J249999D01*
G01*
X100450000Y-104549999D01*
G75*
G02*
X100699999Y-104300000I249999J0D01*
G01*
X101350001Y-104300000D01*
G75*
G02*
X101600000Y-104549999I0J-249999D01*
G01*
G37*
%TD*%
%TO.C,C6*%
G36*
G01*
X103400000Y-105450001D02*
X103400000Y-104549999D01*
G75*
G02*
X103649999Y-104300000I249999J0D01*
G01*
X104300001Y-104300000D01*
G75*
G02*
X104550000Y-104549999I0J-249999D01*
G01*
X104550000Y-105450001D01*
G75*
G02*
X104300001Y-105700000I-249999J0D01*
G01*
X103649999Y-105700000D01*
G75*
G02*
X103400000Y-105450001I0J249999D01*
G01*
G37*
G36*
G01*
X105450000Y-105450001D02*
X105450000Y-104549999D01*
G75*
G02*
X105699999Y-104300000I249999J0D01*
G01*
X106350001Y-104300000D01*
G75*
G02*
X106600000Y-104549999I0J-249999D01*
G01*
X106600000Y-105450001D01*
G75*
G02*
X106350001Y-105700000I-249999J0D01*
G01*
X105699999Y-105700000D01*
G75*
G02*
X105450000Y-105450001I0J249999D01*
G01*
G37*
%TD*%
%TO.C,C7*%
G36*
G01*
X125550000Y-104549999D02*
X125550000Y-105450001D01*
G75*
G02*
X125300001Y-105700000I-249999J0D01*
G01*
X124649999Y-105700000D01*
G75*
G02*
X124400000Y-105450001I0J249999D01*
G01*
X124400000Y-104549999D01*
G75*
G02*
X124649999Y-104300000I249999J0D01*
G01*
X125300001Y-104300000D01*
G75*
G02*
X125550000Y-104549999I0J-249999D01*
G01*
G37*
G36*
G01*
X127600000Y-104549999D02*
X127600000Y-105450001D01*
G75*
G02*
X127350001Y-105700000I-249999J0D01*
G01*
X126699999Y-105700000D01*
G75*
G02*
X126450000Y-105450001I0J249999D01*
G01*
X126450000Y-104549999D01*
G75*
G02*
X126699999Y-104300000I249999J0D01*
G01*
X127350001Y-104300000D01*
G75*
G02*
X127600000Y-104549999I0J-249999D01*
G01*
G37*
%TD*%
%TO.C,C8*%
G36*
G01*
X131450000Y-105450001D02*
X131450000Y-104549999D01*
G75*
G02*
X131699999Y-104300000I249999J0D01*
G01*
X132350001Y-104300000D01*
G75*
G02*
X132600000Y-104549999I0J-249999D01*
G01*
X132600000Y-105450001D01*
G75*
G02*
X132350001Y-105700000I-249999J0D01*
G01*
X131699999Y-105700000D01*
G75*
G02*
X131450000Y-105450001I0J249999D01*
G01*
G37*
G36*
G01*
X129400000Y-105450001D02*
X129400000Y-104549999D01*
G75*
G02*
X129649999Y-104300000I249999J0D01*
G01*
X130300001Y-104300000D01*
G75*
G02*
X130550000Y-104549999I0J-249999D01*
G01*
X130550000Y-105450001D01*
G75*
G02*
X130300001Y-105700000I-249999J0D01*
G01*
X129649999Y-105700000D01*
G75*
G02*
X129400000Y-105450001I0J249999D01*
G01*
G37*
%TD*%
%TO.C,C9*%
G36*
G01*
X153600000Y-104549999D02*
X153600000Y-105450001D01*
G75*
G02*
X153350001Y-105700000I-249999J0D01*
G01*
X152699999Y-105700000D01*
G75*
G02*
X152450000Y-105450001I0J249999D01*
G01*
X152450000Y-104549999D01*
G75*
G02*
X152699999Y-104300000I249999J0D01*
G01*
X153350001Y-104300000D01*
G75*
G02*
X153600000Y-104549999I0J-249999D01*
G01*
G37*
G36*
G01*
X151550000Y-104549999D02*
X151550000Y-105450001D01*
G75*
G02*
X151300001Y-105700000I-249999J0D01*
G01*
X150649999Y-105700000D01*
G75*
G02*
X150400000Y-105450001I0J249999D01*
G01*
X150400000Y-104549999D01*
G75*
G02*
X150649999Y-104300000I249999J0D01*
G01*
X151300001Y-104300000D01*
G75*
G02*
X151550000Y-104549999I0J-249999D01*
G01*
G37*
%TD*%
%TO.C,C10*%
G36*
G01*
X155400000Y-105450001D02*
X155400000Y-104549999D01*
G75*
G02*
X155649999Y-104300000I249999J0D01*
G01*
X156300001Y-104300000D01*
G75*
G02*
X156550000Y-104549999I0J-249999D01*
G01*
X156550000Y-105450001D01*
G75*
G02*
X156300001Y-105700000I-249999J0D01*
G01*
X155649999Y-105700000D01*
G75*
G02*
X155400000Y-105450001I0J249999D01*
G01*
G37*
G36*
G01*
X157450000Y-105450001D02*
X157450000Y-104549999D01*
G75*
G02*
X157699999Y-104300000I249999J0D01*
G01*
X158350001Y-104300000D01*
G75*
G02*
X158600000Y-104549999I0J-249999D01*
G01*
X158600000Y-105450001D01*
G75*
G02*
X158350001Y-105700000I-249999J0D01*
G01*
X157699999Y-105700000D01*
G75*
G02*
X157450000Y-105450001I0J249999D01*
G01*
G37*
%TD*%
%TO.C,C11*%
G36*
G01*
X177550000Y-104549999D02*
X177550000Y-105450001D01*
G75*
G02*
X177300001Y-105700000I-249999J0D01*
G01*
X176649999Y-105700000D01*
G75*
G02*
X176400000Y-105450001I0J249999D01*
G01*
X176400000Y-104549999D01*
G75*
G02*
X176649999Y-104300000I249999J0D01*
G01*
X177300001Y-104300000D01*
G75*
G02*
X177550000Y-104549999I0J-249999D01*
G01*
G37*
G36*
G01*
X179600000Y-104549999D02*
X179600000Y-105450001D01*
G75*
G02*
X179350001Y-105700000I-249999J0D01*
G01*
X178699999Y-105700000D01*
G75*
G02*
X178450000Y-105450001I0J249999D01*
G01*
X178450000Y-104549999D01*
G75*
G02*
X178699999Y-104300000I249999J0D01*
G01*
X179350001Y-104300000D01*
G75*
G02*
X179600000Y-104549999I0J-249999D01*
G01*
G37*
%TD*%
D10*
%TO.C,J1*%
X50462500Y-83000000D03*
D11*
X53162500Y-81350000D03*
X53162500Y-80700000D03*
X53162500Y-83300000D03*
X53162500Y-82650000D03*
X53162500Y-82000000D03*
D10*
X50462500Y-81000000D03*
%TD*%
%TO.C,R1*%
G36*
G01*
X68049999Y-72400000D02*
X68950001Y-72400000D01*
G75*
G02*
X69200000Y-72649999I0J-249999D01*
G01*
X69200000Y-73300001D01*
G75*
G02*
X68950001Y-73550000I-249999J0D01*
G01*
X68049999Y-73550000D01*
G75*
G02*
X67800000Y-73300001I0J249999D01*
G01*
X67800000Y-72649999D01*
G75*
G02*
X68049999Y-72400000I249999J0D01*
G01*
G37*
G36*
G01*
X68049999Y-74450000D02*
X68950001Y-74450000D01*
G75*
G02*
X69200000Y-74699999I0J-249999D01*
G01*
X69200000Y-75350001D01*
G75*
G02*
X68950001Y-75600000I-249999J0D01*
G01*
X68049999Y-75600000D01*
G75*
G02*
X67800000Y-75350001I0J249999D01*
G01*
X67800000Y-74699999D01*
G75*
G02*
X68049999Y-74450000I249999J0D01*
G01*
G37*
%TD*%
%TO.C,R6*%
G36*
G01*
X53450000Y-101450001D02*
X53450000Y-100549999D01*
G75*
G02*
X53699999Y-100300000I249999J0D01*
G01*
X54350001Y-100300000D01*
G75*
G02*
X54600000Y-100549999I0J-249999D01*
G01*
X54600000Y-101450001D01*
G75*
G02*
X54350001Y-101700000I-249999J0D01*
G01*
X53699999Y-101700000D01*
G75*
G02*
X53450000Y-101450001I0J249999D01*
G01*
G37*
G36*
G01*
X51400000Y-101450001D02*
X51400000Y-100549999D01*
G75*
G02*
X51649999Y-100300000I249999J0D01*
G01*
X52300001Y-100300000D01*
G75*
G02*
X52550000Y-100549999I0J-249999D01*
G01*
X52550000Y-101450001D01*
G75*
G02*
X52300001Y-101700000I-249999J0D01*
G01*
X51649999Y-101700000D01*
G75*
G02*
X51400000Y-101450001I0J249999D01*
G01*
G37*
%TD*%
%TO.C,R7*%
G36*
G01*
X75600000Y-100549999D02*
X75600000Y-101450001D01*
G75*
G02*
X75350001Y-101700000I-249999J0D01*
G01*
X74699999Y-101700000D01*
G75*
G02*
X74450000Y-101450001I0J249999D01*
G01*
X74450000Y-100549999D01*
G75*
G02*
X74699999Y-100300000I249999J0D01*
G01*
X75350001Y-100300000D01*
G75*
G02*
X75600000Y-100549999I0J-249999D01*
G01*
G37*
G36*
G01*
X73550000Y-100549999D02*
X73550000Y-101450001D01*
G75*
G02*
X73300001Y-101700000I-249999J0D01*
G01*
X72649999Y-101700000D01*
G75*
G02*
X72400000Y-101450001I0J249999D01*
G01*
X72400000Y-100549999D01*
G75*
G02*
X72649999Y-100300000I249999J0D01*
G01*
X73300001Y-100300000D01*
G75*
G02*
X73550000Y-100549999I0J-249999D01*
G01*
G37*
%TD*%
%TO.C,R8*%
G36*
G01*
X51400000Y-97450001D02*
X51400000Y-96549999D01*
G75*
G02*
X51649999Y-96300000I249999J0D01*
G01*
X52300001Y-96300000D01*
G75*
G02*
X52550000Y-96549999I0J-249999D01*
G01*
X52550000Y-97450001D01*
G75*
G02*
X52300001Y-97700000I-249999J0D01*
G01*
X51649999Y-97700000D01*
G75*
G02*
X51400000Y-97450001I0J249999D01*
G01*
G37*
G36*
G01*
X53450000Y-97450001D02*
X53450000Y-96549999D01*
G75*
G02*
X53699999Y-96300000I249999J0D01*
G01*
X54350001Y-96300000D01*
G75*
G02*
X54600000Y-96549999I0J-249999D01*
G01*
X54600000Y-97450001D01*
G75*
G02*
X54350001Y-97700000I-249999J0D01*
G01*
X53699999Y-97700000D01*
G75*
G02*
X53450000Y-97450001I0J249999D01*
G01*
G37*
%TD*%
%TO.C,R9*%
G36*
G01*
X73550000Y-96549999D02*
X73550000Y-97450001D01*
G75*
G02*
X73300001Y-97700000I-249999J0D01*
G01*
X72649999Y-97700000D01*
G75*
G02*
X72400000Y-97450001I0J249999D01*
G01*
X72400000Y-96549999D01*
G75*
G02*
X72649999Y-96300000I249999J0D01*
G01*
X73300001Y-96300000D01*
G75*
G02*
X73550000Y-96549999I0J-249999D01*
G01*
G37*
G36*
G01*
X75600000Y-96549999D02*
X75600000Y-97450001D01*
G75*
G02*
X75350001Y-97700000I-249999J0D01*
G01*
X74699999Y-97700000D01*
G75*
G02*
X74450000Y-97450001I0J249999D01*
G01*
X74450000Y-96549999D01*
G75*
G02*
X74699999Y-96300000I249999J0D01*
G01*
X75350001Y-96300000D01*
G75*
G02*
X75600000Y-96549999I0J-249999D01*
G01*
G37*
%TD*%
%TO.C,R10*%
G36*
G01*
X79450000Y-101450001D02*
X79450000Y-100549999D01*
G75*
G02*
X79699999Y-100300000I249999J0D01*
G01*
X80350001Y-100300000D01*
G75*
G02*
X80600000Y-100549999I0J-249999D01*
G01*
X80600000Y-101450001D01*
G75*
G02*
X80350001Y-101700000I-249999J0D01*
G01*
X79699999Y-101700000D01*
G75*
G02*
X79450000Y-101450001I0J249999D01*
G01*
G37*
G36*
G01*
X77400000Y-101450001D02*
X77400000Y-100549999D01*
G75*
G02*
X77649999Y-100300000I249999J0D01*
G01*
X78300001Y-100300000D01*
G75*
G02*
X78550000Y-100549999I0J-249999D01*
G01*
X78550000Y-101450001D01*
G75*
G02*
X78300001Y-101700000I-249999J0D01*
G01*
X77649999Y-101700000D01*
G75*
G02*
X77400000Y-101450001I0J249999D01*
G01*
G37*
%TD*%
%TO.C,R11*%
G36*
G01*
X99550000Y-100549999D02*
X99550000Y-101450001D01*
G75*
G02*
X99300001Y-101700000I-249999J0D01*
G01*
X98649999Y-101700000D01*
G75*
G02*
X98400000Y-101450001I0J249999D01*
G01*
X98400000Y-100549999D01*
G75*
G02*
X98649999Y-100300000I249999J0D01*
G01*
X99300001Y-100300000D01*
G75*
G02*
X99550000Y-100549999I0J-249999D01*
G01*
G37*
G36*
G01*
X101600000Y-100549999D02*
X101600000Y-101450001D01*
G75*
G02*
X101350001Y-101700000I-249999J0D01*
G01*
X100699999Y-101700000D01*
G75*
G02*
X100450000Y-101450001I0J249999D01*
G01*
X100450000Y-100549999D01*
G75*
G02*
X100699999Y-100300000I249999J0D01*
G01*
X101350001Y-100300000D01*
G75*
G02*
X101600000Y-100549999I0J-249999D01*
G01*
G37*
%TD*%
%TO.C,R12*%
G36*
G01*
X79450000Y-97450001D02*
X79450000Y-96549999D01*
G75*
G02*
X79699999Y-96300000I249999J0D01*
G01*
X80350001Y-96300000D01*
G75*
G02*
X80600000Y-96549999I0J-249999D01*
G01*
X80600000Y-97450001D01*
G75*
G02*
X80350001Y-97700000I-249999J0D01*
G01*
X79699999Y-97700000D01*
G75*
G02*
X79450000Y-97450001I0J249999D01*
G01*
G37*
G36*
G01*
X77400000Y-97450001D02*
X77400000Y-96549999D01*
G75*
G02*
X77649999Y-96300000I249999J0D01*
G01*
X78300001Y-96300000D01*
G75*
G02*
X78550000Y-96549999I0J-249999D01*
G01*
X78550000Y-97450001D01*
G75*
G02*
X78300001Y-97700000I-249999J0D01*
G01*
X77649999Y-97700000D01*
G75*
G02*
X77400000Y-97450001I0J249999D01*
G01*
G37*
%TD*%
%TO.C,R13*%
G36*
G01*
X101600000Y-96549999D02*
X101600000Y-97450001D01*
G75*
G02*
X101350001Y-97700000I-249999J0D01*
G01*
X100699999Y-97700000D01*
G75*
G02*
X100450000Y-97450001I0J249999D01*
G01*
X100450000Y-96549999D01*
G75*
G02*
X100699999Y-96300000I249999J0D01*
G01*
X101350001Y-96300000D01*
G75*
G02*
X101600000Y-96549999I0J-249999D01*
G01*
G37*
G36*
G01*
X99550000Y-96549999D02*
X99550000Y-97450001D01*
G75*
G02*
X99300001Y-97700000I-249999J0D01*
G01*
X98649999Y-97700000D01*
G75*
G02*
X98400000Y-97450001I0J249999D01*
G01*
X98400000Y-96549999D01*
G75*
G02*
X98649999Y-96300000I249999J0D01*
G01*
X99300001Y-96300000D01*
G75*
G02*
X99550000Y-96549999I0J-249999D01*
G01*
G37*
%TD*%
%TO.C,R14*%
G36*
G01*
X103400000Y-101450001D02*
X103400000Y-100549999D01*
G75*
G02*
X103649999Y-100300000I249999J0D01*
G01*
X104300001Y-100300000D01*
G75*
G02*
X104550000Y-100549999I0J-249999D01*
G01*
X104550000Y-101450001D01*
G75*
G02*
X104300001Y-101700000I-249999J0D01*
G01*
X103649999Y-101700000D01*
G75*
G02*
X103400000Y-101450001I0J249999D01*
G01*
G37*
G36*
G01*
X105450000Y-101450001D02*
X105450000Y-100549999D01*
G75*
G02*
X105699999Y-100300000I249999J0D01*
G01*
X106350001Y-100300000D01*
G75*
G02*
X106600000Y-100549999I0J-249999D01*
G01*
X106600000Y-101450001D01*
G75*
G02*
X106350001Y-101700000I-249999J0D01*
G01*
X105699999Y-101700000D01*
G75*
G02*
X105450000Y-101450001I0J249999D01*
G01*
G37*
%TD*%
%TO.C,R15*%
G36*
G01*
X125550000Y-100549999D02*
X125550000Y-101450001D01*
G75*
G02*
X125300001Y-101700000I-249999J0D01*
G01*
X124649999Y-101700000D01*
G75*
G02*
X124400000Y-101450001I0J249999D01*
G01*
X124400000Y-100549999D01*
G75*
G02*
X124649999Y-100300000I249999J0D01*
G01*
X125300001Y-100300000D01*
G75*
G02*
X125550000Y-100549999I0J-249999D01*
G01*
G37*
G36*
G01*
X127600000Y-100549999D02*
X127600000Y-101450001D01*
G75*
G02*
X127350001Y-101700000I-249999J0D01*
G01*
X126699999Y-101700000D01*
G75*
G02*
X126450000Y-101450001I0J249999D01*
G01*
X126450000Y-100549999D01*
G75*
G02*
X126699999Y-100300000I249999J0D01*
G01*
X127350001Y-100300000D01*
G75*
G02*
X127600000Y-100549999I0J-249999D01*
G01*
G37*
%TD*%
%TO.C,R16*%
G36*
G01*
X103400000Y-97450001D02*
X103400000Y-96549999D01*
G75*
G02*
X103649999Y-96300000I249999J0D01*
G01*
X104300001Y-96300000D01*
G75*
G02*
X104550000Y-96549999I0J-249999D01*
G01*
X104550000Y-97450001D01*
G75*
G02*
X104300001Y-97700000I-249999J0D01*
G01*
X103649999Y-97700000D01*
G75*
G02*
X103400000Y-97450001I0J249999D01*
G01*
G37*
G36*
G01*
X105450000Y-97450001D02*
X105450000Y-96549999D01*
G75*
G02*
X105699999Y-96300000I249999J0D01*
G01*
X106350001Y-96300000D01*
G75*
G02*
X106600000Y-96549999I0J-249999D01*
G01*
X106600000Y-97450001D01*
G75*
G02*
X106350001Y-97700000I-249999J0D01*
G01*
X105699999Y-97700000D01*
G75*
G02*
X105450000Y-97450001I0J249999D01*
G01*
G37*
%TD*%
%TO.C,R17*%
G36*
G01*
X127600000Y-96549999D02*
X127600000Y-97450001D01*
G75*
G02*
X127350001Y-97700000I-249999J0D01*
G01*
X126699999Y-97700000D01*
G75*
G02*
X126450000Y-97450001I0J249999D01*
G01*
X126450000Y-96549999D01*
G75*
G02*
X126699999Y-96300000I249999J0D01*
G01*
X127350001Y-96300000D01*
G75*
G02*
X127600000Y-96549999I0J-249999D01*
G01*
G37*
G36*
G01*
X125550000Y-96549999D02*
X125550000Y-97450001D01*
G75*
G02*
X125300001Y-97700000I-249999J0D01*
G01*
X124649999Y-97700000D01*
G75*
G02*
X124400000Y-97450001I0J249999D01*
G01*
X124400000Y-96549999D01*
G75*
G02*
X124649999Y-96300000I249999J0D01*
G01*
X125300001Y-96300000D01*
G75*
G02*
X125550000Y-96549999I0J-249999D01*
G01*
G37*
%TD*%
%TO.C,R18*%
G36*
G01*
X129400000Y-101450001D02*
X129400000Y-100549999D01*
G75*
G02*
X129649999Y-100300000I249999J0D01*
G01*
X130300001Y-100300000D01*
G75*
G02*
X130550000Y-100549999I0J-249999D01*
G01*
X130550000Y-101450001D01*
G75*
G02*
X130300001Y-101700000I-249999J0D01*
G01*
X129649999Y-101700000D01*
G75*
G02*
X129400000Y-101450001I0J249999D01*
G01*
G37*
G36*
G01*
X131450000Y-101450001D02*
X131450000Y-100549999D01*
G75*
G02*
X131699999Y-100300000I249999J0D01*
G01*
X132350001Y-100300000D01*
G75*
G02*
X132600000Y-100549999I0J-249999D01*
G01*
X132600000Y-101450001D01*
G75*
G02*
X132350001Y-101700000I-249999J0D01*
G01*
X131699999Y-101700000D01*
G75*
G02*
X131450000Y-101450001I0J249999D01*
G01*
G37*
%TD*%
%TO.C,R19*%
G36*
G01*
X151550000Y-100549999D02*
X151550000Y-101450001D01*
G75*
G02*
X151300001Y-101700000I-249999J0D01*
G01*
X150649999Y-101700000D01*
G75*
G02*
X150400000Y-101450001I0J249999D01*
G01*
X150400000Y-100549999D01*
G75*
G02*
X150649999Y-100300000I249999J0D01*
G01*
X151300001Y-100300000D01*
G75*
G02*
X151550000Y-100549999I0J-249999D01*
G01*
G37*
G36*
G01*
X153600000Y-100549999D02*
X153600000Y-101450001D01*
G75*
G02*
X153350001Y-101700000I-249999J0D01*
G01*
X152699999Y-101700000D01*
G75*
G02*
X152450000Y-101450001I0J249999D01*
G01*
X152450000Y-100549999D01*
G75*
G02*
X152699999Y-100300000I249999J0D01*
G01*
X153350001Y-100300000D01*
G75*
G02*
X153600000Y-100549999I0J-249999D01*
G01*
G37*
%TD*%
%TO.C,R20*%
G36*
G01*
X131450000Y-97450001D02*
X131450000Y-96549999D01*
G75*
G02*
X131699999Y-96300000I249999J0D01*
G01*
X132350001Y-96300000D01*
G75*
G02*
X132600000Y-96549999I0J-249999D01*
G01*
X132600000Y-97450001D01*
G75*
G02*
X132350001Y-97700000I-249999J0D01*
G01*
X131699999Y-97700000D01*
G75*
G02*
X131450000Y-97450001I0J249999D01*
G01*
G37*
G36*
G01*
X129400000Y-97450001D02*
X129400000Y-96549999D01*
G75*
G02*
X129649999Y-96300000I249999J0D01*
G01*
X130300001Y-96300000D01*
G75*
G02*
X130550000Y-96549999I0J-249999D01*
G01*
X130550000Y-97450001D01*
G75*
G02*
X130300001Y-97700000I-249999J0D01*
G01*
X129649999Y-97700000D01*
G75*
G02*
X129400000Y-97450001I0J249999D01*
G01*
G37*
%TD*%
%TO.C,R21*%
G36*
G01*
X153600000Y-96549999D02*
X153600000Y-97450001D01*
G75*
G02*
X153350001Y-97700000I-249999J0D01*
G01*
X152699999Y-97700000D01*
G75*
G02*
X152450000Y-97450001I0J249999D01*
G01*
X152450000Y-96549999D01*
G75*
G02*
X152699999Y-96300000I249999J0D01*
G01*
X153350001Y-96300000D01*
G75*
G02*
X153600000Y-96549999I0J-249999D01*
G01*
G37*
G36*
G01*
X151550000Y-96549999D02*
X151550000Y-97450001D01*
G75*
G02*
X151300001Y-97700000I-249999J0D01*
G01*
X150649999Y-97700000D01*
G75*
G02*
X150400000Y-97450001I0J249999D01*
G01*
X150400000Y-96549999D01*
G75*
G02*
X150649999Y-96300000I249999J0D01*
G01*
X151300001Y-96300000D01*
G75*
G02*
X151550000Y-96549999I0J-249999D01*
G01*
G37*
%TD*%
%TO.C,R22*%
G36*
G01*
X155400000Y-101450001D02*
X155400000Y-100549999D01*
G75*
G02*
X155649999Y-100300000I249999J0D01*
G01*
X156300001Y-100300000D01*
G75*
G02*
X156550000Y-100549999I0J-249999D01*
G01*
X156550000Y-101450001D01*
G75*
G02*
X156300001Y-101700000I-249999J0D01*
G01*
X155649999Y-101700000D01*
G75*
G02*
X155400000Y-101450001I0J249999D01*
G01*
G37*
G36*
G01*
X157450000Y-101450001D02*
X157450000Y-100549999D01*
G75*
G02*
X157699999Y-100300000I249999J0D01*
G01*
X158350001Y-100300000D01*
G75*
G02*
X158600000Y-100549999I0J-249999D01*
G01*
X158600000Y-101450001D01*
G75*
G02*
X158350001Y-101700000I-249999J0D01*
G01*
X157699999Y-101700000D01*
G75*
G02*
X157450000Y-101450001I0J249999D01*
G01*
G37*
%TD*%
%TO.C,R23*%
G36*
G01*
X177550000Y-100549999D02*
X177550000Y-101450001D01*
G75*
G02*
X177300001Y-101700000I-249999J0D01*
G01*
X176649999Y-101700000D01*
G75*
G02*
X176400000Y-101450001I0J249999D01*
G01*
X176400000Y-100549999D01*
G75*
G02*
X176649999Y-100300000I249999J0D01*
G01*
X177300001Y-100300000D01*
G75*
G02*
X177550000Y-100549999I0J-249999D01*
G01*
G37*
G36*
G01*
X179600000Y-100549999D02*
X179600000Y-101450001D01*
G75*
G02*
X179350001Y-101700000I-249999J0D01*
G01*
X178699999Y-101700000D01*
G75*
G02*
X178450000Y-101450001I0J249999D01*
G01*
X178450000Y-100549999D01*
G75*
G02*
X178699999Y-100300000I249999J0D01*
G01*
X179350001Y-100300000D01*
G75*
G02*
X179600000Y-100549999I0J-249999D01*
G01*
G37*
%TD*%
%TO.C,R24*%
G36*
G01*
X157450000Y-97450001D02*
X157450000Y-96549999D01*
G75*
G02*
X157699999Y-96300000I249999J0D01*
G01*
X158350001Y-96300000D01*
G75*
G02*
X158600000Y-96549999I0J-249999D01*
G01*
X158600000Y-97450001D01*
G75*
G02*
X158350001Y-97700000I-249999J0D01*
G01*
X157699999Y-97700000D01*
G75*
G02*
X157450000Y-97450001I0J249999D01*
G01*
G37*
G36*
G01*
X155400000Y-97450001D02*
X155400000Y-96549999D01*
G75*
G02*
X155649999Y-96300000I249999J0D01*
G01*
X156300001Y-96300000D01*
G75*
G02*
X156550000Y-96549999I0J-249999D01*
G01*
X156550000Y-97450001D01*
G75*
G02*
X156300001Y-97700000I-249999J0D01*
G01*
X155649999Y-97700000D01*
G75*
G02*
X155400000Y-97450001I0J249999D01*
G01*
G37*
%TD*%
%TO.C,R25*%
G36*
G01*
X179600000Y-96549999D02*
X179600000Y-97450001D01*
G75*
G02*
X179350001Y-97700000I-249999J0D01*
G01*
X178699999Y-97700000D01*
G75*
G02*
X178450000Y-97450001I0J249999D01*
G01*
X178450000Y-96549999D01*
G75*
G02*
X178699999Y-96300000I249999J0D01*
G01*
X179350001Y-96300000D01*
G75*
G02*
X179600000Y-96549999I0J-249999D01*
G01*
G37*
G36*
G01*
X177550000Y-96549999D02*
X177550000Y-97450001D01*
G75*
G02*
X177300001Y-97700000I-249999J0D01*
G01*
X176649999Y-97700000D01*
G75*
G02*
X176400000Y-97450001I0J249999D01*
G01*
X176400000Y-96549999D01*
G75*
G02*
X176649999Y-96300000I249999J0D01*
G01*
X177300001Y-96300000D01*
G75*
G02*
X177550000Y-96549999I0J-249999D01*
G01*
G37*
%TD*%
%TO.C,D6*%
G36*
G01*
X58958001Y-75330000D02*
X58057999Y-75330000D01*
G75*
G02*
X57808000Y-75080001I0J249999D01*
G01*
X57808000Y-74429999D01*
G75*
G02*
X58057999Y-74180000I249999J0D01*
G01*
X58958001Y-74180000D01*
G75*
G02*
X59208000Y-74429999I0J-249999D01*
G01*
X59208000Y-75080001D01*
G75*
G02*
X58958001Y-75330000I-249999J0D01*
G01*
G37*
G36*
G01*
X58958001Y-73280000D02*
X58057999Y-73280000D01*
G75*
G02*
X57808000Y-73030001I0J249999D01*
G01*
X57808000Y-72379999D01*
G75*
G02*
X58057999Y-72130000I249999J0D01*
G01*
X58958001Y-72130000D01*
G75*
G02*
X59208000Y-72379999I0J-249999D01*
G01*
X59208000Y-73030001D01*
G75*
G02*
X58958001Y-73280000I-249999J0D01*
G01*
G37*
%TD*%
%TO.C,R26*%
G36*
G01*
X55958001Y-75330000D02*
X55057999Y-75330000D01*
G75*
G02*
X54808000Y-75080001I0J249999D01*
G01*
X54808000Y-74429999D01*
G75*
G02*
X55057999Y-74180000I249999J0D01*
G01*
X55958001Y-74180000D01*
G75*
G02*
X56208000Y-74429999I0J-249999D01*
G01*
X56208000Y-75080001D01*
G75*
G02*
X55958001Y-75330000I-249999J0D01*
G01*
G37*
G36*
G01*
X55958001Y-73280000D02*
X55057999Y-73280000D01*
G75*
G02*
X54808000Y-73030001I0J249999D01*
G01*
X54808000Y-72379999D01*
G75*
G02*
X55057999Y-72130000I249999J0D01*
G01*
X55958001Y-72130000D01*
G75*
G02*
X56208000Y-72379999I0J-249999D01*
G01*
X56208000Y-73030001D01*
G75*
G02*
X55958001Y-73280000I-249999J0D01*
G01*
G37*
%TD*%
%TO.C,R2*%
G36*
G01*
X94049999Y-74450000D02*
X94950001Y-74450000D01*
G75*
G02*
X95200000Y-74699999I0J-249999D01*
G01*
X95200000Y-75350001D01*
G75*
G02*
X94950001Y-75600000I-249999J0D01*
G01*
X94049999Y-75600000D01*
G75*
G02*
X93800000Y-75350001I0J249999D01*
G01*
X93800000Y-74699999D01*
G75*
G02*
X94049999Y-74450000I249999J0D01*
G01*
G37*
G36*
G01*
X94049999Y-72400000D02*
X94950001Y-72400000D01*
G75*
G02*
X95200000Y-72649999I0J-249999D01*
G01*
X95200000Y-73300001D01*
G75*
G02*
X94950001Y-73550000I-249999J0D01*
G01*
X94049999Y-73550000D01*
G75*
G02*
X93800000Y-73300001I0J249999D01*
G01*
X93800000Y-72649999D01*
G75*
G02*
X94049999Y-72400000I249999J0D01*
G01*
G37*
%TD*%
%TO.C,R3*%
G36*
G01*
X120049999Y-72400000D02*
X120950001Y-72400000D01*
G75*
G02*
X121200000Y-72649999I0J-249999D01*
G01*
X121200000Y-73300001D01*
G75*
G02*
X120950001Y-73550000I-249999J0D01*
G01*
X120049999Y-73550000D01*
G75*
G02*
X119800000Y-73300001I0J249999D01*
G01*
X119800000Y-72649999D01*
G75*
G02*
X120049999Y-72400000I249999J0D01*
G01*
G37*
G36*
G01*
X120049999Y-74450000D02*
X120950001Y-74450000D01*
G75*
G02*
X121200000Y-74699999I0J-249999D01*
G01*
X121200000Y-75350001D01*
G75*
G02*
X120950001Y-75600000I-249999J0D01*
G01*
X120049999Y-75600000D01*
G75*
G02*
X119800000Y-75350001I0J249999D01*
G01*
X119800000Y-74699999D01*
G75*
G02*
X120049999Y-74450000I249999J0D01*
G01*
G37*
%TD*%
%TO.C,R4*%
G36*
G01*
X146049999Y-74450000D02*
X146950001Y-74450000D01*
G75*
G02*
X147200000Y-74699999I0J-249999D01*
G01*
X147200000Y-75350001D01*
G75*
G02*
X146950001Y-75600000I-249999J0D01*
G01*
X146049999Y-75600000D01*
G75*
G02*
X145800000Y-75350001I0J249999D01*
G01*
X145800000Y-74699999D01*
G75*
G02*
X146049999Y-74450000I249999J0D01*
G01*
G37*
G36*
G01*
X146049999Y-72400000D02*
X146950001Y-72400000D01*
G75*
G02*
X147200000Y-72649999I0J-249999D01*
G01*
X147200000Y-73300001D01*
G75*
G02*
X146950001Y-73550000I-249999J0D01*
G01*
X146049999Y-73550000D01*
G75*
G02*
X145800000Y-73300001I0J249999D01*
G01*
X145800000Y-72649999D01*
G75*
G02*
X146049999Y-72400000I249999J0D01*
G01*
G37*
%TD*%
%TO.C,R5*%
G36*
G01*
X172549999Y-71400000D02*
X173450001Y-71400000D01*
G75*
G02*
X173700000Y-71649999I0J-249999D01*
G01*
X173700000Y-72300001D01*
G75*
G02*
X173450001Y-72550000I-249999J0D01*
G01*
X172549999Y-72550000D01*
G75*
G02*
X172300000Y-72300001I0J249999D01*
G01*
X172300000Y-71649999D01*
G75*
G02*
X172549999Y-71400000I249999J0D01*
G01*
G37*
G36*
G01*
X172549999Y-73450000D02*
X173450001Y-73450000D01*
G75*
G02*
X173700000Y-73699999I0J-249999D01*
G01*
X173700000Y-74350001D01*
G75*
G02*
X173450001Y-74600000I-249999J0D01*
G01*
X172549999Y-74600000D01*
G75*
G02*
X172300000Y-74350001I0J249999D01*
G01*
X172300000Y-73699999D01*
G75*
G02*
X172549999Y-73450000I249999J0D01*
G01*
G37*
%TD*%
M02*
