M48
INCH,TZ
T1C0.0157
T2C0.0236
T3C0.0315
T4C0.0335
T5C0.0354
T6C0.0394
T7C0.0433
T8C0.0472
T9C0.1299
%
G90
G05
T1
X15200Y-42500
X15300Y-34400
X15748Y-29528
X16273Y-40354
X17717Y-27559
X17717Y-29528
X17717Y-37402
X17800Y-35100
X19685Y-27559
X19685Y-31496
X19685Y-35433
X19685Y-41339
X21654Y-27559
X21654Y-31496
X21654Y-35433
X21654Y-41339
X21654Y-43307
X23622Y-33465
X23622Y-35433
X23622Y-37402
X23622Y-43307
X23622Y-45276
X25400Y-42500
X25591Y-31496
X25591Y-33465
X25591Y-35433
X25591Y-37402
X25591Y-43307
X25591Y-45276
X27559Y-31496
X27559Y-33465
X27559Y-35433
X27559Y-37402
X27559Y-45276
X28156Y-40354
X28300Y-41900
X28762Y-39821
X29528Y-31496
X29528Y-33465
X29528Y-35433
X29528Y-37402
X31496Y-31496
X31496Y-35433
X33465Y-31496
X33465Y-35433
X35433Y-31496
X35433Y-35433
X35433Y-37402
X37400Y-43100
X37402Y-33465
X37402Y-35433
X37402Y-37402
X39370Y-31496
X39370Y-33465
X39370Y-35433
X39370Y-37402
X40900Y-43100
X41339Y-31496
X41339Y-33465
X41339Y-35433
X41339Y-37402
X43307Y-31496
X43307Y-33465
X43307Y-35433
X43307Y-37402
X45276Y-31496
X45276Y-35433
X47244Y-31496
X47244Y-33465
X47244Y-35433
X47244Y-37402
X49213Y-31496
X49213Y-33465
X49213Y-35433
X49213Y-37402
X50000Y-41900
X51181Y-31496
X51181Y-33465
X51181Y-35433
X51181Y-37402
X53000Y-42500
X53150Y-33465
X53150Y-35433
X53150Y-37402
X55118Y-31496
X55118Y-35433
X57087Y-31496
X57087Y-35433
X59055Y-31496
X59055Y-35433
X61024Y-31496
X61024Y-33465
X61024Y-35433
X61024Y-37402
X62813Y-40376
X62992Y-31496
X62992Y-33465
X62992Y-35433
X62992Y-37402
X63200Y-42500
X64961Y-31496
X64961Y-33465
X64961Y-35433
X64961Y-37402
X65600Y-42500
X66929Y-33465
X66929Y-35433
X66929Y-37402
X68898Y-31496
X68898Y-35433
X70866Y-31496
X70866Y-33465
X70866Y-35433
X70866Y-37402
X71510Y-28981
X72835Y-31496
X72835Y-33465
X72835Y-35433
X72835Y-37402
X74803Y-31496
X74803Y-33465
X74803Y-35433
X74803Y-37402
X75200Y-41900
T3
X16378Y-31614
X17165Y-31614
T4
X14631Y-32874
X14631Y-34843
T5
X70866Y-28028
X70866Y-28528
X70866Y-29028
X70866Y-29528
X32874Y-28421
X32874Y-28921
X32874Y-29421
X32874Y-29921
X20079Y-28421
X20079Y-28921
X20079Y-29421
X20079Y-29921
X58071Y-28421
X58071Y-28921
X58071Y-29421
X58071Y-29921
X45472Y-28421
X45472Y-28921
X45472Y-29421
X45472Y-29921
T6
X38484Y-25984
X38484Y-26984
X39484Y-25984
X39484Y-26984
X40484Y-25984
X40484Y-26984
X41484Y-25984
X41484Y-26984
X42484Y-25984
X42484Y-26984
X43484Y-25984
X43484Y-26984
X44484Y-25984
X44484Y-26984
X45484Y-25984
X45484Y-26984
X46484Y-25984
X46484Y-26984
X47484Y-25984
X47484Y-26984
X48484Y-25984
X48484Y-26984
X49484Y-25984
X49484Y-26984
X50484Y-25984
X50484Y-26984
X51484Y-25984
X51484Y-26984
X52484Y-25984
X52484Y-26984
X38484Y-45276
X38484Y-46276
X39484Y-45276
X39484Y-46276
X40484Y-45276
X40484Y-46276
X41484Y-45276
X41484Y-46276
X42484Y-45276
X42484Y-46276
X43484Y-45276
X43484Y-46276
X44484Y-45276
X44484Y-46276
X45484Y-45276
X45484Y-46276
X46484Y-45276
X46484Y-46276
X47484Y-45276
X47484Y-46276
X48484Y-45276
X48484Y-46276
X49484Y-45276
X49484Y-46276
X50484Y-45276
X50484Y-46276
X51484Y-45276
X51484Y-46276
X52484Y-45276
X52484Y-46276
T7
X69291Y-32283
X69291Y-34055
X71850Y-32283
X71850Y-34055
X56693Y-32283
X56693Y-34055
X59252Y-32283
X59252Y-34055
X44094Y-32283
X44094Y-34055
X46654Y-32283
X46654Y-34055
X18898Y-32283
X18898Y-34055
X21457Y-32283
X21457Y-34055
X31496Y-32283
X31496Y-34055
X34055Y-32283
X34055Y-34055
T8
X69685Y-36811
X69685Y-42520
X70669Y-42520
X71654Y-36811
X71654Y-42520
X57087Y-36811
X57087Y-42520
X58071Y-42520
X59055Y-36811
X59055Y-42520
X44488Y-36811
X44488Y-42520
X45472Y-42520
X46457Y-36811
X46457Y-42520
X19291Y-36811
X19291Y-42520
X20276Y-42520
X21260Y-36811
X21260Y-42520
X31890Y-36811
X31890Y-42520
X32874Y-42520
X33858Y-36811
X33858Y-42520
T9
X18445Y-39567
X22106Y-39567
X31043Y-39567
X34705Y-39567
X68839Y-39567
X72500Y-39567
X56240Y-39567
X59902Y-39567
X43642Y-39567
X47303Y-39567
T2
G00X13430Y-32480
M15
G01X13706Y-32480
M16
G05
G00X13706Y-35236
M15
G01X13430Y-35236
M16
G05
T0
M30
