%TF.GenerationSoftware,KiCad,Pcbnew,(5.1.6)-1*%
%TF.CreationDate,2020-10-11T19:25:41-07:00*%
%TF.ProjectId,Autopilot panel,4175746f-7069-46c6-9f74-2070616e656c,rev?*%
%TF.SameCoordinates,Original*%
%TF.FileFunction,Soldermask,Top*%
%TF.FilePolarity,Negative*%
%FSLAX46Y46*%
G04 Gerber Fmt 4.6, Leading zero omitted, Abs format (unit mm)*
G04 Created by KiCad (PCBNEW (5.1.6)-1) date 2020-10-11 19:25:41*
%MOMM*%
%LPD*%
G01*
G04 APERTURE LIST*
%ADD10C,1.900000*%
%ADD11C,5.050000*%
%ADD12C,3.100000*%
%ADD13R,2.000000X1.600000*%
%ADD14C,1.550000*%
%ADD15R,1.450000X0.500000*%
%ADD16O,2.000000X1.300000*%
%ADD17R,2.000000X1.300000*%
%ADD18C,2.100000*%
%ADD19O,1.800000X1.800000*%
%ADD20R,1.800000X1.800000*%
%ADD21R,1.900000X1.170000*%
%ADD22O,1.900000X1.170000*%
%ADD23R,0.900000X0.600000*%
%ADD24R,0.900000X0.500000*%
%ADD25R,1.700000X1.700000*%
%ADD26C,1.700000*%
G04 APERTURE END LIST*
D10*
%TO.C,J6*%
X145000000Y-108000000D03*
X150000000Y-108000000D03*
X147500000Y-108000000D03*
X145000000Y-93500000D03*
X150000000Y-93500000D03*
D11*
X142850000Y-100500000D03*
X152150000Y-100500000D03*
%TD*%
D12*
%TO.C,HOLE4*%
X192000000Y-69000000D03*
%TD*%
%TO.C,HOLE3*%
X192000000Y-115000000D03*
%TD*%
%TO.C,HOLE2*%
X39000000Y-115000000D03*
%TD*%
%TO.C,HOLE1*%
X39000000Y-69000000D03*
%TD*%
%TO.C,C2*%
G36*
G01*
X41425000Y-108478262D02*
X41425000Y-107521738D01*
G75*
G02*
X41696738Y-107250000I271738J0D01*
G01*
X42403262Y-107250000D01*
G75*
G02*
X42675000Y-107521738I0J-271738D01*
G01*
X42675000Y-108478262D01*
G75*
G02*
X42403262Y-108750000I-271738J0D01*
G01*
X41696738Y-108750000D01*
G75*
G02*
X41425000Y-108478262I0J271738D01*
G01*
G37*
G36*
G01*
X39375000Y-108478262D02*
X39375000Y-107521738D01*
G75*
G02*
X39646738Y-107250000I271738J0D01*
G01*
X40353262Y-107250000D01*
G75*
G02*
X40625000Y-107521738I0J-271738D01*
G01*
X40625000Y-108478262D01*
G75*
G02*
X40353262Y-108750000I-271738J0D01*
G01*
X39646738Y-108750000D01*
G75*
G02*
X39375000Y-108478262I0J271738D01*
G01*
G37*
%TD*%
%TO.C,C3*%
G36*
G01*
X63650000Y-107521738D02*
X63650000Y-108478262D01*
G75*
G02*
X63378262Y-108750000I-271738J0D01*
G01*
X62671738Y-108750000D01*
G75*
G02*
X62400000Y-108478262I0J271738D01*
G01*
X62400000Y-107521738D01*
G75*
G02*
X62671738Y-107250000I271738J0D01*
G01*
X63378262Y-107250000D01*
G75*
G02*
X63650000Y-107521738I0J-271738D01*
G01*
G37*
G36*
G01*
X61600000Y-107521738D02*
X61600000Y-108478262D01*
G75*
G02*
X61328262Y-108750000I-271738J0D01*
G01*
X60621738Y-108750000D01*
G75*
G02*
X60350000Y-108478262I0J271738D01*
G01*
X60350000Y-107521738D01*
G75*
G02*
X60621738Y-107250000I271738J0D01*
G01*
X61328262Y-107250000D01*
G75*
G02*
X61600000Y-107521738I0J-271738D01*
G01*
G37*
%TD*%
%TO.C,C4*%
G36*
G01*
X71350000Y-108478262D02*
X71350000Y-107521738D01*
G75*
G02*
X71621738Y-107250000I271738J0D01*
G01*
X72328262Y-107250000D01*
G75*
G02*
X72600000Y-107521738I0J-271738D01*
G01*
X72600000Y-108478262D01*
G75*
G02*
X72328262Y-108750000I-271738J0D01*
G01*
X71621738Y-108750000D01*
G75*
G02*
X71350000Y-108478262I0J271738D01*
G01*
G37*
G36*
G01*
X73400000Y-108478262D02*
X73400000Y-107521738D01*
G75*
G02*
X73671738Y-107250000I271738J0D01*
G01*
X74378262Y-107250000D01*
G75*
G02*
X74650000Y-107521738I0J-271738D01*
G01*
X74650000Y-108478262D01*
G75*
G02*
X74378262Y-108750000I-271738J0D01*
G01*
X73671738Y-108750000D01*
G75*
G02*
X73400000Y-108478262I0J271738D01*
G01*
G37*
%TD*%
%TO.C,C5*%
G36*
G01*
X93600000Y-107521738D02*
X93600000Y-108478262D01*
G75*
G02*
X93328262Y-108750000I-271738J0D01*
G01*
X92621738Y-108750000D01*
G75*
G02*
X92350000Y-108478262I0J271738D01*
G01*
X92350000Y-107521738D01*
G75*
G02*
X92621738Y-107250000I271738J0D01*
G01*
X93328262Y-107250000D01*
G75*
G02*
X93600000Y-107521738I0J-271738D01*
G01*
G37*
G36*
G01*
X95650000Y-107521738D02*
X95650000Y-108478262D01*
G75*
G02*
X95378262Y-108750000I-271738J0D01*
G01*
X94671738Y-108750000D01*
G75*
G02*
X94400000Y-108478262I0J271738D01*
G01*
X94400000Y-107521738D01*
G75*
G02*
X94671738Y-107250000I271738J0D01*
G01*
X95378262Y-107250000D01*
G75*
G02*
X95650000Y-107521738I0J-271738D01*
G01*
G37*
%TD*%
%TO.C,C6*%
G36*
G01*
X103350000Y-108478262D02*
X103350000Y-107521738D01*
G75*
G02*
X103621738Y-107250000I271738J0D01*
G01*
X104328262Y-107250000D01*
G75*
G02*
X104600000Y-107521738I0J-271738D01*
G01*
X104600000Y-108478262D01*
G75*
G02*
X104328262Y-108750000I-271738J0D01*
G01*
X103621738Y-108750000D01*
G75*
G02*
X103350000Y-108478262I0J271738D01*
G01*
G37*
G36*
G01*
X105400000Y-108478262D02*
X105400000Y-107521738D01*
G75*
G02*
X105671738Y-107250000I271738J0D01*
G01*
X106378262Y-107250000D01*
G75*
G02*
X106650000Y-107521738I0J-271738D01*
G01*
X106650000Y-108478262D01*
G75*
G02*
X106378262Y-108750000I-271738J0D01*
G01*
X105671738Y-108750000D01*
G75*
G02*
X105400000Y-108478262I0J271738D01*
G01*
G37*
%TD*%
%TO.C,C7*%
G36*
G01*
X125600000Y-107521738D02*
X125600000Y-108478262D01*
G75*
G02*
X125328262Y-108750000I-271738J0D01*
G01*
X124621738Y-108750000D01*
G75*
G02*
X124350000Y-108478262I0J271738D01*
G01*
X124350000Y-107521738D01*
G75*
G02*
X124621738Y-107250000I271738J0D01*
G01*
X125328262Y-107250000D01*
G75*
G02*
X125600000Y-107521738I0J-271738D01*
G01*
G37*
G36*
G01*
X127650000Y-107521738D02*
X127650000Y-108478262D01*
G75*
G02*
X127378262Y-108750000I-271738J0D01*
G01*
X126671738Y-108750000D01*
G75*
G02*
X126400000Y-108478262I0J271738D01*
G01*
X126400000Y-107521738D01*
G75*
G02*
X126671738Y-107250000I271738J0D01*
G01*
X127378262Y-107250000D01*
G75*
G02*
X127650000Y-107521738I0J-271738D01*
G01*
G37*
%TD*%
%TO.C,C8*%
G36*
G01*
X137400000Y-108478262D02*
X137400000Y-107521738D01*
G75*
G02*
X137671738Y-107250000I271738J0D01*
G01*
X138378262Y-107250000D01*
G75*
G02*
X138650000Y-107521738I0J-271738D01*
G01*
X138650000Y-108478262D01*
G75*
G02*
X138378262Y-108750000I-271738J0D01*
G01*
X137671738Y-108750000D01*
G75*
G02*
X137400000Y-108478262I0J271738D01*
G01*
G37*
G36*
G01*
X135350000Y-108478262D02*
X135350000Y-107521738D01*
G75*
G02*
X135621738Y-107250000I271738J0D01*
G01*
X136328262Y-107250000D01*
G75*
G02*
X136600000Y-107521738I0J-271738D01*
G01*
X136600000Y-108478262D01*
G75*
G02*
X136328262Y-108750000I-271738J0D01*
G01*
X135621738Y-108750000D01*
G75*
G02*
X135350000Y-108478262I0J271738D01*
G01*
G37*
%TD*%
%TO.C,C9*%
G36*
G01*
X159650000Y-107521738D02*
X159650000Y-108478262D01*
G75*
G02*
X159378262Y-108750000I-271738J0D01*
G01*
X158671738Y-108750000D01*
G75*
G02*
X158400000Y-108478262I0J271738D01*
G01*
X158400000Y-107521738D01*
G75*
G02*
X158671738Y-107250000I271738J0D01*
G01*
X159378262Y-107250000D01*
G75*
G02*
X159650000Y-107521738I0J-271738D01*
G01*
G37*
G36*
G01*
X157600000Y-107521738D02*
X157600000Y-108478262D01*
G75*
G02*
X157328262Y-108750000I-271738J0D01*
G01*
X156621738Y-108750000D01*
G75*
G02*
X156350000Y-108478262I0J271738D01*
G01*
X156350000Y-107521738D01*
G75*
G02*
X156621738Y-107250000I271738J0D01*
G01*
X157328262Y-107250000D01*
G75*
G02*
X157600000Y-107521738I0J-271738D01*
G01*
G37*
%TD*%
%TO.C,C10*%
G36*
G01*
X167350000Y-108478262D02*
X167350000Y-107521738D01*
G75*
G02*
X167621738Y-107250000I271738J0D01*
G01*
X168328262Y-107250000D01*
G75*
G02*
X168600000Y-107521738I0J-271738D01*
G01*
X168600000Y-108478262D01*
G75*
G02*
X168328262Y-108750000I-271738J0D01*
G01*
X167621738Y-108750000D01*
G75*
G02*
X167350000Y-108478262I0J271738D01*
G01*
G37*
G36*
G01*
X169400000Y-108478262D02*
X169400000Y-107521738D01*
G75*
G02*
X169671738Y-107250000I271738J0D01*
G01*
X170378262Y-107250000D01*
G75*
G02*
X170650000Y-107521738I0J-271738D01*
G01*
X170650000Y-108478262D01*
G75*
G02*
X170378262Y-108750000I-271738J0D01*
G01*
X169671738Y-108750000D01*
G75*
G02*
X169400000Y-108478262I0J271738D01*
G01*
G37*
%TD*%
%TO.C,C11*%
G36*
G01*
X189600000Y-107521738D02*
X189600000Y-108478262D01*
G75*
G02*
X189328262Y-108750000I-271738J0D01*
G01*
X188621738Y-108750000D01*
G75*
G02*
X188350000Y-108478262I0J271738D01*
G01*
X188350000Y-107521738D01*
G75*
G02*
X188621738Y-107250000I271738J0D01*
G01*
X189328262Y-107250000D01*
G75*
G02*
X189600000Y-107521738I0J-271738D01*
G01*
G37*
G36*
G01*
X191650000Y-107521738D02*
X191650000Y-108478262D01*
G75*
G02*
X191378262Y-108750000I-271738J0D01*
G01*
X190671738Y-108750000D01*
G75*
G02*
X190400000Y-108478262I0J271738D01*
G01*
X190400000Y-107521738D01*
G75*
G02*
X190671738Y-107250000I271738J0D01*
G01*
X191378262Y-107250000D01*
G75*
G02*
X191650000Y-107521738I0J-271738D01*
G01*
G37*
%TD*%
D13*
%TO.C,J1*%
X34462500Y-87000000D03*
D14*
X37162500Y-83500000D03*
D15*
X37162500Y-85350000D03*
X37162500Y-84700000D03*
X37162500Y-87300000D03*
X37162500Y-86650000D03*
X37162500Y-86000000D03*
D14*
X37162500Y-88500000D03*
D13*
X34462500Y-85000000D03*
D16*
X34462500Y-82500000D03*
X34462500Y-89500000D03*
D17*
X34462500Y-88900000D03*
X34462500Y-83100000D03*
%TD*%
D10*
%TO.C,J3*%
X49000000Y-108000000D03*
X54000000Y-108000000D03*
X51500000Y-108000000D03*
X49000000Y-93500000D03*
X54000000Y-93500000D03*
D11*
X46850000Y-100500000D03*
X56150000Y-100500000D03*
%TD*%
D10*
%TO.C,J4*%
X81000000Y-108000000D03*
X86000000Y-108000000D03*
X83500000Y-108000000D03*
X81000000Y-93500000D03*
X86000000Y-93500000D03*
D11*
X78850000Y-100500000D03*
X88150000Y-100500000D03*
%TD*%
%TO.C,J5*%
X120150000Y-100500000D03*
X110850000Y-100500000D03*
D10*
X118000000Y-93500000D03*
X113000000Y-93500000D03*
X115500000Y-108000000D03*
X118000000Y-108000000D03*
X113000000Y-108000000D03*
%TD*%
D11*
%TO.C,J7*%
X184150000Y-100500000D03*
X174850000Y-100500000D03*
D10*
X182000000Y-93500000D03*
X177000000Y-93500000D03*
X179500000Y-108000000D03*
X182000000Y-108000000D03*
X177000000Y-108000000D03*
%TD*%
%TO.C,R6*%
G36*
G01*
X41400000Y-104478262D02*
X41400000Y-103521738D01*
G75*
G02*
X41671738Y-103250000I271738J0D01*
G01*
X42378262Y-103250000D01*
G75*
G02*
X42650000Y-103521738I0J-271738D01*
G01*
X42650000Y-104478262D01*
G75*
G02*
X42378262Y-104750000I-271738J0D01*
G01*
X41671738Y-104750000D01*
G75*
G02*
X41400000Y-104478262I0J271738D01*
G01*
G37*
G36*
G01*
X39350000Y-104478262D02*
X39350000Y-103521738D01*
G75*
G02*
X39621738Y-103250000I271738J0D01*
G01*
X40328262Y-103250000D01*
G75*
G02*
X40600000Y-103521738I0J-271738D01*
G01*
X40600000Y-104478262D01*
G75*
G02*
X40328262Y-104750000I-271738J0D01*
G01*
X39621738Y-104750000D01*
G75*
G02*
X39350000Y-104478262I0J271738D01*
G01*
G37*
%TD*%
%TO.C,R7*%
G36*
G01*
X63650000Y-103521738D02*
X63650000Y-104478262D01*
G75*
G02*
X63378262Y-104750000I-271738J0D01*
G01*
X62671738Y-104750000D01*
G75*
G02*
X62400000Y-104478262I0J271738D01*
G01*
X62400000Y-103521738D01*
G75*
G02*
X62671738Y-103250000I271738J0D01*
G01*
X63378262Y-103250000D01*
G75*
G02*
X63650000Y-103521738I0J-271738D01*
G01*
G37*
G36*
G01*
X61600000Y-103521738D02*
X61600000Y-104478262D01*
G75*
G02*
X61328262Y-104750000I-271738J0D01*
G01*
X60621738Y-104750000D01*
G75*
G02*
X60350000Y-104478262I0J271738D01*
G01*
X60350000Y-103521738D01*
G75*
G02*
X60621738Y-103250000I271738J0D01*
G01*
X61328262Y-103250000D01*
G75*
G02*
X61600000Y-103521738I0J-271738D01*
G01*
G37*
%TD*%
%TO.C,R8*%
G36*
G01*
X39350000Y-100478262D02*
X39350000Y-99521738D01*
G75*
G02*
X39621738Y-99250000I271738J0D01*
G01*
X40328262Y-99250000D01*
G75*
G02*
X40600000Y-99521738I0J-271738D01*
G01*
X40600000Y-100478262D01*
G75*
G02*
X40328262Y-100750000I-271738J0D01*
G01*
X39621738Y-100750000D01*
G75*
G02*
X39350000Y-100478262I0J271738D01*
G01*
G37*
G36*
G01*
X41400000Y-100478262D02*
X41400000Y-99521738D01*
G75*
G02*
X41671738Y-99250000I271738J0D01*
G01*
X42378262Y-99250000D01*
G75*
G02*
X42650000Y-99521738I0J-271738D01*
G01*
X42650000Y-100478262D01*
G75*
G02*
X42378262Y-100750000I-271738J0D01*
G01*
X41671738Y-100750000D01*
G75*
G02*
X41400000Y-100478262I0J271738D01*
G01*
G37*
%TD*%
%TO.C,R9*%
G36*
G01*
X61600000Y-99521738D02*
X61600000Y-100478262D01*
G75*
G02*
X61328262Y-100750000I-271738J0D01*
G01*
X60621738Y-100750000D01*
G75*
G02*
X60350000Y-100478262I0J271738D01*
G01*
X60350000Y-99521738D01*
G75*
G02*
X60621738Y-99250000I271738J0D01*
G01*
X61328262Y-99250000D01*
G75*
G02*
X61600000Y-99521738I0J-271738D01*
G01*
G37*
G36*
G01*
X63650000Y-99521738D02*
X63650000Y-100478262D01*
G75*
G02*
X63378262Y-100750000I-271738J0D01*
G01*
X62671738Y-100750000D01*
G75*
G02*
X62400000Y-100478262I0J271738D01*
G01*
X62400000Y-99521738D01*
G75*
G02*
X62671738Y-99250000I271738J0D01*
G01*
X63378262Y-99250000D01*
G75*
G02*
X63650000Y-99521738I0J-271738D01*
G01*
G37*
%TD*%
%TO.C,R10*%
G36*
G01*
X73400000Y-104478262D02*
X73400000Y-103521738D01*
G75*
G02*
X73671738Y-103250000I271738J0D01*
G01*
X74378262Y-103250000D01*
G75*
G02*
X74650000Y-103521738I0J-271738D01*
G01*
X74650000Y-104478262D01*
G75*
G02*
X74378262Y-104750000I-271738J0D01*
G01*
X73671738Y-104750000D01*
G75*
G02*
X73400000Y-104478262I0J271738D01*
G01*
G37*
G36*
G01*
X71350000Y-104478262D02*
X71350000Y-103521738D01*
G75*
G02*
X71621738Y-103250000I271738J0D01*
G01*
X72328262Y-103250000D01*
G75*
G02*
X72600000Y-103521738I0J-271738D01*
G01*
X72600000Y-104478262D01*
G75*
G02*
X72328262Y-104750000I-271738J0D01*
G01*
X71621738Y-104750000D01*
G75*
G02*
X71350000Y-104478262I0J271738D01*
G01*
G37*
%TD*%
%TO.C,R11*%
G36*
G01*
X93600000Y-103521738D02*
X93600000Y-104478262D01*
G75*
G02*
X93328262Y-104750000I-271738J0D01*
G01*
X92621738Y-104750000D01*
G75*
G02*
X92350000Y-104478262I0J271738D01*
G01*
X92350000Y-103521738D01*
G75*
G02*
X92621738Y-103250000I271738J0D01*
G01*
X93328262Y-103250000D01*
G75*
G02*
X93600000Y-103521738I0J-271738D01*
G01*
G37*
G36*
G01*
X95650000Y-103521738D02*
X95650000Y-104478262D01*
G75*
G02*
X95378262Y-104750000I-271738J0D01*
G01*
X94671738Y-104750000D01*
G75*
G02*
X94400000Y-104478262I0J271738D01*
G01*
X94400000Y-103521738D01*
G75*
G02*
X94671738Y-103250000I271738J0D01*
G01*
X95378262Y-103250000D01*
G75*
G02*
X95650000Y-103521738I0J-271738D01*
G01*
G37*
%TD*%
%TO.C,R12*%
G36*
G01*
X73400000Y-100478262D02*
X73400000Y-99521738D01*
G75*
G02*
X73671738Y-99250000I271738J0D01*
G01*
X74378262Y-99250000D01*
G75*
G02*
X74650000Y-99521738I0J-271738D01*
G01*
X74650000Y-100478262D01*
G75*
G02*
X74378262Y-100750000I-271738J0D01*
G01*
X73671738Y-100750000D01*
G75*
G02*
X73400000Y-100478262I0J271738D01*
G01*
G37*
G36*
G01*
X71350000Y-100478262D02*
X71350000Y-99521738D01*
G75*
G02*
X71621738Y-99250000I271738J0D01*
G01*
X72328262Y-99250000D01*
G75*
G02*
X72600000Y-99521738I0J-271738D01*
G01*
X72600000Y-100478262D01*
G75*
G02*
X72328262Y-100750000I-271738J0D01*
G01*
X71621738Y-100750000D01*
G75*
G02*
X71350000Y-100478262I0J271738D01*
G01*
G37*
%TD*%
%TO.C,R13*%
G36*
G01*
X95650000Y-99521738D02*
X95650000Y-100478262D01*
G75*
G02*
X95378262Y-100750000I-271738J0D01*
G01*
X94671738Y-100750000D01*
G75*
G02*
X94400000Y-100478262I0J271738D01*
G01*
X94400000Y-99521738D01*
G75*
G02*
X94671738Y-99250000I271738J0D01*
G01*
X95378262Y-99250000D01*
G75*
G02*
X95650000Y-99521738I0J-271738D01*
G01*
G37*
G36*
G01*
X93600000Y-99521738D02*
X93600000Y-100478262D01*
G75*
G02*
X93328262Y-100750000I-271738J0D01*
G01*
X92621738Y-100750000D01*
G75*
G02*
X92350000Y-100478262I0J271738D01*
G01*
X92350000Y-99521738D01*
G75*
G02*
X92621738Y-99250000I271738J0D01*
G01*
X93328262Y-99250000D01*
G75*
G02*
X93600000Y-99521738I0J-271738D01*
G01*
G37*
%TD*%
%TO.C,R14*%
G36*
G01*
X103350000Y-104478262D02*
X103350000Y-103521738D01*
G75*
G02*
X103621738Y-103250000I271738J0D01*
G01*
X104328262Y-103250000D01*
G75*
G02*
X104600000Y-103521738I0J-271738D01*
G01*
X104600000Y-104478262D01*
G75*
G02*
X104328262Y-104750000I-271738J0D01*
G01*
X103621738Y-104750000D01*
G75*
G02*
X103350000Y-104478262I0J271738D01*
G01*
G37*
G36*
G01*
X105400000Y-104478262D02*
X105400000Y-103521738D01*
G75*
G02*
X105671738Y-103250000I271738J0D01*
G01*
X106378262Y-103250000D01*
G75*
G02*
X106650000Y-103521738I0J-271738D01*
G01*
X106650000Y-104478262D01*
G75*
G02*
X106378262Y-104750000I-271738J0D01*
G01*
X105671738Y-104750000D01*
G75*
G02*
X105400000Y-104478262I0J271738D01*
G01*
G37*
%TD*%
%TO.C,R15*%
G36*
G01*
X125600000Y-103521738D02*
X125600000Y-104478262D01*
G75*
G02*
X125328262Y-104750000I-271738J0D01*
G01*
X124621738Y-104750000D01*
G75*
G02*
X124350000Y-104478262I0J271738D01*
G01*
X124350000Y-103521738D01*
G75*
G02*
X124621738Y-103250000I271738J0D01*
G01*
X125328262Y-103250000D01*
G75*
G02*
X125600000Y-103521738I0J-271738D01*
G01*
G37*
G36*
G01*
X127650000Y-103521738D02*
X127650000Y-104478262D01*
G75*
G02*
X127378262Y-104750000I-271738J0D01*
G01*
X126671738Y-104750000D01*
G75*
G02*
X126400000Y-104478262I0J271738D01*
G01*
X126400000Y-103521738D01*
G75*
G02*
X126671738Y-103250000I271738J0D01*
G01*
X127378262Y-103250000D01*
G75*
G02*
X127650000Y-103521738I0J-271738D01*
G01*
G37*
%TD*%
%TO.C,R16*%
G36*
G01*
X103350000Y-100478262D02*
X103350000Y-99521738D01*
G75*
G02*
X103621738Y-99250000I271738J0D01*
G01*
X104328262Y-99250000D01*
G75*
G02*
X104600000Y-99521738I0J-271738D01*
G01*
X104600000Y-100478262D01*
G75*
G02*
X104328262Y-100750000I-271738J0D01*
G01*
X103621738Y-100750000D01*
G75*
G02*
X103350000Y-100478262I0J271738D01*
G01*
G37*
G36*
G01*
X105400000Y-100478262D02*
X105400000Y-99521738D01*
G75*
G02*
X105671738Y-99250000I271738J0D01*
G01*
X106378262Y-99250000D01*
G75*
G02*
X106650000Y-99521738I0J-271738D01*
G01*
X106650000Y-100478262D01*
G75*
G02*
X106378262Y-100750000I-271738J0D01*
G01*
X105671738Y-100750000D01*
G75*
G02*
X105400000Y-100478262I0J271738D01*
G01*
G37*
%TD*%
%TO.C,R17*%
G36*
G01*
X127650000Y-99521738D02*
X127650000Y-100478262D01*
G75*
G02*
X127378262Y-100750000I-271738J0D01*
G01*
X126671738Y-100750000D01*
G75*
G02*
X126400000Y-100478262I0J271738D01*
G01*
X126400000Y-99521738D01*
G75*
G02*
X126671738Y-99250000I271738J0D01*
G01*
X127378262Y-99250000D01*
G75*
G02*
X127650000Y-99521738I0J-271738D01*
G01*
G37*
G36*
G01*
X125600000Y-99521738D02*
X125600000Y-100478262D01*
G75*
G02*
X125328262Y-100750000I-271738J0D01*
G01*
X124621738Y-100750000D01*
G75*
G02*
X124350000Y-100478262I0J271738D01*
G01*
X124350000Y-99521738D01*
G75*
G02*
X124621738Y-99250000I271738J0D01*
G01*
X125328262Y-99250000D01*
G75*
G02*
X125600000Y-99521738I0J-271738D01*
G01*
G37*
%TD*%
%TO.C,R18*%
G36*
G01*
X135350000Y-104478262D02*
X135350000Y-103521738D01*
G75*
G02*
X135621738Y-103250000I271738J0D01*
G01*
X136328262Y-103250000D01*
G75*
G02*
X136600000Y-103521738I0J-271738D01*
G01*
X136600000Y-104478262D01*
G75*
G02*
X136328262Y-104750000I-271738J0D01*
G01*
X135621738Y-104750000D01*
G75*
G02*
X135350000Y-104478262I0J271738D01*
G01*
G37*
G36*
G01*
X137400000Y-104478262D02*
X137400000Y-103521738D01*
G75*
G02*
X137671738Y-103250000I271738J0D01*
G01*
X138378262Y-103250000D01*
G75*
G02*
X138650000Y-103521738I0J-271738D01*
G01*
X138650000Y-104478262D01*
G75*
G02*
X138378262Y-104750000I-271738J0D01*
G01*
X137671738Y-104750000D01*
G75*
G02*
X137400000Y-104478262I0J271738D01*
G01*
G37*
%TD*%
%TO.C,R19*%
G36*
G01*
X157600000Y-103521738D02*
X157600000Y-104478262D01*
G75*
G02*
X157328262Y-104750000I-271738J0D01*
G01*
X156621738Y-104750000D01*
G75*
G02*
X156350000Y-104478262I0J271738D01*
G01*
X156350000Y-103521738D01*
G75*
G02*
X156621738Y-103250000I271738J0D01*
G01*
X157328262Y-103250000D01*
G75*
G02*
X157600000Y-103521738I0J-271738D01*
G01*
G37*
G36*
G01*
X159650000Y-103521738D02*
X159650000Y-104478262D01*
G75*
G02*
X159378262Y-104750000I-271738J0D01*
G01*
X158671738Y-104750000D01*
G75*
G02*
X158400000Y-104478262I0J271738D01*
G01*
X158400000Y-103521738D01*
G75*
G02*
X158671738Y-103250000I271738J0D01*
G01*
X159378262Y-103250000D01*
G75*
G02*
X159650000Y-103521738I0J-271738D01*
G01*
G37*
%TD*%
%TO.C,R20*%
G36*
G01*
X137400000Y-100478262D02*
X137400000Y-99521738D01*
G75*
G02*
X137671738Y-99250000I271738J0D01*
G01*
X138378262Y-99250000D01*
G75*
G02*
X138650000Y-99521738I0J-271738D01*
G01*
X138650000Y-100478262D01*
G75*
G02*
X138378262Y-100750000I-271738J0D01*
G01*
X137671738Y-100750000D01*
G75*
G02*
X137400000Y-100478262I0J271738D01*
G01*
G37*
G36*
G01*
X135350000Y-100478262D02*
X135350000Y-99521738D01*
G75*
G02*
X135621738Y-99250000I271738J0D01*
G01*
X136328262Y-99250000D01*
G75*
G02*
X136600000Y-99521738I0J-271738D01*
G01*
X136600000Y-100478262D01*
G75*
G02*
X136328262Y-100750000I-271738J0D01*
G01*
X135621738Y-100750000D01*
G75*
G02*
X135350000Y-100478262I0J271738D01*
G01*
G37*
%TD*%
%TO.C,R21*%
G36*
G01*
X159650000Y-99521738D02*
X159650000Y-100478262D01*
G75*
G02*
X159378262Y-100750000I-271738J0D01*
G01*
X158671738Y-100750000D01*
G75*
G02*
X158400000Y-100478262I0J271738D01*
G01*
X158400000Y-99521738D01*
G75*
G02*
X158671738Y-99250000I271738J0D01*
G01*
X159378262Y-99250000D01*
G75*
G02*
X159650000Y-99521738I0J-271738D01*
G01*
G37*
G36*
G01*
X157600000Y-99521738D02*
X157600000Y-100478262D01*
G75*
G02*
X157328262Y-100750000I-271738J0D01*
G01*
X156621738Y-100750000D01*
G75*
G02*
X156350000Y-100478262I0J271738D01*
G01*
X156350000Y-99521738D01*
G75*
G02*
X156621738Y-99250000I271738J0D01*
G01*
X157328262Y-99250000D01*
G75*
G02*
X157600000Y-99521738I0J-271738D01*
G01*
G37*
%TD*%
%TO.C,R22*%
G36*
G01*
X167350000Y-104478262D02*
X167350000Y-103521738D01*
G75*
G02*
X167621738Y-103250000I271738J0D01*
G01*
X168328262Y-103250000D01*
G75*
G02*
X168600000Y-103521738I0J-271738D01*
G01*
X168600000Y-104478262D01*
G75*
G02*
X168328262Y-104750000I-271738J0D01*
G01*
X167621738Y-104750000D01*
G75*
G02*
X167350000Y-104478262I0J271738D01*
G01*
G37*
G36*
G01*
X169400000Y-104478262D02*
X169400000Y-103521738D01*
G75*
G02*
X169671738Y-103250000I271738J0D01*
G01*
X170378262Y-103250000D01*
G75*
G02*
X170650000Y-103521738I0J-271738D01*
G01*
X170650000Y-104478262D01*
G75*
G02*
X170378262Y-104750000I-271738J0D01*
G01*
X169671738Y-104750000D01*
G75*
G02*
X169400000Y-104478262I0J271738D01*
G01*
G37*
%TD*%
%TO.C,R23*%
G36*
G01*
X189600000Y-103521738D02*
X189600000Y-104478262D01*
G75*
G02*
X189328262Y-104750000I-271738J0D01*
G01*
X188621738Y-104750000D01*
G75*
G02*
X188350000Y-104478262I0J271738D01*
G01*
X188350000Y-103521738D01*
G75*
G02*
X188621738Y-103250000I271738J0D01*
G01*
X189328262Y-103250000D01*
G75*
G02*
X189600000Y-103521738I0J-271738D01*
G01*
G37*
G36*
G01*
X191650000Y-103521738D02*
X191650000Y-104478262D01*
G75*
G02*
X191378262Y-104750000I-271738J0D01*
G01*
X190671738Y-104750000D01*
G75*
G02*
X190400000Y-104478262I0J271738D01*
G01*
X190400000Y-103521738D01*
G75*
G02*
X190671738Y-103250000I271738J0D01*
G01*
X191378262Y-103250000D01*
G75*
G02*
X191650000Y-103521738I0J-271738D01*
G01*
G37*
%TD*%
%TO.C,R24*%
G36*
G01*
X169400000Y-100478262D02*
X169400000Y-99521738D01*
G75*
G02*
X169671738Y-99250000I271738J0D01*
G01*
X170378262Y-99250000D01*
G75*
G02*
X170650000Y-99521738I0J-271738D01*
G01*
X170650000Y-100478262D01*
G75*
G02*
X170378262Y-100750000I-271738J0D01*
G01*
X169671738Y-100750000D01*
G75*
G02*
X169400000Y-100478262I0J271738D01*
G01*
G37*
G36*
G01*
X167350000Y-100478262D02*
X167350000Y-99521738D01*
G75*
G02*
X167621738Y-99250000I271738J0D01*
G01*
X168328262Y-99250000D01*
G75*
G02*
X168600000Y-99521738I0J-271738D01*
G01*
X168600000Y-100478262D01*
G75*
G02*
X168328262Y-100750000I-271738J0D01*
G01*
X167621738Y-100750000D01*
G75*
G02*
X167350000Y-100478262I0J271738D01*
G01*
G37*
%TD*%
%TO.C,R25*%
G36*
G01*
X191650000Y-99521738D02*
X191650000Y-100478262D01*
G75*
G02*
X191378262Y-100750000I-271738J0D01*
G01*
X190671738Y-100750000D01*
G75*
G02*
X190400000Y-100478262I0J271738D01*
G01*
X190400000Y-99521738D01*
G75*
G02*
X190671738Y-99250000I271738J0D01*
G01*
X191378262Y-99250000D01*
G75*
G02*
X191650000Y-99521738I0J-271738D01*
G01*
G37*
G36*
G01*
X189600000Y-99521738D02*
X189600000Y-100478262D01*
G75*
G02*
X189328262Y-100750000I-271738J0D01*
G01*
X188621738Y-100750000D01*
G75*
G02*
X188350000Y-100478262I0J271738D01*
G01*
X188350000Y-99521738D01*
G75*
G02*
X188621738Y-99250000I271738J0D01*
G01*
X189328262Y-99250000D01*
G75*
G02*
X189600000Y-99521738I0J-271738D01*
G01*
G37*
%TD*%
D18*
%TO.C,SW1*%
X48000000Y-86500000D03*
X48000000Y-82000000D03*
X54500000Y-86500000D03*
X54500000Y-82000000D03*
%TD*%
%TO.C,SW2*%
X86500000Y-82000000D03*
X86500000Y-86500000D03*
X80000000Y-82000000D03*
X80000000Y-86500000D03*
%TD*%
%TO.C,SW3*%
X112000000Y-86500000D03*
X112000000Y-82000000D03*
X118500000Y-86500000D03*
X118500000Y-82000000D03*
%TD*%
%TO.C,SW4*%
X150500000Y-82000000D03*
X150500000Y-86500000D03*
X144000000Y-82000000D03*
X144000000Y-86500000D03*
%TD*%
%TO.C,SW5*%
X176000000Y-86500000D03*
X176000000Y-82000000D03*
X182500000Y-86500000D03*
X182500000Y-82000000D03*
%TD*%
%TO.C,D6*%
G36*
G01*
X44150000Y-88521738D02*
X44150000Y-89478262D01*
G75*
G02*
X43878262Y-89750000I-271738J0D01*
G01*
X43171738Y-89750000D01*
G75*
G02*
X42900000Y-89478262I0J271738D01*
G01*
X42900000Y-88521738D01*
G75*
G02*
X43171738Y-88250000I271738J0D01*
G01*
X43878262Y-88250000D01*
G75*
G02*
X44150000Y-88521738I0J-271738D01*
G01*
G37*
G36*
G01*
X42100000Y-88521738D02*
X42100000Y-89478262D01*
G75*
G02*
X41828262Y-89750000I-271738J0D01*
G01*
X41121738Y-89750000D01*
G75*
G02*
X40850000Y-89478262I0J271738D01*
G01*
X40850000Y-88521738D01*
G75*
G02*
X41121738Y-88250000I271738J0D01*
G01*
X41828262Y-88250000D01*
G75*
G02*
X42100000Y-88521738I0J-271738D01*
G01*
G37*
%TD*%
%TO.C,R26*%
G36*
G01*
X40850000Y-86478262D02*
X40850000Y-85521738D01*
G75*
G02*
X41121738Y-85250000I271738J0D01*
G01*
X41828262Y-85250000D01*
G75*
G02*
X42100000Y-85521738I0J-271738D01*
G01*
X42100000Y-86478262D01*
G75*
G02*
X41828262Y-86750000I-271738J0D01*
G01*
X41121738Y-86750000D01*
G75*
G02*
X40850000Y-86478262I0J271738D01*
G01*
G37*
G36*
G01*
X42900000Y-86478262D02*
X42900000Y-85521738D01*
G75*
G02*
X43171738Y-85250000I271738J0D01*
G01*
X43878262Y-85250000D01*
G75*
G02*
X44150000Y-85521738I0J-271738D01*
G01*
X44150000Y-86478262D01*
G75*
G02*
X43878262Y-86750000I-271738J0D01*
G01*
X43171738Y-86750000D01*
G75*
G02*
X42900000Y-86478262I0J271738D01*
G01*
G37*
%TD*%
D19*
%TO.C,J2*%
X133310000Y-117540000D03*
X133310000Y-115000000D03*
X130770000Y-117540000D03*
X130770000Y-115000000D03*
X128230000Y-117540000D03*
X128230000Y-115000000D03*
X125690000Y-117540000D03*
X125690000Y-115000000D03*
X123150000Y-117540000D03*
X123150000Y-115000000D03*
X120610000Y-117540000D03*
X120610000Y-115000000D03*
X118070000Y-117540000D03*
X118070000Y-115000000D03*
X115530000Y-117540000D03*
X115530000Y-115000000D03*
X112990000Y-117540000D03*
X112990000Y-115000000D03*
X110450000Y-117540000D03*
X110450000Y-115000000D03*
X107910000Y-117540000D03*
X107910000Y-115000000D03*
X105370000Y-117540000D03*
X105370000Y-115000000D03*
X102830000Y-117540000D03*
X102830000Y-115000000D03*
X100290000Y-117540000D03*
X100290000Y-115000000D03*
X97750000Y-117540000D03*
D20*
X97750000Y-115000000D03*
%TD*%
%TO.C,J8*%
X97750000Y-66000000D03*
D19*
X97750000Y-68540000D03*
X100290000Y-66000000D03*
X100290000Y-68540000D03*
X102830000Y-66000000D03*
X102830000Y-68540000D03*
X105370000Y-66000000D03*
X105370000Y-68540000D03*
X107910000Y-66000000D03*
X107910000Y-68540000D03*
X110450000Y-66000000D03*
X110450000Y-68540000D03*
X112990000Y-66000000D03*
X112990000Y-68540000D03*
X115530000Y-66000000D03*
X115530000Y-68540000D03*
X118070000Y-66000000D03*
X118070000Y-68540000D03*
X120610000Y-66000000D03*
X120610000Y-68540000D03*
X123150000Y-66000000D03*
X123150000Y-68540000D03*
X125690000Y-66000000D03*
X125690000Y-68540000D03*
X128230000Y-66000000D03*
X128230000Y-68540000D03*
X130770000Y-66000000D03*
X130770000Y-68540000D03*
X133310000Y-66000000D03*
X133310000Y-68540000D03*
%TD*%
D21*
%TO.C,D1*%
X51000000Y-76000000D03*
D22*
X51000000Y-74730000D03*
X51000000Y-73460000D03*
X51000000Y-72190000D03*
%TD*%
D21*
%TO.C,D2*%
X83500000Y-76000000D03*
D22*
X83500000Y-74730000D03*
X83500000Y-73460000D03*
X83500000Y-72190000D03*
%TD*%
D21*
%TO.C,D3*%
X115500000Y-76000000D03*
D22*
X115500000Y-74730000D03*
X115500000Y-73460000D03*
X115500000Y-72190000D03*
%TD*%
%TO.C,D4*%
X147500000Y-72190000D03*
X147500000Y-73460000D03*
X147500000Y-74730000D03*
D21*
X147500000Y-76000000D03*
%TD*%
%TO.C,D5*%
X180000000Y-75000000D03*
D22*
X180000000Y-73730000D03*
X180000000Y-72460000D03*
X180000000Y-71190000D03*
%TD*%
D23*
%TO.C,RN1*%
X55600000Y-72800000D03*
D24*
X55600000Y-74400000D03*
X55600000Y-73600000D03*
D23*
X55600000Y-75200000D03*
D24*
X57400000Y-73600000D03*
D23*
X57400000Y-72800000D03*
D24*
X57400000Y-74400000D03*
D23*
X57400000Y-75200000D03*
%TD*%
%TO.C,RN2*%
X89900000Y-75700000D03*
D24*
X89900000Y-74900000D03*
D23*
X89900000Y-73300000D03*
D24*
X89900000Y-74100000D03*
D23*
X88100000Y-75700000D03*
D24*
X88100000Y-74100000D03*
X88100000Y-74900000D03*
D23*
X88100000Y-73300000D03*
%TD*%
%TO.C,RN3*%
X120100000Y-73300000D03*
D24*
X120100000Y-74900000D03*
X120100000Y-74100000D03*
D23*
X120100000Y-75700000D03*
D24*
X121900000Y-74100000D03*
D23*
X121900000Y-73300000D03*
D24*
X121900000Y-74900000D03*
D23*
X121900000Y-75700000D03*
%TD*%
%TO.C,RN4*%
X153900000Y-75200000D03*
D24*
X153900000Y-74400000D03*
D23*
X153900000Y-72800000D03*
D24*
X153900000Y-73600000D03*
D23*
X152100000Y-75200000D03*
D24*
X152100000Y-73600000D03*
X152100000Y-74400000D03*
D23*
X152100000Y-72800000D03*
%TD*%
%TO.C,RN5*%
X184600000Y-71800000D03*
D24*
X184600000Y-73400000D03*
X184600000Y-72600000D03*
D23*
X184600000Y-74200000D03*
D24*
X186400000Y-72600000D03*
D23*
X186400000Y-71800000D03*
D24*
X186400000Y-73400000D03*
D23*
X186400000Y-74200000D03*
%TD*%
D25*
%TO.C,C1*%
X41600000Y-80300000D03*
D26*
X43600000Y-80300000D03*
%TD*%
M02*
