%TF.GenerationSoftware,KiCad,Pcbnew,(5.1.6)-1*%
%TF.CreationDate,2020-09-26T19:54:48-07:00*%
%TF.ProjectId,Cessna 172 nav and com radio,43657373-6e61-4203-9137-32206e617620,rev?*%
%TF.SameCoordinates,Original*%
%TF.FileFunction,Copper,L1,Top*%
%TF.FilePolarity,Positive*%
%FSLAX46Y46*%
G04 Gerber Fmt 4.6, Leading zero omitted, Abs format (unit mm)*
G04 Created by KiCad (PCBNEW (5.1.6)-1) date 2020-09-26 19:54:48*
%MOMM*%
%LPD*%
G01*
G04 APERTURE LIST*
%TA.AperFunction,NonConductor*%
%ADD10C,0.300000*%
%TD*%
%TA.AperFunction,ComponentPad*%
%ADD11O,1.200000X2.000000*%
%TD*%
%TA.AperFunction,ComponentPad*%
%ADD12C,1.524000*%
%TD*%
%TA.AperFunction,ComponentPad*%
%ADD13C,1.800000*%
%TD*%
%TA.AperFunction,ComponentPad*%
%ADD14R,1.800000X1.800000*%
%TD*%
%TA.AperFunction,ComponentPad*%
%ADD15C,2.000000*%
%TD*%
%TA.AperFunction,ComponentPad*%
%ADD16C,1.450000*%
%TD*%
%TA.AperFunction,ComponentPad*%
%ADD17O,1.900000X1.200000*%
%TD*%
%TA.AperFunction,ComponentPad*%
%ADD18C,4.950000*%
%TD*%
%TA.AperFunction,ComponentPad*%
%ADD19R,1.700000X1.700000*%
%TD*%
%TA.AperFunction,ComponentPad*%
%ADD20O,1.700000X1.700000*%
%TD*%
%TA.AperFunction,ViaPad*%
%ADD21C,0.800000*%
%TD*%
%TA.AperFunction,Conductor*%
%ADD22C,0.250000*%
%TD*%
G04 APERTURE END LIST*
D10*
X32321428Y-111847714D02*
X31321428Y-112204857D01*
X32321428Y-112562000D01*
X31321428Y-113919142D02*
X31321428Y-113062000D01*
X31321428Y-113490571D02*
X32821428Y-113490571D01*
X32607142Y-113347714D01*
X32464285Y-113204857D01*
X32392857Y-113062000D01*
X31464285Y-114562000D02*
X31392857Y-114633428D01*
X31321428Y-114562000D01*
X31392857Y-114490571D01*
X31464285Y-114562000D01*
X31321428Y-114562000D01*
X32821428Y-115562000D02*
X32821428Y-115704857D01*
X32750000Y-115847714D01*
X32678571Y-115919142D01*
X32535714Y-115990571D01*
X32250000Y-116062000D01*
X31892857Y-116062000D01*
X31607142Y-115990571D01*
X31464285Y-115919142D01*
X31392857Y-115847714D01*
X31321428Y-115704857D01*
X31321428Y-115562000D01*
X31392857Y-115419142D01*
X31464285Y-115347714D01*
X31607142Y-115276285D01*
X31892857Y-115204857D01*
X32250000Y-115204857D01*
X32535714Y-115276285D01*
X32678571Y-115347714D01*
X32750000Y-115419142D01*
X32821428Y-115562000D01*
X31464285Y-116704857D02*
X31392857Y-116776285D01*
X31321428Y-116704857D01*
X31392857Y-116633428D01*
X31464285Y-116704857D01*
X31321428Y-116704857D01*
X32821428Y-117704857D02*
X32821428Y-117847714D01*
X32750000Y-117990571D01*
X32678571Y-118062000D01*
X32535714Y-118133428D01*
X32250000Y-118204857D01*
X31892857Y-118204857D01*
X31607142Y-118133428D01*
X31464285Y-118062000D01*
X31392857Y-117990571D01*
X31321428Y-117847714D01*
X31321428Y-117704857D01*
X31392857Y-117562000D01*
X31464285Y-117490571D01*
X31607142Y-117419142D01*
X31892857Y-117347714D01*
X32250000Y-117347714D01*
X32535714Y-117419142D01*
X32678571Y-117490571D01*
X32750000Y-117562000D01*
X32821428Y-117704857D01*
D11*
%TO.P,U4,7*%
%TO.N,Net-(U4-Pad7)*%
X106620000Y-46080000D03*
%TO.P,U4,8*%
%TO.N,/sheet5F611637/DIG_4*%
X106620000Y-35920000D03*
%TO.P,U4,6*%
%TO.N,/sheet5F611637/DIG_3*%
X104080000Y-46080000D03*
%TO.P,U4,9*%
%TO.N,/sheet5F611637/SEG_B*%
X104080000Y-35920000D03*
%TO.P,U4,5*%
%TO.N,/sheet5F611637/SEG_G*%
X101540000Y-46080000D03*
%TO.P,U4,10*%
%TO.N,/sheet5F611637/DIG_2*%
X101540000Y-35920000D03*
%TO.P,U4,4*%
%TO.N,/sheet5F611637/SEG_C*%
X99000000Y-46080000D03*
%TO.P,U4,11*%
%TO.N,/sheet5F611637/DIG_1*%
X99000000Y-35920000D03*
%TO.P,U4,3*%
%TO.N,/sheet5F611637/SEG_DP*%
X96460000Y-46080000D03*
%TO.P,U4,12*%
%TO.N,/sheet5F611637/SEG_F*%
X96460000Y-35920000D03*
%TO.P,U4,2*%
%TO.N,/sheet5F611637/SEG_D*%
X93920000Y-46080000D03*
%TO.P,U4,13*%
%TO.N,/sheet5F611637/SEG_A*%
X93920000Y-35920000D03*
%TO.P,U4,1*%
%TO.N,/sheet5F611637/SEG_E*%
X91380000Y-46080000D03*
%TO.P,U4,14*%
%TO.N,/sheet5F611637/DIG_0*%
X91380000Y-35920000D03*
%TD*%
D12*
%TO.P,RV1,1*%
%TO.N,Net-(R1-Pad2)*%
X155500000Y-68500000D03*
%TO.P,RV1,3*%
%TO.N,ISET*%
X155500000Y-63500000D03*
%TO.P,RV1,2*%
%TO.N,Net-(RV1-Pad2)*%
X160500000Y-66000000D03*
%TD*%
D11*
%TO.P,U2,7*%
%TO.N,Net-(U2-Pad7)*%
X68620000Y-46080000D03*
%TO.P,U2,8*%
%TO.N,/5 digit LCD display/DIG_4*%
X68620000Y-35920000D03*
%TO.P,U2,6*%
%TO.N,/5 digit LCD display/DIG_3*%
X66080000Y-46080000D03*
%TO.P,U2,9*%
%TO.N,/5 digit LCD display/SEG_B*%
X66080000Y-35920000D03*
%TO.P,U2,5*%
%TO.N,/5 digit LCD display/SEG_G*%
X63540000Y-46080000D03*
%TO.P,U2,10*%
%TO.N,/5 digit LCD display/DIG_2*%
X63540000Y-35920000D03*
%TO.P,U2,4*%
%TO.N,/5 digit LCD display/SEG_C*%
X61000000Y-46080000D03*
%TO.P,U2,11*%
%TO.N,/5 digit LCD display/DIG_1*%
X61000000Y-35920000D03*
%TO.P,U2,3*%
%TO.N,/5 digit LCD display/SEG_DP*%
X58460000Y-46080000D03*
%TO.P,U2,12*%
%TO.N,/5 digit LCD display/SEG_F*%
X58460000Y-35920000D03*
%TO.P,U2,2*%
%TO.N,/5 digit LCD display/SEG_D*%
X55920000Y-46080000D03*
%TO.P,U2,13*%
%TO.N,/5 digit LCD display/SEG_A*%
X55920000Y-35920000D03*
%TO.P,U2,1*%
%TO.N,/5 digit LCD display/SEG_E*%
X53380000Y-46080000D03*
%TO.P,U2,14*%
%TO.N,/5 digit LCD display/DIG_0*%
X53380000Y-35920000D03*
%TD*%
%TO.P,U6,7*%
%TO.N,Net-(U6-Pad7)*%
X147620000Y-46080000D03*
%TO.P,U6,8*%
%TO.N,/sheet5F613960/DIG_4*%
X147620000Y-35920000D03*
%TO.P,U6,6*%
%TO.N,/sheet5F613960/DIG_3*%
X145080000Y-46080000D03*
%TO.P,U6,9*%
%TO.N,/sheet5F613960/SEG_B*%
X145080000Y-35920000D03*
%TO.P,U6,5*%
%TO.N,/sheet5F613960/SEG_G*%
X142540000Y-46080000D03*
%TO.P,U6,10*%
%TO.N,/sheet5F613960/DIG_2*%
X142540000Y-35920000D03*
%TO.P,U6,4*%
%TO.N,/sheet5F613960/SEG_C*%
X140000000Y-46080000D03*
%TO.P,U6,11*%
%TO.N,/sheet5F613960/DIG_1*%
X140000000Y-35920000D03*
%TO.P,U6,3*%
%TO.N,/sheet5F613960/SEG_DP*%
X137460000Y-46080000D03*
%TO.P,U6,12*%
%TO.N,/sheet5F613960/SEG_F*%
X137460000Y-35920000D03*
%TO.P,U6,2*%
%TO.N,/sheet5F613960/SEG_D*%
X134920000Y-46080000D03*
%TO.P,U6,13*%
%TO.N,/sheet5F613960/SEG_A*%
X134920000Y-35920000D03*
%TO.P,U6,1*%
%TO.N,/sheet5F613960/SEG_E*%
X132380000Y-46080000D03*
%TO.P,U6,14*%
%TO.N,/sheet5F613960/DIG_0*%
X132380000Y-35920000D03*
%TD*%
%TO.P,U8,7*%
%TO.N,Net-(U8-Pad7)*%
X185620000Y-46080000D03*
%TO.P,U8,8*%
%TO.N,/sheet5F613961/DIG_4*%
X185620000Y-35920000D03*
%TO.P,U8,6*%
%TO.N,/sheet5F613961/DIG_3*%
X183080000Y-46080000D03*
%TO.P,U8,9*%
%TO.N,/sheet5F613961/SEG_B*%
X183080000Y-35920000D03*
%TO.P,U8,5*%
%TO.N,/sheet5F613961/SEG_G*%
X180540000Y-46080000D03*
%TO.P,U8,10*%
%TO.N,/sheet5F613961/DIG_2*%
X180540000Y-35920000D03*
%TO.P,U8,4*%
%TO.N,/sheet5F613961/SEG_C*%
X178000000Y-46080000D03*
%TO.P,U8,11*%
%TO.N,/sheet5F613961/DIG_1*%
X178000000Y-35920000D03*
%TO.P,U8,3*%
%TO.N,/sheet5F613961/SEG_DP*%
X175460000Y-46080000D03*
%TO.P,U8,12*%
%TO.N,/sheet5F613961/SEG_F*%
X175460000Y-35920000D03*
%TO.P,U8,2*%
%TO.N,/sheet5F613961/SEG_D*%
X172920000Y-46080000D03*
%TO.P,U8,13*%
%TO.N,/sheet5F613961/SEG_A*%
X172920000Y-35920000D03*
%TO.P,U8,1*%
%TO.N,/sheet5F613961/SEG_E*%
X170380000Y-46080000D03*
%TO.P,U8,14*%
%TO.N,/sheet5F613961/DIG_0*%
X170380000Y-35920000D03*
%TD*%
D13*
%TO.P,D3,2*%
%TO.N,Net-(D3-Pad2)*%
X59540000Y-66000000D03*
D14*
%TO.P,D3,1*%
%TO.N,GND*%
X57000000Y-66000000D03*
%TD*%
D15*
%TO.P,SW1,2*%
%TO.N,COMM1_XFR*%
X76750000Y-58500000D03*
%TO.P,SW1,1*%
%TO.N,GND*%
X76750000Y-54000000D03*
%TO.P,SW1,2*%
%TO.N,COMM1_XFR*%
X83250000Y-58500000D03*
%TO.P,SW1,1*%
%TO.N,GND*%
X83250000Y-54000000D03*
%TD*%
%TO.P,SW2,1*%
%TO.N,GND*%
X162250000Y-54000000D03*
%TO.P,SW2,2*%
%TO.N,NAV1_XFR*%
X162250000Y-58500000D03*
%TO.P,SW2,1*%
%TO.N,GND*%
X155750000Y-54000000D03*
%TO.P,SW2,2*%
%TO.N,NAV1_XFR*%
X155750000Y-58500000D03*
%TD*%
%TO.P,SW3,2*%
%TO.N,IDENT1_SW*%
X125000000Y-68500000D03*
%TO.P,SW3,1*%
%TO.N,GND*%
X125000000Y-64000000D03*
%TO.P,SW3,2*%
%TO.N,IDENT1_SW*%
X131500000Y-68500000D03*
%TO.P,SW3,1*%
%TO.N,GND*%
X131500000Y-64000000D03*
%TD*%
D16*
%TO.P,J2,6*%
%TO.N,Net-(J2-Pad6)*%
X34162500Y-105500000D03*
X34162500Y-100500000D03*
D17*
X31462500Y-106500000D03*
X31462500Y-99500000D03*
%TD*%
D18*
%TO.P,J3,MH2*%
%TO.N,Net-(J3-PadMH2)*%
X106000000Y-55850000D03*
%TO.P,J3,MH1*%
%TO.N,Net-(J3-PadMH1)*%
X106000000Y-65150000D03*
D13*
%TO.P,J3,E1*%
%TO.N,GND*%
X99000000Y-58000000D03*
%TO.P,J3,D1*%
%TO.N,COMM1_KHZ_SW*%
X99000000Y-63000000D03*
%TO.P,J3,C1*%
%TO.N,GND*%
X113500000Y-60500000D03*
%TO.P,J3,B1*%
%TO.N,/Tuning rotary encoder and switch/B1*%
X113500000Y-58000000D03*
%TO.P,J3,A1*%
%TO.N,/Tuning rotary encoder and switch/A1*%
X113500000Y-63000000D03*
%TD*%
%TO.P,J4,A1*%
%TO.N,/sheet5F5DD32A/A1*%
X193000000Y-63000000D03*
%TO.P,J4,B1*%
%TO.N,/sheet5F5DD32A/B1*%
X193000000Y-58000000D03*
%TO.P,J4,C1*%
%TO.N,GND*%
X193000000Y-60500000D03*
%TO.P,J4,D1*%
%TO.N,NAV1_KHZ_SW*%
X178500000Y-63000000D03*
%TO.P,J4,E1*%
%TO.N,GND*%
X178500000Y-58000000D03*
D18*
%TO.P,J4,MH1*%
%TO.N,Net-(J4-PadMH1)*%
X185500000Y-65150000D03*
%TO.P,J4,MH2*%
%TO.N,Net-(J4-PadMH2)*%
X185500000Y-55850000D03*
%TD*%
D13*
%TO.P,D6,2*%
%TO.N,Net-(D6-Pad2)*%
X59540000Y-116000000D03*
D14*
%TO.P,D6,1*%
%TO.N,GND*%
X57000000Y-116000000D03*
%TD*%
D13*
%TO.P,J1,A1*%
%TO.N,/sheet5F71BCD2/A1*%
X113500000Y-113000000D03*
%TO.P,J1,B1*%
%TO.N,/sheet5F71BCD2/B1*%
X113500000Y-108000000D03*
%TO.P,J1,C1*%
%TO.N,GND*%
X113500000Y-110500000D03*
%TO.P,J1,D1*%
%TO.N,COMM2_KHZ_SW*%
X99000000Y-113000000D03*
%TO.P,J1,E1*%
%TO.N,GND*%
X99000000Y-108000000D03*
D18*
%TO.P,J1,MH1*%
%TO.N,Net-(J1-PadMH1)*%
X106000000Y-115150000D03*
%TO.P,J1,MH2*%
%TO.N,Net-(J1-PadMH2)*%
X106000000Y-105850000D03*
%TD*%
%TO.P,J6,MH2*%
%TO.N,Net-(J6-PadMH2)*%
X185500000Y-105850000D03*
%TO.P,J6,MH1*%
%TO.N,Net-(J6-PadMH1)*%
X185500000Y-115150000D03*
D13*
%TO.P,J6,E1*%
%TO.N,GND*%
X178500000Y-108000000D03*
%TO.P,J6,D1*%
%TO.N,NAV2_KHZ_SW*%
X178500000Y-113000000D03*
%TO.P,J6,C1*%
%TO.N,GND*%
X193000000Y-110500000D03*
%TO.P,J6,B1*%
%TO.N,/sheet5F71BCD3/B1*%
X193000000Y-108000000D03*
%TO.P,J6,A1*%
%TO.N,/sheet5F71BCD3/A1*%
X193000000Y-113000000D03*
%TD*%
D15*
%TO.P,SW4,2*%
%TO.N,COMM2_XFR*%
X76750000Y-108500000D03*
%TO.P,SW4,1*%
%TO.N,GND*%
X76750000Y-104000000D03*
%TO.P,SW4,2*%
%TO.N,COMM2_XFR*%
X83250000Y-108500000D03*
%TO.P,SW4,1*%
%TO.N,GND*%
X83250000Y-104000000D03*
%TD*%
%TO.P,SW5,1*%
%TO.N,GND*%
X162250000Y-104000000D03*
%TO.P,SW5,2*%
%TO.N,NAV2_XFR*%
X162250000Y-108500000D03*
%TO.P,SW5,1*%
%TO.N,GND*%
X155750000Y-104000000D03*
%TO.P,SW5,2*%
%TO.N,NAV2_XFR*%
X155750000Y-108500000D03*
%TD*%
%TO.P,SW6,2*%
%TO.N,IDENT2_SW*%
X125000000Y-118500000D03*
%TO.P,SW6,1*%
%TO.N,GND*%
X125000000Y-114000000D03*
%TO.P,SW6,2*%
%TO.N,IDENT2_SW*%
X131500000Y-118500000D03*
%TO.P,SW6,1*%
%TO.N,GND*%
X131500000Y-114000000D03*
%TD*%
D11*
%TO.P,U10,14*%
%TO.N,/sheet5F68A9C2/DIG_0*%
X53380000Y-85920000D03*
%TO.P,U10,1*%
%TO.N,/sheet5F68A9C2/SEG_E*%
X53380000Y-96080000D03*
%TO.P,U10,13*%
%TO.N,/sheet5F68A9C2/SEG_A*%
X55920000Y-85920000D03*
%TO.P,U10,2*%
%TO.N,/sheet5F68A9C2/SEG_D*%
X55920000Y-96080000D03*
%TO.P,U10,12*%
%TO.N,/sheet5F68A9C2/SEG_F*%
X58460000Y-85920000D03*
%TO.P,U10,3*%
%TO.N,/sheet5F68A9C2/SEG_DP*%
X58460000Y-96080000D03*
%TO.P,U10,11*%
%TO.N,/sheet5F68A9C2/DIG_1*%
X61000000Y-85920000D03*
%TO.P,U10,4*%
%TO.N,/sheet5F68A9C2/SEG_C*%
X61000000Y-96080000D03*
%TO.P,U10,10*%
%TO.N,/sheet5F68A9C2/DIG_2*%
X63540000Y-85920000D03*
%TO.P,U10,5*%
%TO.N,/sheet5F68A9C2/SEG_G*%
X63540000Y-96080000D03*
%TO.P,U10,9*%
%TO.N,/sheet5F68A9C2/SEG_B*%
X66080000Y-85920000D03*
%TO.P,U10,6*%
%TO.N,/sheet5F68A9C2/DIG_3*%
X66080000Y-96080000D03*
%TO.P,U10,8*%
%TO.N,/sheet5F68A9C2/DIG_4*%
X68620000Y-85920000D03*
%TO.P,U10,7*%
%TO.N,Net-(U10-Pad7)*%
X68620000Y-96080000D03*
%TD*%
%TO.P,U12,7*%
%TO.N,Net-(U12-Pad7)*%
X147620000Y-96080000D03*
%TO.P,U12,8*%
%TO.N,/sheet5F68A9C3/DIG_4*%
X147620000Y-85920000D03*
%TO.P,U12,6*%
%TO.N,/sheet5F68A9C3/DIG_3*%
X145080000Y-96080000D03*
%TO.P,U12,9*%
%TO.N,/sheet5F68A9C3/SEG_B*%
X145080000Y-85920000D03*
%TO.P,U12,5*%
%TO.N,/sheet5F68A9C3/SEG_G*%
X142540000Y-96080000D03*
%TO.P,U12,10*%
%TO.N,/sheet5F68A9C3/DIG_2*%
X142540000Y-85920000D03*
%TO.P,U12,4*%
%TO.N,/sheet5F68A9C3/SEG_C*%
X140000000Y-96080000D03*
%TO.P,U12,11*%
%TO.N,/sheet5F68A9C3/DIG_1*%
X140000000Y-85920000D03*
%TO.P,U12,3*%
%TO.N,/sheet5F68A9C3/SEG_DP*%
X137460000Y-96080000D03*
%TO.P,U12,12*%
%TO.N,/sheet5F68A9C3/SEG_F*%
X137460000Y-85920000D03*
%TO.P,U12,2*%
%TO.N,/sheet5F68A9C3/SEG_D*%
X134920000Y-96080000D03*
%TO.P,U12,13*%
%TO.N,/sheet5F68A9C3/SEG_A*%
X134920000Y-85920000D03*
%TO.P,U12,1*%
%TO.N,/sheet5F68A9C3/SEG_E*%
X132380000Y-96080000D03*
%TO.P,U12,14*%
%TO.N,/sheet5F68A9C3/DIG_0*%
X132380000Y-85920000D03*
%TD*%
%TO.P,U14,7*%
%TO.N,Net-(U14-Pad7)*%
X185620000Y-96080000D03*
%TO.P,U14,8*%
%TO.N,/sheet5F68A9C4/DIG_4*%
X185620000Y-85920000D03*
%TO.P,U14,6*%
%TO.N,/sheet5F68A9C4/DIG_3*%
X183080000Y-96080000D03*
%TO.P,U14,9*%
%TO.N,/sheet5F68A9C4/SEG_B*%
X183080000Y-85920000D03*
%TO.P,U14,5*%
%TO.N,/sheet5F68A9C4/SEG_G*%
X180540000Y-96080000D03*
%TO.P,U14,10*%
%TO.N,/sheet5F68A9C4/DIG_2*%
X180540000Y-85920000D03*
%TO.P,U14,4*%
%TO.N,/sheet5F68A9C4/SEG_C*%
X178000000Y-96080000D03*
%TO.P,U14,11*%
%TO.N,/sheet5F68A9C4/DIG_1*%
X178000000Y-85920000D03*
%TO.P,U14,3*%
%TO.N,/sheet5F68A9C4/SEG_DP*%
X175460000Y-96080000D03*
%TO.P,U14,12*%
%TO.N,/sheet5F68A9C4/SEG_F*%
X175460000Y-85920000D03*
%TO.P,U14,2*%
%TO.N,/sheet5F68A9C4/SEG_D*%
X172920000Y-96080000D03*
%TO.P,U14,13*%
%TO.N,/sheet5F68A9C4/SEG_A*%
X172920000Y-85920000D03*
%TO.P,U14,1*%
%TO.N,/sheet5F68A9C4/SEG_E*%
X170380000Y-96080000D03*
%TO.P,U14,14*%
%TO.N,/sheet5F68A9C4/DIG_0*%
X170380000Y-85920000D03*
%TD*%
%TO.P,U16,14*%
%TO.N,/sheet5F68A9C5/DIG_0*%
X91380000Y-85920000D03*
%TO.P,U16,1*%
%TO.N,/sheet5F68A9C5/SEG_E*%
X91380000Y-96080000D03*
%TO.P,U16,13*%
%TO.N,/sheet5F68A9C5/SEG_A*%
X93920000Y-85920000D03*
%TO.P,U16,2*%
%TO.N,/sheet5F68A9C5/SEG_D*%
X93920000Y-96080000D03*
%TO.P,U16,12*%
%TO.N,/sheet5F68A9C5/SEG_F*%
X96460000Y-85920000D03*
%TO.P,U16,3*%
%TO.N,/sheet5F68A9C5/SEG_DP*%
X96460000Y-96080000D03*
%TO.P,U16,11*%
%TO.N,/sheet5F68A9C5/DIG_1*%
X99000000Y-85920000D03*
%TO.P,U16,4*%
%TO.N,/sheet5F68A9C5/SEG_C*%
X99000000Y-96080000D03*
%TO.P,U16,10*%
%TO.N,/sheet5F68A9C5/DIG_2*%
X101540000Y-85920000D03*
%TO.P,U16,5*%
%TO.N,/sheet5F68A9C5/SEG_G*%
X101540000Y-96080000D03*
%TO.P,U16,9*%
%TO.N,/sheet5F68A9C5/SEG_B*%
X104080000Y-85920000D03*
%TO.P,U16,6*%
%TO.N,/sheet5F68A9C5/DIG_3*%
X104080000Y-96080000D03*
%TO.P,U16,8*%
%TO.N,/sheet5F68A9C5/DIG_4*%
X106620000Y-85920000D03*
%TO.P,U16,7*%
%TO.N,Net-(U16-Pad7)*%
X106620000Y-96080000D03*
%TD*%
D15*
%TO.P,SW7,2*%
%TO.N,RADIO1_SW*%
X43000000Y-68500000D03*
%TO.P,SW7,1*%
%TO.N,GND*%
X43000000Y-64000000D03*
%TO.P,SW7,2*%
%TO.N,RADIO1_SW*%
X49500000Y-68500000D03*
%TO.P,SW7,1*%
%TO.N,GND*%
X49500000Y-64000000D03*
%TD*%
%TO.P,SW8,1*%
%TO.N,GND*%
X49500000Y-114000000D03*
%TO.P,SW8,2*%
%TO.N,RADIO2_SW*%
X49500000Y-118500000D03*
%TO.P,SW8,1*%
%TO.N,GND*%
X43000000Y-114000000D03*
%TO.P,SW8,2*%
%TO.N,RADIO2_SW*%
X43000000Y-118500000D03*
%TD*%
D19*
%TO.P,J5,1*%
%TO.N,CS_LOAD*%
X204500000Y-60000000D03*
D20*
%TO.P,J5,2*%
%TO.N,+5V*%
X201960000Y-60000000D03*
%TO.P,J5,3*%
%TO.N,CLK*%
X204500000Y-62540000D03*
%TO.P,J5,4*%
%TO.N,GND*%
X201960000Y-62540000D03*
%TO.P,J5,5*%
%TO.N,DIN*%
X204500000Y-65080000D03*
%TO.P,J5,6*%
%TO.N,Net-(J5-Pad6)*%
X201960000Y-65080000D03*
%TO.P,J5,7*%
%TO.N,COMM1_LEFT*%
X204500000Y-67620000D03*
%TO.P,J5,8*%
%TO.N,COMM2_LEFT*%
X201960000Y-67620000D03*
%TO.P,J5,9*%
%TO.N,COMM1_RIGHT*%
X204500000Y-70160000D03*
%TO.P,J5,10*%
%TO.N,COMM2_RIGHT*%
X201960000Y-70160000D03*
%TO.P,J5,11*%
%TO.N,COMM1_KHZ_SW*%
X204500000Y-72700000D03*
%TO.P,J5,12*%
%TO.N,COMM2_KHZ_SW*%
X201960000Y-72700000D03*
%TO.P,J5,13*%
%TO.N,COMM1_XFR*%
X204500000Y-75240000D03*
%TO.P,J5,14*%
%TO.N,COMM2_XFR*%
X201960000Y-75240000D03*
%TO.P,J5,15*%
%TO.N,NAV1_LEFT*%
X204500000Y-77780000D03*
%TO.P,J5,16*%
%TO.N,NAV2_LEFT*%
X201960000Y-77780000D03*
%TO.P,J5,17*%
%TO.N,NAV1_RIGHT*%
X204500000Y-80320000D03*
%TO.P,J5,18*%
%TO.N,NAV2_RIGHT*%
X201960000Y-80320000D03*
%TO.P,J5,19*%
%TO.N,NAV1_KHZ_SW*%
X204500000Y-82860000D03*
%TO.P,J5,20*%
%TO.N,NAV2_KHZ_SW*%
X201960000Y-82860000D03*
%TO.P,J5,21*%
%TO.N,NAV1_XFR*%
X204500000Y-85400000D03*
%TO.P,J5,22*%
%TO.N,NAV2_XFR*%
X201960000Y-85400000D03*
%TO.P,J5,23*%
%TO.N,RADIO1_SW*%
X204500000Y-87940000D03*
%TO.P,J5,24*%
%TO.N,RADIO2_SW*%
X201960000Y-87940000D03*
%TO.P,J5,25*%
%TO.N,RADIO1_LED*%
X204500000Y-90480000D03*
%TO.P,J5,26*%
%TO.N,RADIO2_LED*%
X201960000Y-90480000D03*
%TO.P,J5,27*%
%TO.N,IDENT1_SW*%
X204500000Y-93020000D03*
%TO.P,J5,28*%
%TO.N,IDENT2_SW*%
X201960000Y-93020000D03*
%TO.P,J5,29*%
%TO.N,GND*%
X204500000Y-95560000D03*
%TO.P,J5,30*%
X201960000Y-95560000D03*
%TD*%
D21*
%TO.N,+5V*%
X157896600Y-47791300D03*
X160076500Y-97712500D03*
X79865000Y-94008000D03*
X119921000Y-97584100D03*
X111000000Y-118849700D03*
X40909700Y-97577500D03*
X119921300Y-47577500D03*
X78914900Y-47525300D03*
X165000000Y-64161400D03*
X111000000Y-52173900D03*
X111000000Y-102168400D03*
X189500000Y-102131300D03*
X40887200Y-50733700D03*
X189500000Y-52171800D03*
X189500000Y-118831600D03*
X38000000Y-108155700D03*
X109889300Y-67688300D03*
X189500000Y-65172100D03*
X36650000Y-105286600D03*
X36576000Y-102616000D03*
%TO.N,CLK*%
X159900300Y-55446800D03*
X129632600Y-45030900D03*
%TO.N,DIN*%
X62014600Y-44010000D03*
%TO.N,/5 digit LCD display/SEG_B*%
X46325200Y-47137800D03*
%TO.N,/5 digit LCD display/SEG_F*%
X47506600Y-47065600D03*
%TO.N,/sheet5F611637/SEG_B*%
X84374800Y-47183600D03*
%TO.N,/sheet5F611637/SEG_C*%
X79802700Y-44005700D03*
%TO.N,/sheet5F611637/SEG_A*%
X87903800Y-43502600D03*
%TO.N,/sheet5F611637/SEG_F*%
X89565600Y-43969800D03*
%TO.N,/sheet5F613960/SEG_E*%
X116982700Y-47278300D03*
%TO.N,/sheet5F613960/SEG_D*%
X115902900Y-47283800D03*
%TO.N,/sheet5F613960/DIG_4*%
X118203900Y-34691200D03*
%TO.N,/sheet5F613960/DIG_3*%
X124048900Y-38750400D03*
%TO.N,/sheet5F613961/SEG_A*%
X165388300Y-47308900D03*
%TO.N,/sheet5F613961/SEG_F*%
X166388700Y-47313400D03*
%TO.N,NAV1_KHZ_SW*%
X193389500Y-78257600D03*
%TO.N,COMM1_LEFT*%
X136276400Y-64885200D03*
%TO.N,COMM1_RIGHT*%
X152182200Y-67351000D03*
%TO.N,/sheet5F68A9C2/SEG_DP*%
X39205800Y-94000000D03*
%TO.N,/sheet5F68A9C2/SEG_F*%
X47575300Y-94182300D03*
%TO.N,/sheet5F68A9C2/SEG_A*%
X48967100Y-94029500D03*
%TO.N,/sheet5F68A9C2/DIG_3*%
X56625100Y-88464700D03*
%TO.N,/sheet5F68A9C3/SEG_C*%
X118951300Y-98309400D03*
%TO.N,/sheet5F68A9C4/SEG_G*%
X162668500Y-97405300D03*
%TO.N,/sheet5F68A9C4/DIG_3*%
X161391700Y-88068100D03*
%TO.N,/sheet5F68A9C5/SEG_A*%
X87299000Y-93992100D03*
%TO.N,/sheet5F68A9C5/SEG_F*%
X86132300Y-94014200D03*
%TO.N,/sheet5F68A9C5/SEG_B*%
X85012700Y-94003200D03*
%TO.N,/sheet5F68A9C5/SEG_C*%
X78898400Y-97405300D03*
%TO.N,GND*%
X162675000Y-87976000D03*
X192500000Y-52148400D03*
X77537000Y-84674500D03*
X121000000Y-50328500D03*
X36140200Y-109561200D03*
X80000000Y-100331000D03*
X124675000Y-34704000D03*
X114000000Y-118849700D03*
X80000000Y-50339200D03*
X45675000Y-37721900D03*
X41239600Y-100164000D03*
X193630100Y-67755200D03*
X158179500Y-50108000D03*
X83118700Y-84816500D03*
X162675000Y-37978100D03*
X160078600Y-99302700D03*
X156325000Y-84717600D03*
X125264700Y-84852200D03*
X45675000Y-88000200D03*
X39325000Y-84705500D03*
X83675000Y-37987400D03*
X42000000Y-53352600D03*
X115079600Y-67688300D03*
X118325000Y-37989700D03*
X114000000Y-52166800D03*
X77325000Y-34716000D03*
X39952000Y-37888600D03*
X156325000Y-37977200D03*
X118852300Y-84766600D03*
X39350000Y-102710700D03*
X114000000Y-102163000D03*
X192500000Y-118852100D03*
X192500000Y-102161000D03*
X122102500Y-99312500D03*
X35465700Y-101934400D03*
X39370000Y-105156000D03*
%TO.N,CS_LOAD*%
X167419300Y-85812400D03*
X86879100Y-84855900D03*
X129406800Y-86938900D03*
%TO.N,NAV1_XFR*%
X188554700Y-76882800D03*
%TO.N,RADIO1_LED*%
X72709900Y-74439300D03*
%TD*%
D22*
%TO.N,CLK*%
X159900300Y-55446800D02*
X161167400Y-55446800D01*
X161167400Y-55446800D02*
X164970700Y-59250100D01*
X164970700Y-59250100D02*
X195428000Y-59250100D01*
X195428000Y-59250100D02*
X197542600Y-61364700D01*
X197542600Y-61364700D02*
X202516800Y-61364700D01*
X202516800Y-61364700D02*
X203324700Y-62172600D01*
X203324700Y-62172600D02*
X203324700Y-62540000D01*
X129632600Y-45030900D02*
X129908800Y-44754700D01*
X129908800Y-44754700D02*
X132769000Y-44754700D01*
X132769000Y-44754700D02*
X133994600Y-45980300D01*
X133994600Y-45980300D02*
X133994600Y-46933600D01*
X133994600Y-46933600D02*
X142507800Y-55446800D01*
X142507800Y-55446800D02*
X159900300Y-55446800D01*
X204500000Y-62540000D02*
X203324700Y-62540000D01*
%TO.N,DIN*%
X204500000Y-65080000D02*
X203324700Y-65080000D01*
X203324700Y-65080000D02*
X203324700Y-64712600D01*
X203324700Y-64712600D02*
X202516800Y-63904700D01*
X202516800Y-63904700D02*
X197592600Y-63904700D01*
X197592600Y-63904700D02*
X195437900Y-61750000D01*
X195437900Y-61750000D02*
X96072700Y-61750000D01*
X96072700Y-61750000D02*
X78332700Y-44010000D01*
X78332700Y-44010000D02*
X62014600Y-44010000D01*
%TO.N,/5 digit LCD display/SEG_B*%
X46325200Y-47137800D02*
X46978300Y-47790900D01*
X46978300Y-47790900D02*
X49158300Y-47790900D01*
X49158300Y-47790900D02*
X59703900Y-37245300D01*
X59703900Y-37245300D02*
X66080000Y-37245300D01*
X66080000Y-35920000D02*
X66080000Y-37245300D01*
%TO.N,/5 digit LCD display/SEG_F*%
X58460000Y-37245300D02*
X57326900Y-37245300D01*
X57326900Y-37245300D02*
X47506600Y-47065600D01*
X58460000Y-35920000D02*
X58460000Y-37245300D01*
%TO.N,/sheet5F611637/SEG_B*%
X84374800Y-47183600D02*
X87377600Y-47183600D01*
X87377600Y-47183600D02*
X97315900Y-37245300D01*
X97315900Y-37245300D02*
X104080000Y-37245300D01*
X104080000Y-35920000D02*
X104080000Y-37245300D01*
%TO.N,/sheet5F611637/SEG_C*%
X99000000Y-47405300D02*
X98474500Y-47930800D01*
X98474500Y-47930800D02*
X83727800Y-47930800D01*
X83727800Y-47930800D02*
X79802700Y-44005700D01*
X99000000Y-46080000D02*
X99000000Y-47405300D01*
%TO.N,/sheet5F611637/SEG_A*%
X93920000Y-37245300D02*
X87903800Y-43261500D01*
X87903800Y-43261500D02*
X87903800Y-43502600D01*
X93920000Y-35920000D02*
X93920000Y-37245300D01*
%TO.N,/sheet5F611637/SEG_F*%
X96460000Y-37245300D02*
X96290100Y-37245300D01*
X96290100Y-37245300D02*
X89565600Y-43969800D01*
X96460000Y-35920000D02*
X96460000Y-37245300D01*
%TO.N,/sheet5F613960/SEG_E*%
X132380000Y-46080000D02*
X118181000Y-46080000D01*
X118181000Y-46080000D02*
X116982700Y-47278300D01*
%TO.N,/sheet5F613960/SEG_D*%
X134920000Y-44754700D02*
X134469700Y-44304400D01*
X134469700Y-44304400D02*
X118882300Y-44304400D01*
X118882300Y-44304400D02*
X115902900Y-47283800D01*
X134920000Y-46080000D02*
X134920000Y-44754700D01*
%TO.N,/sheet5F613960/DIG_4*%
X147620000Y-34594700D02*
X146983900Y-33958600D01*
X146983900Y-33958600D02*
X118936500Y-33958600D01*
X118936500Y-33958600D02*
X118203900Y-34691200D01*
X147620000Y-35920000D02*
X147620000Y-34594700D01*
%TO.N,/sheet5F613960/DIG_3*%
X145080000Y-44754700D02*
X139075700Y-38750400D01*
X139075700Y-38750400D02*
X124048900Y-38750400D01*
X145080000Y-46080000D02*
X145080000Y-44754700D01*
%TO.N,/sheet5F613961/SEG_A*%
X172920000Y-37245300D02*
X165388300Y-44777000D01*
X165388300Y-44777000D02*
X165388300Y-47308900D01*
X172920000Y-35920000D02*
X172920000Y-37245300D01*
%TO.N,/sheet5F613961/SEG_F*%
X175460000Y-37245300D02*
X166388700Y-46316600D01*
X166388700Y-46316600D02*
X166388700Y-47313400D01*
X175460000Y-35920000D02*
X175460000Y-37245300D01*
%TO.N,COMM1_KHZ_SW*%
X203324700Y-72700000D02*
X203324700Y-72332600D01*
X203324700Y-72332600D02*
X202516800Y-71524700D01*
X202516800Y-71524700D02*
X137811100Y-71524700D01*
X137811100Y-71524700D02*
X132806500Y-66520100D01*
X132806500Y-66520100D02*
X113127000Y-66520100D01*
X113127000Y-66520100D02*
X108907200Y-62300300D01*
X108907200Y-62300300D02*
X99699700Y-62300300D01*
X99699700Y-62300300D02*
X99000000Y-63000000D01*
X204500000Y-72700000D02*
X203324700Y-72700000D01*
%TO.N,NAV1_KHZ_SW*%
X204500000Y-81684700D02*
X204132600Y-81684700D01*
X204132600Y-81684700D02*
X203324700Y-80876800D01*
X203324700Y-80876800D02*
X203324700Y-79983700D01*
X203324700Y-79983700D02*
X202391000Y-79050000D01*
X202391000Y-79050000D02*
X194181900Y-79050000D01*
X194181900Y-79050000D02*
X193389500Y-78257600D01*
X204500000Y-82860000D02*
X204500000Y-81684700D01*
%TO.N,COMM1_LEFT*%
X136276400Y-64885200D02*
X162268500Y-64885200D01*
X162268500Y-64885200D02*
X165361500Y-67978200D01*
X165361500Y-67978200D02*
X189685500Y-67978200D01*
X189685500Y-67978200D02*
X191219000Y-66444700D01*
X191219000Y-66444700D02*
X202516800Y-66444700D01*
X202516800Y-66444700D02*
X203324700Y-67252600D01*
X203324700Y-67252600D02*
X203324700Y-67620000D01*
X204500000Y-67620000D02*
X203324700Y-67620000D01*
%TO.N,COMM1_RIGHT*%
X204500000Y-70160000D02*
X203324700Y-70160000D01*
X152182200Y-67351000D02*
X156392600Y-67351000D01*
X156392600Y-67351000D02*
X158026300Y-68984700D01*
X158026300Y-68984700D02*
X202516800Y-68984700D01*
X202516800Y-68984700D02*
X203324700Y-69792600D01*
X203324700Y-69792600D02*
X203324700Y-70160000D01*
%TO.N,IDENT1_SW*%
X131500000Y-68500000D02*
X125000000Y-68500000D01*
X204500000Y-91844700D02*
X204867300Y-91844700D01*
X204867300Y-91844700D02*
X206163600Y-90548400D01*
X206163600Y-90548400D02*
X206163600Y-80321200D01*
X206163600Y-80321200D02*
X204874500Y-79032100D01*
X204874500Y-79032100D02*
X204001900Y-79032100D01*
X204001900Y-79032100D02*
X203135400Y-78165600D01*
X203135400Y-78165600D02*
X203135400Y-77290600D01*
X203135400Y-77290600D02*
X202449400Y-76604600D01*
X202449400Y-76604600D02*
X195914000Y-76604600D01*
X195914000Y-76604600D02*
X194579800Y-75270400D01*
X194579800Y-75270400D02*
X138270400Y-75270400D01*
X138270400Y-75270400D02*
X131500000Y-68500000D01*
X204500000Y-93020000D02*
X204500000Y-91844700D01*
%TO.N,IDENT2_SW*%
X131500000Y-118500000D02*
X166254300Y-118500000D01*
X166254300Y-118500000D02*
X191734300Y-93020000D01*
X191734300Y-93020000D02*
X201960000Y-93020000D01*
X131500000Y-118500000D02*
X125000000Y-118500000D01*
%TO.N,/sheet5F68A9C2/SEG_DP*%
X39205800Y-94000000D02*
X40410900Y-95205100D01*
X40410900Y-95205100D02*
X51020400Y-95205100D01*
X51020400Y-95205100D02*
X51470800Y-94754700D01*
X51470800Y-94754700D02*
X58460000Y-94754700D01*
X58460000Y-96080000D02*
X58460000Y-94754700D01*
%TO.N,/sheet5F68A9C2/SEG_F*%
X58460000Y-87245300D02*
X56818800Y-87245300D01*
X56818800Y-87245300D02*
X49309300Y-94754800D01*
X49309300Y-94754800D02*
X48147800Y-94754800D01*
X48147800Y-94754800D02*
X47575300Y-94182300D01*
X58460000Y-85920000D02*
X58460000Y-87245300D01*
%TO.N,/sheet5F68A9C2/SEG_A*%
X55920000Y-85920000D02*
X55920000Y-87245300D01*
X55920000Y-87245300D02*
X55751300Y-87245300D01*
X55751300Y-87245300D02*
X48967100Y-94029500D01*
%TO.N,/sheet5F68A9C2/DIG_3*%
X66080000Y-96080000D02*
X66080000Y-94754700D01*
X66080000Y-94754700D02*
X62915100Y-94754700D01*
X62915100Y-94754700D02*
X56625100Y-88464700D01*
%TO.N,/sheet5F68A9C3/SEG_C*%
X118951300Y-98309400D02*
X139095900Y-98309400D01*
X139095900Y-98309400D02*
X140000000Y-97405300D01*
X140000000Y-96080000D02*
X140000000Y-97405300D01*
%TO.N,/sheet5F68A9C4/SEG_G*%
X180540000Y-97405300D02*
X162668500Y-97405300D01*
X180540000Y-96080000D02*
X180540000Y-97405300D01*
%TO.N,/sheet5F68A9C4/DIG_3*%
X183080000Y-94754700D02*
X168078300Y-94754700D01*
X168078300Y-94754700D02*
X161391700Y-88068100D01*
X183080000Y-96080000D02*
X183080000Y-94754700D01*
%TO.N,/sheet5F68A9C5/SEG_A*%
X93920000Y-87245300D02*
X87299000Y-93866300D01*
X87299000Y-93866300D02*
X87299000Y-93992100D01*
X93920000Y-85920000D02*
X93920000Y-87245300D01*
%TO.N,/sheet5F68A9C5/SEG_F*%
X96460000Y-87245300D02*
X95186400Y-87245300D01*
X95186400Y-87245300D02*
X87714300Y-94717400D01*
X87714300Y-94717400D02*
X86835500Y-94717400D01*
X86835500Y-94717400D02*
X86132300Y-94014200D01*
X96460000Y-85920000D02*
X96460000Y-87245300D01*
%TO.N,/sheet5F68A9C5/SEG_B*%
X104080000Y-87245300D02*
X96607900Y-94717400D01*
X96607900Y-94717400D02*
X88669400Y-94717400D01*
X88669400Y-94717400D02*
X88198500Y-95188300D01*
X88198500Y-95188300D02*
X86197800Y-95188300D01*
X86197800Y-95188300D02*
X85012700Y-94003200D01*
X104080000Y-85920000D02*
X104080000Y-87245300D01*
%TO.N,/sheet5F68A9C5/SEG_C*%
X99000000Y-97405300D02*
X78898400Y-97405300D01*
X99000000Y-96080000D02*
X99000000Y-97405300D01*
%TO.N,CS_LOAD*%
X167419300Y-85812400D02*
X165981000Y-87250700D01*
X165981000Y-87250700D02*
X129718600Y-87250700D01*
X129718600Y-87250700D02*
X129406800Y-86938900D01*
X86879100Y-84855900D02*
X87162400Y-84572600D01*
X87162400Y-84572600D02*
X110250800Y-84572600D01*
X110250800Y-84572600D02*
X112617100Y-86938900D01*
X112617100Y-86938900D02*
X129406800Y-86938900D01*
%TO.N,COMM1_XFR*%
X204500000Y-75240000D02*
X203324700Y-75240000D01*
X203324700Y-75240000D02*
X203324700Y-74872600D01*
X203324700Y-74872600D02*
X202516800Y-74064700D01*
X202516800Y-74064700D02*
X139077300Y-74064700D01*
X139077300Y-74064700D02*
X132163500Y-67150900D01*
X132163500Y-67150900D02*
X118267600Y-67150900D01*
X118267600Y-67150900D02*
X116972400Y-68446100D01*
X116972400Y-68446100D02*
X93196100Y-68446100D01*
X93196100Y-68446100D02*
X83250000Y-58500000D01*
X83250000Y-58500000D02*
X76750000Y-58500000D01*
%TO.N,COMM2_XFR*%
X83250000Y-108500000D02*
X76750000Y-108500000D01*
%TO.N,NAV1_XFR*%
X204500000Y-85400000D02*
X203324700Y-85400000D01*
X203324700Y-85400000D02*
X203324700Y-85032600D01*
X203324700Y-85032600D02*
X202516800Y-84224700D01*
X202516800Y-84224700D02*
X195896600Y-84224700D01*
X195896600Y-84224700D02*
X188554700Y-76882800D01*
X155750000Y-58500000D02*
X162250000Y-58500000D01*
%TO.N,NAV2_XFR*%
X162250000Y-108500000D02*
X155750000Y-108500000D01*
%TO.N,RADIO1_SW*%
X49500000Y-68500000D02*
X64005000Y-83005000D01*
X64005000Y-83005000D02*
X186665100Y-83005000D01*
X186665100Y-83005000D02*
X190424800Y-86764700D01*
X190424800Y-86764700D02*
X202516800Y-86764700D01*
X202516800Y-86764700D02*
X203324700Y-87572600D01*
X203324700Y-87572600D02*
X203324700Y-87940000D01*
X204500000Y-87940000D02*
X203324700Y-87940000D01*
X49500000Y-68500000D02*
X43000000Y-68500000D01*
%TO.N,RADIO2_SW*%
X201960000Y-87940000D02*
X195468600Y-87940000D01*
X195468600Y-87940000D02*
X181643700Y-101764900D01*
X181643700Y-101764900D02*
X115424800Y-101764900D01*
X115424800Y-101764900D02*
X98689700Y-118500000D01*
X98689700Y-118500000D02*
X49500000Y-118500000D01*
X49500000Y-118500000D02*
X43000000Y-118500000D01*
%TO.N,RADIO1_LED*%
X72709900Y-74439300D02*
X74428000Y-76157400D01*
X74428000Y-76157400D02*
X74428000Y-76157500D01*
X74428000Y-76157500D02*
X188855200Y-76157500D01*
X188855200Y-76157500D02*
X194193100Y-81495400D01*
X194193100Y-81495400D02*
X202319600Y-81495400D01*
X202319600Y-81495400D02*
X203324500Y-82500300D01*
X203324500Y-82500300D02*
X203324500Y-83356500D01*
X203324500Y-83356500D02*
X204098000Y-84130000D01*
X204098000Y-84130000D02*
X204988000Y-84130000D01*
X204988000Y-84130000D02*
X205680200Y-84822200D01*
X205680200Y-84822200D02*
X205680200Y-88428500D01*
X205680200Y-88428500D02*
X204804000Y-89304700D01*
X204804000Y-89304700D02*
X204500000Y-89304700D01*
X204500000Y-90480000D02*
X204500000Y-89304700D01*
%TD*%
M02*
