%TF.GenerationSoftware,KiCad,Pcbnew,(5.1.6)-1*%
%TF.CreationDate,2020-09-26T19:54:48-07:00*%
%TF.ProjectId,Cessna 172 nav and com radio,43657373-6e61-4203-9137-32206e617620,rev?*%
%TF.SameCoordinates,Original*%
%TF.FileFunction,Copper,L4,Bot*%
%TF.FilePolarity,Positive*%
%FSLAX46Y46*%
G04 Gerber Fmt 4.6, Leading zero omitted, Abs format (unit mm)*
G04 Created by KiCad (PCBNEW (5.1.6)-1) date 2020-09-26 19:54:48*
%MOMM*%
%LPD*%
G01*
G04 APERTURE LIST*
%TA.AperFunction,ComponentPad*%
%ADD10O,1.200000X2.000000*%
%TD*%
%TA.AperFunction,ComponentPad*%
%ADD11C,1.524000*%
%TD*%
%TA.AperFunction,ComponentPad*%
%ADD12C,1.800000*%
%TD*%
%TA.AperFunction,ComponentPad*%
%ADD13R,1.800000X1.800000*%
%TD*%
%TA.AperFunction,ComponentPad*%
%ADD14C,2.000000*%
%TD*%
%TA.AperFunction,SMDPad,CuDef*%
%ADD15R,1.900000X1.500000*%
%TD*%
%TA.AperFunction,ComponentPad*%
%ADD16C,1.450000*%
%TD*%
%TA.AperFunction,SMDPad,CuDef*%
%ADD17R,1.350000X0.400000*%
%TD*%
%TA.AperFunction,ComponentPad*%
%ADD18O,1.900000X1.200000*%
%TD*%
%TA.AperFunction,SMDPad,CuDef*%
%ADD19R,1.900000X1.200000*%
%TD*%
%TA.AperFunction,ComponentPad*%
%ADD20C,4.950000*%
%TD*%
%TA.AperFunction,ComponentPad*%
%ADD21R,1.700000X1.700000*%
%TD*%
%TA.AperFunction,ComponentPad*%
%ADD22O,1.700000X1.700000*%
%TD*%
%TA.AperFunction,ViaPad*%
%ADD23C,0.800000*%
%TD*%
%TA.AperFunction,Conductor*%
%ADD24C,0.400000*%
%TD*%
%TA.AperFunction,Conductor*%
%ADD25C,0.500000*%
%TD*%
%TA.AperFunction,Conductor*%
%ADD26C,0.250000*%
%TD*%
G04 APERTURE END LIST*
%TO.P,U1,24*%
%TO.N,/sheet5F611637/DIN*%
%TA.AperFunction,SMDPad,CuDef*%
G36*
G01*
X35365000Y-47625000D02*
X35665000Y-47625000D01*
G75*
G02*
X35815000Y-47775000I0J-150000D01*
G01*
X35815000Y-49525000D01*
G75*
G02*
X35665000Y-49675000I-150000J0D01*
G01*
X35365000Y-49675000D01*
G75*
G02*
X35215000Y-49525000I0J150000D01*
G01*
X35215000Y-47775000D01*
G75*
G02*
X35365000Y-47625000I150000J0D01*
G01*
G37*
%TD.AperFunction*%
%TO.P,U1,23*%
%TO.N,/5 digit LCD display/SEG_D*%
%TA.AperFunction,SMDPad,CuDef*%
G36*
G01*
X36635000Y-47625000D02*
X36935000Y-47625000D01*
G75*
G02*
X37085000Y-47775000I0J-150000D01*
G01*
X37085000Y-49525000D01*
G75*
G02*
X36935000Y-49675000I-150000J0D01*
G01*
X36635000Y-49675000D01*
G75*
G02*
X36485000Y-49525000I0J150000D01*
G01*
X36485000Y-47775000D01*
G75*
G02*
X36635000Y-47625000I150000J0D01*
G01*
G37*
%TD.AperFunction*%
%TO.P,U1,22*%
%TO.N,/5 digit LCD display/SEG_DP*%
%TA.AperFunction,SMDPad,CuDef*%
G36*
G01*
X37905000Y-47625000D02*
X38205000Y-47625000D01*
G75*
G02*
X38355000Y-47775000I0J-150000D01*
G01*
X38355000Y-49525000D01*
G75*
G02*
X38205000Y-49675000I-150000J0D01*
G01*
X37905000Y-49675000D01*
G75*
G02*
X37755000Y-49525000I0J150000D01*
G01*
X37755000Y-47775000D01*
G75*
G02*
X37905000Y-47625000I150000J0D01*
G01*
G37*
%TD.AperFunction*%
%TO.P,U1,21*%
%TO.N,/5 digit LCD display/SEG_E*%
%TA.AperFunction,SMDPad,CuDef*%
G36*
G01*
X39175000Y-47625000D02*
X39475000Y-47625000D01*
G75*
G02*
X39625000Y-47775000I0J-150000D01*
G01*
X39625000Y-49525000D01*
G75*
G02*
X39475000Y-49675000I-150000J0D01*
G01*
X39175000Y-49675000D01*
G75*
G02*
X39025000Y-49525000I0J150000D01*
G01*
X39025000Y-47775000D01*
G75*
G02*
X39175000Y-47625000I150000J0D01*
G01*
G37*
%TD.AperFunction*%
%TO.P,U1,20*%
%TO.N,/5 digit LCD display/SEG_C*%
%TA.AperFunction,SMDPad,CuDef*%
G36*
G01*
X40445000Y-47625000D02*
X40745000Y-47625000D01*
G75*
G02*
X40895000Y-47775000I0J-150000D01*
G01*
X40895000Y-49525000D01*
G75*
G02*
X40745000Y-49675000I-150000J0D01*
G01*
X40445000Y-49675000D01*
G75*
G02*
X40295000Y-49525000I0J150000D01*
G01*
X40295000Y-47775000D01*
G75*
G02*
X40445000Y-47625000I150000J0D01*
G01*
G37*
%TD.AperFunction*%
%TO.P,U1,19*%
%TO.N,+5V*%
%TA.AperFunction,SMDPad,CuDef*%
G36*
G01*
X41715000Y-47625000D02*
X42015000Y-47625000D01*
G75*
G02*
X42165000Y-47775000I0J-150000D01*
G01*
X42165000Y-49525000D01*
G75*
G02*
X42015000Y-49675000I-150000J0D01*
G01*
X41715000Y-49675000D01*
G75*
G02*
X41565000Y-49525000I0J150000D01*
G01*
X41565000Y-47775000D01*
G75*
G02*
X41715000Y-47625000I150000J0D01*
G01*
G37*
%TD.AperFunction*%
%TO.P,U1,18*%
%TO.N,ISET*%
%TA.AperFunction,SMDPad,CuDef*%
G36*
G01*
X42985000Y-47625000D02*
X43285000Y-47625000D01*
G75*
G02*
X43435000Y-47775000I0J-150000D01*
G01*
X43435000Y-49525000D01*
G75*
G02*
X43285000Y-49675000I-150000J0D01*
G01*
X42985000Y-49675000D01*
G75*
G02*
X42835000Y-49525000I0J150000D01*
G01*
X42835000Y-47775000D01*
G75*
G02*
X42985000Y-47625000I150000J0D01*
G01*
G37*
%TD.AperFunction*%
%TO.P,U1,17*%
%TO.N,/5 digit LCD display/SEG_G*%
%TA.AperFunction,SMDPad,CuDef*%
G36*
G01*
X44255000Y-47625000D02*
X44555000Y-47625000D01*
G75*
G02*
X44705000Y-47775000I0J-150000D01*
G01*
X44705000Y-49525000D01*
G75*
G02*
X44555000Y-49675000I-150000J0D01*
G01*
X44255000Y-49675000D01*
G75*
G02*
X44105000Y-49525000I0J150000D01*
G01*
X44105000Y-47775000D01*
G75*
G02*
X44255000Y-47625000I150000J0D01*
G01*
G37*
%TD.AperFunction*%
%TO.P,U1,16*%
%TO.N,/5 digit LCD display/SEG_B*%
%TA.AperFunction,SMDPad,CuDef*%
G36*
G01*
X45525000Y-47625000D02*
X45825000Y-47625000D01*
G75*
G02*
X45975000Y-47775000I0J-150000D01*
G01*
X45975000Y-49525000D01*
G75*
G02*
X45825000Y-49675000I-150000J0D01*
G01*
X45525000Y-49675000D01*
G75*
G02*
X45375000Y-49525000I0J150000D01*
G01*
X45375000Y-47775000D01*
G75*
G02*
X45525000Y-47625000I150000J0D01*
G01*
G37*
%TD.AperFunction*%
%TO.P,U1,15*%
%TO.N,/5 digit LCD display/SEG_F*%
%TA.AperFunction,SMDPad,CuDef*%
G36*
G01*
X46795000Y-47625000D02*
X47095000Y-47625000D01*
G75*
G02*
X47245000Y-47775000I0J-150000D01*
G01*
X47245000Y-49525000D01*
G75*
G02*
X47095000Y-49675000I-150000J0D01*
G01*
X46795000Y-49675000D01*
G75*
G02*
X46645000Y-49525000I0J150000D01*
G01*
X46645000Y-47775000D01*
G75*
G02*
X46795000Y-47625000I150000J0D01*
G01*
G37*
%TD.AperFunction*%
%TO.P,U1,14*%
%TO.N,/5 digit LCD display/SEG_A*%
%TA.AperFunction,SMDPad,CuDef*%
G36*
G01*
X48065000Y-47625000D02*
X48365000Y-47625000D01*
G75*
G02*
X48515000Y-47775000I0J-150000D01*
G01*
X48515000Y-49525000D01*
G75*
G02*
X48365000Y-49675000I-150000J0D01*
G01*
X48065000Y-49675000D01*
G75*
G02*
X47915000Y-49525000I0J150000D01*
G01*
X47915000Y-47775000D01*
G75*
G02*
X48065000Y-47625000I150000J0D01*
G01*
G37*
%TD.AperFunction*%
%TO.P,U1,13*%
%TO.N,CLK*%
%TA.AperFunction,SMDPad,CuDef*%
G36*
G01*
X49335000Y-47625000D02*
X49635000Y-47625000D01*
G75*
G02*
X49785000Y-47775000I0J-150000D01*
G01*
X49785000Y-49525000D01*
G75*
G02*
X49635000Y-49675000I-150000J0D01*
G01*
X49335000Y-49675000D01*
G75*
G02*
X49185000Y-49525000I0J150000D01*
G01*
X49185000Y-47775000D01*
G75*
G02*
X49335000Y-47625000I150000J0D01*
G01*
G37*
%TD.AperFunction*%
%TO.P,U1,12*%
%TO.N,CS_LOAD*%
%TA.AperFunction,SMDPad,CuDef*%
G36*
G01*
X49335000Y-38325000D02*
X49635000Y-38325000D01*
G75*
G02*
X49785000Y-38475000I0J-150000D01*
G01*
X49785000Y-40225000D01*
G75*
G02*
X49635000Y-40375000I-150000J0D01*
G01*
X49335000Y-40375000D01*
G75*
G02*
X49185000Y-40225000I0J150000D01*
G01*
X49185000Y-38475000D01*
G75*
G02*
X49335000Y-38325000I150000J0D01*
G01*
G37*
%TD.AperFunction*%
%TO.P,U1,11*%
%TO.N,/5 digit LCD display/DIG_1*%
%TA.AperFunction,SMDPad,CuDef*%
G36*
G01*
X48065000Y-38325000D02*
X48365000Y-38325000D01*
G75*
G02*
X48515000Y-38475000I0J-150000D01*
G01*
X48515000Y-40225000D01*
G75*
G02*
X48365000Y-40375000I-150000J0D01*
G01*
X48065000Y-40375000D01*
G75*
G02*
X47915000Y-40225000I0J150000D01*
G01*
X47915000Y-38475000D01*
G75*
G02*
X48065000Y-38325000I150000J0D01*
G01*
G37*
%TD.AperFunction*%
%TO.P,U1,10*%
%TO.N,Net-(U1-Pad10)*%
%TA.AperFunction,SMDPad,CuDef*%
G36*
G01*
X46795000Y-38325000D02*
X47095000Y-38325000D01*
G75*
G02*
X47245000Y-38475000I0J-150000D01*
G01*
X47245000Y-40225000D01*
G75*
G02*
X47095000Y-40375000I-150000J0D01*
G01*
X46795000Y-40375000D01*
G75*
G02*
X46645000Y-40225000I0J150000D01*
G01*
X46645000Y-38475000D01*
G75*
G02*
X46795000Y-38325000I150000J0D01*
G01*
G37*
%TD.AperFunction*%
%TO.P,U1,9*%
%TO.N,GND*%
%TA.AperFunction,SMDPad,CuDef*%
G36*
G01*
X45525000Y-38325000D02*
X45825000Y-38325000D01*
G75*
G02*
X45975000Y-38475000I0J-150000D01*
G01*
X45975000Y-40225000D01*
G75*
G02*
X45825000Y-40375000I-150000J0D01*
G01*
X45525000Y-40375000D01*
G75*
G02*
X45375000Y-40225000I0J150000D01*
G01*
X45375000Y-38475000D01*
G75*
G02*
X45525000Y-38325000I150000J0D01*
G01*
G37*
%TD.AperFunction*%
%TO.P,U1,8*%
%TO.N,Net-(U1-Pad8)*%
%TA.AperFunction,SMDPad,CuDef*%
G36*
G01*
X44255000Y-38325000D02*
X44555000Y-38325000D01*
G75*
G02*
X44705000Y-38475000I0J-150000D01*
G01*
X44705000Y-40225000D01*
G75*
G02*
X44555000Y-40375000I-150000J0D01*
G01*
X44255000Y-40375000D01*
G75*
G02*
X44105000Y-40225000I0J150000D01*
G01*
X44105000Y-38475000D01*
G75*
G02*
X44255000Y-38325000I150000J0D01*
G01*
G37*
%TD.AperFunction*%
%TO.P,U1,7*%
%TO.N,/5 digit LCD display/DIG_3*%
%TA.AperFunction,SMDPad,CuDef*%
G36*
G01*
X42985000Y-38325000D02*
X43285000Y-38325000D01*
G75*
G02*
X43435000Y-38475000I0J-150000D01*
G01*
X43435000Y-40225000D01*
G75*
G02*
X43285000Y-40375000I-150000J0D01*
G01*
X42985000Y-40375000D01*
G75*
G02*
X42835000Y-40225000I0J150000D01*
G01*
X42835000Y-38475000D01*
G75*
G02*
X42985000Y-38325000I150000J0D01*
G01*
G37*
%TD.AperFunction*%
%TO.P,U1,6*%
%TO.N,/5 digit LCD display/DIG_2*%
%TA.AperFunction,SMDPad,CuDef*%
G36*
G01*
X41715000Y-38325000D02*
X42015000Y-38325000D01*
G75*
G02*
X42165000Y-38475000I0J-150000D01*
G01*
X42165000Y-40225000D01*
G75*
G02*
X42015000Y-40375000I-150000J0D01*
G01*
X41715000Y-40375000D01*
G75*
G02*
X41565000Y-40225000I0J150000D01*
G01*
X41565000Y-38475000D01*
G75*
G02*
X41715000Y-38325000I150000J0D01*
G01*
G37*
%TD.AperFunction*%
%TO.P,U1,5*%
%TO.N,Net-(U1-Pad5)*%
%TA.AperFunction,SMDPad,CuDef*%
G36*
G01*
X40445000Y-38325000D02*
X40745000Y-38325000D01*
G75*
G02*
X40895000Y-38475000I0J-150000D01*
G01*
X40895000Y-40225000D01*
G75*
G02*
X40745000Y-40375000I-150000J0D01*
G01*
X40445000Y-40375000D01*
G75*
G02*
X40295000Y-40225000I0J150000D01*
G01*
X40295000Y-38475000D01*
G75*
G02*
X40445000Y-38325000I150000J0D01*
G01*
G37*
%TD.AperFunction*%
%TO.P,U1,4*%
%TO.N,GND*%
%TA.AperFunction,SMDPad,CuDef*%
G36*
G01*
X39175000Y-38325000D02*
X39475000Y-38325000D01*
G75*
G02*
X39625000Y-38475000I0J-150000D01*
G01*
X39625000Y-40225000D01*
G75*
G02*
X39475000Y-40375000I-150000J0D01*
G01*
X39175000Y-40375000D01*
G75*
G02*
X39025000Y-40225000I0J150000D01*
G01*
X39025000Y-38475000D01*
G75*
G02*
X39175000Y-38325000I150000J0D01*
G01*
G37*
%TD.AperFunction*%
%TO.P,U1,3*%
%TO.N,/5 digit LCD display/DIG_4*%
%TA.AperFunction,SMDPad,CuDef*%
G36*
G01*
X37905000Y-38325000D02*
X38205000Y-38325000D01*
G75*
G02*
X38355000Y-38475000I0J-150000D01*
G01*
X38355000Y-40225000D01*
G75*
G02*
X38205000Y-40375000I-150000J0D01*
G01*
X37905000Y-40375000D01*
G75*
G02*
X37755000Y-40225000I0J150000D01*
G01*
X37755000Y-38475000D01*
G75*
G02*
X37905000Y-38325000I150000J0D01*
G01*
G37*
%TD.AperFunction*%
%TO.P,U1,2*%
%TO.N,/5 digit LCD display/DIG_0*%
%TA.AperFunction,SMDPad,CuDef*%
G36*
G01*
X36635000Y-38325000D02*
X36935000Y-38325000D01*
G75*
G02*
X37085000Y-38475000I0J-150000D01*
G01*
X37085000Y-40225000D01*
G75*
G02*
X36935000Y-40375000I-150000J0D01*
G01*
X36635000Y-40375000D01*
G75*
G02*
X36485000Y-40225000I0J150000D01*
G01*
X36485000Y-38475000D01*
G75*
G02*
X36635000Y-38325000I150000J0D01*
G01*
G37*
%TD.AperFunction*%
%TO.P,U1,1*%
%TO.N,DIN*%
%TA.AperFunction,SMDPad,CuDef*%
G36*
G01*
X35365000Y-38325000D02*
X35665000Y-38325000D01*
G75*
G02*
X35815000Y-38475000I0J-150000D01*
G01*
X35815000Y-40225000D01*
G75*
G02*
X35665000Y-40375000I-150000J0D01*
G01*
X35365000Y-40375000D01*
G75*
G02*
X35215000Y-40225000I0J150000D01*
G01*
X35215000Y-38475000D01*
G75*
G02*
X35365000Y-38325000I150000J0D01*
G01*
G37*
%TD.AperFunction*%
%TD*%
%TO.P,U3,24*%
%TO.N,/sheet5F613960/DIN*%
%TA.AperFunction,SMDPad,CuDef*%
G36*
G01*
X73365000Y-44625000D02*
X73665000Y-44625000D01*
G75*
G02*
X73815000Y-44775000I0J-150000D01*
G01*
X73815000Y-46525000D01*
G75*
G02*
X73665000Y-46675000I-150000J0D01*
G01*
X73365000Y-46675000D01*
G75*
G02*
X73215000Y-46525000I0J150000D01*
G01*
X73215000Y-44775000D01*
G75*
G02*
X73365000Y-44625000I150000J0D01*
G01*
G37*
%TD.AperFunction*%
%TO.P,U3,23*%
%TO.N,/sheet5F611637/SEG_D*%
%TA.AperFunction,SMDPad,CuDef*%
G36*
G01*
X74635000Y-44625000D02*
X74935000Y-44625000D01*
G75*
G02*
X75085000Y-44775000I0J-150000D01*
G01*
X75085000Y-46525000D01*
G75*
G02*
X74935000Y-46675000I-150000J0D01*
G01*
X74635000Y-46675000D01*
G75*
G02*
X74485000Y-46525000I0J150000D01*
G01*
X74485000Y-44775000D01*
G75*
G02*
X74635000Y-44625000I150000J0D01*
G01*
G37*
%TD.AperFunction*%
%TO.P,U3,22*%
%TO.N,/sheet5F611637/SEG_DP*%
%TA.AperFunction,SMDPad,CuDef*%
G36*
G01*
X75905000Y-44625000D02*
X76205000Y-44625000D01*
G75*
G02*
X76355000Y-44775000I0J-150000D01*
G01*
X76355000Y-46525000D01*
G75*
G02*
X76205000Y-46675000I-150000J0D01*
G01*
X75905000Y-46675000D01*
G75*
G02*
X75755000Y-46525000I0J150000D01*
G01*
X75755000Y-44775000D01*
G75*
G02*
X75905000Y-44625000I150000J0D01*
G01*
G37*
%TD.AperFunction*%
%TO.P,U3,21*%
%TO.N,/sheet5F611637/SEG_E*%
%TA.AperFunction,SMDPad,CuDef*%
G36*
G01*
X77175000Y-44625000D02*
X77475000Y-44625000D01*
G75*
G02*
X77625000Y-44775000I0J-150000D01*
G01*
X77625000Y-46525000D01*
G75*
G02*
X77475000Y-46675000I-150000J0D01*
G01*
X77175000Y-46675000D01*
G75*
G02*
X77025000Y-46525000I0J150000D01*
G01*
X77025000Y-44775000D01*
G75*
G02*
X77175000Y-44625000I150000J0D01*
G01*
G37*
%TD.AperFunction*%
%TO.P,U3,20*%
%TO.N,/sheet5F611637/SEG_C*%
%TA.AperFunction,SMDPad,CuDef*%
G36*
G01*
X78445000Y-44625000D02*
X78745000Y-44625000D01*
G75*
G02*
X78895000Y-44775000I0J-150000D01*
G01*
X78895000Y-46525000D01*
G75*
G02*
X78745000Y-46675000I-150000J0D01*
G01*
X78445000Y-46675000D01*
G75*
G02*
X78295000Y-46525000I0J150000D01*
G01*
X78295000Y-44775000D01*
G75*
G02*
X78445000Y-44625000I150000J0D01*
G01*
G37*
%TD.AperFunction*%
%TO.P,U3,19*%
%TO.N,+5V*%
%TA.AperFunction,SMDPad,CuDef*%
G36*
G01*
X79715000Y-44625000D02*
X80015000Y-44625000D01*
G75*
G02*
X80165000Y-44775000I0J-150000D01*
G01*
X80165000Y-46525000D01*
G75*
G02*
X80015000Y-46675000I-150000J0D01*
G01*
X79715000Y-46675000D01*
G75*
G02*
X79565000Y-46525000I0J150000D01*
G01*
X79565000Y-44775000D01*
G75*
G02*
X79715000Y-44625000I150000J0D01*
G01*
G37*
%TD.AperFunction*%
%TO.P,U3,18*%
%TO.N,ISET*%
%TA.AperFunction,SMDPad,CuDef*%
G36*
G01*
X80985000Y-44625000D02*
X81285000Y-44625000D01*
G75*
G02*
X81435000Y-44775000I0J-150000D01*
G01*
X81435000Y-46525000D01*
G75*
G02*
X81285000Y-46675000I-150000J0D01*
G01*
X80985000Y-46675000D01*
G75*
G02*
X80835000Y-46525000I0J150000D01*
G01*
X80835000Y-44775000D01*
G75*
G02*
X80985000Y-44625000I150000J0D01*
G01*
G37*
%TD.AperFunction*%
%TO.P,U3,17*%
%TO.N,/sheet5F611637/SEG_G*%
%TA.AperFunction,SMDPad,CuDef*%
G36*
G01*
X82255000Y-44625000D02*
X82555000Y-44625000D01*
G75*
G02*
X82705000Y-44775000I0J-150000D01*
G01*
X82705000Y-46525000D01*
G75*
G02*
X82555000Y-46675000I-150000J0D01*
G01*
X82255000Y-46675000D01*
G75*
G02*
X82105000Y-46525000I0J150000D01*
G01*
X82105000Y-44775000D01*
G75*
G02*
X82255000Y-44625000I150000J0D01*
G01*
G37*
%TD.AperFunction*%
%TO.P,U3,16*%
%TO.N,/sheet5F611637/SEG_B*%
%TA.AperFunction,SMDPad,CuDef*%
G36*
G01*
X83525000Y-44625000D02*
X83825000Y-44625000D01*
G75*
G02*
X83975000Y-44775000I0J-150000D01*
G01*
X83975000Y-46525000D01*
G75*
G02*
X83825000Y-46675000I-150000J0D01*
G01*
X83525000Y-46675000D01*
G75*
G02*
X83375000Y-46525000I0J150000D01*
G01*
X83375000Y-44775000D01*
G75*
G02*
X83525000Y-44625000I150000J0D01*
G01*
G37*
%TD.AperFunction*%
%TO.P,U3,15*%
%TO.N,/sheet5F611637/SEG_F*%
%TA.AperFunction,SMDPad,CuDef*%
G36*
G01*
X84795000Y-44625000D02*
X85095000Y-44625000D01*
G75*
G02*
X85245000Y-44775000I0J-150000D01*
G01*
X85245000Y-46525000D01*
G75*
G02*
X85095000Y-46675000I-150000J0D01*
G01*
X84795000Y-46675000D01*
G75*
G02*
X84645000Y-46525000I0J150000D01*
G01*
X84645000Y-44775000D01*
G75*
G02*
X84795000Y-44625000I150000J0D01*
G01*
G37*
%TD.AperFunction*%
%TO.P,U3,14*%
%TO.N,/sheet5F611637/SEG_A*%
%TA.AperFunction,SMDPad,CuDef*%
G36*
G01*
X86065000Y-44625000D02*
X86365000Y-44625000D01*
G75*
G02*
X86515000Y-44775000I0J-150000D01*
G01*
X86515000Y-46525000D01*
G75*
G02*
X86365000Y-46675000I-150000J0D01*
G01*
X86065000Y-46675000D01*
G75*
G02*
X85915000Y-46525000I0J150000D01*
G01*
X85915000Y-44775000D01*
G75*
G02*
X86065000Y-44625000I150000J0D01*
G01*
G37*
%TD.AperFunction*%
%TO.P,U3,13*%
%TO.N,CLK*%
%TA.AperFunction,SMDPad,CuDef*%
G36*
G01*
X87335000Y-44625000D02*
X87635000Y-44625000D01*
G75*
G02*
X87785000Y-44775000I0J-150000D01*
G01*
X87785000Y-46525000D01*
G75*
G02*
X87635000Y-46675000I-150000J0D01*
G01*
X87335000Y-46675000D01*
G75*
G02*
X87185000Y-46525000I0J150000D01*
G01*
X87185000Y-44775000D01*
G75*
G02*
X87335000Y-44625000I150000J0D01*
G01*
G37*
%TD.AperFunction*%
%TO.P,U3,12*%
%TO.N,CS_LOAD*%
%TA.AperFunction,SMDPad,CuDef*%
G36*
G01*
X87335000Y-35325000D02*
X87635000Y-35325000D01*
G75*
G02*
X87785000Y-35475000I0J-150000D01*
G01*
X87785000Y-37225000D01*
G75*
G02*
X87635000Y-37375000I-150000J0D01*
G01*
X87335000Y-37375000D01*
G75*
G02*
X87185000Y-37225000I0J150000D01*
G01*
X87185000Y-35475000D01*
G75*
G02*
X87335000Y-35325000I150000J0D01*
G01*
G37*
%TD.AperFunction*%
%TO.P,U3,11*%
%TO.N,/sheet5F611637/DIG_1*%
%TA.AperFunction,SMDPad,CuDef*%
G36*
G01*
X86065000Y-35325000D02*
X86365000Y-35325000D01*
G75*
G02*
X86515000Y-35475000I0J-150000D01*
G01*
X86515000Y-37225000D01*
G75*
G02*
X86365000Y-37375000I-150000J0D01*
G01*
X86065000Y-37375000D01*
G75*
G02*
X85915000Y-37225000I0J150000D01*
G01*
X85915000Y-35475000D01*
G75*
G02*
X86065000Y-35325000I150000J0D01*
G01*
G37*
%TD.AperFunction*%
%TO.P,U3,10*%
%TO.N,Net-(U3-Pad10)*%
%TA.AperFunction,SMDPad,CuDef*%
G36*
G01*
X84795000Y-35325000D02*
X85095000Y-35325000D01*
G75*
G02*
X85245000Y-35475000I0J-150000D01*
G01*
X85245000Y-37225000D01*
G75*
G02*
X85095000Y-37375000I-150000J0D01*
G01*
X84795000Y-37375000D01*
G75*
G02*
X84645000Y-37225000I0J150000D01*
G01*
X84645000Y-35475000D01*
G75*
G02*
X84795000Y-35325000I150000J0D01*
G01*
G37*
%TD.AperFunction*%
%TO.P,U3,9*%
%TO.N,GND*%
%TA.AperFunction,SMDPad,CuDef*%
G36*
G01*
X83525000Y-35325000D02*
X83825000Y-35325000D01*
G75*
G02*
X83975000Y-35475000I0J-150000D01*
G01*
X83975000Y-37225000D01*
G75*
G02*
X83825000Y-37375000I-150000J0D01*
G01*
X83525000Y-37375000D01*
G75*
G02*
X83375000Y-37225000I0J150000D01*
G01*
X83375000Y-35475000D01*
G75*
G02*
X83525000Y-35325000I150000J0D01*
G01*
G37*
%TD.AperFunction*%
%TO.P,U3,8*%
%TO.N,Net-(U3-Pad8)*%
%TA.AperFunction,SMDPad,CuDef*%
G36*
G01*
X82255000Y-35325000D02*
X82555000Y-35325000D01*
G75*
G02*
X82705000Y-35475000I0J-150000D01*
G01*
X82705000Y-37225000D01*
G75*
G02*
X82555000Y-37375000I-150000J0D01*
G01*
X82255000Y-37375000D01*
G75*
G02*
X82105000Y-37225000I0J150000D01*
G01*
X82105000Y-35475000D01*
G75*
G02*
X82255000Y-35325000I150000J0D01*
G01*
G37*
%TD.AperFunction*%
%TO.P,U3,7*%
%TO.N,/sheet5F611637/DIG_3*%
%TA.AperFunction,SMDPad,CuDef*%
G36*
G01*
X80985000Y-35325000D02*
X81285000Y-35325000D01*
G75*
G02*
X81435000Y-35475000I0J-150000D01*
G01*
X81435000Y-37225000D01*
G75*
G02*
X81285000Y-37375000I-150000J0D01*
G01*
X80985000Y-37375000D01*
G75*
G02*
X80835000Y-37225000I0J150000D01*
G01*
X80835000Y-35475000D01*
G75*
G02*
X80985000Y-35325000I150000J0D01*
G01*
G37*
%TD.AperFunction*%
%TO.P,U3,6*%
%TO.N,/sheet5F611637/DIG_2*%
%TA.AperFunction,SMDPad,CuDef*%
G36*
G01*
X79715000Y-35325000D02*
X80015000Y-35325000D01*
G75*
G02*
X80165000Y-35475000I0J-150000D01*
G01*
X80165000Y-37225000D01*
G75*
G02*
X80015000Y-37375000I-150000J0D01*
G01*
X79715000Y-37375000D01*
G75*
G02*
X79565000Y-37225000I0J150000D01*
G01*
X79565000Y-35475000D01*
G75*
G02*
X79715000Y-35325000I150000J0D01*
G01*
G37*
%TD.AperFunction*%
%TO.P,U3,5*%
%TO.N,Net-(U3-Pad5)*%
%TA.AperFunction,SMDPad,CuDef*%
G36*
G01*
X78445000Y-35325000D02*
X78745000Y-35325000D01*
G75*
G02*
X78895000Y-35475000I0J-150000D01*
G01*
X78895000Y-37225000D01*
G75*
G02*
X78745000Y-37375000I-150000J0D01*
G01*
X78445000Y-37375000D01*
G75*
G02*
X78295000Y-37225000I0J150000D01*
G01*
X78295000Y-35475000D01*
G75*
G02*
X78445000Y-35325000I150000J0D01*
G01*
G37*
%TD.AperFunction*%
%TO.P,U3,4*%
%TO.N,GND*%
%TA.AperFunction,SMDPad,CuDef*%
G36*
G01*
X77175000Y-35325000D02*
X77475000Y-35325000D01*
G75*
G02*
X77625000Y-35475000I0J-150000D01*
G01*
X77625000Y-37225000D01*
G75*
G02*
X77475000Y-37375000I-150000J0D01*
G01*
X77175000Y-37375000D01*
G75*
G02*
X77025000Y-37225000I0J150000D01*
G01*
X77025000Y-35475000D01*
G75*
G02*
X77175000Y-35325000I150000J0D01*
G01*
G37*
%TD.AperFunction*%
%TO.P,U3,3*%
%TO.N,/sheet5F611637/DIG_4*%
%TA.AperFunction,SMDPad,CuDef*%
G36*
G01*
X75905000Y-35325000D02*
X76205000Y-35325000D01*
G75*
G02*
X76355000Y-35475000I0J-150000D01*
G01*
X76355000Y-37225000D01*
G75*
G02*
X76205000Y-37375000I-150000J0D01*
G01*
X75905000Y-37375000D01*
G75*
G02*
X75755000Y-37225000I0J150000D01*
G01*
X75755000Y-35475000D01*
G75*
G02*
X75905000Y-35325000I150000J0D01*
G01*
G37*
%TD.AperFunction*%
%TO.P,U3,2*%
%TO.N,/sheet5F611637/DIG_0*%
%TA.AperFunction,SMDPad,CuDef*%
G36*
G01*
X74635000Y-35325000D02*
X74935000Y-35325000D01*
G75*
G02*
X75085000Y-35475000I0J-150000D01*
G01*
X75085000Y-37225000D01*
G75*
G02*
X74935000Y-37375000I-150000J0D01*
G01*
X74635000Y-37375000D01*
G75*
G02*
X74485000Y-37225000I0J150000D01*
G01*
X74485000Y-35475000D01*
G75*
G02*
X74635000Y-35325000I150000J0D01*
G01*
G37*
%TD.AperFunction*%
%TO.P,U3,1*%
%TO.N,/sheet5F611637/DIN*%
%TA.AperFunction,SMDPad,CuDef*%
G36*
G01*
X73365000Y-35325000D02*
X73665000Y-35325000D01*
G75*
G02*
X73815000Y-35475000I0J-150000D01*
G01*
X73815000Y-37225000D01*
G75*
G02*
X73665000Y-37375000I-150000J0D01*
G01*
X73365000Y-37375000D01*
G75*
G02*
X73215000Y-37225000I0J150000D01*
G01*
X73215000Y-35475000D01*
G75*
G02*
X73365000Y-35325000I150000J0D01*
G01*
G37*
%TD.AperFunction*%
%TD*%
%TO.P,U7,24*%
%TO.N,/sheet5F68A9C2/DIN*%
%TA.AperFunction,SMDPad,CuDef*%
G36*
G01*
X152365000Y-44625000D02*
X152665000Y-44625000D01*
G75*
G02*
X152815000Y-44775000I0J-150000D01*
G01*
X152815000Y-46525000D01*
G75*
G02*
X152665000Y-46675000I-150000J0D01*
G01*
X152365000Y-46675000D01*
G75*
G02*
X152215000Y-46525000I0J150000D01*
G01*
X152215000Y-44775000D01*
G75*
G02*
X152365000Y-44625000I150000J0D01*
G01*
G37*
%TD.AperFunction*%
%TO.P,U7,23*%
%TO.N,/sheet5F613961/SEG_D*%
%TA.AperFunction,SMDPad,CuDef*%
G36*
G01*
X153635000Y-44625000D02*
X153935000Y-44625000D01*
G75*
G02*
X154085000Y-44775000I0J-150000D01*
G01*
X154085000Y-46525000D01*
G75*
G02*
X153935000Y-46675000I-150000J0D01*
G01*
X153635000Y-46675000D01*
G75*
G02*
X153485000Y-46525000I0J150000D01*
G01*
X153485000Y-44775000D01*
G75*
G02*
X153635000Y-44625000I150000J0D01*
G01*
G37*
%TD.AperFunction*%
%TO.P,U7,22*%
%TO.N,/sheet5F613961/SEG_DP*%
%TA.AperFunction,SMDPad,CuDef*%
G36*
G01*
X154905000Y-44625000D02*
X155205000Y-44625000D01*
G75*
G02*
X155355000Y-44775000I0J-150000D01*
G01*
X155355000Y-46525000D01*
G75*
G02*
X155205000Y-46675000I-150000J0D01*
G01*
X154905000Y-46675000D01*
G75*
G02*
X154755000Y-46525000I0J150000D01*
G01*
X154755000Y-44775000D01*
G75*
G02*
X154905000Y-44625000I150000J0D01*
G01*
G37*
%TD.AperFunction*%
%TO.P,U7,21*%
%TO.N,/sheet5F613961/SEG_E*%
%TA.AperFunction,SMDPad,CuDef*%
G36*
G01*
X156175000Y-44625000D02*
X156475000Y-44625000D01*
G75*
G02*
X156625000Y-44775000I0J-150000D01*
G01*
X156625000Y-46525000D01*
G75*
G02*
X156475000Y-46675000I-150000J0D01*
G01*
X156175000Y-46675000D01*
G75*
G02*
X156025000Y-46525000I0J150000D01*
G01*
X156025000Y-44775000D01*
G75*
G02*
X156175000Y-44625000I150000J0D01*
G01*
G37*
%TD.AperFunction*%
%TO.P,U7,20*%
%TO.N,/sheet5F613961/SEG_C*%
%TA.AperFunction,SMDPad,CuDef*%
G36*
G01*
X157445000Y-44625000D02*
X157745000Y-44625000D01*
G75*
G02*
X157895000Y-44775000I0J-150000D01*
G01*
X157895000Y-46525000D01*
G75*
G02*
X157745000Y-46675000I-150000J0D01*
G01*
X157445000Y-46675000D01*
G75*
G02*
X157295000Y-46525000I0J150000D01*
G01*
X157295000Y-44775000D01*
G75*
G02*
X157445000Y-44625000I150000J0D01*
G01*
G37*
%TD.AperFunction*%
%TO.P,U7,19*%
%TO.N,+5V*%
%TA.AperFunction,SMDPad,CuDef*%
G36*
G01*
X158715000Y-44625000D02*
X159015000Y-44625000D01*
G75*
G02*
X159165000Y-44775000I0J-150000D01*
G01*
X159165000Y-46525000D01*
G75*
G02*
X159015000Y-46675000I-150000J0D01*
G01*
X158715000Y-46675000D01*
G75*
G02*
X158565000Y-46525000I0J150000D01*
G01*
X158565000Y-44775000D01*
G75*
G02*
X158715000Y-44625000I150000J0D01*
G01*
G37*
%TD.AperFunction*%
%TO.P,U7,18*%
%TO.N,ISET*%
%TA.AperFunction,SMDPad,CuDef*%
G36*
G01*
X159985000Y-44625000D02*
X160285000Y-44625000D01*
G75*
G02*
X160435000Y-44775000I0J-150000D01*
G01*
X160435000Y-46525000D01*
G75*
G02*
X160285000Y-46675000I-150000J0D01*
G01*
X159985000Y-46675000D01*
G75*
G02*
X159835000Y-46525000I0J150000D01*
G01*
X159835000Y-44775000D01*
G75*
G02*
X159985000Y-44625000I150000J0D01*
G01*
G37*
%TD.AperFunction*%
%TO.P,U7,17*%
%TO.N,/sheet5F613961/SEG_G*%
%TA.AperFunction,SMDPad,CuDef*%
G36*
G01*
X161255000Y-44625000D02*
X161555000Y-44625000D01*
G75*
G02*
X161705000Y-44775000I0J-150000D01*
G01*
X161705000Y-46525000D01*
G75*
G02*
X161555000Y-46675000I-150000J0D01*
G01*
X161255000Y-46675000D01*
G75*
G02*
X161105000Y-46525000I0J150000D01*
G01*
X161105000Y-44775000D01*
G75*
G02*
X161255000Y-44625000I150000J0D01*
G01*
G37*
%TD.AperFunction*%
%TO.P,U7,16*%
%TO.N,/sheet5F613961/SEG_B*%
%TA.AperFunction,SMDPad,CuDef*%
G36*
G01*
X162525000Y-44625000D02*
X162825000Y-44625000D01*
G75*
G02*
X162975000Y-44775000I0J-150000D01*
G01*
X162975000Y-46525000D01*
G75*
G02*
X162825000Y-46675000I-150000J0D01*
G01*
X162525000Y-46675000D01*
G75*
G02*
X162375000Y-46525000I0J150000D01*
G01*
X162375000Y-44775000D01*
G75*
G02*
X162525000Y-44625000I150000J0D01*
G01*
G37*
%TD.AperFunction*%
%TO.P,U7,15*%
%TO.N,/sheet5F613961/SEG_F*%
%TA.AperFunction,SMDPad,CuDef*%
G36*
G01*
X163795000Y-44625000D02*
X164095000Y-44625000D01*
G75*
G02*
X164245000Y-44775000I0J-150000D01*
G01*
X164245000Y-46525000D01*
G75*
G02*
X164095000Y-46675000I-150000J0D01*
G01*
X163795000Y-46675000D01*
G75*
G02*
X163645000Y-46525000I0J150000D01*
G01*
X163645000Y-44775000D01*
G75*
G02*
X163795000Y-44625000I150000J0D01*
G01*
G37*
%TD.AperFunction*%
%TO.P,U7,14*%
%TO.N,/sheet5F613961/SEG_A*%
%TA.AperFunction,SMDPad,CuDef*%
G36*
G01*
X165065000Y-44625000D02*
X165365000Y-44625000D01*
G75*
G02*
X165515000Y-44775000I0J-150000D01*
G01*
X165515000Y-46525000D01*
G75*
G02*
X165365000Y-46675000I-150000J0D01*
G01*
X165065000Y-46675000D01*
G75*
G02*
X164915000Y-46525000I0J150000D01*
G01*
X164915000Y-44775000D01*
G75*
G02*
X165065000Y-44625000I150000J0D01*
G01*
G37*
%TD.AperFunction*%
%TO.P,U7,13*%
%TO.N,CLK*%
%TA.AperFunction,SMDPad,CuDef*%
G36*
G01*
X166335000Y-44625000D02*
X166635000Y-44625000D01*
G75*
G02*
X166785000Y-44775000I0J-150000D01*
G01*
X166785000Y-46525000D01*
G75*
G02*
X166635000Y-46675000I-150000J0D01*
G01*
X166335000Y-46675000D01*
G75*
G02*
X166185000Y-46525000I0J150000D01*
G01*
X166185000Y-44775000D01*
G75*
G02*
X166335000Y-44625000I150000J0D01*
G01*
G37*
%TD.AperFunction*%
%TO.P,U7,12*%
%TO.N,CS_LOAD*%
%TA.AperFunction,SMDPad,CuDef*%
G36*
G01*
X166335000Y-35325000D02*
X166635000Y-35325000D01*
G75*
G02*
X166785000Y-35475000I0J-150000D01*
G01*
X166785000Y-37225000D01*
G75*
G02*
X166635000Y-37375000I-150000J0D01*
G01*
X166335000Y-37375000D01*
G75*
G02*
X166185000Y-37225000I0J150000D01*
G01*
X166185000Y-35475000D01*
G75*
G02*
X166335000Y-35325000I150000J0D01*
G01*
G37*
%TD.AperFunction*%
%TO.P,U7,11*%
%TO.N,/sheet5F613961/DIG_1*%
%TA.AperFunction,SMDPad,CuDef*%
G36*
G01*
X165065000Y-35325000D02*
X165365000Y-35325000D01*
G75*
G02*
X165515000Y-35475000I0J-150000D01*
G01*
X165515000Y-37225000D01*
G75*
G02*
X165365000Y-37375000I-150000J0D01*
G01*
X165065000Y-37375000D01*
G75*
G02*
X164915000Y-37225000I0J150000D01*
G01*
X164915000Y-35475000D01*
G75*
G02*
X165065000Y-35325000I150000J0D01*
G01*
G37*
%TD.AperFunction*%
%TO.P,U7,10*%
%TO.N,Net-(U7-Pad10)*%
%TA.AperFunction,SMDPad,CuDef*%
G36*
G01*
X163795000Y-35325000D02*
X164095000Y-35325000D01*
G75*
G02*
X164245000Y-35475000I0J-150000D01*
G01*
X164245000Y-37225000D01*
G75*
G02*
X164095000Y-37375000I-150000J0D01*
G01*
X163795000Y-37375000D01*
G75*
G02*
X163645000Y-37225000I0J150000D01*
G01*
X163645000Y-35475000D01*
G75*
G02*
X163795000Y-35325000I150000J0D01*
G01*
G37*
%TD.AperFunction*%
%TO.P,U7,9*%
%TO.N,GND*%
%TA.AperFunction,SMDPad,CuDef*%
G36*
G01*
X162525000Y-35325000D02*
X162825000Y-35325000D01*
G75*
G02*
X162975000Y-35475000I0J-150000D01*
G01*
X162975000Y-37225000D01*
G75*
G02*
X162825000Y-37375000I-150000J0D01*
G01*
X162525000Y-37375000D01*
G75*
G02*
X162375000Y-37225000I0J150000D01*
G01*
X162375000Y-35475000D01*
G75*
G02*
X162525000Y-35325000I150000J0D01*
G01*
G37*
%TD.AperFunction*%
%TO.P,U7,8*%
%TO.N,Net-(U7-Pad8)*%
%TA.AperFunction,SMDPad,CuDef*%
G36*
G01*
X161255000Y-35325000D02*
X161555000Y-35325000D01*
G75*
G02*
X161705000Y-35475000I0J-150000D01*
G01*
X161705000Y-37225000D01*
G75*
G02*
X161555000Y-37375000I-150000J0D01*
G01*
X161255000Y-37375000D01*
G75*
G02*
X161105000Y-37225000I0J150000D01*
G01*
X161105000Y-35475000D01*
G75*
G02*
X161255000Y-35325000I150000J0D01*
G01*
G37*
%TD.AperFunction*%
%TO.P,U7,7*%
%TO.N,/sheet5F613961/DIG_3*%
%TA.AperFunction,SMDPad,CuDef*%
G36*
G01*
X159985000Y-35325000D02*
X160285000Y-35325000D01*
G75*
G02*
X160435000Y-35475000I0J-150000D01*
G01*
X160435000Y-37225000D01*
G75*
G02*
X160285000Y-37375000I-150000J0D01*
G01*
X159985000Y-37375000D01*
G75*
G02*
X159835000Y-37225000I0J150000D01*
G01*
X159835000Y-35475000D01*
G75*
G02*
X159985000Y-35325000I150000J0D01*
G01*
G37*
%TD.AperFunction*%
%TO.P,U7,6*%
%TO.N,/sheet5F613961/DIG_2*%
%TA.AperFunction,SMDPad,CuDef*%
G36*
G01*
X158715000Y-35325000D02*
X159015000Y-35325000D01*
G75*
G02*
X159165000Y-35475000I0J-150000D01*
G01*
X159165000Y-37225000D01*
G75*
G02*
X159015000Y-37375000I-150000J0D01*
G01*
X158715000Y-37375000D01*
G75*
G02*
X158565000Y-37225000I0J150000D01*
G01*
X158565000Y-35475000D01*
G75*
G02*
X158715000Y-35325000I150000J0D01*
G01*
G37*
%TD.AperFunction*%
%TO.P,U7,5*%
%TO.N,Net-(U7-Pad5)*%
%TA.AperFunction,SMDPad,CuDef*%
G36*
G01*
X157445000Y-35325000D02*
X157745000Y-35325000D01*
G75*
G02*
X157895000Y-35475000I0J-150000D01*
G01*
X157895000Y-37225000D01*
G75*
G02*
X157745000Y-37375000I-150000J0D01*
G01*
X157445000Y-37375000D01*
G75*
G02*
X157295000Y-37225000I0J150000D01*
G01*
X157295000Y-35475000D01*
G75*
G02*
X157445000Y-35325000I150000J0D01*
G01*
G37*
%TD.AperFunction*%
%TO.P,U7,4*%
%TO.N,GND*%
%TA.AperFunction,SMDPad,CuDef*%
G36*
G01*
X156175000Y-35325000D02*
X156475000Y-35325000D01*
G75*
G02*
X156625000Y-35475000I0J-150000D01*
G01*
X156625000Y-37225000D01*
G75*
G02*
X156475000Y-37375000I-150000J0D01*
G01*
X156175000Y-37375000D01*
G75*
G02*
X156025000Y-37225000I0J150000D01*
G01*
X156025000Y-35475000D01*
G75*
G02*
X156175000Y-35325000I150000J0D01*
G01*
G37*
%TD.AperFunction*%
%TO.P,U7,3*%
%TO.N,/sheet5F613961/DIG_4*%
%TA.AperFunction,SMDPad,CuDef*%
G36*
G01*
X154905000Y-35325000D02*
X155205000Y-35325000D01*
G75*
G02*
X155355000Y-35475000I0J-150000D01*
G01*
X155355000Y-37225000D01*
G75*
G02*
X155205000Y-37375000I-150000J0D01*
G01*
X154905000Y-37375000D01*
G75*
G02*
X154755000Y-37225000I0J150000D01*
G01*
X154755000Y-35475000D01*
G75*
G02*
X154905000Y-35325000I150000J0D01*
G01*
G37*
%TD.AperFunction*%
%TO.P,U7,2*%
%TO.N,/sheet5F613961/DIG_0*%
%TA.AperFunction,SMDPad,CuDef*%
G36*
G01*
X153635000Y-35325000D02*
X153935000Y-35325000D01*
G75*
G02*
X154085000Y-35475000I0J-150000D01*
G01*
X154085000Y-37225000D01*
G75*
G02*
X153935000Y-37375000I-150000J0D01*
G01*
X153635000Y-37375000D01*
G75*
G02*
X153485000Y-37225000I0J150000D01*
G01*
X153485000Y-35475000D01*
G75*
G02*
X153635000Y-35325000I150000J0D01*
G01*
G37*
%TD.AperFunction*%
%TO.P,U7,1*%
%TO.N,/sheet5F613961/DIN*%
%TA.AperFunction,SMDPad,CuDef*%
G36*
G01*
X152365000Y-35325000D02*
X152665000Y-35325000D01*
G75*
G02*
X152815000Y-35475000I0J-150000D01*
G01*
X152815000Y-37225000D01*
G75*
G02*
X152665000Y-37375000I-150000J0D01*
G01*
X152365000Y-37375000D01*
G75*
G02*
X152215000Y-37225000I0J150000D01*
G01*
X152215000Y-35475000D01*
G75*
G02*
X152365000Y-35325000I150000J0D01*
G01*
G37*
%TD.AperFunction*%
%TD*%
%TO.P,U9,24*%
%TO.N,/sheet5F68A9C5/DIN*%
%TA.AperFunction,SMDPad,CuDef*%
G36*
G01*
X35365000Y-94625000D02*
X35665000Y-94625000D01*
G75*
G02*
X35815000Y-94775000I0J-150000D01*
G01*
X35815000Y-96525000D01*
G75*
G02*
X35665000Y-96675000I-150000J0D01*
G01*
X35365000Y-96675000D01*
G75*
G02*
X35215000Y-96525000I0J150000D01*
G01*
X35215000Y-94775000D01*
G75*
G02*
X35365000Y-94625000I150000J0D01*
G01*
G37*
%TD.AperFunction*%
%TO.P,U9,23*%
%TO.N,/sheet5F68A9C2/SEG_D*%
%TA.AperFunction,SMDPad,CuDef*%
G36*
G01*
X36635000Y-94625000D02*
X36935000Y-94625000D01*
G75*
G02*
X37085000Y-94775000I0J-150000D01*
G01*
X37085000Y-96525000D01*
G75*
G02*
X36935000Y-96675000I-150000J0D01*
G01*
X36635000Y-96675000D01*
G75*
G02*
X36485000Y-96525000I0J150000D01*
G01*
X36485000Y-94775000D01*
G75*
G02*
X36635000Y-94625000I150000J0D01*
G01*
G37*
%TD.AperFunction*%
%TO.P,U9,22*%
%TO.N,/sheet5F68A9C2/SEG_DP*%
%TA.AperFunction,SMDPad,CuDef*%
G36*
G01*
X37905000Y-94625000D02*
X38205000Y-94625000D01*
G75*
G02*
X38355000Y-94775000I0J-150000D01*
G01*
X38355000Y-96525000D01*
G75*
G02*
X38205000Y-96675000I-150000J0D01*
G01*
X37905000Y-96675000D01*
G75*
G02*
X37755000Y-96525000I0J150000D01*
G01*
X37755000Y-94775000D01*
G75*
G02*
X37905000Y-94625000I150000J0D01*
G01*
G37*
%TD.AperFunction*%
%TO.P,U9,21*%
%TO.N,/sheet5F68A9C2/SEG_E*%
%TA.AperFunction,SMDPad,CuDef*%
G36*
G01*
X39175000Y-94625000D02*
X39475000Y-94625000D01*
G75*
G02*
X39625000Y-94775000I0J-150000D01*
G01*
X39625000Y-96525000D01*
G75*
G02*
X39475000Y-96675000I-150000J0D01*
G01*
X39175000Y-96675000D01*
G75*
G02*
X39025000Y-96525000I0J150000D01*
G01*
X39025000Y-94775000D01*
G75*
G02*
X39175000Y-94625000I150000J0D01*
G01*
G37*
%TD.AperFunction*%
%TO.P,U9,20*%
%TO.N,/sheet5F68A9C2/SEG_C*%
%TA.AperFunction,SMDPad,CuDef*%
G36*
G01*
X40445000Y-94625000D02*
X40745000Y-94625000D01*
G75*
G02*
X40895000Y-94775000I0J-150000D01*
G01*
X40895000Y-96525000D01*
G75*
G02*
X40745000Y-96675000I-150000J0D01*
G01*
X40445000Y-96675000D01*
G75*
G02*
X40295000Y-96525000I0J150000D01*
G01*
X40295000Y-94775000D01*
G75*
G02*
X40445000Y-94625000I150000J0D01*
G01*
G37*
%TD.AperFunction*%
%TO.P,U9,19*%
%TO.N,+5V*%
%TA.AperFunction,SMDPad,CuDef*%
G36*
G01*
X41715000Y-94625000D02*
X42015000Y-94625000D01*
G75*
G02*
X42165000Y-94775000I0J-150000D01*
G01*
X42165000Y-96525000D01*
G75*
G02*
X42015000Y-96675000I-150000J0D01*
G01*
X41715000Y-96675000D01*
G75*
G02*
X41565000Y-96525000I0J150000D01*
G01*
X41565000Y-94775000D01*
G75*
G02*
X41715000Y-94625000I150000J0D01*
G01*
G37*
%TD.AperFunction*%
%TO.P,U9,18*%
%TO.N,ISET*%
%TA.AperFunction,SMDPad,CuDef*%
G36*
G01*
X42985000Y-94625000D02*
X43285000Y-94625000D01*
G75*
G02*
X43435000Y-94775000I0J-150000D01*
G01*
X43435000Y-96525000D01*
G75*
G02*
X43285000Y-96675000I-150000J0D01*
G01*
X42985000Y-96675000D01*
G75*
G02*
X42835000Y-96525000I0J150000D01*
G01*
X42835000Y-94775000D01*
G75*
G02*
X42985000Y-94625000I150000J0D01*
G01*
G37*
%TD.AperFunction*%
%TO.P,U9,17*%
%TO.N,/sheet5F68A9C2/SEG_G*%
%TA.AperFunction,SMDPad,CuDef*%
G36*
G01*
X44255000Y-94625000D02*
X44555000Y-94625000D01*
G75*
G02*
X44705000Y-94775000I0J-150000D01*
G01*
X44705000Y-96525000D01*
G75*
G02*
X44555000Y-96675000I-150000J0D01*
G01*
X44255000Y-96675000D01*
G75*
G02*
X44105000Y-96525000I0J150000D01*
G01*
X44105000Y-94775000D01*
G75*
G02*
X44255000Y-94625000I150000J0D01*
G01*
G37*
%TD.AperFunction*%
%TO.P,U9,16*%
%TO.N,/sheet5F68A9C2/SEG_B*%
%TA.AperFunction,SMDPad,CuDef*%
G36*
G01*
X45525000Y-94625000D02*
X45825000Y-94625000D01*
G75*
G02*
X45975000Y-94775000I0J-150000D01*
G01*
X45975000Y-96525000D01*
G75*
G02*
X45825000Y-96675000I-150000J0D01*
G01*
X45525000Y-96675000D01*
G75*
G02*
X45375000Y-96525000I0J150000D01*
G01*
X45375000Y-94775000D01*
G75*
G02*
X45525000Y-94625000I150000J0D01*
G01*
G37*
%TD.AperFunction*%
%TO.P,U9,15*%
%TO.N,/sheet5F68A9C2/SEG_F*%
%TA.AperFunction,SMDPad,CuDef*%
G36*
G01*
X46795000Y-94625000D02*
X47095000Y-94625000D01*
G75*
G02*
X47245000Y-94775000I0J-150000D01*
G01*
X47245000Y-96525000D01*
G75*
G02*
X47095000Y-96675000I-150000J0D01*
G01*
X46795000Y-96675000D01*
G75*
G02*
X46645000Y-96525000I0J150000D01*
G01*
X46645000Y-94775000D01*
G75*
G02*
X46795000Y-94625000I150000J0D01*
G01*
G37*
%TD.AperFunction*%
%TO.P,U9,14*%
%TO.N,/sheet5F68A9C2/SEG_A*%
%TA.AperFunction,SMDPad,CuDef*%
G36*
G01*
X48065000Y-94625000D02*
X48365000Y-94625000D01*
G75*
G02*
X48515000Y-94775000I0J-150000D01*
G01*
X48515000Y-96525000D01*
G75*
G02*
X48365000Y-96675000I-150000J0D01*
G01*
X48065000Y-96675000D01*
G75*
G02*
X47915000Y-96525000I0J150000D01*
G01*
X47915000Y-94775000D01*
G75*
G02*
X48065000Y-94625000I150000J0D01*
G01*
G37*
%TD.AperFunction*%
%TO.P,U9,13*%
%TO.N,CLK*%
%TA.AperFunction,SMDPad,CuDef*%
G36*
G01*
X49335000Y-94625000D02*
X49635000Y-94625000D01*
G75*
G02*
X49785000Y-94775000I0J-150000D01*
G01*
X49785000Y-96525000D01*
G75*
G02*
X49635000Y-96675000I-150000J0D01*
G01*
X49335000Y-96675000D01*
G75*
G02*
X49185000Y-96525000I0J150000D01*
G01*
X49185000Y-94775000D01*
G75*
G02*
X49335000Y-94625000I150000J0D01*
G01*
G37*
%TD.AperFunction*%
%TO.P,U9,12*%
%TO.N,CS_LOAD*%
%TA.AperFunction,SMDPad,CuDef*%
G36*
G01*
X49335000Y-85325000D02*
X49635000Y-85325000D01*
G75*
G02*
X49785000Y-85475000I0J-150000D01*
G01*
X49785000Y-87225000D01*
G75*
G02*
X49635000Y-87375000I-150000J0D01*
G01*
X49335000Y-87375000D01*
G75*
G02*
X49185000Y-87225000I0J150000D01*
G01*
X49185000Y-85475000D01*
G75*
G02*
X49335000Y-85325000I150000J0D01*
G01*
G37*
%TD.AperFunction*%
%TO.P,U9,11*%
%TO.N,/sheet5F68A9C2/DIG_1*%
%TA.AperFunction,SMDPad,CuDef*%
G36*
G01*
X48065000Y-85325000D02*
X48365000Y-85325000D01*
G75*
G02*
X48515000Y-85475000I0J-150000D01*
G01*
X48515000Y-87225000D01*
G75*
G02*
X48365000Y-87375000I-150000J0D01*
G01*
X48065000Y-87375000D01*
G75*
G02*
X47915000Y-87225000I0J150000D01*
G01*
X47915000Y-85475000D01*
G75*
G02*
X48065000Y-85325000I150000J0D01*
G01*
G37*
%TD.AperFunction*%
%TO.P,U9,10*%
%TO.N,Net-(U9-Pad10)*%
%TA.AperFunction,SMDPad,CuDef*%
G36*
G01*
X46795000Y-85325000D02*
X47095000Y-85325000D01*
G75*
G02*
X47245000Y-85475000I0J-150000D01*
G01*
X47245000Y-87225000D01*
G75*
G02*
X47095000Y-87375000I-150000J0D01*
G01*
X46795000Y-87375000D01*
G75*
G02*
X46645000Y-87225000I0J150000D01*
G01*
X46645000Y-85475000D01*
G75*
G02*
X46795000Y-85325000I150000J0D01*
G01*
G37*
%TD.AperFunction*%
%TO.P,U9,9*%
%TO.N,GND*%
%TA.AperFunction,SMDPad,CuDef*%
G36*
G01*
X45525000Y-85325000D02*
X45825000Y-85325000D01*
G75*
G02*
X45975000Y-85475000I0J-150000D01*
G01*
X45975000Y-87225000D01*
G75*
G02*
X45825000Y-87375000I-150000J0D01*
G01*
X45525000Y-87375000D01*
G75*
G02*
X45375000Y-87225000I0J150000D01*
G01*
X45375000Y-85475000D01*
G75*
G02*
X45525000Y-85325000I150000J0D01*
G01*
G37*
%TD.AperFunction*%
%TO.P,U9,8*%
%TO.N,Net-(U9-Pad8)*%
%TA.AperFunction,SMDPad,CuDef*%
G36*
G01*
X44255000Y-85325000D02*
X44555000Y-85325000D01*
G75*
G02*
X44705000Y-85475000I0J-150000D01*
G01*
X44705000Y-87225000D01*
G75*
G02*
X44555000Y-87375000I-150000J0D01*
G01*
X44255000Y-87375000D01*
G75*
G02*
X44105000Y-87225000I0J150000D01*
G01*
X44105000Y-85475000D01*
G75*
G02*
X44255000Y-85325000I150000J0D01*
G01*
G37*
%TD.AperFunction*%
%TO.P,U9,7*%
%TO.N,/sheet5F68A9C2/DIG_3*%
%TA.AperFunction,SMDPad,CuDef*%
G36*
G01*
X42985000Y-85325000D02*
X43285000Y-85325000D01*
G75*
G02*
X43435000Y-85475000I0J-150000D01*
G01*
X43435000Y-87225000D01*
G75*
G02*
X43285000Y-87375000I-150000J0D01*
G01*
X42985000Y-87375000D01*
G75*
G02*
X42835000Y-87225000I0J150000D01*
G01*
X42835000Y-85475000D01*
G75*
G02*
X42985000Y-85325000I150000J0D01*
G01*
G37*
%TD.AperFunction*%
%TO.P,U9,6*%
%TO.N,/sheet5F68A9C2/DIG_2*%
%TA.AperFunction,SMDPad,CuDef*%
G36*
G01*
X41715000Y-85325000D02*
X42015000Y-85325000D01*
G75*
G02*
X42165000Y-85475000I0J-150000D01*
G01*
X42165000Y-87225000D01*
G75*
G02*
X42015000Y-87375000I-150000J0D01*
G01*
X41715000Y-87375000D01*
G75*
G02*
X41565000Y-87225000I0J150000D01*
G01*
X41565000Y-85475000D01*
G75*
G02*
X41715000Y-85325000I150000J0D01*
G01*
G37*
%TD.AperFunction*%
%TO.P,U9,5*%
%TO.N,Net-(U9-Pad5)*%
%TA.AperFunction,SMDPad,CuDef*%
G36*
G01*
X40445000Y-85325000D02*
X40745000Y-85325000D01*
G75*
G02*
X40895000Y-85475000I0J-150000D01*
G01*
X40895000Y-87225000D01*
G75*
G02*
X40745000Y-87375000I-150000J0D01*
G01*
X40445000Y-87375000D01*
G75*
G02*
X40295000Y-87225000I0J150000D01*
G01*
X40295000Y-85475000D01*
G75*
G02*
X40445000Y-85325000I150000J0D01*
G01*
G37*
%TD.AperFunction*%
%TO.P,U9,4*%
%TO.N,GND*%
%TA.AperFunction,SMDPad,CuDef*%
G36*
G01*
X39175000Y-85325000D02*
X39475000Y-85325000D01*
G75*
G02*
X39625000Y-85475000I0J-150000D01*
G01*
X39625000Y-87225000D01*
G75*
G02*
X39475000Y-87375000I-150000J0D01*
G01*
X39175000Y-87375000D01*
G75*
G02*
X39025000Y-87225000I0J150000D01*
G01*
X39025000Y-85475000D01*
G75*
G02*
X39175000Y-85325000I150000J0D01*
G01*
G37*
%TD.AperFunction*%
%TO.P,U9,3*%
%TO.N,/sheet5F68A9C2/DIG_4*%
%TA.AperFunction,SMDPad,CuDef*%
G36*
G01*
X37905000Y-85325000D02*
X38205000Y-85325000D01*
G75*
G02*
X38355000Y-85475000I0J-150000D01*
G01*
X38355000Y-87225000D01*
G75*
G02*
X38205000Y-87375000I-150000J0D01*
G01*
X37905000Y-87375000D01*
G75*
G02*
X37755000Y-87225000I0J150000D01*
G01*
X37755000Y-85475000D01*
G75*
G02*
X37905000Y-85325000I150000J0D01*
G01*
G37*
%TD.AperFunction*%
%TO.P,U9,2*%
%TO.N,/sheet5F68A9C2/DIG_0*%
%TA.AperFunction,SMDPad,CuDef*%
G36*
G01*
X36635000Y-85325000D02*
X36935000Y-85325000D01*
G75*
G02*
X37085000Y-85475000I0J-150000D01*
G01*
X37085000Y-87225000D01*
G75*
G02*
X36935000Y-87375000I-150000J0D01*
G01*
X36635000Y-87375000D01*
G75*
G02*
X36485000Y-87225000I0J150000D01*
G01*
X36485000Y-85475000D01*
G75*
G02*
X36635000Y-85325000I150000J0D01*
G01*
G37*
%TD.AperFunction*%
%TO.P,U9,1*%
%TO.N,/sheet5F68A9C2/DIN*%
%TA.AperFunction,SMDPad,CuDef*%
G36*
G01*
X35365000Y-85325000D02*
X35665000Y-85325000D01*
G75*
G02*
X35815000Y-85475000I0J-150000D01*
G01*
X35815000Y-87225000D01*
G75*
G02*
X35665000Y-87375000I-150000J0D01*
G01*
X35365000Y-87375000D01*
G75*
G02*
X35215000Y-87225000I0J150000D01*
G01*
X35215000Y-85475000D01*
G75*
G02*
X35365000Y-85325000I150000J0D01*
G01*
G37*
%TD.AperFunction*%
%TD*%
%TO.P,U11,24*%
%TO.N,/sheet5F68A9C4/DIN*%
%TA.AperFunction,SMDPad,CuDef*%
G36*
G01*
X114365000Y-94625000D02*
X114665000Y-94625000D01*
G75*
G02*
X114815000Y-94775000I0J-150000D01*
G01*
X114815000Y-96525000D01*
G75*
G02*
X114665000Y-96675000I-150000J0D01*
G01*
X114365000Y-96675000D01*
G75*
G02*
X114215000Y-96525000I0J150000D01*
G01*
X114215000Y-94775000D01*
G75*
G02*
X114365000Y-94625000I150000J0D01*
G01*
G37*
%TD.AperFunction*%
%TO.P,U11,23*%
%TO.N,/sheet5F68A9C3/SEG_D*%
%TA.AperFunction,SMDPad,CuDef*%
G36*
G01*
X115635000Y-94625000D02*
X115935000Y-94625000D01*
G75*
G02*
X116085000Y-94775000I0J-150000D01*
G01*
X116085000Y-96525000D01*
G75*
G02*
X115935000Y-96675000I-150000J0D01*
G01*
X115635000Y-96675000D01*
G75*
G02*
X115485000Y-96525000I0J150000D01*
G01*
X115485000Y-94775000D01*
G75*
G02*
X115635000Y-94625000I150000J0D01*
G01*
G37*
%TD.AperFunction*%
%TO.P,U11,22*%
%TO.N,/sheet5F68A9C3/SEG_DP*%
%TA.AperFunction,SMDPad,CuDef*%
G36*
G01*
X116905000Y-94625000D02*
X117205000Y-94625000D01*
G75*
G02*
X117355000Y-94775000I0J-150000D01*
G01*
X117355000Y-96525000D01*
G75*
G02*
X117205000Y-96675000I-150000J0D01*
G01*
X116905000Y-96675000D01*
G75*
G02*
X116755000Y-96525000I0J150000D01*
G01*
X116755000Y-94775000D01*
G75*
G02*
X116905000Y-94625000I150000J0D01*
G01*
G37*
%TD.AperFunction*%
%TO.P,U11,21*%
%TO.N,/sheet5F68A9C3/SEG_E*%
%TA.AperFunction,SMDPad,CuDef*%
G36*
G01*
X118175000Y-94625000D02*
X118475000Y-94625000D01*
G75*
G02*
X118625000Y-94775000I0J-150000D01*
G01*
X118625000Y-96525000D01*
G75*
G02*
X118475000Y-96675000I-150000J0D01*
G01*
X118175000Y-96675000D01*
G75*
G02*
X118025000Y-96525000I0J150000D01*
G01*
X118025000Y-94775000D01*
G75*
G02*
X118175000Y-94625000I150000J0D01*
G01*
G37*
%TD.AperFunction*%
%TO.P,U11,20*%
%TO.N,/sheet5F68A9C3/SEG_C*%
%TA.AperFunction,SMDPad,CuDef*%
G36*
G01*
X119445000Y-94625000D02*
X119745000Y-94625000D01*
G75*
G02*
X119895000Y-94775000I0J-150000D01*
G01*
X119895000Y-96525000D01*
G75*
G02*
X119745000Y-96675000I-150000J0D01*
G01*
X119445000Y-96675000D01*
G75*
G02*
X119295000Y-96525000I0J150000D01*
G01*
X119295000Y-94775000D01*
G75*
G02*
X119445000Y-94625000I150000J0D01*
G01*
G37*
%TD.AperFunction*%
%TO.P,U11,19*%
%TO.N,+5V*%
%TA.AperFunction,SMDPad,CuDef*%
G36*
G01*
X120715000Y-94625000D02*
X121015000Y-94625000D01*
G75*
G02*
X121165000Y-94775000I0J-150000D01*
G01*
X121165000Y-96525000D01*
G75*
G02*
X121015000Y-96675000I-150000J0D01*
G01*
X120715000Y-96675000D01*
G75*
G02*
X120565000Y-96525000I0J150000D01*
G01*
X120565000Y-94775000D01*
G75*
G02*
X120715000Y-94625000I150000J0D01*
G01*
G37*
%TD.AperFunction*%
%TO.P,U11,18*%
%TO.N,ISET*%
%TA.AperFunction,SMDPad,CuDef*%
G36*
G01*
X121985000Y-94625000D02*
X122285000Y-94625000D01*
G75*
G02*
X122435000Y-94775000I0J-150000D01*
G01*
X122435000Y-96525000D01*
G75*
G02*
X122285000Y-96675000I-150000J0D01*
G01*
X121985000Y-96675000D01*
G75*
G02*
X121835000Y-96525000I0J150000D01*
G01*
X121835000Y-94775000D01*
G75*
G02*
X121985000Y-94625000I150000J0D01*
G01*
G37*
%TD.AperFunction*%
%TO.P,U11,17*%
%TO.N,/sheet5F68A9C3/SEG_G*%
%TA.AperFunction,SMDPad,CuDef*%
G36*
G01*
X123255000Y-94625000D02*
X123555000Y-94625000D01*
G75*
G02*
X123705000Y-94775000I0J-150000D01*
G01*
X123705000Y-96525000D01*
G75*
G02*
X123555000Y-96675000I-150000J0D01*
G01*
X123255000Y-96675000D01*
G75*
G02*
X123105000Y-96525000I0J150000D01*
G01*
X123105000Y-94775000D01*
G75*
G02*
X123255000Y-94625000I150000J0D01*
G01*
G37*
%TD.AperFunction*%
%TO.P,U11,16*%
%TO.N,/sheet5F68A9C3/SEG_B*%
%TA.AperFunction,SMDPad,CuDef*%
G36*
G01*
X124525000Y-94625000D02*
X124825000Y-94625000D01*
G75*
G02*
X124975000Y-94775000I0J-150000D01*
G01*
X124975000Y-96525000D01*
G75*
G02*
X124825000Y-96675000I-150000J0D01*
G01*
X124525000Y-96675000D01*
G75*
G02*
X124375000Y-96525000I0J150000D01*
G01*
X124375000Y-94775000D01*
G75*
G02*
X124525000Y-94625000I150000J0D01*
G01*
G37*
%TD.AperFunction*%
%TO.P,U11,15*%
%TO.N,/sheet5F68A9C3/SEG_F*%
%TA.AperFunction,SMDPad,CuDef*%
G36*
G01*
X125795000Y-94625000D02*
X126095000Y-94625000D01*
G75*
G02*
X126245000Y-94775000I0J-150000D01*
G01*
X126245000Y-96525000D01*
G75*
G02*
X126095000Y-96675000I-150000J0D01*
G01*
X125795000Y-96675000D01*
G75*
G02*
X125645000Y-96525000I0J150000D01*
G01*
X125645000Y-94775000D01*
G75*
G02*
X125795000Y-94625000I150000J0D01*
G01*
G37*
%TD.AperFunction*%
%TO.P,U11,14*%
%TO.N,/sheet5F68A9C3/SEG_A*%
%TA.AperFunction,SMDPad,CuDef*%
G36*
G01*
X127065000Y-94625000D02*
X127365000Y-94625000D01*
G75*
G02*
X127515000Y-94775000I0J-150000D01*
G01*
X127515000Y-96525000D01*
G75*
G02*
X127365000Y-96675000I-150000J0D01*
G01*
X127065000Y-96675000D01*
G75*
G02*
X126915000Y-96525000I0J150000D01*
G01*
X126915000Y-94775000D01*
G75*
G02*
X127065000Y-94625000I150000J0D01*
G01*
G37*
%TD.AperFunction*%
%TO.P,U11,13*%
%TO.N,CLK*%
%TA.AperFunction,SMDPad,CuDef*%
G36*
G01*
X128335000Y-94625000D02*
X128635000Y-94625000D01*
G75*
G02*
X128785000Y-94775000I0J-150000D01*
G01*
X128785000Y-96525000D01*
G75*
G02*
X128635000Y-96675000I-150000J0D01*
G01*
X128335000Y-96675000D01*
G75*
G02*
X128185000Y-96525000I0J150000D01*
G01*
X128185000Y-94775000D01*
G75*
G02*
X128335000Y-94625000I150000J0D01*
G01*
G37*
%TD.AperFunction*%
%TO.P,U11,12*%
%TO.N,CS_LOAD*%
%TA.AperFunction,SMDPad,CuDef*%
G36*
G01*
X128335000Y-85325000D02*
X128635000Y-85325000D01*
G75*
G02*
X128785000Y-85475000I0J-150000D01*
G01*
X128785000Y-87225000D01*
G75*
G02*
X128635000Y-87375000I-150000J0D01*
G01*
X128335000Y-87375000D01*
G75*
G02*
X128185000Y-87225000I0J150000D01*
G01*
X128185000Y-85475000D01*
G75*
G02*
X128335000Y-85325000I150000J0D01*
G01*
G37*
%TD.AperFunction*%
%TO.P,U11,11*%
%TO.N,/sheet5F68A9C3/DIG_1*%
%TA.AperFunction,SMDPad,CuDef*%
G36*
G01*
X127065000Y-85325000D02*
X127365000Y-85325000D01*
G75*
G02*
X127515000Y-85475000I0J-150000D01*
G01*
X127515000Y-87225000D01*
G75*
G02*
X127365000Y-87375000I-150000J0D01*
G01*
X127065000Y-87375000D01*
G75*
G02*
X126915000Y-87225000I0J150000D01*
G01*
X126915000Y-85475000D01*
G75*
G02*
X127065000Y-85325000I150000J0D01*
G01*
G37*
%TD.AperFunction*%
%TO.P,U11,10*%
%TO.N,Net-(U11-Pad10)*%
%TA.AperFunction,SMDPad,CuDef*%
G36*
G01*
X125795000Y-85325000D02*
X126095000Y-85325000D01*
G75*
G02*
X126245000Y-85475000I0J-150000D01*
G01*
X126245000Y-87225000D01*
G75*
G02*
X126095000Y-87375000I-150000J0D01*
G01*
X125795000Y-87375000D01*
G75*
G02*
X125645000Y-87225000I0J150000D01*
G01*
X125645000Y-85475000D01*
G75*
G02*
X125795000Y-85325000I150000J0D01*
G01*
G37*
%TD.AperFunction*%
%TO.P,U11,9*%
%TO.N,GND*%
%TA.AperFunction,SMDPad,CuDef*%
G36*
G01*
X124525000Y-85325000D02*
X124825000Y-85325000D01*
G75*
G02*
X124975000Y-85475000I0J-150000D01*
G01*
X124975000Y-87225000D01*
G75*
G02*
X124825000Y-87375000I-150000J0D01*
G01*
X124525000Y-87375000D01*
G75*
G02*
X124375000Y-87225000I0J150000D01*
G01*
X124375000Y-85475000D01*
G75*
G02*
X124525000Y-85325000I150000J0D01*
G01*
G37*
%TD.AperFunction*%
%TO.P,U11,8*%
%TO.N,Net-(U11-Pad8)*%
%TA.AperFunction,SMDPad,CuDef*%
G36*
G01*
X123255000Y-85325000D02*
X123555000Y-85325000D01*
G75*
G02*
X123705000Y-85475000I0J-150000D01*
G01*
X123705000Y-87225000D01*
G75*
G02*
X123555000Y-87375000I-150000J0D01*
G01*
X123255000Y-87375000D01*
G75*
G02*
X123105000Y-87225000I0J150000D01*
G01*
X123105000Y-85475000D01*
G75*
G02*
X123255000Y-85325000I150000J0D01*
G01*
G37*
%TD.AperFunction*%
%TO.P,U11,7*%
%TO.N,/sheet5F68A9C3/DIG_3*%
%TA.AperFunction,SMDPad,CuDef*%
G36*
G01*
X121985000Y-85325000D02*
X122285000Y-85325000D01*
G75*
G02*
X122435000Y-85475000I0J-150000D01*
G01*
X122435000Y-87225000D01*
G75*
G02*
X122285000Y-87375000I-150000J0D01*
G01*
X121985000Y-87375000D01*
G75*
G02*
X121835000Y-87225000I0J150000D01*
G01*
X121835000Y-85475000D01*
G75*
G02*
X121985000Y-85325000I150000J0D01*
G01*
G37*
%TD.AperFunction*%
%TO.P,U11,6*%
%TO.N,/sheet5F68A9C3/DIG_2*%
%TA.AperFunction,SMDPad,CuDef*%
G36*
G01*
X120715000Y-85325000D02*
X121015000Y-85325000D01*
G75*
G02*
X121165000Y-85475000I0J-150000D01*
G01*
X121165000Y-87225000D01*
G75*
G02*
X121015000Y-87375000I-150000J0D01*
G01*
X120715000Y-87375000D01*
G75*
G02*
X120565000Y-87225000I0J150000D01*
G01*
X120565000Y-85475000D01*
G75*
G02*
X120715000Y-85325000I150000J0D01*
G01*
G37*
%TD.AperFunction*%
%TO.P,U11,5*%
%TO.N,Net-(U11-Pad5)*%
%TA.AperFunction,SMDPad,CuDef*%
G36*
G01*
X119445000Y-85325000D02*
X119745000Y-85325000D01*
G75*
G02*
X119895000Y-85475000I0J-150000D01*
G01*
X119895000Y-87225000D01*
G75*
G02*
X119745000Y-87375000I-150000J0D01*
G01*
X119445000Y-87375000D01*
G75*
G02*
X119295000Y-87225000I0J150000D01*
G01*
X119295000Y-85475000D01*
G75*
G02*
X119445000Y-85325000I150000J0D01*
G01*
G37*
%TD.AperFunction*%
%TO.P,U11,4*%
%TO.N,GND*%
%TA.AperFunction,SMDPad,CuDef*%
G36*
G01*
X118175000Y-85325000D02*
X118475000Y-85325000D01*
G75*
G02*
X118625000Y-85475000I0J-150000D01*
G01*
X118625000Y-87225000D01*
G75*
G02*
X118475000Y-87375000I-150000J0D01*
G01*
X118175000Y-87375000D01*
G75*
G02*
X118025000Y-87225000I0J150000D01*
G01*
X118025000Y-85475000D01*
G75*
G02*
X118175000Y-85325000I150000J0D01*
G01*
G37*
%TD.AperFunction*%
%TO.P,U11,3*%
%TO.N,/sheet5F68A9C3/DIG_4*%
%TA.AperFunction,SMDPad,CuDef*%
G36*
G01*
X116905000Y-85325000D02*
X117205000Y-85325000D01*
G75*
G02*
X117355000Y-85475000I0J-150000D01*
G01*
X117355000Y-87225000D01*
G75*
G02*
X117205000Y-87375000I-150000J0D01*
G01*
X116905000Y-87375000D01*
G75*
G02*
X116755000Y-87225000I0J150000D01*
G01*
X116755000Y-85475000D01*
G75*
G02*
X116905000Y-85325000I150000J0D01*
G01*
G37*
%TD.AperFunction*%
%TO.P,U11,2*%
%TO.N,/sheet5F68A9C3/DIG_0*%
%TA.AperFunction,SMDPad,CuDef*%
G36*
G01*
X115635000Y-85325000D02*
X115935000Y-85325000D01*
G75*
G02*
X116085000Y-85475000I0J-150000D01*
G01*
X116085000Y-87225000D01*
G75*
G02*
X115935000Y-87375000I-150000J0D01*
G01*
X115635000Y-87375000D01*
G75*
G02*
X115485000Y-87225000I0J150000D01*
G01*
X115485000Y-85475000D01*
G75*
G02*
X115635000Y-85325000I150000J0D01*
G01*
G37*
%TD.AperFunction*%
%TO.P,U11,1*%
%TO.N,/sheet5F68A9C3/DIN*%
%TA.AperFunction,SMDPad,CuDef*%
G36*
G01*
X114365000Y-85325000D02*
X114665000Y-85325000D01*
G75*
G02*
X114815000Y-85475000I0J-150000D01*
G01*
X114815000Y-87225000D01*
G75*
G02*
X114665000Y-87375000I-150000J0D01*
G01*
X114365000Y-87375000D01*
G75*
G02*
X114215000Y-87225000I0J150000D01*
G01*
X114215000Y-85475000D01*
G75*
G02*
X114365000Y-85325000I150000J0D01*
G01*
G37*
%TD.AperFunction*%
%TD*%
%TO.P,U13,24*%
%TO.N,/sheet5F68A9C4/DOUT*%
%TA.AperFunction,SMDPad,CuDef*%
G36*
G01*
X152365000Y-94625000D02*
X152665000Y-94625000D01*
G75*
G02*
X152815000Y-94775000I0J-150000D01*
G01*
X152815000Y-96525000D01*
G75*
G02*
X152665000Y-96675000I-150000J0D01*
G01*
X152365000Y-96675000D01*
G75*
G02*
X152215000Y-96525000I0J150000D01*
G01*
X152215000Y-94775000D01*
G75*
G02*
X152365000Y-94625000I150000J0D01*
G01*
G37*
%TD.AperFunction*%
%TO.P,U13,23*%
%TO.N,/sheet5F68A9C4/SEG_D*%
%TA.AperFunction,SMDPad,CuDef*%
G36*
G01*
X153635000Y-94625000D02*
X153935000Y-94625000D01*
G75*
G02*
X154085000Y-94775000I0J-150000D01*
G01*
X154085000Y-96525000D01*
G75*
G02*
X153935000Y-96675000I-150000J0D01*
G01*
X153635000Y-96675000D01*
G75*
G02*
X153485000Y-96525000I0J150000D01*
G01*
X153485000Y-94775000D01*
G75*
G02*
X153635000Y-94625000I150000J0D01*
G01*
G37*
%TD.AperFunction*%
%TO.P,U13,22*%
%TO.N,/sheet5F68A9C4/SEG_DP*%
%TA.AperFunction,SMDPad,CuDef*%
G36*
G01*
X154905000Y-94625000D02*
X155205000Y-94625000D01*
G75*
G02*
X155355000Y-94775000I0J-150000D01*
G01*
X155355000Y-96525000D01*
G75*
G02*
X155205000Y-96675000I-150000J0D01*
G01*
X154905000Y-96675000D01*
G75*
G02*
X154755000Y-96525000I0J150000D01*
G01*
X154755000Y-94775000D01*
G75*
G02*
X154905000Y-94625000I150000J0D01*
G01*
G37*
%TD.AperFunction*%
%TO.P,U13,21*%
%TO.N,/sheet5F68A9C4/SEG_E*%
%TA.AperFunction,SMDPad,CuDef*%
G36*
G01*
X156175000Y-94625000D02*
X156475000Y-94625000D01*
G75*
G02*
X156625000Y-94775000I0J-150000D01*
G01*
X156625000Y-96525000D01*
G75*
G02*
X156475000Y-96675000I-150000J0D01*
G01*
X156175000Y-96675000D01*
G75*
G02*
X156025000Y-96525000I0J150000D01*
G01*
X156025000Y-94775000D01*
G75*
G02*
X156175000Y-94625000I150000J0D01*
G01*
G37*
%TD.AperFunction*%
%TO.P,U13,20*%
%TO.N,/sheet5F68A9C4/SEG_C*%
%TA.AperFunction,SMDPad,CuDef*%
G36*
G01*
X157445000Y-94625000D02*
X157745000Y-94625000D01*
G75*
G02*
X157895000Y-94775000I0J-150000D01*
G01*
X157895000Y-96525000D01*
G75*
G02*
X157745000Y-96675000I-150000J0D01*
G01*
X157445000Y-96675000D01*
G75*
G02*
X157295000Y-96525000I0J150000D01*
G01*
X157295000Y-94775000D01*
G75*
G02*
X157445000Y-94625000I150000J0D01*
G01*
G37*
%TD.AperFunction*%
%TO.P,U13,19*%
%TO.N,+5V*%
%TA.AperFunction,SMDPad,CuDef*%
G36*
G01*
X158715000Y-94625000D02*
X159015000Y-94625000D01*
G75*
G02*
X159165000Y-94775000I0J-150000D01*
G01*
X159165000Y-96525000D01*
G75*
G02*
X159015000Y-96675000I-150000J0D01*
G01*
X158715000Y-96675000D01*
G75*
G02*
X158565000Y-96525000I0J150000D01*
G01*
X158565000Y-94775000D01*
G75*
G02*
X158715000Y-94625000I150000J0D01*
G01*
G37*
%TD.AperFunction*%
%TO.P,U13,18*%
%TO.N,ISET*%
%TA.AperFunction,SMDPad,CuDef*%
G36*
G01*
X159985000Y-94625000D02*
X160285000Y-94625000D01*
G75*
G02*
X160435000Y-94775000I0J-150000D01*
G01*
X160435000Y-96525000D01*
G75*
G02*
X160285000Y-96675000I-150000J0D01*
G01*
X159985000Y-96675000D01*
G75*
G02*
X159835000Y-96525000I0J150000D01*
G01*
X159835000Y-94775000D01*
G75*
G02*
X159985000Y-94625000I150000J0D01*
G01*
G37*
%TD.AperFunction*%
%TO.P,U13,17*%
%TO.N,/sheet5F68A9C4/SEG_G*%
%TA.AperFunction,SMDPad,CuDef*%
G36*
G01*
X161255000Y-94625000D02*
X161555000Y-94625000D01*
G75*
G02*
X161705000Y-94775000I0J-150000D01*
G01*
X161705000Y-96525000D01*
G75*
G02*
X161555000Y-96675000I-150000J0D01*
G01*
X161255000Y-96675000D01*
G75*
G02*
X161105000Y-96525000I0J150000D01*
G01*
X161105000Y-94775000D01*
G75*
G02*
X161255000Y-94625000I150000J0D01*
G01*
G37*
%TD.AperFunction*%
%TO.P,U13,16*%
%TO.N,/sheet5F68A9C4/SEG_B*%
%TA.AperFunction,SMDPad,CuDef*%
G36*
G01*
X162525000Y-94625000D02*
X162825000Y-94625000D01*
G75*
G02*
X162975000Y-94775000I0J-150000D01*
G01*
X162975000Y-96525000D01*
G75*
G02*
X162825000Y-96675000I-150000J0D01*
G01*
X162525000Y-96675000D01*
G75*
G02*
X162375000Y-96525000I0J150000D01*
G01*
X162375000Y-94775000D01*
G75*
G02*
X162525000Y-94625000I150000J0D01*
G01*
G37*
%TD.AperFunction*%
%TO.P,U13,15*%
%TO.N,/sheet5F68A9C4/SEG_F*%
%TA.AperFunction,SMDPad,CuDef*%
G36*
G01*
X163795000Y-94625000D02*
X164095000Y-94625000D01*
G75*
G02*
X164245000Y-94775000I0J-150000D01*
G01*
X164245000Y-96525000D01*
G75*
G02*
X164095000Y-96675000I-150000J0D01*
G01*
X163795000Y-96675000D01*
G75*
G02*
X163645000Y-96525000I0J150000D01*
G01*
X163645000Y-94775000D01*
G75*
G02*
X163795000Y-94625000I150000J0D01*
G01*
G37*
%TD.AperFunction*%
%TO.P,U13,14*%
%TO.N,/sheet5F68A9C4/SEG_A*%
%TA.AperFunction,SMDPad,CuDef*%
G36*
G01*
X165065000Y-94625000D02*
X165365000Y-94625000D01*
G75*
G02*
X165515000Y-94775000I0J-150000D01*
G01*
X165515000Y-96525000D01*
G75*
G02*
X165365000Y-96675000I-150000J0D01*
G01*
X165065000Y-96675000D01*
G75*
G02*
X164915000Y-96525000I0J150000D01*
G01*
X164915000Y-94775000D01*
G75*
G02*
X165065000Y-94625000I150000J0D01*
G01*
G37*
%TD.AperFunction*%
%TO.P,U13,13*%
%TO.N,CLK*%
%TA.AperFunction,SMDPad,CuDef*%
G36*
G01*
X166335000Y-94625000D02*
X166635000Y-94625000D01*
G75*
G02*
X166785000Y-94775000I0J-150000D01*
G01*
X166785000Y-96525000D01*
G75*
G02*
X166635000Y-96675000I-150000J0D01*
G01*
X166335000Y-96675000D01*
G75*
G02*
X166185000Y-96525000I0J150000D01*
G01*
X166185000Y-94775000D01*
G75*
G02*
X166335000Y-94625000I150000J0D01*
G01*
G37*
%TD.AperFunction*%
%TO.P,U13,12*%
%TO.N,CS_LOAD*%
%TA.AperFunction,SMDPad,CuDef*%
G36*
G01*
X166335000Y-85325000D02*
X166635000Y-85325000D01*
G75*
G02*
X166785000Y-85475000I0J-150000D01*
G01*
X166785000Y-87225000D01*
G75*
G02*
X166635000Y-87375000I-150000J0D01*
G01*
X166335000Y-87375000D01*
G75*
G02*
X166185000Y-87225000I0J150000D01*
G01*
X166185000Y-85475000D01*
G75*
G02*
X166335000Y-85325000I150000J0D01*
G01*
G37*
%TD.AperFunction*%
%TO.P,U13,11*%
%TO.N,/sheet5F68A9C4/DIG_1*%
%TA.AperFunction,SMDPad,CuDef*%
G36*
G01*
X165065000Y-85325000D02*
X165365000Y-85325000D01*
G75*
G02*
X165515000Y-85475000I0J-150000D01*
G01*
X165515000Y-87225000D01*
G75*
G02*
X165365000Y-87375000I-150000J0D01*
G01*
X165065000Y-87375000D01*
G75*
G02*
X164915000Y-87225000I0J150000D01*
G01*
X164915000Y-85475000D01*
G75*
G02*
X165065000Y-85325000I150000J0D01*
G01*
G37*
%TD.AperFunction*%
%TO.P,U13,10*%
%TO.N,Net-(U13-Pad10)*%
%TA.AperFunction,SMDPad,CuDef*%
G36*
G01*
X163795000Y-85325000D02*
X164095000Y-85325000D01*
G75*
G02*
X164245000Y-85475000I0J-150000D01*
G01*
X164245000Y-87225000D01*
G75*
G02*
X164095000Y-87375000I-150000J0D01*
G01*
X163795000Y-87375000D01*
G75*
G02*
X163645000Y-87225000I0J150000D01*
G01*
X163645000Y-85475000D01*
G75*
G02*
X163795000Y-85325000I150000J0D01*
G01*
G37*
%TD.AperFunction*%
%TO.P,U13,9*%
%TO.N,GND*%
%TA.AperFunction,SMDPad,CuDef*%
G36*
G01*
X162525000Y-85325000D02*
X162825000Y-85325000D01*
G75*
G02*
X162975000Y-85475000I0J-150000D01*
G01*
X162975000Y-87225000D01*
G75*
G02*
X162825000Y-87375000I-150000J0D01*
G01*
X162525000Y-87375000D01*
G75*
G02*
X162375000Y-87225000I0J150000D01*
G01*
X162375000Y-85475000D01*
G75*
G02*
X162525000Y-85325000I150000J0D01*
G01*
G37*
%TD.AperFunction*%
%TO.P,U13,8*%
%TO.N,Net-(U13-Pad8)*%
%TA.AperFunction,SMDPad,CuDef*%
G36*
G01*
X161255000Y-85325000D02*
X161555000Y-85325000D01*
G75*
G02*
X161705000Y-85475000I0J-150000D01*
G01*
X161705000Y-87225000D01*
G75*
G02*
X161555000Y-87375000I-150000J0D01*
G01*
X161255000Y-87375000D01*
G75*
G02*
X161105000Y-87225000I0J150000D01*
G01*
X161105000Y-85475000D01*
G75*
G02*
X161255000Y-85325000I150000J0D01*
G01*
G37*
%TD.AperFunction*%
%TO.P,U13,7*%
%TO.N,/sheet5F68A9C4/DIG_3*%
%TA.AperFunction,SMDPad,CuDef*%
G36*
G01*
X159985000Y-85325000D02*
X160285000Y-85325000D01*
G75*
G02*
X160435000Y-85475000I0J-150000D01*
G01*
X160435000Y-87225000D01*
G75*
G02*
X160285000Y-87375000I-150000J0D01*
G01*
X159985000Y-87375000D01*
G75*
G02*
X159835000Y-87225000I0J150000D01*
G01*
X159835000Y-85475000D01*
G75*
G02*
X159985000Y-85325000I150000J0D01*
G01*
G37*
%TD.AperFunction*%
%TO.P,U13,6*%
%TO.N,/sheet5F68A9C4/DIG_2*%
%TA.AperFunction,SMDPad,CuDef*%
G36*
G01*
X158715000Y-85325000D02*
X159015000Y-85325000D01*
G75*
G02*
X159165000Y-85475000I0J-150000D01*
G01*
X159165000Y-87225000D01*
G75*
G02*
X159015000Y-87375000I-150000J0D01*
G01*
X158715000Y-87375000D01*
G75*
G02*
X158565000Y-87225000I0J150000D01*
G01*
X158565000Y-85475000D01*
G75*
G02*
X158715000Y-85325000I150000J0D01*
G01*
G37*
%TD.AperFunction*%
%TO.P,U13,5*%
%TO.N,Net-(U13-Pad5)*%
%TA.AperFunction,SMDPad,CuDef*%
G36*
G01*
X157445000Y-85325000D02*
X157745000Y-85325000D01*
G75*
G02*
X157895000Y-85475000I0J-150000D01*
G01*
X157895000Y-87225000D01*
G75*
G02*
X157745000Y-87375000I-150000J0D01*
G01*
X157445000Y-87375000D01*
G75*
G02*
X157295000Y-87225000I0J150000D01*
G01*
X157295000Y-85475000D01*
G75*
G02*
X157445000Y-85325000I150000J0D01*
G01*
G37*
%TD.AperFunction*%
%TO.P,U13,4*%
%TO.N,GND*%
%TA.AperFunction,SMDPad,CuDef*%
G36*
G01*
X156175000Y-85325000D02*
X156475000Y-85325000D01*
G75*
G02*
X156625000Y-85475000I0J-150000D01*
G01*
X156625000Y-87225000D01*
G75*
G02*
X156475000Y-87375000I-150000J0D01*
G01*
X156175000Y-87375000D01*
G75*
G02*
X156025000Y-87225000I0J150000D01*
G01*
X156025000Y-85475000D01*
G75*
G02*
X156175000Y-85325000I150000J0D01*
G01*
G37*
%TD.AperFunction*%
%TO.P,U13,3*%
%TO.N,/sheet5F68A9C4/DIG_4*%
%TA.AperFunction,SMDPad,CuDef*%
G36*
G01*
X154905000Y-85325000D02*
X155205000Y-85325000D01*
G75*
G02*
X155355000Y-85475000I0J-150000D01*
G01*
X155355000Y-87225000D01*
G75*
G02*
X155205000Y-87375000I-150000J0D01*
G01*
X154905000Y-87375000D01*
G75*
G02*
X154755000Y-87225000I0J150000D01*
G01*
X154755000Y-85475000D01*
G75*
G02*
X154905000Y-85325000I150000J0D01*
G01*
G37*
%TD.AperFunction*%
%TO.P,U13,2*%
%TO.N,/sheet5F68A9C4/DIG_0*%
%TA.AperFunction,SMDPad,CuDef*%
G36*
G01*
X153635000Y-85325000D02*
X153935000Y-85325000D01*
G75*
G02*
X154085000Y-85475000I0J-150000D01*
G01*
X154085000Y-87225000D01*
G75*
G02*
X153935000Y-87375000I-150000J0D01*
G01*
X153635000Y-87375000D01*
G75*
G02*
X153485000Y-87225000I0J150000D01*
G01*
X153485000Y-85475000D01*
G75*
G02*
X153635000Y-85325000I150000J0D01*
G01*
G37*
%TD.AperFunction*%
%TO.P,U13,1*%
%TO.N,/sheet5F68A9C4/DIN*%
%TA.AperFunction,SMDPad,CuDef*%
G36*
G01*
X152365000Y-85325000D02*
X152665000Y-85325000D01*
G75*
G02*
X152815000Y-85475000I0J-150000D01*
G01*
X152815000Y-87225000D01*
G75*
G02*
X152665000Y-87375000I-150000J0D01*
G01*
X152365000Y-87375000D01*
G75*
G02*
X152215000Y-87225000I0J150000D01*
G01*
X152215000Y-85475000D01*
G75*
G02*
X152365000Y-85325000I150000J0D01*
G01*
G37*
%TD.AperFunction*%
%TD*%
%TO.P,U15,24*%
%TO.N,/sheet5F68A9C3/DIN*%
%TA.AperFunction,SMDPad,CuDef*%
G36*
G01*
X73365000Y-94625000D02*
X73665000Y-94625000D01*
G75*
G02*
X73815000Y-94775000I0J-150000D01*
G01*
X73815000Y-96525000D01*
G75*
G02*
X73665000Y-96675000I-150000J0D01*
G01*
X73365000Y-96675000D01*
G75*
G02*
X73215000Y-96525000I0J150000D01*
G01*
X73215000Y-94775000D01*
G75*
G02*
X73365000Y-94625000I150000J0D01*
G01*
G37*
%TD.AperFunction*%
%TO.P,U15,23*%
%TO.N,/sheet5F68A9C5/SEG_D*%
%TA.AperFunction,SMDPad,CuDef*%
G36*
G01*
X74635000Y-94625000D02*
X74935000Y-94625000D01*
G75*
G02*
X75085000Y-94775000I0J-150000D01*
G01*
X75085000Y-96525000D01*
G75*
G02*
X74935000Y-96675000I-150000J0D01*
G01*
X74635000Y-96675000D01*
G75*
G02*
X74485000Y-96525000I0J150000D01*
G01*
X74485000Y-94775000D01*
G75*
G02*
X74635000Y-94625000I150000J0D01*
G01*
G37*
%TD.AperFunction*%
%TO.P,U15,22*%
%TO.N,/sheet5F68A9C5/SEG_DP*%
%TA.AperFunction,SMDPad,CuDef*%
G36*
G01*
X75905000Y-94625000D02*
X76205000Y-94625000D01*
G75*
G02*
X76355000Y-94775000I0J-150000D01*
G01*
X76355000Y-96525000D01*
G75*
G02*
X76205000Y-96675000I-150000J0D01*
G01*
X75905000Y-96675000D01*
G75*
G02*
X75755000Y-96525000I0J150000D01*
G01*
X75755000Y-94775000D01*
G75*
G02*
X75905000Y-94625000I150000J0D01*
G01*
G37*
%TD.AperFunction*%
%TO.P,U15,21*%
%TO.N,/sheet5F68A9C5/SEG_E*%
%TA.AperFunction,SMDPad,CuDef*%
G36*
G01*
X77175000Y-94625000D02*
X77475000Y-94625000D01*
G75*
G02*
X77625000Y-94775000I0J-150000D01*
G01*
X77625000Y-96525000D01*
G75*
G02*
X77475000Y-96675000I-150000J0D01*
G01*
X77175000Y-96675000D01*
G75*
G02*
X77025000Y-96525000I0J150000D01*
G01*
X77025000Y-94775000D01*
G75*
G02*
X77175000Y-94625000I150000J0D01*
G01*
G37*
%TD.AperFunction*%
%TO.P,U15,20*%
%TO.N,/sheet5F68A9C5/SEG_C*%
%TA.AperFunction,SMDPad,CuDef*%
G36*
G01*
X78445000Y-94625000D02*
X78745000Y-94625000D01*
G75*
G02*
X78895000Y-94775000I0J-150000D01*
G01*
X78895000Y-96525000D01*
G75*
G02*
X78745000Y-96675000I-150000J0D01*
G01*
X78445000Y-96675000D01*
G75*
G02*
X78295000Y-96525000I0J150000D01*
G01*
X78295000Y-94775000D01*
G75*
G02*
X78445000Y-94625000I150000J0D01*
G01*
G37*
%TD.AperFunction*%
%TO.P,U15,19*%
%TO.N,+5V*%
%TA.AperFunction,SMDPad,CuDef*%
G36*
G01*
X79715000Y-94625000D02*
X80015000Y-94625000D01*
G75*
G02*
X80165000Y-94775000I0J-150000D01*
G01*
X80165000Y-96525000D01*
G75*
G02*
X80015000Y-96675000I-150000J0D01*
G01*
X79715000Y-96675000D01*
G75*
G02*
X79565000Y-96525000I0J150000D01*
G01*
X79565000Y-94775000D01*
G75*
G02*
X79715000Y-94625000I150000J0D01*
G01*
G37*
%TD.AperFunction*%
%TO.P,U15,18*%
%TO.N,ISET*%
%TA.AperFunction,SMDPad,CuDef*%
G36*
G01*
X80985000Y-94625000D02*
X81285000Y-94625000D01*
G75*
G02*
X81435000Y-94775000I0J-150000D01*
G01*
X81435000Y-96525000D01*
G75*
G02*
X81285000Y-96675000I-150000J0D01*
G01*
X80985000Y-96675000D01*
G75*
G02*
X80835000Y-96525000I0J150000D01*
G01*
X80835000Y-94775000D01*
G75*
G02*
X80985000Y-94625000I150000J0D01*
G01*
G37*
%TD.AperFunction*%
%TO.P,U15,17*%
%TO.N,/sheet5F68A9C5/SEG_G*%
%TA.AperFunction,SMDPad,CuDef*%
G36*
G01*
X82255000Y-94625000D02*
X82555000Y-94625000D01*
G75*
G02*
X82705000Y-94775000I0J-150000D01*
G01*
X82705000Y-96525000D01*
G75*
G02*
X82555000Y-96675000I-150000J0D01*
G01*
X82255000Y-96675000D01*
G75*
G02*
X82105000Y-96525000I0J150000D01*
G01*
X82105000Y-94775000D01*
G75*
G02*
X82255000Y-94625000I150000J0D01*
G01*
G37*
%TD.AperFunction*%
%TO.P,U15,16*%
%TO.N,/sheet5F68A9C5/SEG_B*%
%TA.AperFunction,SMDPad,CuDef*%
G36*
G01*
X83525000Y-94625000D02*
X83825000Y-94625000D01*
G75*
G02*
X83975000Y-94775000I0J-150000D01*
G01*
X83975000Y-96525000D01*
G75*
G02*
X83825000Y-96675000I-150000J0D01*
G01*
X83525000Y-96675000D01*
G75*
G02*
X83375000Y-96525000I0J150000D01*
G01*
X83375000Y-94775000D01*
G75*
G02*
X83525000Y-94625000I150000J0D01*
G01*
G37*
%TD.AperFunction*%
%TO.P,U15,15*%
%TO.N,/sheet5F68A9C5/SEG_F*%
%TA.AperFunction,SMDPad,CuDef*%
G36*
G01*
X84795000Y-94625000D02*
X85095000Y-94625000D01*
G75*
G02*
X85245000Y-94775000I0J-150000D01*
G01*
X85245000Y-96525000D01*
G75*
G02*
X85095000Y-96675000I-150000J0D01*
G01*
X84795000Y-96675000D01*
G75*
G02*
X84645000Y-96525000I0J150000D01*
G01*
X84645000Y-94775000D01*
G75*
G02*
X84795000Y-94625000I150000J0D01*
G01*
G37*
%TD.AperFunction*%
%TO.P,U15,14*%
%TO.N,/sheet5F68A9C5/SEG_A*%
%TA.AperFunction,SMDPad,CuDef*%
G36*
G01*
X86065000Y-94625000D02*
X86365000Y-94625000D01*
G75*
G02*
X86515000Y-94775000I0J-150000D01*
G01*
X86515000Y-96525000D01*
G75*
G02*
X86365000Y-96675000I-150000J0D01*
G01*
X86065000Y-96675000D01*
G75*
G02*
X85915000Y-96525000I0J150000D01*
G01*
X85915000Y-94775000D01*
G75*
G02*
X86065000Y-94625000I150000J0D01*
G01*
G37*
%TD.AperFunction*%
%TO.P,U15,13*%
%TO.N,CLK*%
%TA.AperFunction,SMDPad,CuDef*%
G36*
G01*
X87335000Y-94625000D02*
X87635000Y-94625000D01*
G75*
G02*
X87785000Y-94775000I0J-150000D01*
G01*
X87785000Y-96525000D01*
G75*
G02*
X87635000Y-96675000I-150000J0D01*
G01*
X87335000Y-96675000D01*
G75*
G02*
X87185000Y-96525000I0J150000D01*
G01*
X87185000Y-94775000D01*
G75*
G02*
X87335000Y-94625000I150000J0D01*
G01*
G37*
%TD.AperFunction*%
%TO.P,U15,12*%
%TO.N,CS_LOAD*%
%TA.AperFunction,SMDPad,CuDef*%
G36*
G01*
X87335000Y-85325000D02*
X87635000Y-85325000D01*
G75*
G02*
X87785000Y-85475000I0J-150000D01*
G01*
X87785000Y-87225000D01*
G75*
G02*
X87635000Y-87375000I-150000J0D01*
G01*
X87335000Y-87375000D01*
G75*
G02*
X87185000Y-87225000I0J150000D01*
G01*
X87185000Y-85475000D01*
G75*
G02*
X87335000Y-85325000I150000J0D01*
G01*
G37*
%TD.AperFunction*%
%TO.P,U15,11*%
%TO.N,/sheet5F68A9C5/DIG_1*%
%TA.AperFunction,SMDPad,CuDef*%
G36*
G01*
X86065000Y-85325000D02*
X86365000Y-85325000D01*
G75*
G02*
X86515000Y-85475000I0J-150000D01*
G01*
X86515000Y-87225000D01*
G75*
G02*
X86365000Y-87375000I-150000J0D01*
G01*
X86065000Y-87375000D01*
G75*
G02*
X85915000Y-87225000I0J150000D01*
G01*
X85915000Y-85475000D01*
G75*
G02*
X86065000Y-85325000I150000J0D01*
G01*
G37*
%TD.AperFunction*%
%TO.P,U15,10*%
%TO.N,Net-(U15-Pad10)*%
%TA.AperFunction,SMDPad,CuDef*%
G36*
G01*
X84795000Y-85325000D02*
X85095000Y-85325000D01*
G75*
G02*
X85245000Y-85475000I0J-150000D01*
G01*
X85245000Y-87225000D01*
G75*
G02*
X85095000Y-87375000I-150000J0D01*
G01*
X84795000Y-87375000D01*
G75*
G02*
X84645000Y-87225000I0J150000D01*
G01*
X84645000Y-85475000D01*
G75*
G02*
X84795000Y-85325000I150000J0D01*
G01*
G37*
%TD.AperFunction*%
%TO.P,U15,9*%
%TO.N,GND*%
%TA.AperFunction,SMDPad,CuDef*%
G36*
G01*
X83525000Y-85325000D02*
X83825000Y-85325000D01*
G75*
G02*
X83975000Y-85475000I0J-150000D01*
G01*
X83975000Y-87225000D01*
G75*
G02*
X83825000Y-87375000I-150000J0D01*
G01*
X83525000Y-87375000D01*
G75*
G02*
X83375000Y-87225000I0J150000D01*
G01*
X83375000Y-85475000D01*
G75*
G02*
X83525000Y-85325000I150000J0D01*
G01*
G37*
%TD.AperFunction*%
%TO.P,U15,8*%
%TO.N,Net-(U15-Pad8)*%
%TA.AperFunction,SMDPad,CuDef*%
G36*
G01*
X82255000Y-85325000D02*
X82555000Y-85325000D01*
G75*
G02*
X82705000Y-85475000I0J-150000D01*
G01*
X82705000Y-87225000D01*
G75*
G02*
X82555000Y-87375000I-150000J0D01*
G01*
X82255000Y-87375000D01*
G75*
G02*
X82105000Y-87225000I0J150000D01*
G01*
X82105000Y-85475000D01*
G75*
G02*
X82255000Y-85325000I150000J0D01*
G01*
G37*
%TD.AperFunction*%
%TO.P,U15,7*%
%TO.N,/sheet5F68A9C5/DIG_3*%
%TA.AperFunction,SMDPad,CuDef*%
G36*
G01*
X80985000Y-85325000D02*
X81285000Y-85325000D01*
G75*
G02*
X81435000Y-85475000I0J-150000D01*
G01*
X81435000Y-87225000D01*
G75*
G02*
X81285000Y-87375000I-150000J0D01*
G01*
X80985000Y-87375000D01*
G75*
G02*
X80835000Y-87225000I0J150000D01*
G01*
X80835000Y-85475000D01*
G75*
G02*
X80985000Y-85325000I150000J0D01*
G01*
G37*
%TD.AperFunction*%
%TO.P,U15,6*%
%TO.N,/sheet5F68A9C5/DIG_2*%
%TA.AperFunction,SMDPad,CuDef*%
G36*
G01*
X79715000Y-85325000D02*
X80015000Y-85325000D01*
G75*
G02*
X80165000Y-85475000I0J-150000D01*
G01*
X80165000Y-87225000D01*
G75*
G02*
X80015000Y-87375000I-150000J0D01*
G01*
X79715000Y-87375000D01*
G75*
G02*
X79565000Y-87225000I0J150000D01*
G01*
X79565000Y-85475000D01*
G75*
G02*
X79715000Y-85325000I150000J0D01*
G01*
G37*
%TD.AperFunction*%
%TO.P,U15,5*%
%TO.N,Net-(U15-Pad5)*%
%TA.AperFunction,SMDPad,CuDef*%
G36*
G01*
X78445000Y-85325000D02*
X78745000Y-85325000D01*
G75*
G02*
X78895000Y-85475000I0J-150000D01*
G01*
X78895000Y-87225000D01*
G75*
G02*
X78745000Y-87375000I-150000J0D01*
G01*
X78445000Y-87375000D01*
G75*
G02*
X78295000Y-87225000I0J150000D01*
G01*
X78295000Y-85475000D01*
G75*
G02*
X78445000Y-85325000I150000J0D01*
G01*
G37*
%TD.AperFunction*%
%TO.P,U15,4*%
%TO.N,GND*%
%TA.AperFunction,SMDPad,CuDef*%
G36*
G01*
X77175000Y-85325000D02*
X77475000Y-85325000D01*
G75*
G02*
X77625000Y-85475000I0J-150000D01*
G01*
X77625000Y-87225000D01*
G75*
G02*
X77475000Y-87375000I-150000J0D01*
G01*
X77175000Y-87375000D01*
G75*
G02*
X77025000Y-87225000I0J150000D01*
G01*
X77025000Y-85475000D01*
G75*
G02*
X77175000Y-85325000I150000J0D01*
G01*
G37*
%TD.AperFunction*%
%TO.P,U15,3*%
%TO.N,/sheet5F68A9C5/DIG_4*%
%TA.AperFunction,SMDPad,CuDef*%
G36*
G01*
X75905000Y-85325000D02*
X76205000Y-85325000D01*
G75*
G02*
X76355000Y-85475000I0J-150000D01*
G01*
X76355000Y-87225000D01*
G75*
G02*
X76205000Y-87375000I-150000J0D01*
G01*
X75905000Y-87375000D01*
G75*
G02*
X75755000Y-87225000I0J150000D01*
G01*
X75755000Y-85475000D01*
G75*
G02*
X75905000Y-85325000I150000J0D01*
G01*
G37*
%TD.AperFunction*%
%TO.P,U15,2*%
%TO.N,/sheet5F68A9C5/DIG_0*%
%TA.AperFunction,SMDPad,CuDef*%
G36*
G01*
X74635000Y-85325000D02*
X74935000Y-85325000D01*
G75*
G02*
X75085000Y-85475000I0J-150000D01*
G01*
X75085000Y-87225000D01*
G75*
G02*
X74935000Y-87375000I-150000J0D01*
G01*
X74635000Y-87375000D01*
G75*
G02*
X74485000Y-87225000I0J150000D01*
G01*
X74485000Y-85475000D01*
G75*
G02*
X74635000Y-85325000I150000J0D01*
G01*
G37*
%TD.AperFunction*%
%TO.P,U15,1*%
%TO.N,/sheet5F68A9C5/DIN*%
%TA.AperFunction,SMDPad,CuDef*%
G36*
G01*
X73365000Y-85325000D02*
X73665000Y-85325000D01*
G75*
G02*
X73815000Y-85475000I0J-150000D01*
G01*
X73815000Y-87225000D01*
G75*
G02*
X73665000Y-87375000I-150000J0D01*
G01*
X73365000Y-87375000D01*
G75*
G02*
X73215000Y-87225000I0J150000D01*
G01*
X73215000Y-85475000D01*
G75*
G02*
X73365000Y-85325000I150000J0D01*
G01*
G37*
%TD.AperFunction*%
%TD*%
%TO.P,U5,24*%
%TO.N,/sheet5F613961/DIN*%
%TA.AperFunction,SMDPad,CuDef*%
G36*
G01*
X114365000Y-44625000D02*
X114665000Y-44625000D01*
G75*
G02*
X114815000Y-44775000I0J-150000D01*
G01*
X114815000Y-46525000D01*
G75*
G02*
X114665000Y-46675000I-150000J0D01*
G01*
X114365000Y-46675000D01*
G75*
G02*
X114215000Y-46525000I0J150000D01*
G01*
X114215000Y-44775000D01*
G75*
G02*
X114365000Y-44625000I150000J0D01*
G01*
G37*
%TD.AperFunction*%
%TO.P,U5,23*%
%TO.N,/sheet5F613960/SEG_D*%
%TA.AperFunction,SMDPad,CuDef*%
G36*
G01*
X115635000Y-44625000D02*
X115935000Y-44625000D01*
G75*
G02*
X116085000Y-44775000I0J-150000D01*
G01*
X116085000Y-46525000D01*
G75*
G02*
X115935000Y-46675000I-150000J0D01*
G01*
X115635000Y-46675000D01*
G75*
G02*
X115485000Y-46525000I0J150000D01*
G01*
X115485000Y-44775000D01*
G75*
G02*
X115635000Y-44625000I150000J0D01*
G01*
G37*
%TD.AperFunction*%
%TO.P,U5,22*%
%TO.N,/sheet5F613960/SEG_DP*%
%TA.AperFunction,SMDPad,CuDef*%
G36*
G01*
X116905000Y-44625000D02*
X117205000Y-44625000D01*
G75*
G02*
X117355000Y-44775000I0J-150000D01*
G01*
X117355000Y-46525000D01*
G75*
G02*
X117205000Y-46675000I-150000J0D01*
G01*
X116905000Y-46675000D01*
G75*
G02*
X116755000Y-46525000I0J150000D01*
G01*
X116755000Y-44775000D01*
G75*
G02*
X116905000Y-44625000I150000J0D01*
G01*
G37*
%TD.AperFunction*%
%TO.P,U5,21*%
%TO.N,/sheet5F613960/SEG_E*%
%TA.AperFunction,SMDPad,CuDef*%
G36*
G01*
X118175000Y-44625000D02*
X118475000Y-44625000D01*
G75*
G02*
X118625000Y-44775000I0J-150000D01*
G01*
X118625000Y-46525000D01*
G75*
G02*
X118475000Y-46675000I-150000J0D01*
G01*
X118175000Y-46675000D01*
G75*
G02*
X118025000Y-46525000I0J150000D01*
G01*
X118025000Y-44775000D01*
G75*
G02*
X118175000Y-44625000I150000J0D01*
G01*
G37*
%TD.AperFunction*%
%TO.P,U5,20*%
%TO.N,/sheet5F613960/SEG_C*%
%TA.AperFunction,SMDPad,CuDef*%
G36*
G01*
X119445000Y-44625000D02*
X119745000Y-44625000D01*
G75*
G02*
X119895000Y-44775000I0J-150000D01*
G01*
X119895000Y-46525000D01*
G75*
G02*
X119745000Y-46675000I-150000J0D01*
G01*
X119445000Y-46675000D01*
G75*
G02*
X119295000Y-46525000I0J150000D01*
G01*
X119295000Y-44775000D01*
G75*
G02*
X119445000Y-44625000I150000J0D01*
G01*
G37*
%TD.AperFunction*%
%TO.P,U5,19*%
%TO.N,+5V*%
%TA.AperFunction,SMDPad,CuDef*%
G36*
G01*
X120715000Y-44625000D02*
X121015000Y-44625000D01*
G75*
G02*
X121165000Y-44775000I0J-150000D01*
G01*
X121165000Y-46525000D01*
G75*
G02*
X121015000Y-46675000I-150000J0D01*
G01*
X120715000Y-46675000D01*
G75*
G02*
X120565000Y-46525000I0J150000D01*
G01*
X120565000Y-44775000D01*
G75*
G02*
X120715000Y-44625000I150000J0D01*
G01*
G37*
%TD.AperFunction*%
%TO.P,U5,18*%
%TO.N,ISET*%
%TA.AperFunction,SMDPad,CuDef*%
G36*
G01*
X121985000Y-44625000D02*
X122285000Y-44625000D01*
G75*
G02*
X122435000Y-44775000I0J-150000D01*
G01*
X122435000Y-46525000D01*
G75*
G02*
X122285000Y-46675000I-150000J0D01*
G01*
X121985000Y-46675000D01*
G75*
G02*
X121835000Y-46525000I0J150000D01*
G01*
X121835000Y-44775000D01*
G75*
G02*
X121985000Y-44625000I150000J0D01*
G01*
G37*
%TD.AperFunction*%
%TO.P,U5,17*%
%TO.N,/sheet5F613960/SEG_G*%
%TA.AperFunction,SMDPad,CuDef*%
G36*
G01*
X123255000Y-44625000D02*
X123555000Y-44625000D01*
G75*
G02*
X123705000Y-44775000I0J-150000D01*
G01*
X123705000Y-46525000D01*
G75*
G02*
X123555000Y-46675000I-150000J0D01*
G01*
X123255000Y-46675000D01*
G75*
G02*
X123105000Y-46525000I0J150000D01*
G01*
X123105000Y-44775000D01*
G75*
G02*
X123255000Y-44625000I150000J0D01*
G01*
G37*
%TD.AperFunction*%
%TO.P,U5,16*%
%TO.N,/sheet5F613960/SEG_B*%
%TA.AperFunction,SMDPad,CuDef*%
G36*
G01*
X124525000Y-44625000D02*
X124825000Y-44625000D01*
G75*
G02*
X124975000Y-44775000I0J-150000D01*
G01*
X124975000Y-46525000D01*
G75*
G02*
X124825000Y-46675000I-150000J0D01*
G01*
X124525000Y-46675000D01*
G75*
G02*
X124375000Y-46525000I0J150000D01*
G01*
X124375000Y-44775000D01*
G75*
G02*
X124525000Y-44625000I150000J0D01*
G01*
G37*
%TD.AperFunction*%
%TO.P,U5,15*%
%TO.N,/sheet5F613960/SEG_F*%
%TA.AperFunction,SMDPad,CuDef*%
G36*
G01*
X125795000Y-44625000D02*
X126095000Y-44625000D01*
G75*
G02*
X126245000Y-44775000I0J-150000D01*
G01*
X126245000Y-46525000D01*
G75*
G02*
X126095000Y-46675000I-150000J0D01*
G01*
X125795000Y-46675000D01*
G75*
G02*
X125645000Y-46525000I0J150000D01*
G01*
X125645000Y-44775000D01*
G75*
G02*
X125795000Y-44625000I150000J0D01*
G01*
G37*
%TD.AperFunction*%
%TO.P,U5,14*%
%TO.N,/sheet5F613960/SEG_A*%
%TA.AperFunction,SMDPad,CuDef*%
G36*
G01*
X127065000Y-44625000D02*
X127365000Y-44625000D01*
G75*
G02*
X127515000Y-44775000I0J-150000D01*
G01*
X127515000Y-46525000D01*
G75*
G02*
X127365000Y-46675000I-150000J0D01*
G01*
X127065000Y-46675000D01*
G75*
G02*
X126915000Y-46525000I0J150000D01*
G01*
X126915000Y-44775000D01*
G75*
G02*
X127065000Y-44625000I150000J0D01*
G01*
G37*
%TD.AperFunction*%
%TO.P,U5,13*%
%TO.N,CLK*%
%TA.AperFunction,SMDPad,CuDef*%
G36*
G01*
X128335000Y-44625000D02*
X128635000Y-44625000D01*
G75*
G02*
X128785000Y-44775000I0J-150000D01*
G01*
X128785000Y-46525000D01*
G75*
G02*
X128635000Y-46675000I-150000J0D01*
G01*
X128335000Y-46675000D01*
G75*
G02*
X128185000Y-46525000I0J150000D01*
G01*
X128185000Y-44775000D01*
G75*
G02*
X128335000Y-44625000I150000J0D01*
G01*
G37*
%TD.AperFunction*%
%TO.P,U5,12*%
%TO.N,CS_LOAD*%
%TA.AperFunction,SMDPad,CuDef*%
G36*
G01*
X128335000Y-35325000D02*
X128635000Y-35325000D01*
G75*
G02*
X128785000Y-35475000I0J-150000D01*
G01*
X128785000Y-37225000D01*
G75*
G02*
X128635000Y-37375000I-150000J0D01*
G01*
X128335000Y-37375000D01*
G75*
G02*
X128185000Y-37225000I0J150000D01*
G01*
X128185000Y-35475000D01*
G75*
G02*
X128335000Y-35325000I150000J0D01*
G01*
G37*
%TD.AperFunction*%
%TO.P,U5,11*%
%TO.N,/sheet5F613960/DIG_1*%
%TA.AperFunction,SMDPad,CuDef*%
G36*
G01*
X127065000Y-35325000D02*
X127365000Y-35325000D01*
G75*
G02*
X127515000Y-35475000I0J-150000D01*
G01*
X127515000Y-37225000D01*
G75*
G02*
X127365000Y-37375000I-150000J0D01*
G01*
X127065000Y-37375000D01*
G75*
G02*
X126915000Y-37225000I0J150000D01*
G01*
X126915000Y-35475000D01*
G75*
G02*
X127065000Y-35325000I150000J0D01*
G01*
G37*
%TD.AperFunction*%
%TO.P,U5,10*%
%TO.N,Net-(U5-Pad10)*%
%TA.AperFunction,SMDPad,CuDef*%
G36*
G01*
X125795000Y-35325000D02*
X126095000Y-35325000D01*
G75*
G02*
X126245000Y-35475000I0J-150000D01*
G01*
X126245000Y-37225000D01*
G75*
G02*
X126095000Y-37375000I-150000J0D01*
G01*
X125795000Y-37375000D01*
G75*
G02*
X125645000Y-37225000I0J150000D01*
G01*
X125645000Y-35475000D01*
G75*
G02*
X125795000Y-35325000I150000J0D01*
G01*
G37*
%TD.AperFunction*%
%TO.P,U5,9*%
%TO.N,GND*%
%TA.AperFunction,SMDPad,CuDef*%
G36*
G01*
X124525000Y-35325000D02*
X124825000Y-35325000D01*
G75*
G02*
X124975000Y-35475000I0J-150000D01*
G01*
X124975000Y-37225000D01*
G75*
G02*
X124825000Y-37375000I-150000J0D01*
G01*
X124525000Y-37375000D01*
G75*
G02*
X124375000Y-37225000I0J150000D01*
G01*
X124375000Y-35475000D01*
G75*
G02*
X124525000Y-35325000I150000J0D01*
G01*
G37*
%TD.AperFunction*%
%TO.P,U5,8*%
%TO.N,Net-(U5-Pad8)*%
%TA.AperFunction,SMDPad,CuDef*%
G36*
G01*
X123255000Y-35325000D02*
X123555000Y-35325000D01*
G75*
G02*
X123705000Y-35475000I0J-150000D01*
G01*
X123705000Y-37225000D01*
G75*
G02*
X123555000Y-37375000I-150000J0D01*
G01*
X123255000Y-37375000D01*
G75*
G02*
X123105000Y-37225000I0J150000D01*
G01*
X123105000Y-35475000D01*
G75*
G02*
X123255000Y-35325000I150000J0D01*
G01*
G37*
%TD.AperFunction*%
%TO.P,U5,7*%
%TO.N,/sheet5F613960/DIG_3*%
%TA.AperFunction,SMDPad,CuDef*%
G36*
G01*
X121985000Y-35325000D02*
X122285000Y-35325000D01*
G75*
G02*
X122435000Y-35475000I0J-150000D01*
G01*
X122435000Y-37225000D01*
G75*
G02*
X122285000Y-37375000I-150000J0D01*
G01*
X121985000Y-37375000D01*
G75*
G02*
X121835000Y-37225000I0J150000D01*
G01*
X121835000Y-35475000D01*
G75*
G02*
X121985000Y-35325000I150000J0D01*
G01*
G37*
%TD.AperFunction*%
%TO.P,U5,6*%
%TO.N,/sheet5F613960/DIG_2*%
%TA.AperFunction,SMDPad,CuDef*%
G36*
G01*
X120715000Y-35325000D02*
X121015000Y-35325000D01*
G75*
G02*
X121165000Y-35475000I0J-150000D01*
G01*
X121165000Y-37225000D01*
G75*
G02*
X121015000Y-37375000I-150000J0D01*
G01*
X120715000Y-37375000D01*
G75*
G02*
X120565000Y-37225000I0J150000D01*
G01*
X120565000Y-35475000D01*
G75*
G02*
X120715000Y-35325000I150000J0D01*
G01*
G37*
%TD.AperFunction*%
%TO.P,U5,5*%
%TO.N,Net-(U5-Pad5)*%
%TA.AperFunction,SMDPad,CuDef*%
G36*
G01*
X119445000Y-35325000D02*
X119745000Y-35325000D01*
G75*
G02*
X119895000Y-35475000I0J-150000D01*
G01*
X119895000Y-37225000D01*
G75*
G02*
X119745000Y-37375000I-150000J0D01*
G01*
X119445000Y-37375000D01*
G75*
G02*
X119295000Y-37225000I0J150000D01*
G01*
X119295000Y-35475000D01*
G75*
G02*
X119445000Y-35325000I150000J0D01*
G01*
G37*
%TD.AperFunction*%
%TO.P,U5,4*%
%TO.N,GND*%
%TA.AperFunction,SMDPad,CuDef*%
G36*
G01*
X118175000Y-35325000D02*
X118475000Y-35325000D01*
G75*
G02*
X118625000Y-35475000I0J-150000D01*
G01*
X118625000Y-37225000D01*
G75*
G02*
X118475000Y-37375000I-150000J0D01*
G01*
X118175000Y-37375000D01*
G75*
G02*
X118025000Y-37225000I0J150000D01*
G01*
X118025000Y-35475000D01*
G75*
G02*
X118175000Y-35325000I150000J0D01*
G01*
G37*
%TD.AperFunction*%
%TO.P,U5,3*%
%TO.N,/sheet5F613960/DIG_4*%
%TA.AperFunction,SMDPad,CuDef*%
G36*
G01*
X116905000Y-35325000D02*
X117205000Y-35325000D01*
G75*
G02*
X117355000Y-35475000I0J-150000D01*
G01*
X117355000Y-37225000D01*
G75*
G02*
X117205000Y-37375000I-150000J0D01*
G01*
X116905000Y-37375000D01*
G75*
G02*
X116755000Y-37225000I0J150000D01*
G01*
X116755000Y-35475000D01*
G75*
G02*
X116905000Y-35325000I150000J0D01*
G01*
G37*
%TD.AperFunction*%
%TO.P,U5,2*%
%TO.N,/sheet5F613960/DIG_0*%
%TA.AperFunction,SMDPad,CuDef*%
G36*
G01*
X115635000Y-35325000D02*
X115935000Y-35325000D01*
G75*
G02*
X116085000Y-35475000I0J-150000D01*
G01*
X116085000Y-37225000D01*
G75*
G02*
X115935000Y-37375000I-150000J0D01*
G01*
X115635000Y-37375000D01*
G75*
G02*
X115485000Y-37225000I0J150000D01*
G01*
X115485000Y-35475000D01*
G75*
G02*
X115635000Y-35325000I150000J0D01*
G01*
G37*
%TD.AperFunction*%
%TO.P,U5,1*%
%TO.N,/sheet5F613960/DIN*%
%TA.AperFunction,SMDPad,CuDef*%
G36*
G01*
X114365000Y-35325000D02*
X114665000Y-35325000D01*
G75*
G02*
X114815000Y-35475000I0J-150000D01*
G01*
X114815000Y-37225000D01*
G75*
G02*
X114665000Y-37375000I-150000J0D01*
G01*
X114365000Y-37375000D01*
G75*
G02*
X114215000Y-37225000I0J150000D01*
G01*
X114215000Y-35475000D01*
G75*
G02*
X114365000Y-35325000I150000J0D01*
G01*
G37*
%TD.AperFunction*%
%TD*%
D10*
%TO.P,U4,7*%
%TO.N,Net-(U4-Pad7)*%
X106620000Y-46080000D03*
%TO.P,U4,8*%
%TO.N,/sheet5F611637/DIG_4*%
X106620000Y-35920000D03*
%TO.P,U4,6*%
%TO.N,/sheet5F611637/DIG_3*%
X104080000Y-46080000D03*
%TO.P,U4,9*%
%TO.N,/sheet5F611637/SEG_B*%
X104080000Y-35920000D03*
%TO.P,U4,5*%
%TO.N,/sheet5F611637/SEG_G*%
X101540000Y-46080000D03*
%TO.P,U4,10*%
%TO.N,/sheet5F611637/DIG_2*%
X101540000Y-35920000D03*
%TO.P,U4,4*%
%TO.N,/sheet5F611637/SEG_C*%
X99000000Y-46080000D03*
%TO.P,U4,11*%
%TO.N,/sheet5F611637/DIG_1*%
X99000000Y-35920000D03*
%TO.P,U4,3*%
%TO.N,/sheet5F611637/SEG_DP*%
X96460000Y-46080000D03*
%TO.P,U4,12*%
%TO.N,/sheet5F611637/SEG_F*%
X96460000Y-35920000D03*
%TO.P,U4,2*%
%TO.N,/sheet5F611637/SEG_D*%
X93920000Y-46080000D03*
%TO.P,U4,13*%
%TO.N,/sheet5F611637/SEG_A*%
X93920000Y-35920000D03*
%TO.P,U4,1*%
%TO.N,/sheet5F611637/SEG_E*%
X91380000Y-46080000D03*
%TO.P,U4,14*%
%TO.N,/sheet5F611637/DIG_0*%
X91380000Y-35920000D03*
%TD*%
D11*
%TO.P,RV1,1*%
%TO.N,Net-(R1-Pad2)*%
X155500000Y-68500000D03*
%TO.P,RV1,3*%
%TO.N,ISET*%
X155500000Y-63500000D03*
%TO.P,RV1,2*%
%TO.N,Net-(RV1-Pad2)*%
X160500000Y-66000000D03*
%TD*%
D10*
%TO.P,U2,7*%
%TO.N,Net-(U2-Pad7)*%
X68620000Y-46080000D03*
%TO.P,U2,8*%
%TO.N,/5 digit LCD display/DIG_4*%
X68620000Y-35920000D03*
%TO.P,U2,6*%
%TO.N,/5 digit LCD display/DIG_3*%
X66080000Y-46080000D03*
%TO.P,U2,9*%
%TO.N,/5 digit LCD display/SEG_B*%
X66080000Y-35920000D03*
%TO.P,U2,5*%
%TO.N,/5 digit LCD display/SEG_G*%
X63540000Y-46080000D03*
%TO.P,U2,10*%
%TO.N,/5 digit LCD display/DIG_2*%
X63540000Y-35920000D03*
%TO.P,U2,4*%
%TO.N,/5 digit LCD display/SEG_C*%
X61000000Y-46080000D03*
%TO.P,U2,11*%
%TO.N,/5 digit LCD display/DIG_1*%
X61000000Y-35920000D03*
%TO.P,U2,3*%
%TO.N,/5 digit LCD display/SEG_DP*%
X58460000Y-46080000D03*
%TO.P,U2,12*%
%TO.N,/5 digit LCD display/SEG_F*%
X58460000Y-35920000D03*
%TO.P,U2,2*%
%TO.N,/5 digit LCD display/SEG_D*%
X55920000Y-46080000D03*
%TO.P,U2,13*%
%TO.N,/5 digit LCD display/SEG_A*%
X55920000Y-35920000D03*
%TO.P,U2,1*%
%TO.N,/5 digit LCD display/SEG_E*%
X53380000Y-46080000D03*
%TO.P,U2,14*%
%TO.N,/5 digit LCD display/DIG_0*%
X53380000Y-35920000D03*
%TD*%
%TO.P,U6,7*%
%TO.N,Net-(U6-Pad7)*%
X147620000Y-46080000D03*
%TO.P,U6,8*%
%TO.N,/sheet5F613960/DIG_4*%
X147620000Y-35920000D03*
%TO.P,U6,6*%
%TO.N,/sheet5F613960/DIG_3*%
X145080000Y-46080000D03*
%TO.P,U6,9*%
%TO.N,/sheet5F613960/SEG_B*%
X145080000Y-35920000D03*
%TO.P,U6,5*%
%TO.N,/sheet5F613960/SEG_G*%
X142540000Y-46080000D03*
%TO.P,U6,10*%
%TO.N,/sheet5F613960/DIG_2*%
X142540000Y-35920000D03*
%TO.P,U6,4*%
%TO.N,/sheet5F613960/SEG_C*%
X140000000Y-46080000D03*
%TO.P,U6,11*%
%TO.N,/sheet5F613960/DIG_1*%
X140000000Y-35920000D03*
%TO.P,U6,3*%
%TO.N,/sheet5F613960/SEG_DP*%
X137460000Y-46080000D03*
%TO.P,U6,12*%
%TO.N,/sheet5F613960/SEG_F*%
X137460000Y-35920000D03*
%TO.P,U6,2*%
%TO.N,/sheet5F613960/SEG_D*%
X134920000Y-46080000D03*
%TO.P,U6,13*%
%TO.N,/sheet5F613960/SEG_A*%
X134920000Y-35920000D03*
%TO.P,U6,1*%
%TO.N,/sheet5F613960/SEG_E*%
X132380000Y-46080000D03*
%TO.P,U6,14*%
%TO.N,/sheet5F613960/DIG_0*%
X132380000Y-35920000D03*
%TD*%
%TO.P,U8,7*%
%TO.N,Net-(U8-Pad7)*%
X185620000Y-46080000D03*
%TO.P,U8,8*%
%TO.N,/sheet5F613961/DIG_4*%
X185620000Y-35920000D03*
%TO.P,U8,6*%
%TO.N,/sheet5F613961/DIG_3*%
X183080000Y-46080000D03*
%TO.P,U8,9*%
%TO.N,/sheet5F613961/SEG_B*%
X183080000Y-35920000D03*
%TO.P,U8,5*%
%TO.N,/sheet5F613961/SEG_G*%
X180540000Y-46080000D03*
%TO.P,U8,10*%
%TO.N,/sheet5F613961/DIG_2*%
X180540000Y-35920000D03*
%TO.P,U8,4*%
%TO.N,/sheet5F613961/SEG_C*%
X178000000Y-46080000D03*
%TO.P,U8,11*%
%TO.N,/sheet5F613961/DIG_1*%
X178000000Y-35920000D03*
%TO.P,U8,3*%
%TO.N,/sheet5F613961/SEG_DP*%
X175460000Y-46080000D03*
%TO.P,U8,12*%
%TO.N,/sheet5F613961/SEG_F*%
X175460000Y-35920000D03*
%TO.P,U8,2*%
%TO.N,/sheet5F613961/SEG_D*%
X172920000Y-46080000D03*
%TO.P,U8,13*%
%TO.N,/sheet5F613961/SEG_A*%
X172920000Y-35920000D03*
%TO.P,U8,1*%
%TO.N,/sheet5F613961/SEG_E*%
X170380000Y-46080000D03*
%TO.P,U8,14*%
%TO.N,/sheet5F613961/DIG_0*%
X170380000Y-35920000D03*
%TD*%
D12*
%TO.P,D3,2*%
%TO.N,Net-(D3-Pad2)*%
X59540000Y-66000000D03*
D13*
%TO.P,D3,1*%
%TO.N,GND*%
X57000000Y-66000000D03*
%TD*%
D14*
%TO.P,SW1,2*%
%TO.N,COMM1_XFR*%
X76750000Y-58500000D03*
%TO.P,SW1,1*%
%TO.N,GND*%
X76750000Y-54000000D03*
%TO.P,SW1,2*%
%TO.N,COMM1_XFR*%
X83250000Y-58500000D03*
%TO.P,SW1,1*%
%TO.N,GND*%
X83250000Y-54000000D03*
%TD*%
%TO.P,SW2,1*%
%TO.N,GND*%
X162250000Y-54000000D03*
%TO.P,SW2,2*%
%TO.N,NAV1_XFR*%
X162250000Y-58500000D03*
%TO.P,SW2,1*%
%TO.N,GND*%
X155750000Y-54000000D03*
%TO.P,SW2,2*%
%TO.N,NAV1_XFR*%
X155750000Y-58500000D03*
%TD*%
%TO.P,SW3,2*%
%TO.N,IDENT1_SW*%
X125000000Y-68500000D03*
%TO.P,SW3,1*%
%TO.N,GND*%
X125000000Y-64000000D03*
%TO.P,SW3,2*%
%TO.N,IDENT1_SW*%
X131500000Y-68500000D03*
%TO.P,SW3,1*%
%TO.N,GND*%
X131500000Y-64000000D03*
%TD*%
D15*
%TO.P,J2,6*%
%TO.N,Net-(J2-Pad6)*%
X31462500Y-102000000D03*
D16*
X34162500Y-105500000D03*
D17*
%TO.P,J2,2*%
%TO.N,Net-(J2-Pad2)*%
X34162500Y-103650000D03*
%TO.P,J2,1*%
%TO.N,+5V*%
X34162500Y-104300000D03*
%TO.P,J2,5*%
%TO.N,GND*%
X34162500Y-101700000D03*
%TO.P,J2,4*%
%TO.N,Net-(J2-Pad4)*%
X34162500Y-102350000D03*
%TO.P,J2,3*%
%TO.N,Net-(J2-Pad3)*%
X34162500Y-103000000D03*
D16*
%TO.P,J2,6*%
%TO.N,Net-(J2-Pad6)*%
X34162500Y-100500000D03*
D15*
X31462500Y-104000000D03*
D18*
X31462500Y-106500000D03*
X31462500Y-99500000D03*
D19*
X31462500Y-100100000D03*
X31462500Y-105900000D03*
%TD*%
D20*
%TO.P,J3,MH2*%
%TO.N,Net-(J3-PadMH2)*%
X106000000Y-55850000D03*
%TO.P,J3,MH1*%
%TO.N,Net-(J3-PadMH1)*%
X106000000Y-65150000D03*
D12*
%TO.P,J3,E1*%
%TO.N,GND*%
X99000000Y-58000000D03*
%TO.P,J3,D1*%
%TO.N,COMM1_KHZ_SW*%
X99000000Y-63000000D03*
%TO.P,J3,C1*%
%TO.N,GND*%
X113500000Y-60500000D03*
%TO.P,J3,B1*%
%TO.N,/Tuning rotary encoder and switch/B1*%
X113500000Y-58000000D03*
%TO.P,J3,A1*%
%TO.N,/Tuning rotary encoder and switch/A1*%
X113500000Y-63000000D03*
%TD*%
%TO.P,J4,A1*%
%TO.N,/sheet5F5DD32A/A1*%
X193000000Y-63000000D03*
%TO.P,J4,B1*%
%TO.N,/sheet5F5DD32A/B1*%
X193000000Y-58000000D03*
%TO.P,J4,C1*%
%TO.N,GND*%
X193000000Y-60500000D03*
%TO.P,J4,D1*%
%TO.N,NAV1_KHZ_SW*%
X178500000Y-63000000D03*
%TO.P,J4,E1*%
%TO.N,GND*%
X178500000Y-58000000D03*
D20*
%TO.P,J4,MH1*%
%TO.N,Net-(J4-PadMH1)*%
X185500000Y-65150000D03*
%TO.P,J4,MH2*%
%TO.N,Net-(J4-PadMH2)*%
X185500000Y-55850000D03*
%TD*%
D12*
%TO.P,D6,2*%
%TO.N,Net-(D6-Pad2)*%
X59540000Y-116000000D03*
D13*
%TO.P,D6,1*%
%TO.N,GND*%
X57000000Y-116000000D03*
%TD*%
D12*
%TO.P,J1,A1*%
%TO.N,/sheet5F71BCD2/A1*%
X113500000Y-113000000D03*
%TO.P,J1,B1*%
%TO.N,/sheet5F71BCD2/B1*%
X113500000Y-108000000D03*
%TO.P,J1,C1*%
%TO.N,GND*%
X113500000Y-110500000D03*
%TO.P,J1,D1*%
%TO.N,COMM2_KHZ_SW*%
X99000000Y-113000000D03*
%TO.P,J1,E1*%
%TO.N,GND*%
X99000000Y-108000000D03*
D20*
%TO.P,J1,MH1*%
%TO.N,Net-(J1-PadMH1)*%
X106000000Y-115150000D03*
%TO.P,J1,MH2*%
%TO.N,Net-(J1-PadMH2)*%
X106000000Y-105850000D03*
%TD*%
%TO.P,J6,MH2*%
%TO.N,Net-(J6-PadMH2)*%
X185500000Y-105850000D03*
%TO.P,J6,MH1*%
%TO.N,Net-(J6-PadMH1)*%
X185500000Y-115150000D03*
D12*
%TO.P,J6,E1*%
%TO.N,GND*%
X178500000Y-108000000D03*
%TO.P,J6,D1*%
%TO.N,NAV2_KHZ_SW*%
X178500000Y-113000000D03*
%TO.P,J6,C1*%
%TO.N,GND*%
X193000000Y-110500000D03*
%TO.P,J6,B1*%
%TO.N,/sheet5F71BCD3/B1*%
X193000000Y-108000000D03*
%TO.P,J6,A1*%
%TO.N,/sheet5F71BCD3/A1*%
X193000000Y-113000000D03*
%TD*%
D14*
%TO.P,SW4,2*%
%TO.N,COMM2_XFR*%
X76750000Y-108500000D03*
%TO.P,SW4,1*%
%TO.N,GND*%
X76750000Y-104000000D03*
%TO.P,SW4,2*%
%TO.N,COMM2_XFR*%
X83250000Y-108500000D03*
%TO.P,SW4,1*%
%TO.N,GND*%
X83250000Y-104000000D03*
%TD*%
%TO.P,SW5,1*%
%TO.N,GND*%
X162250000Y-104000000D03*
%TO.P,SW5,2*%
%TO.N,NAV2_XFR*%
X162250000Y-108500000D03*
%TO.P,SW5,1*%
%TO.N,GND*%
X155750000Y-104000000D03*
%TO.P,SW5,2*%
%TO.N,NAV2_XFR*%
X155750000Y-108500000D03*
%TD*%
%TO.P,SW6,2*%
%TO.N,IDENT2_SW*%
X125000000Y-118500000D03*
%TO.P,SW6,1*%
%TO.N,GND*%
X125000000Y-114000000D03*
%TO.P,SW6,2*%
%TO.N,IDENT2_SW*%
X131500000Y-118500000D03*
%TO.P,SW6,1*%
%TO.N,GND*%
X131500000Y-114000000D03*
%TD*%
D10*
%TO.P,U10,14*%
%TO.N,/sheet5F68A9C2/DIG_0*%
X53380000Y-85920000D03*
%TO.P,U10,1*%
%TO.N,/sheet5F68A9C2/SEG_E*%
X53380000Y-96080000D03*
%TO.P,U10,13*%
%TO.N,/sheet5F68A9C2/SEG_A*%
X55920000Y-85920000D03*
%TO.P,U10,2*%
%TO.N,/sheet5F68A9C2/SEG_D*%
X55920000Y-96080000D03*
%TO.P,U10,12*%
%TO.N,/sheet5F68A9C2/SEG_F*%
X58460000Y-85920000D03*
%TO.P,U10,3*%
%TO.N,/sheet5F68A9C2/SEG_DP*%
X58460000Y-96080000D03*
%TO.P,U10,11*%
%TO.N,/sheet5F68A9C2/DIG_1*%
X61000000Y-85920000D03*
%TO.P,U10,4*%
%TO.N,/sheet5F68A9C2/SEG_C*%
X61000000Y-96080000D03*
%TO.P,U10,10*%
%TO.N,/sheet5F68A9C2/DIG_2*%
X63540000Y-85920000D03*
%TO.P,U10,5*%
%TO.N,/sheet5F68A9C2/SEG_G*%
X63540000Y-96080000D03*
%TO.P,U10,9*%
%TO.N,/sheet5F68A9C2/SEG_B*%
X66080000Y-85920000D03*
%TO.P,U10,6*%
%TO.N,/sheet5F68A9C2/DIG_3*%
X66080000Y-96080000D03*
%TO.P,U10,8*%
%TO.N,/sheet5F68A9C2/DIG_4*%
X68620000Y-85920000D03*
%TO.P,U10,7*%
%TO.N,Net-(U10-Pad7)*%
X68620000Y-96080000D03*
%TD*%
%TO.P,U12,7*%
%TO.N,Net-(U12-Pad7)*%
X147620000Y-96080000D03*
%TO.P,U12,8*%
%TO.N,/sheet5F68A9C3/DIG_4*%
X147620000Y-85920000D03*
%TO.P,U12,6*%
%TO.N,/sheet5F68A9C3/DIG_3*%
X145080000Y-96080000D03*
%TO.P,U12,9*%
%TO.N,/sheet5F68A9C3/SEG_B*%
X145080000Y-85920000D03*
%TO.P,U12,5*%
%TO.N,/sheet5F68A9C3/SEG_G*%
X142540000Y-96080000D03*
%TO.P,U12,10*%
%TO.N,/sheet5F68A9C3/DIG_2*%
X142540000Y-85920000D03*
%TO.P,U12,4*%
%TO.N,/sheet5F68A9C3/SEG_C*%
X140000000Y-96080000D03*
%TO.P,U12,11*%
%TO.N,/sheet5F68A9C3/DIG_1*%
X140000000Y-85920000D03*
%TO.P,U12,3*%
%TO.N,/sheet5F68A9C3/SEG_DP*%
X137460000Y-96080000D03*
%TO.P,U12,12*%
%TO.N,/sheet5F68A9C3/SEG_F*%
X137460000Y-85920000D03*
%TO.P,U12,2*%
%TO.N,/sheet5F68A9C3/SEG_D*%
X134920000Y-96080000D03*
%TO.P,U12,13*%
%TO.N,/sheet5F68A9C3/SEG_A*%
X134920000Y-85920000D03*
%TO.P,U12,1*%
%TO.N,/sheet5F68A9C3/SEG_E*%
X132380000Y-96080000D03*
%TO.P,U12,14*%
%TO.N,/sheet5F68A9C3/DIG_0*%
X132380000Y-85920000D03*
%TD*%
%TO.P,U14,7*%
%TO.N,Net-(U14-Pad7)*%
X185620000Y-96080000D03*
%TO.P,U14,8*%
%TO.N,/sheet5F68A9C4/DIG_4*%
X185620000Y-85920000D03*
%TO.P,U14,6*%
%TO.N,/sheet5F68A9C4/DIG_3*%
X183080000Y-96080000D03*
%TO.P,U14,9*%
%TO.N,/sheet5F68A9C4/SEG_B*%
X183080000Y-85920000D03*
%TO.P,U14,5*%
%TO.N,/sheet5F68A9C4/SEG_G*%
X180540000Y-96080000D03*
%TO.P,U14,10*%
%TO.N,/sheet5F68A9C4/DIG_2*%
X180540000Y-85920000D03*
%TO.P,U14,4*%
%TO.N,/sheet5F68A9C4/SEG_C*%
X178000000Y-96080000D03*
%TO.P,U14,11*%
%TO.N,/sheet5F68A9C4/DIG_1*%
X178000000Y-85920000D03*
%TO.P,U14,3*%
%TO.N,/sheet5F68A9C4/SEG_DP*%
X175460000Y-96080000D03*
%TO.P,U14,12*%
%TO.N,/sheet5F68A9C4/SEG_F*%
X175460000Y-85920000D03*
%TO.P,U14,2*%
%TO.N,/sheet5F68A9C4/SEG_D*%
X172920000Y-96080000D03*
%TO.P,U14,13*%
%TO.N,/sheet5F68A9C4/SEG_A*%
X172920000Y-85920000D03*
%TO.P,U14,1*%
%TO.N,/sheet5F68A9C4/SEG_E*%
X170380000Y-96080000D03*
%TO.P,U14,14*%
%TO.N,/sheet5F68A9C4/DIG_0*%
X170380000Y-85920000D03*
%TD*%
%TO.P,U16,14*%
%TO.N,/sheet5F68A9C5/DIG_0*%
X91380000Y-85920000D03*
%TO.P,U16,1*%
%TO.N,/sheet5F68A9C5/SEG_E*%
X91380000Y-96080000D03*
%TO.P,U16,13*%
%TO.N,/sheet5F68A9C5/SEG_A*%
X93920000Y-85920000D03*
%TO.P,U16,2*%
%TO.N,/sheet5F68A9C5/SEG_D*%
X93920000Y-96080000D03*
%TO.P,U16,12*%
%TO.N,/sheet5F68A9C5/SEG_F*%
X96460000Y-85920000D03*
%TO.P,U16,3*%
%TO.N,/sheet5F68A9C5/SEG_DP*%
X96460000Y-96080000D03*
%TO.P,U16,11*%
%TO.N,/sheet5F68A9C5/DIG_1*%
X99000000Y-85920000D03*
%TO.P,U16,4*%
%TO.N,/sheet5F68A9C5/SEG_C*%
X99000000Y-96080000D03*
%TO.P,U16,10*%
%TO.N,/sheet5F68A9C5/DIG_2*%
X101540000Y-85920000D03*
%TO.P,U16,5*%
%TO.N,/sheet5F68A9C5/SEG_G*%
X101540000Y-96080000D03*
%TO.P,U16,9*%
%TO.N,/sheet5F68A9C5/SEG_B*%
X104080000Y-85920000D03*
%TO.P,U16,6*%
%TO.N,/sheet5F68A9C5/DIG_3*%
X104080000Y-96080000D03*
%TO.P,U16,8*%
%TO.N,/sheet5F68A9C5/DIG_4*%
X106620000Y-85920000D03*
%TO.P,U16,7*%
%TO.N,Net-(U16-Pad7)*%
X106620000Y-96080000D03*
%TD*%
D14*
%TO.P,SW7,2*%
%TO.N,RADIO1_SW*%
X43000000Y-68500000D03*
%TO.P,SW7,1*%
%TO.N,GND*%
X43000000Y-64000000D03*
%TO.P,SW7,2*%
%TO.N,RADIO1_SW*%
X49500000Y-68500000D03*
%TO.P,SW7,1*%
%TO.N,GND*%
X49500000Y-64000000D03*
%TD*%
%TO.P,SW8,1*%
%TO.N,GND*%
X49500000Y-114000000D03*
%TO.P,SW8,2*%
%TO.N,RADIO2_SW*%
X49500000Y-118500000D03*
%TO.P,SW8,1*%
%TO.N,GND*%
X43000000Y-114000000D03*
%TO.P,SW8,2*%
%TO.N,RADIO2_SW*%
X43000000Y-118500000D03*
%TD*%
D21*
%TO.P,J5,1*%
%TO.N,CS_LOAD*%
X204500000Y-60000000D03*
D22*
%TO.P,J5,2*%
%TO.N,+5V*%
X201960000Y-60000000D03*
%TO.P,J5,3*%
%TO.N,CLK*%
X204500000Y-62540000D03*
%TO.P,J5,4*%
%TO.N,GND*%
X201960000Y-62540000D03*
%TO.P,J5,5*%
%TO.N,DIN*%
X204500000Y-65080000D03*
%TO.P,J5,6*%
%TO.N,Net-(J5-Pad6)*%
X201960000Y-65080000D03*
%TO.P,J5,7*%
%TO.N,COMM1_LEFT*%
X204500000Y-67620000D03*
%TO.P,J5,8*%
%TO.N,COMM2_LEFT*%
X201960000Y-67620000D03*
%TO.P,J5,9*%
%TO.N,COMM1_RIGHT*%
X204500000Y-70160000D03*
%TO.P,J5,10*%
%TO.N,COMM2_RIGHT*%
X201960000Y-70160000D03*
%TO.P,J5,11*%
%TO.N,COMM1_KHZ_SW*%
X204500000Y-72700000D03*
%TO.P,J5,12*%
%TO.N,COMM2_KHZ_SW*%
X201960000Y-72700000D03*
%TO.P,J5,13*%
%TO.N,COMM1_XFR*%
X204500000Y-75240000D03*
%TO.P,J5,14*%
%TO.N,COMM2_XFR*%
X201960000Y-75240000D03*
%TO.P,J5,15*%
%TO.N,NAV1_LEFT*%
X204500000Y-77780000D03*
%TO.P,J5,16*%
%TO.N,NAV2_LEFT*%
X201960000Y-77780000D03*
%TO.P,J5,17*%
%TO.N,NAV1_RIGHT*%
X204500000Y-80320000D03*
%TO.P,J5,18*%
%TO.N,NAV2_RIGHT*%
X201960000Y-80320000D03*
%TO.P,J5,19*%
%TO.N,NAV1_KHZ_SW*%
X204500000Y-82860000D03*
%TO.P,J5,20*%
%TO.N,NAV2_KHZ_SW*%
X201960000Y-82860000D03*
%TO.P,J5,21*%
%TO.N,NAV1_XFR*%
X204500000Y-85400000D03*
%TO.P,J5,22*%
%TO.N,NAV2_XFR*%
X201960000Y-85400000D03*
%TO.P,J5,23*%
%TO.N,RADIO1_SW*%
X204500000Y-87940000D03*
%TO.P,J5,24*%
%TO.N,RADIO2_SW*%
X201960000Y-87940000D03*
%TO.P,J5,25*%
%TO.N,RADIO1_LED*%
X204500000Y-90480000D03*
%TO.P,J5,26*%
%TO.N,RADIO2_LED*%
X201960000Y-90480000D03*
%TO.P,J5,27*%
%TO.N,IDENT1_SW*%
X204500000Y-93020000D03*
%TO.P,J5,28*%
%TO.N,IDENT2_SW*%
X201960000Y-93020000D03*
%TO.P,J5,29*%
%TO.N,GND*%
X204500000Y-95560000D03*
%TO.P,J5,30*%
X201960000Y-95560000D03*
%TD*%
%TO.P,C1,1*%
%TO.N,+5V*%
%TA.AperFunction,SMDPad,CuDef*%
G36*
G01*
X35950000Y-104425001D02*
X35950000Y-103574999D01*
G75*
G02*
X36199999Y-103325000I249999J0D01*
G01*
X37100001Y-103325000D01*
G75*
G02*
X37350000Y-103574999I0J-249999D01*
G01*
X37350000Y-104425001D01*
G75*
G02*
X37100001Y-104675000I-249999J0D01*
G01*
X36199999Y-104675000D01*
G75*
G02*
X35950000Y-104425001I0J249999D01*
G01*
G37*
%TD.AperFunction*%
%TO.P,C1,2*%
%TO.N,GND*%
%TA.AperFunction,SMDPad,CuDef*%
G36*
G01*
X38650000Y-104425001D02*
X38650000Y-103574999D01*
G75*
G02*
X38899999Y-103325000I249999J0D01*
G01*
X39800001Y-103325000D01*
G75*
G02*
X40050000Y-103574999I0J-249999D01*
G01*
X40050000Y-104425001D01*
G75*
G02*
X39800001Y-104675000I-249999J0D01*
G01*
X38899999Y-104675000D01*
G75*
G02*
X38650000Y-104425001I0J249999D01*
G01*
G37*
%TD.AperFunction*%
%TD*%
%TO.P,C2,1*%
%TO.N,+5V*%
%TA.AperFunction,SMDPad,CuDef*%
G36*
G01*
X41743750Y-50275000D02*
X42256250Y-50275000D01*
G75*
G02*
X42475000Y-50493750I0J-218750D01*
G01*
X42475000Y-50931250D01*
G75*
G02*
X42256250Y-51150000I-218750J0D01*
G01*
X41743750Y-51150000D01*
G75*
G02*
X41525000Y-50931250I0J218750D01*
G01*
X41525000Y-50493750D01*
G75*
G02*
X41743750Y-50275000I218750J0D01*
G01*
G37*
%TD.AperFunction*%
%TO.P,C2,2*%
%TO.N,GND*%
%TA.AperFunction,SMDPad,CuDef*%
G36*
G01*
X41743750Y-51850000D02*
X42256250Y-51850000D01*
G75*
G02*
X42475000Y-52068750I0J-218750D01*
G01*
X42475000Y-52506250D01*
G75*
G02*
X42256250Y-52725000I-218750J0D01*
G01*
X41743750Y-52725000D01*
G75*
G02*
X41525000Y-52506250I0J218750D01*
G01*
X41525000Y-52068750D01*
G75*
G02*
X41743750Y-51850000I218750J0D01*
G01*
G37*
%TD.AperFunction*%
%TD*%
%TO.P,C3,2*%
%TO.N,GND*%
%TA.AperFunction,SMDPad,CuDef*%
G36*
G01*
X79743750Y-48850000D02*
X80256250Y-48850000D01*
G75*
G02*
X80475000Y-49068750I0J-218750D01*
G01*
X80475000Y-49506250D01*
G75*
G02*
X80256250Y-49725000I-218750J0D01*
G01*
X79743750Y-49725000D01*
G75*
G02*
X79525000Y-49506250I0J218750D01*
G01*
X79525000Y-49068750D01*
G75*
G02*
X79743750Y-48850000I218750J0D01*
G01*
G37*
%TD.AperFunction*%
%TO.P,C3,1*%
%TO.N,+5V*%
%TA.AperFunction,SMDPad,CuDef*%
G36*
G01*
X79743750Y-47275000D02*
X80256250Y-47275000D01*
G75*
G02*
X80475000Y-47493750I0J-218750D01*
G01*
X80475000Y-47931250D01*
G75*
G02*
X80256250Y-48150000I-218750J0D01*
G01*
X79743750Y-48150000D01*
G75*
G02*
X79525000Y-47931250I0J218750D01*
G01*
X79525000Y-47493750D01*
G75*
G02*
X79743750Y-47275000I218750J0D01*
G01*
G37*
%TD.AperFunction*%
%TD*%
%TO.P,C4,2*%
%TO.N,GND*%
%TA.AperFunction,SMDPad,CuDef*%
G36*
G01*
X120743750Y-48850000D02*
X121256250Y-48850000D01*
G75*
G02*
X121475000Y-49068750I0J-218750D01*
G01*
X121475000Y-49506250D01*
G75*
G02*
X121256250Y-49725000I-218750J0D01*
G01*
X120743750Y-49725000D01*
G75*
G02*
X120525000Y-49506250I0J218750D01*
G01*
X120525000Y-49068750D01*
G75*
G02*
X120743750Y-48850000I218750J0D01*
G01*
G37*
%TD.AperFunction*%
%TO.P,C4,1*%
%TO.N,+5V*%
%TA.AperFunction,SMDPad,CuDef*%
G36*
G01*
X120743750Y-47275000D02*
X121256250Y-47275000D01*
G75*
G02*
X121475000Y-47493750I0J-218750D01*
G01*
X121475000Y-47931250D01*
G75*
G02*
X121256250Y-48150000I-218750J0D01*
G01*
X120743750Y-48150000D01*
G75*
G02*
X120525000Y-47931250I0J218750D01*
G01*
X120525000Y-47493750D01*
G75*
G02*
X120743750Y-47275000I218750J0D01*
G01*
G37*
%TD.AperFunction*%
%TD*%
%TO.P,C5,1*%
%TO.N,+5V*%
%TA.AperFunction,SMDPad,CuDef*%
G36*
G01*
X158743750Y-47275000D02*
X159256250Y-47275000D01*
G75*
G02*
X159475000Y-47493750I0J-218750D01*
G01*
X159475000Y-47931250D01*
G75*
G02*
X159256250Y-48150000I-218750J0D01*
G01*
X158743750Y-48150000D01*
G75*
G02*
X158525000Y-47931250I0J218750D01*
G01*
X158525000Y-47493750D01*
G75*
G02*
X158743750Y-47275000I218750J0D01*
G01*
G37*
%TD.AperFunction*%
%TO.P,C5,2*%
%TO.N,GND*%
%TA.AperFunction,SMDPad,CuDef*%
G36*
G01*
X158743750Y-48850000D02*
X159256250Y-48850000D01*
G75*
G02*
X159475000Y-49068750I0J-218750D01*
G01*
X159475000Y-49506250D01*
G75*
G02*
X159256250Y-49725000I-218750J0D01*
G01*
X158743750Y-49725000D01*
G75*
G02*
X158525000Y-49506250I0J218750D01*
G01*
X158525000Y-49068750D01*
G75*
G02*
X158743750Y-48850000I218750J0D01*
G01*
G37*
%TD.AperFunction*%
%TD*%
%TO.P,C6,1*%
%TO.N,GND*%
%TA.AperFunction,SMDPad,CuDef*%
G36*
G01*
X114256250Y-68225000D02*
X113743750Y-68225000D01*
G75*
G02*
X113525000Y-68006250I0J218750D01*
G01*
X113525000Y-67568750D01*
G75*
G02*
X113743750Y-67350000I218750J0D01*
G01*
X114256250Y-67350000D01*
G75*
G02*
X114475000Y-67568750I0J-218750D01*
G01*
X114475000Y-68006250D01*
G75*
G02*
X114256250Y-68225000I-218750J0D01*
G01*
G37*
%TD.AperFunction*%
%TO.P,C6,2*%
%TO.N,/Tuning rotary encoder and switch/A1*%
%TA.AperFunction,SMDPad,CuDef*%
G36*
G01*
X114256250Y-66650000D02*
X113743750Y-66650000D01*
G75*
G02*
X113525000Y-66431250I0J218750D01*
G01*
X113525000Y-65993750D01*
G75*
G02*
X113743750Y-65775000I218750J0D01*
G01*
X114256250Y-65775000D01*
G75*
G02*
X114475000Y-65993750I0J-218750D01*
G01*
X114475000Y-66431250D01*
G75*
G02*
X114256250Y-66650000I-218750J0D01*
G01*
G37*
%TD.AperFunction*%
%TD*%
%TO.P,C7,2*%
%TO.N,GND*%
%TA.AperFunction,SMDPad,CuDef*%
G36*
G01*
X114256250Y-53650000D02*
X113743750Y-53650000D01*
G75*
G02*
X113525000Y-53431250I0J218750D01*
G01*
X113525000Y-52993750D01*
G75*
G02*
X113743750Y-52775000I218750J0D01*
G01*
X114256250Y-52775000D01*
G75*
G02*
X114475000Y-52993750I0J-218750D01*
G01*
X114475000Y-53431250D01*
G75*
G02*
X114256250Y-53650000I-218750J0D01*
G01*
G37*
%TD.AperFunction*%
%TO.P,C7,1*%
%TO.N,/Tuning rotary encoder and switch/B1*%
%TA.AperFunction,SMDPad,CuDef*%
G36*
G01*
X114256250Y-55225000D02*
X113743750Y-55225000D01*
G75*
G02*
X113525000Y-55006250I0J218750D01*
G01*
X113525000Y-54568750D01*
G75*
G02*
X113743750Y-54350000I218750J0D01*
G01*
X114256250Y-54350000D01*
G75*
G02*
X114475000Y-54568750I0J-218750D01*
G01*
X114475000Y-55006250D01*
G75*
G02*
X114256250Y-55225000I-218750J0D01*
G01*
G37*
%TD.AperFunction*%
%TD*%
%TO.P,C8,1*%
%TO.N,GND*%
%TA.AperFunction,SMDPad,CuDef*%
G36*
G01*
X192756250Y-68225000D02*
X192243750Y-68225000D01*
G75*
G02*
X192025000Y-68006250I0J218750D01*
G01*
X192025000Y-67568750D01*
G75*
G02*
X192243750Y-67350000I218750J0D01*
G01*
X192756250Y-67350000D01*
G75*
G02*
X192975000Y-67568750I0J-218750D01*
G01*
X192975000Y-68006250D01*
G75*
G02*
X192756250Y-68225000I-218750J0D01*
G01*
G37*
%TD.AperFunction*%
%TO.P,C8,2*%
%TO.N,/sheet5F5DD32A/A1*%
%TA.AperFunction,SMDPad,CuDef*%
G36*
G01*
X192756250Y-66650000D02*
X192243750Y-66650000D01*
G75*
G02*
X192025000Y-66431250I0J218750D01*
G01*
X192025000Y-65993750D01*
G75*
G02*
X192243750Y-65775000I218750J0D01*
G01*
X192756250Y-65775000D01*
G75*
G02*
X192975000Y-65993750I0J-218750D01*
G01*
X192975000Y-66431250D01*
G75*
G02*
X192756250Y-66650000I-218750J0D01*
G01*
G37*
%TD.AperFunction*%
%TD*%
%TO.P,C9,2*%
%TO.N,GND*%
%TA.AperFunction,SMDPad,CuDef*%
G36*
G01*
X192756250Y-53650000D02*
X192243750Y-53650000D01*
G75*
G02*
X192025000Y-53431250I0J218750D01*
G01*
X192025000Y-52993750D01*
G75*
G02*
X192243750Y-52775000I218750J0D01*
G01*
X192756250Y-52775000D01*
G75*
G02*
X192975000Y-52993750I0J-218750D01*
G01*
X192975000Y-53431250D01*
G75*
G02*
X192756250Y-53650000I-218750J0D01*
G01*
G37*
%TD.AperFunction*%
%TO.P,C9,1*%
%TO.N,/sheet5F5DD32A/B1*%
%TA.AperFunction,SMDPad,CuDef*%
G36*
G01*
X192756250Y-55225000D02*
X192243750Y-55225000D01*
G75*
G02*
X192025000Y-55006250I0J218750D01*
G01*
X192025000Y-54568750D01*
G75*
G02*
X192243750Y-54350000I218750J0D01*
G01*
X192756250Y-54350000D01*
G75*
G02*
X192975000Y-54568750I0J-218750D01*
G01*
X192975000Y-55006250D01*
G75*
G02*
X192756250Y-55225000I-218750J0D01*
G01*
G37*
%TD.AperFunction*%
%TD*%
%TO.P,C12,1*%
%TO.N,+5V*%
%TA.AperFunction,SMDPad,CuDef*%
G36*
G01*
X41743750Y-97275000D02*
X42256250Y-97275000D01*
G75*
G02*
X42475000Y-97493750I0J-218750D01*
G01*
X42475000Y-97931250D01*
G75*
G02*
X42256250Y-98150000I-218750J0D01*
G01*
X41743750Y-98150000D01*
G75*
G02*
X41525000Y-97931250I0J218750D01*
G01*
X41525000Y-97493750D01*
G75*
G02*
X41743750Y-97275000I218750J0D01*
G01*
G37*
%TD.AperFunction*%
%TO.P,C12,2*%
%TO.N,GND*%
%TA.AperFunction,SMDPad,CuDef*%
G36*
G01*
X41743750Y-98850000D02*
X42256250Y-98850000D01*
G75*
G02*
X42475000Y-99068750I0J-218750D01*
G01*
X42475000Y-99506250D01*
G75*
G02*
X42256250Y-99725000I-218750J0D01*
G01*
X41743750Y-99725000D01*
G75*
G02*
X41525000Y-99506250I0J218750D01*
G01*
X41525000Y-99068750D01*
G75*
G02*
X41743750Y-98850000I218750J0D01*
G01*
G37*
%TD.AperFunction*%
%TD*%
%TO.P,C13,2*%
%TO.N,GND*%
%TA.AperFunction,SMDPad,CuDef*%
G36*
G01*
X79743750Y-98850000D02*
X80256250Y-98850000D01*
G75*
G02*
X80475000Y-99068750I0J-218750D01*
G01*
X80475000Y-99506250D01*
G75*
G02*
X80256250Y-99725000I-218750J0D01*
G01*
X79743750Y-99725000D01*
G75*
G02*
X79525000Y-99506250I0J218750D01*
G01*
X79525000Y-99068750D01*
G75*
G02*
X79743750Y-98850000I218750J0D01*
G01*
G37*
%TD.AperFunction*%
%TO.P,C13,1*%
%TO.N,+5V*%
%TA.AperFunction,SMDPad,CuDef*%
G36*
G01*
X79743750Y-97275000D02*
X80256250Y-97275000D01*
G75*
G02*
X80475000Y-97493750I0J-218750D01*
G01*
X80475000Y-97931250D01*
G75*
G02*
X80256250Y-98150000I-218750J0D01*
G01*
X79743750Y-98150000D01*
G75*
G02*
X79525000Y-97931250I0J218750D01*
G01*
X79525000Y-97493750D01*
G75*
G02*
X79743750Y-97275000I218750J0D01*
G01*
G37*
%TD.AperFunction*%
%TD*%
%TO.P,C14,2*%
%TO.N,GND*%
%TA.AperFunction,SMDPad,CuDef*%
G36*
G01*
X120743750Y-98850000D02*
X121256250Y-98850000D01*
G75*
G02*
X121475000Y-99068750I0J-218750D01*
G01*
X121475000Y-99506250D01*
G75*
G02*
X121256250Y-99725000I-218750J0D01*
G01*
X120743750Y-99725000D01*
G75*
G02*
X120525000Y-99506250I0J218750D01*
G01*
X120525000Y-99068750D01*
G75*
G02*
X120743750Y-98850000I218750J0D01*
G01*
G37*
%TD.AperFunction*%
%TO.P,C14,1*%
%TO.N,+5V*%
%TA.AperFunction,SMDPad,CuDef*%
G36*
G01*
X120743750Y-97275000D02*
X121256250Y-97275000D01*
G75*
G02*
X121475000Y-97493750I0J-218750D01*
G01*
X121475000Y-97931250D01*
G75*
G02*
X121256250Y-98150000I-218750J0D01*
G01*
X120743750Y-98150000D01*
G75*
G02*
X120525000Y-97931250I0J218750D01*
G01*
X120525000Y-97493750D01*
G75*
G02*
X120743750Y-97275000I218750J0D01*
G01*
G37*
%TD.AperFunction*%
%TD*%
%TO.P,C15,2*%
%TO.N,GND*%
%TA.AperFunction,SMDPad,CuDef*%
G36*
G01*
X158743750Y-98850000D02*
X159256250Y-98850000D01*
G75*
G02*
X159475000Y-99068750I0J-218750D01*
G01*
X159475000Y-99506250D01*
G75*
G02*
X159256250Y-99725000I-218750J0D01*
G01*
X158743750Y-99725000D01*
G75*
G02*
X158525000Y-99506250I0J218750D01*
G01*
X158525000Y-99068750D01*
G75*
G02*
X158743750Y-98850000I218750J0D01*
G01*
G37*
%TD.AperFunction*%
%TO.P,C15,1*%
%TO.N,+5V*%
%TA.AperFunction,SMDPad,CuDef*%
G36*
G01*
X158743750Y-97275000D02*
X159256250Y-97275000D01*
G75*
G02*
X159475000Y-97493750I0J-218750D01*
G01*
X159475000Y-97931250D01*
G75*
G02*
X159256250Y-98150000I-218750J0D01*
G01*
X158743750Y-98150000D01*
G75*
G02*
X158525000Y-97931250I0J218750D01*
G01*
X158525000Y-97493750D01*
G75*
G02*
X158743750Y-97275000I218750J0D01*
G01*
G37*
%TD.AperFunction*%
%TD*%
%TO.P,C16,2*%
%TO.N,/sheet5F71BCD2/A1*%
%TA.AperFunction,SMDPad,CuDef*%
G36*
G01*
X114256250Y-116650000D02*
X113743750Y-116650000D01*
G75*
G02*
X113525000Y-116431250I0J218750D01*
G01*
X113525000Y-115993750D01*
G75*
G02*
X113743750Y-115775000I218750J0D01*
G01*
X114256250Y-115775000D01*
G75*
G02*
X114475000Y-115993750I0J-218750D01*
G01*
X114475000Y-116431250D01*
G75*
G02*
X114256250Y-116650000I-218750J0D01*
G01*
G37*
%TD.AperFunction*%
%TO.P,C16,1*%
%TO.N,GND*%
%TA.AperFunction,SMDPad,CuDef*%
G36*
G01*
X114256250Y-118225000D02*
X113743750Y-118225000D01*
G75*
G02*
X113525000Y-118006250I0J218750D01*
G01*
X113525000Y-117568750D01*
G75*
G02*
X113743750Y-117350000I218750J0D01*
G01*
X114256250Y-117350000D01*
G75*
G02*
X114475000Y-117568750I0J-218750D01*
G01*
X114475000Y-118006250D01*
G75*
G02*
X114256250Y-118225000I-218750J0D01*
G01*
G37*
%TD.AperFunction*%
%TD*%
%TO.P,C17,1*%
%TO.N,/sheet5F71BCD2/B1*%
%TA.AperFunction,SMDPad,CuDef*%
G36*
G01*
X114256250Y-105225000D02*
X113743750Y-105225000D01*
G75*
G02*
X113525000Y-105006250I0J218750D01*
G01*
X113525000Y-104568750D01*
G75*
G02*
X113743750Y-104350000I218750J0D01*
G01*
X114256250Y-104350000D01*
G75*
G02*
X114475000Y-104568750I0J-218750D01*
G01*
X114475000Y-105006250D01*
G75*
G02*
X114256250Y-105225000I-218750J0D01*
G01*
G37*
%TD.AperFunction*%
%TO.P,C17,2*%
%TO.N,GND*%
%TA.AperFunction,SMDPad,CuDef*%
G36*
G01*
X114256250Y-103650000D02*
X113743750Y-103650000D01*
G75*
G02*
X113525000Y-103431250I0J218750D01*
G01*
X113525000Y-102993750D01*
G75*
G02*
X113743750Y-102775000I218750J0D01*
G01*
X114256250Y-102775000D01*
G75*
G02*
X114475000Y-102993750I0J-218750D01*
G01*
X114475000Y-103431250D01*
G75*
G02*
X114256250Y-103650000I-218750J0D01*
G01*
G37*
%TD.AperFunction*%
%TD*%
%TO.P,C18,1*%
%TO.N,GND*%
%TA.AperFunction,SMDPad,CuDef*%
G36*
G01*
X192756250Y-118225000D02*
X192243750Y-118225000D01*
G75*
G02*
X192025000Y-118006250I0J218750D01*
G01*
X192025000Y-117568750D01*
G75*
G02*
X192243750Y-117350000I218750J0D01*
G01*
X192756250Y-117350000D01*
G75*
G02*
X192975000Y-117568750I0J-218750D01*
G01*
X192975000Y-118006250D01*
G75*
G02*
X192756250Y-118225000I-218750J0D01*
G01*
G37*
%TD.AperFunction*%
%TO.P,C18,2*%
%TO.N,/sheet5F71BCD3/A1*%
%TA.AperFunction,SMDPad,CuDef*%
G36*
G01*
X192756250Y-116650000D02*
X192243750Y-116650000D01*
G75*
G02*
X192025000Y-116431250I0J218750D01*
G01*
X192025000Y-115993750D01*
G75*
G02*
X192243750Y-115775000I218750J0D01*
G01*
X192756250Y-115775000D01*
G75*
G02*
X192975000Y-115993750I0J-218750D01*
G01*
X192975000Y-116431250D01*
G75*
G02*
X192756250Y-116650000I-218750J0D01*
G01*
G37*
%TD.AperFunction*%
%TD*%
%TO.P,C19,1*%
%TO.N,/sheet5F71BCD3/B1*%
%TA.AperFunction,SMDPad,CuDef*%
G36*
G01*
X192756250Y-105225000D02*
X192243750Y-105225000D01*
G75*
G02*
X192025000Y-105006250I0J218750D01*
G01*
X192025000Y-104568750D01*
G75*
G02*
X192243750Y-104350000I218750J0D01*
G01*
X192756250Y-104350000D01*
G75*
G02*
X192975000Y-104568750I0J-218750D01*
G01*
X192975000Y-105006250D01*
G75*
G02*
X192756250Y-105225000I-218750J0D01*
G01*
G37*
%TD.AperFunction*%
%TO.P,C19,2*%
%TO.N,GND*%
%TA.AperFunction,SMDPad,CuDef*%
G36*
G01*
X192756250Y-103650000D02*
X192243750Y-103650000D01*
G75*
G02*
X192025000Y-103431250I0J218750D01*
G01*
X192025000Y-102993750D01*
G75*
G02*
X192243750Y-102775000I218750J0D01*
G01*
X192756250Y-102775000D01*
G75*
G02*
X192975000Y-102993750I0J-218750D01*
G01*
X192975000Y-103431250D01*
G75*
G02*
X192756250Y-103650000I-218750J0D01*
G01*
G37*
%TD.AperFunction*%
%TD*%
%TO.P,D1,1*%
%TO.N,GND*%
%TA.AperFunction,SMDPad,CuDef*%
G36*
G01*
X34743750Y-108775000D02*
X35256250Y-108775000D01*
G75*
G02*
X35475000Y-108993750I0J-218750D01*
G01*
X35475000Y-109431250D01*
G75*
G02*
X35256250Y-109650000I-218750J0D01*
G01*
X34743750Y-109650000D01*
G75*
G02*
X34525000Y-109431250I0J218750D01*
G01*
X34525000Y-108993750D01*
G75*
G02*
X34743750Y-108775000I218750J0D01*
G01*
G37*
%TD.AperFunction*%
%TO.P,D1,2*%
%TO.N,Net-(D1-Pad2)*%
%TA.AperFunction,SMDPad,CuDef*%
G36*
G01*
X34743750Y-110350000D02*
X35256250Y-110350000D01*
G75*
G02*
X35475000Y-110568750I0J-218750D01*
G01*
X35475000Y-111006250D01*
G75*
G02*
X35256250Y-111225000I-218750J0D01*
G01*
X34743750Y-111225000D01*
G75*
G02*
X34525000Y-111006250I0J218750D01*
G01*
X34525000Y-110568750D01*
G75*
G02*
X34743750Y-110350000I218750J0D01*
G01*
G37*
%TD.AperFunction*%
%TD*%
%TO.P,R1,1*%
%TO.N,+5V*%
%TA.AperFunction,SMDPad,CuDef*%
G36*
G01*
X164743750Y-64775000D02*
X165256250Y-64775000D01*
G75*
G02*
X165475000Y-64993750I0J-218750D01*
G01*
X165475000Y-65431250D01*
G75*
G02*
X165256250Y-65650000I-218750J0D01*
G01*
X164743750Y-65650000D01*
G75*
G02*
X164525000Y-65431250I0J218750D01*
G01*
X164525000Y-64993750D01*
G75*
G02*
X164743750Y-64775000I218750J0D01*
G01*
G37*
%TD.AperFunction*%
%TO.P,R1,2*%
%TO.N,Net-(R1-Pad2)*%
%TA.AperFunction,SMDPad,CuDef*%
G36*
G01*
X164743750Y-66350000D02*
X165256250Y-66350000D01*
G75*
G02*
X165475000Y-66568750I0J-218750D01*
G01*
X165475000Y-67006250D01*
G75*
G02*
X165256250Y-67225000I-218750J0D01*
G01*
X164743750Y-67225000D01*
G75*
G02*
X164525000Y-67006250I0J218750D01*
G01*
X164525000Y-66568750D01*
G75*
G02*
X164743750Y-66350000I218750J0D01*
G01*
G37*
%TD.AperFunction*%
%TD*%
%TO.P,R2,2*%
%TO.N,Net-(D1-Pad2)*%
%TA.AperFunction,SMDPad,CuDef*%
G36*
G01*
X37743750Y-110350000D02*
X38256250Y-110350000D01*
G75*
G02*
X38475000Y-110568750I0J-218750D01*
G01*
X38475000Y-111006250D01*
G75*
G02*
X38256250Y-111225000I-218750J0D01*
G01*
X37743750Y-111225000D01*
G75*
G02*
X37525000Y-111006250I0J218750D01*
G01*
X37525000Y-110568750D01*
G75*
G02*
X37743750Y-110350000I218750J0D01*
G01*
G37*
%TD.AperFunction*%
%TO.P,R2,1*%
%TO.N,+5V*%
%TA.AperFunction,SMDPad,CuDef*%
G36*
G01*
X37743750Y-108775000D02*
X38256250Y-108775000D01*
G75*
G02*
X38475000Y-108993750I0J-218750D01*
G01*
X38475000Y-109431250D01*
G75*
G02*
X38256250Y-109650000I-218750J0D01*
G01*
X37743750Y-109650000D01*
G75*
G02*
X37525000Y-109431250I0J218750D01*
G01*
X37525000Y-108993750D01*
G75*
G02*
X37743750Y-108775000I218750J0D01*
G01*
G37*
%TD.AperFunction*%
%TD*%
%TO.P,R4,1*%
%TO.N,Net-(D3-Pad2)*%
%TA.AperFunction,SMDPad,CuDef*%
G36*
G01*
X63256250Y-67225000D02*
X62743750Y-67225000D01*
G75*
G02*
X62525000Y-67006250I0J218750D01*
G01*
X62525000Y-66568750D01*
G75*
G02*
X62743750Y-66350000I218750J0D01*
G01*
X63256250Y-66350000D01*
G75*
G02*
X63475000Y-66568750I0J-218750D01*
G01*
X63475000Y-67006250D01*
G75*
G02*
X63256250Y-67225000I-218750J0D01*
G01*
G37*
%TD.AperFunction*%
%TO.P,R4,2*%
%TO.N,RADIO1_LED*%
%TA.AperFunction,SMDPad,CuDef*%
G36*
G01*
X63256250Y-65650000D02*
X62743750Y-65650000D01*
G75*
G02*
X62525000Y-65431250I0J218750D01*
G01*
X62525000Y-64993750D01*
G75*
G02*
X62743750Y-64775000I218750J0D01*
G01*
X63256250Y-64775000D01*
G75*
G02*
X63475000Y-64993750I0J-218750D01*
G01*
X63475000Y-65431250D01*
G75*
G02*
X63256250Y-65650000I-218750J0D01*
G01*
G37*
%TD.AperFunction*%
%TD*%
%TO.P,R5,2*%
%TO.N,/Tuning rotary encoder and switch/A1*%
%TA.AperFunction,SMDPad,CuDef*%
G36*
G01*
X111256250Y-66650000D02*
X110743750Y-66650000D01*
G75*
G02*
X110525000Y-66431250I0J218750D01*
G01*
X110525000Y-65993750D01*
G75*
G02*
X110743750Y-65775000I218750J0D01*
G01*
X111256250Y-65775000D01*
G75*
G02*
X111475000Y-65993750I0J-218750D01*
G01*
X111475000Y-66431250D01*
G75*
G02*
X111256250Y-66650000I-218750J0D01*
G01*
G37*
%TD.AperFunction*%
%TO.P,R5,1*%
%TO.N,+5V*%
%TA.AperFunction,SMDPad,CuDef*%
G36*
G01*
X111256250Y-68225000D02*
X110743750Y-68225000D01*
G75*
G02*
X110525000Y-68006250I0J218750D01*
G01*
X110525000Y-67568750D01*
G75*
G02*
X110743750Y-67350000I218750J0D01*
G01*
X111256250Y-67350000D01*
G75*
G02*
X111475000Y-67568750I0J-218750D01*
G01*
X111475000Y-68006250D01*
G75*
G02*
X111256250Y-68225000I-218750J0D01*
G01*
G37*
%TD.AperFunction*%
%TD*%
%TO.P,R6,2*%
%TO.N,+5V*%
%TA.AperFunction,SMDPad,CuDef*%
G36*
G01*
X111256250Y-53650000D02*
X110743750Y-53650000D01*
G75*
G02*
X110525000Y-53431250I0J218750D01*
G01*
X110525000Y-52993750D01*
G75*
G02*
X110743750Y-52775000I218750J0D01*
G01*
X111256250Y-52775000D01*
G75*
G02*
X111475000Y-52993750I0J-218750D01*
G01*
X111475000Y-53431250D01*
G75*
G02*
X111256250Y-53650000I-218750J0D01*
G01*
G37*
%TD.AperFunction*%
%TO.P,R6,1*%
%TO.N,/Tuning rotary encoder and switch/B1*%
%TA.AperFunction,SMDPad,CuDef*%
G36*
G01*
X111256250Y-55225000D02*
X110743750Y-55225000D01*
G75*
G02*
X110525000Y-55006250I0J218750D01*
G01*
X110525000Y-54568750D01*
G75*
G02*
X110743750Y-54350000I218750J0D01*
G01*
X111256250Y-54350000D01*
G75*
G02*
X111475000Y-54568750I0J-218750D01*
G01*
X111475000Y-55006250D01*
G75*
G02*
X111256250Y-55225000I-218750J0D01*
G01*
G37*
%TD.AperFunction*%
%TD*%
%TO.P,R7,2*%
%TO.N,/Tuning rotary encoder and switch/A1*%
%TA.AperFunction,SMDPad,CuDef*%
G36*
G01*
X117256250Y-66650000D02*
X116743750Y-66650000D01*
G75*
G02*
X116525000Y-66431250I0J218750D01*
G01*
X116525000Y-65993750D01*
G75*
G02*
X116743750Y-65775000I218750J0D01*
G01*
X117256250Y-65775000D01*
G75*
G02*
X117475000Y-65993750I0J-218750D01*
G01*
X117475000Y-66431250D01*
G75*
G02*
X117256250Y-66650000I-218750J0D01*
G01*
G37*
%TD.AperFunction*%
%TO.P,R7,1*%
%TO.N,COMM1_LEFT*%
%TA.AperFunction,SMDPad,CuDef*%
G36*
G01*
X117256250Y-68225000D02*
X116743750Y-68225000D01*
G75*
G02*
X116525000Y-68006250I0J218750D01*
G01*
X116525000Y-67568750D01*
G75*
G02*
X116743750Y-67350000I218750J0D01*
G01*
X117256250Y-67350000D01*
G75*
G02*
X117475000Y-67568750I0J-218750D01*
G01*
X117475000Y-68006250D01*
G75*
G02*
X117256250Y-68225000I-218750J0D01*
G01*
G37*
%TD.AperFunction*%
%TD*%
%TO.P,R8,1*%
%TO.N,/Tuning rotary encoder and switch/B1*%
%TA.AperFunction,SMDPad,CuDef*%
G36*
G01*
X117256250Y-55225000D02*
X116743750Y-55225000D01*
G75*
G02*
X116525000Y-55006250I0J218750D01*
G01*
X116525000Y-54568750D01*
G75*
G02*
X116743750Y-54350000I218750J0D01*
G01*
X117256250Y-54350000D01*
G75*
G02*
X117475000Y-54568750I0J-218750D01*
G01*
X117475000Y-55006250D01*
G75*
G02*
X117256250Y-55225000I-218750J0D01*
G01*
G37*
%TD.AperFunction*%
%TO.P,R8,2*%
%TO.N,COMM1_RIGHT*%
%TA.AperFunction,SMDPad,CuDef*%
G36*
G01*
X117256250Y-53650000D02*
X116743750Y-53650000D01*
G75*
G02*
X116525000Y-53431250I0J218750D01*
G01*
X116525000Y-52993750D01*
G75*
G02*
X116743750Y-52775000I218750J0D01*
G01*
X117256250Y-52775000D01*
G75*
G02*
X117475000Y-52993750I0J-218750D01*
G01*
X117475000Y-53431250D01*
G75*
G02*
X117256250Y-53650000I-218750J0D01*
G01*
G37*
%TD.AperFunction*%
%TD*%
%TO.P,R9,2*%
%TO.N,/sheet5F5DD32A/A1*%
%TA.AperFunction,SMDPad,CuDef*%
G36*
G01*
X189243750Y-67350000D02*
X189756250Y-67350000D01*
G75*
G02*
X189975000Y-67568750I0J-218750D01*
G01*
X189975000Y-68006250D01*
G75*
G02*
X189756250Y-68225000I-218750J0D01*
G01*
X189243750Y-68225000D01*
G75*
G02*
X189025000Y-68006250I0J218750D01*
G01*
X189025000Y-67568750D01*
G75*
G02*
X189243750Y-67350000I218750J0D01*
G01*
G37*
%TD.AperFunction*%
%TO.P,R9,1*%
%TO.N,+5V*%
%TA.AperFunction,SMDPad,CuDef*%
G36*
G01*
X189243750Y-65775000D02*
X189756250Y-65775000D01*
G75*
G02*
X189975000Y-65993750I0J-218750D01*
G01*
X189975000Y-66431250D01*
G75*
G02*
X189756250Y-66650000I-218750J0D01*
G01*
X189243750Y-66650000D01*
G75*
G02*
X189025000Y-66431250I0J218750D01*
G01*
X189025000Y-65993750D01*
G75*
G02*
X189243750Y-65775000I218750J0D01*
G01*
G37*
%TD.AperFunction*%
%TD*%
%TO.P,R10,1*%
%TO.N,/sheet5F5DD32A/B1*%
%TA.AperFunction,SMDPad,CuDef*%
G36*
G01*
X189756250Y-55225000D02*
X189243750Y-55225000D01*
G75*
G02*
X189025000Y-55006250I0J218750D01*
G01*
X189025000Y-54568750D01*
G75*
G02*
X189243750Y-54350000I218750J0D01*
G01*
X189756250Y-54350000D01*
G75*
G02*
X189975000Y-54568750I0J-218750D01*
G01*
X189975000Y-55006250D01*
G75*
G02*
X189756250Y-55225000I-218750J0D01*
G01*
G37*
%TD.AperFunction*%
%TO.P,R10,2*%
%TO.N,+5V*%
%TA.AperFunction,SMDPad,CuDef*%
G36*
G01*
X189756250Y-53650000D02*
X189243750Y-53650000D01*
G75*
G02*
X189025000Y-53431250I0J218750D01*
G01*
X189025000Y-52993750D01*
G75*
G02*
X189243750Y-52775000I218750J0D01*
G01*
X189756250Y-52775000D01*
G75*
G02*
X189975000Y-52993750I0J-218750D01*
G01*
X189975000Y-53431250D01*
G75*
G02*
X189756250Y-53650000I-218750J0D01*
G01*
G37*
%TD.AperFunction*%
%TD*%
%TO.P,R11,1*%
%TO.N,NAV1_LEFT*%
%TA.AperFunction,SMDPad,CuDef*%
G36*
G01*
X195756250Y-68225000D02*
X195243750Y-68225000D01*
G75*
G02*
X195025000Y-68006250I0J218750D01*
G01*
X195025000Y-67568750D01*
G75*
G02*
X195243750Y-67350000I218750J0D01*
G01*
X195756250Y-67350000D01*
G75*
G02*
X195975000Y-67568750I0J-218750D01*
G01*
X195975000Y-68006250D01*
G75*
G02*
X195756250Y-68225000I-218750J0D01*
G01*
G37*
%TD.AperFunction*%
%TO.P,R11,2*%
%TO.N,/sheet5F5DD32A/A1*%
%TA.AperFunction,SMDPad,CuDef*%
G36*
G01*
X195756250Y-66650000D02*
X195243750Y-66650000D01*
G75*
G02*
X195025000Y-66431250I0J218750D01*
G01*
X195025000Y-65993750D01*
G75*
G02*
X195243750Y-65775000I218750J0D01*
G01*
X195756250Y-65775000D01*
G75*
G02*
X195975000Y-65993750I0J-218750D01*
G01*
X195975000Y-66431250D01*
G75*
G02*
X195756250Y-66650000I-218750J0D01*
G01*
G37*
%TD.AperFunction*%
%TD*%
%TO.P,R12,2*%
%TO.N,NAV1_RIGHT*%
%TA.AperFunction,SMDPad,CuDef*%
G36*
G01*
X195756250Y-53650000D02*
X195243750Y-53650000D01*
G75*
G02*
X195025000Y-53431250I0J218750D01*
G01*
X195025000Y-52993750D01*
G75*
G02*
X195243750Y-52775000I218750J0D01*
G01*
X195756250Y-52775000D01*
G75*
G02*
X195975000Y-52993750I0J-218750D01*
G01*
X195975000Y-53431250D01*
G75*
G02*
X195756250Y-53650000I-218750J0D01*
G01*
G37*
%TD.AperFunction*%
%TO.P,R12,1*%
%TO.N,/sheet5F5DD32A/B1*%
%TA.AperFunction,SMDPad,CuDef*%
G36*
G01*
X195756250Y-55225000D02*
X195243750Y-55225000D01*
G75*
G02*
X195025000Y-55006250I0J218750D01*
G01*
X195025000Y-54568750D01*
G75*
G02*
X195243750Y-54350000I218750J0D01*
G01*
X195756250Y-54350000D01*
G75*
G02*
X195975000Y-54568750I0J-218750D01*
G01*
X195975000Y-55006250D01*
G75*
G02*
X195756250Y-55225000I-218750J0D01*
G01*
G37*
%TD.AperFunction*%
%TD*%
%TO.P,R19,1*%
%TO.N,Net-(D6-Pad2)*%
%TA.AperFunction,SMDPad,CuDef*%
G36*
G01*
X63256250Y-117225000D02*
X62743750Y-117225000D01*
G75*
G02*
X62525000Y-117006250I0J218750D01*
G01*
X62525000Y-116568750D01*
G75*
G02*
X62743750Y-116350000I218750J0D01*
G01*
X63256250Y-116350000D01*
G75*
G02*
X63475000Y-116568750I0J-218750D01*
G01*
X63475000Y-117006250D01*
G75*
G02*
X63256250Y-117225000I-218750J0D01*
G01*
G37*
%TD.AperFunction*%
%TO.P,R19,2*%
%TO.N,RADIO2_LED*%
%TA.AperFunction,SMDPad,CuDef*%
G36*
G01*
X63256250Y-115650000D02*
X62743750Y-115650000D01*
G75*
G02*
X62525000Y-115431250I0J218750D01*
G01*
X62525000Y-114993750D01*
G75*
G02*
X62743750Y-114775000I218750J0D01*
G01*
X63256250Y-114775000D01*
G75*
G02*
X63475000Y-114993750I0J-218750D01*
G01*
X63475000Y-115431250D01*
G75*
G02*
X63256250Y-115650000I-218750J0D01*
G01*
G37*
%TD.AperFunction*%
%TD*%
%TO.P,R21,2*%
%TO.N,/sheet5F71BCD2/A1*%
%TA.AperFunction,SMDPad,CuDef*%
G36*
G01*
X111256250Y-116650000D02*
X110743750Y-116650000D01*
G75*
G02*
X110525000Y-116431250I0J218750D01*
G01*
X110525000Y-115993750D01*
G75*
G02*
X110743750Y-115775000I218750J0D01*
G01*
X111256250Y-115775000D01*
G75*
G02*
X111475000Y-115993750I0J-218750D01*
G01*
X111475000Y-116431250D01*
G75*
G02*
X111256250Y-116650000I-218750J0D01*
G01*
G37*
%TD.AperFunction*%
%TO.P,R21,1*%
%TO.N,+5V*%
%TA.AperFunction,SMDPad,CuDef*%
G36*
G01*
X111256250Y-118225000D02*
X110743750Y-118225000D01*
G75*
G02*
X110525000Y-118006250I0J218750D01*
G01*
X110525000Y-117568750D01*
G75*
G02*
X110743750Y-117350000I218750J0D01*
G01*
X111256250Y-117350000D01*
G75*
G02*
X111475000Y-117568750I0J-218750D01*
G01*
X111475000Y-118006250D01*
G75*
G02*
X111256250Y-118225000I-218750J0D01*
G01*
G37*
%TD.AperFunction*%
%TD*%
%TO.P,R22,1*%
%TO.N,/sheet5F71BCD2/B1*%
%TA.AperFunction,SMDPad,CuDef*%
G36*
G01*
X111256250Y-105225000D02*
X110743750Y-105225000D01*
G75*
G02*
X110525000Y-105006250I0J218750D01*
G01*
X110525000Y-104568750D01*
G75*
G02*
X110743750Y-104350000I218750J0D01*
G01*
X111256250Y-104350000D01*
G75*
G02*
X111475000Y-104568750I0J-218750D01*
G01*
X111475000Y-105006250D01*
G75*
G02*
X111256250Y-105225000I-218750J0D01*
G01*
G37*
%TD.AperFunction*%
%TO.P,R22,2*%
%TO.N,+5V*%
%TA.AperFunction,SMDPad,CuDef*%
G36*
G01*
X111256250Y-103650000D02*
X110743750Y-103650000D01*
G75*
G02*
X110525000Y-103431250I0J218750D01*
G01*
X110525000Y-102993750D01*
G75*
G02*
X110743750Y-102775000I218750J0D01*
G01*
X111256250Y-102775000D01*
G75*
G02*
X111475000Y-102993750I0J-218750D01*
G01*
X111475000Y-103431250D01*
G75*
G02*
X111256250Y-103650000I-218750J0D01*
G01*
G37*
%TD.AperFunction*%
%TD*%
%TO.P,R23,1*%
%TO.N,COMM2_LEFT*%
%TA.AperFunction,SMDPad,CuDef*%
G36*
G01*
X117256250Y-118225000D02*
X116743750Y-118225000D01*
G75*
G02*
X116525000Y-118006250I0J218750D01*
G01*
X116525000Y-117568750D01*
G75*
G02*
X116743750Y-117350000I218750J0D01*
G01*
X117256250Y-117350000D01*
G75*
G02*
X117475000Y-117568750I0J-218750D01*
G01*
X117475000Y-118006250D01*
G75*
G02*
X117256250Y-118225000I-218750J0D01*
G01*
G37*
%TD.AperFunction*%
%TO.P,R23,2*%
%TO.N,/sheet5F71BCD2/A1*%
%TA.AperFunction,SMDPad,CuDef*%
G36*
G01*
X117256250Y-116650000D02*
X116743750Y-116650000D01*
G75*
G02*
X116525000Y-116431250I0J218750D01*
G01*
X116525000Y-115993750D01*
G75*
G02*
X116743750Y-115775000I218750J0D01*
G01*
X117256250Y-115775000D01*
G75*
G02*
X117475000Y-115993750I0J-218750D01*
G01*
X117475000Y-116431250D01*
G75*
G02*
X117256250Y-116650000I-218750J0D01*
G01*
G37*
%TD.AperFunction*%
%TD*%
%TO.P,R24,2*%
%TO.N,COMM2_RIGHT*%
%TA.AperFunction,SMDPad,CuDef*%
G36*
G01*
X117256250Y-103650000D02*
X116743750Y-103650000D01*
G75*
G02*
X116525000Y-103431250I0J218750D01*
G01*
X116525000Y-102993750D01*
G75*
G02*
X116743750Y-102775000I218750J0D01*
G01*
X117256250Y-102775000D01*
G75*
G02*
X117475000Y-102993750I0J-218750D01*
G01*
X117475000Y-103431250D01*
G75*
G02*
X117256250Y-103650000I-218750J0D01*
G01*
G37*
%TD.AperFunction*%
%TO.P,R24,1*%
%TO.N,/sheet5F71BCD2/B1*%
%TA.AperFunction,SMDPad,CuDef*%
G36*
G01*
X117256250Y-105225000D02*
X116743750Y-105225000D01*
G75*
G02*
X116525000Y-105006250I0J218750D01*
G01*
X116525000Y-104568750D01*
G75*
G02*
X116743750Y-104350000I218750J0D01*
G01*
X117256250Y-104350000D01*
G75*
G02*
X117475000Y-104568750I0J-218750D01*
G01*
X117475000Y-105006250D01*
G75*
G02*
X117256250Y-105225000I-218750J0D01*
G01*
G37*
%TD.AperFunction*%
%TD*%
%TO.P,R25,1*%
%TO.N,+5V*%
%TA.AperFunction,SMDPad,CuDef*%
G36*
G01*
X189756250Y-118225000D02*
X189243750Y-118225000D01*
G75*
G02*
X189025000Y-118006250I0J218750D01*
G01*
X189025000Y-117568750D01*
G75*
G02*
X189243750Y-117350000I218750J0D01*
G01*
X189756250Y-117350000D01*
G75*
G02*
X189975000Y-117568750I0J-218750D01*
G01*
X189975000Y-118006250D01*
G75*
G02*
X189756250Y-118225000I-218750J0D01*
G01*
G37*
%TD.AperFunction*%
%TO.P,R25,2*%
%TO.N,/sheet5F71BCD3/A1*%
%TA.AperFunction,SMDPad,CuDef*%
G36*
G01*
X189756250Y-116650000D02*
X189243750Y-116650000D01*
G75*
G02*
X189025000Y-116431250I0J218750D01*
G01*
X189025000Y-115993750D01*
G75*
G02*
X189243750Y-115775000I218750J0D01*
G01*
X189756250Y-115775000D01*
G75*
G02*
X189975000Y-115993750I0J-218750D01*
G01*
X189975000Y-116431250D01*
G75*
G02*
X189756250Y-116650000I-218750J0D01*
G01*
G37*
%TD.AperFunction*%
%TD*%
%TO.P,R26,2*%
%TO.N,+5V*%
%TA.AperFunction,SMDPad,CuDef*%
G36*
G01*
X189756250Y-103650000D02*
X189243750Y-103650000D01*
G75*
G02*
X189025000Y-103431250I0J218750D01*
G01*
X189025000Y-102993750D01*
G75*
G02*
X189243750Y-102775000I218750J0D01*
G01*
X189756250Y-102775000D01*
G75*
G02*
X189975000Y-102993750I0J-218750D01*
G01*
X189975000Y-103431250D01*
G75*
G02*
X189756250Y-103650000I-218750J0D01*
G01*
G37*
%TD.AperFunction*%
%TO.P,R26,1*%
%TO.N,/sheet5F71BCD3/B1*%
%TA.AperFunction,SMDPad,CuDef*%
G36*
G01*
X189756250Y-105225000D02*
X189243750Y-105225000D01*
G75*
G02*
X189025000Y-105006250I0J218750D01*
G01*
X189025000Y-104568750D01*
G75*
G02*
X189243750Y-104350000I218750J0D01*
G01*
X189756250Y-104350000D01*
G75*
G02*
X189975000Y-104568750I0J-218750D01*
G01*
X189975000Y-105006250D01*
G75*
G02*
X189756250Y-105225000I-218750J0D01*
G01*
G37*
%TD.AperFunction*%
%TD*%
%TO.P,R27,2*%
%TO.N,/sheet5F71BCD3/A1*%
%TA.AperFunction,SMDPad,CuDef*%
G36*
G01*
X195756250Y-116650000D02*
X195243750Y-116650000D01*
G75*
G02*
X195025000Y-116431250I0J218750D01*
G01*
X195025000Y-115993750D01*
G75*
G02*
X195243750Y-115775000I218750J0D01*
G01*
X195756250Y-115775000D01*
G75*
G02*
X195975000Y-115993750I0J-218750D01*
G01*
X195975000Y-116431250D01*
G75*
G02*
X195756250Y-116650000I-218750J0D01*
G01*
G37*
%TD.AperFunction*%
%TO.P,R27,1*%
%TO.N,NAV2_LEFT*%
%TA.AperFunction,SMDPad,CuDef*%
G36*
G01*
X195756250Y-118225000D02*
X195243750Y-118225000D01*
G75*
G02*
X195025000Y-118006250I0J218750D01*
G01*
X195025000Y-117568750D01*
G75*
G02*
X195243750Y-117350000I218750J0D01*
G01*
X195756250Y-117350000D01*
G75*
G02*
X195975000Y-117568750I0J-218750D01*
G01*
X195975000Y-118006250D01*
G75*
G02*
X195756250Y-118225000I-218750J0D01*
G01*
G37*
%TD.AperFunction*%
%TD*%
%TO.P,R28,1*%
%TO.N,/sheet5F71BCD3/B1*%
%TA.AperFunction,SMDPad,CuDef*%
G36*
G01*
X195756250Y-105225000D02*
X195243750Y-105225000D01*
G75*
G02*
X195025000Y-105006250I0J218750D01*
G01*
X195025000Y-104568750D01*
G75*
G02*
X195243750Y-104350000I218750J0D01*
G01*
X195756250Y-104350000D01*
G75*
G02*
X195975000Y-104568750I0J-218750D01*
G01*
X195975000Y-105006250D01*
G75*
G02*
X195756250Y-105225000I-218750J0D01*
G01*
G37*
%TD.AperFunction*%
%TO.P,R28,2*%
%TO.N,NAV2_RIGHT*%
%TA.AperFunction,SMDPad,CuDef*%
G36*
G01*
X195756250Y-103650000D02*
X195243750Y-103650000D01*
G75*
G02*
X195025000Y-103431250I0J218750D01*
G01*
X195025000Y-102993750D01*
G75*
G02*
X195243750Y-102775000I218750J0D01*
G01*
X195756250Y-102775000D01*
G75*
G02*
X195975000Y-102993750I0J-218750D01*
G01*
X195975000Y-103431250D01*
G75*
G02*
X195756250Y-103650000I-218750J0D01*
G01*
G37*
%TD.AperFunction*%
%TD*%
D23*
%TO.N,+5V*%
X157896600Y-47791300D03*
X160076500Y-97712500D03*
X79865000Y-94008000D03*
X119921000Y-97584100D03*
X111000000Y-118849700D03*
X40909700Y-97577500D03*
X119921300Y-47577500D03*
X78914900Y-47525300D03*
X165000000Y-64161400D03*
X111000000Y-52173900D03*
X111000000Y-102168400D03*
X189500000Y-102131300D03*
X40887200Y-50733700D03*
X189500000Y-52171800D03*
X189500000Y-118831600D03*
X38000000Y-108155700D03*
X109889300Y-67688300D03*
X189500000Y-65172100D03*
X36650000Y-105286600D03*
X36576000Y-102616000D03*
%TO.N,CLK*%
X159900300Y-55446800D03*
X129632600Y-45030900D03*
%TO.N,DIN*%
X62014600Y-44010000D03*
%TO.N,/5 digit LCD display/SEG_B*%
X46325200Y-47137800D03*
%TO.N,/5 digit LCD display/SEG_F*%
X47506600Y-47065600D03*
%TO.N,/sheet5F611637/SEG_B*%
X84374800Y-47183600D03*
%TO.N,/sheet5F611637/SEG_C*%
X79802700Y-44005700D03*
%TO.N,/sheet5F611637/SEG_A*%
X87903800Y-43502600D03*
%TO.N,/sheet5F611637/SEG_F*%
X89565600Y-43969800D03*
%TO.N,/sheet5F613960/SEG_E*%
X116982700Y-47278300D03*
%TO.N,/sheet5F613960/SEG_D*%
X115902900Y-47283800D03*
%TO.N,/sheet5F613960/DIG_4*%
X118203900Y-34691200D03*
%TO.N,/sheet5F613960/DIG_3*%
X124048900Y-38750400D03*
%TO.N,/sheet5F613961/SEG_A*%
X165388300Y-47308900D03*
%TO.N,/sheet5F613961/SEG_F*%
X166388700Y-47313400D03*
%TO.N,NAV1_KHZ_SW*%
X193389500Y-78257600D03*
%TO.N,COMM1_LEFT*%
X136276400Y-64885200D03*
%TO.N,COMM1_RIGHT*%
X152182200Y-67351000D03*
%TO.N,/sheet5F68A9C2/SEG_DP*%
X39205800Y-94000000D03*
%TO.N,/sheet5F68A9C2/SEG_F*%
X47575300Y-94182300D03*
%TO.N,/sheet5F68A9C2/SEG_A*%
X48967100Y-94029500D03*
%TO.N,/sheet5F68A9C2/DIG_3*%
X56625100Y-88464700D03*
%TO.N,/sheet5F68A9C3/SEG_C*%
X118951300Y-98309400D03*
%TO.N,/sheet5F68A9C4/SEG_G*%
X162668500Y-97405300D03*
%TO.N,/sheet5F68A9C4/DIG_3*%
X161391700Y-88068100D03*
%TO.N,/sheet5F68A9C5/SEG_A*%
X87299000Y-93992100D03*
%TO.N,/sheet5F68A9C5/SEG_F*%
X86132300Y-94014200D03*
%TO.N,/sheet5F68A9C5/SEG_B*%
X85012700Y-94003200D03*
%TO.N,/sheet5F68A9C5/SEG_C*%
X78898400Y-97405300D03*
%TO.N,GND*%
X162675000Y-87976000D03*
X192500000Y-52148400D03*
X77537000Y-84674500D03*
X121000000Y-50328500D03*
X36140200Y-109561200D03*
X80000000Y-100331000D03*
X124675000Y-34704000D03*
X114000000Y-118849700D03*
X80000000Y-50339200D03*
X45675000Y-37721900D03*
X41239600Y-100164000D03*
X193630100Y-67755200D03*
X158179500Y-50108000D03*
X83118700Y-84816500D03*
X162675000Y-37978100D03*
X160078600Y-99302700D03*
X156325000Y-84717600D03*
X125264700Y-84852200D03*
X45675000Y-88000200D03*
X39325000Y-84705500D03*
X83675000Y-37987400D03*
X42000000Y-53352600D03*
X115079600Y-67688300D03*
X118325000Y-37989700D03*
X114000000Y-52166800D03*
X77325000Y-34716000D03*
X39952000Y-37888600D03*
X156325000Y-37977200D03*
X118852300Y-84766600D03*
X39350000Y-102710700D03*
X114000000Y-102163000D03*
X192500000Y-118852100D03*
X192500000Y-102161000D03*
X122102500Y-99312500D03*
X35465700Y-101934400D03*
X39370000Y-105156000D03*
%TO.N,CS_LOAD*%
X167419300Y-85812400D03*
X86879100Y-84855900D03*
X129406800Y-86938900D03*
%TO.N,NAV1_XFR*%
X188554700Y-76882800D03*
%TO.N,RADIO1_LED*%
X72709900Y-74439300D03*
%TD*%
D24*
%TO.N,+5V*%
X157896600Y-47791300D02*
X158651200Y-47791300D01*
X158651200Y-47791300D02*
X158865000Y-47577500D01*
X158865000Y-47577500D02*
X159000000Y-47712500D01*
X158865000Y-45650000D02*
X158865000Y-47577500D01*
X79865000Y-95650000D02*
X79865000Y-94008000D01*
X119921000Y-97584100D02*
X120858400Y-97584100D01*
X120858400Y-97584100D02*
X120865000Y-97577500D01*
X120865000Y-97577500D02*
X121000000Y-97712500D01*
X120865000Y-95650000D02*
X120865000Y-97577500D01*
X40909700Y-97577500D02*
X41865000Y-97577500D01*
X41865000Y-97577500D02*
X42000000Y-97712500D01*
X41865000Y-95650000D02*
X41865000Y-97577500D01*
X36650000Y-104300000D02*
X36650000Y-104000000D01*
X120865000Y-47577500D02*
X119921300Y-47577500D01*
X120865000Y-47577500D02*
X121000000Y-47712500D01*
X120865000Y-45650000D02*
X120865000Y-47577500D01*
X79865000Y-47525300D02*
X79865000Y-47577500D01*
X79865000Y-47577500D02*
X80000000Y-47712500D01*
X79865000Y-45650000D02*
X79865000Y-47525300D01*
X78914900Y-47525300D02*
X79865000Y-47525300D01*
X165000000Y-64161400D02*
X165000000Y-65212500D01*
X158865000Y-95650000D02*
X158865000Y-97577500D01*
X158865000Y-97577500D02*
X159000000Y-97712500D01*
X79865000Y-95650000D02*
X79865000Y-97577500D01*
X79865000Y-97577500D02*
X80000000Y-97712500D01*
X41865000Y-50577500D02*
X42000000Y-50712500D01*
X41865000Y-48650000D02*
X41865000Y-50577500D01*
X40887200Y-50733700D02*
X41043400Y-50577500D01*
X41043400Y-50577500D02*
X41865000Y-50577500D01*
X38000000Y-109212500D02*
X38000000Y-108155700D01*
X34162500Y-104300000D02*
X35237800Y-104300000D01*
X36650000Y-104300000D02*
X35237800Y-104300000D01*
X36650000Y-105286600D02*
X36650000Y-104300000D01*
D25*
X36650000Y-104468000D02*
X36650000Y-105286600D01*
X34162500Y-104300000D02*
X36482000Y-104300000D01*
X36482000Y-104300000D02*
X36650000Y-104468000D01*
X36650000Y-104000000D02*
X36650000Y-102690000D01*
X36650000Y-102690000D02*
X36576000Y-102616000D01*
X38000000Y-108155700D02*
X38000000Y-108866000D01*
X38000000Y-108866000D02*
X38100000Y-108966000D01*
X41865000Y-95650000D02*
X41865000Y-97491000D01*
X111000000Y-117787500D02*
X111000000Y-118849700D01*
X111000000Y-103212500D02*
X111000000Y-102168400D01*
X189500000Y-117787500D02*
X189500000Y-118831600D01*
X189500000Y-103212500D02*
X189500000Y-102131300D01*
X159000000Y-97712500D02*
X160076500Y-97712500D01*
X120049400Y-97712500D02*
X119921000Y-97584100D01*
X121000000Y-97712500D02*
X120049400Y-97712500D01*
X120865000Y-95650000D02*
X120865000Y-97497000D01*
X120777900Y-97584100D02*
X119921000Y-97584100D01*
X120865000Y-97497000D02*
X120777900Y-97584100D01*
X80000000Y-97712500D02*
X80000000Y-95768000D01*
X79865000Y-95633000D02*
X79865000Y-94008000D01*
X80000000Y-95768000D02*
X79865000Y-95633000D01*
X41778500Y-97577500D02*
X40909700Y-97577500D01*
X41865000Y-97491000D02*
X41778500Y-97577500D01*
X109988500Y-67787500D02*
X109889300Y-67688300D01*
X111000000Y-67787500D02*
X109988500Y-67787500D01*
X111000000Y-53212500D02*
X111000000Y-52173900D01*
X189500000Y-53212500D02*
X189500000Y-52171800D01*
X189500000Y-66212500D02*
X189500000Y-65172100D01*
X158865000Y-45650000D02*
X158865000Y-47637000D01*
X158710700Y-47791300D02*
X157896600Y-47791300D01*
X158865000Y-47637000D02*
X158710700Y-47791300D01*
X120865000Y-45650000D02*
X120865000Y-47459000D01*
X120746500Y-47577500D02*
X119921300Y-47577500D01*
X120865000Y-47459000D02*
X120746500Y-47577500D01*
X79865000Y-45650000D02*
X79865000Y-47353000D01*
X79692700Y-47525300D02*
X78914900Y-47525300D01*
X79865000Y-47353000D02*
X79692700Y-47525300D01*
X40908400Y-50712500D02*
X40887200Y-50733700D01*
X42000000Y-50712500D02*
X40908400Y-50712500D01*
D26*
%TO.N,CLK*%
X87485000Y-97030400D02*
X88781200Y-98326600D01*
X88781200Y-98326600D02*
X117386700Y-98326600D01*
X117386700Y-98326600D02*
X118950900Y-96762400D01*
X118950900Y-96762400D02*
X118950900Y-94521900D01*
X118950900Y-94521900D02*
X119173800Y-94299000D01*
X119173800Y-94299000D02*
X122770000Y-94299000D01*
X87485000Y-95650000D02*
X87485000Y-97030400D01*
X87485000Y-97030400D02*
X82067100Y-97030400D01*
X82067100Y-97030400D02*
X81770000Y-96733300D01*
X81770000Y-96733300D02*
X81770000Y-94519400D01*
X81770000Y-94519400D02*
X80502300Y-93251700D01*
X80502300Y-93251700D02*
X79296100Y-93251700D01*
X79296100Y-93251700D02*
X77960000Y-94587800D01*
X77960000Y-94587800D02*
X77960000Y-96774800D01*
X77960000Y-96774800D02*
X77733800Y-97001000D01*
X77733800Y-97001000D02*
X73112800Y-97001000D01*
X73112800Y-97001000D02*
X70842300Y-94730500D01*
X70842300Y-94730500D02*
X60607800Y-94730500D01*
X60607800Y-94730500D02*
X59558600Y-95779700D01*
X59558600Y-95779700D02*
X59558600Y-96694200D01*
X59558600Y-96694200D02*
X58374900Y-97877900D01*
X58374900Y-97877900D02*
X51712900Y-97877900D01*
X51712900Y-97877900D02*
X49485000Y-95650000D01*
X153830300Y-88152000D02*
X159035600Y-93357400D01*
X159035600Y-93357400D02*
X164622400Y-93357400D01*
X164622400Y-93357400D02*
X166485000Y-95220000D01*
X166485000Y-95220000D02*
X166485000Y-95650000D01*
X159900300Y-55446800D02*
X159900300Y-60737500D01*
X159900300Y-60737500D02*
X153150000Y-67487800D01*
X153150000Y-67487800D02*
X153150000Y-87471800D01*
X153150000Y-87471800D02*
X153830300Y-88152000D01*
X122770000Y-94299000D02*
X122770000Y-96755900D01*
X122770000Y-96755900D02*
X125754900Y-99740800D01*
X125754900Y-99740800D02*
X143133300Y-99740800D01*
X143133300Y-99740800D02*
X146477200Y-96396900D01*
X146477200Y-96396900D02*
X146477200Y-95505100D01*
X146477200Y-95505100D02*
X153830300Y-88152000D01*
X128485000Y-95650000D02*
X128485000Y-95203800D01*
X128485000Y-95203800D02*
X127580200Y-94299000D01*
X127580200Y-94299000D02*
X122770000Y-94299000D01*
X166485000Y-45650000D02*
X166485000Y-45189900D01*
X166485000Y-45189900D02*
X165564900Y-44269800D01*
X165564900Y-44269800D02*
X161075100Y-44269800D01*
X161075100Y-44269800D02*
X160770000Y-44574900D01*
X160770000Y-44574900D02*
X160770000Y-54577100D01*
X160770000Y-54577100D02*
X159900300Y-55446800D01*
X81770000Y-44306400D02*
X80691100Y-43227500D01*
X80691100Y-43227500D02*
X79295800Y-43227500D01*
X79295800Y-43227500D02*
X77960000Y-44563300D01*
X77960000Y-44563300D02*
X77960000Y-46721500D01*
X77960000Y-46721500D02*
X75452400Y-49229100D01*
X75452400Y-49229100D02*
X50064100Y-49229100D01*
X50064100Y-49229100D02*
X49485000Y-48650000D01*
X128485000Y-45218800D02*
X126134000Y-42867800D01*
X126134000Y-42867800D02*
X114283000Y-42867800D01*
X114283000Y-42867800D02*
X108754800Y-48396000D01*
X108754800Y-48396000D02*
X83399200Y-48396000D01*
X83399200Y-48396000D02*
X81770000Y-46766800D01*
X81770000Y-46766800D02*
X81770000Y-44306400D01*
X81770000Y-44306400D02*
X81823100Y-44253300D01*
X81823100Y-44253300D02*
X86522700Y-44253300D01*
X86522700Y-44253300D02*
X87485000Y-45215600D01*
X87485000Y-45215600D02*
X87485000Y-45650000D01*
X128485000Y-45218800D02*
X128485000Y-45650000D01*
X128485000Y-45218800D02*
X129444700Y-45218800D01*
X129444700Y-45218800D02*
X129632600Y-45030900D01*
%TO.N,DIN*%
X62014600Y-44010000D02*
X60511100Y-42506500D01*
X60511100Y-42506500D02*
X38178200Y-42506500D01*
X38178200Y-42506500D02*
X35515000Y-39843300D01*
X35515000Y-39843300D02*
X35515000Y-39350000D01*
%TO.N,/5 digit LCD display/SEG_DP*%
X38055000Y-48650000D02*
X38055000Y-48210200D01*
X38055000Y-48210200D02*
X41514700Y-44750500D01*
X41514700Y-44750500D02*
X53759300Y-44750500D01*
X53759300Y-44750500D02*
X54458500Y-45449700D01*
X54458500Y-45449700D02*
X54458500Y-46327200D01*
X54458500Y-46327200D02*
X55536600Y-47405300D01*
X55536600Y-47405300D02*
X58460000Y-47405300D01*
X58460000Y-46080000D02*
X58460000Y-47405300D01*
%TO.N,/5 digit LCD display/SEG_B*%
X45675000Y-48650000D02*
X45675000Y-47788000D01*
X45675000Y-47788000D02*
X46325200Y-47137800D01*
%TO.N,/5 digit LCD display/SEG_C*%
X61000000Y-47405300D02*
X60549700Y-47855600D01*
X60549700Y-47855600D02*
X53445800Y-47855600D01*
X53445800Y-47855600D02*
X51458500Y-45868300D01*
X51458500Y-45868300D02*
X42877000Y-45868300D01*
X42877000Y-45868300D02*
X40595000Y-48150300D01*
X40595000Y-48150300D02*
X40595000Y-48650000D01*
X61000000Y-46080000D02*
X61000000Y-47405300D01*
%TO.N,/5 digit LCD display/SEG_A*%
X48215000Y-48650000D02*
X48215000Y-48204600D01*
X48215000Y-48204600D02*
X49126400Y-47293200D01*
X49126400Y-47293200D02*
X50607200Y-47293200D01*
X50607200Y-47293200D02*
X52086100Y-48772100D01*
X52086100Y-48772100D02*
X62590700Y-48772100D01*
X62590700Y-48772100D02*
X64499500Y-46863300D01*
X64499500Y-46863300D02*
X64499500Y-45327800D01*
X64499500Y-45327800D02*
X56417000Y-37245300D01*
X56417000Y-37245300D02*
X55920000Y-37245300D01*
X55920000Y-35920000D02*
X55920000Y-37245300D01*
%TO.N,/5 digit LCD display/DIG_4*%
X68620000Y-34594700D02*
X66770800Y-32745500D01*
X66770800Y-32745500D02*
X45452500Y-32745500D01*
X45452500Y-32745500D02*
X41303500Y-36894500D01*
X41303500Y-36894500D02*
X39901300Y-36894500D01*
X39901300Y-36894500D02*
X38055000Y-38740800D01*
X38055000Y-38740800D02*
X38055000Y-39350000D01*
X68620000Y-35920000D02*
X68620000Y-34594700D01*
%TO.N,/5 digit LCD display/SEG_D*%
X55920000Y-46080000D02*
X55920000Y-44754700D01*
X55920000Y-44754700D02*
X55465400Y-44300100D01*
X55465400Y-44300100D02*
X40585000Y-44300100D01*
X40585000Y-44300100D02*
X36785000Y-48100100D01*
X36785000Y-48100100D02*
X36785000Y-48650000D01*
%TO.N,/5 digit LCD display/SEG_F*%
X47506600Y-47065600D02*
X47506600Y-48088400D01*
X47506600Y-48088400D02*
X46945000Y-48650000D01*
%TO.N,/5 digit LCD display/SEG_E*%
X39325000Y-48650000D02*
X39325000Y-48162300D01*
X39325000Y-48162300D02*
X42069300Y-45418000D01*
X42069300Y-45418000D02*
X52718000Y-45418000D01*
X52718000Y-45418000D02*
X53380000Y-46080000D01*
%TO.N,/5 digit LCD display/SEG_G*%
X63540000Y-46080000D02*
X61314000Y-48306000D01*
X61314000Y-48306000D02*
X53115100Y-48306000D01*
X53115100Y-48306000D02*
X51127800Y-46318700D01*
X51127800Y-46318700D02*
X46103600Y-46318700D01*
X46103600Y-46318700D02*
X44405000Y-48017300D01*
X44405000Y-48017300D02*
X44405000Y-48650000D01*
%TO.N,/5 digit LCD display/DIG_3*%
X66080000Y-46080000D02*
X66080000Y-44754700D01*
X66080000Y-44754700D02*
X65583000Y-44754700D01*
X65583000Y-44754700D02*
X57190000Y-36361700D01*
X57190000Y-36361700D02*
X57190000Y-35479200D01*
X57190000Y-35479200D02*
X56257600Y-34546800D01*
X56257600Y-34546800D02*
X53044200Y-34546800D01*
X53044200Y-34546800D02*
X51187800Y-36403200D01*
X51187800Y-36403200D02*
X51187800Y-39437500D01*
X51187800Y-39437500D02*
X49903900Y-40721400D01*
X49903900Y-40721400D02*
X44051800Y-40721400D01*
X44051800Y-40721400D02*
X43135000Y-39804600D01*
X43135000Y-39804600D02*
X43135000Y-39350000D01*
%TO.N,/5 digit LCD display/DIG_2*%
X63540000Y-34594700D02*
X62141100Y-33195800D01*
X62141100Y-33195800D02*
X47589100Y-33195800D01*
X47589100Y-33195800D02*
X41865000Y-38919900D01*
X41865000Y-38919900D02*
X41865000Y-39350000D01*
X63540000Y-35920000D02*
X63540000Y-34594700D01*
%TO.N,/5 digit LCD display/DIG_1*%
X61000000Y-34594700D02*
X60051400Y-33646100D01*
X60051400Y-33646100D02*
X52671100Y-33646100D01*
X52671100Y-33646100D02*
X48215000Y-38102200D01*
X48215000Y-38102200D02*
X48215000Y-39350000D01*
X61000000Y-35920000D02*
X61000000Y-34594700D01*
%TO.N,/5 digit LCD display/DIG_0*%
X36785000Y-39350000D02*
X36785000Y-39785100D01*
X36785000Y-39785100D02*
X38192100Y-41192200D01*
X38192100Y-41192200D02*
X50070000Y-41192200D01*
X50070000Y-41192200D02*
X53380000Y-37882200D01*
X53380000Y-37882200D02*
X53380000Y-37245300D01*
X53380000Y-35920000D02*
X53380000Y-37245300D01*
%TO.N,/sheet5F611637/SEG_DP*%
X96460000Y-47405300D02*
X93500700Y-47405300D01*
X93500700Y-47405300D02*
X92936100Y-46840700D01*
X92936100Y-46840700D02*
X92936100Y-45673800D01*
X92936100Y-45673800D02*
X89581200Y-42318900D01*
X89581200Y-42318900D02*
X78848000Y-42318900D01*
X78848000Y-42318900D02*
X76055000Y-45111900D01*
X76055000Y-45111900D02*
X76055000Y-45650000D01*
X96460000Y-46080000D02*
X96460000Y-47405300D01*
%TO.N,/sheet5F611637/SEG_B*%
X83675000Y-45650000D02*
X83675000Y-46483800D01*
X83675000Y-46483800D02*
X84374800Y-47183600D01*
%TO.N,/sheet5F611637/SEG_C*%
X78595000Y-45650000D02*
X78595000Y-45213400D01*
X78595000Y-45213400D02*
X79802700Y-44005700D01*
%TO.N,/sheet5F611637/SEG_A*%
X86215000Y-45650000D02*
X86215000Y-46095000D01*
X86215000Y-46095000D02*
X87126000Y-47006000D01*
X87126000Y-47006000D02*
X87826700Y-47006000D01*
X87826700Y-47006000D02*
X88116700Y-46716000D01*
X88116700Y-46716000D02*
X88116700Y-43715500D01*
X88116700Y-43715500D02*
X87903800Y-43502600D01*
%TO.N,/sheet5F611637/DIG_4*%
X106620000Y-34594700D02*
X106128900Y-34103600D01*
X106128900Y-34103600D02*
X94027800Y-34103600D01*
X94027800Y-34103600D02*
X92452900Y-35678500D01*
X92452900Y-35678500D02*
X92452900Y-36577600D01*
X92452900Y-36577600D02*
X91785100Y-37245400D01*
X91785100Y-37245400D02*
X90926500Y-37245400D01*
X90926500Y-37245400D02*
X87667300Y-33986200D01*
X87667300Y-33986200D02*
X76977200Y-33986200D01*
X76977200Y-33986200D02*
X76055000Y-34908400D01*
X76055000Y-34908400D02*
X76055000Y-36350000D01*
X106620000Y-35920000D02*
X106620000Y-34594700D01*
%TO.N,/sheet5F611637/SEG_D*%
X74785000Y-45650000D02*
X74785000Y-45206900D01*
X74785000Y-45206900D02*
X78123400Y-41868500D01*
X78123400Y-41868500D02*
X91033800Y-41868500D01*
X91033800Y-41868500D02*
X93920000Y-44754700D01*
X93920000Y-46080000D02*
X93920000Y-44754700D01*
%TO.N,/sheet5F611637/SEG_F*%
X84945000Y-45650000D02*
X84945000Y-46090900D01*
X84945000Y-46090900D02*
X86330900Y-47476800D01*
X86330900Y-47476800D02*
X88025800Y-47476800D01*
X88025800Y-47476800D02*
X89565600Y-45937000D01*
X89565600Y-45937000D02*
X89565600Y-43969800D01*
%TO.N,/sheet5F611637/SEG_E*%
X91380000Y-44754700D02*
X89402400Y-42777100D01*
X89402400Y-42777100D02*
X79109300Y-42777100D01*
X79109300Y-42777100D02*
X77325000Y-44561400D01*
X77325000Y-44561400D02*
X77325000Y-45650000D01*
X91380000Y-46080000D02*
X91380000Y-44754700D01*
%TO.N,/sheet5F611637/SEG_G*%
X101540000Y-46080000D02*
X101540000Y-47405300D01*
X101540000Y-47405300D02*
X101001000Y-47944300D01*
X101001000Y-47944300D02*
X84076500Y-47944300D01*
X84076500Y-47944300D02*
X82405000Y-46272800D01*
X82405000Y-46272800D02*
X82405000Y-45650000D01*
%TO.N,/sheet5F611637/DIG_3*%
X104080000Y-46080000D02*
X104080000Y-44754700D01*
X104080000Y-44754700D02*
X98584600Y-39259300D01*
X98584600Y-39259300D02*
X83548800Y-39259300D01*
X83548800Y-39259300D02*
X81135000Y-36845500D01*
X81135000Y-36845500D02*
X81135000Y-36350000D01*
%TO.N,/sheet5F611637/DIG_2*%
X101540000Y-35920000D02*
X101540000Y-34594700D01*
X101540000Y-34594700D02*
X98581400Y-34594700D01*
X98581400Y-34594700D02*
X97730000Y-35446100D01*
X97730000Y-35446100D02*
X97730000Y-36429800D01*
X97730000Y-36429800D02*
X96433100Y-37726700D01*
X96433100Y-37726700D02*
X90630800Y-37726700D01*
X90630800Y-37726700D02*
X87433000Y-34528900D01*
X87433000Y-34528900D02*
X80571900Y-34528900D01*
X80571900Y-34528900D02*
X79865000Y-35235800D01*
X79865000Y-35235800D02*
X79865000Y-36350000D01*
%TO.N,/sheet5F611637/DIG_1*%
X86215000Y-36350000D02*
X86215000Y-36782700D01*
X86215000Y-36782700D02*
X87609400Y-38177100D01*
X87609400Y-38177100D02*
X98068200Y-38177100D01*
X98068200Y-38177100D02*
X99000000Y-37245300D01*
X99000000Y-35920000D02*
X99000000Y-37245300D01*
%TO.N,/sheet5F611637/DIG_0*%
X91380000Y-34594700D02*
X90266100Y-33480800D01*
X90266100Y-33480800D02*
X76809200Y-33480800D01*
X76809200Y-33480800D02*
X74785000Y-35505000D01*
X74785000Y-35505000D02*
X74785000Y-36350000D01*
X91380000Y-35920000D02*
X91380000Y-34594700D01*
%TO.N,/sheet5F613960/SEG_G*%
X142540000Y-46080000D02*
X139324500Y-49295500D01*
X139324500Y-49295500D02*
X125897100Y-49295500D01*
X125897100Y-49295500D02*
X123405000Y-46803400D01*
X123405000Y-46803400D02*
X123405000Y-45650000D01*
%TO.N,/sheet5F613960/SEG_E*%
X118325000Y-45650000D02*
X118325000Y-45185900D01*
X118325000Y-45185900D02*
X117402600Y-44263500D01*
X117402600Y-44263500D02*
X116707600Y-44263500D01*
X116707600Y-44263500D02*
X116420000Y-44551100D01*
X116420000Y-44551100D02*
X116420000Y-46715600D01*
X116420000Y-46715600D02*
X116982700Y-47278300D01*
%TO.N,/sheet5F613960/SEG_F*%
X137460000Y-35920000D02*
X137460000Y-39015400D01*
X137460000Y-39015400D02*
X128982100Y-47493300D01*
X128982100Y-47493300D02*
X127235100Y-47493300D01*
X127235100Y-47493300D02*
X125945000Y-46203200D01*
X125945000Y-46203200D02*
X125945000Y-45650000D01*
%TO.N,/sheet5F613960/SEG_D*%
X115785000Y-45650000D02*
X115785000Y-47165900D01*
X115785000Y-47165900D02*
X115902900Y-47283800D01*
%TO.N,/sheet5F613960/DIG_4*%
X118203900Y-34691200D02*
X117055000Y-35840100D01*
X117055000Y-35840100D02*
X117055000Y-36350000D01*
%TO.N,/sheet5F613960/SEG_A*%
X134920000Y-37245300D02*
X134920000Y-40918500D01*
X134920000Y-40918500D02*
X128827000Y-47011500D01*
X128827000Y-47011500D02*
X128083700Y-47011500D01*
X128083700Y-47011500D02*
X127215000Y-46142800D01*
X127215000Y-46142800D02*
X127215000Y-45650000D01*
X134920000Y-35920000D02*
X134920000Y-37245300D01*
%TO.N,/sheet5F613960/SEG_C*%
X119595000Y-45650000D02*
X119595000Y-45192400D01*
X119595000Y-45192400D02*
X120513500Y-44273900D01*
X120513500Y-44273900D02*
X122509600Y-44273900D01*
X122509600Y-44273900D02*
X122770000Y-44534300D01*
X122770000Y-44534300D02*
X122770000Y-46832100D01*
X122770000Y-46832100D02*
X125683700Y-49745800D01*
X125683700Y-49745800D02*
X140618900Y-49745800D01*
X140618900Y-49745800D02*
X143519800Y-46844900D01*
X143519800Y-46844900D02*
X143519800Y-45322100D01*
X143519800Y-45322100D02*
X142952400Y-44754700D01*
X142952400Y-44754700D02*
X140000000Y-44754700D01*
X140000000Y-46080000D02*
X140000000Y-44754700D01*
%TO.N,/sheet5F613960/SEG_B*%
X145080000Y-37245300D02*
X144545600Y-37245300D01*
X144545600Y-37245300D02*
X136190000Y-45600900D01*
X136190000Y-45600900D02*
X136190000Y-46543500D01*
X136190000Y-46543500D02*
X134339200Y-48394300D01*
X134339200Y-48394300D02*
X126307300Y-48394300D01*
X126307300Y-48394300D02*
X124675000Y-46762000D01*
X124675000Y-46762000D02*
X124675000Y-45650000D01*
X145080000Y-35920000D02*
X145080000Y-37245300D01*
%TO.N,/sheet5F613960/SEG_DP*%
X137460000Y-47405300D02*
X136020700Y-48844600D01*
X136020700Y-48844600D02*
X126118800Y-48844600D01*
X126118800Y-48844600D02*
X124040000Y-46765800D01*
X124040000Y-46765800D02*
X124040000Y-44524900D01*
X124040000Y-44524900D02*
X123313600Y-43798500D01*
X123313600Y-43798500D02*
X119694800Y-43798500D01*
X119694800Y-43798500D02*
X118960000Y-44533300D01*
X118960000Y-44533300D02*
X118960000Y-46762000D01*
X118960000Y-46762000D02*
X118691100Y-47030900D01*
X118691100Y-47030900D02*
X117969400Y-47030900D01*
X117969400Y-47030900D02*
X117055000Y-46116500D01*
X117055000Y-46116500D02*
X117055000Y-45650000D01*
X137460000Y-46080000D02*
X137460000Y-47405300D01*
%TO.N,/sheet5F613960/DIG_3*%
X124048900Y-38750400D02*
X122135000Y-36836500D01*
X122135000Y-36836500D02*
X122135000Y-36350000D01*
%TO.N,/sheet5F613960/DIG_2*%
X142540000Y-35920000D02*
X142540000Y-37245300D01*
X142540000Y-37245300D02*
X139580100Y-37245300D01*
X139580100Y-37245300D02*
X138674600Y-36339800D01*
X138674600Y-36339800D02*
X138674600Y-35358700D01*
X138674600Y-35358700D02*
X137910500Y-34594600D01*
X137910500Y-34594600D02*
X134536700Y-34594600D01*
X134536700Y-34594600D02*
X133584100Y-35547200D01*
X133584100Y-35547200D02*
X133584100Y-36702400D01*
X133584100Y-36702400D02*
X130802200Y-39484300D01*
X130802200Y-39484300D02*
X123564200Y-39484300D01*
X123564200Y-39484300D02*
X120865000Y-36785100D01*
X120865000Y-36785100D02*
X120865000Y-36350000D01*
%TO.N,/sheet5F613960/DIG_1*%
X140000000Y-34594700D02*
X139549600Y-34144300D01*
X139549600Y-34144300D02*
X132447000Y-34144300D01*
X132447000Y-34144300D02*
X128851400Y-37739900D01*
X128851400Y-37739900D02*
X128154000Y-37739900D01*
X128154000Y-37739900D02*
X127215000Y-36800900D01*
X127215000Y-36800900D02*
X127215000Y-36350000D01*
X140000000Y-35920000D02*
X140000000Y-34594700D01*
%TO.N,/sheet5F613960/DIG_0*%
X132380000Y-35920000D02*
X132380000Y-37245300D01*
X132380000Y-37245300D02*
X131435000Y-38190300D01*
X131435000Y-38190300D02*
X127327100Y-38190300D01*
X127327100Y-38190300D02*
X126580000Y-37443200D01*
X126580000Y-37443200D02*
X126580000Y-35251800D01*
X126580000Y-35251800D02*
X125256800Y-33928600D01*
X125256800Y-33928600D02*
X117762000Y-33928600D01*
X117762000Y-33928600D02*
X115785000Y-35905600D01*
X115785000Y-35905600D02*
X115785000Y-36350000D01*
%TO.N,/sheet5F613961/SEG_DP*%
X175460000Y-47405300D02*
X172525600Y-47405300D01*
X172525600Y-47405300D02*
X171776800Y-46656500D01*
X171776800Y-46656500D02*
X171776800Y-45728600D01*
X171776800Y-45728600D02*
X168937900Y-42889700D01*
X168937900Y-42889700D02*
X157384100Y-42889700D01*
X157384100Y-42889700D02*
X155055000Y-45218800D01*
X155055000Y-45218800D02*
X155055000Y-45650000D01*
X175460000Y-46080000D02*
X175460000Y-47405300D01*
%TO.N,/sheet5F613961/SEG_B*%
X183080000Y-35920000D02*
X183080000Y-39411300D01*
X183080000Y-39411300D02*
X184032800Y-40364100D01*
X184032800Y-40364100D02*
X184032800Y-46888100D01*
X184032800Y-46888100D02*
X183504100Y-47416800D01*
X183504100Y-47416800D02*
X182658000Y-47416800D01*
X182658000Y-47416800D02*
X181810000Y-46568800D01*
X181810000Y-46568800D02*
X181810000Y-45612200D01*
X181810000Y-45612200D02*
X180920400Y-44722600D01*
X180920400Y-44722600D02*
X180132700Y-44722600D01*
X180132700Y-44722600D02*
X179458000Y-45397300D01*
X179458000Y-45397300D02*
X179458000Y-46338300D01*
X179458000Y-46338300D02*
X177259600Y-48536700D01*
X177259600Y-48536700D02*
X164931100Y-48536700D01*
X164931100Y-48536700D02*
X162675000Y-46280600D01*
X162675000Y-46280600D02*
X162675000Y-45650000D01*
%TO.N,/sheet5F613961/SEG_C*%
X178000000Y-46080000D02*
X176174900Y-47905100D01*
X176174900Y-47905100D02*
X170437500Y-47905100D01*
X170437500Y-47905100D02*
X166322700Y-43790300D01*
X166322700Y-43790300D02*
X158994600Y-43790300D01*
X158994600Y-43790300D02*
X157595000Y-45189900D01*
X157595000Y-45189900D02*
X157595000Y-45650000D01*
%TO.N,/sheet5F613961/SEG_A*%
X165388300Y-47308900D02*
X165215000Y-47135600D01*
X165215000Y-47135600D02*
X165215000Y-45650000D01*
%TO.N,/sheet5F613961/DIG_4*%
X185620000Y-35920000D02*
X185620000Y-34594700D01*
X155055000Y-36350000D02*
X155055000Y-35915300D01*
X155055000Y-35915300D02*
X156882800Y-34087500D01*
X156882800Y-34087500D02*
X166149200Y-34087500D01*
X166149200Y-34087500D02*
X169353500Y-37291800D01*
X169353500Y-37291800D02*
X170718000Y-37291800D01*
X170718000Y-37291800D02*
X171650000Y-36359800D01*
X171650000Y-36359800D02*
X171650000Y-35444400D01*
X171650000Y-35444400D02*
X172965200Y-34129200D01*
X172965200Y-34129200D02*
X185154500Y-34129200D01*
X185154500Y-34129200D02*
X185620000Y-34594700D01*
%TO.N,/sheet5F613961/SEG_D*%
X172920000Y-44754700D02*
X170604700Y-42439400D01*
X170604700Y-42439400D02*
X156563600Y-42439400D01*
X156563600Y-42439400D02*
X153785000Y-45218000D01*
X153785000Y-45218000D02*
X153785000Y-45650000D01*
X172920000Y-46080000D02*
X172920000Y-44754700D01*
%TO.N,/sheet5F613961/SEG_F*%
X166388700Y-47313400D02*
X166388700Y-47334300D01*
X166388700Y-47334300D02*
X165664600Y-48058400D01*
X165664600Y-48058400D02*
X165110100Y-48058400D01*
X165110100Y-48058400D02*
X163945000Y-46893300D01*
X163945000Y-46893300D02*
X163945000Y-45650000D01*
%TO.N,/sheet5F613961/SEG_E*%
X170380000Y-46080000D02*
X167640000Y-43340000D01*
X167640000Y-43340000D02*
X158202800Y-43340000D01*
X158202800Y-43340000D02*
X156325000Y-45217800D01*
X156325000Y-45217800D02*
X156325000Y-45650000D01*
%TO.N,/sheet5F613961/SEG_G*%
X161405000Y-45650000D02*
X161405000Y-46088300D01*
X161405000Y-46088300D02*
X164323400Y-49006700D01*
X164323400Y-49006700D02*
X178938600Y-49006700D01*
X178938600Y-49006700D02*
X180540000Y-47405300D01*
X180540000Y-46080000D02*
X180540000Y-47405300D01*
%TO.N,/sheet5F613961/DIG_3*%
X183080000Y-46080000D02*
X183080000Y-44754700D01*
X183080000Y-44754700D02*
X177582200Y-39256900D01*
X177582200Y-39256900D02*
X162535100Y-39256900D01*
X162535100Y-39256900D02*
X160135000Y-36856800D01*
X160135000Y-36856800D02*
X160135000Y-36350000D01*
%TO.N,/sheet5F613961/DIG_2*%
X180540000Y-35920000D02*
X180540000Y-37245300D01*
X180540000Y-37245300D02*
X179136100Y-38649200D01*
X179136100Y-38649200D02*
X164533600Y-38649200D01*
X164533600Y-38649200D02*
X163310000Y-37425600D01*
X163310000Y-37425600D02*
X163310000Y-35216600D01*
X163310000Y-35216600D02*
X163081500Y-34988100D01*
X163081500Y-34988100D02*
X159734100Y-34988100D01*
X159734100Y-34988100D02*
X158865000Y-35857200D01*
X158865000Y-35857200D02*
X158865000Y-36350000D01*
%TO.N,/sheet5F613961/DIG_1*%
X178000000Y-35920000D02*
X178000000Y-37245300D01*
X178000000Y-37245300D02*
X177046500Y-38198800D01*
X177046500Y-38198800D02*
X166506200Y-38198800D01*
X166506200Y-38198800D02*
X165215000Y-36907600D01*
X165215000Y-36907600D02*
X165215000Y-36350000D01*
%TO.N,/sheet5F613961/DIG_0*%
X170380000Y-34594700D02*
X169422500Y-33637200D01*
X169422500Y-33637200D02*
X155997900Y-33637200D01*
X155997900Y-33637200D02*
X153785000Y-35850100D01*
X153785000Y-35850100D02*
X153785000Y-36350000D01*
X170380000Y-35920000D02*
X170380000Y-34594700D01*
%TO.N,Net-(R1-Pad2)*%
X165000000Y-66787500D02*
X163287500Y-68500000D01*
X163287500Y-68500000D02*
X155500000Y-68500000D01*
%TO.N,ISET*%
X81135000Y-97844600D02*
X82333200Y-99042800D01*
X82333200Y-99042800D02*
X119371300Y-99042800D01*
X119371300Y-99042800D02*
X119914100Y-98500000D01*
X119914100Y-98500000D02*
X121469700Y-98500000D01*
X121469700Y-98500000D02*
X122135000Y-97834700D01*
X122135000Y-97834700D02*
X122135000Y-95650000D01*
X160135000Y-95650000D02*
X160135000Y-95111100D01*
X160135000Y-95111100D02*
X158818700Y-93794800D01*
X158818700Y-93794800D02*
X152648500Y-93794800D01*
X152648500Y-93794800D02*
X146252100Y-100191200D01*
X146252100Y-100191200D02*
X124491500Y-100191200D01*
X124491500Y-100191200D02*
X122135000Y-97834700D01*
X81135000Y-97844600D02*
X81135000Y-95650000D01*
X43135000Y-97884600D02*
X44523100Y-99272700D01*
X44523100Y-99272700D02*
X76943200Y-99272700D01*
X76943200Y-99272700D02*
X77715900Y-98500000D01*
X77715900Y-98500000D02*
X80479600Y-98500000D01*
X80479600Y-98500000D02*
X81135000Y-97844600D01*
X43135000Y-97884600D02*
X43135000Y-95650000D01*
X44045000Y-50051100D02*
X44045000Y-55249200D01*
X44045000Y-55249200D02*
X34888200Y-64406000D01*
X34888200Y-64406000D02*
X34888200Y-96776800D01*
X34888200Y-96776800D02*
X36611400Y-98500000D01*
X36611400Y-98500000D02*
X42519600Y-98500000D01*
X42519600Y-98500000D02*
X43135000Y-97884600D01*
X43135000Y-48650000D02*
X43135000Y-49141100D01*
X43135000Y-49141100D02*
X44045000Y-50051100D01*
X81135000Y-48500000D02*
X79198800Y-48500000D01*
X79198800Y-48500000D02*
X77647700Y-50051100D01*
X77647700Y-50051100D02*
X44045000Y-50051100D01*
X122135000Y-47831400D02*
X121490300Y-48476100D01*
X121490300Y-48476100D02*
X115481200Y-48476100D01*
X115481200Y-48476100D02*
X115065300Y-48892000D01*
X115065300Y-48892000D02*
X81527000Y-48892000D01*
X81527000Y-48892000D02*
X81135000Y-48500000D01*
X81135000Y-48500000D02*
X81135000Y-45650000D01*
X157246000Y-50857600D02*
X157246000Y-61754000D01*
X157246000Y-61754000D02*
X155500000Y-63500000D01*
X122135000Y-47831400D02*
X124499700Y-50196100D01*
X124499700Y-50196100D02*
X146229300Y-50196100D01*
X146229300Y-50196100D02*
X152137500Y-44287900D01*
X152137500Y-44287900D02*
X152893900Y-44287900D01*
X152893900Y-44287900D02*
X153150000Y-44544000D01*
X153150000Y-44544000D02*
X153150000Y-46761600D01*
X153150000Y-46761600D02*
X157246000Y-50857600D01*
X160135000Y-45650000D02*
X160135000Y-49413200D01*
X160135000Y-49413200D02*
X158690600Y-50857600D01*
X158690600Y-50857600D02*
X157246000Y-50857600D01*
X122135000Y-45650000D02*
X122135000Y-47831400D01*
%TO.N,/sheet5F611637/DIN*%
X73515000Y-36350000D02*
X69460200Y-32295200D01*
X69460200Y-32295200D02*
X44512100Y-32295200D01*
X44512100Y-32295200D02*
X40608100Y-36199200D01*
X40608100Y-36199200D02*
X36911500Y-36199200D01*
X36911500Y-36199200D02*
X34865100Y-38245600D01*
X34865100Y-38245600D02*
X34865100Y-48000100D01*
X34865100Y-48000100D02*
X35515000Y-48650000D01*
%TO.N,/sheet5F613960/DIN*%
X73515000Y-45650000D02*
X73515000Y-45209200D01*
X73515000Y-45209200D02*
X77308400Y-41415800D01*
X77308400Y-41415800D02*
X98683000Y-41415800D01*
X98683000Y-41415800D02*
X102810000Y-45542800D01*
X102810000Y-45542800D02*
X102810000Y-46556100D01*
X102810000Y-46556100D02*
X103685700Y-47431800D01*
X103685700Y-47431800D02*
X104438300Y-47431800D01*
X104438300Y-47431800D02*
X105350000Y-46520100D01*
X105350000Y-46520100D02*
X105350000Y-45515000D01*
X105350000Y-45515000D02*
X114515000Y-36350000D01*
%TO.N,/sheet5F613961/DIN*%
X152515000Y-36350000D02*
X150755800Y-34590800D01*
X150755800Y-34590800D02*
X144670300Y-34590800D01*
X144670300Y-34590800D02*
X143810000Y-35451100D01*
X143810000Y-35451100D02*
X143810000Y-36634400D01*
X143810000Y-36634400D02*
X137136000Y-43308400D01*
X137136000Y-43308400D02*
X135974500Y-43308400D01*
X135974500Y-43308400D02*
X133650000Y-45632900D01*
X133650000Y-45632900D02*
X133650000Y-46536300D01*
X133650000Y-46536300D02*
X132242600Y-47943700D01*
X132242600Y-47943700D02*
X126495400Y-47943700D01*
X126495400Y-47943700D02*
X125310000Y-46758300D01*
X125310000Y-46758300D02*
X125310000Y-44561600D01*
X125310000Y-44561600D02*
X124096400Y-43348000D01*
X124096400Y-43348000D02*
X116318500Y-43348000D01*
X116318500Y-43348000D02*
X114515000Y-45151500D01*
X114515000Y-45151500D02*
X114515000Y-45650000D01*
%TO.N,Net-(D1-Pad2)*%
X35000000Y-110787500D02*
X38000000Y-110787500D01*
%TO.N,Net-(D3-Pad2)*%
X63000000Y-66787500D02*
X60327500Y-66787500D01*
X60327500Y-66787500D02*
X59540000Y-66000000D01*
%TO.N,Net-(J2-Pad6)*%
X31462500Y-104000000D02*
X31462500Y-102000000D01*
X32100200Y-105900000D02*
X31462500Y-105262300D01*
X31462500Y-105262300D02*
X31462500Y-104000000D01*
X31462500Y-102000000D02*
X31462500Y-100924700D01*
X32100200Y-100418800D02*
X34081300Y-100418800D01*
X34081300Y-100418800D02*
X34162500Y-100500000D01*
X31462500Y-100924700D02*
X31594300Y-100924700D01*
X31594300Y-100924700D02*
X32100200Y-100418800D01*
X32100200Y-100100000D02*
X32100200Y-100418800D01*
X31462500Y-100100000D02*
X32100200Y-100100000D01*
X32100200Y-105900000D02*
X32737800Y-105900000D01*
X31462500Y-105900000D02*
X32100200Y-105900000D01*
X34162500Y-105500000D02*
X33762500Y-105900000D01*
X33762500Y-105900000D02*
X32737800Y-105900000D01*
X31462500Y-106500000D02*
X31462500Y-105900000D01*
X31462500Y-99500000D02*
X31462500Y-100100000D01*
%TO.N,/Tuning rotary encoder and switch/A1*%
X113500000Y-66212500D02*
X114000000Y-66212500D01*
X111000000Y-66212500D02*
X113500000Y-66212500D01*
X113500000Y-66212500D02*
X113500000Y-63000000D01*
X117000000Y-66212500D02*
X114000000Y-66212500D01*
%TO.N,/Tuning rotary encoder and switch/B1*%
X117000000Y-54787500D02*
X114000000Y-54787500D01*
X113500000Y-54787500D02*
X114000000Y-54787500D01*
X111000000Y-54787500D02*
X113500000Y-54787500D01*
X113500000Y-54787500D02*
X113500000Y-58000000D01*
%TO.N,/sheet5F5DD32A/A1*%
X193000000Y-65712500D02*
X193000000Y-63000000D01*
X192500000Y-66212500D02*
X193000000Y-65712500D01*
X195500000Y-66212500D02*
X193500000Y-66212500D01*
X193500000Y-66212500D02*
X193000000Y-65712500D01*
X189500000Y-67787500D02*
X190925000Y-67787500D01*
X190925000Y-67787500D02*
X192500000Y-66212500D01*
%TO.N,/sheet5F5DD32A/B1*%
X189500000Y-54787500D02*
X192500000Y-54787500D01*
X193000000Y-54787500D02*
X192500000Y-54787500D01*
X195500000Y-54787500D02*
X193000000Y-54787500D01*
X193000000Y-54787500D02*
X193000000Y-58000000D01*
%TO.N,/sheet5F71BCD2/A1*%
X113500000Y-116212500D02*
X114000000Y-116212500D01*
X111000000Y-116212500D02*
X113500000Y-116212500D01*
X113500000Y-116212500D02*
X113500000Y-113000000D01*
X117000000Y-116212500D02*
X114000000Y-116212500D01*
%TO.N,/sheet5F71BCD2/B1*%
X113500000Y-104787500D02*
X114000000Y-104787500D01*
X111000000Y-104787500D02*
X113500000Y-104787500D01*
X113500000Y-104787500D02*
X113500000Y-108000000D01*
X117000000Y-104787500D02*
X114000000Y-104787500D01*
%TO.N,/sheet5F71BCD3/A1*%
X193000000Y-116212500D02*
X192500000Y-116212500D01*
X195500000Y-116212500D02*
X193000000Y-116212500D01*
X193000000Y-116212500D02*
X193000000Y-113000000D01*
X189500000Y-116212500D02*
X192500000Y-116212500D01*
%TO.N,/sheet5F71BCD3/B1*%
X193000000Y-104787500D02*
X192500000Y-104787500D01*
X195500000Y-104787500D02*
X193000000Y-104787500D01*
X193000000Y-104787500D02*
X193000000Y-108000000D01*
X189500000Y-104787500D02*
X192500000Y-104787500D01*
%TO.N,Net-(D6-Pad2)*%
X63000000Y-116787500D02*
X60327500Y-116787500D01*
X60327500Y-116787500D02*
X59540000Y-116000000D01*
%TO.N,COMM2_KHZ_SW*%
X99000000Y-113000000D02*
X105598700Y-119598700D01*
X105598700Y-119598700D02*
X117165200Y-119598700D01*
X117165200Y-119598700D02*
X130197100Y-106566800D01*
X130197100Y-106566800D02*
X171776400Y-106566800D01*
X171776400Y-106566800D02*
X181704200Y-96639000D01*
X181704200Y-96639000D02*
X181704200Y-93763700D01*
X181704200Y-93763700D02*
X201592600Y-73875300D01*
X201592600Y-73875300D02*
X201960000Y-73875300D01*
X201960000Y-72700000D02*
X201960000Y-73875300D01*
%TO.N,NAV1_KHZ_SW*%
X178500000Y-63000000D02*
X193389500Y-77889500D01*
X193389500Y-77889500D02*
X193389500Y-78257600D01*
%TO.N,NAV2_KHZ_SW*%
X201960000Y-82860000D02*
X201960000Y-84035300D01*
X201960000Y-84035300D02*
X202327300Y-84035300D01*
X202327300Y-84035300D02*
X203135400Y-84843400D01*
X203135400Y-84843400D02*
X203135400Y-85889400D01*
X203135400Y-85889400D02*
X202408900Y-86615900D01*
X202408900Y-86615900D02*
X200771700Y-86615900D01*
X200771700Y-86615900D02*
X181961400Y-105426200D01*
X181961400Y-105426200D02*
X181961400Y-109538600D01*
X181961400Y-109538600D02*
X178500000Y-113000000D01*
%TO.N,COMM1_LEFT*%
X117000000Y-67787500D02*
X117919600Y-66867900D01*
X117919600Y-66867900D02*
X134293700Y-66867900D01*
X134293700Y-66867900D02*
X136276400Y-64885200D01*
%TO.N,COMM1_RIGHT*%
X117000000Y-53212500D02*
X138043700Y-53212500D01*
X138043700Y-53212500D02*
X152182200Y-67351000D01*
%TO.N,NAV1_LEFT*%
X204500000Y-77780000D02*
X204500000Y-76604700D01*
X195500000Y-67787500D02*
X196842900Y-66444600D01*
X196842900Y-66444600D02*
X202448100Y-66444600D01*
X202448100Y-66444600D02*
X203324700Y-67321200D01*
X203324700Y-67321200D02*
X203324700Y-75796800D01*
X203324700Y-75796800D02*
X204132600Y-76604700D01*
X204132600Y-76604700D02*
X204500000Y-76604700D01*
%TO.N,NAV1_RIGHT*%
X204500000Y-80320000D02*
X204500000Y-79144700D01*
X195500000Y-53212500D02*
X200391000Y-58103500D01*
X200391000Y-58103500D02*
X200391000Y-60093500D01*
X200391000Y-60093500D02*
X201567500Y-61270000D01*
X201567500Y-61270000D02*
X202388800Y-61270000D01*
X202388800Y-61270000D02*
X203324500Y-62205700D01*
X203324500Y-62205700D02*
X203324500Y-65568800D01*
X203324500Y-65568800D02*
X204105700Y-66350000D01*
X204105700Y-66350000D02*
X204988700Y-66350000D01*
X204988700Y-66350000D02*
X205675300Y-67036600D01*
X205675300Y-67036600D02*
X205675300Y-78336800D01*
X205675300Y-78336800D02*
X204867400Y-79144700D01*
X204867400Y-79144700D02*
X204500000Y-79144700D01*
%TO.N,COMM2_LEFT*%
X201960000Y-67620000D02*
X201960000Y-68795300D01*
X117000000Y-117787500D02*
X117801200Y-116986300D01*
X117801200Y-116986300D02*
X117801200Y-104333700D01*
X117801200Y-104333700D02*
X117467500Y-104000000D01*
X117467500Y-104000000D02*
X116483700Y-104000000D01*
X116483700Y-104000000D02*
X116195600Y-103711900D01*
X116195600Y-103711900D02*
X116195600Y-102723400D01*
X116195600Y-102723400D02*
X117224600Y-101694400D01*
X117224600Y-101694400D02*
X174099900Y-101694400D01*
X174099900Y-101694400D02*
X178951100Y-96843200D01*
X178951100Y-96843200D02*
X178951100Y-95243000D01*
X178951100Y-95243000D02*
X194842100Y-79352000D01*
X194842100Y-79352000D02*
X194842100Y-75545900D01*
X194842100Y-75545900D02*
X201592700Y-68795300D01*
X201592700Y-68795300D02*
X201960000Y-68795300D01*
%TO.N,COMM2_RIGHT*%
X117000000Y-103212500D02*
X117842700Y-102369800D01*
X117842700Y-102369800D02*
X174061400Y-102369800D01*
X174061400Y-102369800D02*
X179401400Y-97029800D01*
X179401400Y-97029800D02*
X179401400Y-95429600D01*
X179401400Y-95429600D02*
X200784700Y-74046300D01*
X200784700Y-74046300D02*
X200784700Y-72143200D01*
X200784700Y-72143200D02*
X201592600Y-71335300D01*
X201592600Y-71335300D02*
X201960000Y-71335300D01*
X201960000Y-70160000D02*
X201960000Y-71335300D01*
%TO.N,NAV2_LEFT*%
X195500000Y-117787500D02*
X206159000Y-107128500D01*
X206159000Y-107128500D02*
X206159000Y-82854700D01*
X206159000Y-82854700D02*
X204989000Y-81684700D01*
X204989000Y-81684700D02*
X204200400Y-81684700D01*
X204200400Y-81684700D02*
X203135300Y-80619600D01*
X203135300Y-80619600D02*
X203135300Y-79763200D01*
X203135300Y-79763200D02*
X202327400Y-78955300D01*
X202327400Y-78955300D02*
X201960000Y-78955300D01*
X201960000Y-77780000D02*
X201960000Y-78955300D01*
%TO.N,NAV2_RIGHT*%
X201960000Y-80320000D02*
X201960000Y-81495300D01*
X195500000Y-103212500D02*
X195500000Y-97771000D01*
X195500000Y-97771000D02*
X201521000Y-91750000D01*
X201521000Y-91750000D02*
X202389200Y-91750000D01*
X202389200Y-91750000D02*
X203135300Y-91003900D01*
X203135300Y-91003900D02*
X203135300Y-90162100D01*
X203135300Y-90162100D02*
X204087400Y-89210000D01*
X204087400Y-89210000D02*
X204898100Y-89210000D01*
X204898100Y-89210000D02*
X205708700Y-88399400D01*
X205708700Y-88399400D02*
X205708700Y-84919300D01*
X205708700Y-84919300D02*
X204886000Y-84096600D01*
X204886000Y-84096600D02*
X204008400Y-84096600D01*
X204008400Y-84096600D02*
X203135300Y-83223500D01*
X203135300Y-83223500D02*
X203135300Y-82303200D01*
X203135300Y-82303200D02*
X202327400Y-81495300D01*
X202327400Y-81495300D02*
X201960000Y-81495300D01*
%TO.N,/sheet5F68A9C2/DIN*%
X35515000Y-86350000D02*
X35515000Y-85852400D01*
X35515000Y-85852400D02*
X39089600Y-82277800D01*
X39089600Y-82277800D02*
X65911100Y-82277800D01*
X65911100Y-82277800D02*
X96783000Y-51405900D01*
X96783000Y-51405900D02*
X146759100Y-51405900D01*
X146759100Y-51405900D02*
X152515000Y-45650000D01*
%TO.N,/sheet5F68A9C5/DIN*%
X73515000Y-86350000D02*
X72599900Y-87265100D01*
X72599900Y-87265100D02*
X68185000Y-87265100D01*
X68185000Y-87265100D02*
X67350000Y-86430100D01*
X67350000Y-86430100D02*
X67350000Y-85431400D01*
X67350000Y-85431400D02*
X66513300Y-84594700D01*
X66513300Y-84594700D02*
X65676500Y-84594700D01*
X65676500Y-84594700D02*
X65154600Y-85116600D01*
X65154600Y-85116600D02*
X65154600Y-86904500D01*
X65154600Y-86904500D02*
X61079000Y-90980100D01*
X61079000Y-90980100D02*
X39683700Y-90980100D01*
X39683700Y-90980100D02*
X35515000Y-95148800D01*
X35515000Y-95148800D02*
X35515000Y-95650000D01*
%TO.N,/sheet5F68A9C2/SEG_D*%
X55920000Y-96080000D02*
X55920000Y-94754700D01*
X55920000Y-94754700D02*
X53503700Y-92338400D01*
X53503700Y-92338400D02*
X39593500Y-92338400D01*
X39593500Y-92338400D02*
X36785000Y-95146900D01*
X36785000Y-95146900D02*
X36785000Y-95650000D01*
%TO.N,/sheet5F68A9C2/SEG_DP*%
X38055000Y-95650000D02*
X38055000Y-95150800D01*
X38055000Y-95150800D02*
X39205800Y-94000000D01*
%TO.N,/sheet5F68A9C2/SEG_E*%
X39325000Y-95650000D02*
X39325000Y-95148600D01*
X39325000Y-95148600D02*
X41684800Y-92788800D01*
X41684800Y-92788800D02*
X51414100Y-92788800D01*
X51414100Y-92788800D02*
X53380000Y-94754700D01*
X53380000Y-96080000D02*
X53380000Y-94754700D01*
%TO.N,/sheet5F68A9C2/SEG_C*%
X61000000Y-97405300D02*
X60077000Y-98328300D01*
X60077000Y-98328300D02*
X46637600Y-98328300D01*
X46637600Y-98328300D02*
X45040000Y-96730700D01*
X45040000Y-96730700D02*
X45040000Y-94566800D01*
X45040000Y-94566800D02*
X44756500Y-94283300D01*
X44756500Y-94283300D02*
X41458600Y-94283300D01*
X41458600Y-94283300D02*
X40595000Y-95146900D01*
X40595000Y-95146900D02*
X40595000Y-95650000D01*
X61000000Y-96080000D02*
X61000000Y-97405300D01*
%TO.N,/sheet5F68A9C2/SEG_G*%
X63540000Y-97405300D02*
X62154600Y-98790700D01*
X62154600Y-98790700D02*
X46463100Y-98790700D01*
X46463100Y-98790700D02*
X44405000Y-96732600D01*
X44405000Y-96732600D02*
X44405000Y-95650000D01*
X63540000Y-96080000D02*
X63540000Y-97405300D01*
%TO.N,/sheet5F68A9C2/SEG_B*%
X66080000Y-85920000D02*
X66080000Y-87245300D01*
X66080000Y-87245300D02*
X65532900Y-87245300D01*
X65532900Y-87245300D02*
X57190000Y-95588200D01*
X57190000Y-95588200D02*
X57190000Y-96576300D01*
X57190000Y-96576300D02*
X56360900Y-97405400D01*
X56360900Y-97405400D02*
X52968900Y-97405400D01*
X52968900Y-97405400D02*
X49885700Y-94322200D01*
X49885700Y-94322200D02*
X49885700Y-93897500D01*
X49885700Y-93897500D02*
X49227400Y-93239200D01*
X49227400Y-93239200D02*
X47460400Y-93239200D01*
X47460400Y-93239200D02*
X45675000Y-95024600D01*
X45675000Y-95024600D02*
X45675000Y-95650000D01*
%TO.N,/sheet5F68A9C2/SEG_F*%
X46945000Y-95650000D02*
X46945000Y-94812600D01*
X46945000Y-94812600D02*
X47575300Y-94182300D01*
%TO.N,/sheet5F68A9C2/SEG_A*%
X48967100Y-94029500D02*
X48215000Y-94781600D01*
X48215000Y-94781600D02*
X48215000Y-95650000D01*
%TO.N,/sheet5F68A9C2/DIG_1*%
X61000000Y-87245300D02*
X60505900Y-87739400D01*
X60505900Y-87739400D02*
X49170900Y-87739400D01*
X49170900Y-87739400D02*
X48215000Y-86783500D01*
X48215000Y-86783500D02*
X48215000Y-86350000D01*
X61000000Y-85920000D02*
X61000000Y-87245300D01*
%TO.N,/sheet5F68A9C2/DIG_3*%
X56625100Y-88464700D02*
X56356200Y-88733600D01*
X56356200Y-88733600D02*
X45018200Y-88733600D01*
X45018200Y-88733600D02*
X43135000Y-86850400D01*
X43135000Y-86850400D02*
X43135000Y-86350000D01*
%TO.N,/sheet5F68A9C2/DIG_2*%
X41865000Y-86350000D02*
X41865000Y-86840600D01*
X41865000Y-86840600D02*
X44220100Y-89195700D01*
X44220100Y-89195700D02*
X61589600Y-89195700D01*
X61589600Y-89195700D02*
X63540000Y-87245300D01*
X63540000Y-85920000D02*
X63540000Y-87245300D01*
%TO.N,/sheet5F68A9C2/DIG_4*%
X38055000Y-86350000D02*
X38055000Y-86796400D01*
X38055000Y-86796400D02*
X40932200Y-89673600D01*
X40932200Y-89673600D02*
X61748600Y-89673600D01*
X61748600Y-89673600D02*
X64665800Y-86756400D01*
X64665800Y-86756400D02*
X64665800Y-84967000D01*
X64665800Y-84967000D02*
X65499400Y-84133400D01*
X65499400Y-84133400D02*
X68158700Y-84133400D01*
X68158700Y-84133400D02*
X68620000Y-84594700D01*
X68620000Y-85920000D02*
X68620000Y-84594700D01*
%TO.N,/sheet5F68A9C2/DIG_0*%
X53380000Y-84594700D02*
X52761400Y-83976100D01*
X52761400Y-83976100D02*
X38659800Y-83976100D01*
X38659800Y-83976100D02*
X36785000Y-85850900D01*
X36785000Y-85850900D02*
X36785000Y-86350000D01*
X53380000Y-85920000D02*
X53380000Y-84594700D01*
%TO.N,/sheet5F68A9C3/DIN*%
X114515000Y-86350000D02*
X105487600Y-95377400D01*
X105487600Y-95377400D02*
X105487600Y-96414300D01*
X105487600Y-96414300D02*
X104478900Y-97423000D01*
X104478900Y-97423000D02*
X103705200Y-97423000D01*
X103705200Y-97423000D02*
X102810000Y-96527800D01*
X102810000Y-96527800D02*
X102810000Y-95588300D01*
X102810000Y-95588300D02*
X98609200Y-91387500D01*
X98609200Y-91387500D02*
X77247700Y-91387500D01*
X77247700Y-91387500D02*
X73515000Y-95120200D01*
X73515000Y-95120200D02*
X73515000Y-95650000D01*
%TO.N,/sheet5F68A9C3/DIG_0*%
X132380000Y-85920000D02*
X132380000Y-87245300D01*
X132380000Y-87245300D02*
X131920600Y-87704700D01*
X131920600Y-87704700D02*
X116648800Y-87704700D01*
X116648800Y-87704700D02*
X115785000Y-86840900D01*
X115785000Y-86840900D02*
X115785000Y-86350000D01*
%TO.N,/sheet5F68A9C3/DIG_4*%
X147620000Y-84594700D02*
X146205800Y-83180500D01*
X146205800Y-83180500D02*
X119412300Y-83180500D01*
X119412300Y-83180500D02*
X117055000Y-85537800D01*
X117055000Y-85537800D02*
X117055000Y-86350000D01*
X147620000Y-85920000D02*
X147620000Y-84594700D01*
%TO.N,/sheet5F68A9C3/DIG_2*%
X142540000Y-84594700D02*
X141576200Y-83630900D01*
X141576200Y-83630900D02*
X123086300Y-83630900D01*
X123086300Y-83630900D02*
X120865000Y-85852200D01*
X120865000Y-85852200D02*
X120865000Y-86350000D01*
X142540000Y-85920000D02*
X142540000Y-84594700D01*
%TO.N,/sheet5F68A9C3/DIG_3*%
X145080000Y-96080000D02*
X145080000Y-94754700D01*
X145080000Y-94754700D02*
X146026800Y-93807900D01*
X146026800Y-93807900D02*
X146026800Y-85133300D01*
X146026800Y-85133300D02*
X145488100Y-84594600D01*
X145488100Y-84594600D02*
X144649600Y-84594600D01*
X144649600Y-84594600D02*
X143810000Y-85434200D01*
X143810000Y-85434200D02*
X143810000Y-86387700D01*
X143810000Y-86387700D02*
X142920400Y-87277300D01*
X142920400Y-87277300D02*
X142111100Y-87277300D01*
X142111100Y-87277300D02*
X141435400Y-86601600D01*
X141435400Y-86601600D02*
X141435400Y-85391000D01*
X141435400Y-85391000D02*
X140125700Y-84081300D01*
X140125700Y-84081300D02*
X123838200Y-84081300D01*
X123838200Y-84081300D02*
X122135000Y-85784500D01*
X122135000Y-85784500D02*
X122135000Y-86350000D01*
%TO.N,/sheet5F68A9C3/DIG_1*%
X140000000Y-85920000D02*
X140000000Y-84594700D01*
X140000000Y-84594700D02*
X128420300Y-84594700D01*
X128420300Y-84594700D02*
X127215000Y-85800000D01*
X127215000Y-85800000D02*
X127215000Y-86350000D01*
%TO.N,/sheet5F68A9C3/SEG_A*%
X134920000Y-87245300D02*
X138393000Y-90718300D01*
X138393000Y-90718300D02*
X138393000Y-96868100D01*
X138393000Y-96868100D02*
X137378100Y-97883000D01*
X137378100Y-97883000D02*
X129006900Y-97883000D01*
X129006900Y-97883000D02*
X127215000Y-96091100D01*
X127215000Y-96091100D02*
X127215000Y-95650000D01*
X134920000Y-85920000D02*
X134920000Y-87245300D01*
%TO.N,/sheet5F68A9C3/SEG_F*%
X137460000Y-85920000D02*
X137460000Y-87245300D01*
X137460000Y-87245300D02*
X138855700Y-88641000D01*
X138855700Y-88641000D02*
X138855700Y-97061400D01*
X138855700Y-97061400D02*
X137554600Y-98362500D01*
X137554600Y-98362500D02*
X128142700Y-98362500D01*
X128142700Y-98362500D02*
X125945000Y-96164800D01*
X125945000Y-96164800D02*
X125945000Y-95650000D01*
%TO.N,/sheet5F68A9C3/SEG_B*%
X124675000Y-95650000D02*
X124675000Y-96198100D01*
X124675000Y-96198100D02*
X127289800Y-98812900D01*
X127289800Y-98812900D02*
X138976100Y-98812900D01*
X138976100Y-98812900D02*
X141614600Y-96174400D01*
X141614600Y-96174400D02*
X141614600Y-90710700D01*
X141614600Y-90710700D02*
X145080000Y-87245300D01*
X145080000Y-85920000D02*
X145080000Y-87245300D01*
%TO.N,/sheet5F68A9C3/SEG_G*%
X123405000Y-95650000D02*
X123405000Y-96136500D01*
X123405000Y-96136500D02*
X126549200Y-99280700D01*
X126549200Y-99280700D02*
X140664600Y-99280700D01*
X140664600Y-99280700D02*
X142540000Y-97405300D01*
X142540000Y-96080000D02*
X142540000Y-97405300D01*
%TO.N,/sheet5F68A9C3/SEG_C*%
X119595000Y-95650000D02*
X119595000Y-96755200D01*
X119595000Y-96755200D02*
X118951300Y-97398900D01*
X118951300Y-97398900D02*
X118951300Y-98309400D01*
%TO.N,/sheet5F68A9C3/SEG_E*%
X132380000Y-96080000D02*
X132380000Y-94754700D01*
X132380000Y-94754700D02*
X131462000Y-93836700D01*
X131462000Y-93836700D02*
X118975000Y-93836700D01*
X118975000Y-93836700D02*
X118325000Y-94486700D01*
X118325000Y-94486700D02*
X118325000Y-95650000D01*
%TO.N,/sheet5F68A9C3/SEG_DP*%
X117055000Y-95650000D02*
X117055000Y-95095600D01*
X117055000Y-95095600D02*
X118764300Y-93386300D01*
X118764300Y-93386300D02*
X131648600Y-93386300D01*
X131648600Y-93386300D02*
X133936100Y-95673800D01*
X133936100Y-95673800D02*
X133936100Y-96810100D01*
X133936100Y-96810100D02*
X134558700Y-97432700D01*
X134558700Y-97432700D02*
X136107300Y-97432700D01*
X136107300Y-97432700D02*
X137460000Y-96080000D01*
%TO.N,/sheet5F68A9C3/SEG_D*%
X134920000Y-96080000D02*
X134920000Y-94754700D01*
X134920000Y-94754700D02*
X133099200Y-92933900D01*
X133099200Y-92933900D02*
X118026300Y-92933900D01*
X118026300Y-92933900D02*
X115785000Y-95175200D01*
X115785000Y-95175200D02*
X115785000Y-95650000D01*
%TO.N,/sheet5F68A9C4/DIN*%
X152515000Y-86350000D02*
X148818500Y-82653500D01*
X148818500Y-82653500D02*
X117764600Y-82653500D01*
X117764600Y-82653500D02*
X115150000Y-85268100D01*
X115150000Y-85268100D02*
X115150000Y-95015000D01*
X115150000Y-95015000D02*
X114515000Y-95650000D01*
%TO.N,/sheet5F68A9C4/SEG_D*%
X172920000Y-97405300D02*
X169756700Y-100568600D01*
X169756700Y-100568600D02*
X158219400Y-100568600D01*
X158219400Y-100568600D02*
X153785000Y-96134200D01*
X153785000Y-96134200D02*
X153785000Y-95650000D01*
X172920000Y-96080000D02*
X172920000Y-97405300D01*
%TO.N,/sheet5F68A9C4/SEG_DP*%
X175460000Y-96080000D02*
X175460000Y-94754700D01*
X175460000Y-94754700D02*
X172512900Y-94754700D01*
X172512900Y-94754700D02*
X171650000Y-95617600D01*
X171650000Y-95617600D02*
X171650000Y-96546000D01*
X171650000Y-96546000D02*
X168111300Y-100084700D01*
X168111300Y-100084700D02*
X158492100Y-100084700D01*
X158492100Y-100084700D02*
X155055000Y-96647600D01*
X155055000Y-96647600D02*
X155055000Y-95650000D01*
%TO.N,/sheet5F68A9C4/SEG_E*%
X156325000Y-95650000D02*
X156325000Y-96315200D01*
X156325000Y-96315200D02*
X158516400Y-98506600D01*
X158516400Y-98506600D02*
X167953400Y-98506600D01*
X167953400Y-98506600D02*
X170380000Y-96080000D01*
%TO.N,/sheet5F68A9C4/SEG_C*%
X178000000Y-96080000D02*
X173045500Y-101034500D01*
X173045500Y-101034500D02*
X157417800Y-101034500D01*
X157417800Y-101034500D02*
X153150000Y-96766700D01*
X153150000Y-96766700D02*
X153150000Y-94530300D01*
X153150000Y-94530300D02*
X153408200Y-94272100D01*
X153408200Y-94272100D02*
X156675800Y-94272100D01*
X156675800Y-94272100D02*
X157595000Y-95191300D01*
X157595000Y-95191300D02*
X157595000Y-95650000D01*
%TO.N,/sheet5F68A9C4/SEG_G*%
X161405000Y-95650000D02*
X161405000Y-96141800D01*
X161405000Y-96141800D02*
X162668500Y-97405300D01*
%TO.N,/sheet5F68A9C4/SEG_B*%
X183080000Y-87245300D02*
X182443200Y-87882100D01*
X182443200Y-87882100D02*
X182443200Y-87882200D01*
X182443200Y-87882200D02*
X176858600Y-87882200D01*
X176858600Y-87882200D02*
X168367200Y-96373600D01*
X168367200Y-96373600D02*
X168367200Y-96758900D01*
X168367200Y-96758900D02*
X167140100Y-97986000D01*
X167140100Y-97986000D02*
X164559200Y-97986000D01*
X164559200Y-97986000D02*
X162675000Y-96101800D01*
X162675000Y-96101800D02*
X162675000Y-95650000D01*
X183080000Y-85920000D02*
X183080000Y-87245300D01*
%TO.N,/sheet5F68A9C4/SEG_F*%
X175460000Y-87245300D02*
X167916900Y-94788400D01*
X167916900Y-94788400D02*
X167916900Y-96566100D01*
X167916900Y-96566100D02*
X166958300Y-97524700D01*
X166958300Y-97524700D02*
X165375200Y-97524700D01*
X165375200Y-97524700D02*
X163945000Y-96094500D01*
X163945000Y-96094500D02*
X163945000Y-95650000D01*
X175460000Y-85920000D02*
X175460000Y-87245300D01*
%TO.N,/sheet5F68A9C4/SEG_A*%
X172920000Y-87245300D02*
X167466600Y-92698700D01*
X167466600Y-92698700D02*
X167466600Y-96379500D01*
X167466600Y-96379500D02*
X166827400Y-97018700D01*
X166827400Y-97018700D02*
X166155300Y-97018700D01*
X166155300Y-97018700D02*
X165215000Y-96078400D01*
X165215000Y-96078400D02*
X165215000Y-95650000D01*
X172920000Y-85920000D02*
X172920000Y-87245300D01*
%TO.N,/sheet5F68A9C4/DIG_1*%
X165215000Y-86350000D02*
X165215000Y-86777200D01*
X165215000Y-86777200D02*
X166138700Y-87700900D01*
X166138700Y-87700900D02*
X166831300Y-87700900D01*
X166831300Y-87700900D02*
X169937500Y-84594700D01*
X169937500Y-84594700D02*
X178000000Y-84594700D01*
X178000000Y-85920000D02*
X178000000Y-84594700D01*
%TO.N,/sheet5F68A9C4/DIG_3*%
X160135000Y-86350000D02*
X160135000Y-86811400D01*
X160135000Y-86811400D02*
X161391700Y-88068100D01*
%TO.N,/sheet5F68A9C4/DIG_2*%
X158865000Y-86350000D02*
X158865000Y-85861700D01*
X158865000Y-85861700D02*
X161082500Y-83644200D01*
X161082500Y-83644200D02*
X179589500Y-83644200D01*
X179589500Y-83644200D02*
X180540000Y-84594700D01*
X180540000Y-85920000D02*
X180540000Y-84594700D01*
%TO.N,/sheet5F68A9C4/DIG_4*%
X185620000Y-85920000D02*
X185620000Y-84594700D01*
X185620000Y-84594700D02*
X184210200Y-83184900D01*
X184210200Y-83184900D02*
X156812600Y-83184900D01*
X156812600Y-83184900D02*
X155055000Y-84942500D01*
X155055000Y-84942500D02*
X155055000Y-86350000D01*
%TO.N,/sheet5F68A9C4/DIG_0*%
X170380000Y-85920000D02*
X170380000Y-87245300D01*
X170380000Y-87245300D02*
X168829000Y-88796300D01*
X168829000Y-88796300D02*
X155727500Y-88796300D01*
X155727500Y-88796300D02*
X153785000Y-86853800D01*
X153785000Y-86853800D02*
X153785000Y-86350000D01*
%TO.N,/sheet5F68A9C5/DIG_0*%
X91380000Y-85920000D02*
X91380000Y-84594700D01*
X91380000Y-84594700D02*
X89513500Y-82728200D01*
X89513500Y-82728200D02*
X77755100Y-82728200D01*
X77755100Y-82728200D02*
X74785000Y-85698300D01*
X74785000Y-85698300D02*
X74785000Y-86350000D01*
%TO.N,/sheet5F68A9C5/DIG_4*%
X76055000Y-86350000D02*
X76055000Y-85076900D01*
X76055000Y-85076900D02*
X77953300Y-83178600D01*
X77953300Y-83178600D02*
X86227800Y-83178600D01*
X86227800Y-83178600D02*
X90320300Y-87271100D01*
X90320300Y-87271100D02*
X96905400Y-87271100D01*
X96905400Y-87271100D02*
X97730000Y-86446500D01*
X97730000Y-86446500D02*
X97730000Y-85419100D01*
X97730000Y-85419100D02*
X98554400Y-84594700D01*
X98554400Y-84594700D02*
X106620000Y-84594700D01*
X106620000Y-85920000D02*
X106620000Y-84594700D01*
%TO.N,/sheet5F68A9C5/DIG_2*%
X101540000Y-85920000D02*
X101540000Y-87245300D01*
X101540000Y-87245300D02*
X100613200Y-88172100D01*
X100613200Y-88172100D02*
X86272100Y-88172100D01*
X86272100Y-88172100D02*
X85580000Y-87480000D01*
X85580000Y-87480000D02*
X85580000Y-85257900D01*
X85580000Y-85257900D02*
X84401500Y-84079400D01*
X84401500Y-84079400D02*
X81638300Y-84079400D01*
X81638300Y-84079400D02*
X79865000Y-85852700D01*
X79865000Y-85852700D02*
X79865000Y-86350000D01*
%TO.N,/sheet5F68A9C5/DIG_3*%
X81135000Y-86350000D02*
X81135000Y-86804900D01*
X81135000Y-86804900D02*
X82952600Y-88622500D01*
X82952600Y-88622500D02*
X97947800Y-88622500D01*
X97947800Y-88622500D02*
X104080000Y-94754700D01*
X104080000Y-96080000D02*
X104080000Y-94754700D01*
%TO.N,/sheet5F68A9C5/DIG_1*%
X99000000Y-87245300D02*
X98523800Y-87721500D01*
X98523800Y-87721500D02*
X87131800Y-87721500D01*
X87131800Y-87721500D02*
X86215000Y-86804700D01*
X86215000Y-86804700D02*
X86215000Y-86350000D01*
X99000000Y-85920000D02*
X99000000Y-87245300D01*
%TO.N,/sheet5F68A9C5/SEG_A*%
X87299000Y-93992100D02*
X86215000Y-95076100D01*
X86215000Y-95076100D02*
X86215000Y-95650000D01*
%TO.N,/sheet5F68A9C5/SEG_F*%
X84945000Y-95650000D02*
X84945000Y-95201500D01*
X84945000Y-95201500D02*
X86132300Y-94014200D01*
%TO.N,/sheet5F68A9C5/SEG_B*%
X83675000Y-95650000D02*
X83675000Y-95181500D01*
X83675000Y-95181500D02*
X84853300Y-94003200D01*
X84853300Y-94003200D02*
X85012700Y-94003200D01*
%TO.N,/sheet5F68A9C5/SEG_G*%
X101540000Y-96080000D02*
X101540000Y-97405300D01*
X101540000Y-97405300D02*
X101069100Y-97876200D01*
X101069100Y-97876200D02*
X91408500Y-97876200D01*
X91408500Y-97876200D02*
X88136400Y-94604100D01*
X88136400Y-94604100D02*
X88136400Y-93768800D01*
X88136400Y-93768800D02*
X87629100Y-93261500D01*
X87629100Y-93261500D02*
X84358100Y-93261500D01*
X84358100Y-93261500D02*
X82405000Y-95214600D01*
X82405000Y-95214600D02*
X82405000Y-95650000D01*
%TO.N,/sheet5F68A9C5/SEG_C*%
X78595000Y-95650000D02*
X78595000Y-97101900D01*
X78595000Y-97101900D02*
X78898400Y-97405300D01*
%TO.N,/sheet5F68A9C5/SEG_E*%
X91380000Y-96080000D02*
X88094800Y-92794800D01*
X88094800Y-92794800D02*
X79073500Y-92794800D01*
X79073500Y-92794800D02*
X77325000Y-94543300D01*
X77325000Y-94543300D02*
X77325000Y-95650000D01*
%TO.N,/sheet5F68A9C5/SEG_DP*%
X96460000Y-97405300D02*
X93525000Y-97405300D01*
X93525000Y-97405300D02*
X92650000Y-96530300D01*
X92650000Y-96530300D02*
X92650000Y-95610200D01*
X92650000Y-95610200D02*
X89374700Y-92334900D01*
X89374700Y-92334900D02*
X78843500Y-92334900D01*
X78843500Y-92334900D02*
X76055000Y-95123400D01*
X76055000Y-95123400D02*
X76055000Y-95650000D01*
X96460000Y-96080000D02*
X96460000Y-97405300D01*
%TO.N,/sheet5F68A9C5/SEG_D*%
X93920000Y-94754700D02*
X91008000Y-91842700D01*
X91008000Y-91842700D02*
X78103500Y-91842700D01*
X78103500Y-91842700D02*
X74785000Y-95161200D01*
X74785000Y-95161200D02*
X74785000Y-95650000D01*
X93920000Y-96080000D02*
X93920000Y-94754700D01*
D24*
%TO.N,GND*%
X118325000Y-37989700D02*
X118325000Y-36350000D01*
X34162500Y-101700000D02*
X35237800Y-101700000D01*
X35237800Y-101706500D02*
X35237800Y-101700000D01*
X39350000Y-102710700D02*
X39350000Y-104000000D01*
X122102500Y-99312500D02*
X121025000Y-99312500D01*
X121025000Y-99312500D02*
X121000000Y-99287500D01*
X34162500Y-101700000D02*
X34800000Y-101700000D01*
X35465700Y-101934400D02*
X35465700Y-101934400D01*
D25*
X35231300Y-101700000D02*
X35465700Y-101934400D01*
X34162500Y-101700000D02*
X35231300Y-101700000D01*
X39350000Y-104000000D02*
X39350000Y-105136000D01*
X39350000Y-105136000D02*
X39370000Y-105156000D01*
X35791500Y-109212500D02*
X36140200Y-109561200D01*
X35000000Y-109212500D02*
X35791500Y-109212500D01*
X114000000Y-117787500D02*
X114000000Y-118849700D01*
X114000000Y-103212500D02*
X114000000Y-102163000D01*
X192500000Y-117787500D02*
X192500000Y-118852100D01*
X192500000Y-103212500D02*
X192500000Y-102161000D01*
X160063400Y-99287500D02*
X160078600Y-99302700D01*
X159000000Y-99287500D02*
X160063400Y-99287500D01*
X162675000Y-86350000D02*
X162675000Y-87976000D01*
X156325000Y-86350000D02*
X156325000Y-84717600D01*
X122102500Y-99312500D02*
X121159500Y-99312500D01*
X121159500Y-99312500D02*
X121158000Y-99314000D01*
X121158000Y-99314000D02*
X120904000Y-99314000D01*
X124675000Y-85441900D02*
X125264700Y-84852200D01*
X124675000Y-86350000D02*
X124675000Y-85441900D01*
X118325000Y-85293900D02*
X118852300Y-84766600D01*
X118325000Y-86350000D02*
X118325000Y-85293900D01*
X80000000Y-99287500D02*
X80000000Y-100331000D01*
X42000000Y-99403600D02*
X41239600Y-100164000D01*
X42000000Y-99287500D02*
X42000000Y-99403600D01*
X45675000Y-86350000D02*
X45675000Y-88000200D01*
X39325000Y-86350000D02*
X39325000Y-84705500D01*
X83675000Y-85372800D02*
X83118700Y-84816500D01*
X83675000Y-86350000D02*
X83675000Y-85372800D01*
X77325000Y-84886500D02*
X77537000Y-84674500D01*
X77325000Y-86350000D02*
X77325000Y-84886500D01*
X114980400Y-67787500D02*
X115079600Y-67688300D01*
X114000000Y-67787500D02*
X114980400Y-67787500D01*
X114000000Y-53212500D02*
X114000000Y-52166800D01*
X192500000Y-53212500D02*
X192500000Y-52148400D01*
X193597800Y-67787500D02*
X193630100Y-67755200D01*
X192500000Y-67787500D02*
X193597800Y-67787500D01*
X159000000Y-49287500D02*
X158179500Y-50108000D01*
X162675000Y-36350000D02*
X162675000Y-37978100D01*
X156325000Y-36350000D02*
X156325000Y-37977200D01*
X124675000Y-36350000D02*
X124675000Y-34704000D01*
X118325000Y-37989700D02*
X118325000Y-36615000D01*
X121000000Y-49287500D02*
X121000000Y-50328500D01*
X83675000Y-36350000D02*
X83675000Y-37987400D01*
X80000000Y-49287500D02*
X80000000Y-50339200D01*
X77325000Y-36350000D02*
X77325000Y-34716000D01*
X45675000Y-39350000D02*
X45675000Y-37721900D01*
X39325000Y-38515600D02*
X39952000Y-37888600D01*
X39325000Y-39350000D02*
X39325000Y-38515600D01*
X42000000Y-52287500D02*
X42000000Y-53352600D01*
D26*
%TO.N,CS_LOAD*%
X128609200Y-35977500D02*
X126109000Y-33477300D01*
X126109000Y-33477300D02*
X111684900Y-33477300D01*
X111684900Y-33477300D02*
X106526100Y-38636100D01*
X106526100Y-38636100D02*
X86772400Y-38636100D01*
X86772400Y-38636100D02*
X85580000Y-37443700D01*
X85580000Y-37443700D02*
X85580000Y-34999000D01*
X189011700Y-51397700D02*
X189011700Y-43336400D01*
X189011700Y-43336400D02*
X184350000Y-38674700D01*
X184350000Y-38674700D02*
X184350000Y-35415700D01*
X184350000Y-35415700D02*
X183513900Y-34579600D01*
X183513900Y-34579600D02*
X177612500Y-34579600D01*
X177612500Y-34579600D02*
X176730000Y-35462100D01*
X176730000Y-35462100D02*
X176730000Y-36385700D01*
X176730000Y-36385700D02*
X175367300Y-37748400D01*
X175367300Y-37748400D02*
X167883400Y-37748400D01*
X167883400Y-37748400D02*
X166485000Y-36350000D01*
X189011700Y-51397700D02*
X188659000Y-51750400D01*
X188659000Y-51750400D02*
X188659000Y-70514400D01*
X188659000Y-70514400D02*
X194139800Y-75995200D01*
X194139800Y-75995200D02*
X194139800Y-79123600D01*
X194139800Y-79123600D02*
X185971600Y-87291800D01*
X185971600Y-87291800D02*
X185222300Y-87291800D01*
X185222300Y-87291800D02*
X184350000Y-86419500D01*
X184350000Y-86419500D02*
X184350000Y-85392900D01*
X184350000Y-85392900D02*
X183551700Y-84594600D01*
X183551700Y-84594600D02*
X182649600Y-84594600D01*
X182649600Y-84594600D02*
X181810000Y-85434200D01*
X181810000Y-85434200D02*
X181810000Y-86384300D01*
X181810000Y-86384300D02*
X180934800Y-87259500D01*
X180934800Y-87259500D02*
X180166400Y-87259500D01*
X180166400Y-87259500D02*
X179237600Y-86330700D01*
X179237600Y-86330700D02*
X179237600Y-85177700D01*
X179237600Y-85177700D02*
X178154500Y-84094600D01*
X178154500Y-84094600D02*
X169137100Y-84094600D01*
X169137100Y-84094600D02*
X167419300Y-85812400D01*
X204500000Y-58824700D02*
X197073000Y-51397700D01*
X197073000Y-51397700D02*
X189011700Y-51397700D01*
X167419300Y-85812400D02*
X167022600Y-85812400D01*
X167022600Y-85812400D02*
X166485000Y-86350000D01*
X85580000Y-34999000D02*
X80772100Y-34999000D01*
X80772100Y-34999000D02*
X80500000Y-35271100D01*
X80500000Y-35271100D02*
X80500000Y-37415800D01*
X80500000Y-37415800D02*
X80130700Y-37785100D01*
X80130700Y-37785100D02*
X61063600Y-37785100D01*
X61063600Y-37785100D02*
X59730000Y-36451500D01*
X59730000Y-36451500D02*
X59730000Y-35431800D01*
X59730000Y-35431800D02*
X58394600Y-34096400D01*
X58394600Y-34096400D02*
X52857700Y-34096400D01*
X52857700Y-34096400D02*
X49485000Y-37469100D01*
X49485000Y-37469100D02*
X49485000Y-39350000D01*
X49485000Y-86350000D02*
X50424100Y-87289100D01*
X50424100Y-87289100D02*
X56322700Y-87289100D01*
X56322700Y-87289100D02*
X57190000Y-86421800D01*
X57190000Y-86421800D02*
X57190000Y-85457700D01*
X57190000Y-85457700D02*
X58992600Y-83655100D01*
X58992600Y-83655100D02*
X72547200Y-83655100D01*
X72547200Y-83655100D02*
X74150000Y-85257900D01*
X74150000Y-85257900D02*
X74150000Y-87481200D01*
X74150000Y-87481200D02*
X74384300Y-87715500D01*
X74384300Y-87715500D02*
X77731300Y-87715500D01*
X77731300Y-87715500D02*
X77960000Y-87486800D01*
X77960000Y-87486800D02*
X77960000Y-85277300D01*
X77960000Y-85277300D02*
X79608300Y-83629000D01*
X79608300Y-83629000D02*
X85652200Y-83629000D01*
X85652200Y-83629000D02*
X86879100Y-84855900D01*
X204500000Y-60000000D02*
X204500000Y-58824700D01*
X87485000Y-86350000D02*
X87485000Y-85461800D01*
X87485000Y-85461800D02*
X86879100Y-84855900D01*
X128609200Y-35977500D02*
X130920700Y-33666000D01*
X130920700Y-33666000D02*
X151570000Y-33666000D01*
X151570000Y-33666000D02*
X153150000Y-35246000D01*
X153150000Y-35246000D02*
X153150000Y-37424500D01*
X153150000Y-37424500D02*
X154429600Y-38704100D01*
X154429600Y-38704100D02*
X156990300Y-38704100D01*
X156990300Y-38704100D02*
X158230000Y-37464400D01*
X158230000Y-37464400D02*
X158230000Y-35232800D01*
X158230000Y-35232800D02*
X158925000Y-34537800D01*
X158925000Y-34537800D02*
X165101300Y-34537800D01*
X165101300Y-34537800D02*
X166485000Y-35921500D01*
X166485000Y-35921500D02*
X166485000Y-36350000D01*
X128485000Y-36350000D02*
X128609200Y-36225800D01*
X128609200Y-36225800D02*
X128609200Y-35977500D01*
X87485000Y-36350000D02*
X87485000Y-35808600D01*
X87485000Y-35808600D02*
X86675400Y-34999000D01*
X86675400Y-34999000D02*
X85580000Y-34999000D01*
X128485000Y-86350000D02*
X129073900Y-86938900D01*
X129073900Y-86938900D02*
X129406800Y-86938900D01*
%TO.N,COMM2_XFR*%
X83250000Y-108500000D02*
X94799100Y-120049100D01*
X94799100Y-120049100D02*
X140734500Y-120049100D01*
X140734500Y-120049100D02*
X153609000Y-107174600D01*
X153609000Y-107174600D02*
X171890500Y-107174600D01*
X171890500Y-107174600D02*
X182154600Y-96910500D01*
X182154600Y-96910500D02*
X182154600Y-95265800D01*
X182154600Y-95265800D02*
X201005100Y-76415300D01*
X201005100Y-76415300D02*
X201960000Y-76415300D01*
X201960000Y-75240000D02*
X201960000Y-76415300D01*
%TO.N,NAV1_XFR*%
X188554700Y-76882800D02*
X180632800Y-76882800D01*
X180632800Y-76882800D02*
X162250000Y-58500000D01*
%TO.N,NAV2_XFR*%
X162250000Y-108500000D02*
X173927300Y-108500000D01*
X173927300Y-108500000D02*
X177101900Y-105325400D01*
X177101900Y-105325400D02*
X180859300Y-105325400D01*
X180859300Y-105325400D02*
X200784700Y-85400000D01*
X201960000Y-85400000D02*
X200784700Y-85400000D01*
%TO.N,RADIO1_LED*%
X63000000Y-65212500D02*
X63483100Y-65212500D01*
X63483100Y-65212500D02*
X72709900Y-74439300D01*
%TO.N,RADIO2_LED*%
X63000000Y-115212500D02*
X68289000Y-120501500D01*
X68289000Y-120501500D02*
X174810800Y-120501500D01*
X174810800Y-120501500D02*
X188698800Y-106613500D01*
X188698800Y-106613500D02*
X188698800Y-104335400D01*
X188698800Y-104335400D02*
X189010400Y-104023800D01*
X189010400Y-104023800D02*
X189933300Y-104023800D01*
X189933300Y-104023800D02*
X190878600Y-103078500D01*
X190878600Y-103078500D02*
X190878600Y-101561400D01*
X190878600Y-101561400D02*
X201960000Y-90480000D01*
%TD*%
M02*
