M48
INCH,TZ
T1C0.0157
T2C0.0236
T3C0.0300
T4C0.0315
T5C0.0335
T6C0.0354
T7C0.0394
T8C0.0433
T9C0.0472
T10C0.1299
%
G90
G05
T1
X13963Y-40132
X14228Y-43134
X14400Y-40400
X14429Y-41451
X14961Y-42581
X15435Y-37008
X15482Y-33349
X15492Y-40437
X15500Y-41400
X15729Y-14917
X16097Y-19974
X16106Y-38416
X16236Y-39435
X16535Y-21005
X17982Y-14851
X17982Y-34646
X18238Y-18558
X18703Y-18530
X18730Y-37080
X19278Y-37019
X22293Y-34829
X24415Y-17327
X28626Y-29307
X30443Y-13668
X30526Y-33336
X31062Y-38349
X31069Y-18711
X31418Y-17325
X31443Y-37011
X31496Y-19819
X31496Y-39500
X32724Y-33392
X32943Y-14956
X33218Y-18576
X33470Y-37009
X33910Y-37013
X34204Y-33408
X34370Y-37005
X34608Y-17127
X35262Y-17311
X43264Y-26649
X43701Y-20541
X43701Y-40224
X43701Y-46791
X44882Y-20538
X44882Y-40222
X44882Y-46791
X45307Y-26649
X45631Y-18616
X46056Y-18614
X46537Y-13658
X46585Y-14957
X46792Y-33373
X46831Y-38704
X47213Y-38419
X47213Y-18731
X47638Y-19814
X48072Y-39099
X48838Y-15256
X49085Y-13663
X49317Y-33406
X50948Y-34228
X51036Y-17729
X53652Y-25545
X59914Y-26516
X61545Y-14952
X61545Y-33353
X62164Y-18815
X62275Y-19728
X62953Y-21829
X63022Y-38469
X63023Y-39096
X63540Y-34672
X64043Y-38349
X64045Y-14952
X64045Y-34636
X64961Y-25260
X65114Y-18626
X65507Y-18627
X65913Y-33784
X74234Y-30269
X74606Y-20540
X74606Y-25658
X74606Y-40209
X74606Y-46784
X75787Y-20531
X75787Y-40221
X75787Y-46792
X76138Y-30810
X76232Y-26675
T3
X61220Y-25000
X61220Y-26969
X63189Y-25984
T4
X67079Y-33827
X67079Y-37827
X68079Y-33827
X68079Y-37827
X69079Y-33827
X69079Y-37827
X70079Y-33827
X70079Y-37827
X71079Y-33827
X71079Y-37827
X72079Y-33827
X72079Y-37827
X73079Y-33827
X73079Y-37827
X21016Y-33827
X21016Y-37827
X22016Y-33827
X22016Y-37827
X23016Y-33827
X23016Y-37827
X24016Y-33827
X24016Y-37827
X25016Y-33827
X25016Y-37827
X26016Y-33827
X26016Y-37827
X27016Y-33827
X27016Y-37827
X67079Y-14142
X67079Y-18142
X68079Y-14142
X68079Y-18142
X69079Y-14142
X69079Y-18142
X70079Y-14142
X70079Y-18142
X71079Y-14142
X71079Y-18142
X72079Y-14142
X72079Y-18142
X73079Y-14142
X73079Y-18142
X52118Y-14142
X52118Y-18142
X53118Y-14142
X53118Y-18142
X54118Y-14142
X54118Y-18142
X55118Y-14142
X55118Y-18142
X56118Y-14142
X56118Y-18142
X57118Y-14142
X57118Y-18142
X58118Y-14142
X58118Y-18142
X52118Y-33827
X52118Y-37827
X53118Y-33827
X53118Y-37827
X54118Y-33827
X54118Y-37827
X55118Y-33827
X55118Y-37827
X56118Y-33827
X56118Y-37827
X57118Y-33827
X57118Y-37827
X58118Y-33827
X58118Y-37827
X35976Y-33827
X35976Y-37827
X36976Y-33827
X36976Y-37827
X37976Y-33827
X37976Y-37827
X38976Y-33827
X38976Y-37827
X39976Y-33827
X39976Y-37827
X40976Y-33827
X40976Y-37827
X41976Y-33827
X41976Y-37827
X21016Y-14142
X21016Y-18142
X22016Y-14142
X22016Y-18142
X23016Y-14142
X23016Y-18142
X24016Y-14142
X24016Y-18142
X25016Y-14142
X25016Y-18142
X26016Y-14142
X26016Y-18142
X27016Y-14142
X27016Y-18142
X35976Y-14142
X35976Y-18142
X36976Y-14142
X36976Y-18142
X37976Y-14142
X37976Y-18142
X38976Y-14142
X38976Y-18142
X39976Y-14142
X39976Y-18142
X40976Y-14142
X40976Y-18142
X41976Y-14142
X41976Y-18142
T5
X13450Y-39567
X13450Y-41535
T6
X22441Y-45669
X23441Y-45669
X22441Y-25984
X23441Y-25984
T7
X79512Y-23622
X79512Y-24622
X79512Y-25622
X79512Y-26622
X79512Y-27622
X79512Y-28622
X79512Y-29622
X79512Y-30622
X79512Y-31622
X79512Y-32622
X79512Y-33622
X79512Y-34622
X79512Y-35622
X79512Y-36622
X79512Y-37622
X80512Y-23622
X80512Y-24622
X80512Y-25622
X80512Y-26622
X80512Y-27622
X80512Y-28622
X80512Y-29622
X80512Y-30622
X80512Y-31622
X80512Y-32622
X80512Y-33622
X80512Y-34622
X80512Y-35622
X80512Y-36622
X80512Y-37622
T8
X16929Y-44882
X16929Y-46654
X19488Y-44882
X19488Y-46654
X61319Y-40945
X61319Y-42717
X63878Y-40945
X63878Y-42717
X49213Y-25197
X49213Y-26969
X51772Y-25197
X51772Y-26969
X16929Y-25197
X16929Y-26969
X19488Y-25197
X19488Y-26969
X30217Y-40945
X30217Y-42717
X32776Y-40945
X32776Y-42717
X30217Y-21260
X30217Y-23031
X32776Y-21260
X32776Y-23031
X61319Y-21260
X61319Y-23031
X63878Y-21260
X63878Y-23031
X49213Y-44882
X49213Y-46654
X51772Y-44882
X51772Y-46654
T9
X70276Y-42520
X70276Y-44488
X75984Y-42520
X75984Y-43504
X75984Y-44488
X38976Y-42520
X38976Y-44488
X44685Y-42520
X44685Y-43504
X44685Y-44488
X38976Y-22835
X38976Y-24803
X44685Y-22835
X44685Y-23819
X44685Y-24803
X70276Y-22835
X70276Y-24803
X75984Y-22835
X75984Y-23819
X75984Y-24803
T10
X73031Y-41673
X73031Y-45335
X41732Y-41673
X41732Y-45335
X41732Y-21988
X41732Y-25650
X73031Y-21988
X73031Y-25650
T2
G00X12249Y-39173
M15
G01X12525Y-39173
M16
G05
G00X12525Y-41929
M15
G01X12249Y-41929
M16
G05
T0
M30
