G04 #@! TF.GenerationSoftware,KiCad,Pcbnew,(5.1.10)-1*
G04 #@! TF.CreationDate,2021-09-06T17:19:25-07:00*
G04 #@! TF.ProjectId,TBM930 - De-ice panel,54424d39-3330-4202-9d20-44652d696365,rev?*
G04 #@! TF.SameCoordinates,Original*
G04 #@! TF.FileFunction,Paste,Top*
G04 #@! TF.FilePolarity,Positive*
%FSLAX46Y46*%
G04 Gerber Fmt 4.6, Leading zero omitted, Abs format (unit mm)*
G04 Created by KiCad (PCBNEW (5.1.10)-1) date 2021-09-06 17:19:25*
%MOMM*%
%LPD*%
G01*
G04 APERTURE LIST*
G04 APERTURE END LIST*
G36*
G01*
X48250000Y-95762500D02*
X47000000Y-95762500D01*
G75*
G02*
X46750000Y-95512500I0J250000D01*
G01*
X46750000Y-94587500D01*
G75*
G02*
X47000000Y-94337500I250000J0D01*
G01*
X48250000Y-94337500D01*
G75*
G02*
X48500000Y-94587500I0J-250000D01*
G01*
X48500000Y-95512500D01*
G75*
G02*
X48250000Y-95762500I-250000J0D01*
G01*
G37*
G36*
G01*
X48250000Y-92787500D02*
X47000000Y-92787500D01*
G75*
G02*
X46750000Y-92537500I0J250000D01*
G01*
X46750000Y-91612500D01*
G75*
G02*
X47000000Y-91362500I250000J0D01*
G01*
X48250000Y-91362500D01*
G75*
G02*
X48500000Y-91612500I0J-250000D01*
G01*
X48500000Y-92537500D01*
G75*
G02*
X48250000Y-92787500I-250000J0D01*
G01*
G37*
G36*
G01*
X60620000Y-77480000D02*
X60620000Y-78730000D01*
G75*
G02*
X60370000Y-78980000I-250000J0D01*
G01*
X59445000Y-78980000D01*
G75*
G02*
X59195000Y-78730000I0J250000D01*
G01*
X59195000Y-77480000D01*
G75*
G02*
X59445000Y-77230000I250000J0D01*
G01*
X60370000Y-77230000D01*
G75*
G02*
X60620000Y-77480000I0J-250000D01*
G01*
G37*
G36*
G01*
X57645000Y-77480000D02*
X57645000Y-78730000D01*
G75*
G02*
X57395000Y-78980000I-250000J0D01*
G01*
X56470000Y-78980000D01*
G75*
G02*
X56220000Y-78730000I0J250000D01*
G01*
X56220000Y-77480000D01*
G75*
G02*
X56470000Y-77230000I250000J0D01*
G01*
X57395000Y-77230000D01*
G75*
G02*
X57645000Y-77480000I0J-250000D01*
G01*
G37*
G36*
G01*
X83045000Y-77480000D02*
X83045000Y-78730000D01*
G75*
G02*
X82795000Y-78980000I-250000J0D01*
G01*
X81870000Y-78980000D01*
G75*
G02*
X81620000Y-78730000I0J250000D01*
G01*
X81620000Y-77480000D01*
G75*
G02*
X81870000Y-77230000I250000J0D01*
G01*
X82795000Y-77230000D01*
G75*
G02*
X83045000Y-77480000I0J-250000D01*
G01*
G37*
G36*
G01*
X86020000Y-77480000D02*
X86020000Y-78730000D01*
G75*
G02*
X85770000Y-78980000I-250000J0D01*
G01*
X84845000Y-78980000D01*
G75*
G02*
X84595000Y-78730000I0J250000D01*
G01*
X84595000Y-77480000D01*
G75*
G02*
X84845000Y-77230000I250000J0D01*
G01*
X85770000Y-77230000D01*
G75*
G02*
X86020000Y-77480000I0J-250000D01*
G01*
G37*
G36*
G01*
X108445000Y-77480000D02*
X108445000Y-78730000D01*
G75*
G02*
X108195000Y-78980000I-250000J0D01*
G01*
X107270000Y-78980000D01*
G75*
G02*
X107020000Y-78730000I0J250000D01*
G01*
X107020000Y-77480000D01*
G75*
G02*
X107270000Y-77230000I250000J0D01*
G01*
X108195000Y-77230000D01*
G75*
G02*
X108445000Y-77480000I0J-250000D01*
G01*
G37*
G36*
G01*
X111420000Y-77480000D02*
X111420000Y-78730000D01*
G75*
G02*
X111170000Y-78980000I-250000J0D01*
G01*
X110245000Y-78980000D01*
G75*
G02*
X109995000Y-78730000I0J250000D01*
G01*
X109995000Y-77480000D01*
G75*
G02*
X110245000Y-77230000I250000J0D01*
G01*
X111170000Y-77230000D01*
G75*
G02*
X111420000Y-77480000I0J-250000D01*
G01*
G37*
G36*
G01*
X136820000Y-77480000D02*
X136820000Y-78730000D01*
G75*
G02*
X136570000Y-78980000I-250000J0D01*
G01*
X135645000Y-78980000D01*
G75*
G02*
X135395000Y-78730000I0J250000D01*
G01*
X135395000Y-77480000D01*
G75*
G02*
X135645000Y-77230000I250000J0D01*
G01*
X136570000Y-77230000D01*
G75*
G02*
X136820000Y-77480000I0J-250000D01*
G01*
G37*
G36*
G01*
X133845000Y-77480000D02*
X133845000Y-78730000D01*
G75*
G02*
X133595000Y-78980000I-250000J0D01*
G01*
X132670000Y-78980000D01*
G75*
G02*
X132420000Y-78730000I0J250000D01*
G01*
X132420000Y-77480000D01*
G75*
G02*
X132670000Y-77230000I250000J0D01*
G01*
X133595000Y-77230000D01*
G75*
G02*
X133845000Y-77480000I0J-250000D01*
G01*
G37*
G36*
G01*
X159245000Y-77480000D02*
X159245000Y-78730000D01*
G75*
G02*
X158995000Y-78980000I-250000J0D01*
G01*
X158070000Y-78980000D01*
G75*
G02*
X157820000Y-78730000I0J250000D01*
G01*
X157820000Y-77480000D01*
G75*
G02*
X158070000Y-77230000I250000J0D01*
G01*
X158995000Y-77230000D01*
G75*
G02*
X159245000Y-77480000I0J-250000D01*
G01*
G37*
G36*
G01*
X162220000Y-77480000D02*
X162220000Y-78730000D01*
G75*
G02*
X161970000Y-78980000I-250000J0D01*
G01*
X161045000Y-78980000D01*
G75*
G02*
X160795000Y-78730000I0J250000D01*
G01*
X160795000Y-77480000D01*
G75*
G02*
X161045000Y-77230000I250000J0D01*
G01*
X161970000Y-77230000D01*
G75*
G02*
X162220000Y-77480000I0J-250000D01*
G01*
G37*
G36*
G01*
X187620000Y-77480000D02*
X187620000Y-78730000D01*
G75*
G02*
X187370000Y-78980000I-250000J0D01*
G01*
X186445000Y-78980000D01*
G75*
G02*
X186195000Y-78730000I0J250000D01*
G01*
X186195000Y-77480000D01*
G75*
G02*
X186445000Y-77230000I250000J0D01*
G01*
X187370000Y-77230000D01*
G75*
G02*
X187620000Y-77480000I0J-250000D01*
G01*
G37*
G36*
G01*
X184645000Y-77480000D02*
X184645000Y-78730000D01*
G75*
G02*
X184395000Y-78980000I-250000J0D01*
G01*
X183470000Y-78980000D01*
G75*
G02*
X183220000Y-78730000I0J250000D01*
G01*
X183220000Y-77480000D01*
G75*
G02*
X183470000Y-77230000I250000J0D01*
G01*
X184395000Y-77230000D01*
G75*
G02*
X184645000Y-77480000I0J-250000D01*
G01*
G37*
G36*
G01*
X210045000Y-77480000D02*
X210045000Y-78730000D01*
G75*
G02*
X209795000Y-78980000I-250000J0D01*
G01*
X208870000Y-78980000D01*
G75*
G02*
X208620000Y-78730000I0J250000D01*
G01*
X208620000Y-77480000D01*
G75*
G02*
X208870000Y-77230000I250000J0D01*
G01*
X209795000Y-77230000D01*
G75*
G02*
X210045000Y-77480000I0J-250000D01*
G01*
G37*
G36*
G01*
X213020000Y-77480000D02*
X213020000Y-78730000D01*
G75*
G02*
X212770000Y-78980000I-250000J0D01*
G01*
X211845000Y-78980000D01*
G75*
G02*
X211595000Y-78730000I0J250000D01*
G01*
X211595000Y-77480000D01*
G75*
G02*
X211845000Y-77230000I250000J0D01*
G01*
X212770000Y-77230000D01*
G75*
G02*
X213020000Y-77480000I0J-250000D01*
G01*
G37*
G36*
G01*
X86220000Y-45730000D02*
X86220000Y-46980000D01*
G75*
G02*
X85970000Y-47230000I-250000J0D01*
G01*
X85045000Y-47230000D01*
G75*
G02*
X84795000Y-46980000I0J250000D01*
G01*
X84795000Y-45730000D01*
G75*
G02*
X85045000Y-45480000I250000J0D01*
G01*
X85970000Y-45480000D01*
G75*
G02*
X86220000Y-45730000I0J-250000D01*
G01*
G37*
G36*
G01*
X89195000Y-45730000D02*
X89195000Y-46980000D01*
G75*
G02*
X88945000Y-47230000I-250000J0D01*
G01*
X88020000Y-47230000D01*
G75*
G02*
X87770000Y-46980000I0J250000D01*
G01*
X87770000Y-45730000D01*
G75*
G02*
X88020000Y-45480000I250000J0D01*
G01*
X88945000Y-45480000D01*
G75*
G02*
X89195000Y-45730000I0J-250000D01*
G01*
G37*
G36*
G01*
X136820000Y-45730000D02*
X136820000Y-46980000D01*
G75*
G02*
X136570000Y-47230000I-250000J0D01*
G01*
X135645000Y-47230000D01*
G75*
G02*
X135395000Y-46980000I0J250000D01*
G01*
X135395000Y-45730000D01*
G75*
G02*
X135645000Y-45480000I250000J0D01*
G01*
X136570000Y-45480000D01*
G75*
G02*
X136820000Y-45730000I0J-250000D01*
G01*
G37*
G36*
G01*
X133845000Y-45730000D02*
X133845000Y-46980000D01*
G75*
G02*
X133595000Y-47230000I-250000J0D01*
G01*
X132670000Y-47230000D01*
G75*
G02*
X132420000Y-46980000I0J250000D01*
G01*
X132420000Y-45730000D01*
G75*
G02*
X132670000Y-45480000I250000J0D01*
G01*
X133595000Y-45480000D01*
G75*
G02*
X133845000Y-45730000I0J-250000D01*
G01*
G37*
G36*
G01*
X181470000Y-45730000D02*
X181470000Y-46980000D01*
G75*
G02*
X181220000Y-47230000I-250000J0D01*
G01*
X180295000Y-47230000D01*
G75*
G02*
X180045000Y-46980000I0J250000D01*
G01*
X180045000Y-45730000D01*
G75*
G02*
X180295000Y-45480000I250000J0D01*
G01*
X181220000Y-45480000D01*
G75*
G02*
X181470000Y-45730000I0J-250000D01*
G01*
G37*
G36*
G01*
X184445000Y-45730000D02*
X184445000Y-46980000D01*
G75*
G02*
X184195000Y-47230000I-250000J0D01*
G01*
X183270000Y-47230000D01*
G75*
G02*
X183020000Y-46980000I0J250000D01*
G01*
X183020000Y-45730000D01*
G75*
G02*
X183270000Y-45480000I250000J0D01*
G01*
X184195000Y-45480000D01*
G75*
G02*
X184445000Y-45730000I0J-250000D01*
G01*
G37*
G36*
G01*
X89195000Y-139710000D02*
X89195000Y-140960000D01*
G75*
G02*
X88945000Y-141210000I-250000J0D01*
G01*
X88020000Y-141210000D01*
G75*
G02*
X87770000Y-140960000I0J250000D01*
G01*
X87770000Y-139710000D01*
G75*
G02*
X88020000Y-139460000I250000J0D01*
G01*
X88945000Y-139460000D01*
G75*
G02*
X89195000Y-139710000I0J-250000D01*
G01*
G37*
G36*
G01*
X86220000Y-139710000D02*
X86220000Y-140960000D01*
G75*
G02*
X85970000Y-141210000I-250000J0D01*
G01*
X85045000Y-141210000D01*
G75*
G02*
X84795000Y-140960000I0J250000D01*
G01*
X84795000Y-139710000D01*
G75*
G02*
X85045000Y-139460000I250000J0D01*
G01*
X85970000Y-139460000D01*
G75*
G02*
X86220000Y-139710000I0J-250000D01*
G01*
G37*
G36*
G01*
X133845000Y-139710000D02*
X133845000Y-140960000D01*
G75*
G02*
X133595000Y-141210000I-250000J0D01*
G01*
X132670000Y-141210000D01*
G75*
G02*
X132420000Y-140960000I0J250000D01*
G01*
X132420000Y-139710000D01*
G75*
G02*
X132670000Y-139460000I250000J0D01*
G01*
X133595000Y-139460000D01*
G75*
G02*
X133845000Y-139710000I0J-250000D01*
G01*
G37*
G36*
G01*
X136820000Y-139710000D02*
X136820000Y-140960000D01*
G75*
G02*
X136570000Y-141210000I-250000J0D01*
G01*
X135645000Y-141210000D01*
G75*
G02*
X135395000Y-140960000I0J250000D01*
G01*
X135395000Y-139710000D01*
G75*
G02*
X135645000Y-139460000I250000J0D01*
G01*
X136570000Y-139460000D01*
G75*
G02*
X136820000Y-139710000I0J-250000D01*
G01*
G37*
G36*
G01*
X184445000Y-139710000D02*
X184445000Y-140960000D01*
G75*
G02*
X184195000Y-141210000I-250000J0D01*
G01*
X183270000Y-141210000D01*
G75*
G02*
X183020000Y-140960000I0J250000D01*
G01*
X183020000Y-139710000D01*
G75*
G02*
X183270000Y-139460000I250000J0D01*
G01*
X184195000Y-139460000D01*
G75*
G02*
X184445000Y-139710000I0J-250000D01*
G01*
G37*
G36*
G01*
X181470000Y-139710000D02*
X181470000Y-140960000D01*
G75*
G02*
X181220000Y-141210000I-250000J0D01*
G01*
X180295000Y-141210000D01*
G75*
G02*
X180045000Y-140960000I0J250000D01*
G01*
X180045000Y-139710000D01*
G75*
G02*
X180295000Y-139460000I250000J0D01*
G01*
X181220000Y-139460000D01*
G75*
G02*
X181470000Y-139710000I0J-250000D01*
G01*
G37*
G36*
G01*
X43805000Y-67170000D02*
X42555000Y-67170000D01*
G75*
G02*
X42305000Y-66920000I0J250000D01*
G01*
X42305000Y-65995000D01*
G75*
G02*
X42555000Y-65745000I250000J0D01*
G01*
X43805000Y-65745000D01*
G75*
G02*
X44055000Y-65995000I0J-250000D01*
G01*
X44055000Y-66920000D01*
G75*
G02*
X43805000Y-67170000I-250000J0D01*
G01*
G37*
G36*
G01*
X43805000Y-70145000D02*
X42555000Y-70145000D01*
G75*
G02*
X42305000Y-69895000I0J250000D01*
G01*
X42305000Y-68970000D01*
G75*
G02*
X42555000Y-68720000I250000J0D01*
G01*
X43805000Y-68720000D01*
G75*
G02*
X44055000Y-68970000I0J-250000D01*
G01*
X44055000Y-69895000D01*
G75*
G02*
X43805000Y-70145000I-250000J0D01*
G01*
G37*
G36*
G01*
X43805000Y-120945000D02*
X42555000Y-120945000D01*
G75*
G02*
X42305000Y-120695000I0J250000D01*
G01*
X42305000Y-119770000D01*
G75*
G02*
X42555000Y-119520000I250000J0D01*
G01*
X43805000Y-119520000D01*
G75*
G02*
X44055000Y-119770000I0J-250000D01*
G01*
X44055000Y-120695000D01*
G75*
G02*
X43805000Y-120945000I-250000J0D01*
G01*
G37*
G36*
G01*
X43805000Y-117970000D02*
X42555000Y-117970000D01*
G75*
G02*
X42305000Y-117720000I0J250000D01*
G01*
X42305000Y-116795000D01*
G75*
G02*
X42555000Y-116545000I250000J0D01*
G01*
X43805000Y-116545000D01*
G75*
G02*
X44055000Y-116795000I0J-250000D01*
G01*
X44055000Y-117720000D01*
G75*
G02*
X43805000Y-117970000I-250000J0D01*
G01*
G37*
G36*
G01*
X226685000Y-67170000D02*
X225435000Y-67170000D01*
G75*
G02*
X225185000Y-66920000I0J250000D01*
G01*
X225185000Y-65995000D01*
G75*
G02*
X225435000Y-65745000I250000J0D01*
G01*
X226685000Y-65745000D01*
G75*
G02*
X226935000Y-65995000I0J-250000D01*
G01*
X226935000Y-66920000D01*
G75*
G02*
X226685000Y-67170000I-250000J0D01*
G01*
G37*
G36*
G01*
X226685000Y-70145000D02*
X225435000Y-70145000D01*
G75*
G02*
X225185000Y-69895000I0J250000D01*
G01*
X225185000Y-68970000D01*
G75*
G02*
X225435000Y-68720000I250000J0D01*
G01*
X226685000Y-68720000D01*
G75*
G02*
X226935000Y-68970000I0J-250000D01*
G01*
X226935000Y-69895000D01*
G75*
G02*
X226685000Y-70145000I-250000J0D01*
G01*
G37*
G36*
G01*
X226685000Y-112690000D02*
X225435000Y-112690000D01*
G75*
G02*
X225185000Y-112440000I0J250000D01*
G01*
X225185000Y-111515000D01*
G75*
G02*
X225435000Y-111265000I250000J0D01*
G01*
X226685000Y-111265000D01*
G75*
G02*
X226935000Y-111515000I0J-250000D01*
G01*
X226935000Y-112440000D01*
G75*
G02*
X226685000Y-112690000I-250000J0D01*
G01*
G37*
G36*
G01*
X226685000Y-109715000D02*
X225435000Y-109715000D01*
G75*
G02*
X225185000Y-109465000I0J250000D01*
G01*
X225185000Y-108540000D01*
G75*
G02*
X225435000Y-108290000I250000J0D01*
G01*
X226685000Y-108290000D01*
G75*
G02*
X226935000Y-108540000I0J-250000D01*
G01*
X226935000Y-109465000D01*
G75*
G02*
X226685000Y-109715000I-250000J0D01*
G01*
G37*
M02*
