M48
; DRILL file {KiCad (5.1.10)-1} date 09/06/21 17:19:30
; FORMAT={-:-/ absolute / metric / decimal}
; #@! TF.CreationDate,2021-09-06T17:19:30-07:00
; #@! TF.GenerationSoftware,Kicad,Pcbnew,(5.1.10)-1
; #@! TF.FileFunction,NonPlated,1,2,NPTH
FMAT,2
METRIC
T1C1.152
T2C2.400
T3C3.200
T4C6.000
%
G90
G05
T1
X42.37Y-45.445
X226.37Y-45.445
X226.47Y-140.445
T2
X58.42Y-86.945
X83.82Y-86.945
X109.22Y-86.945
X134.62Y-86.945
X160.02Y-86.945
X185.42Y-86.945
X210.82Y-86.945
T3
X48.895Y-52.07
X48.895Y-137.795
X220.345Y-52.07
X220.345Y-137.795
T4
X58.42Y-93.345
X83.82Y-93.345
X109.22Y-93.345
X134.62Y-93.345
X160.02Y-93.345
X185.42Y-93.345
X210.82Y-93.345
T0
M30
