G04 #@! TF.GenerationSoftware,KiCad,Pcbnew,(5.1.10)-1*
G04 #@! TF.CreationDate,2021-09-06T17:19:25-07:00*
G04 #@! TF.ProjectId,TBM930 - De-ice panel,54424d39-3330-4202-9d20-44652d696365,rev?*
G04 #@! TF.SameCoordinates,Original*
G04 #@! TF.FileFunction,Soldermask,Bot*
G04 #@! TF.FilePolarity,Negative*
%FSLAX46Y46*%
G04 Gerber Fmt 4.6, Leading zero omitted, Abs format (unit mm)*
G04 Created by KiCad (PCBNEW (5.1.10)-1) date 2021-09-06 17:19:25*
%MOMM*%
%LPD*%
G01*
G04 APERTURE LIST*
%ADD10C,1.820000*%
%ADD11R,0.500000X0.500000*%
%ADD12C,2.000000*%
%ADD13R,1.400000X1.200000*%
%ADD14R,1.700000X1.700000*%
%ADD15O,1.700000X1.700000*%
%ADD16C,3.200000*%
%ADD17C,6.000000*%
%ADD18C,2.400000*%
%ADD19R,1.800000X1.800000*%
%ADD20C,1.800000*%
%ADD21O,1.740000X2.190000*%
%ADD22R,1.600000X1.600000*%
%ADD23O,1.600000X1.600000*%
%ADD24R,2.400000X2.400000*%
%ADD25R,1.500000X0.550000*%
%ADD26R,0.550000X1.500000*%
%ADD27R,4.500000X4.500000*%
%ADD28C,1.600000*%
%ADD29R,3.500000X3.500000*%
%ADD30O,1.100000X1.700000*%
%ADD31O,1.400000X3.900000*%
G04 APERTURE END LIST*
D10*
X226470000Y-140445000D03*
X226370000Y-45445000D03*
X42370000Y-45445000D03*
D11*
X194470000Y-132377000D03*
X194470000Y-134577000D03*
D12*
X172720000Y-136072000D03*
X172720000Y-131572000D03*
X166220000Y-136072000D03*
X166220000Y-131572000D03*
D13*
X203456000Y-134349500D03*
X205656000Y-134349500D03*
X205656000Y-136049500D03*
X203456000Y-136049500D03*
D14*
X185070000Y-135095000D03*
D15*
X185070000Y-132555000D03*
X182530000Y-135095000D03*
X182530000Y-132555000D03*
X179990000Y-135095000D03*
X179990000Y-132555000D03*
D12*
X100270000Y-109145000D03*
X100270000Y-113645000D03*
X93770000Y-109145000D03*
X93770000Y-113645000D03*
D16*
X220345000Y-137795000D03*
X220345000Y-52070000D03*
X48895000Y-137795000D03*
X48895000Y-52070000D03*
D17*
X210820000Y-93345000D03*
D18*
X210820000Y-86945000D03*
D17*
X185420000Y-93345000D03*
D18*
X185420000Y-86945000D03*
D17*
X160020000Y-93345000D03*
D18*
X160020000Y-86945000D03*
D17*
X134620000Y-93345000D03*
D18*
X134620000Y-86945000D03*
D17*
X109220000Y-93345000D03*
D18*
X109220000Y-86945000D03*
D17*
X83820000Y-93345000D03*
D18*
X83820000Y-86945000D03*
D17*
X58420000Y-93345000D03*
D18*
X58420000Y-86945000D03*
D19*
X50800000Y-67945000D03*
D20*
X53340000Y-67945000D03*
X66040000Y-67945000D03*
D19*
X63500000Y-67945000D03*
X107950000Y-67945000D03*
D20*
X110490000Y-67945000D03*
X129540000Y-67945000D03*
D19*
X127000000Y-67945000D03*
X139700000Y-67945000D03*
D20*
X142240000Y-67945000D03*
G36*
G01*
X60560000Y-107104999D02*
X60560000Y-108795001D01*
G75*
G02*
X60310001Y-109045000I-249999J0D01*
G01*
X59069999Y-109045000D01*
G75*
G02*
X58820000Y-108795001I0J249999D01*
G01*
X58820000Y-107104999D01*
G75*
G02*
X59069999Y-106855000I249999J0D01*
G01*
X60310001Y-106855000D01*
G75*
G02*
X60560000Y-107104999I0J-249999D01*
G01*
G37*
D21*
X57150000Y-107950000D03*
X82550000Y-107950000D03*
G36*
G01*
X85960000Y-107104999D02*
X85960000Y-108795001D01*
G75*
G02*
X85710001Y-109045000I-249999J0D01*
G01*
X84469999Y-109045000D01*
G75*
G02*
X84220000Y-108795001I0J249999D01*
G01*
X84220000Y-107104999D01*
G75*
G02*
X84469999Y-106855000I249999J0D01*
G01*
X85710001Y-106855000D01*
G75*
G02*
X85960000Y-107104999I0J-249999D01*
G01*
G37*
G36*
G01*
X111360000Y-107104999D02*
X111360000Y-108795001D01*
G75*
G02*
X111110001Y-109045000I-249999J0D01*
G01*
X109869999Y-109045000D01*
G75*
G02*
X109620000Y-108795001I0J249999D01*
G01*
X109620000Y-107104999D01*
G75*
G02*
X109869999Y-106855000I249999J0D01*
G01*
X111110001Y-106855000D01*
G75*
G02*
X111360000Y-107104999I0J-249999D01*
G01*
G37*
X107950000Y-107950000D03*
X133350000Y-107950000D03*
G36*
G01*
X136760000Y-107104999D02*
X136760000Y-108795001D01*
G75*
G02*
X136510001Y-109045000I-249999J0D01*
G01*
X135269999Y-109045000D01*
G75*
G02*
X135020000Y-108795001I0J249999D01*
G01*
X135020000Y-107104999D01*
G75*
G02*
X135269999Y-106855000I249999J0D01*
G01*
X136510001Y-106855000D01*
G75*
G02*
X136760000Y-107104999I0J-249999D01*
G01*
G37*
G36*
G01*
X162160000Y-107104999D02*
X162160000Y-108795001D01*
G75*
G02*
X161910001Y-109045000I-249999J0D01*
G01*
X160669999Y-109045000D01*
G75*
G02*
X160420000Y-108795001I0J249999D01*
G01*
X160420000Y-107104999D01*
G75*
G02*
X160669999Y-106855000I249999J0D01*
G01*
X161910001Y-106855000D01*
G75*
G02*
X162160000Y-107104999I0J-249999D01*
G01*
G37*
X158750000Y-107950000D03*
X184150000Y-107950000D03*
G36*
G01*
X187560000Y-107104999D02*
X187560000Y-108795001D01*
G75*
G02*
X187310001Y-109045000I-249999J0D01*
G01*
X186069999Y-109045000D01*
G75*
G02*
X185820000Y-108795001I0J249999D01*
G01*
X185820000Y-107104999D01*
G75*
G02*
X186069999Y-106855000I249999J0D01*
G01*
X187310001Y-106855000D01*
G75*
G02*
X187560000Y-107104999I0J-249999D01*
G01*
G37*
G36*
G01*
X212960000Y-107104999D02*
X212960000Y-108795001D01*
G75*
G02*
X212710001Y-109045000I-249999J0D01*
G01*
X211469999Y-109045000D01*
G75*
G02*
X211220000Y-108795001I0J249999D01*
G01*
X211220000Y-107104999D01*
G75*
G02*
X211469999Y-106855000I249999J0D01*
G01*
X212710001Y-106855000D01*
G75*
G02*
X212960000Y-107104999I0J-249999D01*
G01*
G37*
X209550000Y-107950000D03*
G36*
G01*
X216420000Y-119070000D02*
X216920000Y-119070000D01*
G75*
G02*
X217145000Y-119295000I0J-225000D01*
G01*
X217145000Y-119745000D01*
G75*
G02*
X216920000Y-119970000I-225000J0D01*
G01*
X216420000Y-119970000D01*
G75*
G02*
X216195000Y-119745000I0J225000D01*
G01*
X216195000Y-119295000D01*
G75*
G02*
X216420000Y-119070000I225000J0D01*
G01*
G37*
G36*
G01*
X216420000Y-117520000D02*
X216920000Y-117520000D01*
G75*
G02*
X217145000Y-117745000I0J-225000D01*
G01*
X217145000Y-118195000D01*
G75*
G02*
X216920000Y-118420000I-225000J0D01*
G01*
X216420000Y-118420000D01*
G75*
G02*
X216195000Y-118195000I0J225000D01*
G01*
X216195000Y-117745000D01*
G75*
G02*
X216420000Y-117520000I225000J0D01*
G01*
G37*
G36*
G01*
X201600000Y-136145000D02*
X201940000Y-136145000D01*
G75*
G02*
X202080000Y-136285000I0J-140000D01*
G01*
X202080000Y-136565000D01*
G75*
G02*
X201940000Y-136705000I-140000J0D01*
G01*
X201600000Y-136705000D01*
G75*
G02*
X201460000Y-136565000I0J140000D01*
G01*
X201460000Y-136285000D01*
G75*
G02*
X201600000Y-136145000I140000J0D01*
G01*
G37*
G36*
G01*
X201600000Y-135185000D02*
X201940000Y-135185000D01*
G75*
G02*
X202080000Y-135325000I0J-140000D01*
G01*
X202080000Y-135605000D01*
G75*
G02*
X201940000Y-135745000I-140000J0D01*
G01*
X201600000Y-135745000D01*
G75*
G02*
X201460000Y-135605000I0J140000D01*
G01*
X201460000Y-135325000D01*
G75*
G02*
X201600000Y-135185000I140000J0D01*
G01*
G37*
G36*
G01*
X207540000Y-136705000D02*
X207200000Y-136705000D01*
G75*
G02*
X207060000Y-136565000I0J140000D01*
G01*
X207060000Y-136285000D01*
G75*
G02*
X207200000Y-136145000I140000J0D01*
G01*
X207540000Y-136145000D01*
G75*
G02*
X207680000Y-136285000I0J-140000D01*
G01*
X207680000Y-136565000D01*
G75*
G02*
X207540000Y-136705000I-140000J0D01*
G01*
G37*
G36*
G01*
X207540000Y-135745000D02*
X207200000Y-135745000D01*
G75*
G02*
X207060000Y-135605000I0J140000D01*
G01*
X207060000Y-135325000D01*
G75*
G02*
X207200000Y-135185000I140000J0D01*
G01*
X207540000Y-135185000D01*
G75*
G02*
X207680000Y-135325000I0J-140000D01*
G01*
X207680000Y-135605000D01*
G75*
G02*
X207540000Y-135745000I-140000J0D01*
G01*
G37*
G36*
G01*
X218282500Y-117485500D02*
X219232500Y-117485500D01*
G75*
G02*
X219482500Y-117735500I0J-250000D01*
G01*
X219482500Y-118235500D01*
G75*
G02*
X219232500Y-118485500I-250000J0D01*
G01*
X218282500Y-118485500D01*
G75*
G02*
X218032500Y-118235500I0J250000D01*
G01*
X218032500Y-117735500D01*
G75*
G02*
X218282500Y-117485500I250000J0D01*
G01*
G37*
G36*
G01*
X218282500Y-119385500D02*
X219232500Y-119385500D01*
G75*
G02*
X219482500Y-119635500I0J-250000D01*
G01*
X219482500Y-120135500D01*
G75*
G02*
X219232500Y-120385500I-250000J0D01*
G01*
X218282500Y-120385500D01*
G75*
G02*
X218032500Y-120135500I0J250000D01*
G01*
X218032500Y-119635500D01*
G75*
G02*
X218282500Y-119385500I250000J0D01*
G01*
G37*
G36*
G01*
X213745000Y-123070000D02*
X213245000Y-123070000D01*
G75*
G02*
X213020000Y-122845000I0J225000D01*
G01*
X213020000Y-122395000D01*
G75*
G02*
X213245000Y-122170000I225000J0D01*
G01*
X213745000Y-122170000D01*
G75*
G02*
X213970000Y-122395000I0J-225000D01*
G01*
X213970000Y-122845000D01*
G75*
G02*
X213745000Y-123070000I-225000J0D01*
G01*
G37*
G36*
G01*
X213745000Y-121520000D02*
X213245000Y-121520000D01*
G75*
G02*
X213020000Y-121295000I0J225000D01*
G01*
X213020000Y-120845000D01*
G75*
G02*
X213245000Y-120620000I225000J0D01*
G01*
X213745000Y-120620000D01*
G75*
G02*
X213970000Y-120845000I0J-225000D01*
G01*
X213970000Y-121295000D01*
G75*
G02*
X213745000Y-121520000I-225000J0D01*
G01*
G37*
D22*
X178500000Y-71267000D03*
D23*
X160720000Y-63647000D03*
X175960000Y-71267000D03*
X163260000Y-63647000D03*
X173420000Y-71267000D03*
X165800000Y-63647000D03*
X170880000Y-71267000D03*
X168340000Y-63647000D03*
X168340000Y-71267000D03*
X170880000Y-63647000D03*
X165800000Y-71267000D03*
X173420000Y-63647000D03*
X163260000Y-71267000D03*
X175960000Y-63647000D03*
X160720000Y-71267000D03*
X178500000Y-63647000D03*
X202500000Y-63624000D03*
X184720000Y-71244000D03*
X199960000Y-63624000D03*
X187260000Y-71244000D03*
X197420000Y-63624000D03*
X189800000Y-71244000D03*
X194880000Y-63624000D03*
X192340000Y-71244000D03*
X192340000Y-63624000D03*
X194880000Y-71244000D03*
X189800000Y-63624000D03*
X197420000Y-71244000D03*
X187260000Y-63624000D03*
X199960000Y-71244000D03*
X184720000Y-63624000D03*
D22*
X202500000Y-71244000D03*
D24*
X68570000Y-54695000D03*
D18*
X63570000Y-54695000D03*
D25*
X211170000Y-122145000D03*
X211170000Y-122945000D03*
X211170000Y-123745000D03*
X211170000Y-124545000D03*
X211170000Y-125345000D03*
X211170000Y-126145000D03*
X211170000Y-126945000D03*
X211170000Y-127745000D03*
X211170000Y-128545000D03*
X211170000Y-129345000D03*
X211170000Y-130145000D03*
D26*
X209470000Y-131845000D03*
X208670000Y-131845000D03*
X207870000Y-131845000D03*
X207070000Y-131845000D03*
X206270000Y-131845000D03*
X205470000Y-131845000D03*
X204670000Y-131845000D03*
X203870000Y-131845000D03*
X203070000Y-131845000D03*
X202270000Y-131845000D03*
X201470000Y-131845000D03*
D25*
X199770000Y-130145000D03*
X199770000Y-129345000D03*
X199770000Y-128545000D03*
X199770000Y-127745000D03*
X199770000Y-126945000D03*
X199770000Y-126145000D03*
X199770000Y-125345000D03*
X199770000Y-124545000D03*
X199770000Y-123745000D03*
X199770000Y-122945000D03*
X199770000Y-122145000D03*
D26*
X201470000Y-120445000D03*
X202270000Y-120445000D03*
X203070000Y-120445000D03*
X203870000Y-120445000D03*
X204670000Y-120445000D03*
X205470000Y-120445000D03*
X206270000Y-120445000D03*
X207070000Y-120445000D03*
X207870000Y-120445000D03*
X208670000Y-120445000D03*
X209470000Y-120445000D03*
D27*
X205470000Y-126145000D03*
G36*
G01*
X201420000Y-118315000D02*
X201420000Y-117975000D01*
G75*
G02*
X201560000Y-117835000I140000J0D01*
G01*
X201840000Y-117835000D01*
G75*
G02*
X201980000Y-117975000I0J-140000D01*
G01*
X201980000Y-118315000D01*
G75*
G02*
X201840000Y-118455000I-140000J0D01*
G01*
X201560000Y-118455000D01*
G75*
G02*
X201420000Y-118315000I0J140000D01*
G01*
G37*
G36*
G01*
X200460000Y-118315000D02*
X200460000Y-117975000D01*
G75*
G02*
X200600000Y-117835000I140000J0D01*
G01*
X200880000Y-117835000D01*
G75*
G02*
X201020000Y-117975000I0J-140000D01*
G01*
X201020000Y-118315000D01*
G75*
G02*
X200880000Y-118455000I-140000J0D01*
G01*
X200600000Y-118455000D01*
G75*
G02*
X200460000Y-118315000I0J140000D01*
G01*
G37*
G36*
G01*
X208530000Y-133475000D02*
X208530000Y-133815000D01*
G75*
G02*
X208390000Y-133955000I-140000J0D01*
G01*
X208110000Y-133955000D01*
G75*
G02*
X207970000Y-133815000I0J140000D01*
G01*
X207970000Y-133475000D01*
G75*
G02*
X208110000Y-133335000I140000J0D01*
G01*
X208390000Y-133335000D01*
G75*
G02*
X208530000Y-133475000I0J-140000D01*
G01*
G37*
G36*
G01*
X207570000Y-133475000D02*
X207570000Y-133815000D01*
G75*
G02*
X207430000Y-133955000I-140000J0D01*
G01*
X207150000Y-133955000D01*
G75*
G02*
X207010000Y-133815000I0J140000D01*
G01*
X207010000Y-133475000D01*
G75*
G02*
X207150000Y-133335000I140000J0D01*
G01*
X207430000Y-133335000D01*
G75*
G02*
X207570000Y-133475000I0J-140000D01*
G01*
G37*
G36*
G01*
X209846000Y-117901000D02*
X209846000Y-118241000D01*
G75*
G02*
X209706000Y-118381000I-140000J0D01*
G01*
X209426000Y-118381000D01*
G75*
G02*
X209286000Y-118241000I0J140000D01*
G01*
X209286000Y-117901000D01*
G75*
G02*
X209426000Y-117761000I140000J0D01*
G01*
X209706000Y-117761000D01*
G75*
G02*
X209846000Y-117901000I0J-140000D01*
G01*
G37*
G36*
G01*
X210806000Y-117901000D02*
X210806000Y-118241000D01*
G75*
G02*
X210666000Y-118381000I-140000J0D01*
G01*
X210386000Y-118381000D01*
G75*
G02*
X210246000Y-118241000I0J140000D01*
G01*
X210246000Y-117901000D01*
G75*
G02*
X210386000Y-117761000I140000J0D01*
G01*
X210666000Y-117761000D01*
G75*
G02*
X210806000Y-117901000I0J-140000D01*
G01*
G37*
G36*
G01*
X197300000Y-129479500D02*
X197640000Y-129479500D01*
G75*
G02*
X197780000Y-129619500I0J-140000D01*
G01*
X197780000Y-129899500D01*
G75*
G02*
X197640000Y-130039500I-140000J0D01*
G01*
X197300000Y-130039500D01*
G75*
G02*
X197160000Y-129899500I0J140000D01*
G01*
X197160000Y-129619500D01*
G75*
G02*
X197300000Y-129479500I140000J0D01*
G01*
G37*
G36*
G01*
X197300000Y-130439500D02*
X197640000Y-130439500D01*
G75*
G02*
X197780000Y-130579500I0J-140000D01*
G01*
X197780000Y-130859500D01*
G75*
G02*
X197640000Y-130999500I-140000J0D01*
G01*
X197300000Y-130999500D01*
G75*
G02*
X197160000Y-130859500I0J140000D01*
G01*
X197160000Y-130579500D01*
G75*
G02*
X197300000Y-130439500I140000J0D01*
G01*
G37*
G36*
G01*
X207701000Y-117934500D02*
X207361000Y-117934500D01*
G75*
G02*
X207221000Y-117794500I0J140000D01*
G01*
X207221000Y-117514500D01*
G75*
G02*
X207361000Y-117374500I140000J0D01*
G01*
X207701000Y-117374500D01*
G75*
G02*
X207841000Y-117514500I0J-140000D01*
G01*
X207841000Y-117794500D01*
G75*
G02*
X207701000Y-117934500I-140000J0D01*
G01*
G37*
G36*
G01*
X207701000Y-116974500D02*
X207361000Y-116974500D01*
G75*
G02*
X207221000Y-116834500I0J140000D01*
G01*
X207221000Y-116554500D01*
G75*
G02*
X207361000Y-116414500I140000J0D01*
G01*
X207701000Y-116414500D01*
G75*
G02*
X207841000Y-116554500I0J-140000D01*
G01*
X207841000Y-116834500D01*
G75*
G02*
X207701000Y-116974500I-140000J0D01*
G01*
G37*
G36*
G01*
X213050000Y-127095000D02*
X213390000Y-127095000D01*
G75*
G02*
X213530000Y-127235000I0J-140000D01*
G01*
X213530000Y-127515000D01*
G75*
G02*
X213390000Y-127655000I-140000J0D01*
G01*
X213050000Y-127655000D01*
G75*
G02*
X212910000Y-127515000I0J140000D01*
G01*
X212910000Y-127235000D01*
G75*
G02*
X213050000Y-127095000I140000J0D01*
G01*
G37*
G36*
G01*
X213050000Y-126135000D02*
X213390000Y-126135000D01*
G75*
G02*
X213530000Y-126275000I0J-140000D01*
G01*
X213530000Y-126555000D01*
G75*
G02*
X213390000Y-126695000I-140000J0D01*
G01*
X213050000Y-126695000D01*
G75*
G02*
X212910000Y-126555000I0J140000D01*
G01*
X212910000Y-126275000D01*
G75*
G02*
X213050000Y-126135000I140000J0D01*
G01*
G37*
G36*
G01*
X205276000Y-68257500D02*
X204936000Y-68257500D01*
G75*
G02*
X204796000Y-68117500I0J140000D01*
G01*
X204796000Y-67837500D01*
G75*
G02*
X204936000Y-67697500I140000J0D01*
G01*
X205276000Y-67697500D01*
G75*
G02*
X205416000Y-67837500I0J-140000D01*
G01*
X205416000Y-68117500D01*
G75*
G02*
X205276000Y-68257500I-140000J0D01*
G01*
G37*
G36*
G01*
X205276000Y-67297500D02*
X204936000Y-67297500D01*
G75*
G02*
X204796000Y-67157500I0J140000D01*
G01*
X204796000Y-66877500D01*
G75*
G02*
X204936000Y-66737500I140000J0D01*
G01*
X205276000Y-66737500D01*
G75*
G02*
X205416000Y-66877500I0J-140000D01*
G01*
X205416000Y-67157500D01*
G75*
G02*
X205276000Y-67297500I-140000J0D01*
G01*
G37*
G36*
G01*
X181540000Y-67445000D02*
X181200000Y-67445000D01*
G75*
G02*
X181060000Y-67305000I0J140000D01*
G01*
X181060000Y-67025000D01*
G75*
G02*
X181200000Y-66885000I140000J0D01*
G01*
X181540000Y-66885000D01*
G75*
G02*
X181680000Y-67025000I0J-140000D01*
G01*
X181680000Y-67305000D01*
G75*
G02*
X181540000Y-67445000I-140000J0D01*
G01*
G37*
G36*
G01*
X181540000Y-68405000D02*
X181200000Y-68405000D01*
G75*
G02*
X181060000Y-68265000I0J140000D01*
G01*
X181060000Y-67985000D01*
G75*
G02*
X181200000Y-67845000I140000J0D01*
G01*
X181540000Y-67845000D01*
G75*
G02*
X181680000Y-67985000I0J-140000D01*
G01*
X181680000Y-68265000D01*
G75*
G02*
X181540000Y-68405000I-140000J0D01*
G01*
G37*
G36*
G01*
X190420500Y-132717000D02*
X190760500Y-132717000D01*
G75*
G02*
X190900500Y-132857000I0J-140000D01*
G01*
X190900500Y-133137000D01*
G75*
G02*
X190760500Y-133277000I-140000J0D01*
G01*
X190420500Y-133277000D01*
G75*
G02*
X190280500Y-133137000I0J140000D01*
G01*
X190280500Y-132857000D01*
G75*
G02*
X190420500Y-132717000I140000J0D01*
G01*
G37*
G36*
G01*
X190420500Y-133677000D02*
X190760500Y-133677000D01*
G75*
G02*
X190900500Y-133817000I0J-140000D01*
G01*
X190900500Y-134097000D01*
G75*
G02*
X190760500Y-134237000I-140000J0D01*
G01*
X190420500Y-134237000D01*
G75*
G02*
X190280500Y-134097000I0J140000D01*
G01*
X190280500Y-133817000D01*
G75*
G02*
X190420500Y-133677000I140000J0D01*
G01*
G37*
G36*
G01*
X188600000Y-133677000D02*
X188940000Y-133677000D01*
G75*
G02*
X189080000Y-133817000I0J-140000D01*
G01*
X189080000Y-134097000D01*
G75*
G02*
X188940000Y-134237000I-140000J0D01*
G01*
X188600000Y-134237000D01*
G75*
G02*
X188460000Y-134097000I0J140000D01*
G01*
X188460000Y-133817000D01*
G75*
G02*
X188600000Y-133677000I140000J0D01*
G01*
G37*
G36*
G01*
X188600000Y-132717000D02*
X188940000Y-132717000D01*
G75*
G02*
X189080000Y-132857000I0J-140000D01*
G01*
X189080000Y-133137000D01*
G75*
G02*
X188940000Y-133277000I-140000J0D01*
G01*
X188600000Y-133277000D01*
G75*
G02*
X188460000Y-133137000I0J140000D01*
G01*
X188460000Y-132857000D01*
G75*
G02*
X188600000Y-132717000I140000J0D01*
G01*
G37*
G36*
G01*
X199585000Y-138185000D02*
X199955000Y-138185000D01*
G75*
G02*
X200090000Y-138320000I0J-135000D01*
G01*
X200090000Y-138590000D01*
G75*
G02*
X199955000Y-138725000I-135000J0D01*
G01*
X199585000Y-138725000D01*
G75*
G02*
X199450000Y-138590000I0J135000D01*
G01*
X199450000Y-138320000D01*
G75*
G02*
X199585000Y-138185000I135000J0D01*
G01*
G37*
G36*
G01*
X199585000Y-137165000D02*
X199955000Y-137165000D01*
G75*
G02*
X200090000Y-137300000I0J-135000D01*
G01*
X200090000Y-137570000D01*
G75*
G02*
X199955000Y-137705000I-135000J0D01*
G01*
X199585000Y-137705000D01*
G75*
G02*
X199450000Y-137570000I0J135000D01*
G01*
X199450000Y-137300000D01*
G75*
G02*
X199585000Y-137165000I135000J0D01*
G01*
G37*
G36*
G01*
X199955000Y-135336500D02*
X199585000Y-135336500D01*
G75*
G02*
X199450000Y-135201500I0J135000D01*
G01*
X199450000Y-134931500D01*
G75*
G02*
X199585000Y-134796500I135000J0D01*
G01*
X199955000Y-134796500D01*
G75*
G02*
X200090000Y-134931500I0J-135000D01*
G01*
X200090000Y-135201500D01*
G75*
G02*
X199955000Y-135336500I-135000J0D01*
G01*
G37*
G36*
G01*
X199955000Y-134316500D02*
X199585000Y-134316500D01*
G75*
G02*
X199450000Y-134181500I0J135000D01*
G01*
X199450000Y-133911500D01*
G75*
G02*
X199585000Y-133776500I135000J0D01*
G01*
X199955000Y-133776500D01*
G75*
G02*
X200090000Y-133911500I0J-135000D01*
G01*
X200090000Y-134181500D01*
G75*
G02*
X199955000Y-134316500I-135000J0D01*
G01*
G37*
G36*
G01*
X216855000Y-115201500D02*
X216485000Y-115201500D01*
G75*
G02*
X216350000Y-115066500I0J135000D01*
G01*
X216350000Y-114796500D01*
G75*
G02*
X216485000Y-114661500I135000J0D01*
G01*
X216855000Y-114661500D01*
G75*
G02*
X216990000Y-114796500I0J-135000D01*
G01*
X216990000Y-115066500D01*
G75*
G02*
X216855000Y-115201500I-135000J0D01*
G01*
G37*
G36*
G01*
X216855000Y-116221500D02*
X216485000Y-116221500D01*
G75*
G02*
X216350000Y-116086500I0J135000D01*
G01*
X216350000Y-115816500D01*
G75*
G02*
X216485000Y-115681500I135000J0D01*
G01*
X216855000Y-115681500D01*
G75*
G02*
X216990000Y-115816500I0J-135000D01*
G01*
X216990000Y-116086500D01*
G75*
G02*
X216855000Y-116221500I-135000J0D01*
G01*
G37*
G36*
G01*
X216930000Y-127160000D02*
X216930000Y-127530000D01*
G75*
G02*
X216795000Y-127665000I-135000J0D01*
G01*
X216525000Y-127665000D01*
G75*
G02*
X216390000Y-127530000I0J135000D01*
G01*
X216390000Y-127160000D01*
G75*
G02*
X216525000Y-127025000I135000J0D01*
G01*
X216795000Y-127025000D01*
G75*
G02*
X216930000Y-127160000I0J-135000D01*
G01*
G37*
G36*
G01*
X217950000Y-127160000D02*
X217950000Y-127530000D01*
G75*
G02*
X217815000Y-127665000I-135000J0D01*
G01*
X217545000Y-127665000D01*
G75*
G02*
X217410000Y-127530000I0J135000D01*
G01*
X217410000Y-127160000D01*
G75*
G02*
X217545000Y-127025000I135000J0D01*
G01*
X217815000Y-127025000D01*
G75*
G02*
X217950000Y-127160000I0J-135000D01*
G01*
G37*
G36*
G01*
X217950000Y-125360000D02*
X217950000Y-125730000D01*
G75*
G02*
X217815000Y-125865000I-135000J0D01*
G01*
X217545000Y-125865000D01*
G75*
G02*
X217410000Y-125730000I0J135000D01*
G01*
X217410000Y-125360000D01*
G75*
G02*
X217545000Y-125225000I135000J0D01*
G01*
X217815000Y-125225000D01*
G75*
G02*
X217950000Y-125360000I0J-135000D01*
G01*
G37*
G36*
G01*
X216930000Y-125360000D02*
X216930000Y-125730000D01*
G75*
G02*
X216795000Y-125865000I-135000J0D01*
G01*
X216525000Y-125865000D01*
G75*
G02*
X216390000Y-125730000I0J135000D01*
G01*
X216390000Y-125360000D01*
G75*
G02*
X216525000Y-125225000I135000J0D01*
G01*
X216795000Y-125225000D01*
G75*
G02*
X216930000Y-125360000I0J-135000D01*
G01*
G37*
G36*
G01*
X175318000Y-132352000D02*
X174948000Y-132352000D01*
G75*
G02*
X174813000Y-132217000I0J135000D01*
G01*
X174813000Y-131947000D01*
G75*
G02*
X174948000Y-131812000I135000J0D01*
G01*
X175318000Y-131812000D01*
G75*
G02*
X175453000Y-131947000I0J-135000D01*
G01*
X175453000Y-132217000D01*
G75*
G02*
X175318000Y-132352000I-135000J0D01*
G01*
G37*
G36*
G01*
X175318000Y-131332000D02*
X174948000Y-131332000D01*
G75*
G02*
X174813000Y-131197000I0J135000D01*
G01*
X174813000Y-130927000D01*
G75*
G02*
X174948000Y-130792000I135000J0D01*
G01*
X175318000Y-130792000D01*
G75*
G02*
X175453000Y-130927000I0J-135000D01*
G01*
X175453000Y-131197000D01*
G75*
G02*
X175318000Y-131332000I-135000J0D01*
G01*
G37*
G36*
G01*
X192220000Y-133717000D02*
X192590000Y-133717000D01*
G75*
G02*
X192725000Y-133852000I0J-135000D01*
G01*
X192725000Y-134122000D01*
G75*
G02*
X192590000Y-134257000I-135000J0D01*
G01*
X192220000Y-134257000D01*
G75*
G02*
X192085000Y-134122000I0J135000D01*
G01*
X192085000Y-133852000D01*
G75*
G02*
X192220000Y-133717000I135000J0D01*
G01*
G37*
G36*
G01*
X192220000Y-132697000D02*
X192590000Y-132697000D01*
G75*
G02*
X192725000Y-132832000I0J-135000D01*
G01*
X192725000Y-133102000D01*
G75*
G02*
X192590000Y-133237000I-135000J0D01*
G01*
X192220000Y-133237000D01*
G75*
G02*
X192085000Y-133102000I0J135000D01*
G01*
X192085000Y-132832000D01*
G75*
G02*
X192220000Y-132697000I135000J0D01*
G01*
G37*
G36*
G01*
X197655000Y-121975000D02*
X197285000Y-121975000D01*
G75*
G02*
X197150000Y-121840000I0J135000D01*
G01*
X197150000Y-121570000D01*
G75*
G02*
X197285000Y-121435000I135000J0D01*
G01*
X197655000Y-121435000D01*
G75*
G02*
X197790000Y-121570000I0J-135000D01*
G01*
X197790000Y-121840000D01*
G75*
G02*
X197655000Y-121975000I-135000J0D01*
G01*
G37*
G36*
G01*
X197655000Y-120955000D02*
X197285000Y-120955000D01*
G75*
G02*
X197150000Y-120820000I0J135000D01*
G01*
X197150000Y-120550000D01*
G75*
G02*
X197285000Y-120415000I135000J0D01*
G01*
X197655000Y-120415000D01*
G75*
G02*
X197790000Y-120550000I0J-135000D01*
G01*
X197790000Y-120820000D01*
G75*
G02*
X197655000Y-120955000I-135000J0D01*
G01*
G37*
D23*
X175970000Y-57965000D03*
D28*
X175970000Y-50345000D03*
X199970000Y-50345000D03*
D23*
X199970000Y-57965000D03*
G36*
G01*
X56985000Y-114195000D02*
X57355000Y-114195000D01*
G75*
G02*
X57490000Y-114330000I0J-135000D01*
G01*
X57490000Y-114600000D01*
G75*
G02*
X57355000Y-114735000I-135000J0D01*
G01*
X56985000Y-114735000D01*
G75*
G02*
X56850000Y-114600000I0J135000D01*
G01*
X56850000Y-114330000D01*
G75*
G02*
X56985000Y-114195000I135000J0D01*
G01*
G37*
G36*
G01*
X56985000Y-113175000D02*
X57355000Y-113175000D01*
G75*
G02*
X57490000Y-113310000I0J-135000D01*
G01*
X57490000Y-113580000D01*
G75*
G02*
X57355000Y-113715000I-135000J0D01*
G01*
X56985000Y-113715000D01*
G75*
G02*
X56850000Y-113580000I0J135000D01*
G01*
X56850000Y-113310000D01*
G75*
G02*
X56985000Y-113175000I135000J0D01*
G01*
G37*
G36*
G01*
X82385000Y-113175000D02*
X82755000Y-113175000D01*
G75*
G02*
X82890000Y-113310000I0J-135000D01*
G01*
X82890000Y-113580000D01*
G75*
G02*
X82755000Y-113715000I-135000J0D01*
G01*
X82385000Y-113715000D01*
G75*
G02*
X82250000Y-113580000I0J135000D01*
G01*
X82250000Y-113310000D01*
G75*
G02*
X82385000Y-113175000I135000J0D01*
G01*
G37*
G36*
G01*
X82385000Y-114195000D02*
X82755000Y-114195000D01*
G75*
G02*
X82890000Y-114330000I0J-135000D01*
G01*
X82890000Y-114600000D01*
G75*
G02*
X82755000Y-114735000I-135000J0D01*
G01*
X82385000Y-114735000D01*
G75*
G02*
X82250000Y-114600000I0J135000D01*
G01*
X82250000Y-114330000D01*
G75*
G02*
X82385000Y-114195000I135000J0D01*
G01*
G37*
G36*
G01*
X107785000Y-113175000D02*
X108155000Y-113175000D01*
G75*
G02*
X108290000Y-113310000I0J-135000D01*
G01*
X108290000Y-113580000D01*
G75*
G02*
X108155000Y-113715000I-135000J0D01*
G01*
X107785000Y-113715000D01*
G75*
G02*
X107650000Y-113580000I0J135000D01*
G01*
X107650000Y-113310000D01*
G75*
G02*
X107785000Y-113175000I135000J0D01*
G01*
G37*
G36*
G01*
X107785000Y-114195000D02*
X108155000Y-114195000D01*
G75*
G02*
X108290000Y-114330000I0J-135000D01*
G01*
X108290000Y-114600000D01*
G75*
G02*
X108155000Y-114735000I-135000J0D01*
G01*
X107785000Y-114735000D01*
G75*
G02*
X107650000Y-114600000I0J135000D01*
G01*
X107650000Y-114330000D01*
G75*
G02*
X107785000Y-114195000I135000J0D01*
G01*
G37*
G36*
G01*
X133185000Y-114195000D02*
X133555000Y-114195000D01*
G75*
G02*
X133690000Y-114330000I0J-135000D01*
G01*
X133690000Y-114600000D01*
G75*
G02*
X133555000Y-114735000I-135000J0D01*
G01*
X133185000Y-114735000D01*
G75*
G02*
X133050000Y-114600000I0J135000D01*
G01*
X133050000Y-114330000D01*
G75*
G02*
X133185000Y-114195000I135000J0D01*
G01*
G37*
G36*
G01*
X133185000Y-113175000D02*
X133555000Y-113175000D01*
G75*
G02*
X133690000Y-113310000I0J-135000D01*
G01*
X133690000Y-113580000D01*
G75*
G02*
X133555000Y-113715000I-135000J0D01*
G01*
X133185000Y-113715000D01*
G75*
G02*
X133050000Y-113580000I0J135000D01*
G01*
X133050000Y-113310000D01*
G75*
G02*
X133185000Y-113175000I135000J0D01*
G01*
G37*
G36*
G01*
X158485000Y-113175000D02*
X158855000Y-113175000D01*
G75*
G02*
X158990000Y-113310000I0J-135000D01*
G01*
X158990000Y-113580000D01*
G75*
G02*
X158855000Y-113715000I-135000J0D01*
G01*
X158485000Y-113715000D01*
G75*
G02*
X158350000Y-113580000I0J135000D01*
G01*
X158350000Y-113310000D01*
G75*
G02*
X158485000Y-113175000I135000J0D01*
G01*
G37*
G36*
G01*
X158485000Y-114195000D02*
X158855000Y-114195000D01*
G75*
G02*
X158990000Y-114330000I0J-135000D01*
G01*
X158990000Y-114600000D01*
G75*
G02*
X158855000Y-114735000I-135000J0D01*
G01*
X158485000Y-114735000D01*
G75*
G02*
X158350000Y-114600000I0J135000D01*
G01*
X158350000Y-114330000D01*
G75*
G02*
X158485000Y-114195000I135000J0D01*
G01*
G37*
G36*
G01*
X183885000Y-114195000D02*
X184255000Y-114195000D01*
G75*
G02*
X184390000Y-114330000I0J-135000D01*
G01*
X184390000Y-114600000D01*
G75*
G02*
X184255000Y-114735000I-135000J0D01*
G01*
X183885000Y-114735000D01*
G75*
G02*
X183750000Y-114600000I0J135000D01*
G01*
X183750000Y-114330000D01*
G75*
G02*
X183885000Y-114195000I135000J0D01*
G01*
G37*
G36*
G01*
X183885000Y-113175000D02*
X184255000Y-113175000D01*
G75*
G02*
X184390000Y-113310000I0J-135000D01*
G01*
X184390000Y-113580000D01*
G75*
G02*
X184255000Y-113715000I-135000J0D01*
G01*
X183885000Y-113715000D01*
G75*
G02*
X183750000Y-113580000I0J135000D01*
G01*
X183750000Y-113310000D01*
G75*
G02*
X183885000Y-113175000I135000J0D01*
G01*
G37*
G36*
G01*
X209285000Y-113175000D02*
X209655000Y-113175000D01*
G75*
G02*
X209790000Y-113310000I0J-135000D01*
G01*
X209790000Y-113580000D01*
G75*
G02*
X209655000Y-113715000I-135000J0D01*
G01*
X209285000Y-113715000D01*
G75*
G02*
X209150000Y-113580000I0J135000D01*
G01*
X209150000Y-113310000D01*
G75*
G02*
X209285000Y-113175000I135000J0D01*
G01*
G37*
G36*
G01*
X209285000Y-114195000D02*
X209655000Y-114195000D01*
G75*
G02*
X209790000Y-114330000I0J-135000D01*
G01*
X209790000Y-114600000D01*
G75*
G02*
X209655000Y-114735000I-135000J0D01*
G01*
X209285000Y-114735000D01*
G75*
G02*
X209150000Y-114600000I0J135000D01*
G01*
X209150000Y-114330000D01*
G75*
G02*
X209285000Y-114195000I135000J0D01*
G01*
G37*
G36*
G01*
X102485000Y-113175000D02*
X102855000Y-113175000D01*
G75*
G02*
X102990000Y-113310000I0J-135000D01*
G01*
X102990000Y-113580000D01*
G75*
G02*
X102855000Y-113715000I-135000J0D01*
G01*
X102485000Y-113715000D01*
G75*
G02*
X102350000Y-113580000I0J135000D01*
G01*
X102350000Y-113310000D01*
G75*
G02*
X102485000Y-113175000I135000J0D01*
G01*
G37*
G36*
G01*
X102485000Y-114195000D02*
X102855000Y-114195000D01*
G75*
G02*
X102990000Y-114330000I0J-135000D01*
G01*
X102990000Y-114600000D01*
G75*
G02*
X102855000Y-114735000I-135000J0D01*
G01*
X102485000Y-114735000D01*
G75*
G02*
X102350000Y-114600000I0J135000D01*
G01*
X102350000Y-114330000D01*
G75*
G02*
X102485000Y-114195000I135000J0D01*
G01*
G37*
G36*
G01*
X197663750Y-136720000D02*
X198176250Y-136720000D01*
G75*
G02*
X198395000Y-136938750I0J-218750D01*
G01*
X198395000Y-137376250D01*
G75*
G02*
X198176250Y-137595000I-218750J0D01*
G01*
X197663750Y-137595000D01*
G75*
G02*
X197445000Y-137376250I0J218750D01*
G01*
X197445000Y-136938750D01*
G75*
G02*
X197663750Y-136720000I218750J0D01*
G01*
G37*
G36*
G01*
X197663750Y-138295000D02*
X198176250Y-138295000D01*
G75*
G02*
X198395000Y-138513750I0J-218750D01*
G01*
X198395000Y-138951250D01*
G75*
G02*
X198176250Y-139170000I-218750J0D01*
G01*
X197663750Y-139170000D01*
G75*
G02*
X197445000Y-138951250I0J218750D01*
G01*
X197445000Y-138513750D01*
G75*
G02*
X197663750Y-138295000I218750J0D01*
G01*
G37*
G36*
G01*
X197673250Y-134906500D02*
X198185750Y-134906500D01*
G75*
G02*
X198404500Y-135125250I0J-218750D01*
G01*
X198404500Y-135562750D01*
G75*
G02*
X198185750Y-135781500I-218750J0D01*
G01*
X197673250Y-135781500D01*
G75*
G02*
X197454500Y-135562750I0J218750D01*
G01*
X197454500Y-135125250D01*
G75*
G02*
X197673250Y-134906500I218750J0D01*
G01*
G37*
G36*
G01*
X197673250Y-133331500D02*
X198185750Y-133331500D01*
G75*
G02*
X198404500Y-133550250I0J-218750D01*
G01*
X198404500Y-133987750D01*
G75*
G02*
X198185750Y-134206500I-218750J0D01*
G01*
X197673250Y-134206500D01*
G75*
G02*
X197454500Y-133987750I0J218750D01*
G01*
X197454500Y-133550250D01*
G75*
G02*
X197673250Y-133331500I218750J0D01*
G01*
G37*
G36*
G01*
X218213750Y-114220000D02*
X218726250Y-114220000D01*
G75*
G02*
X218945000Y-114438750I0J-218750D01*
G01*
X218945000Y-114876250D01*
G75*
G02*
X218726250Y-115095000I-218750J0D01*
G01*
X218213750Y-115095000D01*
G75*
G02*
X217995000Y-114876250I0J218750D01*
G01*
X217995000Y-114438750D01*
G75*
G02*
X218213750Y-114220000I218750J0D01*
G01*
G37*
G36*
G01*
X218213750Y-115795000D02*
X218726250Y-115795000D01*
G75*
G02*
X218945000Y-116013750I0J-218750D01*
G01*
X218945000Y-116451250D01*
G75*
G02*
X218726250Y-116670000I-218750J0D01*
G01*
X218213750Y-116670000D01*
G75*
G02*
X217995000Y-116451250I0J218750D01*
G01*
X217995000Y-116013750D01*
G75*
G02*
X218213750Y-115795000I218750J0D01*
G01*
G37*
D29*
X76327000Y-54737000D03*
G36*
G01*
X83827000Y-53737000D02*
X83827000Y-55737000D01*
G75*
G02*
X83077000Y-56487000I-750000J0D01*
G01*
X81577000Y-56487000D01*
G75*
G02*
X80827000Y-55737000I0J750000D01*
G01*
X80827000Y-53737000D01*
G75*
G02*
X81577000Y-52987000I750000J0D01*
G01*
X83077000Y-52987000D01*
G75*
G02*
X83827000Y-53737000I0J-750000D01*
G01*
G37*
G36*
G01*
X81077000Y-58562000D02*
X81077000Y-60312000D01*
G75*
G02*
X80202000Y-61187000I-875000J0D01*
G01*
X78452000Y-61187000D01*
G75*
G02*
X77577000Y-60312000I0J875000D01*
G01*
X77577000Y-58562000D01*
G75*
G02*
X78452000Y-57687000I875000J0D01*
G01*
X80202000Y-57687000D01*
G75*
G02*
X81077000Y-58562000I0J-875000D01*
G01*
G37*
D30*
X224770000Y-127845000D03*
X223170000Y-127845000D03*
X221570000Y-127845000D03*
X223970000Y-125245000D03*
X222370000Y-125245000D03*
D31*
X219520000Y-126545000D03*
X226820000Y-126345000D03*
M02*
