%FSLAX45Y45*%
G04 Gerber Fmt 4.5, Leading zero omitted, Abs format (unit mm)*
G04 Created by KiCad (PCBNEW (5.1.10)-1) date 2021-08-19 15:28:22*
%MOMM*%
%LPD*%
G01*
G04 APERTURE LIST*
%TA.AperFunction,Profile*%
%ADD10C,0.050000*%
%TD*%
%ADD11C,0.200000*%
%ADD12C,0.300000*%
G04 APERTURE END LIST*
D10*
X22733000Y-4254500D02*
X4191000Y-4254500D01*
X22733000Y-4254500D02*
G75*
G02*
X22987000Y-4508500I0J-254000D01*
G01*
X22987000Y-14160500D02*
X22987000Y-4508500D01*
X4191000Y-14414500D02*
X22733000Y-14414500D01*
X3937000Y-4508500D02*
X3937000Y-14160500D01*
X22987000Y-14160500D02*
G75*
G02*
X22733000Y-14414500I-254000J0D01*
G01*
X4191000Y-14414500D02*
G75*
G02*
X3937000Y-14160500I0J254000D01*
G01*
X3937000Y-4508500D02*
G75*
G02*
X4191000Y-4254500I254000J0D01*
G01*
D11*
X4298000Y-12248200D02*
X4338000Y-12288200D01*
X4338000Y-12248200D02*
X4298000Y-12288200D01*
X7377750Y-11106786D02*
X7417750Y-11146786D01*
X7417750Y-11106786D02*
X7377750Y-11146786D01*
X7377750Y-11249646D02*
X7417750Y-11289646D01*
X7417750Y-11249646D02*
X7377750Y-11289646D01*
X8031800Y-7790500D02*
X8071800Y-7830500D01*
X8071800Y-7790500D02*
X8031800Y-7830500D01*
X8374700Y-4609150D02*
X8414700Y-4649150D01*
X8414700Y-4609150D02*
X8374700Y-4649150D01*
X8831900Y-13708700D02*
X8871900Y-13748700D01*
X8871900Y-13708700D02*
X8831900Y-13748700D01*
X10400350Y-11021064D02*
X10440350Y-11061064D01*
X10440350Y-11021064D02*
X10400350Y-11061064D01*
X10400350Y-11249646D02*
X10440350Y-11289646D01*
X10440350Y-11249646D02*
X10400350Y-11289646D01*
X10584500Y-7790500D02*
X10624500Y-7830500D01*
X10624500Y-7790500D02*
X10584500Y-7830500D01*
X11664000Y-10978203D02*
X11704000Y-11018203D01*
X11704000Y-10978203D02*
X11664000Y-11018203D01*
X11664000Y-11249646D02*
X11704000Y-11289646D01*
X11704000Y-11249646D02*
X11664000Y-11289646D01*
X11867200Y-11689400D02*
X11907200Y-11729400D01*
X11907200Y-11689400D02*
X11867200Y-11729400D01*
X12114850Y-12597450D02*
X12154850Y-12637450D01*
X12154850Y-12597450D02*
X12114850Y-12637450D01*
X12394250Y-12876850D02*
X12434250Y-12916850D01*
X12434250Y-12876850D02*
X12394250Y-12916850D01*
X12394252Y-8615998D02*
X12434252Y-8655998D01*
X12434252Y-8615998D02*
X12394252Y-8655998D01*
X12555884Y-8454366D02*
X12595884Y-8494366D01*
X12595884Y-8454366D02*
X12555884Y-8494366D01*
X12794300Y-10978203D02*
X12834300Y-11018203D01*
X12834300Y-10978203D02*
X12794300Y-11018203D01*
X12794300Y-11249646D02*
X12834300Y-11289646D01*
X12834300Y-11249646D02*
X12794300Y-11289646D01*
X12794300Y-12495850D02*
X12834300Y-12535850D01*
X12834300Y-12495850D02*
X12794300Y-12535850D01*
X12794300Y-12743640D02*
X12834300Y-12783640D01*
X12834300Y-12743640D02*
X12794300Y-12783640D01*
X12914950Y-11249646D02*
X12954950Y-11289646D01*
X12954950Y-11249646D02*
X12914950Y-11289646D01*
X12916550Y-10978199D02*
X12956550Y-11018199D01*
X12956550Y-10978199D02*
X12916550Y-11018199D01*
X13016550Y-10978203D02*
X13056550Y-11018203D01*
X13056550Y-10978203D02*
X13016550Y-11018203D01*
X13016550Y-11249646D02*
X13056550Y-11289646D01*
X13056550Y-11249646D02*
X13016550Y-11289646D01*
X13962720Y-8082600D02*
X14002720Y-8122600D01*
X14002720Y-8082600D02*
X13962720Y-8122600D01*
X14034150Y-10935342D02*
X14074150Y-10975342D01*
X14074150Y-10935342D02*
X14034150Y-10975342D01*
X14040500Y-11249646D02*
X14080500Y-11289646D01*
X14080500Y-11249646D02*
X14040500Y-11289646D01*
X14070650Y-13156250D02*
X14110650Y-13196250D01*
X14110650Y-13156250D02*
X14070650Y-13196250D01*
X14127800Y-12445050D02*
X14167800Y-12485050D01*
X14167800Y-12445050D02*
X14127800Y-12485050D01*
X14134150Y-10935342D02*
X14174150Y-10975342D01*
X14174150Y-10935342D02*
X14134150Y-10975342D01*
X14140500Y-11249646D02*
X14180500Y-11289646D01*
X14180500Y-11249646D02*
X14140500Y-11289646D01*
X14205580Y-8082600D02*
X14245580Y-8122600D01*
X14245580Y-8082600D02*
X14205580Y-8122600D01*
X14292900Y-13119742D02*
X14332900Y-13159742D01*
X14332900Y-13119742D02*
X14292900Y-13159742D01*
X14350050Y-12445050D02*
X14390050Y-12485050D01*
X14390050Y-12445050D02*
X14350050Y-12485050D01*
X14521500Y-11727500D02*
X14561500Y-11767500D01*
X14561500Y-11727500D02*
X14521500Y-11767500D01*
X14851700Y-12445050D02*
X14891700Y-12485050D01*
X14891700Y-12445050D02*
X14851700Y-12485050D01*
X15296200Y-12445050D02*
X15336200Y-12485050D01*
X15336200Y-12445050D02*
X15296200Y-12485050D01*
X15480350Y-12667300D02*
X15520350Y-12707300D01*
X15520350Y-12667300D02*
X15480350Y-12707300D01*
X15664500Y-12508550D02*
X15704500Y-12548550D01*
X15704500Y-12508550D02*
X15664500Y-12548550D01*
X16858300Y-7422200D02*
X16898300Y-7462200D01*
X16898300Y-7422200D02*
X16858300Y-7462200D01*
X17328200Y-7409500D02*
X17368200Y-7449500D01*
X17368200Y-7409500D02*
X17328200Y-7449500D01*
X18198150Y-7790500D02*
X18238150Y-7830500D01*
X18238150Y-7790500D02*
X18198150Y-7830500D01*
X18268000Y-13670600D02*
X18308000Y-13710600D01*
X18308000Y-13670600D02*
X18268000Y-13710600D01*
X18699800Y-13657900D02*
X18739800Y-13697900D01*
X18739800Y-13657900D02*
X18699800Y-13697900D01*
X19017300Y-13213400D02*
X19057300Y-13253400D01*
X19057300Y-13213400D02*
X19017300Y-13253400D01*
X19620550Y-13353100D02*
X19660550Y-13393100D01*
X19660550Y-13353100D02*
X19620550Y-13393100D01*
X19633250Y-13873800D02*
X19673250Y-13913800D01*
X19673250Y-13873800D02*
X19633250Y-13913800D01*
X20077750Y-13937300D02*
X20117750Y-13977300D01*
X20117750Y-13937300D02*
X20077750Y-13977300D01*
X20173000Y-13092750D02*
X20213000Y-13132750D01*
X20213000Y-13092750D02*
X20173000Y-13132750D01*
X20174300Y-13246450D02*
X20214300Y-13286450D01*
X20214300Y-13246450D02*
X20174300Y-13286450D01*
X20312700Y-12476800D02*
X20352700Y-12516800D01*
X20352700Y-12476800D02*
X20312700Y-12516800D01*
X20401600Y-14273850D02*
X20441600Y-14313850D01*
X20441600Y-14273850D02*
X20401600Y-14313850D01*
X20407950Y-12172000D02*
X20447950Y-12212000D01*
X20447950Y-12172000D02*
X20407950Y-12212000D01*
X20560350Y-12172000D02*
X20600350Y-12212000D01*
X20600350Y-12172000D02*
X20560350Y-12212000D01*
X20579400Y-13880150D02*
X20619400Y-13920150D01*
X20619400Y-13880150D02*
X20579400Y-13920150D01*
X20661950Y-13937300D02*
X20701950Y-13977300D01*
X20701950Y-13937300D02*
X20661950Y-13977300D01*
X20728250Y-13877350D02*
X20768250Y-13917350D01*
X20768250Y-13877350D02*
X20728250Y-13917350D01*
X20941350Y-13511850D02*
X20981350Y-13551850D01*
X20981350Y-13511850D02*
X20941350Y-13551850D01*
X21074700Y-12172000D02*
X21114700Y-12212000D01*
X21114700Y-12172000D02*
X21074700Y-12212000D01*
X21100100Y-11886250D02*
X21140100Y-11926250D01*
X21140100Y-11886250D02*
X21100100Y-11926250D01*
X21112800Y-13505500D02*
X21152800Y-13545500D01*
X21152800Y-13505500D02*
X21112800Y-13545500D01*
X21227100Y-12172000D02*
X21267100Y-12212000D01*
X21267100Y-12172000D02*
X21227100Y-12212000D01*
X21252500Y-13365800D02*
X21292500Y-13405800D01*
X21292500Y-13365800D02*
X21252500Y-13405800D01*
X21391909Y-12983226D02*
X21431909Y-13023226D01*
X21431909Y-12983226D02*
X21391909Y-13023226D01*
X21481100Y-12864150D02*
X21521100Y-12904150D01*
X21521100Y-12864150D02*
X21481100Y-12904150D01*
X21500150Y-12621274D02*
X21540150Y-12661274D01*
X21540150Y-12621274D02*
X21500150Y-12661274D01*
X21525550Y-12318050D02*
X21565550Y-12358050D01*
X21565550Y-12318050D02*
X21525550Y-12358050D01*
X21571251Y-12406996D02*
X21611251Y-12446996D01*
X21611251Y-12406996D02*
X21571251Y-12446996D01*
X21843050Y-12127550D02*
X21883050Y-12167550D01*
X21883050Y-12127550D02*
X21843050Y-12167550D01*
X21963700Y-12483150D02*
X22003700Y-12523150D01*
X22003700Y-12483150D02*
X21963700Y-12523150D01*
X22370100Y-12984800D02*
X22410100Y-13024800D01*
X22410100Y-12984800D02*
X22370100Y-13024800D01*
X22573300Y-6412550D02*
X22613300Y-6452550D01*
X22613300Y-6412550D02*
X22573300Y-6452550D01*
X22861350Y-12451600D02*
G75*
G03*
X22861350Y-12451600I-30000J0D01*
G01*
X22796350Y-12471600D02*
X22866350Y-12471600D01*
X22796350Y-12431600D02*
X22866350Y-12431600D01*
X22866350Y-12471600D02*
G75*
G03*
X22866350Y-12431600I0J20000D01*
G01*
X22796350Y-12431600D02*
G75*
G03*
X22796350Y-12471600I0J-20000D01*
G01*
X22861350Y-13151600D02*
G75*
G03*
X22861350Y-13151600I-30000J0D01*
G01*
X22866350Y-13131600D02*
X22796350Y-13131600D01*
X22866350Y-13171600D02*
X22796350Y-13171600D01*
X22796350Y-13131600D02*
G75*
G03*
X22796350Y-13171600I0J-20000D01*
G01*
X22866350Y-13171600D02*
G75*
G03*
X22866350Y-13131600I0J20000D01*
G01*
X10363200Y-12177400D02*
X10363200Y-12257400D01*
X10323200Y-12217400D02*
X10403200Y-12217400D01*
X10363200Y-12939400D02*
X10363200Y-13019400D01*
X10323200Y-12979400D02*
X10403200Y-12979400D01*
X10617200Y-12177400D02*
X10617200Y-12257400D01*
X10577200Y-12217400D02*
X10657200Y-12217400D01*
X10617200Y-12939400D02*
X10617200Y-13019400D01*
X10577200Y-12979400D02*
X10657200Y-12979400D01*
X10871200Y-12177400D02*
X10871200Y-12257400D01*
X10831200Y-12217400D02*
X10911200Y-12217400D01*
X10871200Y-12939400D02*
X10871200Y-13019400D01*
X10831200Y-12979400D02*
X10911200Y-12979400D01*
X11125200Y-12177400D02*
X11125200Y-12257400D01*
X11085200Y-12217400D02*
X11165200Y-12217400D01*
X11125200Y-12939400D02*
X11125200Y-13019400D01*
X11085200Y-12979400D02*
X11165200Y-12979400D01*
X11379200Y-12177400D02*
X11379200Y-12257400D01*
X11339200Y-12217400D02*
X11419200Y-12217400D01*
X11379200Y-12939400D02*
X11379200Y-13019400D01*
X11339200Y-12979400D02*
X11419200Y-12979400D01*
X11633200Y-12177400D02*
X11633200Y-12257400D01*
X11593200Y-12217400D02*
X11673200Y-12217400D01*
X11633200Y-12939400D02*
X11633200Y-13019400D01*
X11593200Y-12979400D02*
X11673200Y-12979400D01*
X11887200Y-12177400D02*
X11887200Y-12257400D01*
X11847200Y-12217400D02*
X11927200Y-12217400D01*
X11887200Y-12939400D02*
X11887200Y-13019400D01*
X11847200Y-12979400D02*
X11927200Y-12979400D01*
X12141200Y-12177400D02*
X12141200Y-12257400D01*
X12101200Y-12217400D02*
X12181200Y-12217400D01*
X12141200Y-12939400D02*
X12141200Y-13019400D01*
X12101200Y-12979400D02*
X12181200Y-12979400D01*
X13017500Y-12177400D02*
X13017500Y-12257400D01*
X12977500Y-12217400D02*
X13057500Y-12217400D01*
X13017500Y-12939400D02*
X13017500Y-13019400D01*
X12977500Y-12979400D02*
X13057500Y-12979400D01*
X13271500Y-12177400D02*
X13271500Y-12257400D01*
X13231500Y-12217400D02*
X13311500Y-12217400D01*
X13271500Y-12939400D02*
X13271500Y-13019400D01*
X13231500Y-12979400D02*
X13311500Y-12979400D01*
X13525500Y-12177400D02*
X13525500Y-12257400D01*
X13485500Y-12217400D02*
X13565500Y-12217400D01*
X13525500Y-12939400D02*
X13525500Y-13019400D01*
X13485500Y-12979400D02*
X13565500Y-12979400D01*
X13779500Y-12177400D02*
X13779500Y-12257400D01*
X13739500Y-12217400D02*
X13819500Y-12217400D01*
X13779500Y-12939400D02*
X13779500Y-13019400D01*
X13739500Y-12979400D02*
X13819500Y-12979400D01*
X14033500Y-12177400D02*
X14033500Y-12257400D01*
X13993500Y-12217400D02*
X14073500Y-12217400D01*
X14033500Y-12939400D02*
X14033500Y-13019400D01*
X13993500Y-12979400D02*
X14073500Y-12979400D01*
X14287500Y-12177400D02*
X14287500Y-12257400D01*
X14247500Y-12217400D02*
X14327500Y-12217400D01*
X14287500Y-12939400D02*
X14287500Y-13019400D01*
X14247500Y-12979400D02*
X14327500Y-12979400D01*
X14541500Y-12177400D02*
X14541500Y-12257400D01*
X14501500Y-12217400D02*
X14581500Y-12217400D01*
X14541500Y-12939400D02*
X14541500Y-13019400D01*
X14501500Y-12979400D02*
X14581500Y-12979400D01*
X14795500Y-12177400D02*
X14795500Y-12257400D01*
X14755500Y-12217400D02*
X14835500Y-12217400D01*
X14795500Y-12939400D02*
X14795500Y-13019400D01*
X14755500Y-12979400D02*
X14835500Y-12979400D01*
X22591402Y-12581652D02*
X22591402Y-12521548D01*
X22531298Y-12521548D01*
X22531298Y-12581652D01*
X22591402Y-12581652D01*
X22591402Y-13081652D02*
X22591402Y-13021548D01*
X22531298Y-13021548D01*
X22531298Y-13081652D01*
X22591402Y-13081652D01*
X5080000Y-6839500D02*
X5125000Y-6794500D01*
X5080000Y-6749500D01*
X5035000Y-6794500D01*
X5080000Y-6839500D01*
X5334000Y-6839500D02*
X5379000Y-6794500D01*
X5334000Y-6749500D01*
X5289000Y-6794500D01*
X5334000Y-6839500D01*
X6350000Y-6839500D02*
X6395000Y-6794500D01*
X6350000Y-6749500D01*
X6305000Y-6794500D01*
X6350000Y-6839500D01*
X6604000Y-6839500D02*
X6649000Y-6794500D01*
X6604000Y-6749500D01*
X6559000Y-6794500D01*
X6604000Y-6839500D01*
X10795000Y-6839500D02*
X10840000Y-6794500D01*
X10795000Y-6749500D01*
X10750000Y-6794500D01*
X10795000Y-6839500D01*
X11049000Y-6839500D02*
X11094000Y-6794500D01*
X11049000Y-6749500D01*
X11004000Y-6794500D01*
X11049000Y-6839500D01*
X12700000Y-6839500D02*
X12745000Y-6794500D01*
X12700000Y-6749500D01*
X12655000Y-6794500D01*
X12700000Y-6839500D01*
X12954000Y-6839500D02*
X12999000Y-6794500D01*
X12954000Y-6749500D01*
X12909000Y-6794500D01*
X12954000Y-6839500D01*
X13970000Y-6839500D02*
X14015000Y-6794500D01*
X13970000Y-6749500D01*
X13925000Y-6794500D01*
X13970000Y-6839500D01*
X14224000Y-6839500D02*
X14269000Y-6794500D01*
X14224000Y-6749500D01*
X14179000Y-6794500D01*
X14224000Y-6839500D01*
X18041150Y-13145300D02*
X18141150Y-13245300D01*
X18141150Y-13145300D02*
X18041150Y-13245300D01*
X18141150Y-13195300D02*
G75*
G03*
X18141150Y-13195300I-50000J0D01*
G01*
X18041150Y-13399300D02*
X18141150Y-13499300D01*
X18141150Y-13399300D02*
X18041150Y-13499300D01*
X18141150Y-13449300D02*
G75*
G03*
X18141150Y-13449300I-50000J0D01*
G01*
X18295150Y-13145300D02*
X18395150Y-13245300D01*
X18395150Y-13145300D02*
X18295150Y-13245300D01*
X18395150Y-13195300D02*
G75*
G03*
X18395150Y-13195300I-50000J0D01*
G01*
X18295150Y-13399300D02*
X18395150Y-13499300D01*
X18395150Y-13399300D02*
X18295150Y-13499300D01*
X18395150Y-13449300D02*
G75*
G03*
X18395150Y-13449300I-50000J0D01*
G01*
X18549150Y-13145300D02*
X18649150Y-13245300D01*
X18649150Y-13145300D02*
X18549150Y-13245300D01*
X18649150Y-13195300D02*
G75*
G03*
X18649150Y-13195300I-50000J0D01*
G01*
X18549150Y-13399300D02*
X18649150Y-13499300D01*
X18649150Y-13399300D02*
X18549150Y-13499300D01*
X18649150Y-13449300D02*
G75*
G03*
X18649150Y-13449300I-50000J0D01*
G01*
X19797000Y-6744500D02*
X19897000Y-6844500D01*
X19897000Y-6744500D02*
X19797000Y-6844500D01*
X19897000Y-6794500D02*
G75*
G03*
X19897000Y-6794500I-50000J0D01*
G01*
X19807000Y-6694500D02*
X19807000Y-6894500D01*
X19887000Y-6694500D02*
X19887000Y-6894500D01*
X19807000Y-6894500D02*
G75*
G03*
X19887000Y-6894500I40000J0D01*
G01*
X19887000Y-6694500D02*
G75*
G03*
X19807000Y-6694500I-40000J0D01*
G01*
X20097000Y-6274500D02*
X20197000Y-6374500D01*
X20197000Y-6274500D02*
X20097000Y-6374500D01*
X20197000Y-6324500D02*
G75*
G03*
X20197000Y-6324500I-50000J0D01*
G01*
X20047000Y-6364500D02*
X20247000Y-6364500D01*
X20047000Y-6284500D02*
X20247000Y-6284500D01*
X20247000Y-6364500D02*
G75*
G03*
X20247000Y-6284500I0J40000D01*
G01*
X20047000Y-6284500D02*
G75*
G03*
X20047000Y-6364500I0J-40000D01*
G01*
X20397000Y-6744500D02*
X20497000Y-6844500D01*
X20497000Y-6744500D02*
X20397000Y-6844500D01*
X20497000Y-6794500D02*
G75*
G03*
X20497000Y-6794500I-50000J0D01*
G01*
X20407000Y-6694500D02*
X20407000Y-6894500D01*
X20487000Y-6694500D02*
X20487000Y-6894500D01*
X20407000Y-6894500D02*
G75*
G03*
X20487000Y-6894500I40000J0D01*
G01*
X20487000Y-6694500D02*
G75*
G03*
X20407000Y-6694500I-40000J0D01*
G01*
X9304900Y-10867000D02*
X9414900Y-10977000D01*
X9414900Y-10867000D02*
X9304900Y-10977000D01*
X9359900Y-10867000D02*
X9359900Y-10977000D01*
X9304900Y-10922000D02*
X9414900Y-10922000D01*
X9304900Y-11317000D02*
X9414900Y-11427000D01*
X9414900Y-11317000D02*
X9304900Y-11427000D01*
X9359900Y-11317000D02*
X9359900Y-11427000D01*
X9304900Y-11372000D02*
X9414900Y-11372000D01*
X9954900Y-10867000D02*
X10064900Y-10977000D01*
X10064900Y-10867000D02*
X9954900Y-10977000D01*
X10009900Y-10867000D02*
X10009900Y-10977000D01*
X9954900Y-10922000D02*
X10064900Y-10922000D01*
X9954900Y-11317000D02*
X10064900Y-11427000D01*
X10064900Y-11317000D02*
X9954900Y-11427000D01*
X10009900Y-11317000D02*
X10009900Y-11427000D01*
X9954900Y-11372000D02*
X10064900Y-11372000D01*
X16567000Y-13102200D02*
X16677000Y-13212200D01*
X16677000Y-13102200D02*
X16567000Y-13212200D01*
X16622000Y-13102200D02*
X16622000Y-13212200D01*
X16567000Y-13157200D02*
X16677000Y-13157200D01*
X16567000Y-13552200D02*
X16677000Y-13662200D01*
X16677000Y-13552200D02*
X16567000Y-13662200D01*
X16622000Y-13552200D02*
X16622000Y-13662200D01*
X16567000Y-13607200D02*
X16677000Y-13607200D01*
X17217000Y-13102200D02*
X17327000Y-13212200D01*
X17327000Y-13102200D02*
X17217000Y-13212200D01*
X17272000Y-13102200D02*
X17272000Y-13212200D01*
X17217000Y-13157200D02*
X17327000Y-13157200D01*
X17217000Y-13552200D02*
X17327000Y-13662200D01*
X17327000Y-13552200D02*
X17217000Y-13662200D01*
X17272000Y-13552200D02*
X17272000Y-13662200D01*
X17217000Y-13607200D02*
X17327000Y-13607200D01*
X5655500Y-10735500D02*
X5774500Y-10854500D01*
X5774500Y-10735500D02*
X5655500Y-10854500D01*
X5757073Y-10837073D02*
X5757073Y-10752927D01*
X5672927Y-10752927D01*
X5672927Y-10837073D01*
X5757073Y-10837073D01*
X5909500Y-10735500D02*
X6028500Y-10854500D01*
X6028500Y-10735500D02*
X5909500Y-10854500D01*
X6011073Y-10837073D02*
X6011073Y-10752927D01*
X5926927Y-10752927D01*
X5926927Y-10837073D01*
X6011073Y-10837073D01*
X8195500Y-10735500D02*
X8314500Y-10854500D01*
X8314500Y-10735500D02*
X8195500Y-10854500D01*
X8297073Y-10837073D02*
X8297073Y-10752927D01*
X8212927Y-10752927D01*
X8212927Y-10837073D01*
X8297073Y-10837073D01*
X8449500Y-10735500D02*
X8568500Y-10854500D01*
X8568500Y-10735500D02*
X8449500Y-10854500D01*
X8551073Y-10837073D02*
X8551073Y-10752927D01*
X8466927Y-10752927D01*
X8466927Y-10837073D01*
X8551073Y-10837073D01*
X10735500Y-10735500D02*
X10854500Y-10854500D01*
X10854500Y-10735500D02*
X10735500Y-10854500D01*
X10837073Y-10837073D02*
X10837073Y-10752927D01*
X10752927Y-10752927D01*
X10752927Y-10837073D01*
X10837073Y-10837073D01*
X10989500Y-10735500D02*
X11108500Y-10854500D01*
X11108500Y-10735500D02*
X10989500Y-10854500D01*
X11091073Y-10837073D02*
X11091073Y-10752927D01*
X11006927Y-10752927D01*
X11006927Y-10837073D01*
X11091073Y-10837073D01*
X13275500Y-10735500D02*
X13394500Y-10854500D01*
X13394500Y-10735500D02*
X13275500Y-10854500D01*
X13377073Y-10837073D02*
X13377073Y-10752927D01*
X13292927Y-10752927D01*
X13292927Y-10837073D01*
X13377073Y-10837073D01*
X13529500Y-10735500D02*
X13648500Y-10854500D01*
X13648500Y-10735500D02*
X13529500Y-10854500D01*
X13631073Y-10837073D02*
X13631073Y-10752927D01*
X13546927Y-10752927D01*
X13546927Y-10837073D01*
X13631073Y-10837073D01*
X15815500Y-10735500D02*
X15934500Y-10854500D01*
X15934500Y-10735500D02*
X15815500Y-10854500D01*
X15917073Y-10837073D02*
X15917073Y-10752927D01*
X15832927Y-10752927D01*
X15832927Y-10837073D01*
X15917073Y-10837073D01*
X16069500Y-10735500D02*
X16188500Y-10854500D01*
X16188500Y-10735500D02*
X16069500Y-10854500D01*
X16171073Y-10837073D02*
X16171073Y-10752927D01*
X16086927Y-10752927D01*
X16086927Y-10837073D01*
X16171073Y-10837073D01*
X18355500Y-10735500D02*
X18474500Y-10854500D01*
X18474500Y-10735500D02*
X18355500Y-10854500D01*
X18457073Y-10837073D02*
X18457073Y-10752927D01*
X18372927Y-10752927D01*
X18372927Y-10837073D01*
X18457073Y-10837073D01*
X18609500Y-10735500D02*
X18728500Y-10854500D01*
X18728500Y-10735500D02*
X18609500Y-10854500D01*
X18711073Y-10837073D02*
X18711073Y-10752927D01*
X18626927Y-10752927D01*
X18626927Y-10837073D01*
X18711073Y-10837073D01*
X20895500Y-10735500D02*
X21014500Y-10854500D01*
X21014500Y-10735500D02*
X20895500Y-10854500D01*
X20997073Y-10837073D02*
X20997073Y-10752927D01*
X20912927Y-10752927D01*
X20912927Y-10837073D01*
X20997073Y-10837073D01*
X21149500Y-10735500D02*
X21268500Y-10854500D01*
X21268500Y-10735500D02*
X21149500Y-10854500D01*
X21251073Y-10837073D02*
X21251073Y-10752927D01*
X21166927Y-10752927D01*
X21166927Y-10837073D01*
X21251073Y-10837073D01*
D12*
X4220928Y-14882714D02*
X4220928Y-14582714D01*
X4292357Y-14582714D01*
X4335214Y-14597000D01*
X4363786Y-14625571D01*
X4378071Y-14654143D01*
X4392357Y-14711286D01*
X4392357Y-14754143D01*
X4378071Y-14811286D01*
X4363786Y-14839857D01*
X4335214Y-14868429D01*
X4292357Y-14882714D01*
X4220928Y-14882714D01*
X4520928Y-14882714D02*
X4520928Y-14682714D01*
X4520928Y-14739857D02*
X4535214Y-14711286D01*
X4549500Y-14697000D01*
X4578071Y-14682714D01*
X4606643Y-14682714D01*
X4706643Y-14882714D02*
X4706643Y-14682714D01*
X4706643Y-14582714D02*
X4692357Y-14597000D01*
X4706643Y-14611286D01*
X4720928Y-14597000D01*
X4706643Y-14582714D01*
X4706643Y-14611286D01*
X4892357Y-14882714D02*
X4863786Y-14868429D01*
X4849500Y-14839857D01*
X4849500Y-14582714D01*
X5049500Y-14882714D02*
X5020928Y-14868429D01*
X5006643Y-14839857D01*
X5006643Y-14582714D01*
X5392357Y-14882714D02*
X5392357Y-14582714D01*
X5492357Y-14797000D01*
X5592357Y-14582714D01*
X5592357Y-14882714D01*
X5863786Y-14882714D02*
X5863786Y-14725571D01*
X5849500Y-14697000D01*
X5820928Y-14682714D01*
X5763786Y-14682714D01*
X5735214Y-14697000D01*
X5863786Y-14868429D02*
X5835214Y-14882714D01*
X5763786Y-14882714D01*
X5735214Y-14868429D01*
X5720928Y-14839857D01*
X5720928Y-14811286D01*
X5735214Y-14782714D01*
X5763786Y-14768429D01*
X5835214Y-14768429D01*
X5863786Y-14754143D01*
X6006643Y-14682714D02*
X6006643Y-14982714D01*
X6006643Y-14697000D02*
X6035214Y-14682714D01*
X6092357Y-14682714D01*
X6120928Y-14697000D01*
X6135214Y-14711286D01*
X6149500Y-14739857D01*
X6149500Y-14825571D01*
X6135214Y-14854143D01*
X6120928Y-14868429D01*
X6092357Y-14882714D01*
X6035214Y-14882714D01*
X6006643Y-14868429D01*
X6278071Y-14854143D02*
X6292357Y-14868429D01*
X6278071Y-14882714D01*
X6263786Y-14868429D01*
X6278071Y-14854143D01*
X6278071Y-14882714D01*
X6278071Y-14697000D02*
X6292357Y-14711286D01*
X6278071Y-14725571D01*
X6263786Y-14711286D01*
X6278071Y-14697000D01*
X6278071Y-14725571D01*
X3894500Y-15357000D02*
X3934500Y-15397000D01*
X3934500Y-15357000D02*
X3894500Y-15397000D01*
X4278071Y-15212714D02*
X4306643Y-15212714D01*
X4335214Y-15227000D01*
X4349500Y-15241286D01*
X4363786Y-15269857D01*
X4378071Y-15327000D01*
X4378071Y-15398429D01*
X4363786Y-15455571D01*
X4349500Y-15484143D01*
X4335214Y-15498429D01*
X4306643Y-15512714D01*
X4278071Y-15512714D01*
X4249500Y-15498429D01*
X4235214Y-15484143D01*
X4220928Y-15455571D01*
X4206643Y-15398429D01*
X4206643Y-15327000D01*
X4220928Y-15269857D01*
X4235214Y-15241286D01*
X4249500Y-15227000D01*
X4278071Y-15212714D01*
X4506643Y-15484143D02*
X4520928Y-15498429D01*
X4506643Y-15512714D01*
X4492357Y-15498429D01*
X4506643Y-15484143D01*
X4506643Y-15512714D01*
X4778071Y-15312714D02*
X4778071Y-15512714D01*
X4706643Y-15198429D02*
X4635214Y-15412714D01*
X4820928Y-15412714D01*
X4992357Y-15212714D02*
X5020928Y-15212714D01*
X5049500Y-15227000D01*
X5063786Y-15241286D01*
X5078071Y-15269857D01*
X5092357Y-15327000D01*
X5092357Y-15398429D01*
X5078071Y-15455571D01*
X5063786Y-15484143D01*
X5049500Y-15498429D01*
X5020928Y-15512714D01*
X4992357Y-15512714D01*
X4963786Y-15498429D01*
X4949500Y-15484143D01*
X4935214Y-15455571D01*
X4920928Y-15398429D01*
X4920928Y-15327000D01*
X4935214Y-15269857D01*
X4949500Y-15241286D01*
X4963786Y-15227000D01*
X4992357Y-15212714D01*
X5278071Y-15212714D02*
X5306643Y-15212714D01*
X5335214Y-15227000D01*
X5349500Y-15241286D01*
X5363786Y-15269857D01*
X5378071Y-15327000D01*
X5378071Y-15398429D01*
X5363786Y-15455571D01*
X5349500Y-15484143D01*
X5335214Y-15498429D01*
X5306643Y-15512714D01*
X5278071Y-15512714D01*
X5249500Y-15498429D01*
X5235214Y-15484143D01*
X5220928Y-15455571D01*
X5206643Y-15398429D01*
X5206643Y-15327000D01*
X5220928Y-15269857D01*
X5235214Y-15241286D01*
X5249500Y-15227000D01*
X5278071Y-15212714D01*
X5506643Y-15512714D02*
X5506643Y-15312714D01*
X5506643Y-15341286D02*
X5520928Y-15327000D01*
X5549500Y-15312714D01*
X5592357Y-15312714D01*
X5620928Y-15327000D01*
X5635214Y-15355571D01*
X5635214Y-15512714D01*
X5635214Y-15355571D02*
X5649500Y-15327000D01*
X5678071Y-15312714D01*
X5720928Y-15312714D01*
X5749500Y-15327000D01*
X5763786Y-15355571D01*
X5763786Y-15512714D01*
X5906643Y-15512714D02*
X5906643Y-15312714D01*
X5906643Y-15341286D02*
X5920928Y-15327000D01*
X5949500Y-15312714D01*
X5992357Y-15312714D01*
X6020928Y-15327000D01*
X6035214Y-15355571D01*
X6035214Y-15512714D01*
X6035214Y-15355571D02*
X6049500Y-15327000D01*
X6078071Y-15312714D01*
X6120928Y-15312714D01*
X6149500Y-15327000D01*
X6163786Y-15355571D01*
X6163786Y-15512714D01*
X6749500Y-15198429D02*
X6492357Y-15584143D01*
X7135214Y-15212714D02*
X7163786Y-15212714D01*
X7192357Y-15227000D01*
X7206643Y-15241286D01*
X7220928Y-15269857D01*
X7235214Y-15327000D01*
X7235214Y-15398429D01*
X7220928Y-15455571D01*
X7206643Y-15484143D01*
X7192357Y-15498429D01*
X7163786Y-15512714D01*
X7135214Y-15512714D01*
X7106643Y-15498429D01*
X7092357Y-15484143D01*
X7078071Y-15455571D01*
X7063786Y-15398429D01*
X7063786Y-15327000D01*
X7078071Y-15269857D01*
X7092357Y-15241286D01*
X7106643Y-15227000D01*
X7135214Y-15212714D01*
X7363786Y-15484143D02*
X7378071Y-15498429D01*
X7363786Y-15512714D01*
X7349500Y-15498429D01*
X7363786Y-15484143D01*
X7363786Y-15512714D01*
X7563786Y-15212714D02*
X7592357Y-15212714D01*
X7620928Y-15227000D01*
X7635214Y-15241286D01*
X7649500Y-15269857D01*
X7663786Y-15327000D01*
X7663786Y-15398429D01*
X7649500Y-15455571D01*
X7635214Y-15484143D01*
X7620928Y-15498429D01*
X7592357Y-15512714D01*
X7563786Y-15512714D01*
X7535214Y-15498429D01*
X7520928Y-15484143D01*
X7506643Y-15455571D01*
X7492357Y-15398429D01*
X7492357Y-15327000D01*
X7506643Y-15269857D01*
X7520928Y-15241286D01*
X7535214Y-15227000D01*
X7563786Y-15212714D01*
X7949500Y-15512714D02*
X7778071Y-15512714D01*
X7863786Y-15512714D02*
X7863786Y-15212714D01*
X7835214Y-15255571D01*
X7806643Y-15284143D01*
X7778071Y-15298429D01*
X8220928Y-15212714D02*
X8078071Y-15212714D01*
X8063786Y-15355571D01*
X8078071Y-15341286D01*
X8106643Y-15327000D01*
X8178071Y-15327000D01*
X8206643Y-15341286D01*
X8220928Y-15355571D01*
X8235214Y-15384143D01*
X8235214Y-15455571D01*
X8220928Y-15484143D01*
X8206643Y-15498429D01*
X8178071Y-15512714D01*
X8106643Y-15512714D01*
X8078071Y-15498429D01*
X8063786Y-15484143D01*
X8335214Y-15212714D02*
X8535214Y-15212714D01*
X8406643Y-15512714D01*
X8635214Y-15212714D02*
X8635214Y-15269857D01*
X8749500Y-15212714D02*
X8749500Y-15269857D01*
X9192357Y-15627000D02*
X9178071Y-15612714D01*
X9149500Y-15569857D01*
X9135214Y-15541286D01*
X9120928Y-15498429D01*
X9106643Y-15427000D01*
X9106643Y-15369857D01*
X9120928Y-15298429D01*
X9135214Y-15255571D01*
X9149500Y-15227000D01*
X9178071Y-15184143D01*
X9192357Y-15169857D01*
X9278071Y-15212714D02*
X9478071Y-15212714D01*
X9349500Y-15512714D01*
X9578071Y-15241286D02*
X9592357Y-15227000D01*
X9620928Y-15212714D01*
X9692357Y-15212714D01*
X9720928Y-15227000D01*
X9735214Y-15241286D01*
X9749500Y-15269857D01*
X9749500Y-15298429D01*
X9735214Y-15341286D01*
X9563786Y-15512714D01*
X9749500Y-15512714D01*
X10106643Y-15512714D02*
X10106643Y-15212714D01*
X10235214Y-15512714D02*
X10235214Y-15355571D01*
X10220928Y-15327000D01*
X10192357Y-15312714D01*
X10149500Y-15312714D01*
X10120928Y-15327000D01*
X10106643Y-15341286D01*
X10420928Y-15512714D02*
X10392357Y-15498429D01*
X10378071Y-15484143D01*
X10363786Y-15455571D01*
X10363786Y-15369857D01*
X10378071Y-15341286D01*
X10392357Y-15327000D01*
X10420928Y-15312714D01*
X10463786Y-15312714D01*
X10492357Y-15327000D01*
X10506643Y-15341286D01*
X10520928Y-15369857D01*
X10520928Y-15455571D01*
X10506643Y-15484143D01*
X10492357Y-15498429D01*
X10463786Y-15512714D01*
X10420928Y-15512714D01*
X10692357Y-15512714D02*
X10663786Y-15498429D01*
X10649500Y-15469857D01*
X10649500Y-15212714D01*
X10920928Y-15498429D02*
X10892357Y-15512714D01*
X10835214Y-15512714D01*
X10806643Y-15498429D01*
X10792357Y-15469857D01*
X10792357Y-15355571D01*
X10806643Y-15327000D01*
X10835214Y-15312714D01*
X10892357Y-15312714D01*
X10920928Y-15327000D01*
X10935214Y-15355571D01*
X10935214Y-15384143D01*
X10792357Y-15412714D01*
X11049500Y-15498429D02*
X11078071Y-15512714D01*
X11135214Y-15512714D01*
X11163786Y-15498429D01*
X11178071Y-15469857D01*
X11178071Y-15455571D01*
X11163786Y-15427000D01*
X11135214Y-15412714D01*
X11092357Y-15412714D01*
X11063786Y-15398429D01*
X11049500Y-15369857D01*
X11049500Y-15355571D01*
X11063786Y-15327000D01*
X11092357Y-15312714D01*
X11135214Y-15312714D01*
X11163786Y-15327000D01*
X11278071Y-15627000D02*
X11292357Y-15612714D01*
X11320928Y-15569857D01*
X11335214Y-15541286D01*
X11349500Y-15498429D01*
X11363786Y-15427000D01*
X11363786Y-15369857D01*
X11349500Y-15298429D01*
X11335214Y-15255571D01*
X11320928Y-15227000D01*
X11292357Y-15184143D01*
X11278071Y-15169857D01*
X3934500Y-15773000D02*
G75*
G03*
X3934500Y-15773000I-30000J0D01*
G01*
X4278071Y-15608714D02*
X4306643Y-15608714D01*
X4335214Y-15623000D01*
X4349500Y-15637286D01*
X4363786Y-15665857D01*
X4378071Y-15723000D01*
X4378071Y-15794429D01*
X4363786Y-15851571D01*
X4349500Y-15880143D01*
X4335214Y-15894429D01*
X4306643Y-15908714D01*
X4278071Y-15908714D01*
X4249500Y-15894429D01*
X4235214Y-15880143D01*
X4220928Y-15851571D01*
X4206643Y-15794429D01*
X4206643Y-15723000D01*
X4220928Y-15665857D01*
X4235214Y-15637286D01*
X4249500Y-15623000D01*
X4278071Y-15608714D01*
X4506643Y-15880143D02*
X4520928Y-15894429D01*
X4506643Y-15908714D01*
X4492357Y-15894429D01*
X4506643Y-15880143D01*
X4506643Y-15908714D01*
X4778071Y-15608714D02*
X4720928Y-15608714D01*
X4692357Y-15623000D01*
X4678071Y-15637286D01*
X4649500Y-15680143D01*
X4635214Y-15737286D01*
X4635214Y-15851571D01*
X4649500Y-15880143D01*
X4663786Y-15894429D01*
X4692357Y-15908714D01*
X4749500Y-15908714D01*
X4778071Y-15894429D01*
X4792357Y-15880143D01*
X4806643Y-15851571D01*
X4806643Y-15780143D01*
X4792357Y-15751571D01*
X4778071Y-15737286D01*
X4749500Y-15723000D01*
X4692357Y-15723000D01*
X4663786Y-15737286D01*
X4649500Y-15751571D01*
X4635214Y-15780143D01*
X4992357Y-15608714D02*
X5020928Y-15608714D01*
X5049500Y-15623000D01*
X5063786Y-15637286D01*
X5078071Y-15665857D01*
X5092357Y-15723000D01*
X5092357Y-15794429D01*
X5078071Y-15851571D01*
X5063786Y-15880143D01*
X5049500Y-15894429D01*
X5020928Y-15908714D01*
X4992357Y-15908714D01*
X4963786Y-15894429D01*
X4949500Y-15880143D01*
X4935214Y-15851571D01*
X4920928Y-15794429D01*
X4920928Y-15723000D01*
X4935214Y-15665857D01*
X4949500Y-15637286D01*
X4963786Y-15623000D01*
X4992357Y-15608714D01*
X5278071Y-15608714D02*
X5306643Y-15608714D01*
X5335214Y-15623000D01*
X5349500Y-15637286D01*
X5363786Y-15665857D01*
X5378071Y-15723000D01*
X5378071Y-15794429D01*
X5363786Y-15851571D01*
X5349500Y-15880143D01*
X5335214Y-15894429D01*
X5306643Y-15908714D01*
X5278071Y-15908714D01*
X5249500Y-15894429D01*
X5235214Y-15880143D01*
X5220928Y-15851571D01*
X5206643Y-15794429D01*
X5206643Y-15723000D01*
X5220928Y-15665857D01*
X5235214Y-15637286D01*
X5249500Y-15623000D01*
X5278071Y-15608714D01*
X5506643Y-15908714D02*
X5506643Y-15708714D01*
X5506643Y-15737286D02*
X5520928Y-15723000D01*
X5549500Y-15708714D01*
X5592357Y-15708714D01*
X5620928Y-15723000D01*
X5635214Y-15751571D01*
X5635214Y-15908714D01*
X5635214Y-15751571D02*
X5649500Y-15723000D01*
X5678071Y-15708714D01*
X5720928Y-15708714D01*
X5749500Y-15723000D01*
X5763786Y-15751571D01*
X5763786Y-15908714D01*
X5906643Y-15908714D02*
X5906643Y-15708714D01*
X5906643Y-15737286D02*
X5920928Y-15723000D01*
X5949500Y-15708714D01*
X5992357Y-15708714D01*
X6020928Y-15723000D01*
X6035214Y-15751571D01*
X6035214Y-15908714D01*
X6035214Y-15751571D02*
X6049500Y-15723000D01*
X6078071Y-15708714D01*
X6120928Y-15708714D01*
X6149500Y-15723000D01*
X6163786Y-15751571D01*
X6163786Y-15908714D01*
X6749500Y-15594429D02*
X6492357Y-15980143D01*
X7135214Y-15608714D02*
X7163786Y-15608714D01*
X7192357Y-15623000D01*
X7206643Y-15637286D01*
X7220928Y-15665857D01*
X7235214Y-15723000D01*
X7235214Y-15794429D01*
X7220928Y-15851571D01*
X7206643Y-15880143D01*
X7192357Y-15894429D01*
X7163786Y-15908714D01*
X7135214Y-15908714D01*
X7106643Y-15894429D01*
X7092357Y-15880143D01*
X7078071Y-15851571D01*
X7063786Y-15794429D01*
X7063786Y-15723000D01*
X7078071Y-15665857D01*
X7092357Y-15637286D01*
X7106643Y-15623000D01*
X7135214Y-15608714D01*
X7363786Y-15880143D02*
X7378071Y-15894429D01*
X7363786Y-15908714D01*
X7349500Y-15894429D01*
X7363786Y-15880143D01*
X7363786Y-15908714D01*
X7563786Y-15608714D02*
X7592357Y-15608714D01*
X7620928Y-15623000D01*
X7635214Y-15637286D01*
X7649500Y-15665857D01*
X7663786Y-15723000D01*
X7663786Y-15794429D01*
X7649500Y-15851571D01*
X7635214Y-15880143D01*
X7620928Y-15894429D01*
X7592357Y-15908714D01*
X7563786Y-15908714D01*
X7535214Y-15894429D01*
X7520928Y-15880143D01*
X7506643Y-15851571D01*
X7492357Y-15794429D01*
X7492357Y-15723000D01*
X7506643Y-15665857D01*
X7520928Y-15637286D01*
X7535214Y-15623000D01*
X7563786Y-15608714D01*
X7778071Y-15637286D02*
X7792357Y-15623000D01*
X7820928Y-15608714D01*
X7892357Y-15608714D01*
X7920928Y-15623000D01*
X7935214Y-15637286D01*
X7949500Y-15665857D01*
X7949500Y-15694429D01*
X7935214Y-15737286D01*
X7763786Y-15908714D01*
X7949500Y-15908714D01*
X8049500Y-15608714D02*
X8235214Y-15608714D01*
X8135214Y-15723000D01*
X8178071Y-15723000D01*
X8206643Y-15737286D01*
X8220928Y-15751571D01*
X8235214Y-15780143D01*
X8235214Y-15851571D01*
X8220928Y-15880143D01*
X8206643Y-15894429D01*
X8178071Y-15908714D01*
X8092357Y-15908714D01*
X8063786Y-15894429D01*
X8049500Y-15880143D01*
X8492357Y-15608714D02*
X8435214Y-15608714D01*
X8406643Y-15623000D01*
X8392357Y-15637286D01*
X8363786Y-15680143D01*
X8349500Y-15737286D01*
X8349500Y-15851571D01*
X8363786Y-15880143D01*
X8378071Y-15894429D01*
X8406643Y-15908714D01*
X8463786Y-15908714D01*
X8492357Y-15894429D01*
X8506643Y-15880143D01*
X8520928Y-15851571D01*
X8520928Y-15780143D01*
X8506643Y-15751571D01*
X8492357Y-15737286D01*
X8463786Y-15723000D01*
X8406643Y-15723000D01*
X8378071Y-15737286D01*
X8363786Y-15751571D01*
X8349500Y-15780143D01*
X8635214Y-15608714D02*
X8635214Y-15665857D01*
X8749500Y-15608714D02*
X8749500Y-15665857D01*
X9192357Y-16023000D02*
X9178071Y-16008714D01*
X9149500Y-15965857D01*
X9135214Y-15937286D01*
X9120928Y-15894429D01*
X9106643Y-15823000D01*
X9106643Y-15765857D01*
X9120928Y-15694429D01*
X9135214Y-15651571D01*
X9149500Y-15623000D01*
X9178071Y-15580143D01*
X9192357Y-15565857D01*
X9363786Y-15608714D02*
X9392357Y-15608714D01*
X9420928Y-15623000D01*
X9435214Y-15637286D01*
X9449500Y-15665857D01*
X9463786Y-15723000D01*
X9463786Y-15794429D01*
X9449500Y-15851571D01*
X9435214Y-15880143D01*
X9420928Y-15894429D01*
X9392357Y-15908714D01*
X9363786Y-15908714D01*
X9335214Y-15894429D01*
X9320928Y-15880143D01*
X9306643Y-15851571D01*
X9292357Y-15794429D01*
X9292357Y-15723000D01*
X9306643Y-15665857D01*
X9320928Y-15637286D01*
X9335214Y-15623000D01*
X9363786Y-15608714D01*
X9820928Y-15908714D02*
X9820928Y-15608714D01*
X9949500Y-15908714D02*
X9949500Y-15751571D01*
X9935214Y-15723000D01*
X9906643Y-15708714D01*
X9863786Y-15708714D01*
X9835214Y-15723000D01*
X9820928Y-15737286D01*
X10135214Y-15908714D02*
X10106643Y-15894429D01*
X10092357Y-15880143D01*
X10078071Y-15851571D01*
X10078071Y-15765857D01*
X10092357Y-15737286D01*
X10106643Y-15723000D01*
X10135214Y-15708714D01*
X10178071Y-15708714D01*
X10206643Y-15723000D01*
X10220928Y-15737286D01*
X10235214Y-15765857D01*
X10235214Y-15851571D01*
X10220928Y-15880143D01*
X10206643Y-15894429D01*
X10178071Y-15908714D01*
X10135214Y-15908714D01*
X10406643Y-15908714D02*
X10378071Y-15894429D01*
X10363786Y-15865857D01*
X10363786Y-15608714D01*
X10635214Y-15894429D02*
X10606643Y-15908714D01*
X10549500Y-15908714D01*
X10520928Y-15894429D01*
X10506643Y-15865857D01*
X10506643Y-15751571D01*
X10520928Y-15723000D01*
X10549500Y-15708714D01*
X10606643Y-15708714D01*
X10635214Y-15723000D01*
X10649500Y-15751571D01*
X10649500Y-15780143D01*
X10506643Y-15808714D01*
X10763786Y-15894429D02*
X10792357Y-15908714D01*
X10849500Y-15908714D01*
X10878071Y-15894429D01*
X10892357Y-15865857D01*
X10892357Y-15851571D01*
X10878071Y-15823000D01*
X10849500Y-15808714D01*
X10806643Y-15808714D01*
X10778071Y-15794429D01*
X10763786Y-15765857D01*
X10763786Y-15751571D01*
X10778071Y-15723000D01*
X10806643Y-15708714D01*
X10849500Y-15708714D01*
X10878071Y-15723000D01*
X11249500Y-15794429D02*
X11478071Y-15794429D01*
X11363786Y-15908714D02*
X11363786Y-15680143D01*
X11835214Y-15637286D02*
X11849500Y-15623000D01*
X11878071Y-15608714D01*
X11949500Y-15608714D01*
X11978071Y-15623000D01*
X11992357Y-15637286D01*
X12006643Y-15665857D01*
X12006643Y-15694429D01*
X11992357Y-15737286D01*
X11820928Y-15908714D01*
X12006643Y-15908714D01*
X12349500Y-15894429D02*
X12378071Y-15908714D01*
X12435214Y-15908714D01*
X12463786Y-15894429D01*
X12478071Y-15865857D01*
X12478071Y-15851571D01*
X12463786Y-15823000D01*
X12435214Y-15808714D01*
X12392357Y-15808714D01*
X12363786Y-15794429D01*
X12349500Y-15765857D01*
X12349500Y-15751571D01*
X12363786Y-15723000D01*
X12392357Y-15708714D01*
X12435214Y-15708714D01*
X12463786Y-15723000D01*
X12649500Y-15908714D02*
X12620928Y-15894429D01*
X12606643Y-15865857D01*
X12606643Y-15608714D01*
X12806643Y-15908714D02*
X12778071Y-15894429D01*
X12763786Y-15880143D01*
X12749500Y-15851571D01*
X12749500Y-15765857D01*
X12763786Y-15737286D01*
X12778071Y-15723000D01*
X12806643Y-15708714D01*
X12849500Y-15708714D01*
X12878071Y-15723000D01*
X12892357Y-15737286D01*
X12906643Y-15765857D01*
X12906643Y-15851571D01*
X12892357Y-15880143D01*
X12878071Y-15894429D01*
X12849500Y-15908714D01*
X12806643Y-15908714D01*
X12992357Y-15708714D02*
X13106643Y-15708714D01*
X13035214Y-15608714D02*
X13035214Y-15865857D01*
X13049500Y-15894429D01*
X13078071Y-15908714D01*
X13106643Y-15908714D01*
X13192357Y-15894429D02*
X13220928Y-15908714D01*
X13278071Y-15908714D01*
X13306643Y-15894429D01*
X13320928Y-15865857D01*
X13320928Y-15851571D01*
X13306643Y-15823000D01*
X13278071Y-15808714D01*
X13235214Y-15808714D01*
X13206643Y-15794429D01*
X13192357Y-15765857D01*
X13192357Y-15751571D01*
X13206643Y-15723000D01*
X13235214Y-15708714D01*
X13278071Y-15708714D01*
X13306643Y-15723000D01*
X13420928Y-16023000D02*
X13435214Y-16008714D01*
X13463786Y-15965857D01*
X13478071Y-15937286D01*
X13492357Y-15894429D01*
X13506643Y-15823000D01*
X13506643Y-15765857D01*
X13492357Y-15694429D01*
X13478071Y-15651571D01*
X13463786Y-15623000D01*
X13435214Y-15580143D01*
X13420928Y-15565857D01*
X3894500Y-16129000D02*
X3894500Y-16209000D01*
X3854500Y-16169000D02*
X3934500Y-16169000D01*
X4278071Y-16004714D02*
X4306643Y-16004714D01*
X4335214Y-16019000D01*
X4349500Y-16033286D01*
X4363786Y-16061857D01*
X4378071Y-16119000D01*
X4378071Y-16190429D01*
X4363786Y-16247571D01*
X4349500Y-16276143D01*
X4335214Y-16290429D01*
X4306643Y-16304714D01*
X4278071Y-16304714D01*
X4249500Y-16290429D01*
X4235214Y-16276143D01*
X4220928Y-16247571D01*
X4206643Y-16190429D01*
X4206643Y-16119000D01*
X4220928Y-16061857D01*
X4235214Y-16033286D01*
X4249500Y-16019000D01*
X4278071Y-16004714D01*
X4506643Y-16276143D02*
X4520928Y-16290429D01*
X4506643Y-16304714D01*
X4492357Y-16290429D01*
X4506643Y-16276143D01*
X4506643Y-16304714D01*
X4692357Y-16133286D02*
X4663786Y-16119000D01*
X4649500Y-16104714D01*
X4635214Y-16076143D01*
X4635214Y-16061857D01*
X4649500Y-16033286D01*
X4663786Y-16019000D01*
X4692357Y-16004714D01*
X4749500Y-16004714D01*
X4778071Y-16019000D01*
X4792357Y-16033286D01*
X4806643Y-16061857D01*
X4806643Y-16076143D01*
X4792357Y-16104714D01*
X4778071Y-16119000D01*
X4749500Y-16133286D01*
X4692357Y-16133286D01*
X4663786Y-16147571D01*
X4649500Y-16161857D01*
X4635214Y-16190429D01*
X4635214Y-16247571D01*
X4649500Y-16276143D01*
X4663786Y-16290429D01*
X4692357Y-16304714D01*
X4749500Y-16304714D01*
X4778071Y-16290429D01*
X4792357Y-16276143D01*
X4806643Y-16247571D01*
X4806643Y-16190429D01*
X4792357Y-16161857D01*
X4778071Y-16147571D01*
X4749500Y-16133286D01*
X4992357Y-16004714D02*
X5020928Y-16004714D01*
X5049500Y-16019000D01*
X5063786Y-16033286D01*
X5078071Y-16061857D01*
X5092357Y-16119000D01*
X5092357Y-16190429D01*
X5078071Y-16247571D01*
X5063786Y-16276143D01*
X5049500Y-16290429D01*
X5020928Y-16304714D01*
X4992357Y-16304714D01*
X4963786Y-16290429D01*
X4949500Y-16276143D01*
X4935214Y-16247571D01*
X4920928Y-16190429D01*
X4920928Y-16119000D01*
X4935214Y-16061857D01*
X4949500Y-16033286D01*
X4963786Y-16019000D01*
X4992357Y-16004714D01*
X5278071Y-16004714D02*
X5306643Y-16004714D01*
X5335214Y-16019000D01*
X5349500Y-16033286D01*
X5363786Y-16061857D01*
X5378071Y-16119000D01*
X5378071Y-16190429D01*
X5363786Y-16247571D01*
X5349500Y-16276143D01*
X5335214Y-16290429D01*
X5306643Y-16304714D01*
X5278071Y-16304714D01*
X5249500Y-16290429D01*
X5235214Y-16276143D01*
X5220928Y-16247571D01*
X5206643Y-16190429D01*
X5206643Y-16119000D01*
X5220928Y-16061857D01*
X5235214Y-16033286D01*
X5249500Y-16019000D01*
X5278071Y-16004714D01*
X5506643Y-16304714D02*
X5506643Y-16104714D01*
X5506643Y-16133286D02*
X5520928Y-16119000D01*
X5549500Y-16104714D01*
X5592357Y-16104714D01*
X5620928Y-16119000D01*
X5635214Y-16147571D01*
X5635214Y-16304714D01*
X5635214Y-16147571D02*
X5649500Y-16119000D01*
X5678071Y-16104714D01*
X5720928Y-16104714D01*
X5749500Y-16119000D01*
X5763786Y-16147571D01*
X5763786Y-16304714D01*
X5906643Y-16304714D02*
X5906643Y-16104714D01*
X5906643Y-16133286D02*
X5920928Y-16119000D01*
X5949500Y-16104714D01*
X5992357Y-16104714D01*
X6020928Y-16119000D01*
X6035214Y-16147571D01*
X6035214Y-16304714D01*
X6035214Y-16147571D02*
X6049500Y-16119000D01*
X6078071Y-16104714D01*
X6120928Y-16104714D01*
X6149500Y-16119000D01*
X6163786Y-16147571D01*
X6163786Y-16304714D01*
X6749500Y-15990429D02*
X6492357Y-16376143D01*
X7135214Y-16004714D02*
X7163786Y-16004714D01*
X7192357Y-16019000D01*
X7206643Y-16033286D01*
X7220928Y-16061857D01*
X7235214Y-16119000D01*
X7235214Y-16190429D01*
X7220928Y-16247571D01*
X7206643Y-16276143D01*
X7192357Y-16290429D01*
X7163786Y-16304714D01*
X7135214Y-16304714D01*
X7106643Y-16290429D01*
X7092357Y-16276143D01*
X7078071Y-16247571D01*
X7063786Y-16190429D01*
X7063786Y-16119000D01*
X7078071Y-16061857D01*
X7092357Y-16033286D01*
X7106643Y-16019000D01*
X7135214Y-16004714D01*
X7363786Y-16276143D02*
X7378071Y-16290429D01*
X7363786Y-16304714D01*
X7349500Y-16290429D01*
X7363786Y-16276143D01*
X7363786Y-16304714D01*
X7563786Y-16004714D02*
X7592357Y-16004714D01*
X7620928Y-16019000D01*
X7635214Y-16033286D01*
X7649500Y-16061857D01*
X7663786Y-16119000D01*
X7663786Y-16190429D01*
X7649500Y-16247571D01*
X7635214Y-16276143D01*
X7620928Y-16290429D01*
X7592357Y-16304714D01*
X7563786Y-16304714D01*
X7535214Y-16290429D01*
X7520928Y-16276143D01*
X7506643Y-16247571D01*
X7492357Y-16190429D01*
X7492357Y-16119000D01*
X7506643Y-16061857D01*
X7520928Y-16033286D01*
X7535214Y-16019000D01*
X7563786Y-16004714D01*
X7763786Y-16004714D02*
X7949500Y-16004714D01*
X7849500Y-16119000D01*
X7892357Y-16119000D01*
X7920928Y-16133286D01*
X7935214Y-16147571D01*
X7949500Y-16176143D01*
X7949500Y-16247571D01*
X7935214Y-16276143D01*
X7920928Y-16290429D01*
X7892357Y-16304714D01*
X7806643Y-16304714D01*
X7778071Y-16290429D01*
X7763786Y-16276143D01*
X8235214Y-16304714D02*
X8063786Y-16304714D01*
X8149500Y-16304714D02*
X8149500Y-16004714D01*
X8120928Y-16047571D01*
X8092357Y-16076143D01*
X8063786Y-16090429D01*
X8506643Y-16004714D02*
X8363786Y-16004714D01*
X8349500Y-16147571D01*
X8363786Y-16133286D01*
X8392357Y-16119000D01*
X8463786Y-16119000D01*
X8492357Y-16133286D01*
X8506643Y-16147571D01*
X8520928Y-16176143D01*
X8520928Y-16247571D01*
X8506643Y-16276143D01*
X8492357Y-16290429D01*
X8463786Y-16304714D01*
X8392357Y-16304714D01*
X8363786Y-16290429D01*
X8349500Y-16276143D01*
X8635214Y-16004714D02*
X8635214Y-16061857D01*
X8749500Y-16004714D02*
X8749500Y-16061857D01*
X9192357Y-16419000D02*
X9178071Y-16404714D01*
X9149500Y-16361857D01*
X9135214Y-16333286D01*
X9120928Y-16290429D01*
X9106643Y-16219000D01*
X9106643Y-16161857D01*
X9120928Y-16090429D01*
X9135214Y-16047571D01*
X9149500Y-16019000D01*
X9178071Y-15976143D01*
X9192357Y-15961857D01*
X9278071Y-16004714D02*
X9463786Y-16004714D01*
X9363786Y-16119000D01*
X9406643Y-16119000D01*
X9435214Y-16133286D01*
X9449500Y-16147571D01*
X9463786Y-16176143D01*
X9463786Y-16247571D01*
X9449500Y-16276143D01*
X9435214Y-16290429D01*
X9406643Y-16304714D01*
X9320928Y-16304714D01*
X9292357Y-16290429D01*
X9278071Y-16276143D01*
X9578071Y-16033286D02*
X9592357Y-16019000D01*
X9620928Y-16004714D01*
X9692357Y-16004714D01*
X9720928Y-16019000D01*
X9735214Y-16033286D01*
X9749500Y-16061857D01*
X9749500Y-16090429D01*
X9735214Y-16133286D01*
X9563786Y-16304714D01*
X9749500Y-16304714D01*
X10106643Y-16304714D02*
X10106643Y-16004714D01*
X10235214Y-16304714D02*
X10235214Y-16147571D01*
X10220928Y-16119000D01*
X10192357Y-16104714D01*
X10149500Y-16104714D01*
X10120928Y-16119000D01*
X10106643Y-16133286D01*
X10420928Y-16304714D02*
X10392357Y-16290429D01*
X10378071Y-16276143D01*
X10363786Y-16247571D01*
X10363786Y-16161857D01*
X10378071Y-16133286D01*
X10392357Y-16119000D01*
X10420928Y-16104714D01*
X10463786Y-16104714D01*
X10492357Y-16119000D01*
X10506643Y-16133286D01*
X10520928Y-16161857D01*
X10520928Y-16247571D01*
X10506643Y-16276143D01*
X10492357Y-16290429D01*
X10463786Y-16304714D01*
X10420928Y-16304714D01*
X10692357Y-16304714D02*
X10663786Y-16290429D01*
X10649500Y-16261857D01*
X10649500Y-16004714D01*
X10920928Y-16290429D02*
X10892357Y-16304714D01*
X10835214Y-16304714D01*
X10806643Y-16290429D01*
X10792357Y-16261857D01*
X10792357Y-16147571D01*
X10806643Y-16119000D01*
X10835214Y-16104714D01*
X10892357Y-16104714D01*
X10920928Y-16119000D01*
X10935214Y-16147571D01*
X10935214Y-16176143D01*
X10792357Y-16204714D01*
X11049500Y-16290429D02*
X11078071Y-16304714D01*
X11135214Y-16304714D01*
X11163786Y-16290429D01*
X11178071Y-16261857D01*
X11178071Y-16247571D01*
X11163786Y-16219000D01*
X11135214Y-16204714D01*
X11092357Y-16204714D01*
X11063786Y-16190429D01*
X11049500Y-16161857D01*
X11049500Y-16147571D01*
X11063786Y-16119000D01*
X11092357Y-16104714D01*
X11135214Y-16104714D01*
X11163786Y-16119000D01*
X11278071Y-16419000D02*
X11292357Y-16404714D01*
X11320928Y-16361857D01*
X11335214Y-16333286D01*
X11349500Y-16290429D01*
X11363786Y-16219000D01*
X11363786Y-16161857D01*
X11349500Y-16090429D01*
X11335214Y-16047571D01*
X11320928Y-16019000D01*
X11292357Y-15976143D01*
X11278071Y-15961857D01*
X3922052Y-16595052D02*
X3922052Y-16534948D01*
X3861948Y-16534948D01*
X3861948Y-16595052D01*
X3922052Y-16595052D01*
X4278071Y-16400714D02*
X4306643Y-16400714D01*
X4335214Y-16415000D01*
X4349500Y-16429286D01*
X4363786Y-16457857D01*
X4378071Y-16515000D01*
X4378071Y-16586429D01*
X4363786Y-16643571D01*
X4349500Y-16672143D01*
X4335214Y-16686429D01*
X4306643Y-16700714D01*
X4278071Y-16700714D01*
X4249500Y-16686429D01*
X4235214Y-16672143D01*
X4220928Y-16643571D01*
X4206643Y-16586429D01*
X4206643Y-16515000D01*
X4220928Y-16457857D01*
X4235214Y-16429286D01*
X4249500Y-16415000D01*
X4278071Y-16400714D01*
X4506643Y-16672143D02*
X4520928Y-16686429D01*
X4506643Y-16700714D01*
X4492357Y-16686429D01*
X4506643Y-16672143D01*
X4506643Y-16700714D01*
X4692357Y-16529286D02*
X4663786Y-16515000D01*
X4649500Y-16500714D01*
X4635214Y-16472143D01*
X4635214Y-16457857D01*
X4649500Y-16429286D01*
X4663786Y-16415000D01*
X4692357Y-16400714D01*
X4749500Y-16400714D01*
X4778071Y-16415000D01*
X4792357Y-16429286D01*
X4806643Y-16457857D01*
X4806643Y-16472143D01*
X4792357Y-16500714D01*
X4778071Y-16515000D01*
X4749500Y-16529286D01*
X4692357Y-16529286D01*
X4663786Y-16543571D01*
X4649500Y-16557857D01*
X4635214Y-16586429D01*
X4635214Y-16643571D01*
X4649500Y-16672143D01*
X4663786Y-16686429D01*
X4692357Y-16700714D01*
X4749500Y-16700714D01*
X4778071Y-16686429D01*
X4792357Y-16672143D01*
X4806643Y-16643571D01*
X4806643Y-16586429D01*
X4792357Y-16557857D01*
X4778071Y-16543571D01*
X4749500Y-16529286D01*
X5078071Y-16400714D02*
X4935214Y-16400714D01*
X4920928Y-16543571D01*
X4935214Y-16529286D01*
X4963786Y-16515000D01*
X5035214Y-16515000D01*
X5063786Y-16529286D01*
X5078071Y-16543571D01*
X5092357Y-16572143D01*
X5092357Y-16643571D01*
X5078071Y-16672143D01*
X5063786Y-16686429D01*
X5035214Y-16700714D01*
X4963786Y-16700714D01*
X4935214Y-16686429D01*
X4920928Y-16672143D01*
X5278071Y-16400714D02*
X5306643Y-16400714D01*
X5335214Y-16415000D01*
X5349500Y-16429286D01*
X5363786Y-16457857D01*
X5378071Y-16515000D01*
X5378071Y-16586429D01*
X5363786Y-16643571D01*
X5349500Y-16672143D01*
X5335214Y-16686429D01*
X5306643Y-16700714D01*
X5278071Y-16700714D01*
X5249500Y-16686429D01*
X5235214Y-16672143D01*
X5220928Y-16643571D01*
X5206643Y-16586429D01*
X5206643Y-16515000D01*
X5220928Y-16457857D01*
X5235214Y-16429286D01*
X5249500Y-16415000D01*
X5278071Y-16400714D01*
X5506643Y-16700714D02*
X5506643Y-16500714D01*
X5506643Y-16529286D02*
X5520928Y-16515000D01*
X5549500Y-16500714D01*
X5592357Y-16500714D01*
X5620928Y-16515000D01*
X5635214Y-16543571D01*
X5635214Y-16700714D01*
X5635214Y-16543571D02*
X5649500Y-16515000D01*
X5678071Y-16500714D01*
X5720928Y-16500714D01*
X5749500Y-16515000D01*
X5763786Y-16543571D01*
X5763786Y-16700714D01*
X5906643Y-16700714D02*
X5906643Y-16500714D01*
X5906643Y-16529286D02*
X5920928Y-16515000D01*
X5949500Y-16500714D01*
X5992357Y-16500714D01*
X6020928Y-16515000D01*
X6035214Y-16543571D01*
X6035214Y-16700714D01*
X6035214Y-16543571D02*
X6049500Y-16515000D01*
X6078071Y-16500714D01*
X6120928Y-16500714D01*
X6149500Y-16515000D01*
X6163786Y-16543571D01*
X6163786Y-16700714D01*
X6749500Y-16386429D02*
X6492357Y-16772143D01*
X7135214Y-16400714D02*
X7163786Y-16400714D01*
X7192357Y-16415000D01*
X7206643Y-16429286D01*
X7220928Y-16457857D01*
X7235214Y-16515000D01*
X7235214Y-16586429D01*
X7220928Y-16643571D01*
X7206643Y-16672143D01*
X7192357Y-16686429D01*
X7163786Y-16700714D01*
X7135214Y-16700714D01*
X7106643Y-16686429D01*
X7092357Y-16672143D01*
X7078071Y-16643571D01*
X7063786Y-16586429D01*
X7063786Y-16515000D01*
X7078071Y-16457857D01*
X7092357Y-16429286D01*
X7106643Y-16415000D01*
X7135214Y-16400714D01*
X7363786Y-16672143D02*
X7378071Y-16686429D01*
X7363786Y-16700714D01*
X7349500Y-16686429D01*
X7363786Y-16672143D01*
X7363786Y-16700714D01*
X7563786Y-16400714D02*
X7592357Y-16400714D01*
X7620928Y-16415000D01*
X7635214Y-16429286D01*
X7649500Y-16457857D01*
X7663786Y-16515000D01*
X7663786Y-16586429D01*
X7649500Y-16643571D01*
X7635214Y-16672143D01*
X7620928Y-16686429D01*
X7592357Y-16700714D01*
X7563786Y-16700714D01*
X7535214Y-16686429D01*
X7520928Y-16672143D01*
X7506643Y-16643571D01*
X7492357Y-16586429D01*
X7492357Y-16515000D01*
X7506643Y-16457857D01*
X7520928Y-16429286D01*
X7535214Y-16415000D01*
X7563786Y-16400714D01*
X7763786Y-16400714D02*
X7949500Y-16400714D01*
X7849500Y-16515000D01*
X7892357Y-16515000D01*
X7920928Y-16529286D01*
X7935214Y-16543571D01*
X7949500Y-16572143D01*
X7949500Y-16643571D01*
X7935214Y-16672143D01*
X7920928Y-16686429D01*
X7892357Y-16700714D01*
X7806643Y-16700714D01*
X7778071Y-16686429D01*
X7763786Y-16672143D01*
X8049500Y-16400714D02*
X8235214Y-16400714D01*
X8135214Y-16515000D01*
X8178071Y-16515000D01*
X8206643Y-16529286D01*
X8220928Y-16543571D01*
X8235214Y-16572143D01*
X8235214Y-16643571D01*
X8220928Y-16672143D01*
X8206643Y-16686429D01*
X8178071Y-16700714D01*
X8092357Y-16700714D01*
X8063786Y-16686429D01*
X8049500Y-16672143D01*
X8506643Y-16400714D02*
X8363786Y-16400714D01*
X8349500Y-16543571D01*
X8363786Y-16529286D01*
X8392357Y-16515000D01*
X8463786Y-16515000D01*
X8492357Y-16529286D01*
X8506643Y-16543571D01*
X8520928Y-16572143D01*
X8520928Y-16643571D01*
X8506643Y-16672143D01*
X8492357Y-16686429D01*
X8463786Y-16700714D01*
X8392357Y-16700714D01*
X8363786Y-16686429D01*
X8349500Y-16672143D01*
X8635214Y-16400714D02*
X8635214Y-16457857D01*
X8749500Y-16400714D02*
X8749500Y-16457857D01*
X9192357Y-16815000D02*
X9178071Y-16800714D01*
X9149500Y-16757857D01*
X9135214Y-16729286D01*
X9120928Y-16686429D01*
X9106643Y-16615000D01*
X9106643Y-16557857D01*
X9120928Y-16486429D01*
X9135214Y-16443571D01*
X9149500Y-16415000D01*
X9178071Y-16372143D01*
X9192357Y-16357857D01*
X9292357Y-16429286D02*
X9306643Y-16415000D01*
X9335214Y-16400714D01*
X9406643Y-16400714D01*
X9435214Y-16415000D01*
X9449500Y-16429286D01*
X9463786Y-16457857D01*
X9463786Y-16486429D01*
X9449500Y-16529286D01*
X9278071Y-16700714D01*
X9463786Y-16700714D01*
X9820928Y-16700714D02*
X9820928Y-16400714D01*
X9949500Y-16700714D02*
X9949500Y-16543571D01*
X9935214Y-16515000D01*
X9906643Y-16500714D01*
X9863786Y-16500714D01*
X9835214Y-16515000D01*
X9820928Y-16529286D01*
X10135214Y-16700714D02*
X10106643Y-16686429D01*
X10092357Y-16672143D01*
X10078071Y-16643571D01*
X10078071Y-16557857D01*
X10092357Y-16529286D01*
X10106643Y-16515000D01*
X10135214Y-16500714D01*
X10178071Y-16500714D01*
X10206643Y-16515000D01*
X10220928Y-16529286D01*
X10235214Y-16557857D01*
X10235214Y-16643571D01*
X10220928Y-16672143D01*
X10206643Y-16686429D01*
X10178071Y-16700714D01*
X10135214Y-16700714D01*
X10406643Y-16700714D02*
X10378071Y-16686429D01*
X10363786Y-16657857D01*
X10363786Y-16400714D01*
X10635214Y-16686429D02*
X10606643Y-16700714D01*
X10549500Y-16700714D01*
X10520928Y-16686429D01*
X10506643Y-16657857D01*
X10506643Y-16543571D01*
X10520928Y-16515000D01*
X10549500Y-16500714D01*
X10606643Y-16500714D01*
X10635214Y-16515000D01*
X10649500Y-16543571D01*
X10649500Y-16572143D01*
X10506643Y-16600714D01*
X10763786Y-16686429D02*
X10792357Y-16700714D01*
X10849500Y-16700714D01*
X10878071Y-16686429D01*
X10892357Y-16657857D01*
X10892357Y-16643571D01*
X10878071Y-16615000D01*
X10849500Y-16600714D01*
X10806643Y-16600714D01*
X10778071Y-16586429D01*
X10763786Y-16557857D01*
X10763786Y-16543571D01*
X10778071Y-16515000D01*
X10806643Y-16500714D01*
X10849500Y-16500714D01*
X10878071Y-16515000D01*
X10992357Y-16815000D02*
X11006643Y-16800714D01*
X11035214Y-16757857D01*
X11049500Y-16729286D01*
X11063786Y-16686429D01*
X11078071Y-16615000D01*
X11078071Y-16557857D01*
X11063786Y-16486429D01*
X11049500Y-16443571D01*
X11035214Y-16415000D01*
X11006643Y-16372143D01*
X10992357Y-16357857D01*
X3889500Y-17006000D02*
X3934500Y-16961000D01*
X3889500Y-16916000D01*
X3844500Y-16961000D01*
X3889500Y-17006000D01*
X4278071Y-16796714D02*
X4306643Y-16796714D01*
X4335214Y-16811000D01*
X4349500Y-16825286D01*
X4363786Y-16853857D01*
X4378071Y-16911000D01*
X4378071Y-16982429D01*
X4363786Y-17039572D01*
X4349500Y-17068143D01*
X4335214Y-17082429D01*
X4306643Y-17096714D01*
X4278071Y-17096714D01*
X4249500Y-17082429D01*
X4235214Y-17068143D01*
X4220928Y-17039572D01*
X4206643Y-16982429D01*
X4206643Y-16911000D01*
X4220928Y-16853857D01*
X4235214Y-16825286D01*
X4249500Y-16811000D01*
X4278071Y-16796714D01*
X4506643Y-17068143D02*
X4520928Y-17082429D01*
X4506643Y-17096714D01*
X4492357Y-17082429D01*
X4506643Y-17068143D01*
X4506643Y-17096714D01*
X4663786Y-17096714D02*
X4720928Y-17096714D01*
X4749500Y-17082429D01*
X4763786Y-17068143D01*
X4792357Y-17025286D01*
X4806643Y-16968143D01*
X4806643Y-16853857D01*
X4792357Y-16825286D01*
X4778071Y-16811000D01*
X4749500Y-16796714D01*
X4692357Y-16796714D01*
X4663786Y-16811000D01*
X4649500Y-16825286D01*
X4635214Y-16853857D01*
X4635214Y-16925286D01*
X4649500Y-16953857D01*
X4663786Y-16968143D01*
X4692357Y-16982429D01*
X4749500Y-16982429D01*
X4778071Y-16968143D01*
X4792357Y-16953857D01*
X4806643Y-16925286D01*
X4992357Y-16796714D02*
X5020928Y-16796714D01*
X5049500Y-16811000D01*
X5063786Y-16825286D01*
X5078071Y-16853857D01*
X5092357Y-16911000D01*
X5092357Y-16982429D01*
X5078071Y-17039572D01*
X5063786Y-17068143D01*
X5049500Y-17082429D01*
X5020928Y-17096714D01*
X4992357Y-17096714D01*
X4963786Y-17082429D01*
X4949500Y-17068143D01*
X4935214Y-17039572D01*
X4920928Y-16982429D01*
X4920928Y-16911000D01*
X4935214Y-16853857D01*
X4949500Y-16825286D01*
X4963786Y-16811000D01*
X4992357Y-16796714D01*
X5278071Y-16796714D02*
X5306643Y-16796714D01*
X5335214Y-16811000D01*
X5349500Y-16825286D01*
X5363786Y-16853857D01*
X5378071Y-16911000D01*
X5378071Y-16982429D01*
X5363786Y-17039572D01*
X5349500Y-17068143D01*
X5335214Y-17082429D01*
X5306643Y-17096714D01*
X5278071Y-17096714D01*
X5249500Y-17082429D01*
X5235214Y-17068143D01*
X5220928Y-17039572D01*
X5206643Y-16982429D01*
X5206643Y-16911000D01*
X5220928Y-16853857D01*
X5235214Y-16825286D01*
X5249500Y-16811000D01*
X5278071Y-16796714D01*
X5506643Y-17096714D02*
X5506643Y-16896714D01*
X5506643Y-16925286D02*
X5520928Y-16911000D01*
X5549500Y-16896714D01*
X5592357Y-16896714D01*
X5620928Y-16911000D01*
X5635214Y-16939572D01*
X5635214Y-17096714D01*
X5635214Y-16939572D02*
X5649500Y-16911000D01*
X5678071Y-16896714D01*
X5720928Y-16896714D01*
X5749500Y-16911000D01*
X5763786Y-16939572D01*
X5763786Y-17096714D01*
X5906643Y-17096714D02*
X5906643Y-16896714D01*
X5906643Y-16925286D02*
X5920928Y-16911000D01*
X5949500Y-16896714D01*
X5992357Y-16896714D01*
X6020928Y-16911000D01*
X6035214Y-16939572D01*
X6035214Y-17096714D01*
X6035214Y-16939572D02*
X6049500Y-16911000D01*
X6078071Y-16896714D01*
X6120928Y-16896714D01*
X6149500Y-16911000D01*
X6163786Y-16939572D01*
X6163786Y-17096714D01*
X6749500Y-16782429D02*
X6492357Y-17168143D01*
X7135214Y-16796714D02*
X7163786Y-16796714D01*
X7192357Y-16811000D01*
X7206643Y-16825286D01*
X7220928Y-16853857D01*
X7235214Y-16911000D01*
X7235214Y-16982429D01*
X7220928Y-17039572D01*
X7206643Y-17068143D01*
X7192357Y-17082429D01*
X7163786Y-17096714D01*
X7135214Y-17096714D01*
X7106643Y-17082429D01*
X7092357Y-17068143D01*
X7078071Y-17039572D01*
X7063786Y-16982429D01*
X7063786Y-16911000D01*
X7078071Y-16853857D01*
X7092357Y-16825286D01*
X7106643Y-16811000D01*
X7135214Y-16796714D01*
X7363786Y-17068143D02*
X7378071Y-17082429D01*
X7363786Y-17096714D01*
X7349500Y-17082429D01*
X7363786Y-17068143D01*
X7363786Y-17096714D01*
X7563786Y-16796714D02*
X7592357Y-16796714D01*
X7620928Y-16811000D01*
X7635214Y-16825286D01*
X7649500Y-16853857D01*
X7663786Y-16911000D01*
X7663786Y-16982429D01*
X7649500Y-17039572D01*
X7635214Y-17068143D01*
X7620928Y-17082429D01*
X7592357Y-17096714D01*
X7563786Y-17096714D01*
X7535214Y-17082429D01*
X7520928Y-17068143D01*
X7506643Y-17039572D01*
X7492357Y-16982429D01*
X7492357Y-16911000D01*
X7506643Y-16853857D01*
X7520928Y-16825286D01*
X7535214Y-16811000D01*
X7563786Y-16796714D01*
X7763786Y-16796714D02*
X7949500Y-16796714D01*
X7849500Y-16911000D01*
X7892357Y-16911000D01*
X7920928Y-16925286D01*
X7935214Y-16939572D01*
X7949500Y-16968143D01*
X7949500Y-17039572D01*
X7935214Y-17068143D01*
X7920928Y-17082429D01*
X7892357Y-17096714D01*
X7806643Y-17096714D01*
X7778071Y-17082429D01*
X7763786Y-17068143D01*
X8220928Y-16796714D02*
X8078071Y-16796714D01*
X8063786Y-16939572D01*
X8078071Y-16925286D01*
X8106643Y-16911000D01*
X8178071Y-16911000D01*
X8206643Y-16925286D01*
X8220928Y-16939572D01*
X8235214Y-16968143D01*
X8235214Y-17039572D01*
X8220928Y-17068143D01*
X8206643Y-17082429D01*
X8178071Y-17096714D01*
X8106643Y-17096714D01*
X8078071Y-17082429D01*
X8063786Y-17068143D01*
X8492357Y-16896714D02*
X8492357Y-17096714D01*
X8420928Y-16782429D02*
X8349500Y-16996714D01*
X8535214Y-16996714D01*
X8635214Y-16796714D02*
X8635214Y-16853857D01*
X8749500Y-16796714D02*
X8749500Y-16853857D01*
X9192357Y-17211000D02*
X9178071Y-17196714D01*
X9149500Y-17153857D01*
X9135214Y-17125286D01*
X9120928Y-17082429D01*
X9106643Y-17011000D01*
X9106643Y-16953857D01*
X9120928Y-16882429D01*
X9135214Y-16839572D01*
X9149500Y-16811000D01*
X9178071Y-16768143D01*
X9192357Y-16753857D01*
X9463786Y-17096714D02*
X9292357Y-17096714D01*
X9378071Y-17096714D02*
X9378071Y-16796714D01*
X9349500Y-16839572D01*
X9320928Y-16868143D01*
X9292357Y-16882429D01*
X9649500Y-16796714D02*
X9678071Y-16796714D01*
X9706643Y-16811000D01*
X9720928Y-16825286D01*
X9735214Y-16853857D01*
X9749500Y-16911000D01*
X9749500Y-16982429D01*
X9735214Y-17039572D01*
X9720928Y-17068143D01*
X9706643Y-17082429D01*
X9678071Y-17096714D01*
X9649500Y-17096714D01*
X9620928Y-17082429D01*
X9606643Y-17068143D01*
X9592357Y-17039572D01*
X9578071Y-16982429D01*
X9578071Y-16911000D01*
X9592357Y-16853857D01*
X9606643Y-16825286D01*
X9620928Y-16811000D01*
X9649500Y-16796714D01*
X10106643Y-17096714D02*
X10106643Y-16796714D01*
X10235214Y-17096714D02*
X10235214Y-16939572D01*
X10220928Y-16911000D01*
X10192357Y-16896714D01*
X10149500Y-16896714D01*
X10120928Y-16911000D01*
X10106643Y-16925286D01*
X10420928Y-17096714D02*
X10392357Y-17082429D01*
X10378071Y-17068143D01*
X10363786Y-17039572D01*
X10363786Y-16953857D01*
X10378071Y-16925286D01*
X10392357Y-16911000D01*
X10420928Y-16896714D01*
X10463786Y-16896714D01*
X10492357Y-16911000D01*
X10506643Y-16925286D01*
X10520928Y-16953857D01*
X10520928Y-17039572D01*
X10506643Y-17068143D01*
X10492357Y-17082429D01*
X10463786Y-17096714D01*
X10420928Y-17096714D01*
X10692357Y-17096714D02*
X10663786Y-17082429D01*
X10649500Y-17053857D01*
X10649500Y-16796714D01*
X10920928Y-17082429D02*
X10892357Y-17096714D01*
X10835214Y-17096714D01*
X10806643Y-17082429D01*
X10792357Y-17053857D01*
X10792357Y-16939572D01*
X10806643Y-16911000D01*
X10835214Y-16896714D01*
X10892357Y-16896714D01*
X10920928Y-16911000D01*
X10935214Y-16939572D01*
X10935214Y-16968143D01*
X10792357Y-16996714D01*
X11049500Y-17082429D02*
X11078071Y-17096714D01*
X11135214Y-17096714D01*
X11163786Y-17082429D01*
X11178071Y-17053857D01*
X11178071Y-17039572D01*
X11163786Y-17011000D01*
X11135214Y-16996714D01*
X11092357Y-16996714D01*
X11063786Y-16982429D01*
X11049500Y-16953857D01*
X11049500Y-16939572D01*
X11063786Y-16911000D01*
X11092357Y-16896714D01*
X11135214Y-16896714D01*
X11163786Y-16911000D01*
X11278071Y-17211000D02*
X11292357Y-17196714D01*
X11320928Y-17153857D01*
X11335214Y-17125286D01*
X11349500Y-17082429D01*
X11363786Y-17011000D01*
X11363786Y-16953857D01*
X11349500Y-16882429D01*
X11335214Y-16839572D01*
X11320928Y-16811000D01*
X11292357Y-16768143D01*
X11278071Y-16753857D01*
X3834500Y-17307000D02*
X3934500Y-17407000D01*
X3934500Y-17307000D02*
X3834500Y-17407000D01*
X3934500Y-17357000D02*
G75*
G03*
X3934500Y-17357000I-50000J0D01*
G01*
X4378071Y-17492714D02*
X4206643Y-17492714D01*
X4292357Y-17492714D02*
X4292357Y-17192714D01*
X4263786Y-17235572D01*
X4235214Y-17264143D01*
X4206643Y-17278429D01*
X4506643Y-17464143D02*
X4520928Y-17478429D01*
X4506643Y-17492714D01*
X4492357Y-17478429D01*
X4506643Y-17464143D01*
X4506643Y-17492714D01*
X4706643Y-17192714D02*
X4735214Y-17192714D01*
X4763786Y-17207000D01*
X4778071Y-17221286D01*
X4792357Y-17249857D01*
X4806643Y-17307000D01*
X4806643Y-17378429D01*
X4792357Y-17435572D01*
X4778071Y-17464143D01*
X4763786Y-17478429D01*
X4735214Y-17492714D01*
X4706643Y-17492714D01*
X4678071Y-17478429D01*
X4663786Y-17464143D01*
X4649500Y-17435572D01*
X4635214Y-17378429D01*
X4635214Y-17307000D01*
X4649500Y-17249857D01*
X4663786Y-17221286D01*
X4678071Y-17207000D01*
X4706643Y-17192714D01*
X4992357Y-17192714D02*
X5020928Y-17192714D01*
X5049500Y-17207000D01*
X5063786Y-17221286D01*
X5078071Y-17249857D01*
X5092357Y-17307000D01*
X5092357Y-17378429D01*
X5078071Y-17435572D01*
X5063786Y-17464143D01*
X5049500Y-17478429D01*
X5020928Y-17492714D01*
X4992357Y-17492714D01*
X4963786Y-17478429D01*
X4949500Y-17464143D01*
X4935214Y-17435572D01*
X4920928Y-17378429D01*
X4920928Y-17307000D01*
X4935214Y-17249857D01*
X4949500Y-17221286D01*
X4963786Y-17207000D01*
X4992357Y-17192714D01*
X5278071Y-17192714D02*
X5306643Y-17192714D01*
X5335214Y-17207000D01*
X5349500Y-17221286D01*
X5363786Y-17249857D01*
X5378071Y-17307000D01*
X5378071Y-17378429D01*
X5363786Y-17435572D01*
X5349500Y-17464143D01*
X5335214Y-17478429D01*
X5306643Y-17492714D01*
X5278071Y-17492714D01*
X5249500Y-17478429D01*
X5235214Y-17464143D01*
X5220928Y-17435572D01*
X5206643Y-17378429D01*
X5206643Y-17307000D01*
X5220928Y-17249857D01*
X5235214Y-17221286D01*
X5249500Y-17207000D01*
X5278071Y-17192714D01*
X5506643Y-17492714D02*
X5506643Y-17292714D01*
X5506643Y-17321286D02*
X5520928Y-17307000D01*
X5549500Y-17292714D01*
X5592357Y-17292714D01*
X5620928Y-17307000D01*
X5635214Y-17335572D01*
X5635214Y-17492714D01*
X5635214Y-17335572D02*
X5649500Y-17307000D01*
X5678071Y-17292714D01*
X5720928Y-17292714D01*
X5749500Y-17307000D01*
X5763786Y-17335572D01*
X5763786Y-17492714D01*
X5906643Y-17492714D02*
X5906643Y-17292714D01*
X5906643Y-17321286D02*
X5920928Y-17307000D01*
X5949500Y-17292714D01*
X5992357Y-17292714D01*
X6020928Y-17307000D01*
X6035214Y-17335572D01*
X6035214Y-17492714D01*
X6035214Y-17335572D02*
X6049500Y-17307000D01*
X6078071Y-17292714D01*
X6120928Y-17292714D01*
X6149500Y-17307000D01*
X6163786Y-17335572D01*
X6163786Y-17492714D01*
X6749500Y-17178429D02*
X6492357Y-17564143D01*
X7135214Y-17192714D02*
X7163786Y-17192714D01*
X7192357Y-17207000D01*
X7206643Y-17221286D01*
X7220928Y-17249857D01*
X7235214Y-17307000D01*
X7235214Y-17378429D01*
X7220928Y-17435572D01*
X7206643Y-17464143D01*
X7192357Y-17478429D01*
X7163786Y-17492714D01*
X7135214Y-17492714D01*
X7106643Y-17478429D01*
X7092357Y-17464143D01*
X7078071Y-17435572D01*
X7063786Y-17378429D01*
X7063786Y-17307000D01*
X7078071Y-17249857D01*
X7092357Y-17221286D01*
X7106643Y-17207000D01*
X7135214Y-17192714D01*
X7363786Y-17464143D02*
X7378071Y-17478429D01*
X7363786Y-17492714D01*
X7349500Y-17478429D01*
X7363786Y-17464143D01*
X7363786Y-17492714D01*
X7563786Y-17192714D02*
X7592357Y-17192714D01*
X7620928Y-17207000D01*
X7635214Y-17221286D01*
X7649500Y-17249857D01*
X7663786Y-17307000D01*
X7663786Y-17378429D01*
X7649500Y-17435572D01*
X7635214Y-17464143D01*
X7620928Y-17478429D01*
X7592357Y-17492714D01*
X7563786Y-17492714D01*
X7535214Y-17478429D01*
X7520928Y-17464143D01*
X7506643Y-17435572D01*
X7492357Y-17378429D01*
X7492357Y-17307000D01*
X7506643Y-17249857D01*
X7520928Y-17221286D01*
X7535214Y-17207000D01*
X7563786Y-17192714D01*
X7763786Y-17192714D02*
X7949500Y-17192714D01*
X7849500Y-17307000D01*
X7892357Y-17307000D01*
X7920928Y-17321286D01*
X7935214Y-17335572D01*
X7949500Y-17364143D01*
X7949500Y-17435572D01*
X7935214Y-17464143D01*
X7920928Y-17478429D01*
X7892357Y-17492714D01*
X7806643Y-17492714D01*
X7778071Y-17478429D01*
X7763786Y-17464143D01*
X8092357Y-17492714D02*
X8149500Y-17492714D01*
X8178071Y-17478429D01*
X8192357Y-17464143D01*
X8220928Y-17421286D01*
X8235214Y-17364143D01*
X8235214Y-17249857D01*
X8220928Y-17221286D01*
X8206643Y-17207000D01*
X8178071Y-17192714D01*
X8120928Y-17192714D01*
X8092357Y-17207000D01*
X8078071Y-17221286D01*
X8063786Y-17249857D01*
X8063786Y-17321286D01*
X8078071Y-17349857D01*
X8092357Y-17364143D01*
X8120928Y-17378429D01*
X8178071Y-17378429D01*
X8206643Y-17364143D01*
X8220928Y-17349857D01*
X8235214Y-17321286D01*
X8492357Y-17292714D02*
X8492357Y-17492714D01*
X8420928Y-17178429D02*
X8349500Y-17392714D01*
X8535214Y-17392714D01*
X8635214Y-17192714D02*
X8635214Y-17249857D01*
X8749500Y-17192714D02*
X8749500Y-17249857D01*
X9192357Y-17607000D02*
X9178071Y-17592714D01*
X9149500Y-17549857D01*
X9135214Y-17521286D01*
X9120928Y-17478429D01*
X9106643Y-17407000D01*
X9106643Y-17349857D01*
X9120928Y-17278429D01*
X9135214Y-17235572D01*
X9149500Y-17207000D01*
X9178071Y-17164143D01*
X9192357Y-17149857D01*
X9435214Y-17192714D02*
X9378071Y-17192714D01*
X9349500Y-17207000D01*
X9335214Y-17221286D01*
X9306643Y-17264143D01*
X9292357Y-17321286D01*
X9292357Y-17435572D01*
X9306643Y-17464143D01*
X9320928Y-17478429D01*
X9349500Y-17492714D01*
X9406643Y-17492714D01*
X9435214Y-17478429D01*
X9449500Y-17464143D01*
X9463786Y-17435572D01*
X9463786Y-17364143D01*
X9449500Y-17335572D01*
X9435214Y-17321286D01*
X9406643Y-17307000D01*
X9349500Y-17307000D01*
X9320928Y-17321286D01*
X9306643Y-17335572D01*
X9292357Y-17364143D01*
X9820928Y-17492714D02*
X9820928Y-17192714D01*
X9949500Y-17492714D02*
X9949500Y-17335572D01*
X9935214Y-17307000D01*
X9906643Y-17292714D01*
X9863786Y-17292714D01*
X9835214Y-17307000D01*
X9820928Y-17321286D01*
X10135214Y-17492714D02*
X10106643Y-17478429D01*
X10092357Y-17464143D01*
X10078071Y-17435572D01*
X10078071Y-17349857D01*
X10092357Y-17321286D01*
X10106643Y-17307000D01*
X10135214Y-17292714D01*
X10178071Y-17292714D01*
X10206643Y-17307000D01*
X10220928Y-17321286D01*
X10235214Y-17349857D01*
X10235214Y-17435572D01*
X10220928Y-17464143D01*
X10206643Y-17478429D01*
X10178071Y-17492714D01*
X10135214Y-17492714D01*
X10406643Y-17492714D02*
X10378071Y-17478429D01*
X10363786Y-17449857D01*
X10363786Y-17192714D01*
X10635214Y-17478429D02*
X10606643Y-17492714D01*
X10549500Y-17492714D01*
X10520928Y-17478429D01*
X10506643Y-17449857D01*
X10506643Y-17335572D01*
X10520928Y-17307000D01*
X10549500Y-17292714D01*
X10606643Y-17292714D01*
X10635214Y-17307000D01*
X10649500Y-17335572D01*
X10649500Y-17364143D01*
X10506643Y-17392714D01*
X10763786Y-17478429D02*
X10792357Y-17492714D01*
X10849500Y-17492714D01*
X10878071Y-17478429D01*
X10892357Y-17449857D01*
X10892357Y-17435572D01*
X10878071Y-17407000D01*
X10849500Y-17392714D01*
X10806643Y-17392714D01*
X10778071Y-17378429D01*
X10763786Y-17349857D01*
X10763786Y-17335572D01*
X10778071Y-17307000D01*
X10806643Y-17292714D01*
X10849500Y-17292714D01*
X10878071Y-17307000D01*
X11249500Y-17378429D02*
X11478071Y-17378429D01*
X11363786Y-17492714D02*
X11363786Y-17264143D01*
X11820928Y-17192714D02*
X12006643Y-17192714D01*
X11906643Y-17307000D01*
X11949500Y-17307000D01*
X11978071Y-17321286D01*
X11992357Y-17335572D01*
X12006643Y-17364143D01*
X12006643Y-17435572D01*
X11992357Y-17464143D01*
X11978071Y-17478429D01*
X11949500Y-17492714D01*
X11863786Y-17492714D01*
X11835214Y-17478429D01*
X11820928Y-17464143D01*
X12349500Y-17478429D02*
X12378071Y-17492714D01*
X12435214Y-17492714D01*
X12463786Y-17478429D01*
X12478071Y-17449857D01*
X12478071Y-17435572D01*
X12463786Y-17407000D01*
X12435214Y-17392714D01*
X12392357Y-17392714D01*
X12363786Y-17378429D01*
X12349500Y-17349857D01*
X12349500Y-17335572D01*
X12363786Y-17307000D01*
X12392357Y-17292714D01*
X12435214Y-17292714D01*
X12463786Y-17307000D01*
X12649500Y-17492714D02*
X12620928Y-17478429D01*
X12606643Y-17449857D01*
X12606643Y-17192714D01*
X12806643Y-17492714D02*
X12778071Y-17478429D01*
X12763786Y-17464143D01*
X12749500Y-17435572D01*
X12749500Y-17349857D01*
X12763786Y-17321286D01*
X12778071Y-17307000D01*
X12806643Y-17292714D01*
X12849500Y-17292714D01*
X12878071Y-17307000D01*
X12892357Y-17321286D01*
X12906643Y-17349857D01*
X12906643Y-17435572D01*
X12892357Y-17464143D01*
X12878071Y-17478429D01*
X12849500Y-17492714D01*
X12806643Y-17492714D01*
X12992357Y-17292714D02*
X13106643Y-17292714D01*
X13035214Y-17192714D02*
X13035214Y-17449857D01*
X13049500Y-17478429D01*
X13078071Y-17492714D01*
X13106643Y-17492714D01*
X13192357Y-17478429D02*
X13220928Y-17492714D01*
X13278071Y-17492714D01*
X13306643Y-17478429D01*
X13320928Y-17449857D01*
X13320928Y-17435572D01*
X13306643Y-17407000D01*
X13278071Y-17392714D01*
X13235214Y-17392714D01*
X13206643Y-17378429D01*
X13192357Y-17349857D01*
X13192357Y-17335572D01*
X13206643Y-17307000D01*
X13235214Y-17292714D01*
X13278071Y-17292714D01*
X13306643Y-17307000D01*
X13420928Y-17607000D02*
X13435214Y-17592714D01*
X13463786Y-17549857D01*
X13478071Y-17521286D01*
X13492357Y-17478429D01*
X13506643Y-17407000D01*
X13506643Y-17349857D01*
X13492357Y-17278429D01*
X13478071Y-17235572D01*
X13463786Y-17207000D01*
X13435214Y-17164143D01*
X13420928Y-17149857D01*
X3824500Y-17698000D02*
X3934500Y-17808000D01*
X3934500Y-17698000D02*
X3824500Y-17808000D01*
X3879500Y-17698000D02*
X3879500Y-17808000D01*
X3824500Y-17753000D02*
X3934500Y-17753000D01*
X4378071Y-17888714D02*
X4206643Y-17888714D01*
X4292357Y-17888714D02*
X4292357Y-17588714D01*
X4263786Y-17631572D01*
X4235214Y-17660143D01*
X4206643Y-17674429D01*
X4506643Y-17860143D02*
X4520928Y-17874429D01*
X4506643Y-17888714D01*
X4492357Y-17874429D01*
X4506643Y-17860143D01*
X4506643Y-17888714D01*
X4806643Y-17888714D02*
X4635214Y-17888714D01*
X4720928Y-17888714D02*
X4720928Y-17588714D01*
X4692357Y-17631572D01*
X4663786Y-17660143D01*
X4635214Y-17674429D01*
X4992357Y-17588714D02*
X5020928Y-17588714D01*
X5049500Y-17603000D01*
X5063786Y-17617286D01*
X5078071Y-17645857D01*
X5092357Y-17703000D01*
X5092357Y-17774429D01*
X5078071Y-17831572D01*
X5063786Y-17860143D01*
X5049500Y-17874429D01*
X5020928Y-17888714D01*
X4992357Y-17888714D01*
X4963786Y-17874429D01*
X4949500Y-17860143D01*
X4935214Y-17831572D01*
X4920928Y-17774429D01*
X4920928Y-17703000D01*
X4935214Y-17645857D01*
X4949500Y-17617286D01*
X4963786Y-17603000D01*
X4992357Y-17588714D01*
X5278071Y-17588714D02*
X5306643Y-17588714D01*
X5335214Y-17603000D01*
X5349500Y-17617286D01*
X5363786Y-17645857D01*
X5378071Y-17703000D01*
X5378071Y-17774429D01*
X5363786Y-17831572D01*
X5349500Y-17860143D01*
X5335214Y-17874429D01*
X5306643Y-17888714D01*
X5278071Y-17888714D01*
X5249500Y-17874429D01*
X5235214Y-17860143D01*
X5220928Y-17831572D01*
X5206643Y-17774429D01*
X5206643Y-17703000D01*
X5220928Y-17645857D01*
X5235214Y-17617286D01*
X5249500Y-17603000D01*
X5278071Y-17588714D01*
X5506643Y-17888714D02*
X5506643Y-17688714D01*
X5506643Y-17717286D02*
X5520928Y-17703000D01*
X5549500Y-17688714D01*
X5592357Y-17688714D01*
X5620928Y-17703000D01*
X5635214Y-17731572D01*
X5635214Y-17888714D01*
X5635214Y-17731572D02*
X5649500Y-17703000D01*
X5678071Y-17688714D01*
X5720928Y-17688714D01*
X5749500Y-17703000D01*
X5763786Y-17731572D01*
X5763786Y-17888714D01*
X5906643Y-17888714D02*
X5906643Y-17688714D01*
X5906643Y-17717286D02*
X5920928Y-17703000D01*
X5949500Y-17688714D01*
X5992357Y-17688714D01*
X6020928Y-17703000D01*
X6035214Y-17731572D01*
X6035214Y-17888714D01*
X6035214Y-17731572D02*
X6049500Y-17703000D01*
X6078071Y-17688714D01*
X6120928Y-17688714D01*
X6149500Y-17703000D01*
X6163786Y-17731572D01*
X6163786Y-17888714D01*
X6749500Y-17574429D02*
X6492357Y-17960143D01*
X7135214Y-17588714D02*
X7163786Y-17588714D01*
X7192357Y-17603000D01*
X7206643Y-17617286D01*
X7220928Y-17645857D01*
X7235214Y-17703000D01*
X7235214Y-17774429D01*
X7220928Y-17831572D01*
X7206643Y-17860143D01*
X7192357Y-17874429D01*
X7163786Y-17888714D01*
X7135214Y-17888714D01*
X7106643Y-17874429D01*
X7092357Y-17860143D01*
X7078071Y-17831572D01*
X7063786Y-17774429D01*
X7063786Y-17703000D01*
X7078071Y-17645857D01*
X7092357Y-17617286D01*
X7106643Y-17603000D01*
X7135214Y-17588714D01*
X7363786Y-17860143D02*
X7378071Y-17874429D01*
X7363786Y-17888714D01*
X7349500Y-17874429D01*
X7363786Y-17860143D01*
X7363786Y-17888714D01*
X7563786Y-17588714D02*
X7592357Y-17588714D01*
X7620928Y-17603000D01*
X7635214Y-17617286D01*
X7649500Y-17645857D01*
X7663786Y-17703000D01*
X7663786Y-17774429D01*
X7649500Y-17831572D01*
X7635214Y-17860143D01*
X7620928Y-17874429D01*
X7592357Y-17888714D01*
X7563786Y-17888714D01*
X7535214Y-17874429D01*
X7520928Y-17860143D01*
X7506643Y-17831572D01*
X7492357Y-17774429D01*
X7492357Y-17703000D01*
X7506643Y-17645857D01*
X7520928Y-17617286D01*
X7535214Y-17603000D01*
X7563786Y-17588714D01*
X7920928Y-17688714D02*
X7920928Y-17888714D01*
X7849500Y-17574429D02*
X7778071Y-17788714D01*
X7963786Y-17788714D01*
X8049500Y-17588714D02*
X8235214Y-17588714D01*
X8135214Y-17703000D01*
X8178071Y-17703000D01*
X8206643Y-17717286D01*
X8220928Y-17731572D01*
X8235214Y-17760143D01*
X8235214Y-17831572D01*
X8220928Y-17860143D01*
X8206643Y-17874429D01*
X8178071Y-17888714D01*
X8092357Y-17888714D01*
X8063786Y-17874429D01*
X8049500Y-17860143D01*
X8335214Y-17588714D02*
X8520928Y-17588714D01*
X8420928Y-17703000D01*
X8463786Y-17703000D01*
X8492357Y-17717286D01*
X8506643Y-17731572D01*
X8520928Y-17760143D01*
X8520928Y-17831572D01*
X8506643Y-17860143D01*
X8492357Y-17874429D01*
X8463786Y-17888714D01*
X8378071Y-17888714D01*
X8349500Y-17874429D01*
X8335214Y-17860143D01*
X8635214Y-17588714D02*
X8635214Y-17645857D01*
X8749500Y-17588714D02*
X8749500Y-17645857D01*
X9192357Y-18003000D02*
X9178071Y-17988714D01*
X9149500Y-17945857D01*
X9135214Y-17917286D01*
X9120928Y-17874429D01*
X9106643Y-17803000D01*
X9106643Y-17745857D01*
X9120928Y-17674429D01*
X9135214Y-17631572D01*
X9149500Y-17603000D01*
X9178071Y-17560143D01*
X9192357Y-17545857D01*
X9349500Y-17717286D02*
X9320928Y-17703000D01*
X9306643Y-17688714D01*
X9292357Y-17660143D01*
X9292357Y-17645857D01*
X9306643Y-17617286D01*
X9320928Y-17603000D01*
X9349500Y-17588714D01*
X9406643Y-17588714D01*
X9435214Y-17603000D01*
X9449500Y-17617286D01*
X9463786Y-17645857D01*
X9463786Y-17660143D01*
X9449500Y-17688714D01*
X9435214Y-17703000D01*
X9406643Y-17717286D01*
X9349500Y-17717286D01*
X9320928Y-17731572D01*
X9306643Y-17745857D01*
X9292357Y-17774429D01*
X9292357Y-17831572D01*
X9306643Y-17860143D01*
X9320928Y-17874429D01*
X9349500Y-17888714D01*
X9406643Y-17888714D01*
X9435214Y-17874429D01*
X9449500Y-17860143D01*
X9463786Y-17831572D01*
X9463786Y-17774429D01*
X9449500Y-17745857D01*
X9435214Y-17731572D01*
X9406643Y-17717286D01*
X9820928Y-17888714D02*
X9820928Y-17588714D01*
X9949500Y-17888714D02*
X9949500Y-17731572D01*
X9935214Y-17703000D01*
X9906643Y-17688714D01*
X9863786Y-17688714D01*
X9835214Y-17703000D01*
X9820928Y-17717286D01*
X10135214Y-17888714D02*
X10106643Y-17874429D01*
X10092357Y-17860143D01*
X10078071Y-17831572D01*
X10078071Y-17745857D01*
X10092357Y-17717286D01*
X10106643Y-17703000D01*
X10135214Y-17688714D01*
X10178071Y-17688714D01*
X10206643Y-17703000D01*
X10220928Y-17717286D01*
X10235214Y-17745857D01*
X10235214Y-17831572D01*
X10220928Y-17860143D01*
X10206643Y-17874429D01*
X10178071Y-17888714D01*
X10135214Y-17888714D01*
X10406643Y-17888714D02*
X10378071Y-17874429D01*
X10363786Y-17845857D01*
X10363786Y-17588714D01*
X10635214Y-17874429D02*
X10606643Y-17888714D01*
X10549500Y-17888714D01*
X10520928Y-17874429D01*
X10506643Y-17845857D01*
X10506643Y-17731572D01*
X10520928Y-17703000D01*
X10549500Y-17688714D01*
X10606643Y-17688714D01*
X10635214Y-17703000D01*
X10649500Y-17731572D01*
X10649500Y-17760143D01*
X10506643Y-17788714D01*
X10763786Y-17874429D02*
X10792357Y-17888714D01*
X10849500Y-17888714D01*
X10878071Y-17874429D01*
X10892357Y-17845857D01*
X10892357Y-17831572D01*
X10878071Y-17803000D01*
X10849500Y-17788714D01*
X10806643Y-17788714D01*
X10778071Y-17774429D01*
X10763786Y-17745857D01*
X10763786Y-17731572D01*
X10778071Y-17703000D01*
X10806643Y-17688714D01*
X10849500Y-17688714D01*
X10878071Y-17703000D01*
X10992357Y-18003000D02*
X11006643Y-17988714D01*
X11035214Y-17945857D01*
X11049500Y-17917286D01*
X11063786Y-17874429D01*
X11078071Y-17803000D01*
X11078071Y-17745857D01*
X11063786Y-17674429D01*
X11049500Y-17631572D01*
X11035214Y-17603000D01*
X11006643Y-17560143D01*
X10992357Y-17545857D01*
X3815500Y-18089500D02*
X3934500Y-18208500D01*
X3934500Y-18089500D02*
X3815500Y-18208500D01*
X3917073Y-18191073D02*
X3917073Y-18106927D01*
X3832927Y-18106927D01*
X3832927Y-18191073D01*
X3917073Y-18191073D01*
X4378071Y-18284714D02*
X4206643Y-18284714D01*
X4292357Y-18284714D02*
X4292357Y-17984714D01*
X4263786Y-18027572D01*
X4235214Y-18056143D01*
X4206643Y-18070429D01*
X4506643Y-18256143D02*
X4520928Y-18270429D01*
X4506643Y-18284714D01*
X4492357Y-18270429D01*
X4506643Y-18256143D01*
X4506643Y-18284714D01*
X4806643Y-18284714D02*
X4635214Y-18284714D01*
X4720928Y-18284714D02*
X4720928Y-17984714D01*
X4692357Y-18027572D01*
X4663786Y-18056143D01*
X4635214Y-18070429D01*
X4949500Y-18284714D02*
X5006643Y-18284714D01*
X5035214Y-18270429D01*
X5049500Y-18256143D01*
X5078071Y-18213286D01*
X5092357Y-18156143D01*
X5092357Y-18041857D01*
X5078071Y-18013286D01*
X5063786Y-17999000D01*
X5035214Y-17984714D01*
X4978071Y-17984714D01*
X4949500Y-17999000D01*
X4935214Y-18013286D01*
X4920928Y-18041857D01*
X4920928Y-18113286D01*
X4935214Y-18141857D01*
X4949500Y-18156143D01*
X4978071Y-18170429D01*
X5035214Y-18170429D01*
X5063786Y-18156143D01*
X5078071Y-18141857D01*
X5092357Y-18113286D01*
X5278071Y-17984714D02*
X5306643Y-17984714D01*
X5335214Y-17999000D01*
X5349500Y-18013286D01*
X5363786Y-18041857D01*
X5378071Y-18099000D01*
X5378071Y-18170429D01*
X5363786Y-18227572D01*
X5349500Y-18256143D01*
X5335214Y-18270429D01*
X5306643Y-18284714D01*
X5278071Y-18284714D01*
X5249500Y-18270429D01*
X5235214Y-18256143D01*
X5220928Y-18227572D01*
X5206643Y-18170429D01*
X5206643Y-18099000D01*
X5220928Y-18041857D01*
X5235214Y-18013286D01*
X5249500Y-17999000D01*
X5278071Y-17984714D01*
X5506643Y-18284714D02*
X5506643Y-18084714D01*
X5506643Y-18113286D02*
X5520928Y-18099000D01*
X5549500Y-18084714D01*
X5592357Y-18084714D01*
X5620928Y-18099000D01*
X5635214Y-18127572D01*
X5635214Y-18284714D01*
X5635214Y-18127572D02*
X5649500Y-18099000D01*
X5678071Y-18084714D01*
X5720928Y-18084714D01*
X5749500Y-18099000D01*
X5763786Y-18127572D01*
X5763786Y-18284714D01*
X5906643Y-18284714D02*
X5906643Y-18084714D01*
X5906643Y-18113286D02*
X5920928Y-18099000D01*
X5949500Y-18084714D01*
X5992357Y-18084714D01*
X6020928Y-18099000D01*
X6035214Y-18127572D01*
X6035214Y-18284714D01*
X6035214Y-18127572D02*
X6049500Y-18099000D01*
X6078071Y-18084714D01*
X6120928Y-18084714D01*
X6149500Y-18099000D01*
X6163786Y-18127572D01*
X6163786Y-18284714D01*
X6749500Y-17970429D02*
X6492357Y-18356143D01*
X7135214Y-17984714D02*
X7163786Y-17984714D01*
X7192357Y-17999000D01*
X7206643Y-18013286D01*
X7220928Y-18041857D01*
X7235214Y-18099000D01*
X7235214Y-18170429D01*
X7220928Y-18227572D01*
X7206643Y-18256143D01*
X7192357Y-18270429D01*
X7163786Y-18284714D01*
X7135214Y-18284714D01*
X7106643Y-18270429D01*
X7092357Y-18256143D01*
X7078071Y-18227572D01*
X7063786Y-18170429D01*
X7063786Y-18099000D01*
X7078071Y-18041857D01*
X7092357Y-18013286D01*
X7106643Y-17999000D01*
X7135214Y-17984714D01*
X7363786Y-18256143D02*
X7378071Y-18270429D01*
X7363786Y-18284714D01*
X7349500Y-18270429D01*
X7363786Y-18256143D01*
X7363786Y-18284714D01*
X7563786Y-17984714D02*
X7592357Y-17984714D01*
X7620928Y-17999000D01*
X7635214Y-18013286D01*
X7649500Y-18041857D01*
X7663786Y-18099000D01*
X7663786Y-18170429D01*
X7649500Y-18227572D01*
X7635214Y-18256143D01*
X7620928Y-18270429D01*
X7592357Y-18284714D01*
X7563786Y-18284714D01*
X7535214Y-18270429D01*
X7520928Y-18256143D01*
X7506643Y-18227572D01*
X7492357Y-18170429D01*
X7492357Y-18099000D01*
X7506643Y-18041857D01*
X7520928Y-18013286D01*
X7535214Y-17999000D01*
X7563786Y-17984714D01*
X7920928Y-18084714D02*
X7920928Y-18284714D01*
X7849500Y-17970429D02*
X7778071Y-18184714D01*
X7963786Y-18184714D01*
X8206643Y-17984714D02*
X8149500Y-17984714D01*
X8120928Y-17999000D01*
X8106643Y-18013286D01*
X8078071Y-18056143D01*
X8063786Y-18113286D01*
X8063786Y-18227572D01*
X8078071Y-18256143D01*
X8092357Y-18270429D01*
X8120928Y-18284714D01*
X8178071Y-18284714D01*
X8206643Y-18270429D01*
X8220928Y-18256143D01*
X8235214Y-18227572D01*
X8235214Y-18156143D01*
X8220928Y-18127572D01*
X8206643Y-18113286D01*
X8178071Y-18099000D01*
X8120928Y-18099000D01*
X8092357Y-18113286D01*
X8078071Y-18127572D01*
X8063786Y-18156143D01*
X8378071Y-18284714D02*
X8435214Y-18284714D01*
X8463786Y-18270429D01*
X8478071Y-18256143D01*
X8506643Y-18213286D01*
X8520928Y-18156143D01*
X8520928Y-18041857D01*
X8506643Y-18013286D01*
X8492357Y-17999000D01*
X8463786Y-17984714D01*
X8406643Y-17984714D01*
X8378071Y-17999000D01*
X8363786Y-18013286D01*
X8349500Y-18041857D01*
X8349500Y-18113286D01*
X8363786Y-18141857D01*
X8378071Y-18156143D01*
X8406643Y-18170429D01*
X8463786Y-18170429D01*
X8492357Y-18156143D01*
X8506643Y-18141857D01*
X8520928Y-18113286D01*
X8635214Y-17984714D02*
X8635214Y-18041857D01*
X8749500Y-17984714D02*
X8749500Y-18041857D01*
X9192357Y-18399000D02*
X9178071Y-18384714D01*
X9149500Y-18341857D01*
X9135214Y-18313286D01*
X9120928Y-18270429D01*
X9106643Y-18199000D01*
X9106643Y-18141857D01*
X9120928Y-18070429D01*
X9135214Y-18027572D01*
X9149500Y-17999000D01*
X9178071Y-17956143D01*
X9192357Y-17941857D01*
X9463786Y-18284714D02*
X9292357Y-18284714D01*
X9378071Y-18284714D02*
X9378071Y-17984714D01*
X9349500Y-18027572D01*
X9320928Y-18056143D01*
X9292357Y-18070429D01*
X9720928Y-18084714D02*
X9720928Y-18284714D01*
X9649500Y-17970429D02*
X9578071Y-18184714D01*
X9763786Y-18184714D01*
X10106643Y-18284714D02*
X10106643Y-17984714D01*
X10235214Y-18284714D02*
X10235214Y-18127572D01*
X10220928Y-18099000D01*
X10192357Y-18084714D01*
X10149500Y-18084714D01*
X10120928Y-18099000D01*
X10106643Y-18113286D01*
X10420928Y-18284714D02*
X10392357Y-18270429D01*
X10378071Y-18256143D01*
X10363786Y-18227572D01*
X10363786Y-18141857D01*
X10378071Y-18113286D01*
X10392357Y-18099000D01*
X10420928Y-18084714D01*
X10463786Y-18084714D01*
X10492357Y-18099000D01*
X10506643Y-18113286D01*
X10520928Y-18141857D01*
X10520928Y-18227572D01*
X10506643Y-18256143D01*
X10492357Y-18270429D01*
X10463786Y-18284714D01*
X10420928Y-18284714D01*
X10692357Y-18284714D02*
X10663786Y-18270429D01*
X10649500Y-18241857D01*
X10649500Y-17984714D01*
X10920928Y-18270429D02*
X10892357Y-18284714D01*
X10835214Y-18284714D01*
X10806643Y-18270429D01*
X10792357Y-18241857D01*
X10792357Y-18127572D01*
X10806643Y-18099000D01*
X10835214Y-18084714D01*
X10892357Y-18084714D01*
X10920928Y-18099000D01*
X10935214Y-18127572D01*
X10935214Y-18156143D01*
X10792357Y-18184714D01*
X11049500Y-18270429D02*
X11078071Y-18284714D01*
X11135214Y-18284714D01*
X11163786Y-18270429D01*
X11178071Y-18241857D01*
X11178071Y-18227572D01*
X11163786Y-18199000D01*
X11135214Y-18184714D01*
X11092357Y-18184714D01*
X11063786Y-18170429D01*
X11049500Y-18141857D01*
X11049500Y-18127572D01*
X11063786Y-18099000D01*
X11092357Y-18084714D01*
X11135214Y-18084714D01*
X11163786Y-18099000D01*
X11278071Y-18399000D02*
X11292357Y-18384714D01*
X11320928Y-18341857D01*
X11335214Y-18313286D01*
X11349500Y-18270429D01*
X11363786Y-18199000D01*
X11363786Y-18141857D01*
X11349500Y-18070429D01*
X11335214Y-18027572D01*
X11320928Y-17999000D01*
X11292357Y-17956143D01*
X11278071Y-17941857D01*
M02*
