G04 #@! TF.GenerationSoftware,KiCad,Pcbnew,(5.1.10)-1*
G04 #@! TF.CreationDate,2021-09-06T17:19:25-07:00*
G04 #@! TF.ProjectId,TBM930 - De-ice panel,54424d39-3330-4202-9d20-44652d696365,rev?*
G04 #@! TF.SameCoordinates,Original*
G04 #@! TF.FileFunction,Legend,Top*
G04 #@! TF.FilePolarity,Positive*
%FSLAX46Y46*%
G04 Gerber Fmt 4.6, Leading zero omitted, Abs format (unit mm)*
G04 Created by KiCad (PCBNEW (5.1.10)-1) date 2021-09-06 17:19:25*
%MOMM*%
%LPD*%
G01*
G04 APERTURE LIST*
%ADD10C,0.150000*%
%ADD11C,0.120000*%
%ADD12C,1.820000*%
%ADD13C,2.000000*%
%ADD14R,1.700000X1.700000*%
%ADD15O,1.700000X1.700000*%
%ADD16C,3.200000*%
%ADD17C,6.000000*%
%ADD18C,2.400000*%
%ADD19R,1.800000X1.800000*%
%ADD20C,1.800000*%
%ADD21O,1.740000X2.190000*%
%ADD22R,1.600000X1.600000*%
%ADD23O,1.600000X1.600000*%
%ADD24R,2.400000X2.400000*%
%ADD25C,1.600000*%
%ADD26R,3.500000X3.500000*%
%ADD27O,1.100000X1.700000*%
%ADD28O,1.400000X3.900000*%
G04 APERTURE END LIST*
D10*
X94650952Y-107397380D02*
X94174761Y-107397380D01*
X94174761Y-106397380D01*
X94841428Y-106397380D02*
X95412857Y-106397380D01*
X95127142Y-107397380D02*
X95127142Y-106397380D01*
X95698571Y-107349761D02*
X95841428Y-107397380D01*
X96079523Y-107397380D01*
X96174761Y-107349761D01*
X96222380Y-107302142D01*
X96270000Y-107206904D01*
X96270000Y-107111666D01*
X96222380Y-107016428D01*
X96174761Y-106968809D01*
X96079523Y-106921190D01*
X95889047Y-106873571D01*
X95793809Y-106825952D01*
X95746190Y-106778333D01*
X95698571Y-106683095D01*
X95698571Y-106587857D01*
X95746190Y-106492619D01*
X95793809Y-106445000D01*
X95889047Y-106397380D01*
X96127142Y-106397380D01*
X96270000Y-106445000D01*
X97317619Y-106397380D02*
X97889047Y-106397380D01*
X97603333Y-107397380D02*
X97603333Y-106397380D01*
X98222380Y-106873571D02*
X98555714Y-106873571D01*
X98698571Y-107397380D02*
X98222380Y-107397380D01*
X98222380Y-106397380D01*
X98698571Y-106397380D01*
X99079523Y-107349761D02*
X99222380Y-107397380D01*
X99460476Y-107397380D01*
X99555714Y-107349761D01*
X99603333Y-107302142D01*
X99650952Y-107206904D01*
X99650952Y-107111666D01*
X99603333Y-107016428D01*
X99555714Y-106968809D01*
X99460476Y-106921190D01*
X99270000Y-106873571D01*
X99174761Y-106825952D01*
X99127142Y-106778333D01*
X99079523Y-106683095D01*
X99079523Y-106587857D01*
X99127142Y-106492619D01*
X99174761Y-106445000D01*
X99270000Y-106397380D01*
X99508095Y-106397380D01*
X99650952Y-106445000D01*
X99936666Y-106397380D02*
X100508095Y-106397380D01*
X100222380Y-107397380D02*
X100222380Y-106397380D01*
X207153333Y-101925380D02*
X207153333Y-100925380D01*
X207629523Y-101925380D02*
X207629523Y-100925380D01*
X208200952Y-101925380D01*
X208200952Y-100925380D01*
X208677142Y-101401571D02*
X209010476Y-101401571D01*
X209153333Y-101925380D02*
X208677142Y-101925380D01*
X208677142Y-100925380D01*
X209153333Y-100925380D01*
X210153333Y-101925380D02*
X209820000Y-101449190D01*
X209581904Y-101925380D02*
X209581904Y-100925380D01*
X209962857Y-100925380D01*
X210058095Y-100973000D01*
X210105714Y-101020619D01*
X210153333Y-101115857D01*
X210153333Y-101258714D01*
X210105714Y-101353952D01*
X210058095Y-101401571D01*
X209962857Y-101449190D01*
X209581904Y-101449190D01*
X210439047Y-100925380D02*
X211010476Y-100925380D01*
X210724761Y-101925380D02*
X210724761Y-100925380D01*
X212058095Y-101877761D02*
X212200952Y-101925380D01*
X212439047Y-101925380D01*
X212534285Y-101877761D01*
X212581904Y-101830142D01*
X212629523Y-101734904D01*
X212629523Y-101639666D01*
X212581904Y-101544428D01*
X212534285Y-101496809D01*
X212439047Y-101449190D01*
X212248571Y-101401571D01*
X212153333Y-101353952D01*
X212105714Y-101306333D01*
X212058095Y-101211095D01*
X212058095Y-101115857D01*
X212105714Y-101020619D01*
X212153333Y-100973000D01*
X212248571Y-100925380D01*
X212486666Y-100925380D01*
X212629523Y-100973000D01*
X213058095Y-101401571D02*
X213391428Y-101401571D01*
X213534285Y-101925380D02*
X213058095Y-101925380D01*
X213058095Y-100925380D01*
X213534285Y-100925380D01*
X213962857Y-101925380D02*
X213962857Y-100925380D01*
X214343809Y-100925380D01*
X214439047Y-100973000D01*
X214486666Y-101020619D01*
X214534285Y-101115857D01*
X214534285Y-101258714D01*
X214486666Y-101353952D01*
X214439047Y-101401571D01*
X214343809Y-101449190D01*
X213962857Y-101449190D01*
X183007333Y-101925380D02*
X183007333Y-100925380D01*
X183388285Y-100925380D01*
X183483523Y-100973000D01*
X183531142Y-101020619D01*
X183578761Y-101115857D01*
X183578761Y-101258714D01*
X183531142Y-101353952D01*
X183483523Y-101401571D01*
X183388285Y-101449190D01*
X183007333Y-101449190D01*
X184007333Y-101925380D02*
X184007333Y-100925380D01*
X184340666Y-100925380D02*
X184912095Y-100925380D01*
X184626380Y-101925380D02*
X184626380Y-100925380D01*
X185435904Y-100925380D02*
X185626380Y-100925380D01*
X185721619Y-100973000D01*
X185816857Y-101068238D01*
X185864476Y-101258714D01*
X185864476Y-101592047D01*
X185816857Y-101782523D01*
X185721619Y-101877761D01*
X185626380Y-101925380D01*
X185435904Y-101925380D01*
X185340666Y-101877761D01*
X185245428Y-101782523D01*
X185197809Y-101592047D01*
X185197809Y-101258714D01*
X185245428Y-101068238D01*
X185340666Y-100973000D01*
X185435904Y-100925380D01*
X186150190Y-100925380D02*
X186721619Y-100925380D01*
X186435904Y-101925380D02*
X186435904Y-100925380D01*
X188388285Y-101925380D02*
X188054952Y-101449190D01*
X187816857Y-101925380D02*
X187816857Y-100925380D01*
X188197809Y-100925380D01*
X188293047Y-100973000D01*
X188340666Y-101020619D01*
X188388285Y-101115857D01*
X188388285Y-101258714D01*
X188340666Y-101353952D01*
X188293047Y-101401571D01*
X188197809Y-101449190D01*
X187816857Y-101449190D01*
X157448571Y-101925380D02*
X157448571Y-100925380D01*
X157829523Y-100925380D01*
X157924761Y-100973000D01*
X157972380Y-101020619D01*
X158020000Y-101115857D01*
X158020000Y-101258714D01*
X157972380Y-101353952D01*
X157924761Y-101401571D01*
X157829523Y-101449190D01*
X157448571Y-101449190D01*
X158448571Y-101925380D02*
X158448571Y-100925380D01*
X158781904Y-100925380D02*
X159353333Y-100925380D01*
X159067619Y-101925380D02*
X159067619Y-100925380D01*
X159877142Y-100925380D02*
X160067619Y-100925380D01*
X160162857Y-100973000D01*
X160258095Y-101068238D01*
X160305714Y-101258714D01*
X160305714Y-101592047D01*
X160258095Y-101782523D01*
X160162857Y-101877761D01*
X160067619Y-101925380D01*
X159877142Y-101925380D01*
X159781904Y-101877761D01*
X159686666Y-101782523D01*
X159639047Y-101592047D01*
X159639047Y-101258714D01*
X159686666Y-101068238D01*
X159781904Y-100973000D01*
X159877142Y-100925380D01*
X160591428Y-100925380D02*
X161162857Y-100925380D01*
X160877142Y-101925380D02*
X160877142Y-100925380D01*
X162734285Y-101925380D02*
X162258095Y-101925380D01*
X162258095Y-100925380D01*
X130334285Y-100925380D02*
X130572380Y-101925380D01*
X130762857Y-101211095D01*
X130953333Y-101925380D01*
X131191428Y-100925380D01*
X131572380Y-101925380D02*
X131572380Y-100925380D01*
X132048571Y-101925380D02*
X132048571Y-100925380D01*
X132620000Y-101925380D01*
X132620000Y-100925380D01*
X133096190Y-101925380D02*
X133096190Y-100925380D01*
X133334285Y-100925380D01*
X133477142Y-100973000D01*
X133572380Y-101068238D01*
X133620000Y-101163476D01*
X133667619Y-101353952D01*
X133667619Y-101496809D01*
X133620000Y-101687285D01*
X133572380Y-101782523D01*
X133477142Y-101877761D01*
X133334285Y-101925380D01*
X133096190Y-101925380D01*
X134048571Y-101877761D02*
X134191428Y-101925380D01*
X134429523Y-101925380D01*
X134524761Y-101877761D01*
X134572380Y-101830142D01*
X134620000Y-101734904D01*
X134620000Y-101639666D01*
X134572380Y-101544428D01*
X134524761Y-101496809D01*
X134429523Y-101449190D01*
X134239047Y-101401571D01*
X134143809Y-101353952D01*
X134096190Y-101306333D01*
X134048571Y-101211095D01*
X134048571Y-101115857D01*
X134096190Y-101020619D01*
X134143809Y-100973000D01*
X134239047Y-100925380D01*
X134477142Y-100925380D01*
X134620000Y-100973000D01*
X135048571Y-101925380D02*
X135048571Y-100925380D01*
X135048571Y-101401571D02*
X135620000Y-101401571D01*
X135620000Y-101925380D02*
X135620000Y-100925380D01*
X136096190Y-101925380D02*
X136096190Y-100925380D01*
X136572380Y-101401571D02*
X136905714Y-101401571D01*
X137048571Y-101925380D02*
X136572380Y-101925380D01*
X136572380Y-100925380D01*
X137048571Y-100925380D01*
X137953333Y-101925380D02*
X137477142Y-101925380D01*
X137477142Y-100925380D01*
X138286666Y-101925380D02*
X138286666Y-100925380D01*
X138524761Y-100925380D01*
X138667619Y-100973000D01*
X138762857Y-101068238D01*
X138810476Y-101163476D01*
X138858095Y-101353952D01*
X138858095Y-101496809D01*
X138810476Y-101687285D01*
X138762857Y-101782523D01*
X138667619Y-101877761D01*
X138524761Y-101925380D01*
X138286666Y-101925380D01*
X107688285Y-101925380D02*
X107688285Y-100925380D01*
X108069238Y-100925380D01*
X108164476Y-100973000D01*
X108212095Y-101020619D01*
X108259714Y-101115857D01*
X108259714Y-101258714D01*
X108212095Y-101353952D01*
X108164476Y-101401571D01*
X108069238Y-101449190D01*
X107688285Y-101449190D01*
X109259714Y-101925380D02*
X108926380Y-101449190D01*
X108688285Y-101925380D02*
X108688285Y-100925380D01*
X109069238Y-100925380D01*
X109164476Y-100973000D01*
X109212095Y-101020619D01*
X109259714Y-101115857D01*
X109259714Y-101258714D01*
X109212095Y-101353952D01*
X109164476Y-101401571D01*
X109069238Y-101449190D01*
X108688285Y-101449190D01*
X109878761Y-100925380D02*
X110069238Y-100925380D01*
X110164476Y-100973000D01*
X110259714Y-101068238D01*
X110307333Y-101258714D01*
X110307333Y-101592047D01*
X110259714Y-101782523D01*
X110164476Y-101877761D01*
X110069238Y-101925380D01*
X109878761Y-101925380D01*
X109783523Y-101877761D01*
X109688285Y-101782523D01*
X109640666Y-101592047D01*
X109640666Y-101258714D01*
X109688285Y-101068238D01*
X109783523Y-100973000D01*
X109878761Y-100925380D01*
X110735904Y-101925380D02*
X110735904Y-100925380D01*
X111116857Y-100925380D01*
X111212095Y-100973000D01*
X111259714Y-101020619D01*
X111307333Y-101115857D01*
X111307333Y-101258714D01*
X111259714Y-101353952D01*
X111212095Y-101401571D01*
X111116857Y-101449190D01*
X110735904Y-101449190D01*
X80439047Y-101925380D02*
X80439047Y-100925380D01*
X81486666Y-101830142D02*
X81439047Y-101877761D01*
X81296190Y-101925380D01*
X81200952Y-101925380D01*
X81058095Y-101877761D01*
X80962857Y-101782523D01*
X80915238Y-101687285D01*
X80867619Y-101496809D01*
X80867619Y-101353952D01*
X80915238Y-101163476D01*
X80962857Y-101068238D01*
X81058095Y-100973000D01*
X81200952Y-100925380D01*
X81296190Y-100925380D01*
X81439047Y-100973000D01*
X81486666Y-101020619D01*
X81915238Y-101401571D02*
X82248571Y-101401571D01*
X82391428Y-101925380D02*
X81915238Y-101925380D01*
X81915238Y-100925380D01*
X82391428Y-100925380D01*
X84058095Y-101925380D02*
X83581904Y-101925380D01*
X83581904Y-100925380D01*
X84391428Y-101925380D02*
X84391428Y-100925380D01*
X85391428Y-100973000D02*
X85296190Y-100925380D01*
X85153333Y-100925380D01*
X85010476Y-100973000D01*
X84915238Y-101068238D01*
X84867619Y-101163476D01*
X84820000Y-101353952D01*
X84820000Y-101496809D01*
X84867619Y-101687285D01*
X84915238Y-101782523D01*
X85010476Y-101877761D01*
X85153333Y-101925380D01*
X85248571Y-101925380D01*
X85391428Y-101877761D01*
X85439047Y-101830142D01*
X85439047Y-101496809D01*
X85248571Y-101496809D01*
X85867619Y-101925380D02*
X85867619Y-100925380D01*
X85867619Y-101401571D02*
X86439047Y-101401571D01*
X86439047Y-101925380D02*
X86439047Y-100925380D01*
X86772380Y-100925380D02*
X87343809Y-100925380D01*
X87058095Y-101925380D02*
X87058095Y-100925380D01*
X55062857Y-101639666D02*
X55539047Y-101639666D01*
X54967619Y-101925380D02*
X55300952Y-100925380D01*
X55634285Y-101925380D01*
X55967619Y-101925380D02*
X55967619Y-100925380D01*
X57015238Y-101925380D02*
X56681904Y-101449190D01*
X56443809Y-101925380D02*
X56443809Y-100925380D01*
X56824761Y-100925380D01*
X56920000Y-100973000D01*
X56967619Y-101020619D01*
X57015238Y-101115857D01*
X57015238Y-101258714D01*
X56967619Y-101353952D01*
X56920000Y-101401571D01*
X56824761Y-101449190D01*
X56443809Y-101449190D01*
X57777142Y-101401571D02*
X57443809Y-101401571D01*
X57443809Y-101925380D02*
X57443809Y-100925380D01*
X57920000Y-100925380D01*
X58872380Y-101925380D02*
X58539047Y-101449190D01*
X58300952Y-101925380D02*
X58300952Y-100925380D01*
X58681904Y-100925380D01*
X58777142Y-100973000D01*
X58824761Y-101020619D01*
X58872380Y-101115857D01*
X58872380Y-101258714D01*
X58824761Y-101353952D01*
X58777142Y-101401571D01*
X58681904Y-101449190D01*
X58300952Y-101449190D01*
X59253333Y-101639666D02*
X59729523Y-101639666D01*
X59158095Y-101925380D02*
X59491428Y-100925380D01*
X59824761Y-101925380D01*
X60158095Y-101925380D02*
X60158095Y-100925380D01*
X60491428Y-101639666D01*
X60824761Y-100925380D01*
X60824761Y-101925380D01*
X61300952Y-101401571D02*
X61634285Y-101401571D01*
X61777142Y-101925380D02*
X61300952Y-101925380D01*
X61300952Y-100925380D01*
X61777142Y-100925380D01*
D11*
X94770000Y-114645000D02*
X99270000Y-114645000D01*
X93520000Y-110645000D02*
X93520000Y-112145000D01*
X99270000Y-108145000D02*
X94770000Y-108145000D01*
X100520000Y-112145000D02*
X100520000Y-110645000D01*
X49510000Y-66400000D02*
X49510000Y-69490000D01*
X54570000Y-67945000D02*
G75*
G03*
X54570000Y-67945000I-2500000J0D01*
G01*
X55060000Y-67945462D02*
G75*
G03*
X49510000Y-66400170I-2990000J462D01*
G01*
X55060000Y-67944538D02*
G75*
G02*
X49510000Y-69489830I-2990000J-462D01*
G01*
X67270000Y-67945000D02*
G75*
G03*
X67270000Y-67945000I-2500000J0D01*
G01*
X62210000Y-66400000D02*
X62210000Y-69490000D01*
X67760000Y-67944538D02*
G75*
G02*
X62210000Y-69489830I-2990000J-462D01*
G01*
X67760000Y-67945462D02*
G75*
G03*
X62210000Y-66400170I-2990000J462D01*
G01*
X106660000Y-66400000D02*
X106660000Y-69490000D01*
X111720000Y-67945000D02*
G75*
G03*
X111720000Y-67945000I-2500000J0D01*
G01*
X112210000Y-67945462D02*
G75*
G03*
X106660000Y-66400170I-2990000J462D01*
G01*
X112210000Y-67944538D02*
G75*
G02*
X106660000Y-69489830I-2990000J-462D01*
G01*
X130770000Y-67945000D02*
G75*
G03*
X130770000Y-67945000I-2500000J0D01*
G01*
X125710000Y-66400000D02*
X125710000Y-69490000D01*
X131260000Y-67944538D02*
G75*
G02*
X125710000Y-69489830I-2990000J-462D01*
G01*
X131260000Y-67945462D02*
G75*
G03*
X125710000Y-66400170I-2990000J462D01*
G01*
X138410000Y-66400000D02*
X138410000Y-69490000D01*
X143470000Y-67945000D02*
G75*
G03*
X143470000Y-67945000I-2500000J0D01*
G01*
X143960000Y-67945462D02*
G75*
G03*
X138410000Y-66400170I-2990000J462D01*
G01*
X143960000Y-67944538D02*
G75*
G02*
X138410000Y-69489830I-2990000J-462D01*
G01*
X46325000Y-91112500D02*
X46725000Y-91112500D01*
X46525000Y-91312500D02*
X46525000Y-90912500D01*
X48760000Y-96022500D02*
X48760000Y-91962500D01*
X46490000Y-96022500D02*
X48760000Y-96022500D01*
X46490000Y-91962500D02*
X46490000Y-96022500D01*
X55970000Y-79405000D02*
X55970000Y-79005000D01*
X56170000Y-79205000D02*
X55770000Y-79205000D01*
X60880000Y-76970000D02*
X56820000Y-76970000D01*
X60880000Y-79240000D02*
X60880000Y-76970000D01*
X56820000Y-79240000D02*
X60880000Y-79240000D01*
X82220000Y-79240000D02*
X86280000Y-79240000D01*
X86280000Y-79240000D02*
X86280000Y-76970000D01*
X86280000Y-76970000D02*
X82220000Y-76970000D01*
X81570000Y-79205000D02*
X81170000Y-79205000D01*
X81370000Y-79405000D02*
X81370000Y-79005000D01*
X107620000Y-79240000D02*
X111680000Y-79240000D01*
X111680000Y-79240000D02*
X111680000Y-76970000D01*
X111680000Y-76970000D02*
X107620000Y-76970000D01*
X106970000Y-79205000D02*
X106570000Y-79205000D01*
X106770000Y-79405000D02*
X106770000Y-79005000D01*
X132170000Y-79405000D02*
X132170000Y-79005000D01*
X132370000Y-79205000D02*
X131970000Y-79205000D01*
X137080000Y-76970000D02*
X133020000Y-76970000D01*
X137080000Y-79240000D02*
X137080000Y-76970000D01*
X133020000Y-79240000D02*
X137080000Y-79240000D01*
X158420000Y-79240000D02*
X162480000Y-79240000D01*
X162480000Y-79240000D02*
X162480000Y-76970000D01*
X162480000Y-76970000D02*
X158420000Y-76970000D01*
X157770000Y-79205000D02*
X157370000Y-79205000D01*
X157570000Y-79405000D02*
X157570000Y-79005000D01*
X182970000Y-79405000D02*
X182970000Y-79005000D01*
X183170000Y-79205000D02*
X182770000Y-79205000D01*
X187880000Y-76970000D02*
X183820000Y-76970000D01*
X187880000Y-79240000D02*
X187880000Y-76970000D01*
X183820000Y-79240000D02*
X187880000Y-79240000D01*
X209220000Y-79240000D02*
X213280000Y-79240000D01*
X213280000Y-79240000D02*
X213280000Y-76970000D01*
X213280000Y-76970000D02*
X209220000Y-76970000D01*
X208570000Y-79205000D02*
X208170000Y-79205000D01*
X208370000Y-79405000D02*
X208370000Y-79005000D01*
X85395000Y-47490000D02*
X89455000Y-47490000D01*
X89455000Y-47490000D02*
X89455000Y-45220000D01*
X89455000Y-45220000D02*
X85395000Y-45220000D01*
X84745000Y-47455000D02*
X84345000Y-47455000D01*
X84545000Y-47655000D02*
X84545000Y-47255000D01*
X132170000Y-47655000D02*
X132170000Y-47255000D01*
X132370000Y-47455000D02*
X131970000Y-47455000D01*
X137080000Y-45220000D02*
X133020000Y-45220000D01*
X137080000Y-47490000D02*
X137080000Y-45220000D01*
X133020000Y-47490000D02*
X137080000Y-47490000D01*
X180645000Y-47490000D02*
X184705000Y-47490000D01*
X184705000Y-47490000D02*
X184705000Y-45220000D01*
X184705000Y-45220000D02*
X180645000Y-45220000D01*
X179995000Y-47455000D02*
X179595000Y-47455000D01*
X179795000Y-47655000D02*
X179795000Y-47255000D01*
X84545000Y-141635000D02*
X84545000Y-141235000D01*
X84745000Y-141435000D02*
X84345000Y-141435000D01*
X89455000Y-139200000D02*
X85395000Y-139200000D01*
X89455000Y-141470000D02*
X89455000Y-139200000D01*
X85395000Y-141470000D02*
X89455000Y-141470000D01*
X133020000Y-141470000D02*
X137080000Y-141470000D01*
X137080000Y-141470000D02*
X137080000Y-139200000D01*
X137080000Y-139200000D02*
X133020000Y-139200000D01*
X132370000Y-141435000D02*
X131970000Y-141435000D01*
X132170000Y-141635000D02*
X132170000Y-141235000D01*
X179795000Y-141635000D02*
X179795000Y-141235000D01*
X179995000Y-141435000D02*
X179595000Y-141435000D01*
X184705000Y-139200000D02*
X180645000Y-139200000D01*
X184705000Y-141470000D02*
X184705000Y-139200000D01*
X180645000Y-141470000D02*
X184705000Y-141470000D01*
X42045000Y-66345000D02*
X42045000Y-70405000D01*
X42045000Y-70405000D02*
X44315000Y-70405000D01*
X44315000Y-70405000D02*
X44315000Y-66345000D01*
X42080000Y-65695000D02*
X42080000Y-65295000D01*
X41880000Y-65495000D02*
X42280000Y-65495000D01*
X41880000Y-116295000D02*
X42280000Y-116295000D01*
X42080000Y-116495000D02*
X42080000Y-116095000D01*
X44315000Y-121205000D02*
X44315000Y-117145000D01*
X42045000Y-121205000D02*
X44315000Y-121205000D01*
X42045000Y-117145000D02*
X42045000Y-121205000D01*
X224925000Y-66345000D02*
X224925000Y-70405000D01*
X224925000Y-70405000D02*
X227195000Y-70405000D01*
X227195000Y-70405000D02*
X227195000Y-66345000D01*
X224960000Y-65695000D02*
X224960000Y-65295000D01*
X224760000Y-65495000D02*
X225160000Y-65495000D01*
X224760000Y-108040000D02*
X225160000Y-108040000D01*
X224960000Y-108240000D02*
X224960000Y-107840000D01*
X227195000Y-112950000D02*
X227195000Y-108890000D01*
X224925000Y-112950000D02*
X227195000Y-112950000D01*
X224925000Y-108890000D02*
X224925000Y-112950000D01*
D10*
X95686666Y-107149761D02*
X95829523Y-107197380D01*
X96067619Y-107197380D01*
X96162857Y-107149761D01*
X96210476Y-107102142D01*
X96258095Y-107006904D01*
X96258095Y-106911666D01*
X96210476Y-106816428D01*
X96162857Y-106768809D01*
X96067619Y-106721190D01*
X95877142Y-106673571D01*
X95781904Y-106625952D01*
X95734285Y-106578333D01*
X95686666Y-106483095D01*
X95686666Y-106387857D01*
X95734285Y-106292619D01*
X95781904Y-106245000D01*
X95877142Y-106197380D01*
X96115238Y-106197380D01*
X96258095Y-106245000D01*
X96591428Y-106197380D02*
X96829523Y-107197380D01*
X97020000Y-106483095D01*
X97210476Y-107197380D01*
X97448571Y-106197380D01*
X98353333Y-107197380D02*
X97781904Y-107197380D01*
X98067619Y-107197380D02*
X98067619Y-106197380D01*
X97972380Y-106340238D01*
X97877142Y-106435476D01*
X97781904Y-106483095D01*
X51331904Y-64437380D02*
X51331904Y-63437380D01*
X51570000Y-63437380D01*
X51712857Y-63485000D01*
X51808095Y-63580238D01*
X51855714Y-63675476D01*
X51903333Y-63865952D01*
X51903333Y-64008809D01*
X51855714Y-64199285D01*
X51808095Y-64294523D01*
X51712857Y-64389761D01*
X51570000Y-64437380D01*
X51331904Y-64437380D01*
X52760476Y-63770714D02*
X52760476Y-64437380D01*
X52522380Y-63389761D02*
X52284285Y-64104047D01*
X52903333Y-64104047D01*
X64031904Y-64437380D02*
X64031904Y-63437380D01*
X64270000Y-63437380D01*
X64412857Y-63485000D01*
X64508095Y-63580238D01*
X64555714Y-63675476D01*
X64603333Y-63865952D01*
X64603333Y-64008809D01*
X64555714Y-64199285D01*
X64508095Y-64294523D01*
X64412857Y-64389761D01*
X64270000Y-64437380D01*
X64031904Y-64437380D01*
X65508095Y-63437380D02*
X65031904Y-63437380D01*
X64984285Y-63913571D01*
X65031904Y-63865952D01*
X65127142Y-63818333D01*
X65365238Y-63818333D01*
X65460476Y-63865952D01*
X65508095Y-63913571D01*
X65555714Y-64008809D01*
X65555714Y-64246904D01*
X65508095Y-64342142D01*
X65460476Y-64389761D01*
X65365238Y-64437380D01*
X65127142Y-64437380D01*
X65031904Y-64389761D01*
X64984285Y-64342142D01*
X108481904Y-64437380D02*
X108481904Y-63437380D01*
X108720000Y-63437380D01*
X108862857Y-63485000D01*
X108958095Y-63580238D01*
X109005714Y-63675476D01*
X109053333Y-63865952D01*
X109053333Y-64008809D01*
X109005714Y-64199285D01*
X108958095Y-64294523D01*
X108862857Y-64389761D01*
X108720000Y-64437380D01*
X108481904Y-64437380D01*
X109910476Y-63437380D02*
X109720000Y-63437380D01*
X109624761Y-63485000D01*
X109577142Y-63532619D01*
X109481904Y-63675476D01*
X109434285Y-63865952D01*
X109434285Y-64246904D01*
X109481904Y-64342142D01*
X109529523Y-64389761D01*
X109624761Y-64437380D01*
X109815238Y-64437380D01*
X109910476Y-64389761D01*
X109958095Y-64342142D01*
X110005714Y-64246904D01*
X110005714Y-64008809D01*
X109958095Y-63913571D01*
X109910476Y-63865952D01*
X109815238Y-63818333D01*
X109624761Y-63818333D01*
X109529523Y-63865952D01*
X109481904Y-63913571D01*
X109434285Y-64008809D01*
X127531904Y-64437380D02*
X127531904Y-63437380D01*
X127770000Y-63437380D01*
X127912857Y-63485000D01*
X128008095Y-63580238D01*
X128055714Y-63675476D01*
X128103333Y-63865952D01*
X128103333Y-64008809D01*
X128055714Y-64199285D01*
X128008095Y-64294523D01*
X127912857Y-64389761D01*
X127770000Y-64437380D01*
X127531904Y-64437380D01*
X128436666Y-63437380D02*
X129103333Y-63437380D01*
X128674761Y-64437380D01*
X140231904Y-64437380D02*
X140231904Y-63437380D01*
X140470000Y-63437380D01*
X140612857Y-63485000D01*
X140708095Y-63580238D01*
X140755714Y-63675476D01*
X140803333Y-63865952D01*
X140803333Y-64008809D01*
X140755714Y-64199285D01*
X140708095Y-64294523D01*
X140612857Y-64389761D01*
X140470000Y-64437380D01*
X140231904Y-64437380D01*
X141374761Y-63865952D02*
X141279523Y-63818333D01*
X141231904Y-63770714D01*
X141184285Y-63675476D01*
X141184285Y-63627857D01*
X141231904Y-63532619D01*
X141279523Y-63485000D01*
X141374761Y-63437380D01*
X141565238Y-63437380D01*
X141660476Y-63485000D01*
X141708095Y-63532619D01*
X141755714Y-63627857D01*
X141755714Y-63675476D01*
X141708095Y-63770714D01*
X141660476Y-63818333D01*
X141565238Y-63865952D01*
X141374761Y-63865952D01*
X141279523Y-63913571D01*
X141231904Y-63961190D01*
X141184285Y-64056428D01*
X141184285Y-64246904D01*
X141231904Y-64342142D01*
X141279523Y-64389761D01*
X141374761Y-64437380D01*
X141565238Y-64437380D01*
X141660476Y-64389761D01*
X141708095Y-64342142D01*
X141755714Y-64246904D01*
X141755714Y-64056428D01*
X141708095Y-63961190D01*
X141660476Y-63913571D01*
X141565238Y-63865952D01*
X46257380Y-94300595D02*
X45257380Y-94300595D01*
X45257380Y-94062500D01*
X45305000Y-93919642D01*
X45400238Y-93824404D01*
X45495476Y-93776785D01*
X45685952Y-93729166D01*
X45828809Y-93729166D01*
X46019285Y-93776785D01*
X46114523Y-93824404D01*
X46209761Y-93919642D01*
X46257380Y-94062500D01*
X46257380Y-94300595D01*
X46257380Y-93252976D02*
X46257380Y-93062500D01*
X46209761Y-92967261D01*
X46162142Y-92919642D01*
X46019285Y-92824404D01*
X45828809Y-92776785D01*
X45447857Y-92776785D01*
X45352619Y-92824404D01*
X45305000Y-92872023D01*
X45257380Y-92967261D01*
X45257380Y-93157738D01*
X45305000Y-93252976D01*
X45352619Y-93300595D01*
X45447857Y-93348214D01*
X45685952Y-93348214D01*
X45781190Y-93300595D01*
X45828809Y-93252976D01*
X45876428Y-93157738D01*
X45876428Y-92967261D01*
X45828809Y-92872023D01*
X45781190Y-92824404D01*
X45685952Y-92776785D01*
X57205714Y-80377380D02*
X57205714Y-79377380D01*
X57443809Y-79377380D01*
X57586666Y-79425000D01*
X57681904Y-79520238D01*
X57729523Y-79615476D01*
X57777142Y-79805952D01*
X57777142Y-79948809D01*
X57729523Y-80139285D01*
X57681904Y-80234523D01*
X57586666Y-80329761D01*
X57443809Y-80377380D01*
X57205714Y-80377380D01*
X58729523Y-80377380D02*
X58158095Y-80377380D01*
X58443809Y-80377380D02*
X58443809Y-79377380D01*
X58348571Y-79520238D01*
X58253333Y-79615476D01*
X58158095Y-79663095D01*
X59348571Y-79377380D02*
X59443809Y-79377380D01*
X59539047Y-79425000D01*
X59586666Y-79472619D01*
X59634285Y-79567857D01*
X59681904Y-79758333D01*
X59681904Y-79996428D01*
X59634285Y-80186904D01*
X59586666Y-80282142D01*
X59539047Y-80329761D01*
X59443809Y-80377380D01*
X59348571Y-80377380D01*
X59253333Y-80329761D01*
X59205714Y-80282142D01*
X59158095Y-80186904D01*
X59110476Y-79996428D01*
X59110476Y-79758333D01*
X59158095Y-79567857D01*
X59205714Y-79472619D01*
X59253333Y-79425000D01*
X59348571Y-79377380D01*
X82605714Y-80377380D02*
X82605714Y-79377380D01*
X82843809Y-79377380D01*
X82986666Y-79425000D01*
X83081904Y-79520238D01*
X83129523Y-79615476D01*
X83177142Y-79805952D01*
X83177142Y-79948809D01*
X83129523Y-80139285D01*
X83081904Y-80234523D01*
X82986666Y-80329761D01*
X82843809Y-80377380D01*
X82605714Y-80377380D01*
X84129523Y-80377380D02*
X83558095Y-80377380D01*
X83843809Y-80377380D02*
X83843809Y-79377380D01*
X83748571Y-79520238D01*
X83653333Y-79615476D01*
X83558095Y-79663095D01*
X85081904Y-80377380D02*
X84510476Y-80377380D01*
X84796190Y-80377380D02*
X84796190Y-79377380D01*
X84700952Y-79520238D01*
X84605714Y-79615476D01*
X84510476Y-79663095D01*
X108005714Y-80377380D02*
X108005714Y-79377380D01*
X108243809Y-79377380D01*
X108386666Y-79425000D01*
X108481904Y-79520238D01*
X108529523Y-79615476D01*
X108577142Y-79805952D01*
X108577142Y-79948809D01*
X108529523Y-80139285D01*
X108481904Y-80234523D01*
X108386666Y-80329761D01*
X108243809Y-80377380D01*
X108005714Y-80377380D01*
X109529523Y-80377380D02*
X108958095Y-80377380D01*
X109243809Y-80377380D02*
X109243809Y-79377380D01*
X109148571Y-79520238D01*
X109053333Y-79615476D01*
X108958095Y-79663095D01*
X109910476Y-79472619D02*
X109958095Y-79425000D01*
X110053333Y-79377380D01*
X110291428Y-79377380D01*
X110386666Y-79425000D01*
X110434285Y-79472619D01*
X110481904Y-79567857D01*
X110481904Y-79663095D01*
X110434285Y-79805952D01*
X109862857Y-80377380D01*
X110481904Y-80377380D01*
X133405714Y-80377380D02*
X133405714Y-79377380D01*
X133643809Y-79377380D01*
X133786666Y-79425000D01*
X133881904Y-79520238D01*
X133929523Y-79615476D01*
X133977142Y-79805952D01*
X133977142Y-79948809D01*
X133929523Y-80139285D01*
X133881904Y-80234523D01*
X133786666Y-80329761D01*
X133643809Y-80377380D01*
X133405714Y-80377380D01*
X134929523Y-80377380D02*
X134358095Y-80377380D01*
X134643809Y-80377380D02*
X134643809Y-79377380D01*
X134548571Y-79520238D01*
X134453333Y-79615476D01*
X134358095Y-79663095D01*
X135262857Y-79377380D02*
X135881904Y-79377380D01*
X135548571Y-79758333D01*
X135691428Y-79758333D01*
X135786666Y-79805952D01*
X135834285Y-79853571D01*
X135881904Y-79948809D01*
X135881904Y-80186904D01*
X135834285Y-80282142D01*
X135786666Y-80329761D01*
X135691428Y-80377380D01*
X135405714Y-80377380D01*
X135310476Y-80329761D01*
X135262857Y-80282142D01*
X158805714Y-80377380D02*
X158805714Y-79377380D01*
X159043809Y-79377380D01*
X159186666Y-79425000D01*
X159281904Y-79520238D01*
X159329523Y-79615476D01*
X159377142Y-79805952D01*
X159377142Y-79948809D01*
X159329523Y-80139285D01*
X159281904Y-80234523D01*
X159186666Y-80329761D01*
X159043809Y-80377380D01*
X158805714Y-80377380D01*
X160329523Y-80377380D02*
X159758095Y-80377380D01*
X160043809Y-80377380D02*
X160043809Y-79377380D01*
X159948571Y-79520238D01*
X159853333Y-79615476D01*
X159758095Y-79663095D01*
X161186666Y-79710714D02*
X161186666Y-80377380D01*
X160948571Y-79329761D02*
X160710476Y-80044047D01*
X161329523Y-80044047D01*
X184205714Y-80377380D02*
X184205714Y-79377380D01*
X184443809Y-79377380D01*
X184586666Y-79425000D01*
X184681904Y-79520238D01*
X184729523Y-79615476D01*
X184777142Y-79805952D01*
X184777142Y-79948809D01*
X184729523Y-80139285D01*
X184681904Y-80234523D01*
X184586666Y-80329761D01*
X184443809Y-80377380D01*
X184205714Y-80377380D01*
X185729523Y-80377380D02*
X185158095Y-80377380D01*
X185443809Y-80377380D02*
X185443809Y-79377380D01*
X185348571Y-79520238D01*
X185253333Y-79615476D01*
X185158095Y-79663095D01*
X186634285Y-79377380D02*
X186158095Y-79377380D01*
X186110476Y-79853571D01*
X186158095Y-79805952D01*
X186253333Y-79758333D01*
X186491428Y-79758333D01*
X186586666Y-79805952D01*
X186634285Y-79853571D01*
X186681904Y-79948809D01*
X186681904Y-80186904D01*
X186634285Y-80282142D01*
X186586666Y-80329761D01*
X186491428Y-80377380D01*
X186253333Y-80377380D01*
X186158095Y-80329761D01*
X186110476Y-80282142D01*
X209605714Y-80377380D02*
X209605714Y-79377380D01*
X209843809Y-79377380D01*
X209986666Y-79425000D01*
X210081904Y-79520238D01*
X210129523Y-79615476D01*
X210177142Y-79805952D01*
X210177142Y-79948809D01*
X210129523Y-80139285D01*
X210081904Y-80234523D01*
X209986666Y-80329761D01*
X209843809Y-80377380D01*
X209605714Y-80377380D01*
X211129523Y-80377380D02*
X210558095Y-80377380D01*
X210843809Y-80377380D02*
X210843809Y-79377380D01*
X210748571Y-79520238D01*
X210653333Y-79615476D01*
X210558095Y-79663095D01*
X211986666Y-79377380D02*
X211796190Y-79377380D01*
X211700952Y-79425000D01*
X211653333Y-79472619D01*
X211558095Y-79615476D01*
X211510476Y-79805952D01*
X211510476Y-80186904D01*
X211558095Y-80282142D01*
X211605714Y-80329761D01*
X211700952Y-80377380D01*
X211891428Y-80377380D01*
X211986666Y-80329761D01*
X212034285Y-80282142D01*
X212081904Y-80186904D01*
X212081904Y-79948809D01*
X212034285Y-79853571D01*
X211986666Y-79805952D01*
X211891428Y-79758333D01*
X211700952Y-79758333D01*
X211605714Y-79805952D01*
X211558095Y-79853571D01*
X211510476Y-79948809D01*
X85780714Y-48627380D02*
X85780714Y-47627380D01*
X86018809Y-47627380D01*
X86161666Y-47675000D01*
X86256904Y-47770238D01*
X86304523Y-47865476D01*
X86352142Y-48055952D01*
X86352142Y-48198809D01*
X86304523Y-48389285D01*
X86256904Y-48484523D01*
X86161666Y-48579761D01*
X86018809Y-48627380D01*
X85780714Y-48627380D01*
X87304523Y-48627380D02*
X86733095Y-48627380D01*
X87018809Y-48627380D02*
X87018809Y-47627380D01*
X86923571Y-47770238D01*
X86828333Y-47865476D01*
X86733095Y-47913095D01*
X87875952Y-48055952D02*
X87780714Y-48008333D01*
X87733095Y-47960714D01*
X87685476Y-47865476D01*
X87685476Y-47817857D01*
X87733095Y-47722619D01*
X87780714Y-47675000D01*
X87875952Y-47627380D01*
X88066428Y-47627380D01*
X88161666Y-47675000D01*
X88209285Y-47722619D01*
X88256904Y-47817857D01*
X88256904Y-47865476D01*
X88209285Y-47960714D01*
X88161666Y-48008333D01*
X88066428Y-48055952D01*
X87875952Y-48055952D01*
X87780714Y-48103571D01*
X87733095Y-48151190D01*
X87685476Y-48246428D01*
X87685476Y-48436904D01*
X87733095Y-48532142D01*
X87780714Y-48579761D01*
X87875952Y-48627380D01*
X88066428Y-48627380D01*
X88161666Y-48579761D01*
X88209285Y-48532142D01*
X88256904Y-48436904D01*
X88256904Y-48246428D01*
X88209285Y-48151190D01*
X88161666Y-48103571D01*
X88066428Y-48055952D01*
X133405714Y-48627380D02*
X133405714Y-47627380D01*
X133643809Y-47627380D01*
X133786666Y-47675000D01*
X133881904Y-47770238D01*
X133929523Y-47865476D01*
X133977142Y-48055952D01*
X133977142Y-48198809D01*
X133929523Y-48389285D01*
X133881904Y-48484523D01*
X133786666Y-48579761D01*
X133643809Y-48627380D01*
X133405714Y-48627380D01*
X134929523Y-48627380D02*
X134358095Y-48627380D01*
X134643809Y-48627380D02*
X134643809Y-47627380D01*
X134548571Y-47770238D01*
X134453333Y-47865476D01*
X134358095Y-47913095D01*
X135405714Y-48627380D02*
X135596190Y-48627380D01*
X135691428Y-48579761D01*
X135739047Y-48532142D01*
X135834285Y-48389285D01*
X135881904Y-48198809D01*
X135881904Y-47817857D01*
X135834285Y-47722619D01*
X135786666Y-47675000D01*
X135691428Y-47627380D01*
X135500952Y-47627380D01*
X135405714Y-47675000D01*
X135358095Y-47722619D01*
X135310476Y-47817857D01*
X135310476Y-48055952D01*
X135358095Y-48151190D01*
X135405714Y-48198809D01*
X135500952Y-48246428D01*
X135691428Y-48246428D01*
X135786666Y-48198809D01*
X135834285Y-48151190D01*
X135881904Y-48055952D01*
X181030714Y-48627380D02*
X181030714Y-47627380D01*
X181268809Y-47627380D01*
X181411666Y-47675000D01*
X181506904Y-47770238D01*
X181554523Y-47865476D01*
X181602142Y-48055952D01*
X181602142Y-48198809D01*
X181554523Y-48389285D01*
X181506904Y-48484523D01*
X181411666Y-48579761D01*
X181268809Y-48627380D01*
X181030714Y-48627380D01*
X181983095Y-47722619D02*
X182030714Y-47675000D01*
X182125952Y-47627380D01*
X182364047Y-47627380D01*
X182459285Y-47675000D01*
X182506904Y-47722619D01*
X182554523Y-47817857D01*
X182554523Y-47913095D01*
X182506904Y-48055952D01*
X181935476Y-48627380D01*
X182554523Y-48627380D01*
X183173571Y-47627380D02*
X183268809Y-47627380D01*
X183364047Y-47675000D01*
X183411666Y-47722619D01*
X183459285Y-47817857D01*
X183506904Y-48008333D01*
X183506904Y-48246428D01*
X183459285Y-48436904D01*
X183411666Y-48532142D01*
X183364047Y-48579761D01*
X183268809Y-48627380D01*
X183173571Y-48627380D01*
X183078333Y-48579761D01*
X183030714Y-48532142D01*
X182983095Y-48436904D01*
X182935476Y-48246428D01*
X182935476Y-48008333D01*
X182983095Y-47817857D01*
X183030714Y-47722619D01*
X183078333Y-47675000D01*
X183173571Y-47627380D01*
X85780714Y-142607380D02*
X85780714Y-141607380D01*
X86018809Y-141607380D01*
X86161666Y-141655000D01*
X86256904Y-141750238D01*
X86304523Y-141845476D01*
X86352142Y-142035952D01*
X86352142Y-142178809D01*
X86304523Y-142369285D01*
X86256904Y-142464523D01*
X86161666Y-142559761D01*
X86018809Y-142607380D01*
X85780714Y-142607380D01*
X86733095Y-141702619D02*
X86780714Y-141655000D01*
X86875952Y-141607380D01*
X87114047Y-141607380D01*
X87209285Y-141655000D01*
X87256904Y-141702619D01*
X87304523Y-141797857D01*
X87304523Y-141893095D01*
X87256904Y-142035952D01*
X86685476Y-142607380D01*
X87304523Y-142607380D01*
X88256904Y-142607380D02*
X87685476Y-142607380D01*
X87971190Y-142607380D02*
X87971190Y-141607380D01*
X87875952Y-141750238D01*
X87780714Y-141845476D01*
X87685476Y-141893095D01*
X133405714Y-142607380D02*
X133405714Y-141607380D01*
X133643809Y-141607380D01*
X133786666Y-141655000D01*
X133881904Y-141750238D01*
X133929523Y-141845476D01*
X133977142Y-142035952D01*
X133977142Y-142178809D01*
X133929523Y-142369285D01*
X133881904Y-142464523D01*
X133786666Y-142559761D01*
X133643809Y-142607380D01*
X133405714Y-142607380D01*
X134358095Y-141702619D02*
X134405714Y-141655000D01*
X134500952Y-141607380D01*
X134739047Y-141607380D01*
X134834285Y-141655000D01*
X134881904Y-141702619D01*
X134929523Y-141797857D01*
X134929523Y-141893095D01*
X134881904Y-142035952D01*
X134310476Y-142607380D01*
X134929523Y-142607380D01*
X135310476Y-141702619D02*
X135358095Y-141655000D01*
X135453333Y-141607380D01*
X135691428Y-141607380D01*
X135786666Y-141655000D01*
X135834285Y-141702619D01*
X135881904Y-141797857D01*
X135881904Y-141893095D01*
X135834285Y-142035952D01*
X135262857Y-142607380D01*
X135881904Y-142607380D01*
X181030714Y-142607380D02*
X181030714Y-141607380D01*
X181268809Y-141607380D01*
X181411666Y-141655000D01*
X181506904Y-141750238D01*
X181554523Y-141845476D01*
X181602142Y-142035952D01*
X181602142Y-142178809D01*
X181554523Y-142369285D01*
X181506904Y-142464523D01*
X181411666Y-142559761D01*
X181268809Y-142607380D01*
X181030714Y-142607380D01*
X181983095Y-141702619D02*
X182030714Y-141655000D01*
X182125952Y-141607380D01*
X182364047Y-141607380D01*
X182459285Y-141655000D01*
X182506904Y-141702619D01*
X182554523Y-141797857D01*
X182554523Y-141893095D01*
X182506904Y-142035952D01*
X181935476Y-142607380D01*
X182554523Y-142607380D01*
X182887857Y-141607380D02*
X183506904Y-141607380D01*
X183173571Y-141988333D01*
X183316428Y-141988333D01*
X183411666Y-142035952D01*
X183459285Y-142083571D01*
X183506904Y-142178809D01*
X183506904Y-142416904D01*
X183459285Y-142512142D01*
X183411666Y-142559761D01*
X183316428Y-142607380D01*
X183030714Y-142607380D01*
X182935476Y-142559761D01*
X182887857Y-142512142D01*
X41812380Y-69159285D02*
X40812380Y-69159285D01*
X40812380Y-68921190D01*
X40860000Y-68778333D01*
X40955238Y-68683095D01*
X41050476Y-68635476D01*
X41240952Y-68587857D01*
X41383809Y-68587857D01*
X41574285Y-68635476D01*
X41669523Y-68683095D01*
X41764761Y-68778333D01*
X41812380Y-68921190D01*
X41812380Y-69159285D01*
X40907619Y-68206904D02*
X40860000Y-68159285D01*
X40812380Y-68064047D01*
X40812380Y-67825952D01*
X40860000Y-67730714D01*
X40907619Y-67683095D01*
X41002857Y-67635476D01*
X41098095Y-67635476D01*
X41240952Y-67683095D01*
X41812380Y-68254523D01*
X41812380Y-67635476D01*
X41145714Y-66778333D02*
X41812380Y-66778333D01*
X40764761Y-67016428D02*
X41479047Y-67254523D01*
X41479047Y-66635476D01*
X41812380Y-119959285D02*
X40812380Y-119959285D01*
X40812380Y-119721190D01*
X40860000Y-119578333D01*
X40955238Y-119483095D01*
X41050476Y-119435476D01*
X41240952Y-119387857D01*
X41383809Y-119387857D01*
X41574285Y-119435476D01*
X41669523Y-119483095D01*
X41764761Y-119578333D01*
X41812380Y-119721190D01*
X41812380Y-119959285D01*
X40907619Y-119006904D02*
X40860000Y-118959285D01*
X40812380Y-118864047D01*
X40812380Y-118625952D01*
X40860000Y-118530714D01*
X40907619Y-118483095D01*
X41002857Y-118435476D01*
X41098095Y-118435476D01*
X41240952Y-118483095D01*
X41812380Y-119054523D01*
X41812380Y-118435476D01*
X40812380Y-117530714D02*
X40812380Y-118006904D01*
X41288571Y-118054523D01*
X41240952Y-118006904D01*
X41193333Y-117911666D01*
X41193333Y-117673571D01*
X41240952Y-117578333D01*
X41288571Y-117530714D01*
X41383809Y-117483095D01*
X41621904Y-117483095D01*
X41717142Y-117530714D01*
X41764761Y-117578333D01*
X41812380Y-117673571D01*
X41812380Y-117911666D01*
X41764761Y-118006904D01*
X41717142Y-118054523D01*
X224692380Y-69159285D02*
X223692380Y-69159285D01*
X223692380Y-68921190D01*
X223740000Y-68778333D01*
X223835238Y-68683095D01*
X223930476Y-68635476D01*
X224120952Y-68587857D01*
X224263809Y-68587857D01*
X224454285Y-68635476D01*
X224549523Y-68683095D01*
X224644761Y-68778333D01*
X224692380Y-68921190D01*
X224692380Y-69159285D01*
X223787619Y-68206904D02*
X223740000Y-68159285D01*
X223692380Y-68064047D01*
X223692380Y-67825952D01*
X223740000Y-67730714D01*
X223787619Y-67683095D01*
X223882857Y-67635476D01*
X223978095Y-67635476D01*
X224120952Y-67683095D01*
X224692380Y-68254523D01*
X224692380Y-67635476D01*
X223692380Y-66778333D02*
X223692380Y-66968809D01*
X223740000Y-67064047D01*
X223787619Y-67111666D01*
X223930476Y-67206904D01*
X224120952Y-67254523D01*
X224501904Y-67254523D01*
X224597142Y-67206904D01*
X224644761Y-67159285D01*
X224692380Y-67064047D01*
X224692380Y-66873571D01*
X224644761Y-66778333D01*
X224597142Y-66730714D01*
X224501904Y-66683095D01*
X224263809Y-66683095D01*
X224168571Y-66730714D01*
X224120952Y-66778333D01*
X224073333Y-66873571D01*
X224073333Y-67064047D01*
X224120952Y-67159285D01*
X224168571Y-67206904D01*
X224263809Y-67254523D01*
X224692380Y-111704285D02*
X223692380Y-111704285D01*
X223692380Y-111466190D01*
X223740000Y-111323333D01*
X223835238Y-111228095D01*
X223930476Y-111180476D01*
X224120952Y-111132857D01*
X224263809Y-111132857D01*
X224454285Y-111180476D01*
X224549523Y-111228095D01*
X224644761Y-111323333D01*
X224692380Y-111466190D01*
X224692380Y-111704285D01*
X223787619Y-110751904D02*
X223740000Y-110704285D01*
X223692380Y-110609047D01*
X223692380Y-110370952D01*
X223740000Y-110275714D01*
X223787619Y-110228095D01*
X223882857Y-110180476D01*
X223978095Y-110180476D01*
X224120952Y-110228095D01*
X224692380Y-110799523D01*
X224692380Y-110180476D01*
X223692380Y-109847142D02*
X223692380Y-109180476D01*
X224692380Y-109609047D01*
%LPC*%
D12*
X226470000Y-140445000D03*
X226370000Y-45445000D03*
X42370000Y-45445000D03*
D13*
X172720000Y-136072000D03*
X172720000Y-131572000D03*
X166220000Y-136072000D03*
X166220000Y-131572000D03*
D14*
X185070000Y-135095000D03*
D15*
X185070000Y-132555000D03*
X182530000Y-135095000D03*
X182530000Y-132555000D03*
X179990000Y-135095000D03*
X179990000Y-132555000D03*
D13*
X100270000Y-109145000D03*
X100270000Y-113645000D03*
X93770000Y-109145000D03*
X93770000Y-113645000D03*
D16*
X220345000Y-137795000D03*
X220345000Y-52070000D03*
X48895000Y-137795000D03*
X48895000Y-52070000D03*
D17*
X210820000Y-93345000D03*
D18*
X210820000Y-86945000D03*
D17*
X185420000Y-93345000D03*
D18*
X185420000Y-86945000D03*
D17*
X160020000Y-93345000D03*
D18*
X160020000Y-86945000D03*
D17*
X134620000Y-93345000D03*
D18*
X134620000Y-86945000D03*
D17*
X109220000Y-93345000D03*
D18*
X109220000Y-86945000D03*
D17*
X83820000Y-93345000D03*
D18*
X83820000Y-86945000D03*
D17*
X58420000Y-93345000D03*
D18*
X58420000Y-86945000D03*
D19*
X50800000Y-67945000D03*
D20*
X53340000Y-67945000D03*
X66040000Y-67945000D03*
D19*
X63500000Y-67945000D03*
X107950000Y-67945000D03*
D20*
X110490000Y-67945000D03*
X129540000Y-67945000D03*
D19*
X127000000Y-67945000D03*
X139700000Y-67945000D03*
D20*
X142240000Y-67945000D03*
G36*
G01*
X60560000Y-107104999D02*
X60560000Y-108795001D01*
G75*
G02*
X60310001Y-109045000I-249999J0D01*
G01*
X59069999Y-109045000D01*
G75*
G02*
X58820000Y-108795001I0J249999D01*
G01*
X58820000Y-107104999D01*
G75*
G02*
X59069999Y-106855000I249999J0D01*
G01*
X60310001Y-106855000D01*
G75*
G02*
X60560000Y-107104999I0J-249999D01*
G01*
G37*
D21*
X57150000Y-107950000D03*
X82550000Y-107950000D03*
G36*
G01*
X85960000Y-107104999D02*
X85960000Y-108795001D01*
G75*
G02*
X85710001Y-109045000I-249999J0D01*
G01*
X84469999Y-109045000D01*
G75*
G02*
X84220000Y-108795001I0J249999D01*
G01*
X84220000Y-107104999D01*
G75*
G02*
X84469999Y-106855000I249999J0D01*
G01*
X85710001Y-106855000D01*
G75*
G02*
X85960000Y-107104999I0J-249999D01*
G01*
G37*
G36*
G01*
X111360000Y-107104999D02*
X111360000Y-108795001D01*
G75*
G02*
X111110001Y-109045000I-249999J0D01*
G01*
X109869999Y-109045000D01*
G75*
G02*
X109620000Y-108795001I0J249999D01*
G01*
X109620000Y-107104999D01*
G75*
G02*
X109869999Y-106855000I249999J0D01*
G01*
X111110001Y-106855000D01*
G75*
G02*
X111360000Y-107104999I0J-249999D01*
G01*
G37*
X107950000Y-107950000D03*
X133350000Y-107950000D03*
G36*
G01*
X136760000Y-107104999D02*
X136760000Y-108795001D01*
G75*
G02*
X136510001Y-109045000I-249999J0D01*
G01*
X135269999Y-109045000D01*
G75*
G02*
X135020000Y-108795001I0J249999D01*
G01*
X135020000Y-107104999D01*
G75*
G02*
X135269999Y-106855000I249999J0D01*
G01*
X136510001Y-106855000D01*
G75*
G02*
X136760000Y-107104999I0J-249999D01*
G01*
G37*
G36*
G01*
X162160000Y-107104999D02*
X162160000Y-108795001D01*
G75*
G02*
X161910001Y-109045000I-249999J0D01*
G01*
X160669999Y-109045000D01*
G75*
G02*
X160420000Y-108795001I0J249999D01*
G01*
X160420000Y-107104999D01*
G75*
G02*
X160669999Y-106855000I249999J0D01*
G01*
X161910001Y-106855000D01*
G75*
G02*
X162160000Y-107104999I0J-249999D01*
G01*
G37*
X158750000Y-107950000D03*
X184150000Y-107950000D03*
G36*
G01*
X187560000Y-107104999D02*
X187560000Y-108795001D01*
G75*
G02*
X187310001Y-109045000I-249999J0D01*
G01*
X186069999Y-109045000D01*
G75*
G02*
X185820000Y-108795001I0J249999D01*
G01*
X185820000Y-107104999D01*
G75*
G02*
X186069999Y-106855000I249999J0D01*
G01*
X187310001Y-106855000D01*
G75*
G02*
X187560000Y-107104999I0J-249999D01*
G01*
G37*
G36*
G01*
X212960000Y-107104999D02*
X212960000Y-108795001D01*
G75*
G02*
X212710001Y-109045000I-249999J0D01*
G01*
X211469999Y-109045000D01*
G75*
G02*
X211220000Y-108795001I0J249999D01*
G01*
X211220000Y-107104999D01*
G75*
G02*
X211469999Y-106855000I249999J0D01*
G01*
X212710001Y-106855000D01*
G75*
G02*
X212960000Y-107104999I0J-249999D01*
G01*
G37*
X209550000Y-107950000D03*
D22*
X178500000Y-71267000D03*
D23*
X160720000Y-63647000D03*
X175960000Y-71267000D03*
X163260000Y-63647000D03*
X173420000Y-71267000D03*
X165800000Y-63647000D03*
X170880000Y-71267000D03*
X168340000Y-63647000D03*
X168340000Y-71267000D03*
X170880000Y-63647000D03*
X165800000Y-71267000D03*
X173420000Y-63647000D03*
X163260000Y-71267000D03*
X175960000Y-63647000D03*
X160720000Y-71267000D03*
X178500000Y-63647000D03*
X202500000Y-63624000D03*
X184720000Y-71244000D03*
X199960000Y-63624000D03*
X187260000Y-71244000D03*
X197420000Y-63624000D03*
X189800000Y-71244000D03*
X194880000Y-63624000D03*
X192340000Y-71244000D03*
X192340000Y-63624000D03*
X194880000Y-71244000D03*
X189800000Y-63624000D03*
X197420000Y-71244000D03*
X187260000Y-63624000D03*
X199960000Y-71244000D03*
X184720000Y-63624000D03*
D22*
X202500000Y-71244000D03*
D24*
X68570000Y-54695000D03*
D18*
X63570000Y-54695000D03*
D23*
X175970000Y-57965000D03*
D25*
X175970000Y-50345000D03*
X199970000Y-50345000D03*
D23*
X199970000Y-57965000D03*
G36*
G01*
X48250000Y-95762500D02*
X47000000Y-95762500D01*
G75*
G02*
X46750000Y-95512500I0J250000D01*
G01*
X46750000Y-94587500D01*
G75*
G02*
X47000000Y-94337500I250000J0D01*
G01*
X48250000Y-94337500D01*
G75*
G02*
X48500000Y-94587500I0J-250000D01*
G01*
X48500000Y-95512500D01*
G75*
G02*
X48250000Y-95762500I-250000J0D01*
G01*
G37*
G36*
G01*
X48250000Y-92787500D02*
X47000000Y-92787500D01*
G75*
G02*
X46750000Y-92537500I0J250000D01*
G01*
X46750000Y-91612500D01*
G75*
G02*
X47000000Y-91362500I250000J0D01*
G01*
X48250000Y-91362500D01*
G75*
G02*
X48500000Y-91612500I0J-250000D01*
G01*
X48500000Y-92537500D01*
G75*
G02*
X48250000Y-92787500I-250000J0D01*
G01*
G37*
G36*
G01*
X60620000Y-77480000D02*
X60620000Y-78730000D01*
G75*
G02*
X60370000Y-78980000I-250000J0D01*
G01*
X59445000Y-78980000D01*
G75*
G02*
X59195000Y-78730000I0J250000D01*
G01*
X59195000Y-77480000D01*
G75*
G02*
X59445000Y-77230000I250000J0D01*
G01*
X60370000Y-77230000D01*
G75*
G02*
X60620000Y-77480000I0J-250000D01*
G01*
G37*
G36*
G01*
X57645000Y-77480000D02*
X57645000Y-78730000D01*
G75*
G02*
X57395000Y-78980000I-250000J0D01*
G01*
X56470000Y-78980000D01*
G75*
G02*
X56220000Y-78730000I0J250000D01*
G01*
X56220000Y-77480000D01*
G75*
G02*
X56470000Y-77230000I250000J0D01*
G01*
X57395000Y-77230000D01*
G75*
G02*
X57645000Y-77480000I0J-250000D01*
G01*
G37*
G36*
G01*
X83045000Y-77480000D02*
X83045000Y-78730000D01*
G75*
G02*
X82795000Y-78980000I-250000J0D01*
G01*
X81870000Y-78980000D01*
G75*
G02*
X81620000Y-78730000I0J250000D01*
G01*
X81620000Y-77480000D01*
G75*
G02*
X81870000Y-77230000I250000J0D01*
G01*
X82795000Y-77230000D01*
G75*
G02*
X83045000Y-77480000I0J-250000D01*
G01*
G37*
G36*
G01*
X86020000Y-77480000D02*
X86020000Y-78730000D01*
G75*
G02*
X85770000Y-78980000I-250000J0D01*
G01*
X84845000Y-78980000D01*
G75*
G02*
X84595000Y-78730000I0J250000D01*
G01*
X84595000Y-77480000D01*
G75*
G02*
X84845000Y-77230000I250000J0D01*
G01*
X85770000Y-77230000D01*
G75*
G02*
X86020000Y-77480000I0J-250000D01*
G01*
G37*
G36*
G01*
X108445000Y-77480000D02*
X108445000Y-78730000D01*
G75*
G02*
X108195000Y-78980000I-250000J0D01*
G01*
X107270000Y-78980000D01*
G75*
G02*
X107020000Y-78730000I0J250000D01*
G01*
X107020000Y-77480000D01*
G75*
G02*
X107270000Y-77230000I250000J0D01*
G01*
X108195000Y-77230000D01*
G75*
G02*
X108445000Y-77480000I0J-250000D01*
G01*
G37*
G36*
G01*
X111420000Y-77480000D02*
X111420000Y-78730000D01*
G75*
G02*
X111170000Y-78980000I-250000J0D01*
G01*
X110245000Y-78980000D01*
G75*
G02*
X109995000Y-78730000I0J250000D01*
G01*
X109995000Y-77480000D01*
G75*
G02*
X110245000Y-77230000I250000J0D01*
G01*
X111170000Y-77230000D01*
G75*
G02*
X111420000Y-77480000I0J-250000D01*
G01*
G37*
G36*
G01*
X136820000Y-77480000D02*
X136820000Y-78730000D01*
G75*
G02*
X136570000Y-78980000I-250000J0D01*
G01*
X135645000Y-78980000D01*
G75*
G02*
X135395000Y-78730000I0J250000D01*
G01*
X135395000Y-77480000D01*
G75*
G02*
X135645000Y-77230000I250000J0D01*
G01*
X136570000Y-77230000D01*
G75*
G02*
X136820000Y-77480000I0J-250000D01*
G01*
G37*
G36*
G01*
X133845000Y-77480000D02*
X133845000Y-78730000D01*
G75*
G02*
X133595000Y-78980000I-250000J0D01*
G01*
X132670000Y-78980000D01*
G75*
G02*
X132420000Y-78730000I0J250000D01*
G01*
X132420000Y-77480000D01*
G75*
G02*
X132670000Y-77230000I250000J0D01*
G01*
X133595000Y-77230000D01*
G75*
G02*
X133845000Y-77480000I0J-250000D01*
G01*
G37*
G36*
G01*
X159245000Y-77480000D02*
X159245000Y-78730000D01*
G75*
G02*
X158995000Y-78980000I-250000J0D01*
G01*
X158070000Y-78980000D01*
G75*
G02*
X157820000Y-78730000I0J250000D01*
G01*
X157820000Y-77480000D01*
G75*
G02*
X158070000Y-77230000I250000J0D01*
G01*
X158995000Y-77230000D01*
G75*
G02*
X159245000Y-77480000I0J-250000D01*
G01*
G37*
G36*
G01*
X162220000Y-77480000D02*
X162220000Y-78730000D01*
G75*
G02*
X161970000Y-78980000I-250000J0D01*
G01*
X161045000Y-78980000D01*
G75*
G02*
X160795000Y-78730000I0J250000D01*
G01*
X160795000Y-77480000D01*
G75*
G02*
X161045000Y-77230000I250000J0D01*
G01*
X161970000Y-77230000D01*
G75*
G02*
X162220000Y-77480000I0J-250000D01*
G01*
G37*
G36*
G01*
X187620000Y-77480000D02*
X187620000Y-78730000D01*
G75*
G02*
X187370000Y-78980000I-250000J0D01*
G01*
X186445000Y-78980000D01*
G75*
G02*
X186195000Y-78730000I0J250000D01*
G01*
X186195000Y-77480000D01*
G75*
G02*
X186445000Y-77230000I250000J0D01*
G01*
X187370000Y-77230000D01*
G75*
G02*
X187620000Y-77480000I0J-250000D01*
G01*
G37*
G36*
G01*
X184645000Y-77480000D02*
X184645000Y-78730000D01*
G75*
G02*
X184395000Y-78980000I-250000J0D01*
G01*
X183470000Y-78980000D01*
G75*
G02*
X183220000Y-78730000I0J250000D01*
G01*
X183220000Y-77480000D01*
G75*
G02*
X183470000Y-77230000I250000J0D01*
G01*
X184395000Y-77230000D01*
G75*
G02*
X184645000Y-77480000I0J-250000D01*
G01*
G37*
G36*
G01*
X210045000Y-77480000D02*
X210045000Y-78730000D01*
G75*
G02*
X209795000Y-78980000I-250000J0D01*
G01*
X208870000Y-78980000D01*
G75*
G02*
X208620000Y-78730000I0J250000D01*
G01*
X208620000Y-77480000D01*
G75*
G02*
X208870000Y-77230000I250000J0D01*
G01*
X209795000Y-77230000D01*
G75*
G02*
X210045000Y-77480000I0J-250000D01*
G01*
G37*
G36*
G01*
X213020000Y-77480000D02*
X213020000Y-78730000D01*
G75*
G02*
X212770000Y-78980000I-250000J0D01*
G01*
X211845000Y-78980000D01*
G75*
G02*
X211595000Y-78730000I0J250000D01*
G01*
X211595000Y-77480000D01*
G75*
G02*
X211845000Y-77230000I250000J0D01*
G01*
X212770000Y-77230000D01*
G75*
G02*
X213020000Y-77480000I0J-250000D01*
G01*
G37*
G36*
G01*
X86220000Y-45730000D02*
X86220000Y-46980000D01*
G75*
G02*
X85970000Y-47230000I-250000J0D01*
G01*
X85045000Y-47230000D01*
G75*
G02*
X84795000Y-46980000I0J250000D01*
G01*
X84795000Y-45730000D01*
G75*
G02*
X85045000Y-45480000I250000J0D01*
G01*
X85970000Y-45480000D01*
G75*
G02*
X86220000Y-45730000I0J-250000D01*
G01*
G37*
G36*
G01*
X89195000Y-45730000D02*
X89195000Y-46980000D01*
G75*
G02*
X88945000Y-47230000I-250000J0D01*
G01*
X88020000Y-47230000D01*
G75*
G02*
X87770000Y-46980000I0J250000D01*
G01*
X87770000Y-45730000D01*
G75*
G02*
X88020000Y-45480000I250000J0D01*
G01*
X88945000Y-45480000D01*
G75*
G02*
X89195000Y-45730000I0J-250000D01*
G01*
G37*
G36*
G01*
X136820000Y-45730000D02*
X136820000Y-46980000D01*
G75*
G02*
X136570000Y-47230000I-250000J0D01*
G01*
X135645000Y-47230000D01*
G75*
G02*
X135395000Y-46980000I0J250000D01*
G01*
X135395000Y-45730000D01*
G75*
G02*
X135645000Y-45480000I250000J0D01*
G01*
X136570000Y-45480000D01*
G75*
G02*
X136820000Y-45730000I0J-250000D01*
G01*
G37*
G36*
G01*
X133845000Y-45730000D02*
X133845000Y-46980000D01*
G75*
G02*
X133595000Y-47230000I-250000J0D01*
G01*
X132670000Y-47230000D01*
G75*
G02*
X132420000Y-46980000I0J250000D01*
G01*
X132420000Y-45730000D01*
G75*
G02*
X132670000Y-45480000I250000J0D01*
G01*
X133595000Y-45480000D01*
G75*
G02*
X133845000Y-45730000I0J-250000D01*
G01*
G37*
G36*
G01*
X181470000Y-45730000D02*
X181470000Y-46980000D01*
G75*
G02*
X181220000Y-47230000I-250000J0D01*
G01*
X180295000Y-47230000D01*
G75*
G02*
X180045000Y-46980000I0J250000D01*
G01*
X180045000Y-45730000D01*
G75*
G02*
X180295000Y-45480000I250000J0D01*
G01*
X181220000Y-45480000D01*
G75*
G02*
X181470000Y-45730000I0J-250000D01*
G01*
G37*
G36*
G01*
X184445000Y-45730000D02*
X184445000Y-46980000D01*
G75*
G02*
X184195000Y-47230000I-250000J0D01*
G01*
X183270000Y-47230000D01*
G75*
G02*
X183020000Y-46980000I0J250000D01*
G01*
X183020000Y-45730000D01*
G75*
G02*
X183270000Y-45480000I250000J0D01*
G01*
X184195000Y-45480000D01*
G75*
G02*
X184445000Y-45730000I0J-250000D01*
G01*
G37*
G36*
G01*
X89195000Y-139710000D02*
X89195000Y-140960000D01*
G75*
G02*
X88945000Y-141210000I-250000J0D01*
G01*
X88020000Y-141210000D01*
G75*
G02*
X87770000Y-140960000I0J250000D01*
G01*
X87770000Y-139710000D01*
G75*
G02*
X88020000Y-139460000I250000J0D01*
G01*
X88945000Y-139460000D01*
G75*
G02*
X89195000Y-139710000I0J-250000D01*
G01*
G37*
G36*
G01*
X86220000Y-139710000D02*
X86220000Y-140960000D01*
G75*
G02*
X85970000Y-141210000I-250000J0D01*
G01*
X85045000Y-141210000D01*
G75*
G02*
X84795000Y-140960000I0J250000D01*
G01*
X84795000Y-139710000D01*
G75*
G02*
X85045000Y-139460000I250000J0D01*
G01*
X85970000Y-139460000D01*
G75*
G02*
X86220000Y-139710000I0J-250000D01*
G01*
G37*
G36*
G01*
X133845000Y-139710000D02*
X133845000Y-140960000D01*
G75*
G02*
X133595000Y-141210000I-250000J0D01*
G01*
X132670000Y-141210000D01*
G75*
G02*
X132420000Y-140960000I0J250000D01*
G01*
X132420000Y-139710000D01*
G75*
G02*
X132670000Y-139460000I250000J0D01*
G01*
X133595000Y-139460000D01*
G75*
G02*
X133845000Y-139710000I0J-250000D01*
G01*
G37*
G36*
G01*
X136820000Y-139710000D02*
X136820000Y-140960000D01*
G75*
G02*
X136570000Y-141210000I-250000J0D01*
G01*
X135645000Y-141210000D01*
G75*
G02*
X135395000Y-140960000I0J250000D01*
G01*
X135395000Y-139710000D01*
G75*
G02*
X135645000Y-139460000I250000J0D01*
G01*
X136570000Y-139460000D01*
G75*
G02*
X136820000Y-139710000I0J-250000D01*
G01*
G37*
G36*
G01*
X184445000Y-139710000D02*
X184445000Y-140960000D01*
G75*
G02*
X184195000Y-141210000I-250000J0D01*
G01*
X183270000Y-141210000D01*
G75*
G02*
X183020000Y-140960000I0J250000D01*
G01*
X183020000Y-139710000D01*
G75*
G02*
X183270000Y-139460000I250000J0D01*
G01*
X184195000Y-139460000D01*
G75*
G02*
X184445000Y-139710000I0J-250000D01*
G01*
G37*
G36*
G01*
X181470000Y-139710000D02*
X181470000Y-140960000D01*
G75*
G02*
X181220000Y-141210000I-250000J0D01*
G01*
X180295000Y-141210000D01*
G75*
G02*
X180045000Y-140960000I0J250000D01*
G01*
X180045000Y-139710000D01*
G75*
G02*
X180295000Y-139460000I250000J0D01*
G01*
X181220000Y-139460000D01*
G75*
G02*
X181470000Y-139710000I0J-250000D01*
G01*
G37*
G36*
G01*
X43805000Y-67170000D02*
X42555000Y-67170000D01*
G75*
G02*
X42305000Y-66920000I0J250000D01*
G01*
X42305000Y-65995000D01*
G75*
G02*
X42555000Y-65745000I250000J0D01*
G01*
X43805000Y-65745000D01*
G75*
G02*
X44055000Y-65995000I0J-250000D01*
G01*
X44055000Y-66920000D01*
G75*
G02*
X43805000Y-67170000I-250000J0D01*
G01*
G37*
G36*
G01*
X43805000Y-70145000D02*
X42555000Y-70145000D01*
G75*
G02*
X42305000Y-69895000I0J250000D01*
G01*
X42305000Y-68970000D01*
G75*
G02*
X42555000Y-68720000I250000J0D01*
G01*
X43805000Y-68720000D01*
G75*
G02*
X44055000Y-68970000I0J-250000D01*
G01*
X44055000Y-69895000D01*
G75*
G02*
X43805000Y-70145000I-250000J0D01*
G01*
G37*
G36*
G01*
X43805000Y-120945000D02*
X42555000Y-120945000D01*
G75*
G02*
X42305000Y-120695000I0J250000D01*
G01*
X42305000Y-119770000D01*
G75*
G02*
X42555000Y-119520000I250000J0D01*
G01*
X43805000Y-119520000D01*
G75*
G02*
X44055000Y-119770000I0J-250000D01*
G01*
X44055000Y-120695000D01*
G75*
G02*
X43805000Y-120945000I-250000J0D01*
G01*
G37*
G36*
G01*
X43805000Y-117970000D02*
X42555000Y-117970000D01*
G75*
G02*
X42305000Y-117720000I0J250000D01*
G01*
X42305000Y-116795000D01*
G75*
G02*
X42555000Y-116545000I250000J0D01*
G01*
X43805000Y-116545000D01*
G75*
G02*
X44055000Y-116795000I0J-250000D01*
G01*
X44055000Y-117720000D01*
G75*
G02*
X43805000Y-117970000I-250000J0D01*
G01*
G37*
G36*
G01*
X226685000Y-67170000D02*
X225435000Y-67170000D01*
G75*
G02*
X225185000Y-66920000I0J250000D01*
G01*
X225185000Y-65995000D01*
G75*
G02*
X225435000Y-65745000I250000J0D01*
G01*
X226685000Y-65745000D01*
G75*
G02*
X226935000Y-65995000I0J-250000D01*
G01*
X226935000Y-66920000D01*
G75*
G02*
X226685000Y-67170000I-250000J0D01*
G01*
G37*
G36*
G01*
X226685000Y-70145000D02*
X225435000Y-70145000D01*
G75*
G02*
X225185000Y-69895000I0J250000D01*
G01*
X225185000Y-68970000D01*
G75*
G02*
X225435000Y-68720000I250000J0D01*
G01*
X226685000Y-68720000D01*
G75*
G02*
X226935000Y-68970000I0J-250000D01*
G01*
X226935000Y-69895000D01*
G75*
G02*
X226685000Y-70145000I-250000J0D01*
G01*
G37*
G36*
G01*
X226685000Y-112690000D02*
X225435000Y-112690000D01*
G75*
G02*
X225185000Y-112440000I0J250000D01*
G01*
X225185000Y-111515000D01*
G75*
G02*
X225435000Y-111265000I250000J0D01*
G01*
X226685000Y-111265000D01*
G75*
G02*
X226935000Y-111515000I0J-250000D01*
G01*
X226935000Y-112440000D01*
G75*
G02*
X226685000Y-112690000I-250000J0D01*
G01*
G37*
G36*
G01*
X226685000Y-109715000D02*
X225435000Y-109715000D01*
G75*
G02*
X225185000Y-109465000I0J250000D01*
G01*
X225185000Y-108540000D01*
G75*
G02*
X225435000Y-108290000I250000J0D01*
G01*
X226685000Y-108290000D01*
G75*
G02*
X226935000Y-108540000I0J-250000D01*
G01*
X226935000Y-109465000D01*
G75*
G02*
X226685000Y-109715000I-250000J0D01*
G01*
G37*
D26*
X76327000Y-54737000D03*
G36*
G01*
X83827000Y-53737000D02*
X83827000Y-55737000D01*
G75*
G02*
X83077000Y-56487000I-750000J0D01*
G01*
X81577000Y-56487000D01*
G75*
G02*
X80827000Y-55737000I0J750000D01*
G01*
X80827000Y-53737000D01*
G75*
G02*
X81577000Y-52987000I750000J0D01*
G01*
X83077000Y-52987000D01*
G75*
G02*
X83827000Y-53737000I0J-750000D01*
G01*
G37*
G36*
G01*
X81077000Y-58562000D02*
X81077000Y-60312000D01*
G75*
G02*
X80202000Y-61187000I-875000J0D01*
G01*
X78452000Y-61187000D01*
G75*
G02*
X77577000Y-60312000I0J875000D01*
G01*
X77577000Y-58562000D01*
G75*
G02*
X78452000Y-57687000I875000J0D01*
G01*
X80202000Y-57687000D01*
G75*
G02*
X81077000Y-58562000I0J-875000D01*
G01*
G37*
D27*
X224770000Y-127845000D03*
X223170000Y-127845000D03*
X221570000Y-127845000D03*
X223970000Y-125245000D03*
X222370000Y-125245000D03*
D28*
X219520000Y-126545000D03*
X226820000Y-126345000D03*
M02*
