M48
; DRILL file {KiCad (5.1.10)-1} date 09/06/21 17:19:30
; FORMAT={-:-/ absolute / metric / decimal}
; #@! TF.CreationDate,2021-09-06T17:19:30-07:00
; #@! TF.GenerationSoftware,Kicad,Pcbnew,(5.1.10)-1
; #@! TF.FileFunction,Plated,1,2,PTH
FMAT,2
METRIC
T1C0.400
T2C0.650
T3C0.700
T4C0.800
T5C0.900
T6C1.000
T7C1.100
T8C1.190
T9C1.200
%
G90
G05
T1
X44.37Y-119.345
X57.17Y-115.245
X82.57Y-115.245
X86.52Y-78.195
X102.67Y-112.645
X107.97Y-115.245
X133.37Y-115.245
X158.67Y-115.245
X162.72Y-78.095
X169.62Y-69.095
X169.62Y-79.295
X177.17Y-119.445
X178.32Y-65.895
X180.57Y-68.095
X180.625Y-67.097
X184.07Y-115.245
X184.57Y-47.445
X187.87Y-133.945
X189.77Y-133.945
X191.77Y-74.045
X192.37Y-132.145
X193.57Y-74.495
X193.595Y-111.42
X193.62Y-117.52
X195.22Y-130.929
X196.67Y-129.845
X196.67Y-130.845
X196.87Y-137.145
X196.92Y-133.745
X197.47Y-119.895
X200.77Y-117.345
X201.77Y-117.345
X202.37Y-122.545
X202.37Y-129.545
X203.37Y-137.145
X204.165Y-66.95
X204.27Y-67.945
X207.27Y-134.445
X207.37Y-129.545
X208.17Y-135.495
X208.27Y-134.445
X208.37Y-116.745
X208.37Y-122.545
X209.47Y-115.245
X209.57Y-117.245
X209.62Y-126.945
X210.57Y-117.245
X212.27Y-76.745
X212.77Y-125.345
X213.22Y-128.195
X214.47Y-121.145
X214.47Y-122.445
X214.96Y-117.547
X215.07Y-74.945
X215.07Y-79.195
X215.67Y-119.545
X218.47Y-113.645
X219.97Y-119.945
X225.02Y-111.145
T3
X221.57Y-127.845
X222.37Y-125.245
X223.17Y-127.845
X223.97Y-125.245
X224.77Y-127.845
T4
X160.72Y-63.647
X160.72Y-71.267
X163.26Y-63.647
X163.26Y-71.267
X165.8Y-63.647
X165.8Y-71.267
X168.34Y-63.647
X168.34Y-71.267
X170.88Y-63.647
X170.88Y-71.267
X173.42Y-63.647
X173.42Y-71.267
X175.96Y-63.647
X175.96Y-71.267
X175.97Y-50.345
X175.97Y-57.965
X178.5Y-63.647
X178.5Y-71.267
X184.72Y-63.624
X184.72Y-71.244
X187.26Y-63.624
X187.26Y-71.244
X189.8Y-63.624
X189.8Y-71.244
X192.34Y-63.624
X192.34Y-71.244
X194.88Y-63.624
X194.88Y-71.244
X197.42Y-63.624
X197.42Y-71.244
X199.96Y-63.624
X199.96Y-71.244
X199.97Y-50.345
X199.97Y-57.965
X202.5Y-63.624
X202.5Y-71.244
T5
X50.8Y-67.945
X53.34Y-67.945
X63.5Y-67.945
X66.04Y-67.945
X107.95Y-67.945
X110.49Y-67.945
X127.0Y-67.945
X129.54Y-67.945
X139.7Y-67.945
X142.24Y-67.945
T6
X179.99Y-132.555
X179.99Y-135.095
X182.53Y-132.555
X182.53Y-135.095
X185.07Y-132.555
X185.07Y-135.095
T7
X93.77Y-109.145
X93.77Y-113.645
X100.27Y-109.145
X100.27Y-113.645
X166.22Y-131.572
X166.22Y-136.072
X172.72Y-131.572
X172.72Y-136.072
T8
X57.15Y-107.95
X59.69Y-107.95
X82.55Y-107.95
X85.09Y-107.95
X107.95Y-107.95
X110.49Y-107.95
X133.35Y-107.95
X135.89Y-107.95
X158.75Y-107.95
X161.29Y-107.95
X184.15Y-107.95
X186.69Y-107.95
X209.55Y-107.95
X212.09Y-107.95
T9
X63.57Y-54.695
X68.57Y-54.695
T2
X219.52Y-125.67G85X219.52Y-127.42
G05
X226.82Y-125.47G85X226.82Y-127.22
G05
T6
X76.327Y-55.737G85X76.327Y-53.737
G05
X80.327Y-59.437G85X78.327Y-59.437
G05
X82.327Y-55.737G85X82.327Y-53.737
G05
T0
M30
