M48
INCH,TZ
T1C0.0157
T2C0.0394
T3C0.0400
T4C0.0469
%
G90
G05
T1
X47244Y-27559
X47244Y-31496
X47244Y-35433
X47244Y-39370
X47244Y-43307
X51181Y-27559
X51181Y-31496
X51181Y-35433
X51181Y-39370
X51181Y-43307
X55118Y-27559
X55118Y-31496
X55118Y-35433
X55118Y-39370
X55118Y-43307
X59055Y-27559
X59055Y-31496
X59055Y-35433
X59055Y-39370
X59055Y-43307
X62992Y-27559
X62992Y-31496
X62992Y-35433
X62992Y-39370
X62992Y-43307
X66929Y-27559
X66929Y-31496
X66929Y-35433
X66929Y-39370
X66929Y-43307
X70866Y-27559
X70866Y-31496
X70866Y-35433
X70866Y-39370
X70866Y-43307
X74803Y-27559
X74803Y-31496
X74803Y-35433
X74803Y-39370
X74803Y-43307
T2
X80496Y-29626
X80496Y-30626
X80496Y-31626
X80496Y-32626
X80496Y-33626
X80496Y-34626
X80496Y-35626
X80496Y-36626
X80496Y-37626
X80496Y-38626
X80496Y-39626
X80496Y-40626
X80496Y-41626
X80496Y-42626
X80496Y-43626
X81496Y-29626
X81496Y-30626
X81496Y-31626
X81496Y-32626
X81496Y-33626
X81496Y-34626
X81496Y-35626
X81496Y-36626
X81496Y-37626
X81496Y-38626
X81496Y-39626
X81496Y-40626
X81496Y-41626
X81496Y-42626
X81496Y-43626
T3
X46770Y-26850
X47770Y-26850
X48770Y-26850
X49770Y-26850
X50370Y-45850
X50770Y-26850
X51370Y-45850
X51770Y-26850
X52370Y-45850
X52770Y-26850
X53370Y-45850
X53770Y-26850
X54370Y-45850
X54770Y-26850
X55370Y-45850
X55770Y-26850
X56370Y-45850
X57370Y-26850
X57370Y-45850
X58370Y-26850
X59370Y-26850
X59370Y-45850
X60370Y-26850
X60370Y-45850
X61370Y-26850
X61370Y-45850
X62370Y-26850
X62370Y-45850
X63370Y-26850
X63370Y-45850
X64370Y-26850
X64370Y-45850
X65370Y-45850
X66370Y-26850
X66370Y-45850
X67370Y-26850
X68370Y-26850
X68370Y-45850
X69370Y-26850
X69370Y-45850
X70370Y-26850
X70370Y-45850
X71370Y-26850
X71370Y-45850
X72370Y-26850
X72370Y-45850
X73370Y-26850
X73370Y-45850
X74370Y-45850
X75370Y-45850
X76370Y-26850
X76370Y-27850
X76370Y-28850
X76370Y-29850
X76370Y-30850
X76370Y-31850
X76370Y-32850
X76370Y-33850
X76370Y-34850
X76370Y-35850
X76370Y-36850
X76370Y-37850
X76370Y-38850
X76370Y-39850
X76370Y-40850
X76370Y-41850
X76370Y-42850
X76370Y-43850
X77370Y-26850
X77370Y-27850
X77370Y-28850
X77370Y-29850
X77370Y-30850
X77370Y-31850
X77370Y-32850
X77370Y-33850
X77370Y-34850
X77370Y-35850
X77370Y-36850
X77370Y-37850
X77370Y-38850
X77370Y-39850
X77370Y-40850
X77370Y-41850
X77370Y-42850
X77370Y-43850
T4
X48819Y-37945
X48819Y-38945
X48819Y-39945
X48819Y-40945
T0
M30
