%TF.GenerationSoftware,KiCad,Pcbnew,(5.1.6)-1*%
%TF.CreationDate,2020-09-26T17:31:42-07:00*%
%TF.ProjectId,ArduinoShield,41726475-696e-46f5-9368-69656c642e6b,rev?*%
%TF.SameCoordinates,Original*%
%TF.FileFunction,Copper,L2,Bot*%
%TF.FilePolarity,Positive*%
%FSLAX46Y46*%
G04 Gerber Fmt 4.6, Leading zero omitted, Abs format (unit mm)*
G04 Created by KiCad (PCBNEW (5.1.6)-1) date 2020-09-26 17:31:42*
%MOMM*%
%LPD*%
G01*
G04 APERTURE LIST*
%TA.AperFunction,ComponentPad*%
%ADD10O,1.727200X1.727200*%
%TD*%
%TA.AperFunction,ComponentPad*%
%ADD11R,1.700000X1.700000*%
%TD*%
%TA.AperFunction,ComponentPad*%
%ADD12O,1.700000X1.700000*%
%TD*%
%TA.AperFunction,ComponentPad*%
%ADD13O,2.190000X1.740000*%
%TD*%
%TA.AperFunction,ViaPad*%
%ADD14C,0.800000*%
%TD*%
%TA.AperFunction,Conductor*%
%ADD15C,0.254000*%
%TD*%
G04 APERTURE END LIST*
D10*
%TO.P,XA1,A0*%
%TO.N,Net-(XA1-PadA0)*%
X150800000Y-116460000D03*
%TO.P,XA1,VIN*%
%TO.N,+5V*%
X145720000Y-116460000D03*
%TO.P,XA1,GND3*%
%TO.N,GND*%
X143180000Y-116460000D03*
%TO.P,XA1,GND2*%
X140640000Y-116460000D03*
%TO.P,XA1,5V1*%
%TO.N,Net-(XA1-Pad5V1)*%
X138100000Y-116460000D03*
%TO.P,XA1,3V3*%
%TO.N,Net-(XA1-Pad3V3)*%
X135560000Y-116460000D03*
%TO.P,XA1,RST1*%
%TO.N,Net-(XA1-PadRST1)*%
X133020000Y-116460000D03*
%TO.P,XA1,IORF*%
%TO.N,Net-(XA1-PadIORF)*%
X130480000Y-116460000D03*
%TO.P,XA1,D21*%
%TO.N,Net-(XA1-PadD21)*%
X186360000Y-68200000D03*
%TO.P,XA1,D20*%
%TO.N,Net-(XA1-PadD20)*%
X183820000Y-68200000D03*
%TO.P,XA1,D19*%
%TO.N,Net-(XA1-PadD19)*%
X181280000Y-68200000D03*
%TO.P,XA1,D18*%
%TO.N,Net-(XA1-PadD18)*%
X178740000Y-68200000D03*
%TO.P,XA1,D17*%
%TO.N,Net-(XA1-PadD17)*%
X176200000Y-68200000D03*
%TO.P,XA1,D16*%
%TO.N,Net-(XA1-PadD16)*%
X173660000Y-68200000D03*
%TO.P,XA1,D15*%
%TO.N,Net-(XA1-PadD15)*%
X171120000Y-68200000D03*
%TO.P,XA1,D14*%
%TO.N,Net-(XA1-PadD14)*%
X168580000Y-68200000D03*
%TO.P,XA1,D0*%
%TO.N,Net-(XA1-PadD0)*%
X163500000Y-68200000D03*
%TO.P,XA1,D1*%
%TO.N,Net-(XA1-PadD1)*%
X160960000Y-68200000D03*
%TO.P,XA1,D2*%
%TO.N,Net-(XA1-PadD2)*%
X158420000Y-68200000D03*
%TO.P,XA1,D3*%
%TO.N,Net-(XA1-PadD3)*%
X155880000Y-68200000D03*
%TO.P,XA1,D4*%
%TO.N,Net-(XA1-PadD4)*%
X153340000Y-68200000D03*
%TO.P,XA1,D5*%
%TO.N,Net-(XA1-PadD5)*%
X150800000Y-68200000D03*
%TO.P,XA1,D6*%
%TO.N,Net-(XA1-PadD6)*%
X148260000Y-68200000D03*
%TO.P,XA1,D7*%
%TO.N,Net-(XA1-PadD7)*%
X145720000Y-68200000D03*
%TO.P,XA1,GND1*%
%TO.N,GND*%
X126416000Y-68200000D03*
%TO.P,XA1,D8*%
%TO.N,Net-(XA1-PadD8)*%
X141656000Y-68200000D03*
%TO.P,XA1,D9*%
%TO.N,Net-(XA1-PadD9)*%
X139116000Y-68200000D03*
%TO.P,XA1,D10*%
%TO.N,Net-(XA1-PadD10)*%
X136576000Y-68200000D03*
%TO.P,XA1,SCL*%
%TO.N,SCL*%
X118796000Y-68200000D03*
%TO.P,XA1,SDA*%
%TO.N,SDA*%
X121336000Y-68200000D03*
%TO.P,XA1,AREF*%
%TO.N,Net-(XA1-PadAREF)*%
X123876000Y-68200000D03*
%TO.P,XA1,D13*%
%TO.N,Net-(XA1-PadD13)*%
X128956000Y-68200000D03*
%TO.P,XA1,D12*%
%TO.N,Net-(XA1-PadD12)*%
X131496000Y-68200000D03*
%TO.P,XA1,D11*%
%TO.N,Net-(XA1-PadD11)*%
X134036000Y-68200000D03*
%TO.P,XA1,*%
%TO.N,*%
X127940000Y-116460000D03*
%TO.P,XA1,A1*%
%TO.N,Net-(XA1-PadA1)*%
X153340000Y-116460000D03*
%TO.P,XA1,A2*%
%TO.N,Net-(XA1-PadA2)*%
X155880000Y-116460000D03*
%TO.P,XA1,A3*%
%TO.N,Net-(XA1-PadA3)*%
X158420000Y-116460000D03*
%TO.P,XA1,A4*%
%TO.N,Net-(XA1-PadA4)*%
X160960000Y-116460000D03*
%TO.P,XA1,A5*%
%TO.N,Net-(XA1-PadA5)*%
X163500000Y-116460000D03*
%TO.P,XA1,A6*%
%TO.N,Net-(XA1-PadA6)*%
X166040000Y-116460000D03*
%TO.P,XA1,A7*%
%TO.N,Net-(XA1-PadA7)*%
X168580000Y-116460000D03*
%TO.P,XA1,A8*%
%TO.N,Net-(XA1-PadA8)*%
X173660000Y-116460000D03*
%TO.P,XA1,A9*%
%TO.N,Net-(XA1-PadA9)*%
X176200000Y-116460000D03*
%TO.P,XA1,A10*%
%TO.N,Net-(XA1-PadA10)*%
X178740000Y-116460000D03*
%TO.P,XA1,A11*%
%TO.N,Net-(XA1-PadA11)*%
X181280000Y-116460000D03*
%TO.P,XA1,A12*%
%TO.N,Net-(XA1-PadA12)*%
X183820000Y-116460000D03*
%TO.P,XA1,A13*%
%TO.N,Net-(XA1-PadA13)*%
X186360000Y-116460000D03*
%TO.P,XA1,A14*%
%TO.N,Net-(XA1-PadA14)*%
X188900000Y-116460000D03*
%TO.P,XA1,A15*%
%TO.N,Net-(XA1-PadA15)*%
X191440000Y-116460000D03*
%TO.P,XA1,5V3*%
%TO.N,Net-(XA1-Pad5V3)*%
X193980000Y-68200000D03*
%TO.P,XA1,5V4*%
%TO.N,Net-(XA1-Pad5V4)*%
X196520000Y-68200000D03*
%TO.P,XA1,D22*%
%TO.N,Net-(XA1-PadD22)*%
X193980000Y-70740000D03*
%TO.P,XA1,D23*%
%TO.N,Net-(XA1-PadD23)*%
X196520000Y-70740000D03*
%TO.P,XA1,D24*%
%TO.N,Net-(XA1-PadD24)*%
X193980000Y-73280000D03*
%TO.P,XA1,D25*%
%TO.N,CS_LOAD*%
X196520000Y-73280000D03*
%TO.P,XA1,D26*%
%TO.N,Net-(XA1-PadD26)*%
X193980000Y-75820000D03*
%TO.P,XA1,D27*%
%TO.N,CLK*%
X196520000Y-75820000D03*
%TO.P,XA1,D28*%
%TO.N,Net-(XA1-PadD28)*%
X193980000Y-78360000D03*
%TO.P,XA1,D29*%
%TO.N,DIN*%
X196520000Y-78360000D03*
%TO.P,XA1,D30*%
%TO.N,COMM2_LEFT*%
X193980000Y-80900000D03*
%TO.P,XA1,D31*%
%TO.N,COMM1_LEFT*%
X196520000Y-80900000D03*
%TO.P,XA1,D32*%
%TO.N,COMM2_RIGHT*%
X193980000Y-83440000D03*
%TO.P,XA1,D33*%
%TO.N,COMM1_RIGHT*%
X196520000Y-83440000D03*
%TO.P,XA1,D34*%
%TO.N,COMM2_KHZ_SW*%
X193980000Y-85980000D03*
%TO.P,XA1,D35*%
%TO.N,COMM1_KHZ_SW*%
X196520000Y-85980000D03*
%TO.P,XA1,D36*%
%TO.N,COMM2_XFR*%
X193980000Y-88520000D03*
%TO.P,XA1,D37*%
%TO.N,COMM1_XFR*%
X196520000Y-88520000D03*
%TO.P,XA1,D38*%
%TO.N,NAV2_LEFT*%
X193980000Y-91060000D03*
%TO.P,XA1,D39*%
%TO.N,NAV1_LEFT*%
X196520000Y-91060000D03*
%TO.P,XA1,D40*%
%TO.N,NAV2_RIGHT*%
X193980000Y-93600000D03*
%TO.P,XA1,D41*%
%TO.N,NAV1_RIGHT*%
X196520000Y-93600000D03*
%TO.P,XA1,D42*%
%TO.N,NAV2_KHZ_SW*%
X193980000Y-96140000D03*
%TO.P,XA1,D43*%
%TO.N,NAV1_KHZ_SW*%
X196520000Y-96140000D03*
%TO.P,XA1,D44*%
%TO.N,NAV2_XFR*%
X193980000Y-98680000D03*
%TO.P,XA1,D45*%
%TO.N,NAV1_XFR*%
X196520000Y-98680000D03*
%TO.P,XA1,D46*%
%TO.N,RADIO2_SW*%
X193980000Y-101220000D03*
%TO.P,XA1,D47*%
%TO.N,RADIO1_SW*%
X196520000Y-101220000D03*
%TO.P,XA1,D48*%
%TO.N,RADIO2_LED*%
X193980000Y-103760000D03*
%TO.P,XA1,D49*%
%TO.N,RADIO1_LED*%
X196520000Y-103760000D03*
%TO.P,XA1,D50*%
%TO.N,IDENT2_SW*%
X193980000Y-106300000D03*
%TO.P,XA1,D51*%
%TO.N,IDENT1_SW*%
X196520000Y-106300000D03*
%TO.P,XA1,D52*%
%TO.N,Net-(XA1-PadD52)*%
X193980000Y-108840000D03*
%TO.P,XA1,D53*%
%TO.N,Net-(XA1-PadD53)*%
X196520000Y-108840000D03*
%TO.P,XA1,GND5*%
%TO.N,GND*%
X193980000Y-111380000D03*
%TO.P,XA1,GND6*%
X196520000Y-111380000D03*
%TD*%
D11*
%TO.P,J1,1*%
%TO.N,CS_LOAD*%
X207000000Y-75250000D03*
D12*
%TO.P,J1,2*%
%TO.N,+5V*%
X204460000Y-75250000D03*
%TO.P,J1,3*%
%TO.N,CLK*%
X207000000Y-77790000D03*
%TO.P,J1,4*%
%TO.N,GND*%
X204460000Y-77790000D03*
%TO.P,J1,5*%
%TO.N,DIN*%
X207000000Y-80330000D03*
%TO.P,J1,6*%
%TO.N,Net-(J1-Pad6)*%
X204460000Y-80330000D03*
%TO.P,J1,7*%
%TO.N,COMM1_LEFT*%
X207000000Y-82870000D03*
%TO.P,J1,8*%
%TO.N,COMM2_LEFT*%
X204460000Y-82870000D03*
%TO.P,J1,9*%
%TO.N,COMM1_RIGHT*%
X207000000Y-85410000D03*
%TO.P,J1,10*%
%TO.N,COMM2_RIGHT*%
X204460000Y-85410000D03*
%TO.P,J1,11*%
%TO.N,COMM1_KHZ_SW*%
X207000000Y-87950000D03*
%TO.P,J1,12*%
%TO.N,COMM2_KHZ_SW*%
X204460000Y-87950000D03*
%TO.P,J1,13*%
%TO.N,COMM1_XFR*%
X207000000Y-90490000D03*
%TO.P,J1,14*%
%TO.N,COMM2_XFR*%
X204460000Y-90490000D03*
%TO.P,J1,15*%
%TO.N,NAV1_LEFT*%
X207000000Y-93030000D03*
%TO.P,J1,16*%
%TO.N,NAV2_LEFT*%
X204460000Y-93030000D03*
%TO.P,J1,17*%
%TO.N,NAV1_RIGHT*%
X207000000Y-95570000D03*
%TO.P,J1,18*%
%TO.N,NAV2_RIGHT*%
X204460000Y-95570000D03*
%TO.P,J1,19*%
%TO.N,NAV1_KHZ_SW*%
X207000000Y-98110000D03*
%TO.P,J1,20*%
%TO.N,NAV2_KHZ_SW*%
X204460000Y-98110000D03*
%TO.P,J1,21*%
%TO.N,NAV1_XFR*%
X207000000Y-100650000D03*
%TO.P,J1,22*%
%TO.N,NAV2_XFR*%
X204460000Y-100650000D03*
%TO.P,J1,23*%
%TO.N,RADIO1_SW*%
X207000000Y-103190000D03*
%TO.P,J1,24*%
%TO.N,RADIO2_SW*%
X204460000Y-103190000D03*
%TO.P,J1,25*%
%TO.N,RADIO1_LED*%
X207000000Y-105730000D03*
%TO.P,J1,26*%
%TO.N,RADIO2_LED*%
X204460000Y-105730000D03*
%TO.P,J1,27*%
%TO.N,IDENT1_SW*%
X207000000Y-108270000D03*
%TO.P,J1,28*%
%TO.N,IDENT2_SW*%
X204460000Y-108270000D03*
%TO.P,J1,29*%
%TO.N,GND*%
X207000000Y-110810000D03*
%TO.P,J1,30*%
X204460000Y-110810000D03*
%TD*%
D13*
%TO.P,J2,4*%
%TO.N,SCL*%
X124000000Y-96380000D03*
%TO.P,J2,3*%
%TO.N,SDA*%
X124000000Y-98920000D03*
%TO.P,J2,2*%
%TO.N,+5V*%
X124000000Y-101460000D03*
%TO.P,J2,1*%
%TO.N,GND*%
%TA.AperFunction,ComponentPad*%
G36*
G01*
X124845001Y-104870000D02*
X123154999Y-104870000D01*
G75*
G02*
X122905000Y-104620001I0J249999D01*
G01*
X122905000Y-103379999D01*
G75*
G02*
X123154999Y-103130000I249999J0D01*
G01*
X124845001Y-103130000D01*
G75*
G02*
X125095000Y-103379999I0J-249999D01*
G01*
X125095000Y-104620001D01*
G75*
G02*
X124845001Y-104870000I-249999J0D01*
G01*
G37*
%TD.AperFunction*%
%TD*%
D14*
%TO.N,GND*%
X120000000Y-80000000D03*
X120000000Y-70000000D03*
X130000000Y-80000000D03*
X130000000Y-90000000D03*
X120000000Y-90000000D03*
X120000000Y-110000000D03*
X130000000Y-110000000D03*
X130000000Y-100000000D03*
X120000000Y-100000000D03*
X140000000Y-100000000D03*
X140000000Y-110000000D03*
X140000000Y-90000000D03*
X140000000Y-80000000D03*
X150000000Y-90000000D03*
X150000000Y-80000000D03*
X160000000Y-80000000D03*
X160000000Y-90000000D03*
X170000000Y-90000000D03*
X170000000Y-80000000D03*
X180000000Y-80000000D03*
X180000000Y-90000000D03*
X180000000Y-100000000D03*
X170000000Y-100000000D03*
X160000000Y-100000000D03*
X150000000Y-100000000D03*
X150000000Y-110000000D03*
X160000000Y-110000000D03*
X170000000Y-110000000D03*
X180000000Y-110000000D03*
X190000000Y-110000000D03*
X190000000Y-100000000D03*
X190000000Y-90000000D03*
X190000000Y-80000000D03*
X130000000Y-70000000D03*
X140000000Y-70000000D03*
X150000000Y-70000000D03*
X160000000Y-70000000D03*
X170000000Y-70000000D03*
X180000000Y-70000000D03*
X190000000Y-70000000D03*
%TD*%
D15*
%TO.N,GND*%
G36*
X208453893Y-63707670D02*
G01*
X208890498Y-63839489D01*
X209293185Y-64053600D01*
X209646612Y-64341848D01*
X209937327Y-64693261D01*
X210154242Y-65094439D01*
X210289106Y-65530113D01*
X210340001Y-66014353D01*
X210340000Y-119967721D01*
X210292330Y-120453894D01*
X210160512Y-120890497D01*
X209946399Y-121293186D01*
X209658150Y-121646613D01*
X209306739Y-121937327D01*
X208905564Y-122154240D01*
X208469886Y-122289106D01*
X207985664Y-122340000D01*
X114032279Y-122340000D01*
X113546106Y-122292330D01*
X113109503Y-122160512D01*
X112706814Y-121946399D01*
X112353387Y-121658150D01*
X112062673Y-121306739D01*
X111845760Y-120905564D01*
X111710894Y-120469886D01*
X111660000Y-119985664D01*
X111660000Y-116312401D01*
X126441400Y-116312401D01*
X126441400Y-116607599D01*
X126498990Y-116897125D01*
X126611958Y-117169853D01*
X126775961Y-117415302D01*
X126984698Y-117624039D01*
X127230147Y-117788042D01*
X127502875Y-117901010D01*
X127792401Y-117958600D01*
X128087599Y-117958600D01*
X128377125Y-117901010D01*
X128649853Y-117788042D01*
X128895302Y-117624039D01*
X129104039Y-117415302D01*
X129210000Y-117256719D01*
X129315961Y-117415302D01*
X129524698Y-117624039D01*
X129770147Y-117788042D01*
X130042875Y-117901010D01*
X130332401Y-117958600D01*
X130627599Y-117958600D01*
X130917125Y-117901010D01*
X131189853Y-117788042D01*
X131435302Y-117624039D01*
X131644039Y-117415302D01*
X131750000Y-117256719D01*
X131855961Y-117415302D01*
X132064698Y-117624039D01*
X132310147Y-117788042D01*
X132582875Y-117901010D01*
X132872401Y-117958600D01*
X133167599Y-117958600D01*
X133457125Y-117901010D01*
X133729853Y-117788042D01*
X133975302Y-117624039D01*
X134184039Y-117415302D01*
X134290000Y-117256719D01*
X134395961Y-117415302D01*
X134604698Y-117624039D01*
X134850147Y-117788042D01*
X135122875Y-117901010D01*
X135412401Y-117958600D01*
X135707599Y-117958600D01*
X135997125Y-117901010D01*
X136269853Y-117788042D01*
X136515302Y-117624039D01*
X136724039Y-117415302D01*
X136830000Y-117256719D01*
X136935961Y-117415302D01*
X137144698Y-117624039D01*
X137390147Y-117788042D01*
X137662875Y-117901010D01*
X137952401Y-117958600D01*
X138247599Y-117958600D01*
X138537125Y-117901010D01*
X138809853Y-117788042D01*
X139055302Y-117624039D01*
X139264039Y-117415302D01*
X139371692Y-117254187D01*
X139533146Y-117470293D01*
X139751512Y-117666817D01*
X140004022Y-117816964D01*
X140280973Y-117914963D01*
X140513000Y-117794464D01*
X140513000Y-116587000D01*
X140767000Y-116587000D01*
X140767000Y-117794464D01*
X140999027Y-117914963D01*
X141275978Y-117816964D01*
X141528488Y-117666817D01*
X141746854Y-117470293D01*
X141910000Y-117251922D01*
X142073146Y-117470293D01*
X142291512Y-117666817D01*
X142544022Y-117816964D01*
X142820973Y-117914963D01*
X143053000Y-117794464D01*
X143053000Y-116587000D01*
X140767000Y-116587000D01*
X140513000Y-116587000D01*
X140493000Y-116587000D01*
X140493000Y-116333000D01*
X140513000Y-116333000D01*
X140513000Y-115125536D01*
X140767000Y-115125536D01*
X140767000Y-116333000D01*
X143053000Y-116333000D01*
X143053000Y-115125536D01*
X143307000Y-115125536D01*
X143307000Y-116333000D01*
X143327000Y-116333000D01*
X143327000Y-116587000D01*
X143307000Y-116587000D01*
X143307000Y-117794464D01*
X143539027Y-117914963D01*
X143815978Y-117816964D01*
X144068488Y-117666817D01*
X144286854Y-117470293D01*
X144448308Y-117254187D01*
X144555961Y-117415302D01*
X144764698Y-117624039D01*
X145010147Y-117788042D01*
X145282875Y-117901010D01*
X145572401Y-117958600D01*
X145867599Y-117958600D01*
X146157125Y-117901010D01*
X146429853Y-117788042D01*
X146675302Y-117624039D01*
X146884039Y-117415302D01*
X147048042Y-117169853D01*
X147161010Y-116897125D01*
X147218600Y-116607599D01*
X147218600Y-116312401D01*
X149301400Y-116312401D01*
X149301400Y-116607599D01*
X149358990Y-116897125D01*
X149471958Y-117169853D01*
X149635961Y-117415302D01*
X149844698Y-117624039D01*
X150090147Y-117788042D01*
X150362875Y-117901010D01*
X150652401Y-117958600D01*
X150947599Y-117958600D01*
X151237125Y-117901010D01*
X151509853Y-117788042D01*
X151755302Y-117624039D01*
X151964039Y-117415302D01*
X152070000Y-117256719D01*
X152175961Y-117415302D01*
X152384698Y-117624039D01*
X152630147Y-117788042D01*
X152902875Y-117901010D01*
X153192401Y-117958600D01*
X153487599Y-117958600D01*
X153777125Y-117901010D01*
X154049853Y-117788042D01*
X154295302Y-117624039D01*
X154504039Y-117415302D01*
X154610000Y-117256719D01*
X154715961Y-117415302D01*
X154924698Y-117624039D01*
X155170147Y-117788042D01*
X155442875Y-117901010D01*
X155732401Y-117958600D01*
X156027599Y-117958600D01*
X156317125Y-117901010D01*
X156589853Y-117788042D01*
X156835302Y-117624039D01*
X157044039Y-117415302D01*
X157150000Y-117256719D01*
X157255961Y-117415302D01*
X157464698Y-117624039D01*
X157710147Y-117788042D01*
X157982875Y-117901010D01*
X158272401Y-117958600D01*
X158567599Y-117958600D01*
X158857125Y-117901010D01*
X159129853Y-117788042D01*
X159375302Y-117624039D01*
X159584039Y-117415302D01*
X159690000Y-117256719D01*
X159795961Y-117415302D01*
X160004698Y-117624039D01*
X160250147Y-117788042D01*
X160522875Y-117901010D01*
X160812401Y-117958600D01*
X161107599Y-117958600D01*
X161397125Y-117901010D01*
X161669853Y-117788042D01*
X161915302Y-117624039D01*
X162124039Y-117415302D01*
X162230000Y-117256719D01*
X162335961Y-117415302D01*
X162544698Y-117624039D01*
X162790147Y-117788042D01*
X163062875Y-117901010D01*
X163352401Y-117958600D01*
X163647599Y-117958600D01*
X163937125Y-117901010D01*
X164209853Y-117788042D01*
X164455302Y-117624039D01*
X164664039Y-117415302D01*
X164770000Y-117256719D01*
X164875961Y-117415302D01*
X165084698Y-117624039D01*
X165330147Y-117788042D01*
X165602875Y-117901010D01*
X165892401Y-117958600D01*
X166187599Y-117958600D01*
X166477125Y-117901010D01*
X166749853Y-117788042D01*
X166995302Y-117624039D01*
X167204039Y-117415302D01*
X167310000Y-117256719D01*
X167415961Y-117415302D01*
X167624698Y-117624039D01*
X167870147Y-117788042D01*
X168142875Y-117901010D01*
X168432401Y-117958600D01*
X168727599Y-117958600D01*
X169017125Y-117901010D01*
X169289853Y-117788042D01*
X169535302Y-117624039D01*
X169744039Y-117415302D01*
X169908042Y-117169853D01*
X170021010Y-116897125D01*
X170078600Y-116607599D01*
X170078600Y-116312401D01*
X172161400Y-116312401D01*
X172161400Y-116607599D01*
X172218990Y-116897125D01*
X172331958Y-117169853D01*
X172495961Y-117415302D01*
X172704698Y-117624039D01*
X172950147Y-117788042D01*
X173222875Y-117901010D01*
X173512401Y-117958600D01*
X173807599Y-117958600D01*
X174097125Y-117901010D01*
X174369853Y-117788042D01*
X174615302Y-117624039D01*
X174824039Y-117415302D01*
X174930000Y-117256719D01*
X175035961Y-117415302D01*
X175244698Y-117624039D01*
X175490147Y-117788042D01*
X175762875Y-117901010D01*
X176052401Y-117958600D01*
X176347599Y-117958600D01*
X176637125Y-117901010D01*
X176909853Y-117788042D01*
X177155302Y-117624039D01*
X177364039Y-117415302D01*
X177470000Y-117256719D01*
X177575961Y-117415302D01*
X177784698Y-117624039D01*
X178030147Y-117788042D01*
X178302875Y-117901010D01*
X178592401Y-117958600D01*
X178887599Y-117958600D01*
X179177125Y-117901010D01*
X179449853Y-117788042D01*
X179695302Y-117624039D01*
X179904039Y-117415302D01*
X180010000Y-117256719D01*
X180115961Y-117415302D01*
X180324698Y-117624039D01*
X180570147Y-117788042D01*
X180842875Y-117901010D01*
X181132401Y-117958600D01*
X181427599Y-117958600D01*
X181717125Y-117901010D01*
X181989853Y-117788042D01*
X182235302Y-117624039D01*
X182444039Y-117415302D01*
X182550000Y-117256719D01*
X182655961Y-117415302D01*
X182864698Y-117624039D01*
X183110147Y-117788042D01*
X183382875Y-117901010D01*
X183672401Y-117958600D01*
X183967599Y-117958600D01*
X184257125Y-117901010D01*
X184529853Y-117788042D01*
X184775302Y-117624039D01*
X184984039Y-117415302D01*
X185090000Y-117256719D01*
X185195961Y-117415302D01*
X185404698Y-117624039D01*
X185650147Y-117788042D01*
X185922875Y-117901010D01*
X186212401Y-117958600D01*
X186507599Y-117958600D01*
X186797125Y-117901010D01*
X187069853Y-117788042D01*
X187315302Y-117624039D01*
X187524039Y-117415302D01*
X187630000Y-117256719D01*
X187735961Y-117415302D01*
X187944698Y-117624039D01*
X188190147Y-117788042D01*
X188462875Y-117901010D01*
X188752401Y-117958600D01*
X189047599Y-117958600D01*
X189337125Y-117901010D01*
X189609853Y-117788042D01*
X189855302Y-117624039D01*
X190064039Y-117415302D01*
X190170000Y-117256719D01*
X190275961Y-117415302D01*
X190484698Y-117624039D01*
X190730147Y-117788042D01*
X191002875Y-117901010D01*
X191292401Y-117958600D01*
X191587599Y-117958600D01*
X191877125Y-117901010D01*
X192149853Y-117788042D01*
X192395302Y-117624039D01*
X192604039Y-117415302D01*
X192768042Y-117169853D01*
X192881010Y-116897125D01*
X192938600Y-116607599D01*
X192938600Y-116312401D01*
X192881010Y-116022875D01*
X192768042Y-115750147D01*
X192604039Y-115504698D01*
X192395302Y-115295961D01*
X192149853Y-115131958D01*
X191877125Y-115018990D01*
X191587599Y-114961400D01*
X191292401Y-114961400D01*
X191002875Y-115018990D01*
X190730147Y-115131958D01*
X190484698Y-115295961D01*
X190275961Y-115504698D01*
X190170000Y-115663281D01*
X190064039Y-115504698D01*
X189855302Y-115295961D01*
X189609853Y-115131958D01*
X189337125Y-115018990D01*
X189047599Y-114961400D01*
X188752401Y-114961400D01*
X188462875Y-115018990D01*
X188190147Y-115131958D01*
X187944698Y-115295961D01*
X187735961Y-115504698D01*
X187630000Y-115663281D01*
X187524039Y-115504698D01*
X187315302Y-115295961D01*
X187069853Y-115131958D01*
X186797125Y-115018990D01*
X186507599Y-114961400D01*
X186212401Y-114961400D01*
X185922875Y-115018990D01*
X185650147Y-115131958D01*
X185404698Y-115295961D01*
X185195961Y-115504698D01*
X185090000Y-115663281D01*
X184984039Y-115504698D01*
X184775302Y-115295961D01*
X184529853Y-115131958D01*
X184257125Y-115018990D01*
X183967599Y-114961400D01*
X183672401Y-114961400D01*
X183382875Y-115018990D01*
X183110147Y-115131958D01*
X182864698Y-115295961D01*
X182655961Y-115504698D01*
X182550000Y-115663281D01*
X182444039Y-115504698D01*
X182235302Y-115295961D01*
X181989853Y-115131958D01*
X181717125Y-115018990D01*
X181427599Y-114961400D01*
X181132401Y-114961400D01*
X180842875Y-115018990D01*
X180570147Y-115131958D01*
X180324698Y-115295961D01*
X180115961Y-115504698D01*
X180010000Y-115663281D01*
X179904039Y-115504698D01*
X179695302Y-115295961D01*
X179449853Y-115131958D01*
X179177125Y-115018990D01*
X178887599Y-114961400D01*
X178592401Y-114961400D01*
X178302875Y-115018990D01*
X178030147Y-115131958D01*
X177784698Y-115295961D01*
X177575961Y-115504698D01*
X177470000Y-115663281D01*
X177364039Y-115504698D01*
X177155302Y-115295961D01*
X176909853Y-115131958D01*
X176637125Y-115018990D01*
X176347599Y-114961400D01*
X176052401Y-114961400D01*
X175762875Y-115018990D01*
X175490147Y-115131958D01*
X175244698Y-115295961D01*
X175035961Y-115504698D01*
X174930000Y-115663281D01*
X174824039Y-115504698D01*
X174615302Y-115295961D01*
X174369853Y-115131958D01*
X174097125Y-115018990D01*
X173807599Y-114961400D01*
X173512401Y-114961400D01*
X173222875Y-115018990D01*
X172950147Y-115131958D01*
X172704698Y-115295961D01*
X172495961Y-115504698D01*
X172331958Y-115750147D01*
X172218990Y-116022875D01*
X172161400Y-116312401D01*
X170078600Y-116312401D01*
X170021010Y-116022875D01*
X169908042Y-115750147D01*
X169744039Y-115504698D01*
X169535302Y-115295961D01*
X169289853Y-115131958D01*
X169017125Y-115018990D01*
X168727599Y-114961400D01*
X168432401Y-114961400D01*
X168142875Y-115018990D01*
X167870147Y-115131958D01*
X167624698Y-115295961D01*
X167415961Y-115504698D01*
X167310000Y-115663281D01*
X167204039Y-115504698D01*
X166995302Y-115295961D01*
X166749853Y-115131958D01*
X166477125Y-115018990D01*
X166187599Y-114961400D01*
X165892401Y-114961400D01*
X165602875Y-115018990D01*
X165330147Y-115131958D01*
X165084698Y-115295961D01*
X164875961Y-115504698D01*
X164770000Y-115663281D01*
X164664039Y-115504698D01*
X164455302Y-115295961D01*
X164209853Y-115131958D01*
X163937125Y-115018990D01*
X163647599Y-114961400D01*
X163352401Y-114961400D01*
X163062875Y-115018990D01*
X162790147Y-115131958D01*
X162544698Y-115295961D01*
X162335961Y-115504698D01*
X162230000Y-115663281D01*
X162124039Y-115504698D01*
X161915302Y-115295961D01*
X161669853Y-115131958D01*
X161397125Y-115018990D01*
X161107599Y-114961400D01*
X160812401Y-114961400D01*
X160522875Y-115018990D01*
X160250147Y-115131958D01*
X160004698Y-115295961D01*
X159795961Y-115504698D01*
X159690000Y-115663281D01*
X159584039Y-115504698D01*
X159375302Y-115295961D01*
X159129853Y-115131958D01*
X158857125Y-115018990D01*
X158567599Y-114961400D01*
X158272401Y-114961400D01*
X157982875Y-115018990D01*
X157710147Y-115131958D01*
X157464698Y-115295961D01*
X157255961Y-115504698D01*
X157150000Y-115663281D01*
X157044039Y-115504698D01*
X156835302Y-115295961D01*
X156589853Y-115131958D01*
X156317125Y-115018990D01*
X156027599Y-114961400D01*
X155732401Y-114961400D01*
X155442875Y-115018990D01*
X155170147Y-115131958D01*
X154924698Y-115295961D01*
X154715961Y-115504698D01*
X154610000Y-115663281D01*
X154504039Y-115504698D01*
X154295302Y-115295961D01*
X154049853Y-115131958D01*
X153777125Y-115018990D01*
X153487599Y-114961400D01*
X153192401Y-114961400D01*
X152902875Y-115018990D01*
X152630147Y-115131958D01*
X152384698Y-115295961D01*
X152175961Y-115504698D01*
X152070000Y-115663281D01*
X151964039Y-115504698D01*
X151755302Y-115295961D01*
X151509853Y-115131958D01*
X151237125Y-115018990D01*
X150947599Y-114961400D01*
X150652401Y-114961400D01*
X150362875Y-115018990D01*
X150090147Y-115131958D01*
X149844698Y-115295961D01*
X149635961Y-115504698D01*
X149471958Y-115750147D01*
X149358990Y-116022875D01*
X149301400Y-116312401D01*
X147218600Y-116312401D01*
X147161010Y-116022875D01*
X147048042Y-115750147D01*
X146884039Y-115504698D01*
X146675302Y-115295961D01*
X146429853Y-115131958D01*
X146157125Y-115018990D01*
X145867599Y-114961400D01*
X145572401Y-114961400D01*
X145282875Y-115018990D01*
X145010147Y-115131958D01*
X144764698Y-115295961D01*
X144555961Y-115504698D01*
X144448308Y-115665813D01*
X144286854Y-115449707D01*
X144068488Y-115253183D01*
X143815978Y-115103036D01*
X143539027Y-115005037D01*
X143307000Y-115125536D01*
X143053000Y-115125536D01*
X142820973Y-115005037D01*
X142544022Y-115103036D01*
X142291512Y-115253183D01*
X142073146Y-115449707D01*
X141910000Y-115668078D01*
X141746854Y-115449707D01*
X141528488Y-115253183D01*
X141275978Y-115103036D01*
X140999027Y-115005037D01*
X140767000Y-115125536D01*
X140513000Y-115125536D01*
X140280973Y-115005037D01*
X140004022Y-115103036D01*
X139751512Y-115253183D01*
X139533146Y-115449707D01*
X139371692Y-115665813D01*
X139264039Y-115504698D01*
X139055302Y-115295961D01*
X138809853Y-115131958D01*
X138537125Y-115018990D01*
X138247599Y-114961400D01*
X137952401Y-114961400D01*
X137662875Y-115018990D01*
X137390147Y-115131958D01*
X137144698Y-115295961D01*
X136935961Y-115504698D01*
X136830000Y-115663281D01*
X136724039Y-115504698D01*
X136515302Y-115295961D01*
X136269853Y-115131958D01*
X135997125Y-115018990D01*
X135707599Y-114961400D01*
X135412401Y-114961400D01*
X135122875Y-115018990D01*
X134850147Y-115131958D01*
X134604698Y-115295961D01*
X134395961Y-115504698D01*
X134290000Y-115663281D01*
X134184039Y-115504698D01*
X133975302Y-115295961D01*
X133729853Y-115131958D01*
X133457125Y-115018990D01*
X133167599Y-114961400D01*
X132872401Y-114961400D01*
X132582875Y-115018990D01*
X132310147Y-115131958D01*
X132064698Y-115295961D01*
X131855961Y-115504698D01*
X131750000Y-115663281D01*
X131644039Y-115504698D01*
X131435302Y-115295961D01*
X131189853Y-115131958D01*
X130917125Y-115018990D01*
X130627599Y-114961400D01*
X130332401Y-114961400D01*
X130042875Y-115018990D01*
X129770147Y-115131958D01*
X129524698Y-115295961D01*
X129315961Y-115504698D01*
X129210000Y-115663281D01*
X129104039Y-115504698D01*
X128895302Y-115295961D01*
X128649853Y-115131958D01*
X128377125Y-115018990D01*
X128087599Y-114961400D01*
X127792401Y-114961400D01*
X127502875Y-115018990D01*
X127230147Y-115131958D01*
X126984698Y-115295961D01*
X126775961Y-115504698D01*
X126611958Y-115750147D01*
X126498990Y-116022875D01*
X126441400Y-116312401D01*
X111660000Y-116312401D01*
X111660000Y-111739026D01*
X192525042Y-111739026D01*
X192570778Y-111889814D01*
X192697316Y-112154944D01*
X192873146Y-112390293D01*
X193091512Y-112586817D01*
X193344022Y-112736964D01*
X193620973Y-112834963D01*
X193853000Y-112714464D01*
X193853000Y-111507000D01*
X194107000Y-111507000D01*
X194107000Y-112714464D01*
X194339027Y-112834963D01*
X194615978Y-112736964D01*
X194868488Y-112586817D01*
X195086854Y-112390293D01*
X195250000Y-112171922D01*
X195413146Y-112390293D01*
X195631512Y-112586817D01*
X195884022Y-112736964D01*
X196160973Y-112834963D01*
X196393000Y-112714464D01*
X196393000Y-111507000D01*
X196647000Y-111507000D01*
X196647000Y-112714464D01*
X196879027Y-112834963D01*
X197155978Y-112736964D01*
X197408488Y-112586817D01*
X197626854Y-112390293D01*
X197802684Y-112154944D01*
X197929222Y-111889814D01*
X197974958Y-111739026D01*
X197853817Y-111507000D01*
X196647000Y-111507000D01*
X196393000Y-111507000D01*
X194107000Y-111507000D01*
X193853000Y-111507000D01*
X192646183Y-111507000D01*
X192525042Y-111739026D01*
X111660000Y-111739026D01*
X111660000Y-104870000D01*
X122266928Y-104870000D01*
X122279188Y-104994482D01*
X122315498Y-105114180D01*
X122374463Y-105224494D01*
X122453815Y-105321185D01*
X122550506Y-105400537D01*
X122660820Y-105459502D01*
X122780518Y-105495812D01*
X122905000Y-105508072D01*
X123714250Y-105505000D01*
X123873000Y-105346250D01*
X123873000Y-104127000D01*
X124127000Y-104127000D01*
X124127000Y-105346250D01*
X124285750Y-105505000D01*
X125095000Y-105508072D01*
X125219482Y-105495812D01*
X125339180Y-105459502D01*
X125449494Y-105400537D01*
X125546185Y-105321185D01*
X125625537Y-105224494D01*
X125684502Y-105114180D01*
X125720812Y-104994482D01*
X125733072Y-104870000D01*
X125730000Y-104285750D01*
X125571250Y-104127000D01*
X124127000Y-104127000D01*
X123873000Y-104127000D01*
X122428750Y-104127000D01*
X122270000Y-104285750D01*
X122266928Y-104870000D01*
X111660000Y-104870000D01*
X111660000Y-96380000D01*
X122262718Y-96380000D01*
X122291776Y-96675032D01*
X122377834Y-96958725D01*
X122517583Y-97220179D01*
X122705655Y-97449345D01*
X122934821Y-97637417D01*
X122958362Y-97650000D01*
X122934821Y-97662583D01*
X122705655Y-97850655D01*
X122517583Y-98079821D01*
X122377834Y-98341275D01*
X122291776Y-98624968D01*
X122262718Y-98920000D01*
X122291776Y-99215032D01*
X122377834Y-99498725D01*
X122517583Y-99760179D01*
X122705655Y-99989345D01*
X122934821Y-100177417D01*
X122958362Y-100190000D01*
X122934821Y-100202583D01*
X122705655Y-100390655D01*
X122517583Y-100619821D01*
X122377834Y-100881275D01*
X122291776Y-101164968D01*
X122262718Y-101460000D01*
X122291776Y-101755032D01*
X122377834Y-102038725D01*
X122517583Y-102300179D01*
X122704047Y-102527385D01*
X122660820Y-102540498D01*
X122550506Y-102599463D01*
X122453815Y-102678815D01*
X122374463Y-102775506D01*
X122315498Y-102885820D01*
X122279188Y-103005518D01*
X122266928Y-103130000D01*
X122270000Y-103714250D01*
X122428750Y-103873000D01*
X123873000Y-103873000D01*
X123873000Y-103853000D01*
X124127000Y-103853000D01*
X124127000Y-103873000D01*
X125571250Y-103873000D01*
X125730000Y-103714250D01*
X125733072Y-103130000D01*
X125720812Y-103005518D01*
X125684502Y-102885820D01*
X125625537Y-102775506D01*
X125546185Y-102678815D01*
X125449494Y-102599463D01*
X125339180Y-102540498D01*
X125295953Y-102527385D01*
X125482417Y-102300179D01*
X125622166Y-102038725D01*
X125708224Y-101755032D01*
X125737282Y-101460000D01*
X125708224Y-101164968D01*
X125622166Y-100881275D01*
X125482417Y-100619821D01*
X125294345Y-100390655D01*
X125065179Y-100202583D01*
X125041638Y-100190000D01*
X125065179Y-100177417D01*
X125294345Y-99989345D01*
X125482417Y-99760179D01*
X125622166Y-99498725D01*
X125708224Y-99215032D01*
X125737282Y-98920000D01*
X125708224Y-98624968D01*
X125622166Y-98341275D01*
X125482417Y-98079821D01*
X125294345Y-97850655D01*
X125065179Y-97662583D01*
X125041638Y-97650000D01*
X125065179Y-97637417D01*
X125294345Y-97449345D01*
X125482417Y-97220179D01*
X125622166Y-96958725D01*
X125708224Y-96675032D01*
X125737282Y-96380000D01*
X125708224Y-96084968D01*
X125622166Y-95801275D01*
X125482417Y-95539821D01*
X125294345Y-95310655D01*
X125065179Y-95122583D01*
X124803725Y-94982834D01*
X124520032Y-94896776D01*
X124298936Y-94875000D01*
X123701064Y-94875000D01*
X123479968Y-94896776D01*
X123196275Y-94982834D01*
X122934821Y-95122583D01*
X122705655Y-95310655D01*
X122517583Y-95539821D01*
X122377834Y-95801275D01*
X122291776Y-96084968D01*
X122262718Y-96380000D01*
X111660000Y-96380000D01*
X111660000Y-88789721D01*
X113865000Y-88789721D01*
X113865000Y-89210279D01*
X113947047Y-89622756D01*
X114107988Y-90011302D01*
X114341637Y-90360983D01*
X114639017Y-90658363D01*
X114988698Y-90892012D01*
X115377244Y-91052953D01*
X115789721Y-91135000D01*
X116210279Y-91135000D01*
X116622756Y-91052953D01*
X117011302Y-90892012D01*
X117360983Y-90658363D01*
X117658363Y-90360983D01*
X117892012Y-90011302D01*
X118052953Y-89622756D01*
X118135000Y-89210279D01*
X118135000Y-88789721D01*
X118052953Y-88377244D01*
X117892012Y-87988698D01*
X117658363Y-87639017D01*
X117360983Y-87341637D01*
X117011302Y-87107988D01*
X116622756Y-86947047D01*
X116210279Y-86865000D01*
X115789721Y-86865000D01*
X115377244Y-86947047D01*
X114988698Y-87107988D01*
X114639017Y-87341637D01*
X114341637Y-87639017D01*
X114107988Y-87988698D01*
X113947047Y-88377244D01*
X113865000Y-88789721D01*
X111660000Y-88789721D01*
X111660000Y-68052401D01*
X117297400Y-68052401D01*
X117297400Y-68347599D01*
X117354990Y-68637125D01*
X117467958Y-68909853D01*
X117631961Y-69155302D01*
X117840698Y-69364039D01*
X118086147Y-69528042D01*
X118358875Y-69641010D01*
X118648401Y-69698600D01*
X118943599Y-69698600D01*
X119233125Y-69641010D01*
X119505853Y-69528042D01*
X119751302Y-69364039D01*
X119960039Y-69155302D01*
X120066000Y-68996719D01*
X120171961Y-69155302D01*
X120380698Y-69364039D01*
X120626147Y-69528042D01*
X120898875Y-69641010D01*
X121188401Y-69698600D01*
X121483599Y-69698600D01*
X121773125Y-69641010D01*
X122045853Y-69528042D01*
X122291302Y-69364039D01*
X122500039Y-69155302D01*
X122606000Y-68996719D01*
X122711961Y-69155302D01*
X122920698Y-69364039D01*
X123166147Y-69528042D01*
X123438875Y-69641010D01*
X123728401Y-69698600D01*
X124023599Y-69698600D01*
X124313125Y-69641010D01*
X124585853Y-69528042D01*
X124831302Y-69364039D01*
X125040039Y-69155302D01*
X125147692Y-68994187D01*
X125309146Y-69210293D01*
X125527512Y-69406817D01*
X125780022Y-69556964D01*
X126056973Y-69654963D01*
X126289000Y-69534464D01*
X126289000Y-68327000D01*
X126269000Y-68327000D01*
X126269000Y-68073000D01*
X126289000Y-68073000D01*
X126289000Y-66865536D01*
X126543000Y-66865536D01*
X126543000Y-68073000D01*
X126563000Y-68073000D01*
X126563000Y-68327000D01*
X126543000Y-68327000D01*
X126543000Y-69534464D01*
X126775027Y-69654963D01*
X127051978Y-69556964D01*
X127304488Y-69406817D01*
X127522854Y-69210293D01*
X127684308Y-68994187D01*
X127791961Y-69155302D01*
X128000698Y-69364039D01*
X128246147Y-69528042D01*
X128518875Y-69641010D01*
X128808401Y-69698600D01*
X129103599Y-69698600D01*
X129393125Y-69641010D01*
X129665853Y-69528042D01*
X129911302Y-69364039D01*
X130120039Y-69155302D01*
X130226000Y-68996719D01*
X130331961Y-69155302D01*
X130540698Y-69364039D01*
X130786147Y-69528042D01*
X131058875Y-69641010D01*
X131348401Y-69698600D01*
X131643599Y-69698600D01*
X131933125Y-69641010D01*
X132205853Y-69528042D01*
X132451302Y-69364039D01*
X132660039Y-69155302D01*
X132766000Y-68996719D01*
X132871961Y-69155302D01*
X133080698Y-69364039D01*
X133326147Y-69528042D01*
X133598875Y-69641010D01*
X133888401Y-69698600D01*
X134183599Y-69698600D01*
X134473125Y-69641010D01*
X134745853Y-69528042D01*
X134991302Y-69364039D01*
X135200039Y-69155302D01*
X135306000Y-68996719D01*
X135411961Y-69155302D01*
X135620698Y-69364039D01*
X135866147Y-69528042D01*
X136138875Y-69641010D01*
X136428401Y-69698600D01*
X136723599Y-69698600D01*
X137013125Y-69641010D01*
X137285853Y-69528042D01*
X137531302Y-69364039D01*
X137740039Y-69155302D01*
X137846000Y-68996719D01*
X137951961Y-69155302D01*
X138160698Y-69364039D01*
X138406147Y-69528042D01*
X138678875Y-69641010D01*
X138968401Y-69698600D01*
X139263599Y-69698600D01*
X139553125Y-69641010D01*
X139825853Y-69528042D01*
X140071302Y-69364039D01*
X140280039Y-69155302D01*
X140386000Y-68996719D01*
X140491961Y-69155302D01*
X140700698Y-69364039D01*
X140946147Y-69528042D01*
X141218875Y-69641010D01*
X141508401Y-69698600D01*
X141803599Y-69698600D01*
X142093125Y-69641010D01*
X142365853Y-69528042D01*
X142611302Y-69364039D01*
X142820039Y-69155302D01*
X142984042Y-68909853D01*
X143097010Y-68637125D01*
X143154600Y-68347599D01*
X143154600Y-68052401D01*
X144221400Y-68052401D01*
X144221400Y-68347599D01*
X144278990Y-68637125D01*
X144391958Y-68909853D01*
X144555961Y-69155302D01*
X144764698Y-69364039D01*
X145010147Y-69528042D01*
X145282875Y-69641010D01*
X145572401Y-69698600D01*
X145867599Y-69698600D01*
X146157125Y-69641010D01*
X146429853Y-69528042D01*
X146675302Y-69364039D01*
X146884039Y-69155302D01*
X146990000Y-68996719D01*
X147095961Y-69155302D01*
X147304698Y-69364039D01*
X147550147Y-69528042D01*
X147822875Y-69641010D01*
X148112401Y-69698600D01*
X148407599Y-69698600D01*
X148697125Y-69641010D01*
X148969853Y-69528042D01*
X149215302Y-69364039D01*
X149424039Y-69155302D01*
X149530000Y-68996719D01*
X149635961Y-69155302D01*
X149844698Y-69364039D01*
X150090147Y-69528042D01*
X150362875Y-69641010D01*
X150652401Y-69698600D01*
X150947599Y-69698600D01*
X151237125Y-69641010D01*
X151509853Y-69528042D01*
X151755302Y-69364039D01*
X151964039Y-69155302D01*
X152070000Y-68996719D01*
X152175961Y-69155302D01*
X152384698Y-69364039D01*
X152630147Y-69528042D01*
X152902875Y-69641010D01*
X153192401Y-69698600D01*
X153487599Y-69698600D01*
X153777125Y-69641010D01*
X154049853Y-69528042D01*
X154295302Y-69364039D01*
X154504039Y-69155302D01*
X154610000Y-68996719D01*
X154715961Y-69155302D01*
X154924698Y-69364039D01*
X155170147Y-69528042D01*
X155442875Y-69641010D01*
X155732401Y-69698600D01*
X156027599Y-69698600D01*
X156317125Y-69641010D01*
X156589853Y-69528042D01*
X156835302Y-69364039D01*
X157044039Y-69155302D01*
X157150000Y-68996719D01*
X157255961Y-69155302D01*
X157464698Y-69364039D01*
X157710147Y-69528042D01*
X157982875Y-69641010D01*
X158272401Y-69698600D01*
X158567599Y-69698600D01*
X158857125Y-69641010D01*
X159129853Y-69528042D01*
X159375302Y-69364039D01*
X159584039Y-69155302D01*
X159690000Y-68996719D01*
X159795961Y-69155302D01*
X160004698Y-69364039D01*
X160250147Y-69528042D01*
X160522875Y-69641010D01*
X160812401Y-69698600D01*
X161107599Y-69698600D01*
X161397125Y-69641010D01*
X161669853Y-69528042D01*
X161915302Y-69364039D01*
X162124039Y-69155302D01*
X162230000Y-68996719D01*
X162335961Y-69155302D01*
X162544698Y-69364039D01*
X162790147Y-69528042D01*
X163062875Y-69641010D01*
X163352401Y-69698600D01*
X163647599Y-69698600D01*
X163937125Y-69641010D01*
X164209853Y-69528042D01*
X164455302Y-69364039D01*
X164664039Y-69155302D01*
X164828042Y-68909853D01*
X164941010Y-68637125D01*
X164998600Y-68347599D01*
X164998600Y-68052401D01*
X167081400Y-68052401D01*
X167081400Y-68347599D01*
X167138990Y-68637125D01*
X167251958Y-68909853D01*
X167415961Y-69155302D01*
X167624698Y-69364039D01*
X167870147Y-69528042D01*
X168142875Y-69641010D01*
X168432401Y-69698600D01*
X168727599Y-69698600D01*
X169017125Y-69641010D01*
X169289853Y-69528042D01*
X169535302Y-69364039D01*
X169744039Y-69155302D01*
X169850000Y-68996719D01*
X169955961Y-69155302D01*
X170164698Y-69364039D01*
X170410147Y-69528042D01*
X170682875Y-69641010D01*
X170972401Y-69698600D01*
X171267599Y-69698600D01*
X171557125Y-69641010D01*
X171829853Y-69528042D01*
X172075302Y-69364039D01*
X172284039Y-69155302D01*
X172390000Y-68996719D01*
X172495961Y-69155302D01*
X172704698Y-69364039D01*
X172950147Y-69528042D01*
X173222875Y-69641010D01*
X173512401Y-69698600D01*
X173807599Y-69698600D01*
X174097125Y-69641010D01*
X174369853Y-69528042D01*
X174615302Y-69364039D01*
X174824039Y-69155302D01*
X174930000Y-68996719D01*
X175035961Y-69155302D01*
X175244698Y-69364039D01*
X175490147Y-69528042D01*
X175762875Y-69641010D01*
X176052401Y-69698600D01*
X176347599Y-69698600D01*
X176637125Y-69641010D01*
X176909853Y-69528042D01*
X177155302Y-69364039D01*
X177364039Y-69155302D01*
X177470000Y-68996719D01*
X177575961Y-69155302D01*
X177784698Y-69364039D01*
X178030147Y-69528042D01*
X178302875Y-69641010D01*
X178592401Y-69698600D01*
X178887599Y-69698600D01*
X179177125Y-69641010D01*
X179449853Y-69528042D01*
X179695302Y-69364039D01*
X179904039Y-69155302D01*
X180010000Y-68996719D01*
X180115961Y-69155302D01*
X180324698Y-69364039D01*
X180570147Y-69528042D01*
X180842875Y-69641010D01*
X181132401Y-69698600D01*
X181427599Y-69698600D01*
X181717125Y-69641010D01*
X181989853Y-69528042D01*
X182235302Y-69364039D01*
X182444039Y-69155302D01*
X182550000Y-68996719D01*
X182655961Y-69155302D01*
X182864698Y-69364039D01*
X183110147Y-69528042D01*
X183382875Y-69641010D01*
X183672401Y-69698600D01*
X183967599Y-69698600D01*
X184257125Y-69641010D01*
X184529853Y-69528042D01*
X184775302Y-69364039D01*
X184984039Y-69155302D01*
X185090000Y-68996719D01*
X185195961Y-69155302D01*
X185404698Y-69364039D01*
X185650147Y-69528042D01*
X185922875Y-69641010D01*
X186212401Y-69698600D01*
X186507599Y-69698600D01*
X186797125Y-69641010D01*
X187069853Y-69528042D01*
X187315302Y-69364039D01*
X187524039Y-69155302D01*
X187688042Y-68909853D01*
X187801010Y-68637125D01*
X187858600Y-68347599D01*
X187858600Y-68052401D01*
X192481400Y-68052401D01*
X192481400Y-68347599D01*
X192538990Y-68637125D01*
X192651958Y-68909853D01*
X192815961Y-69155302D01*
X193024698Y-69364039D01*
X193183281Y-69470000D01*
X193024698Y-69575961D01*
X192815961Y-69784698D01*
X192651958Y-70030147D01*
X192538990Y-70302875D01*
X192481400Y-70592401D01*
X192481400Y-70887599D01*
X192538990Y-71177125D01*
X192651958Y-71449853D01*
X192815961Y-71695302D01*
X193024698Y-71904039D01*
X193183281Y-72010000D01*
X193024698Y-72115961D01*
X192815961Y-72324698D01*
X192651958Y-72570147D01*
X192538990Y-72842875D01*
X192481400Y-73132401D01*
X192481400Y-73427599D01*
X192538990Y-73717125D01*
X192651958Y-73989853D01*
X192815961Y-74235302D01*
X193024698Y-74444039D01*
X193183281Y-74550000D01*
X193024698Y-74655961D01*
X192815961Y-74864698D01*
X192651958Y-75110147D01*
X192538990Y-75382875D01*
X192481400Y-75672401D01*
X192481400Y-75967599D01*
X192538990Y-76257125D01*
X192651958Y-76529853D01*
X192815961Y-76775302D01*
X193024698Y-76984039D01*
X193183281Y-77090000D01*
X193024698Y-77195961D01*
X192815961Y-77404698D01*
X192651958Y-77650147D01*
X192538990Y-77922875D01*
X192481400Y-78212401D01*
X192481400Y-78507599D01*
X192538990Y-78797125D01*
X192651958Y-79069853D01*
X192815961Y-79315302D01*
X193024698Y-79524039D01*
X193183281Y-79630000D01*
X193024698Y-79735961D01*
X192815961Y-79944698D01*
X192651958Y-80190147D01*
X192538990Y-80462875D01*
X192481400Y-80752401D01*
X192481400Y-81047599D01*
X192538990Y-81337125D01*
X192651958Y-81609853D01*
X192815961Y-81855302D01*
X193024698Y-82064039D01*
X193183281Y-82170000D01*
X193024698Y-82275961D01*
X192815961Y-82484698D01*
X192651958Y-82730147D01*
X192538990Y-83002875D01*
X192481400Y-83292401D01*
X192481400Y-83587599D01*
X192538990Y-83877125D01*
X192651958Y-84149853D01*
X192815961Y-84395302D01*
X193024698Y-84604039D01*
X193183281Y-84710000D01*
X193024698Y-84815961D01*
X192815961Y-85024698D01*
X192651958Y-85270147D01*
X192538990Y-85542875D01*
X192481400Y-85832401D01*
X192481400Y-86127599D01*
X192538990Y-86417125D01*
X192651958Y-86689853D01*
X192815961Y-86935302D01*
X193024698Y-87144039D01*
X193183281Y-87250000D01*
X193024698Y-87355961D01*
X192815961Y-87564698D01*
X192651958Y-87810147D01*
X192538990Y-88082875D01*
X192481400Y-88372401D01*
X192481400Y-88667599D01*
X192538990Y-88957125D01*
X192651958Y-89229853D01*
X192815961Y-89475302D01*
X193024698Y-89684039D01*
X193183281Y-89790000D01*
X193024698Y-89895961D01*
X192815961Y-90104698D01*
X192651958Y-90350147D01*
X192538990Y-90622875D01*
X192481400Y-90912401D01*
X192481400Y-91207599D01*
X192538990Y-91497125D01*
X192651958Y-91769853D01*
X192815961Y-92015302D01*
X193024698Y-92224039D01*
X193183281Y-92330000D01*
X193024698Y-92435961D01*
X192815961Y-92644698D01*
X192651958Y-92890147D01*
X192538990Y-93162875D01*
X192481400Y-93452401D01*
X192481400Y-93747599D01*
X192538990Y-94037125D01*
X192651958Y-94309853D01*
X192815961Y-94555302D01*
X193024698Y-94764039D01*
X193183281Y-94870000D01*
X193024698Y-94975961D01*
X192815961Y-95184698D01*
X192651958Y-95430147D01*
X192538990Y-95702875D01*
X192481400Y-95992401D01*
X192481400Y-96287599D01*
X192538990Y-96577125D01*
X192651958Y-96849853D01*
X192815961Y-97095302D01*
X193024698Y-97304039D01*
X193183281Y-97410000D01*
X193024698Y-97515961D01*
X192815961Y-97724698D01*
X192651958Y-97970147D01*
X192538990Y-98242875D01*
X192481400Y-98532401D01*
X192481400Y-98827599D01*
X192538990Y-99117125D01*
X192651958Y-99389853D01*
X192815961Y-99635302D01*
X193024698Y-99844039D01*
X193183281Y-99950000D01*
X193024698Y-100055961D01*
X192815961Y-100264698D01*
X192651958Y-100510147D01*
X192538990Y-100782875D01*
X192481400Y-101072401D01*
X192481400Y-101367599D01*
X192538990Y-101657125D01*
X192651958Y-101929853D01*
X192815961Y-102175302D01*
X193024698Y-102384039D01*
X193183281Y-102490000D01*
X193024698Y-102595961D01*
X192815961Y-102804698D01*
X192651958Y-103050147D01*
X192538990Y-103322875D01*
X192481400Y-103612401D01*
X192481400Y-103907599D01*
X192538990Y-104197125D01*
X192651958Y-104469853D01*
X192815961Y-104715302D01*
X193024698Y-104924039D01*
X193183281Y-105030000D01*
X193024698Y-105135961D01*
X192815961Y-105344698D01*
X192651958Y-105590147D01*
X192538990Y-105862875D01*
X192481400Y-106152401D01*
X192481400Y-106447599D01*
X192538990Y-106737125D01*
X192651958Y-107009853D01*
X192815961Y-107255302D01*
X193024698Y-107464039D01*
X193183281Y-107570000D01*
X193024698Y-107675961D01*
X192815961Y-107884698D01*
X192651958Y-108130147D01*
X192538990Y-108402875D01*
X192481400Y-108692401D01*
X192481400Y-108987599D01*
X192538990Y-109277125D01*
X192651958Y-109549853D01*
X192815961Y-109795302D01*
X193024698Y-110004039D01*
X193190103Y-110114559D01*
X193091512Y-110173183D01*
X192873146Y-110369707D01*
X192697316Y-110605056D01*
X192570778Y-110870186D01*
X192525042Y-111020974D01*
X192646183Y-111253000D01*
X193853000Y-111253000D01*
X193853000Y-111233000D01*
X194107000Y-111233000D01*
X194107000Y-111253000D01*
X196393000Y-111253000D01*
X196393000Y-111233000D01*
X196647000Y-111233000D01*
X196647000Y-111253000D01*
X197853817Y-111253000D01*
X197898775Y-111166890D01*
X203018524Y-111166890D01*
X203063175Y-111314099D01*
X203188359Y-111576920D01*
X203362412Y-111810269D01*
X203578645Y-112005178D01*
X203828748Y-112154157D01*
X204103109Y-112251481D01*
X204333000Y-112130814D01*
X204333000Y-110937000D01*
X204587000Y-110937000D01*
X204587000Y-112130814D01*
X204816891Y-112251481D01*
X205091252Y-112154157D01*
X205341355Y-112005178D01*
X205557588Y-111810269D01*
X205730000Y-111579120D01*
X205902412Y-111810269D01*
X206118645Y-112005178D01*
X206368748Y-112154157D01*
X206643109Y-112251481D01*
X206873000Y-112130814D01*
X206873000Y-110937000D01*
X207127000Y-110937000D01*
X207127000Y-112130814D01*
X207356891Y-112251481D01*
X207631252Y-112154157D01*
X207881355Y-112005178D01*
X208097588Y-111810269D01*
X208271641Y-111576920D01*
X208396825Y-111314099D01*
X208441476Y-111166890D01*
X208320155Y-110937000D01*
X207127000Y-110937000D01*
X206873000Y-110937000D01*
X204587000Y-110937000D01*
X204333000Y-110937000D01*
X203139845Y-110937000D01*
X203018524Y-111166890D01*
X197898775Y-111166890D01*
X197974958Y-111020974D01*
X197929222Y-110870186D01*
X197802684Y-110605056D01*
X197626854Y-110369707D01*
X197408488Y-110173183D01*
X197309897Y-110114559D01*
X197475302Y-110004039D01*
X197684039Y-109795302D01*
X197848042Y-109549853D01*
X197961010Y-109277125D01*
X198018600Y-108987599D01*
X198018600Y-108692401D01*
X197961010Y-108402875D01*
X197848042Y-108130147D01*
X197684039Y-107884698D01*
X197475302Y-107675961D01*
X197316719Y-107570000D01*
X197475302Y-107464039D01*
X197684039Y-107255302D01*
X197848042Y-107009853D01*
X197961010Y-106737125D01*
X198018600Y-106447599D01*
X198018600Y-106152401D01*
X197961010Y-105862875D01*
X197848042Y-105590147D01*
X197684039Y-105344698D01*
X197475302Y-105135961D01*
X197316719Y-105030000D01*
X197475302Y-104924039D01*
X197684039Y-104715302D01*
X197848042Y-104469853D01*
X197961010Y-104197125D01*
X198018600Y-103907599D01*
X198018600Y-103612401D01*
X197961010Y-103322875D01*
X197848042Y-103050147D01*
X197684039Y-102804698D01*
X197475302Y-102595961D01*
X197316719Y-102490000D01*
X197475302Y-102384039D01*
X197684039Y-102175302D01*
X197848042Y-101929853D01*
X197961010Y-101657125D01*
X198018600Y-101367599D01*
X198018600Y-101072401D01*
X197961010Y-100782875D01*
X197848042Y-100510147D01*
X197684039Y-100264698D01*
X197475302Y-100055961D01*
X197316719Y-99950000D01*
X197475302Y-99844039D01*
X197684039Y-99635302D01*
X197848042Y-99389853D01*
X197961010Y-99117125D01*
X198018600Y-98827599D01*
X198018600Y-98532401D01*
X197961010Y-98242875D01*
X197848042Y-97970147D01*
X197684039Y-97724698D01*
X197475302Y-97515961D01*
X197316719Y-97410000D01*
X197475302Y-97304039D01*
X197684039Y-97095302D01*
X197848042Y-96849853D01*
X197961010Y-96577125D01*
X198018600Y-96287599D01*
X198018600Y-95992401D01*
X197961010Y-95702875D01*
X197848042Y-95430147D01*
X197684039Y-95184698D01*
X197475302Y-94975961D01*
X197316719Y-94870000D01*
X197475302Y-94764039D01*
X197684039Y-94555302D01*
X197848042Y-94309853D01*
X197961010Y-94037125D01*
X198018600Y-93747599D01*
X198018600Y-93452401D01*
X197961010Y-93162875D01*
X197848042Y-92890147D01*
X197684039Y-92644698D01*
X197475302Y-92435961D01*
X197316719Y-92330000D01*
X197475302Y-92224039D01*
X197684039Y-92015302D01*
X197848042Y-91769853D01*
X197961010Y-91497125D01*
X198018600Y-91207599D01*
X198018600Y-90912401D01*
X197961010Y-90622875D01*
X197848042Y-90350147D01*
X197684039Y-90104698D01*
X197475302Y-89895961D01*
X197316719Y-89790000D01*
X197475302Y-89684039D01*
X197684039Y-89475302D01*
X197848042Y-89229853D01*
X197961010Y-88957125D01*
X198018600Y-88667599D01*
X198018600Y-88372401D01*
X197961010Y-88082875D01*
X197848042Y-87810147D01*
X197684039Y-87564698D01*
X197475302Y-87355961D01*
X197316719Y-87250000D01*
X197475302Y-87144039D01*
X197684039Y-86935302D01*
X197848042Y-86689853D01*
X197961010Y-86417125D01*
X198018600Y-86127599D01*
X198018600Y-85832401D01*
X197961010Y-85542875D01*
X197848042Y-85270147D01*
X197684039Y-85024698D01*
X197475302Y-84815961D01*
X197316719Y-84710000D01*
X197475302Y-84604039D01*
X197684039Y-84395302D01*
X197848042Y-84149853D01*
X197961010Y-83877125D01*
X198018600Y-83587599D01*
X198018600Y-83292401D01*
X197961010Y-83002875D01*
X197848042Y-82730147D01*
X197684039Y-82484698D01*
X197475302Y-82275961D01*
X197316719Y-82170000D01*
X197475302Y-82064039D01*
X197684039Y-81855302D01*
X197848042Y-81609853D01*
X197961010Y-81337125D01*
X198018600Y-81047599D01*
X198018600Y-80752401D01*
X197961010Y-80462875D01*
X197848042Y-80190147D01*
X197684039Y-79944698D01*
X197475302Y-79735961D01*
X197316719Y-79630000D01*
X197475302Y-79524039D01*
X197684039Y-79315302D01*
X197848042Y-79069853D01*
X197961010Y-78797125D01*
X198018600Y-78507599D01*
X198018600Y-78212401D01*
X197961010Y-77922875D01*
X197848042Y-77650147D01*
X197684039Y-77404698D01*
X197475302Y-77195961D01*
X197316719Y-77090000D01*
X197475302Y-76984039D01*
X197684039Y-76775302D01*
X197848042Y-76529853D01*
X197961010Y-76257125D01*
X198018600Y-75967599D01*
X198018600Y-75672401D01*
X197961010Y-75382875D01*
X197848042Y-75110147D01*
X197843761Y-75103740D01*
X202975000Y-75103740D01*
X202975000Y-75396260D01*
X203032068Y-75683158D01*
X203144010Y-75953411D01*
X203306525Y-76196632D01*
X203513368Y-76403475D01*
X203695534Y-76525195D01*
X203578645Y-76594822D01*
X203362412Y-76789731D01*
X203188359Y-77023080D01*
X203063175Y-77285901D01*
X203018524Y-77433110D01*
X203139845Y-77663000D01*
X204333000Y-77663000D01*
X204333000Y-77643000D01*
X204587000Y-77643000D01*
X204587000Y-77663000D01*
X204607000Y-77663000D01*
X204607000Y-77917000D01*
X204587000Y-77917000D01*
X204587000Y-77937000D01*
X204333000Y-77937000D01*
X204333000Y-77917000D01*
X203139845Y-77917000D01*
X203018524Y-78146890D01*
X203063175Y-78294099D01*
X203188359Y-78556920D01*
X203362412Y-78790269D01*
X203578645Y-78985178D01*
X203695534Y-79054805D01*
X203513368Y-79176525D01*
X203306525Y-79383368D01*
X203144010Y-79626589D01*
X203032068Y-79896842D01*
X202975000Y-80183740D01*
X202975000Y-80476260D01*
X203032068Y-80763158D01*
X203144010Y-81033411D01*
X203306525Y-81276632D01*
X203513368Y-81483475D01*
X203687760Y-81600000D01*
X203513368Y-81716525D01*
X203306525Y-81923368D01*
X203144010Y-82166589D01*
X203032068Y-82436842D01*
X202975000Y-82723740D01*
X202975000Y-83016260D01*
X203032068Y-83303158D01*
X203144010Y-83573411D01*
X203306525Y-83816632D01*
X203513368Y-84023475D01*
X203687760Y-84140000D01*
X203513368Y-84256525D01*
X203306525Y-84463368D01*
X203144010Y-84706589D01*
X203032068Y-84976842D01*
X202975000Y-85263740D01*
X202975000Y-85556260D01*
X203032068Y-85843158D01*
X203144010Y-86113411D01*
X203306525Y-86356632D01*
X203513368Y-86563475D01*
X203687760Y-86680000D01*
X203513368Y-86796525D01*
X203306525Y-87003368D01*
X203144010Y-87246589D01*
X203032068Y-87516842D01*
X202975000Y-87803740D01*
X202975000Y-88096260D01*
X203032068Y-88383158D01*
X203144010Y-88653411D01*
X203306525Y-88896632D01*
X203513368Y-89103475D01*
X203687760Y-89220000D01*
X203513368Y-89336525D01*
X203306525Y-89543368D01*
X203144010Y-89786589D01*
X203032068Y-90056842D01*
X202975000Y-90343740D01*
X202975000Y-90636260D01*
X203032068Y-90923158D01*
X203144010Y-91193411D01*
X203306525Y-91436632D01*
X203513368Y-91643475D01*
X203687760Y-91760000D01*
X203513368Y-91876525D01*
X203306525Y-92083368D01*
X203144010Y-92326589D01*
X203032068Y-92596842D01*
X202975000Y-92883740D01*
X202975000Y-93176260D01*
X203032068Y-93463158D01*
X203144010Y-93733411D01*
X203306525Y-93976632D01*
X203513368Y-94183475D01*
X203687760Y-94300000D01*
X203513368Y-94416525D01*
X203306525Y-94623368D01*
X203144010Y-94866589D01*
X203032068Y-95136842D01*
X202975000Y-95423740D01*
X202975000Y-95716260D01*
X203032068Y-96003158D01*
X203144010Y-96273411D01*
X203306525Y-96516632D01*
X203513368Y-96723475D01*
X203687760Y-96840000D01*
X203513368Y-96956525D01*
X203306525Y-97163368D01*
X203144010Y-97406589D01*
X203032068Y-97676842D01*
X202975000Y-97963740D01*
X202975000Y-98256260D01*
X203032068Y-98543158D01*
X203144010Y-98813411D01*
X203306525Y-99056632D01*
X203513368Y-99263475D01*
X203687760Y-99380000D01*
X203513368Y-99496525D01*
X203306525Y-99703368D01*
X203144010Y-99946589D01*
X203032068Y-100216842D01*
X202975000Y-100503740D01*
X202975000Y-100796260D01*
X203032068Y-101083158D01*
X203144010Y-101353411D01*
X203306525Y-101596632D01*
X203513368Y-101803475D01*
X203687760Y-101920000D01*
X203513368Y-102036525D01*
X203306525Y-102243368D01*
X203144010Y-102486589D01*
X203032068Y-102756842D01*
X202975000Y-103043740D01*
X202975000Y-103336260D01*
X203032068Y-103623158D01*
X203144010Y-103893411D01*
X203306525Y-104136632D01*
X203513368Y-104343475D01*
X203687760Y-104460000D01*
X203513368Y-104576525D01*
X203306525Y-104783368D01*
X203144010Y-105026589D01*
X203032068Y-105296842D01*
X202975000Y-105583740D01*
X202975000Y-105876260D01*
X203032068Y-106163158D01*
X203144010Y-106433411D01*
X203306525Y-106676632D01*
X203513368Y-106883475D01*
X203687760Y-107000000D01*
X203513368Y-107116525D01*
X203306525Y-107323368D01*
X203144010Y-107566589D01*
X203032068Y-107836842D01*
X202975000Y-108123740D01*
X202975000Y-108416260D01*
X203032068Y-108703158D01*
X203144010Y-108973411D01*
X203306525Y-109216632D01*
X203513368Y-109423475D01*
X203695534Y-109545195D01*
X203578645Y-109614822D01*
X203362412Y-109809731D01*
X203188359Y-110043080D01*
X203063175Y-110305901D01*
X203018524Y-110453110D01*
X203139845Y-110683000D01*
X204333000Y-110683000D01*
X204333000Y-110663000D01*
X204587000Y-110663000D01*
X204587000Y-110683000D01*
X206873000Y-110683000D01*
X206873000Y-110663000D01*
X207127000Y-110663000D01*
X207127000Y-110683000D01*
X208320155Y-110683000D01*
X208441476Y-110453110D01*
X208396825Y-110305901D01*
X208271641Y-110043080D01*
X208097588Y-109809731D01*
X207881355Y-109614822D01*
X207764466Y-109545195D01*
X207946632Y-109423475D01*
X208153475Y-109216632D01*
X208315990Y-108973411D01*
X208427932Y-108703158D01*
X208485000Y-108416260D01*
X208485000Y-108123740D01*
X208427932Y-107836842D01*
X208315990Y-107566589D01*
X208153475Y-107323368D01*
X207946632Y-107116525D01*
X207772240Y-107000000D01*
X207946632Y-106883475D01*
X208153475Y-106676632D01*
X208315990Y-106433411D01*
X208427932Y-106163158D01*
X208485000Y-105876260D01*
X208485000Y-105583740D01*
X208427932Y-105296842D01*
X208315990Y-105026589D01*
X208153475Y-104783368D01*
X207946632Y-104576525D01*
X207772240Y-104460000D01*
X207946632Y-104343475D01*
X208153475Y-104136632D01*
X208315990Y-103893411D01*
X208427932Y-103623158D01*
X208485000Y-103336260D01*
X208485000Y-103043740D01*
X208427932Y-102756842D01*
X208315990Y-102486589D01*
X208153475Y-102243368D01*
X207946632Y-102036525D01*
X207772240Y-101920000D01*
X207946632Y-101803475D01*
X208153475Y-101596632D01*
X208315990Y-101353411D01*
X208427932Y-101083158D01*
X208485000Y-100796260D01*
X208485000Y-100503740D01*
X208427932Y-100216842D01*
X208315990Y-99946589D01*
X208153475Y-99703368D01*
X207946632Y-99496525D01*
X207772240Y-99380000D01*
X207946632Y-99263475D01*
X208153475Y-99056632D01*
X208315990Y-98813411D01*
X208427932Y-98543158D01*
X208485000Y-98256260D01*
X208485000Y-97963740D01*
X208427932Y-97676842D01*
X208315990Y-97406589D01*
X208153475Y-97163368D01*
X207946632Y-96956525D01*
X207772240Y-96840000D01*
X207946632Y-96723475D01*
X208153475Y-96516632D01*
X208315990Y-96273411D01*
X208427932Y-96003158D01*
X208485000Y-95716260D01*
X208485000Y-95423740D01*
X208427932Y-95136842D01*
X208315990Y-94866589D01*
X208153475Y-94623368D01*
X207946632Y-94416525D01*
X207772240Y-94300000D01*
X207946632Y-94183475D01*
X208153475Y-93976632D01*
X208315990Y-93733411D01*
X208427932Y-93463158D01*
X208485000Y-93176260D01*
X208485000Y-92883740D01*
X208427932Y-92596842D01*
X208315990Y-92326589D01*
X208153475Y-92083368D01*
X207946632Y-91876525D01*
X207772240Y-91760000D01*
X207946632Y-91643475D01*
X208153475Y-91436632D01*
X208315990Y-91193411D01*
X208427932Y-90923158D01*
X208485000Y-90636260D01*
X208485000Y-90343740D01*
X208427932Y-90056842D01*
X208315990Y-89786589D01*
X208153475Y-89543368D01*
X207946632Y-89336525D01*
X207772240Y-89220000D01*
X207946632Y-89103475D01*
X208153475Y-88896632D01*
X208315990Y-88653411D01*
X208427932Y-88383158D01*
X208485000Y-88096260D01*
X208485000Y-87803740D01*
X208427932Y-87516842D01*
X208315990Y-87246589D01*
X208153475Y-87003368D01*
X207946632Y-86796525D01*
X207772240Y-86680000D01*
X207946632Y-86563475D01*
X208153475Y-86356632D01*
X208315990Y-86113411D01*
X208427932Y-85843158D01*
X208485000Y-85556260D01*
X208485000Y-85263740D01*
X208427932Y-84976842D01*
X208315990Y-84706589D01*
X208153475Y-84463368D01*
X207946632Y-84256525D01*
X207772240Y-84140000D01*
X207946632Y-84023475D01*
X208153475Y-83816632D01*
X208315990Y-83573411D01*
X208427932Y-83303158D01*
X208485000Y-83016260D01*
X208485000Y-82723740D01*
X208427932Y-82436842D01*
X208315990Y-82166589D01*
X208153475Y-81923368D01*
X207946632Y-81716525D01*
X207772240Y-81600000D01*
X207946632Y-81483475D01*
X208153475Y-81276632D01*
X208315990Y-81033411D01*
X208427932Y-80763158D01*
X208485000Y-80476260D01*
X208485000Y-80183740D01*
X208427932Y-79896842D01*
X208315990Y-79626589D01*
X208153475Y-79383368D01*
X207946632Y-79176525D01*
X207772240Y-79060000D01*
X207946632Y-78943475D01*
X208153475Y-78736632D01*
X208315990Y-78493411D01*
X208427932Y-78223158D01*
X208485000Y-77936260D01*
X208485000Y-77643740D01*
X208427932Y-77356842D01*
X208315990Y-77086589D01*
X208153475Y-76843368D01*
X208021620Y-76711513D01*
X208094180Y-76689502D01*
X208204494Y-76630537D01*
X208301185Y-76551185D01*
X208380537Y-76454494D01*
X208439502Y-76344180D01*
X208475812Y-76224482D01*
X208488072Y-76100000D01*
X208488072Y-74400000D01*
X208475812Y-74275518D01*
X208439502Y-74155820D01*
X208380537Y-74045506D01*
X208301185Y-73948815D01*
X208204494Y-73869463D01*
X208094180Y-73810498D01*
X207974482Y-73774188D01*
X207850000Y-73761928D01*
X206150000Y-73761928D01*
X206025518Y-73774188D01*
X205905820Y-73810498D01*
X205795506Y-73869463D01*
X205698815Y-73948815D01*
X205619463Y-74045506D01*
X205560498Y-74155820D01*
X205538487Y-74228380D01*
X205406632Y-74096525D01*
X205163411Y-73934010D01*
X204893158Y-73822068D01*
X204606260Y-73765000D01*
X204313740Y-73765000D01*
X204026842Y-73822068D01*
X203756589Y-73934010D01*
X203513368Y-74096525D01*
X203306525Y-74303368D01*
X203144010Y-74546589D01*
X203032068Y-74816842D01*
X202975000Y-75103740D01*
X197843761Y-75103740D01*
X197684039Y-74864698D01*
X197475302Y-74655961D01*
X197316719Y-74550000D01*
X197475302Y-74444039D01*
X197684039Y-74235302D01*
X197848042Y-73989853D01*
X197961010Y-73717125D01*
X198018600Y-73427599D01*
X198018600Y-73132401D01*
X197961010Y-72842875D01*
X197848042Y-72570147D01*
X197684039Y-72324698D01*
X197475302Y-72115961D01*
X197316719Y-72010000D01*
X197475302Y-71904039D01*
X197684039Y-71695302D01*
X197848042Y-71449853D01*
X197961010Y-71177125D01*
X198018600Y-70887599D01*
X198018600Y-70592401D01*
X197961010Y-70302875D01*
X197848042Y-70030147D01*
X197684039Y-69784698D01*
X197475302Y-69575961D01*
X197316719Y-69470000D01*
X197475302Y-69364039D01*
X197684039Y-69155302D01*
X197848042Y-68909853D01*
X197961010Y-68637125D01*
X198018600Y-68347599D01*
X198018600Y-68052401D01*
X197961010Y-67762875D01*
X197848042Y-67490147D01*
X197684039Y-67244698D01*
X197475302Y-67035961D01*
X197229853Y-66871958D01*
X196957125Y-66758990D01*
X196667599Y-66701400D01*
X196372401Y-66701400D01*
X196082875Y-66758990D01*
X195810147Y-66871958D01*
X195564698Y-67035961D01*
X195355961Y-67244698D01*
X195250000Y-67403281D01*
X195144039Y-67244698D01*
X194935302Y-67035961D01*
X194689853Y-66871958D01*
X194417125Y-66758990D01*
X194127599Y-66701400D01*
X193832401Y-66701400D01*
X193542875Y-66758990D01*
X193270147Y-66871958D01*
X193024698Y-67035961D01*
X192815961Y-67244698D01*
X192651958Y-67490147D01*
X192538990Y-67762875D01*
X192481400Y-68052401D01*
X187858600Y-68052401D01*
X187801010Y-67762875D01*
X187688042Y-67490147D01*
X187524039Y-67244698D01*
X187315302Y-67035961D01*
X187069853Y-66871958D01*
X186797125Y-66758990D01*
X186507599Y-66701400D01*
X186212401Y-66701400D01*
X185922875Y-66758990D01*
X185650147Y-66871958D01*
X185404698Y-67035961D01*
X185195961Y-67244698D01*
X185090000Y-67403281D01*
X184984039Y-67244698D01*
X184775302Y-67035961D01*
X184529853Y-66871958D01*
X184257125Y-66758990D01*
X183967599Y-66701400D01*
X183672401Y-66701400D01*
X183382875Y-66758990D01*
X183110147Y-66871958D01*
X182864698Y-67035961D01*
X182655961Y-67244698D01*
X182550000Y-67403281D01*
X182444039Y-67244698D01*
X182235302Y-67035961D01*
X181989853Y-66871958D01*
X181717125Y-66758990D01*
X181427599Y-66701400D01*
X181132401Y-66701400D01*
X180842875Y-66758990D01*
X180570147Y-66871958D01*
X180324698Y-67035961D01*
X180115961Y-67244698D01*
X180010000Y-67403281D01*
X179904039Y-67244698D01*
X179695302Y-67035961D01*
X179449853Y-66871958D01*
X179177125Y-66758990D01*
X178887599Y-66701400D01*
X178592401Y-66701400D01*
X178302875Y-66758990D01*
X178030147Y-66871958D01*
X177784698Y-67035961D01*
X177575961Y-67244698D01*
X177470000Y-67403281D01*
X177364039Y-67244698D01*
X177155302Y-67035961D01*
X176909853Y-66871958D01*
X176637125Y-66758990D01*
X176347599Y-66701400D01*
X176052401Y-66701400D01*
X175762875Y-66758990D01*
X175490147Y-66871958D01*
X175244698Y-67035961D01*
X175035961Y-67244698D01*
X174930000Y-67403281D01*
X174824039Y-67244698D01*
X174615302Y-67035961D01*
X174369853Y-66871958D01*
X174097125Y-66758990D01*
X173807599Y-66701400D01*
X173512401Y-66701400D01*
X173222875Y-66758990D01*
X172950147Y-66871958D01*
X172704698Y-67035961D01*
X172495961Y-67244698D01*
X172390000Y-67403281D01*
X172284039Y-67244698D01*
X172075302Y-67035961D01*
X171829853Y-66871958D01*
X171557125Y-66758990D01*
X171267599Y-66701400D01*
X170972401Y-66701400D01*
X170682875Y-66758990D01*
X170410147Y-66871958D01*
X170164698Y-67035961D01*
X169955961Y-67244698D01*
X169850000Y-67403281D01*
X169744039Y-67244698D01*
X169535302Y-67035961D01*
X169289853Y-66871958D01*
X169017125Y-66758990D01*
X168727599Y-66701400D01*
X168432401Y-66701400D01*
X168142875Y-66758990D01*
X167870147Y-66871958D01*
X167624698Y-67035961D01*
X167415961Y-67244698D01*
X167251958Y-67490147D01*
X167138990Y-67762875D01*
X167081400Y-68052401D01*
X164998600Y-68052401D01*
X164941010Y-67762875D01*
X164828042Y-67490147D01*
X164664039Y-67244698D01*
X164455302Y-67035961D01*
X164209853Y-66871958D01*
X163937125Y-66758990D01*
X163647599Y-66701400D01*
X163352401Y-66701400D01*
X163062875Y-66758990D01*
X162790147Y-66871958D01*
X162544698Y-67035961D01*
X162335961Y-67244698D01*
X162230000Y-67403281D01*
X162124039Y-67244698D01*
X161915302Y-67035961D01*
X161669853Y-66871958D01*
X161397125Y-66758990D01*
X161107599Y-66701400D01*
X160812401Y-66701400D01*
X160522875Y-66758990D01*
X160250147Y-66871958D01*
X160004698Y-67035961D01*
X159795961Y-67244698D01*
X159690000Y-67403281D01*
X159584039Y-67244698D01*
X159375302Y-67035961D01*
X159129853Y-66871958D01*
X158857125Y-66758990D01*
X158567599Y-66701400D01*
X158272401Y-66701400D01*
X157982875Y-66758990D01*
X157710147Y-66871958D01*
X157464698Y-67035961D01*
X157255961Y-67244698D01*
X157150000Y-67403281D01*
X157044039Y-67244698D01*
X156835302Y-67035961D01*
X156589853Y-66871958D01*
X156317125Y-66758990D01*
X156027599Y-66701400D01*
X155732401Y-66701400D01*
X155442875Y-66758990D01*
X155170147Y-66871958D01*
X154924698Y-67035961D01*
X154715961Y-67244698D01*
X154610000Y-67403281D01*
X154504039Y-67244698D01*
X154295302Y-67035961D01*
X154049853Y-66871958D01*
X153777125Y-66758990D01*
X153487599Y-66701400D01*
X153192401Y-66701400D01*
X152902875Y-66758990D01*
X152630147Y-66871958D01*
X152384698Y-67035961D01*
X152175961Y-67244698D01*
X152070000Y-67403281D01*
X151964039Y-67244698D01*
X151755302Y-67035961D01*
X151509853Y-66871958D01*
X151237125Y-66758990D01*
X150947599Y-66701400D01*
X150652401Y-66701400D01*
X150362875Y-66758990D01*
X150090147Y-66871958D01*
X149844698Y-67035961D01*
X149635961Y-67244698D01*
X149530000Y-67403281D01*
X149424039Y-67244698D01*
X149215302Y-67035961D01*
X148969853Y-66871958D01*
X148697125Y-66758990D01*
X148407599Y-66701400D01*
X148112401Y-66701400D01*
X147822875Y-66758990D01*
X147550147Y-66871958D01*
X147304698Y-67035961D01*
X147095961Y-67244698D01*
X146990000Y-67403281D01*
X146884039Y-67244698D01*
X146675302Y-67035961D01*
X146429853Y-66871958D01*
X146157125Y-66758990D01*
X145867599Y-66701400D01*
X145572401Y-66701400D01*
X145282875Y-66758990D01*
X145010147Y-66871958D01*
X144764698Y-67035961D01*
X144555961Y-67244698D01*
X144391958Y-67490147D01*
X144278990Y-67762875D01*
X144221400Y-68052401D01*
X143154600Y-68052401D01*
X143097010Y-67762875D01*
X142984042Y-67490147D01*
X142820039Y-67244698D01*
X142611302Y-67035961D01*
X142365853Y-66871958D01*
X142093125Y-66758990D01*
X141803599Y-66701400D01*
X141508401Y-66701400D01*
X141218875Y-66758990D01*
X140946147Y-66871958D01*
X140700698Y-67035961D01*
X140491961Y-67244698D01*
X140386000Y-67403281D01*
X140280039Y-67244698D01*
X140071302Y-67035961D01*
X139825853Y-66871958D01*
X139553125Y-66758990D01*
X139263599Y-66701400D01*
X138968401Y-66701400D01*
X138678875Y-66758990D01*
X138406147Y-66871958D01*
X138160698Y-67035961D01*
X137951961Y-67244698D01*
X137846000Y-67403281D01*
X137740039Y-67244698D01*
X137531302Y-67035961D01*
X137285853Y-66871958D01*
X137013125Y-66758990D01*
X136723599Y-66701400D01*
X136428401Y-66701400D01*
X136138875Y-66758990D01*
X135866147Y-66871958D01*
X135620698Y-67035961D01*
X135411961Y-67244698D01*
X135306000Y-67403281D01*
X135200039Y-67244698D01*
X134991302Y-67035961D01*
X134745853Y-66871958D01*
X134473125Y-66758990D01*
X134183599Y-66701400D01*
X133888401Y-66701400D01*
X133598875Y-66758990D01*
X133326147Y-66871958D01*
X133080698Y-67035961D01*
X132871961Y-67244698D01*
X132766000Y-67403281D01*
X132660039Y-67244698D01*
X132451302Y-67035961D01*
X132205853Y-66871958D01*
X131933125Y-66758990D01*
X131643599Y-66701400D01*
X131348401Y-66701400D01*
X131058875Y-66758990D01*
X130786147Y-66871958D01*
X130540698Y-67035961D01*
X130331961Y-67244698D01*
X130226000Y-67403281D01*
X130120039Y-67244698D01*
X129911302Y-67035961D01*
X129665853Y-66871958D01*
X129393125Y-66758990D01*
X129103599Y-66701400D01*
X128808401Y-66701400D01*
X128518875Y-66758990D01*
X128246147Y-66871958D01*
X128000698Y-67035961D01*
X127791961Y-67244698D01*
X127684308Y-67405813D01*
X127522854Y-67189707D01*
X127304488Y-66993183D01*
X127051978Y-66843036D01*
X126775027Y-66745037D01*
X126543000Y-66865536D01*
X126289000Y-66865536D01*
X126056973Y-66745037D01*
X125780022Y-66843036D01*
X125527512Y-66993183D01*
X125309146Y-67189707D01*
X125147692Y-67405813D01*
X125040039Y-67244698D01*
X124831302Y-67035961D01*
X124585853Y-66871958D01*
X124313125Y-66758990D01*
X124023599Y-66701400D01*
X123728401Y-66701400D01*
X123438875Y-66758990D01*
X123166147Y-66871958D01*
X122920698Y-67035961D01*
X122711961Y-67244698D01*
X122606000Y-67403281D01*
X122500039Y-67244698D01*
X122291302Y-67035961D01*
X122045853Y-66871958D01*
X121773125Y-66758990D01*
X121483599Y-66701400D01*
X121188401Y-66701400D01*
X120898875Y-66758990D01*
X120626147Y-66871958D01*
X120380698Y-67035961D01*
X120171961Y-67244698D01*
X120066000Y-67403281D01*
X119960039Y-67244698D01*
X119751302Y-67035961D01*
X119505853Y-66871958D01*
X119233125Y-66758990D01*
X118943599Y-66701400D01*
X118648401Y-66701400D01*
X118358875Y-66758990D01*
X118086147Y-66871958D01*
X117840698Y-67035961D01*
X117631961Y-67244698D01*
X117467958Y-67490147D01*
X117354990Y-67762875D01*
X117297400Y-68052401D01*
X111660000Y-68052401D01*
X111660000Y-66032279D01*
X111707670Y-65546107D01*
X111839489Y-65109502D01*
X112053600Y-64706815D01*
X112341848Y-64353388D01*
X112693261Y-64062673D01*
X113094439Y-63845758D01*
X113530113Y-63710894D01*
X114014344Y-63660000D01*
X207967721Y-63660000D01*
X208453893Y-63707670D01*
G37*
X208453893Y-63707670D02*
X208890498Y-63839489D01*
X209293185Y-64053600D01*
X209646612Y-64341848D01*
X209937327Y-64693261D01*
X210154242Y-65094439D01*
X210289106Y-65530113D01*
X210340001Y-66014353D01*
X210340000Y-119967721D01*
X210292330Y-120453894D01*
X210160512Y-120890497D01*
X209946399Y-121293186D01*
X209658150Y-121646613D01*
X209306739Y-121937327D01*
X208905564Y-122154240D01*
X208469886Y-122289106D01*
X207985664Y-122340000D01*
X114032279Y-122340000D01*
X113546106Y-122292330D01*
X113109503Y-122160512D01*
X112706814Y-121946399D01*
X112353387Y-121658150D01*
X112062673Y-121306739D01*
X111845760Y-120905564D01*
X111710894Y-120469886D01*
X111660000Y-119985664D01*
X111660000Y-116312401D01*
X126441400Y-116312401D01*
X126441400Y-116607599D01*
X126498990Y-116897125D01*
X126611958Y-117169853D01*
X126775961Y-117415302D01*
X126984698Y-117624039D01*
X127230147Y-117788042D01*
X127502875Y-117901010D01*
X127792401Y-117958600D01*
X128087599Y-117958600D01*
X128377125Y-117901010D01*
X128649853Y-117788042D01*
X128895302Y-117624039D01*
X129104039Y-117415302D01*
X129210000Y-117256719D01*
X129315961Y-117415302D01*
X129524698Y-117624039D01*
X129770147Y-117788042D01*
X130042875Y-117901010D01*
X130332401Y-117958600D01*
X130627599Y-117958600D01*
X130917125Y-117901010D01*
X131189853Y-117788042D01*
X131435302Y-117624039D01*
X131644039Y-117415302D01*
X131750000Y-117256719D01*
X131855961Y-117415302D01*
X132064698Y-117624039D01*
X132310147Y-117788042D01*
X132582875Y-117901010D01*
X132872401Y-117958600D01*
X133167599Y-117958600D01*
X133457125Y-117901010D01*
X133729853Y-117788042D01*
X133975302Y-117624039D01*
X134184039Y-117415302D01*
X134290000Y-117256719D01*
X134395961Y-117415302D01*
X134604698Y-117624039D01*
X134850147Y-117788042D01*
X135122875Y-117901010D01*
X135412401Y-117958600D01*
X135707599Y-117958600D01*
X135997125Y-117901010D01*
X136269853Y-117788042D01*
X136515302Y-117624039D01*
X136724039Y-117415302D01*
X136830000Y-117256719D01*
X136935961Y-117415302D01*
X137144698Y-117624039D01*
X137390147Y-117788042D01*
X137662875Y-117901010D01*
X137952401Y-117958600D01*
X138247599Y-117958600D01*
X138537125Y-117901010D01*
X138809853Y-117788042D01*
X139055302Y-117624039D01*
X139264039Y-117415302D01*
X139371692Y-117254187D01*
X139533146Y-117470293D01*
X139751512Y-117666817D01*
X140004022Y-117816964D01*
X140280973Y-117914963D01*
X140513000Y-117794464D01*
X140513000Y-116587000D01*
X140767000Y-116587000D01*
X140767000Y-117794464D01*
X140999027Y-117914963D01*
X141275978Y-117816964D01*
X141528488Y-117666817D01*
X141746854Y-117470293D01*
X141910000Y-117251922D01*
X142073146Y-117470293D01*
X142291512Y-117666817D01*
X142544022Y-117816964D01*
X142820973Y-117914963D01*
X143053000Y-117794464D01*
X143053000Y-116587000D01*
X140767000Y-116587000D01*
X140513000Y-116587000D01*
X140493000Y-116587000D01*
X140493000Y-116333000D01*
X140513000Y-116333000D01*
X140513000Y-115125536D01*
X140767000Y-115125536D01*
X140767000Y-116333000D01*
X143053000Y-116333000D01*
X143053000Y-115125536D01*
X143307000Y-115125536D01*
X143307000Y-116333000D01*
X143327000Y-116333000D01*
X143327000Y-116587000D01*
X143307000Y-116587000D01*
X143307000Y-117794464D01*
X143539027Y-117914963D01*
X143815978Y-117816964D01*
X144068488Y-117666817D01*
X144286854Y-117470293D01*
X144448308Y-117254187D01*
X144555961Y-117415302D01*
X144764698Y-117624039D01*
X145010147Y-117788042D01*
X145282875Y-117901010D01*
X145572401Y-117958600D01*
X145867599Y-117958600D01*
X146157125Y-117901010D01*
X146429853Y-117788042D01*
X146675302Y-117624039D01*
X146884039Y-117415302D01*
X147048042Y-117169853D01*
X147161010Y-116897125D01*
X147218600Y-116607599D01*
X147218600Y-116312401D01*
X149301400Y-116312401D01*
X149301400Y-116607599D01*
X149358990Y-116897125D01*
X149471958Y-117169853D01*
X149635961Y-117415302D01*
X149844698Y-117624039D01*
X150090147Y-117788042D01*
X150362875Y-117901010D01*
X150652401Y-117958600D01*
X150947599Y-117958600D01*
X151237125Y-117901010D01*
X151509853Y-117788042D01*
X151755302Y-117624039D01*
X151964039Y-117415302D01*
X152070000Y-117256719D01*
X152175961Y-117415302D01*
X152384698Y-117624039D01*
X152630147Y-117788042D01*
X152902875Y-117901010D01*
X153192401Y-117958600D01*
X153487599Y-117958600D01*
X153777125Y-117901010D01*
X154049853Y-117788042D01*
X154295302Y-117624039D01*
X154504039Y-117415302D01*
X154610000Y-117256719D01*
X154715961Y-117415302D01*
X154924698Y-117624039D01*
X155170147Y-117788042D01*
X155442875Y-117901010D01*
X155732401Y-117958600D01*
X156027599Y-117958600D01*
X156317125Y-117901010D01*
X156589853Y-117788042D01*
X156835302Y-117624039D01*
X157044039Y-117415302D01*
X157150000Y-117256719D01*
X157255961Y-117415302D01*
X157464698Y-117624039D01*
X157710147Y-117788042D01*
X157982875Y-117901010D01*
X158272401Y-117958600D01*
X158567599Y-117958600D01*
X158857125Y-117901010D01*
X159129853Y-117788042D01*
X159375302Y-117624039D01*
X159584039Y-117415302D01*
X159690000Y-117256719D01*
X159795961Y-117415302D01*
X160004698Y-117624039D01*
X160250147Y-117788042D01*
X160522875Y-117901010D01*
X160812401Y-117958600D01*
X161107599Y-117958600D01*
X161397125Y-117901010D01*
X161669853Y-117788042D01*
X161915302Y-117624039D01*
X162124039Y-117415302D01*
X162230000Y-117256719D01*
X162335961Y-117415302D01*
X162544698Y-117624039D01*
X162790147Y-117788042D01*
X163062875Y-117901010D01*
X163352401Y-117958600D01*
X163647599Y-117958600D01*
X163937125Y-117901010D01*
X164209853Y-117788042D01*
X164455302Y-117624039D01*
X164664039Y-117415302D01*
X164770000Y-117256719D01*
X164875961Y-117415302D01*
X165084698Y-117624039D01*
X165330147Y-117788042D01*
X165602875Y-117901010D01*
X165892401Y-117958600D01*
X166187599Y-117958600D01*
X166477125Y-117901010D01*
X166749853Y-117788042D01*
X166995302Y-117624039D01*
X167204039Y-117415302D01*
X167310000Y-117256719D01*
X167415961Y-117415302D01*
X167624698Y-117624039D01*
X167870147Y-117788042D01*
X168142875Y-117901010D01*
X168432401Y-117958600D01*
X168727599Y-117958600D01*
X169017125Y-117901010D01*
X169289853Y-117788042D01*
X169535302Y-117624039D01*
X169744039Y-117415302D01*
X169908042Y-117169853D01*
X170021010Y-116897125D01*
X170078600Y-116607599D01*
X170078600Y-116312401D01*
X172161400Y-116312401D01*
X172161400Y-116607599D01*
X172218990Y-116897125D01*
X172331958Y-117169853D01*
X172495961Y-117415302D01*
X172704698Y-117624039D01*
X172950147Y-117788042D01*
X173222875Y-117901010D01*
X173512401Y-117958600D01*
X173807599Y-117958600D01*
X174097125Y-117901010D01*
X174369853Y-117788042D01*
X174615302Y-117624039D01*
X174824039Y-117415302D01*
X174930000Y-117256719D01*
X175035961Y-117415302D01*
X175244698Y-117624039D01*
X175490147Y-117788042D01*
X175762875Y-117901010D01*
X176052401Y-117958600D01*
X176347599Y-117958600D01*
X176637125Y-117901010D01*
X176909853Y-117788042D01*
X177155302Y-117624039D01*
X177364039Y-117415302D01*
X177470000Y-117256719D01*
X177575961Y-117415302D01*
X177784698Y-117624039D01*
X178030147Y-117788042D01*
X178302875Y-117901010D01*
X178592401Y-117958600D01*
X178887599Y-117958600D01*
X179177125Y-117901010D01*
X179449853Y-117788042D01*
X179695302Y-117624039D01*
X179904039Y-117415302D01*
X180010000Y-117256719D01*
X180115961Y-117415302D01*
X180324698Y-117624039D01*
X180570147Y-117788042D01*
X180842875Y-117901010D01*
X181132401Y-117958600D01*
X181427599Y-117958600D01*
X181717125Y-117901010D01*
X181989853Y-117788042D01*
X182235302Y-117624039D01*
X182444039Y-117415302D01*
X182550000Y-117256719D01*
X182655961Y-117415302D01*
X182864698Y-117624039D01*
X183110147Y-117788042D01*
X183382875Y-117901010D01*
X183672401Y-117958600D01*
X183967599Y-117958600D01*
X184257125Y-117901010D01*
X184529853Y-117788042D01*
X184775302Y-117624039D01*
X184984039Y-117415302D01*
X185090000Y-117256719D01*
X185195961Y-117415302D01*
X185404698Y-117624039D01*
X185650147Y-117788042D01*
X185922875Y-117901010D01*
X186212401Y-117958600D01*
X186507599Y-117958600D01*
X186797125Y-117901010D01*
X187069853Y-117788042D01*
X187315302Y-117624039D01*
X187524039Y-117415302D01*
X187630000Y-117256719D01*
X187735961Y-117415302D01*
X187944698Y-117624039D01*
X188190147Y-117788042D01*
X188462875Y-117901010D01*
X188752401Y-117958600D01*
X189047599Y-117958600D01*
X189337125Y-117901010D01*
X189609853Y-117788042D01*
X189855302Y-117624039D01*
X190064039Y-117415302D01*
X190170000Y-117256719D01*
X190275961Y-117415302D01*
X190484698Y-117624039D01*
X190730147Y-117788042D01*
X191002875Y-117901010D01*
X191292401Y-117958600D01*
X191587599Y-117958600D01*
X191877125Y-117901010D01*
X192149853Y-117788042D01*
X192395302Y-117624039D01*
X192604039Y-117415302D01*
X192768042Y-117169853D01*
X192881010Y-116897125D01*
X192938600Y-116607599D01*
X192938600Y-116312401D01*
X192881010Y-116022875D01*
X192768042Y-115750147D01*
X192604039Y-115504698D01*
X192395302Y-115295961D01*
X192149853Y-115131958D01*
X191877125Y-115018990D01*
X191587599Y-114961400D01*
X191292401Y-114961400D01*
X191002875Y-115018990D01*
X190730147Y-115131958D01*
X190484698Y-115295961D01*
X190275961Y-115504698D01*
X190170000Y-115663281D01*
X190064039Y-115504698D01*
X189855302Y-115295961D01*
X189609853Y-115131958D01*
X189337125Y-115018990D01*
X189047599Y-114961400D01*
X188752401Y-114961400D01*
X188462875Y-115018990D01*
X188190147Y-115131958D01*
X187944698Y-115295961D01*
X187735961Y-115504698D01*
X187630000Y-115663281D01*
X187524039Y-115504698D01*
X187315302Y-115295961D01*
X187069853Y-115131958D01*
X186797125Y-115018990D01*
X186507599Y-114961400D01*
X186212401Y-114961400D01*
X185922875Y-115018990D01*
X185650147Y-115131958D01*
X185404698Y-115295961D01*
X185195961Y-115504698D01*
X185090000Y-115663281D01*
X184984039Y-115504698D01*
X184775302Y-115295961D01*
X184529853Y-115131958D01*
X184257125Y-115018990D01*
X183967599Y-114961400D01*
X183672401Y-114961400D01*
X183382875Y-115018990D01*
X183110147Y-115131958D01*
X182864698Y-115295961D01*
X182655961Y-115504698D01*
X182550000Y-115663281D01*
X182444039Y-115504698D01*
X182235302Y-115295961D01*
X181989853Y-115131958D01*
X181717125Y-115018990D01*
X181427599Y-114961400D01*
X181132401Y-114961400D01*
X180842875Y-115018990D01*
X180570147Y-115131958D01*
X180324698Y-115295961D01*
X180115961Y-115504698D01*
X180010000Y-115663281D01*
X179904039Y-115504698D01*
X179695302Y-115295961D01*
X179449853Y-115131958D01*
X179177125Y-115018990D01*
X178887599Y-114961400D01*
X178592401Y-114961400D01*
X178302875Y-115018990D01*
X178030147Y-115131958D01*
X177784698Y-115295961D01*
X177575961Y-115504698D01*
X177470000Y-115663281D01*
X177364039Y-115504698D01*
X177155302Y-115295961D01*
X176909853Y-115131958D01*
X176637125Y-115018990D01*
X176347599Y-114961400D01*
X176052401Y-114961400D01*
X175762875Y-115018990D01*
X175490147Y-115131958D01*
X175244698Y-115295961D01*
X175035961Y-115504698D01*
X174930000Y-115663281D01*
X174824039Y-115504698D01*
X174615302Y-115295961D01*
X174369853Y-115131958D01*
X174097125Y-115018990D01*
X173807599Y-114961400D01*
X173512401Y-114961400D01*
X173222875Y-115018990D01*
X172950147Y-115131958D01*
X172704698Y-115295961D01*
X172495961Y-115504698D01*
X172331958Y-115750147D01*
X172218990Y-116022875D01*
X172161400Y-116312401D01*
X170078600Y-116312401D01*
X170021010Y-116022875D01*
X169908042Y-115750147D01*
X169744039Y-115504698D01*
X169535302Y-115295961D01*
X169289853Y-115131958D01*
X169017125Y-115018990D01*
X168727599Y-114961400D01*
X168432401Y-114961400D01*
X168142875Y-115018990D01*
X167870147Y-115131958D01*
X167624698Y-115295961D01*
X167415961Y-115504698D01*
X167310000Y-115663281D01*
X167204039Y-115504698D01*
X166995302Y-115295961D01*
X166749853Y-115131958D01*
X166477125Y-115018990D01*
X166187599Y-114961400D01*
X165892401Y-114961400D01*
X165602875Y-115018990D01*
X165330147Y-115131958D01*
X165084698Y-115295961D01*
X164875961Y-115504698D01*
X164770000Y-115663281D01*
X164664039Y-115504698D01*
X164455302Y-115295961D01*
X164209853Y-115131958D01*
X163937125Y-115018990D01*
X163647599Y-114961400D01*
X163352401Y-114961400D01*
X163062875Y-115018990D01*
X162790147Y-115131958D01*
X162544698Y-115295961D01*
X162335961Y-115504698D01*
X162230000Y-115663281D01*
X162124039Y-115504698D01*
X161915302Y-115295961D01*
X161669853Y-115131958D01*
X161397125Y-115018990D01*
X161107599Y-114961400D01*
X160812401Y-114961400D01*
X160522875Y-115018990D01*
X160250147Y-115131958D01*
X160004698Y-115295961D01*
X159795961Y-115504698D01*
X159690000Y-115663281D01*
X159584039Y-115504698D01*
X159375302Y-115295961D01*
X159129853Y-115131958D01*
X158857125Y-115018990D01*
X158567599Y-114961400D01*
X158272401Y-114961400D01*
X157982875Y-115018990D01*
X157710147Y-115131958D01*
X157464698Y-115295961D01*
X157255961Y-115504698D01*
X157150000Y-115663281D01*
X157044039Y-115504698D01*
X156835302Y-115295961D01*
X156589853Y-115131958D01*
X156317125Y-115018990D01*
X156027599Y-114961400D01*
X155732401Y-114961400D01*
X155442875Y-115018990D01*
X155170147Y-115131958D01*
X154924698Y-115295961D01*
X154715961Y-115504698D01*
X154610000Y-115663281D01*
X154504039Y-115504698D01*
X154295302Y-115295961D01*
X154049853Y-115131958D01*
X153777125Y-115018990D01*
X153487599Y-114961400D01*
X153192401Y-114961400D01*
X152902875Y-115018990D01*
X152630147Y-115131958D01*
X152384698Y-115295961D01*
X152175961Y-115504698D01*
X152070000Y-115663281D01*
X151964039Y-115504698D01*
X151755302Y-115295961D01*
X151509853Y-115131958D01*
X151237125Y-115018990D01*
X150947599Y-114961400D01*
X150652401Y-114961400D01*
X150362875Y-115018990D01*
X150090147Y-115131958D01*
X149844698Y-115295961D01*
X149635961Y-115504698D01*
X149471958Y-115750147D01*
X149358990Y-116022875D01*
X149301400Y-116312401D01*
X147218600Y-116312401D01*
X147161010Y-116022875D01*
X147048042Y-115750147D01*
X146884039Y-115504698D01*
X146675302Y-115295961D01*
X146429853Y-115131958D01*
X146157125Y-115018990D01*
X145867599Y-114961400D01*
X145572401Y-114961400D01*
X145282875Y-115018990D01*
X145010147Y-115131958D01*
X144764698Y-115295961D01*
X144555961Y-115504698D01*
X144448308Y-115665813D01*
X144286854Y-115449707D01*
X144068488Y-115253183D01*
X143815978Y-115103036D01*
X143539027Y-115005037D01*
X143307000Y-115125536D01*
X143053000Y-115125536D01*
X142820973Y-115005037D01*
X142544022Y-115103036D01*
X142291512Y-115253183D01*
X142073146Y-115449707D01*
X141910000Y-115668078D01*
X141746854Y-115449707D01*
X141528488Y-115253183D01*
X141275978Y-115103036D01*
X140999027Y-115005037D01*
X140767000Y-115125536D01*
X140513000Y-115125536D01*
X140280973Y-115005037D01*
X140004022Y-115103036D01*
X139751512Y-115253183D01*
X139533146Y-115449707D01*
X139371692Y-115665813D01*
X139264039Y-115504698D01*
X139055302Y-115295961D01*
X138809853Y-115131958D01*
X138537125Y-115018990D01*
X138247599Y-114961400D01*
X137952401Y-114961400D01*
X137662875Y-115018990D01*
X137390147Y-115131958D01*
X137144698Y-115295961D01*
X136935961Y-115504698D01*
X136830000Y-115663281D01*
X136724039Y-115504698D01*
X136515302Y-115295961D01*
X136269853Y-115131958D01*
X135997125Y-115018990D01*
X135707599Y-114961400D01*
X135412401Y-114961400D01*
X135122875Y-115018990D01*
X134850147Y-115131958D01*
X134604698Y-115295961D01*
X134395961Y-115504698D01*
X134290000Y-115663281D01*
X134184039Y-115504698D01*
X133975302Y-115295961D01*
X133729853Y-115131958D01*
X133457125Y-115018990D01*
X133167599Y-114961400D01*
X132872401Y-114961400D01*
X132582875Y-115018990D01*
X132310147Y-115131958D01*
X132064698Y-115295961D01*
X131855961Y-115504698D01*
X131750000Y-115663281D01*
X131644039Y-115504698D01*
X131435302Y-115295961D01*
X131189853Y-115131958D01*
X130917125Y-115018990D01*
X130627599Y-114961400D01*
X130332401Y-114961400D01*
X130042875Y-115018990D01*
X129770147Y-115131958D01*
X129524698Y-115295961D01*
X129315961Y-115504698D01*
X129210000Y-115663281D01*
X129104039Y-115504698D01*
X128895302Y-115295961D01*
X128649853Y-115131958D01*
X128377125Y-115018990D01*
X128087599Y-114961400D01*
X127792401Y-114961400D01*
X127502875Y-115018990D01*
X127230147Y-115131958D01*
X126984698Y-115295961D01*
X126775961Y-115504698D01*
X126611958Y-115750147D01*
X126498990Y-116022875D01*
X126441400Y-116312401D01*
X111660000Y-116312401D01*
X111660000Y-111739026D01*
X192525042Y-111739026D01*
X192570778Y-111889814D01*
X192697316Y-112154944D01*
X192873146Y-112390293D01*
X193091512Y-112586817D01*
X193344022Y-112736964D01*
X193620973Y-112834963D01*
X193853000Y-112714464D01*
X193853000Y-111507000D01*
X194107000Y-111507000D01*
X194107000Y-112714464D01*
X194339027Y-112834963D01*
X194615978Y-112736964D01*
X194868488Y-112586817D01*
X195086854Y-112390293D01*
X195250000Y-112171922D01*
X195413146Y-112390293D01*
X195631512Y-112586817D01*
X195884022Y-112736964D01*
X196160973Y-112834963D01*
X196393000Y-112714464D01*
X196393000Y-111507000D01*
X196647000Y-111507000D01*
X196647000Y-112714464D01*
X196879027Y-112834963D01*
X197155978Y-112736964D01*
X197408488Y-112586817D01*
X197626854Y-112390293D01*
X197802684Y-112154944D01*
X197929222Y-111889814D01*
X197974958Y-111739026D01*
X197853817Y-111507000D01*
X196647000Y-111507000D01*
X196393000Y-111507000D01*
X194107000Y-111507000D01*
X193853000Y-111507000D01*
X192646183Y-111507000D01*
X192525042Y-111739026D01*
X111660000Y-111739026D01*
X111660000Y-104870000D01*
X122266928Y-104870000D01*
X122279188Y-104994482D01*
X122315498Y-105114180D01*
X122374463Y-105224494D01*
X122453815Y-105321185D01*
X122550506Y-105400537D01*
X122660820Y-105459502D01*
X122780518Y-105495812D01*
X122905000Y-105508072D01*
X123714250Y-105505000D01*
X123873000Y-105346250D01*
X123873000Y-104127000D01*
X124127000Y-104127000D01*
X124127000Y-105346250D01*
X124285750Y-105505000D01*
X125095000Y-105508072D01*
X125219482Y-105495812D01*
X125339180Y-105459502D01*
X125449494Y-105400537D01*
X125546185Y-105321185D01*
X125625537Y-105224494D01*
X125684502Y-105114180D01*
X125720812Y-104994482D01*
X125733072Y-104870000D01*
X125730000Y-104285750D01*
X125571250Y-104127000D01*
X124127000Y-104127000D01*
X123873000Y-104127000D01*
X122428750Y-104127000D01*
X122270000Y-104285750D01*
X122266928Y-104870000D01*
X111660000Y-104870000D01*
X111660000Y-96380000D01*
X122262718Y-96380000D01*
X122291776Y-96675032D01*
X122377834Y-96958725D01*
X122517583Y-97220179D01*
X122705655Y-97449345D01*
X122934821Y-97637417D01*
X122958362Y-97650000D01*
X122934821Y-97662583D01*
X122705655Y-97850655D01*
X122517583Y-98079821D01*
X122377834Y-98341275D01*
X122291776Y-98624968D01*
X122262718Y-98920000D01*
X122291776Y-99215032D01*
X122377834Y-99498725D01*
X122517583Y-99760179D01*
X122705655Y-99989345D01*
X122934821Y-100177417D01*
X122958362Y-100190000D01*
X122934821Y-100202583D01*
X122705655Y-100390655D01*
X122517583Y-100619821D01*
X122377834Y-100881275D01*
X122291776Y-101164968D01*
X122262718Y-101460000D01*
X122291776Y-101755032D01*
X122377834Y-102038725D01*
X122517583Y-102300179D01*
X122704047Y-102527385D01*
X122660820Y-102540498D01*
X122550506Y-102599463D01*
X122453815Y-102678815D01*
X122374463Y-102775506D01*
X122315498Y-102885820D01*
X122279188Y-103005518D01*
X122266928Y-103130000D01*
X122270000Y-103714250D01*
X122428750Y-103873000D01*
X123873000Y-103873000D01*
X123873000Y-103853000D01*
X124127000Y-103853000D01*
X124127000Y-103873000D01*
X125571250Y-103873000D01*
X125730000Y-103714250D01*
X125733072Y-103130000D01*
X125720812Y-103005518D01*
X125684502Y-102885820D01*
X125625537Y-102775506D01*
X125546185Y-102678815D01*
X125449494Y-102599463D01*
X125339180Y-102540498D01*
X125295953Y-102527385D01*
X125482417Y-102300179D01*
X125622166Y-102038725D01*
X125708224Y-101755032D01*
X125737282Y-101460000D01*
X125708224Y-101164968D01*
X125622166Y-100881275D01*
X125482417Y-100619821D01*
X125294345Y-100390655D01*
X125065179Y-100202583D01*
X125041638Y-100190000D01*
X125065179Y-100177417D01*
X125294345Y-99989345D01*
X125482417Y-99760179D01*
X125622166Y-99498725D01*
X125708224Y-99215032D01*
X125737282Y-98920000D01*
X125708224Y-98624968D01*
X125622166Y-98341275D01*
X125482417Y-98079821D01*
X125294345Y-97850655D01*
X125065179Y-97662583D01*
X125041638Y-97650000D01*
X125065179Y-97637417D01*
X125294345Y-97449345D01*
X125482417Y-97220179D01*
X125622166Y-96958725D01*
X125708224Y-96675032D01*
X125737282Y-96380000D01*
X125708224Y-96084968D01*
X125622166Y-95801275D01*
X125482417Y-95539821D01*
X125294345Y-95310655D01*
X125065179Y-95122583D01*
X124803725Y-94982834D01*
X124520032Y-94896776D01*
X124298936Y-94875000D01*
X123701064Y-94875000D01*
X123479968Y-94896776D01*
X123196275Y-94982834D01*
X122934821Y-95122583D01*
X122705655Y-95310655D01*
X122517583Y-95539821D01*
X122377834Y-95801275D01*
X122291776Y-96084968D01*
X122262718Y-96380000D01*
X111660000Y-96380000D01*
X111660000Y-88789721D01*
X113865000Y-88789721D01*
X113865000Y-89210279D01*
X113947047Y-89622756D01*
X114107988Y-90011302D01*
X114341637Y-90360983D01*
X114639017Y-90658363D01*
X114988698Y-90892012D01*
X115377244Y-91052953D01*
X115789721Y-91135000D01*
X116210279Y-91135000D01*
X116622756Y-91052953D01*
X117011302Y-90892012D01*
X117360983Y-90658363D01*
X117658363Y-90360983D01*
X117892012Y-90011302D01*
X118052953Y-89622756D01*
X118135000Y-89210279D01*
X118135000Y-88789721D01*
X118052953Y-88377244D01*
X117892012Y-87988698D01*
X117658363Y-87639017D01*
X117360983Y-87341637D01*
X117011302Y-87107988D01*
X116622756Y-86947047D01*
X116210279Y-86865000D01*
X115789721Y-86865000D01*
X115377244Y-86947047D01*
X114988698Y-87107988D01*
X114639017Y-87341637D01*
X114341637Y-87639017D01*
X114107988Y-87988698D01*
X113947047Y-88377244D01*
X113865000Y-88789721D01*
X111660000Y-88789721D01*
X111660000Y-68052401D01*
X117297400Y-68052401D01*
X117297400Y-68347599D01*
X117354990Y-68637125D01*
X117467958Y-68909853D01*
X117631961Y-69155302D01*
X117840698Y-69364039D01*
X118086147Y-69528042D01*
X118358875Y-69641010D01*
X118648401Y-69698600D01*
X118943599Y-69698600D01*
X119233125Y-69641010D01*
X119505853Y-69528042D01*
X119751302Y-69364039D01*
X119960039Y-69155302D01*
X120066000Y-68996719D01*
X120171961Y-69155302D01*
X120380698Y-69364039D01*
X120626147Y-69528042D01*
X120898875Y-69641010D01*
X121188401Y-69698600D01*
X121483599Y-69698600D01*
X121773125Y-69641010D01*
X122045853Y-69528042D01*
X122291302Y-69364039D01*
X122500039Y-69155302D01*
X122606000Y-68996719D01*
X122711961Y-69155302D01*
X122920698Y-69364039D01*
X123166147Y-69528042D01*
X123438875Y-69641010D01*
X123728401Y-69698600D01*
X124023599Y-69698600D01*
X124313125Y-69641010D01*
X124585853Y-69528042D01*
X124831302Y-69364039D01*
X125040039Y-69155302D01*
X125147692Y-68994187D01*
X125309146Y-69210293D01*
X125527512Y-69406817D01*
X125780022Y-69556964D01*
X126056973Y-69654963D01*
X126289000Y-69534464D01*
X126289000Y-68327000D01*
X126269000Y-68327000D01*
X126269000Y-68073000D01*
X126289000Y-68073000D01*
X126289000Y-66865536D01*
X126543000Y-66865536D01*
X126543000Y-68073000D01*
X126563000Y-68073000D01*
X126563000Y-68327000D01*
X126543000Y-68327000D01*
X126543000Y-69534464D01*
X126775027Y-69654963D01*
X127051978Y-69556964D01*
X127304488Y-69406817D01*
X127522854Y-69210293D01*
X127684308Y-68994187D01*
X127791961Y-69155302D01*
X128000698Y-69364039D01*
X128246147Y-69528042D01*
X128518875Y-69641010D01*
X128808401Y-69698600D01*
X129103599Y-69698600D01*
X129393125Y-69641010D01*
X129665853Y-69528042D01*
X129911302Y-69364039D01*
X130120039Y-69155302D01*
X130226000Y-68996719D01*
X130331961Y-69155302D01*
X130540698Y-69364039D01*
X130786147Y-69528042D01*
X131058875Y-69641010D01*
X131348401Y-69698600D01*
X131643599Y-69698600D01*
X131933125Y-69641010D01*
X132205853Y-69528042D01*
X132451302Y-69364039D01*
X132660039Y-69155302D01*
X132766000Y-68996719D01*
X132871961Y-69155302D01*
X133080698Y-69364039D01*
X133326147Y-69528042D01*
X133598875Y-69641010D01*
X133888401Y-69698600D01*
X134183599Y-69698600D01*
X134473125Y-69641010D01*
X134745853Y-69528042D01*
X134991302Y-69364039D01*
X135200039Y-69155302D01*
X135306000Y-68996719D01*
X135411961Y-69155302D01*
X135620698Y-69364039D01*
X135866147Y-69528042D01*
X136138875Y-69641010D01*
X136428401Y-69698600D01*
X136723599Y-69698600D01*
X137013125Y-69641010D01*
X137285853Y-69528042D01*
X137531302Y-69364039D01*
X137740039Y-69155302D01*
X137846000Y-68996719D01*
X137951961Y-69155302D01*
X138160698Y-69364039D01*
X138406147Y-69528042D01*
X138678875Y-69641010D01*
X138968401Y-69698600D01*
X139263599Y-69698600D01*
X139553125Y-69641010D01*
X139825853Y-69528042D01*
X140071302Y-69364039D01*
X140280039Y-69155302D01*
X140386000Y-68996719D01*
X140491961Y-69155302D01*
X140700698Y-69364039D01*
X140946147Y-69528042D01*
X141218875Y-69641010D01*
X141508401Y-69698600D01*
X141803599Y-69698600D01*
X142093125Y-69641010D01*
X142365853Y-69528042D01*
X142611302Y-69364039D01*
X142820039Y-69155302D01*
X142984042Y-68909853D01*
X143097010Y-68637125D01*
X143154600Y-68347599D01*
X143154600Y-68052401D01*
X144221400Y-68052401D01*
X144221400Y-68347599D01*
X144278990Y-68637125D01*
X144391958Y-68909853D01*
X144555961Y-69155302D01*
X144764698Y-69364039D01*
X145010147Y-69528042D01*
X145282875Y-69641010D01*
X145572401Y-69698600D01*
X145867599Y-69698600D01*
X146157125Y-69641010D01*
X146429853Y-69528042D01*
X146675302Y-69364039D01*
X146884039Y-69155302D01*
X146990000Y-68996719D01*
X147095961Y-69155302D01*
X147304698Y-69364039D01*
X147550147Y-69528042D01*
X147822875Y-69641010D01*
X148112401Y-69698600D01*
X148407599Y-69698600D01*
X148697125Y-69641010D01*
X148969853Y-69528042D01*
X149215302Y-69364039D01*
X149424039Y-69155302D01*
X149530000Y-68996719D01*
X149635961Y-69155302D01*
X149844698Y-69364039D01*
X150090147Y-69528042D01*
X150362875Y-69641010D01*
X150652401Y-69698600D01*
X150947599Y-69698600D01*
X151237125Y-69641010D01*
X151509853Y-69528042D01*
X151755302Y-69364039D01*
X151964039Y-69155302D01*
X152070000Y-68996719D01*
X152175961Y-69155302D01*
X152384698Y-69364039D01*
X152630147Y-69528042D01*
X152902875Y-69641010D01*
X153192401Y-69698600D01*
X153487599Y-69698600D01*
X153777125Y-69641010D01*
X154049853Y-69528042D01*
X154295302Y-69364039D01*
X154504039Y-69155302D01*
X154610000Y-68996719D01*
X154715961Y-69155302D01*
X154924698Y-69364039D01*
X155170147Y-69528042D01*
X155442875Y-69641010D01*
X155732401Y-69698600D01*
X156027599Y-69698600D01*
X156317125Y-69641010D01*
X156589853Y-69528042D01*
X156835302Y-69364039D01*
X157044039Y-69155302D01*
X157150000Y-68996719D01*
X157255961Y-69155302D01*
X157464698Y-69364039D01*
X157710147Y-69528042D01*
X157982875Y-69641010D01*
X158272401Y-69698600D01*
X158567599Y-69698600D01*
X158857125Y-69641010D01*
X159129853Y-69528042D01*
X159375302Y-69364039D01*
X159584039Y-69155302D01*
X159690000Y-68996719D01*
X159795961Y-69155302D01*
X160004698Y-69364039D01*
X160250147Y-69528042D01*
X160522875Y-69641010D01*
X160812401Y-69698600D01*
X161107599Y-69698600D01*
X161397125Y-69641010D01*
X161669853Y-69528042D01*
X161915302Y-69364039D01*
X162124039Y-69155302D01*
X162230000Y-68996719D01*
X162335961Y-69155302D01*
X162544698Y-69364039D01*
X162790147Y-69528042D01*
X163062875Y-69641010D01*
X163352401Y-69698600D01*
X163647599Y-69698600D01*
X163937125Y-69641010D01*
X164209853Y-69528042D01*
X164455302Y-69364039D01*
X164664039Y-69155302D01*
X164828042Y-68909853D01*
X164941010Y-68637125D01*
X164998600Y-68347599D01*
X164998600Y-68052401D01*
X167081400Y-68052401D01*
X167081400Y-68347599D01*
X167138990Y-68637125D01*
X167251958Y-68909853D01*
X167415961Y-69155302D01*
X167624698Y-69364039D01*
X167870147Y-69528042D01*
X168142875Y-69641010D01*
X168432401Y-69698600D01*
X168727599Y-69698600D01*
X169017125Y-69641010D01*
X169289853Y-69528042D01*
X169535302Y-69364039D01*
X169744039Y-69155302D01*
X169850000Y-68996719D01*
X169955961Y-69155302D01*
X170164698Y-69364039D01*
X170410147Y-69528042D01*
X170682875Y-69641010D01*
X170972401Y-69698600D01*
X171267599Y-69698600D01*
X171557125Y-69641010D01*
X171829853Y-69528042D01*
X172075302Y-69364039D01*
X172284039Y-69155302D01*
X172390000Y-68996719D01*
X172495961Y-69155302D01*
X172704698Y-69364039D01*
X172950147Y-69528042D01*
X173222875Y-69641010D01*
X173512401Y-69698600D01*
X173807599Y-69698600D01*
X174097125Y-69641010D01*
X174369853Y-69528042D01*
X174615302Y-69364039D01*
X174824039Y-69155302D01*
X174930000Y-68996719D01*
X175035961Y-69155302D01*
X175244698Y-69364039D01*
X175490147Y-69528042D01*
X175762875Y-69641010D01*
X176052401Y-69698600D01*
X176347599Y-69698600D01*
X176637125Y-69641010D01*
X176909853Y-69528042D01*
X177155302Y-69364039D01*
X177364039Y-69155302D01*
X177470000Y-68996719D01*
X177575961Y-69155302D01*
X177784698Y-69364039D01*
X178030147Y-69528042D01*
X178302875Y-69641010D01*
X178592401Y-69698600D01*
X178887599Y-69698600D01*
X179177125Y-69641010D01*
X179449853Y-69528042D01*
X179695302Y-69364039D01*
X179904039Y-69155302D01*
X180010000Y-68996719D01*
X180115961Y-69155302D01*
X180324698Y-69364039D01*
X180570147Y-69528042D01*
X180842875Y-69641010D01*
X181132401Y-69698600D01*
X181427599Y-69698600D01*
X181717125Y-69641010D01*
X181989853Y-69528042D01*
X182235302Y-69364039D01*
X182444039Y-69155302D01*
X182550000Y-68996719D01*
X182655961Y-69155302D01*
X182864698Y-69364039D01*
X183110147Y-69528042D01*
X183382875Y-69641010D01*
X183672401Y-69698600D01*
X183967599Y-69698600D01*
X184257125Y-69641010D01*
X184529853Y-69528042D01*
X184775302Y-69364039D01*
X184984039Y-69155302D01*
X185090000Y-68996719D01*
X185195961Y-69155302D01*
X185404698Y-69364039D01*
X185650147Y-69528042D01*
X185922875Y-69641010D01*
X186212401Y-69698600D01*
X186507599Y-69698600D01*
X186797125Y-69641010D01*
X187069853Y-69528042D01*
X187315302Y-69364039D01*
X187524039Y-69155302D01*
X187688042Y-68909853D01*
X187801010Y-68637125D01*
X187858600Y-68347599D01*
X187858600Y-68052401D01*
X192481400Y-68052401D01*
X192481400Y-68347599D01*
X192538990Y-68637125D01*
X192651958Y-68909853D01*
X192815961Y-69155302D01*
X193024698Y-69364039D01*
X193183281Y-69470000D01*
X193024698Y-69575961D01*
X192815961Y-69784698D01*
X192651958Y-70030147D01*
X192538990Y-70302875D01*
X192481400Y-70592401D01*
X192481400Y-70887599D01*
X192538990Y-71177125D01*
X192651958Y-71449853D01*
X192815961Y-71695302D01*
X193024698Y-71904039D01*
X193183281Y-72010000D01*
X193024698Y-72115961D01*
X192815961Y-72324698D01*
X192651958Y-72570147D01*
X192538990Y-72842875D01*
X192481400Y-73132401D01*
X192481400Y-73427599D01*
X192538990Y-73717125D01*
X192651958Y-73989853D01*
X192815961Y-74235302D01*
X193024698Y-74444039D01*
X193183281Y-74550000D01*
X193024698Y-74655961D01*
X192815961Y-74864698D01*
X192651958Y-75110147D01*
X192538990Y-75382875D01*
X192481400Y-75672401D01*
X192481400Y-75967599D01*
X192538990Y-76257125D01*
X192651958Y-76529853D01*
X192815961Y-76775302D01*
X193024698Y-76984039D01*
X193183281Y-77090000D01*
X193024698Y-77195961D01*
X192815961Y-77404698D01*
X192651958Y-77650147D01*
X192538990Y-77922875D01*
X192481400Y-78212401D01*
X192481400Y-78507599D01*
X192538990Y-78797125D01*
X192651958Y-79069853D01*
X192815961Y-79315302D01*
X193024698Y-79524039D01*
X193183281Y-79630000D01*
X193024698Y-79735961D01*
X192815961Y-79944698D01*
X192651958Y-80190147D01*
X192538990Y-80462875D01*
X192481400Y-80752401D01*
X192481400Y-81047599D01*
X192538990Y-81337125D01*
X192651958Y-81609853D01*
X192815961Y-81855302D01*
X193024698Y-82064039D01*
X193183281Y-82170000D01*
X193024698Y-82275961D01*
X192815961Y-82484698D01*
X192651958Y-82730147D01*
X192538990Y-83002875D01*
X192481400Y-83292401D01*
X192481400Y-83587599D01*
X192538990Y-83877125D01*
X192651958Y-84149853D01*
X192815961Y-84395302D01*
X193024698Y-84604039D01*
X193183281Y-84710000D01*
X193024698Y-84815961D01*
X192815961Y-85024698D01*
X192651958Y-85270147D01*
X192538990Y-85542875D01*
X192481400Y-85832401D01*
X192481400Y-86127599D01*
X192538990Y-86417125D01*
X192651958Y-86689853D01*
X192815961Y-86935302D01*
X193024698Y-87144039D01*
X193183281Y-87250000D01*
X193024698Y-87355961D01*
X192815961Y-87564698D01*
X192651958Y-87810147D01*
X192538990Y-88082875D01*
X192481400Y-88372401D01*
X192481400Y-88667599D01*
X192538990Y-88957125D01*
X192651958Y-89229853D01*
X192815961Y-89475302D01*
X193024698Y-89684039D01*
X193183281Y-89790000D01*
X193024698Y-89895961D01*
X192815961Y-90104698D01*
X192651958Y-90350147D01*
X192538990Y-90622875D01*
X192481400Y-90912401D01*
X192481400Y-91207599D01*
X192538990Y-91497125D01*
X192651958Y-91769853D01*
X192815961Y-92015302D01*
X193024698Y-92224039D01*
X193183281Y-92330000D01*
X193024698Y-92435961D01*
X192815961Y-92644698D01*
X192651958Y-92890147D01*
X192538990Y-93162875D01*
X192481400Y-93452401D01*
X192481400Y-93747599D01*
X192538990Y-94037125D01*
X192651958Y-94309853D01*
X192815961Y-94555302D01*
X193024698Y-94764039D01*
X193183281Y-94870000D01*
X193024698Y-94975961D01*
X192815961Y-95184698D01*
X192651958Y-95430147D01*
X192538990Y-95702875D01*
X192481400Y-95992401D01*
X192481400Y-96287599D01*
X192538990Y-96577125D01*
X192651958Y-96849853D01*
X192815961Y-97095302D01*
X193024698Y-97304039D01*
X193183281Y-97410000D01*
X193024698Y-97515961D01*
X192815961Y-97724698D01*
X192651958Y-97970147D01*
X192538990Y-98242875D01*
X192481400Y-98532401D01*
X192481400Y-98827599D01*
X192538990Y-99117125D01*
X192651958Y-99389853D01*
X192815961Y-99635302D01*
X193024698Y-99844039D01*
X193183281Y-99950000D01*
X193024698Y-100055961D01*
X192815961Y-100264698D01*
X192651958Y-100510147D01*
X192538990Y-100782875D01*
X192481400Y-101072401D01*
X192481400Y-101367599D01*
X192538990Y-101657125D01*
X192651958Y-101929853D01*
X192815961Y-102175302D01*
X193024698Y-102384039D01*
X193183281Y-102490000D01*
X193024698Y-102595961D01*
X192815961Y-102804698D01*
X192651958Y-103050147D01*
X192538990Y-103322875D01*
X192481400Y-103612401D01*
X192481400Y-103907599D01*
X192538990Y-104197125D01*
X192651958Y-104469853D01*
X192815961Y-104715302D01*
X193024698Y-104924039D01*
X193183281Y-105030000D01*
X193024698Y-105135961D01*
X192815961Y-105344698D01*
X192651958Y-105590147D01*
X192538990Y-105862875D01*
X192481400Y-106152401D01*
X192481400Y-106447599D01*
X192538990Y-106737125D01*
X192651958Y-107009853D01*
X192815961Y-107255302D01*
X193024698Y-107464039D01*
X193183281Y-107570000D01*
X193024698Y-107675961D01*
X192815961Y-107884698D01*
X192651958Y-108130147D01*
X192538990Y-108402875D01*
X192481400Y-108692401D01*
X192481400Y-108987599D01*
X192538990Y-109277125D01*
X192651958Y-109549853D01*
X192815961Y-109795302D01*
X193024698Y-110004039D01*
X193190103Y-110114559D01*
X193091512Y-110173183D01*
X192873146Y-110369707D01*
X192697316Y-110605056D01*
X192570778Y-110870186D01*
X192525042Y-111020974D01*
X192646183Y-111253000D01*
X193853000Y-111253000D01*
X193853000Y-111233000D01*
X194107000Y-111233000D01*
X194107000Y-111253000D01*
X196393000Y-111253000D01*
X196393000Y-111233000D01*
X196647000Y-111233000D01*
X196647000Y-111253000D01*
X197853817Y-111253000D01*
X197898775Y-111166890D01*
X203018524Y-111166890D01*
X203063175Y-111314099D01*
X203188359Y-111576920D01*
X203362412Y-111810269D01*
X203578645Y-112005178D01*
X203828748Y-112154157D01*
X204103109Y-112251481D01*
X204333000Y-112130814D01*
X204333000Y-110937000D01*
X204587000Y-110937000D01*
X204587000Y-112130814D01*
X204816891Y-112251481D01*
X205091252Y-112154157D01*
X205341355Y-112005178D01*
X205557588Y-111810269D01*
X205730000Y-111579120D01*
X205902412Y-111810269D01*
X206118645Y-112005178D01*
X206368748Y-112154157D01*
X206643109Y-112251481D01*
X206873000Y-112130814D01*
X206873000Y-110937000D01*
X207127000Y-110937000D01*
X207127000Y-112130814D01*
X207356891Y-112251481D01*
X207631252Y-112154157D01*
X207881355Y-112005178D01*
X208097588Y-111810269D01*
X208271641Y-111576920D01*
X208396825Y-111314099D01*
X208441476Y-111166890D01*
X208320155Y-110937000D01*
X207127000Y-110937000D01*
X206873000Y-110937000D01*
X204587000Y-110937000D01*
X204333000Y-110937000D01*
X203139845Y-110937000D01*
X203018524Y-111166890D01*
X197898775Y-111166890D01*
X197974958Y-111020974D01*
X197929222Y-110870186D01*
X197802684Y-110605056D01*
X197626854Y-110369707D01*
X197408488Y-110173183D01*
X197309897Y-110114559D01*
X197475302Y-110004039D01*
X197684039Y-109795302D01*
X197848042Y-109549853D01*
X197961010Y-109277125D01*
X198018600Y-108987599D01*
X198018600Y-108692401D01*
X197961010Y-108402875D01*
X197848042Y-108130147D01*
X197684039Y-107884698D01*
X197475302Y-107675961D01*
X197316719Y-107570000D01*
X197475302Y-107464039D01*
X197684039Y-107255302D01*
X197848042Y-107009853D01*
X197961010Y-106737125D01*
X198018600Y-106447599D01*
X198018600Y-106152401D01*
X197961010Y-105862875D01*
X197848042Y-105590147D01*
X197684039Y-105344698D01*
X197475302Y-105135961D01*
X197316719Y-105030000D01*
X197475302Y-104924039D01*
X197684039Y-104715302D01*
X197848042Y-104469853D01*
X197961010Y-104197125D01*
X198018600Y-103907599D01*
X198018600Y-103612401D01*
X197961010Y-103322875D01*
X197848042Y-103050147D01*
X197684039Y-102804698D01*
X197475302Y-102595961D01*
X197316719Y-102490000D01*
X197475302Y-102384039D01*
X197684039Y-102175302D01*
X197848042Y-101929853D01*
X197961010Y-101657125D01*
X198018600Y-101367599D01*
X198018600Y-101072401D01*
X197961010Y-100782875D01*
X197848042Y-100510147D01*
X197684039Y-100264698D01*
X197475302Y-100055961D01*
X197316719Y-99950000D01*
X197475302Y-99844039D01*
X197684039Y-99635302D01*
X197848042Y-99389853D01*
X197961010Y-99117125D01*
X198018600Y-98827599D01*
X198018600Y-98532401D01*
X197961010Y-98242875D01*
X197848042Y-97970147D01*
X197684039Y-97724698D01*
X197475302Y-97515961D01*
X197316719Y-97410000D01*
X197475302Y-97304039D01*
X197684039Y-97095302D01*
X197848042Y-96849853D01*
X197961010Y-96577125D01*
X198018600Y-96287599D01*
X198018600Y-95992401D01*
X197961010Y-95702875D01*
X197848042Y-95430147D01*
X197684039Y-95184698D01*
X197475302Y-94975961D01*
X197316719Y-94870000D01*
X197475302Y-94764039D01*
X197684039Y-94555302D01*
X197848042Y-94309853D01*
X197961010Y-94037125D01*
X198018600Y-93747599D01*
X198018600Y-93452401D01*
X197961010Y-93162875D01*
X197848042Y-92890147D01*
X197684039Y-92644698D01*
X197475302Y-92435961D01*
X197316719Y-92330000D01*
X197475302Y-92224039D01*
X197684039Y-92015302D01*
X197848042Y-91769853D01*
X197961010Y-91497125D01*
X198018600Y-91207599D01*
X198018600Y-90912401D01*
X197961010Y-90622875D01*
X197848042Y-90350147D01*
X197684039Y-90104698D01*
X197475302Y-89895961D01*
X197316719Y-89790000D01*
X197475302Y-89684039D01*
X197684039Y-89475302D01*
X197848042Y-89229853D01*
X197961010Y-88957125D01*
X198018600Y-88667599D01*
X198018600Y-88372401D01*
X197961010Y-88082875D01*
X197848042Y-87810147D01*
X197684039Y-87564698D01*
X197475302Y-87355961D01*
X197316719Y-87250000D01*
X197475302Y-87144039D01*
X197684039Y-86935302D01*
X197848042Y-86689853D01*
X197961010Y-86417125D01*
X198018600Y-86127599D01*
X198018600Y-85832401D01*
X197961010Y-85542875D01*
X197848042Y-85270147D01*
X197684039Y-85024698D01*
X197475302Y-84815961D01*
X197316719Y-84710000D01*
X197475302Y-84604039D01*
X197684039Y-84395302D01*
X197848042Y-84149853D01*
X197961010Y-83877125D01*
X198018600Y-83587599D01*
X198018600Y-83292401D01*
X197961010Y-83002875D01*
X197848042Y-82730147D01*
X197684039Y-82484698D01*
X197475302Y-82275961D01*
X197316719Y-82170000D01*
X197475302Y-82064039D01*
X197684039Y-81855302D01*
X197848042Y-81609853D01*
X197961010Y-81337125D01*
X198018600Y-81047599D01*
X198018600Y-80752401D01*
X197961010Y-80462875D01*
X197848042Y-80190147D01*
X197684039Y-79944698D01*
X197475302Y-79735961D01*
X197316719Y-79630000D01*
X197475302Y-79524039D01*
X197684039Y-79315302D01*
X197848042Y-79069853D01*
X197961010Y-78797125D01*
X198018600Y-78507599D01*
X198018600Y-78212401D01*
X197961010Y-77922875D01*
X197848042Y-77650147D01*
X197684039Y-77404698D01*
X197475302Y-77195961D01*
X197316719Y-77090000D01*
X197475302Y-76984039D01*
X197684039Y-76775302D01*
X197848042Y-76529853D01*
X197961010Y-76257125D01*
X198018600Y-75967599D01*
X198018600Y-75672401D01*
X197961010Y-75382875D01*
X197848042Y-75110147D01*
X197843761Y-75103740D01*
X202975000Y-75103740D01*
X202975000Y-75396260D01*
X203032068Y-75683158D01*
X203144010Y-75953411D01*
X203306525Y-76196632D01*
X203513368Y-76403475D01*
X203695534Y-76525195D01*
X203578645Y-76594822D01*
X203362412Y-76789731D01*
X203188359Y-77023080D01*
X203063175Y-77285901D01*
X203018524Y-77433110D01*
X203139845Y-77663000D01*
X204333000Y-77663000D01*
X204333000Y-77643000D01*
X204587000Y-77643000D01*
X204587000Y-77663000D01*
X204607000Y-77663000D01*
X204607000Y-77917000D01*
X204587000Y-77917000D01*
X204587000Y-77937000D01*
X204333000Y-77937000D01*
X204333000Y-77917000D01*
X203139845Y-77917000D01*
X203018524Y-78146890D01*
X203063175Y-78294099D01*
X203188359Y-78556920D01*
X203362412Y-78790269D01*
X203578645Y-78985178D01*
X203695534Y-79054805D01*
X203513368Y-79176525D01*
X203306525Y-79383368D01*
X203144010Y-79626589D01*
X203032068Y-79896842D01*
X202975000Y-80183740D01*
X202975000Y-80476260D01*
X203032068Y-80763158D01*
X203144010Y-81033411D01*
X203306525Y-81276632D01*
X203513368Y-81483475D01*
X203687760Y-81600000D01*
X203513368Y-81716525D01*
X203306525Y-81923368D01*
X203144010Y-82166589D01*
X203032068Y-82436842D01*
X202975000Y-82723740D01*
X202975000Y-83016260D01*
X203032068Y-83303158D01*
X203144010Y-83573411D01*
X203306525Y-83816632D01*
X203513368Y-84023475D01*
X203687760Y-84140000D01*
X203513368Y-84256525D01*
X203306525Y-84463368D01*
X203144010Y-84706589D01*
X203032068Y-84976842D01*
X202975000Y-85263740D01*
X202975000Y-85556260D01*
X203032068Y-85843158D01*
X203144010Y-86113411D01*
X203306525Y-86356632D01*
X203513368Y-86563475D01*
X203687760Y-86680000D01*
X203513368Y-86796525D01*
X203306525Y-87003368D01*
X203144010Y-87246589D01*
X203032068Y-87516842D01*
X202975000Y-87803740D01*
X202975000Y-88096260D01*
X203032068Y-88383158D01*
X203144010Y-88653411D01*
X203306525Y-88896632D01*
X203513368Y-89103475D01*
X203687760Y-89220000D01*
X203513368Y-89336525D01*
X203306525Y-89543368D01*
X203144010Y-89786589D01*
X203032068Y-90056842D01*
X202975000Y-90343740D01*
X202975000Y-90636260D01*
X203032068Y-90923158D01*
X203144010Y-91193411D01*
X203306525Y-91436632D01*
X203513368Y-91643475D01*
X203687760Y-91760000D01*
X203513368Y-91876525D01*
X203306525Y-92083368D01*
X203144010Y-92326589D01*
X203032068Y-92596842D01*
X202975000Y-92883740D01*
X202975000Y-93176260D01*
X203032068Y-93463158D01*
X203144010Y-93733411D01*
X203306525Y-93976632D01*
X203513368Y-94183475D01*
X203687760Y-94300000D01*
X203513368Y-94416525D01*
X203306525Y-94623368D01*
X203144010Y-94866589D01*
X203032068Y-95136842D01*
X202975000Y-95423740D01*
X202975000Y-95716260D01*
X203032068Y-96003158D01*
X203144010Y-96273411D01*
X203306525Y-96516632D01*
X203513368Y-96723475D01*
X203687760Y-96840000D01*
X203513368Y-96956525D01*
X203306525Y-97163368D01*
X203144010Y-97406589D01*
X203032068Y-97676842D01*
X202975000Y-97963740D01*
X202975000Y-98256260D01*
X203032068Y-98543158D01*
X203144010Y-98813411D01*
X203306525Y-99056632D01*
X203513368Y-99263475D01*
X203687760Y-99380000D01*
X203513368Y-99496525D01*
X203306525Y-99703368D01*
X203144010Y-99946589D01*
X203032068Y-100216842D01*
X202975000Y-100503740D01*
X202975000Y-100796260D01*
X203032068Y-101083158D01*
X203144010Y-101353411D01*
X203306525Y-101596632D01*
X203513368Y-101803475D01*
X203687760Y-101920000D01*
X203513368Y-102036525D01*
X203306525Y-102243368D01*
X203144010Y-102486589D01*
X203032068Y-102756842D01*
X202975000Y-103043740D01*
X202975000Y-103336260D01*
X203032068Y-103623158D01*
X203144010Y-103893411D01*
X203306525Y-104136632D01*
X203513368Y-104343475D01*
X203687760Y-104460000D01*
X203513368Y-104576525D01*
X203306525Y-104783368D01*
X203144010Y-105026589D01*
X203032068Y-105296842D01*
X202975000Y-105583740D01*
X202975000Y-105876260D01*
X203032068Y-106163158D01*
X203144010Y-106433411D01*
X203306525Y-106676632D01*
X203513368Y-106883475D01*
X203687760Y-107000000D01*
X203513368Y-107116525D01*
X203306525Y-107323368D01*
X203144010Y-107566589D01*
X203032068Y-107836842D01*
X202975000Y-108123740D01*
X202975000Y-108416260D01*
X203032068Y-108703158D01*
X203144010Y-108973411D01*
X203306525Y-109216632D01*
X203513368Y-109423475D01*
X203695534Y-109545195D01*
X203578645Y-109614822D01*
X203362412Y-109809731D01*
X203188359Y-110043080D01*
X203063175Y-110305901D01*
X203018524Y-110453110D01*
X203139845Y-110683000D01*
X204333000Y-110683000D01*
X204333000Y-110663000D01*
X204587000Y-110663000D01*
X204587000Y-110683000D01*
X206873000Y-110683000D01*
X206873000Y-110663000D01*
X207127000Y-110663000D01*
X207127000Y-110683000D01*
X208320155Y-110683000D01*
X208441476Y-110453110D01*
X208396825Y-110305901D01*
X208271641Y-110043080D01*
X208097588Y-109809731D01*
X207881355Y-109614822D01*
X207764466Y-109545195D01*
X207946632Y-109423475D01*
X208153475Y-109216632D01*
X208315990Y-108973411D01*
X208427932Y-108703158D01*
X208485000Y-108416260D01*
X208485000Y-108123740D01*
X208427932Y-107836842D01*
X208315990Y-107566589D01*
X208153475Y-107323368D01*
X207946632Y-107116525D01*
X207772240Y-107000000D01*
X207946632Y-106883475D01*
X208153475Y-106676632D01*
X208315990Y-106433411D01*
X208427932Y-106163158D01*
X208485000Y-105876260D01*
X208485000Y-105583740D01*
X208427932Y-105296842D01*
X208315990Y-105026589D01*
X208153475Y-104783368D01*
X207946632Y-104576525D01*
X207772240Y-104460000D01*
X207946632Y-104343475D01*
X208153475Y-104136632D01*
X208315990Y-103893411D01*
X208427932Y-103623158D01*
X208485000Y-103336260D01*
X208485000Y-103043740D01*
X208427932Y-102756842D01*
X208315990Y-102486589D01*
X208153475Y-102243368D01*
X207946632Y-102036525D01*
X207772240Y-101920000D01*
X207946632Y-101803475D01*
X208153475Y-101596632D01*
X208315990Y-101353411D01*
X208427932Y-101083158D01*
X208485000Y-100796260D01*
X208485000Y-100503740D01*
X208427932Y-100216842D01*
X208315990Y-99946589D01*
X208153475Y-99703368D01*
X207946632Y-99496525D01*
X207772240Y-99380000D01*
X207946632Y-99263475D01*
X208153475Y-99056632D01*
X208315990Y-98813411D01*
X208427932Y-98543158D01*
X208485000Y-98256260D01*
X208485000Y-97963740D01*
X208427932Y-97676842D01*
X208315990Y-97406589D01*
X208153475Y-97163368D01*
X207946632Y-96956525D01*
X207772240Y-96840000D01*
X207946632Y-96723475D01*
X208153475Y-96516632D01*
X208315990Y-96273411D01*
X208427932Y-96003158D01*
X208485000Y-95716260D01*
X208485000Y-95423740D01*
X208427932Y-95136842D01*
X208315990Y-94866589D01*
X208153475Y-94623368D01*
X207946632Y-94416525D01*
X207772240Y-94300000D01*
X207946632Y-94183475D01*
X208153475Y-93976632D01*
X208315990Y-93733411D01*
X208427932Y-93463158D01*
X208485000Y-93176260D01*
X208485000Y-92883740D01*
X208427932Y-92596842D01*
X208315990Y-92326589D01*
X208153475Y-92083368D01*
X207946632Y-91876525D01*
X207772240Y-91760000D01*
X207946632Y-91643475D01*
X208153475Y-91436632D01*
X208315990Y-91193411D01*
X208427932Y-90923158D01*
X208485000Y-90636260D01*
X208485000Y-90343740D01*
X208427932Y-90056842D01*
X208315990Y-89786589D01*
X208153475Y-89543368D01*
X207946632Y-89336525D01*
X207772240Y-89220000D01*
X207946632Y-89103475D01*
X208153475Y-88896632D01*
X208315990Y-88653411D01*
X208427932Y-88383158D01*
X208485000Y-88096260D01*
X208485000Y-87803740D01*
X208427932Y-87516842D01*
X208315990Y-87246589D01*
X208153475Y-87003368D01*
X207946632Y-86796525D01*
X207772240Y-86680000D01*
X207946632Y-86563475D01*
X208153475Y-86356632D01*
X208315990Y-86113411D01*
X208427932Y-85843158D01*
X208485000Y-85556260D01*
X208485000Y-85263740D01*
X208427932Y-84976842D01*
X208315990Y-84706589D01*
X208153475Y-84463368D01*
X207946632Y-84256525D01*
X207772240Y-84140000D01*
X207946632Y-84023475D01*
X208153475Y-83816632D01*
X208315990Y-83573411D01*
X208427932Y-83303158D01*
X208485000Y-83016260D01*
X208485000Y-82723740D01*
X208427932Y-82436842D01*
X208315990Y-82166589D01*
X208153475Y-81923368D01*
X207946632Y-81716525D01*
X207772240Y-81600000D01*
X207946632Y-81483475D01*
X208153475Y-81276632D01*
X208315990Y-81033411D01*
X208427932Y-80763158D01*
X208485000Y-80476260D01*
X208485000Y-80183740D01*
X208427932Y-79896842D01*
X208315990Y-79626589D01*
X208153475Y-79383368D01*
X207946632Y-79176525D01*
X207772240Y-79060000D01*
X207946632Y-78943475D01*
X208153475Y-78736632D01*
X208315990Y-78493411D01*
X208427932Y-78223158D01*
X208485000Y-77936260D01*
X208485000Y-77643740D01*
X208427932Y-77356842D01*
X208315990Y-77086589D01*
X208153475Y-76843368D01*
X208021620Y-76711513D01*
X208094180Y-76689502D01*
X208204494Y-76630537D01*
X208301185Y-76551185D01*
X208380537Y-76454494D01*
X208439502Y-76344180D01*
X208475812Y-76224482D01*
X208488072Y-76100000D01*
X208488072Y-74400000D01*
X208475812Y-74275518D01*
X208439502Y-74155820D01*
X208380537Y-74045506D01*
X208301185Y-73948815D01*
X208204494Y-73869463D01*
X208094180Y-73810498D01*
X207974482Y-73774188D01*
X207850000Y-73761928D01*
X206150000Y-73761928D01*
X206025518Y-73774188D01*
X205905820Y-73810498D01*
X205795506Y-73869463D01*
X205698815Y-73948815D01*
X205619463Y-74045506D01*
X205560498Y-74155820D01*
X205538487Y-74228380D01*
X205406632Y-74096525D01*
X205163411Y-73934010D01*
X204893158Y-73822068D01*
X204606260Y-73765000D01*
X204313740Y-73765000D01*
X204026842Y-73822068D01*
X203756589Y-73934010D01*
X203513368Y-74096525D01*
X203306525Y-74303368D01*
X203144010Y-74546589D01*
X203032068Y-74816842D01*
X202975000Y-75103740D01*
X197843761Y-75103740D01*
X197684039Y-74864698D01*
X197475302Y-74655961D01*
X197316719Y-74550000D01*
X197475302Y-74444039D01*
X197684039Y-74235302D01*
X197848042Y-73989853D01*
X197961010Y-73717125D01*
X198018600Y-73427599D01*
X198018600Y-73132401D01*
X197961010Y-72842875D01*
X197848042Y-72570147D01*
X197684039Y-72324698D01*
X197475302Y-72115961D01*
X197316719Y-72010000D01*
X197475302Y-71904039D01*
X197684039Y-71695302D01*
X197848042Y-71449853D01*
X197961010Y-71177125D01*
X198018600Y-70887599D01*
X198018600Y-70592401D01*
X197961010Y-70302875D01*
X197848042Y-70030147D01*
X197684039Y-69784698D01*
X197475302Y-69575961D01*
X197316719Y-69470000D01*
X197475302Y-69364039D01*
X197684039Y-69155302D01*
X197848042Y-68909853D01*
X197961010Y-68637125D01*
X198018600Y-68347599D01*
X198018600Y-68052401D01*
X197961010Y-67762875D01*
X197848042Y-67490147D01*
X197684039Y-67244698D01*
X197475302Y-67035961D01*
X197229853Y-66871958D01*
X196957125Y-66758990D01*
X196667599Y-66701400D01*
X196372401Y-66701400D01*
X196082875Y-66758990D01*
X195810147Y-66871958D01*
X195564698Y-67035961D01*
X195355961Y-67244698D01*
X195250000Y-67403281D01*
X195144039Y-67244698D01*
X194935302Y-67035961D01*
X194689853Y-66871958D01*
X194417125Y-66758990D01*
X194127599Y-66701400D01*
X193832401Y-66701400D01*
X193542875Y-66758990D01*
X193270147Y-66871958D01*
X193024698Y-67035961D01*
X192815961Y-67244698D01*
X192651958Y-67490147D01*
X192538990Y-67762875D01*
X192481400Y-68052401D01*
X187858600Y-68052401D01*
X187801010Y-67762875D01*
X187688042Y-67490147D01*
X187524039Y-67244698D01*
X187315302Y-67035961D01*
X187069853Y-66871958D01*
X186797125Y-66758990D01*
X186507599Y-66701400D01*
X186212401Y-66701400D01*
X185922875Y-66758990D01*
X185650147Y-66871958D01*
X185404698Y-67035961D01*
X185195961Y-67244698D01*
X185090000Y-67403281D01*
X184984039Y-67244698D01*
X184775302Y-67035961D01*
X184529853Y-66871958D01*
X184257125Y-66758990D01*
X183967599Y-66701400D01*
X183672401Y-66701400D01*
X183382875Y-66758990D01*
X183110147Y-66871958D01*
X182864698Y-67035961D01*
X182655961Y-67244698D01*
X182550000Y-67403281D01*
X182444039Y-67244698D01*
X182235302Y-67035961D01*
X181989853Y-66871958D01*
X181717125Y-66758990D01*
X181427599Y-66701400D01*
X181132401Y-66701400D01*
X180842875Y-66758990D01*
X180570147Y-66871958D01*
X180324698Y-67035961D01*
X180115961Y-67244698D01*
X180010000Y-67403281D01*
X179904039Y-67244698D01*
X179695302Y-67035961D01*
X179449853Y-66871958D01*
X179177125Y-66758990D01*
X178887599Y-66701400D01*
X178592401Y-66701400D01*
X178302875Y-66758990D01*
X178030147Y-66871958D01*
X177784698Y-67035961D01*
X177575961Y-67244698D01*
X177470000Y-67403281D01*
X177364039Y-67244698D01*
X177155302Y-67035961D01*
X176909853Y-66871958D01*
X176637125Y-66758990D01*
X176347599Y-66701400D01*
X176052401Y-66701400D01*
X175762875Y-66758990D01*
X175490147Y-66871958D01*
X175244698Y-67035961D01*
X175035961Y-67244698D01*
X174930000Y-67403281D01*
X174824039Y-67244698D01*
X174615302Y-67035961D01*
X174369853Y-66871958D01*
X174097125Y-66758990D01*
X173807599Y-66701400D01*
X173512401Y-66701400D01*
X173222875Y-66758990D01*
X172950147Y-66871958D01*
X172704698Y-67035961D01*
X172495961Y-67244698D01*
X172390000Y-67403281D01*
X172284039Y-67244698D01*
X172075302Y-67035961D01*
X171829853Y-66871958D01*
X171557125Y-66758990D01*
X171267599Y-66701400D01*
X170972401Y-66701400D01*
X170682875Y-66758990D01*
X170410147Y-66871958D01*
X170164698Y-67035961D01*
X169955961Y-67244698D01*
X169850000Y-67403281D01*
X169744039Y-67244698D01*
X169535302Y-67035961D01*
X169289853Y-66871958D01*
X169017125Y-66758990D01*
X168727599Y-66701400D01*
X168432401Y-66701400D01*
X168142875Y-66758990D01*
X167870147Y-66871958D01*
X167624698Y-67035961D01*
X167415961Y-67244698D01*
X167251958Y-67490147D01*
X167138990Y-67762875D01*
X167081400Y-68052401D01*
X164998600Y-68052401D01*
X164941010Y-67762875D01*
X164828042Y-67490147D01*
X164664039Y-67244698D01*
X164455302Y-67035961D01*
X164209853Y-66871958D01*
X163937125Y-66758990D01*
X163647599Y-66701400D01*
X163352401Y-66701400D01*
X163062875Y-66758990D01*
X162790147Y-66871958D01*
X162544698Y-67035961D01*
X162335961Y-67244698D01*
X162230000Y-67403281D01*
X162124039Y-67244698D01*
X161915302Y-67035961D01*
X161669853Y-66871958D01*
X161397125Y-66758990D01*
X161107599Y-66701400D01*
X160812401Y-66701400D01*
X160522875Y-66758990D01*
X160250147Y-66871958D01*
X160004698Y-67035961D01*
X159795961Y-67244698D01*
X159690000Y-67403281D01*
X159584039Y-67244698D01*
X159375302Y-67035961D01*
X159129853Y-66871958D01*
X158857125Y-66758990D01*
X158567599Y-66701400D01*
X158272401Y-66701400D01*
X157982875Y-66758990D01*
X157710147Y-66871958D01*
X157464698Y-67035961D01*
X157255961Y-67244698D01*
X157150000Y-67403281D01*
X157044039Y-67244698D01*
X156835302Y-67035961D01*
X156589853Y-66871958D01*
X156317125Y-66758990D01*
X156027599Y-66701400D01*
X155732401Y-66701400D01*
X155442875Y-66758990D01*
X155170147Y-66871958D01*
X154924698Y-67035961D01*
X154715961Y-67244698D01*
X154610000Y-67403281D01*
X154504039Y-67244698D01*
X154295302Y-67035961D01*
X154049853Y-66871958D01*
X153777125Y-66758990D01*
X153487599Y-66701400D01*
X153192401Y-66701400D01*
X152902875Y-66758990D01*
X152630147Y-66871958D01*
X152384698Y-67035961D01*
X152175961Y-67244698D01*
X152070000Y-67403281D01*
X151964039Y-67244698D01*
X151755302Y-67035961D01*
X151509853Y-66871958D01*
X151237125Y-66758990D01*
X150947599Y-66701400D01*
X150652401Y-66701400D01*
X150362875Y-66758990D01*
X150090147Y-66871958D01*
X149844698Y-67035961D01*
X149635961Y-67244698D01*
X149530000Y-67403281D01*
X149424039Y-67244698D01*
X149215302Y-67035961D01*
X148969853Y-66871958D01*
X148697125Y-66758990D01*
X148407599Y-66701400D01*
X148112401Y-66701400D01*
X147822875Y-66758990D01*
X147550147Y-66871958D01*
X147304698Y-67035961D01*
X147095961Y-67244698D01*
X146990000Y-67403281D01*
X146884039Y-67244698D01*
X146675302Y-67035961D01*
X146429853Y-66871958D01*
X146157125Y-66758990D01*
X145867599Y-66701400D01*
X145572401Y-66701400D01*
X145282875Y-66758990D01*
X145010147Y-66871958D01*
X144764698Y-67035961D01*
X144555961Y-67244698D01*
X144391958Y-67490147D01*
X144278990Y-67762875D01*
X144221400Y-68052401D01*
X143154600Y-68052401D01*
X143097010Y-67762875D01*
X142984042Y-67490147D01*
X142820039Y-67244698D01*
X142611302Y-67035961D01*
X142365853Y-66871958D01*
X142093125Y-66758990D01*
X141803599Y-66701400D01*
X141508401Y-66701400D01*
X141218875Y-66758990D01*
X140946147Y-66871958D01*
X140700698Y-67035961D01*
X140491961Y-67244698D01*
X140386000Y-67403281D01*
X140280039Y-67244698D01*
X140071302Y-67035961D01*
X139825853Y-66871958D01*
X139553125Y-66758990D01*
X139263599Y-66701400D01*
X138968401Y-66701400D01*
X138678875Y-66758990D01*
X138406147Y-66871958D01*
X138160698Y-67035961D01*
X137951961Y-67244698D01*
X137846000Y-67403281D01*
X137740039Y-67244698D01*
X137531302Y-67035961D01*
X137285853Y-66871958D01*
X137013125Y-66758990D01*
X136723599Y-66701400D01*
X136428401Y-66701400D01*
X136138875Y-66758990D01*
X135866147Y-66871958D01*
X135620698Y-67035961D01*
X135411961Y-67244698D01*
X135306000Y-67403281D01*
X135200039Y-67244698D01*
X134991302Y-67035961D01*
X134745853Y-66871958D01*
X134473125Y-66758990D01*
X134183599Y-66701400D01*
X133888401Y-66701400D01*
X133598875Y-66758990D01*
X133326147Y-66871958D01*
X133080698Y-67035961D01*
X132871961Y-67244698D01*
X132766000Y-67403281D01*
X132660039Y-67244698D01*
X132451302Y-67035961D01*
X132205853Y-66871958D01*
X131933125Y-66758990D01*
X131643599Y-66701400D01*
X131348401Y-66701400D01*
X131058875Y-66758990D01*
X130786147Y-66871958D01*
X130540698Y-67035961D01*
X130331961Y-67244698D01*
X130226000Y-67403281D01*
X130120039Y-67244698D01*
X129911302Y-67035961D01*
X129665853Y-66871958D01*
X129393125Y-66758990D01*
X129103599Y-66701400D01*
X128808401Y-66701400D01*
X128518875Y-66758990D01*
X128246147Y-66871958D01*
X128000698Y-67035961D01*
X127791961Y-67244698D01*
X127684308Y-67405813D01*
X127522854Y-67189707D01*
X127304488Y-66993183D01*
X127051978Y-66843036D01*
X126775027Y-66745037D01*
X126543000Y-66865536D01*
X126289000Y-66865536D01*
X126056973Y-66745037D01*
X125780022Y-66843036D01*
X125527512Y-66993183D01*
X125309146Y-67189707D01*
X125147692Y-67405813D01*
X125040039Y-67244698D01*
X124831302Y-67035961D01*
X124585853Y-66871958D01*
X124313125Y-66758990D01*
X124023599Y-66701400D01*
X123728401Y-66701400D01*
X123438875Y-66758990D01*
X123166147Y-66871958D01*
X122920698Y-67035961D01*
X122711961Y-67244698D01*
X122606000Y-67403281D01*
X122500039Y-67244698D01*
X122291302Y-67035961D01*
X122045853Y-66871958D01*
X121773125Y-66758990D01*
X121483599Y-66701400D01*
X121188401Y-66701400D01*
X120898875Y-66758990D01*
X120626147Y-66871958D01*
X120380698Y-67035961D01*
X120171961Y-67244698D01*
X120066000Y-67403281D01*
X119960039Y-67244698D01*
X119751302Y-67035961D01*
X119505853Y-66871958D01*
X119233125Y-66758990D01*
X118943599Y-66701400D01*
X118648401Y-66701400D01*
X118358875Y-66758990D01*
X118086147Y-66871958D01*
X117840698Y-67035961D01*
X117631961Y-67244698D01*
X117467958Y-67490147D01*
X117354990Y-67762875D01*
X117297400Y-68052401D01*
X111660000Y-68052401D01*
X111660000Y-66032279D01*
X111707670Y-65546107D01*
X111839489Y-65109502D01*
X112053600Y-64706815D01*
X112341848Y-64353388D01*
X112693261Y-64062673D01*
X113094439Y-63845758D01*
X113530113Y-63710894D01*
X114014344Y-63660000D01*
X207967721Y-63660000D01*
X208453893Y-63707670D01*
%TD*%
M02*
