%TF.GenerationSoftware,KiCad,Pcbnew,(5.1.6)-1*%
%TF.CreationDate,2020-09-26T15:59:42-07:00*%
%TF.ProjectId,Cessna 172 nav and com radio,43657373-6e61-4203-9137-32206e617620,rev?*%
%TF.SameCoordinates,Original*%
%TF.FileFunction,Paste,Bot*%
%TF.FilePolarity,Positive*%
%FSLAX46Y46*%
G04 Gerber Fmt 4.6, Leading zero omitted, Abs format (unit mm)*
G04 Created by KiCad (PCBNEW (5.1.6)-1) date 2020-09-26 15:59:42*
%MOMM*%
%LPD*%
G01*
G04 APERTURE LIST*
%ADD10R,0.400000X1.200000*%
%ADD11R,1.900000X1.500000*%
%ADD12R,1.350000X0.400000*%
G04 APERTURE END LIST*
D10*
%TO.C,U1*%
X40507500Y-38400000D03*
X41142500Y-38400000D03*
X41777500Y-38400000D03*
X42412500Y-38400000D03*
X43047500Y-38400000D03*
X43682500Y-38400000D03*
X44317500Y-38400000D03*
X44952500Y-38400000D03*
X45587500Y-38400000D03*
X46222500Y-38400000D03*
X46857500Y-38400000D03*
X47492500Y-38400000D03*
X47492500Y-43600000D03*
X46857500Y-43600000D03*
X46222500Y-43600000D03*
X45587500Y-43600000D03*
X44952500Y-43600000D03*
X44317500Y-43600000D03*
X43682500Y-43600000D03*
X43047500Y-43600000D03*
X42412500Y-43600000D03*
X41777500Y-43600000D03*
X41142500Y-43600000D03*
X40507500Y-43600000D03*
%TD*%
%TO.C,C2*%
G36*
G01*
X43549999Y-47450000D02*
X44450001Y-47450000D01*
G75*
G02*
X44700000Y-47699999I0J-249999D01*
G01*
X44700000Y-48350001D01*
G75*
G02*
X44450001Y-48600000I-249999J0D01*
G01*
X43549999Y-48600000D01*
G75*
G02*
X43300000Y-48350001I0J249999D01*
G01*
X43300000Y-47699999D01*
G75*
G02*
X43549999Y-47450000I249999J0D01*
G01*
G37*
G36*
G01*
X43549999Y-45400000D02*
X44450001Y-45400000D01*
G75*
G02*
X44700000Y-45649999I0J-249999D01*
G01*
X44700000Y-46300001D01*
G75*
G02*
X44450001Y-46550000I-249999J0D01*
G01*
X43549999Y-46550000D01*
G75*
G02*
X43300000Y-46300001I0J249999D01*
G01*
X43300000Y-45649999D01*
G75*
G02*
X43549999Y-45400000I249999J0D01*
G01*
G37*
%TD*%
%TO.C,C3*%
G36*
G01*
X81549999Y-45400000D02*
X82450001Y-45400000D01*
G75*
G02*
X82700000Y-45649999I0J-249999D01*
G01*
X82700000Y-46300001D01*
G75*
G02*
X82450001Y-46550000I-249999J0D01*
G01*
X81549999Y-46550000D01*
G75*
G02*
X81300000Y-46300001I0J249999D01*
G01*
X81300000Y-45649999D01*
G75*
G02*
X81549999Y-45400000I249999J0D01*
G01*
G37*
G36*
G01*
X81549999Y-47450000D02*
X82450001Y-47450000D01*
G75*
G02*
X82700000Y-47699999I0J-249999D01*
G01*
X82700000Y-48350001D01*
G75*
G02*
X82450001Y-48600000I-249999J0D01*
G01*
X81549999Y-48600000D01*
G75*
G02*
X81300000Y-48350001I0J249999D01*
G01*
X81300000Y-47699999D01*
G75*
G02*
X81549999Y-47450000I249999J0D01*
G01*
G37*
%TD*%
%TO.C,C4*%
G36*
G01*
X122549999Y-45400000D02*
X123450001Y-45400000D01*
G75*
G02*
X123700000Y-45649999I0J-249999D01*
G01*
X123700000Y-46300001D01*
G75*
G02*
X123450001Y-46550000I-249999J0D01*
G01*
X122549999Y-46550000D01*
G75*
G02*
X122300000Y-46300001I0J249999D01*
G01*
X122300000Y-45649999D01*
G75*
G02*
X122549999Y-45400000I249999J0D01*
G01*
G37*
G36*
G01*
X122549999Y-47450000D02*
X123450001Y-47450000D01*
G75*
G02*
X123700000Y-47699999I0J-249999D01*
G01*
X123700000Y-48350001D01*
G75*
G02*
X123450001Y-48600000I-249999J0D01*
G01*
X122549999Y-48600000D01*
G75*
G02*
X122300000Y-48350001I0J249999D01*
G01*
X122300000Y-47699999D01*
G75*
G02*
X122549999Y-47450000I249999J0D01*
G01*
G37*
%TD*%
%TO.C,C5*%
G36*
G01*
X160549999Y-47450000D02*
X161450001Y-47450000D01*
G75*
G02*
X161700000Y-47699999I0J-249999D01*
G01*
X161700000Y-48350001D01*
G75*
G02*
X161450001Y-48600000I-249999J0D01*
G01*
X160549999Y-48600000D01*
G75*
G02*
X160300000Y-48350001I0J249999D01*
G01*
X160300000Y-47699999D01*
G75*
G02*
X160549999Y-47450000I249999J0D01*
G01*
G37*
G36*
G01*
X160549999Y-45400000D02*
X161450001Y-45400000D01*
G75*
G02*
X161700000Y-45649999I0J-249999D01*
G01*
X161700000Y-46300001D01*
G75*
G02*
X161450001Y-46550000I-249999J0D01*
G01*
X160549999Y-46550000D01*
G75*
G02*
X160300000Y-46300001I0J249999D01*
G01*
X160300000Y-45649999D01*
G75*
G02*
X160549999Y-45400000I249999J0D01*
G01*
G37*
%TD*%
%TO.C,C8*%
G36*
G01*
X192950001Y-66550000D02*
X192049999Y-66550000D01*
G75*
G02*
X191800000Y-66300001I0J249999D01*
G01*
X191800000Y-65649999D01*
G75*
G02*
X192049999Y-65400000I249999J0D01*
G01*
X192950001Y-65400000D01*
G75*
G02*
X193200000Y-65649999I0J-249999D01*
G01*
X193200000Y-66300001D01*
G75*
G02*
X192950001Y-66550000I-249999J0D01*
G01*
G37*
G36*
G01*
X192950001Y-68600000D02*
X192049999Y-68600000D01*
G75*
G02*
X191800000Y-68350001I0J249999D01*
G01*
X191800000Y-67699999D01*
G75*
G02*
X192049999Y-67450000I249999J0D01*
G01*
X192950001Y-67450000D01*
G75*
G02*
X193200000Y-67699999I0J-249999D01*
G01*
X193200000Y-68350001D01*
G75*
G02*
X192950001Y-68600000I-249999J0D01*
G01*
G37*
%TD*%
%TO.C,C9*%
G36*
G01*
X192950001Y-55600000D02*
X192049999Y-55600000D01*
G75*
G02*
X191800000Y-55350001I0J249999D01*
G01*
X191800000Y-54699999D01*
G75*
G02*
X192049999Y-54450000I249999J0D01*
G01*
X192950001Y-54450000D01*
G75*
G02*
X193200000Y-54699999I0J-249999D01*
G01*
X193200000Y-55350001D01*
G75*
G02*
X192950001Y-55600000I-249999J0D01*
G01*
G37*
G36*
G01*
X192950001Y-53550000D02*
X192049999Y-53550000D01*
G75*
G02*
X191800000Y-53300001I0J249999D01*
G01*
X191800000Y-52649999D01*
G75*
G02*
X192049999Y-52400000I249999J0D01*
G01*
X192950001Y-52400000D01*
G75*
G02*
X193200000Y-52649999I0J-249999D01*
G01*
X193200000Y-53300001D01*
G75*
G02*
X192950001Y-53550000I-249999J0D01*
G01*
G37*
%TD*%
%TO.C,D1*%
G36*
G01*
X34549999Y-110450000D02*
X35450001Y-110450000D01*
G75*
G02*
X35700000Y-110699999I0J-249999D01*
G01*
X35700000Y-111350001D01*
G75*
G02*
X35450001Y-111600000I-249999J0D01*
G01*
X34549999Y-111600000D01*
G75*
G02*
X34300000Y-111350001I0J249999D01*
G01*
X34300000Y-110699999D01*
G75*
G02*
X34549999Y-110450000I249999J0D01*
G01*
G37*
G36*
G01*
X34549999Y-108400000D02*
X35450001Y-108400000D01*
G75*
G02*
X35700000Y-108649999I0J-249999D01*
G01*
X35700000Y-109300001D01*
G75*
G02*
X35450001Y-109550000I-249999J0D01*
G01*
X34549999Y-109550000D01*
G75*
G02*
X34300000Y-109300001I0J249999D01*
G01*
X34300000Y-108649999D01*
G75*
G02*
X34549999Y-108400000I249999J0D01*
G01*
G37*
%TD*%
%TO.C,R1*%
G36*
G01*
X164549999Y-66450000D02*
X165450001Y-66450000D01*
G75*
G02*
X165700000Y-66699999I0J-249999D01*
G01*
X165700000Y-67350001D01*
G75*
G02*
X165450001Y-67600000I-249999J0D01*
G01*
X164549999Y-67600000D01*
G75*
G02*
X164300000Y-67350001I0J249999D01*
G01*
X164300000Y-66699999D01*
G75*
G02*
X164549999Y-66450000I249999J0D01*
G01*
G37*
G36*
G01*
X164549999Y-64400000D02*
X165450001Y-64400000D01*
G75*
G02*
X165700000Y-64649999I0J-249999D01*
G01*
X165700000Y-65300001D01*
G75*
G02*
X165450001Y-65550000I-249999J0D01*
G01*
X164549999Y-65550000D01*
G75*
G02*
X164300000Y-65300001I0J249999D01*
G01*
X164300000Y-64649999D01*
G75*
G02*
X164549999Y-64400000I249999J0D01*
G01*
G37*
%TD*%
%TO.C,R2*%
G36*
G01*
X37549999Y-108400000D02*
X38450001Y-108400000D01*
G75*
G02*
X38700000Y-108649999I0J-249999D01*
G01*
X38700000Y-109300001D01*
G75*
G02*
X38450001Y-109550000I-249999J0D01*
G01*
X37549999Y-109550000D01*
G75*
G02*
X37300000Y-109300001I0J249999D01*
G01*
X37300000Y-108649999D01*
G75*
G02*
X37549999Y-108400000I249999J0D01*
G01*
G37*
G36*
G01*
X37549999Y-110450000D02*
X38450001Y-110450000D01*
G75*
G02*
X38700000Y-110699999I0J-249999D01*
G01*
X38700000Y-111350001D01*
G75*
G02*
X38450001Y-111600000I-249999J0D01*
G01*
X37549999Y-111600000D01*
G75*
G02*
X37300000Y-111350001I0J249999D01*
G01*
X37300000Y-110699999D01*
G75*
G02*
X37549999Y-110450000I249999J0D01*
G01*
G37*
%TD*%
%TO.C,R4*%
G36*
G01*
X63450001Y-65550000D02*
X62549999Y-65550000D01*
G75*
G02*
X62300000Y-65300001I0J249999D01*
G01*
X62300000Y-64649999D01*
G75*
G02*
X62549999Y-64400000I249999J0D01*
G01*
X63450001Y-64400000D01*
G75*
G02*
X63700000Y-64649999I0J-249999D01*
G01*
X63700000Y-65300001D01*
G75*
G02*
X63450001Y-65550000I-249999J0D01*
G01*
G37*
G36*
G01*
X63450001Y-67600000D02*
X62549999Y-67600000D01*
G75*
G02*
X62300000Y-67350001I0J249999D01*
G01*
X62300000Y-66699999D01*
G75*
G02*
X62549999Y-66450000I249999J0D01*
G01*
X63450001Y-66450000D01*
G75*
G02*
X63700000Y-66699999I0J-249999D01*
G01*
X63700000Y-67350001D01*
G75*
G02*
X63450001Y-67600000I-249999J0D01*
G01*
G37*
%TD*%
%TO.C,R9*%
G36*
G01*
X189049999Y-67450000D02*
X189950001Y-67450000D01*
G75*
G02*
X190200000Y-67699999I0J-249999D01*
G01*
X190200000Y-68350001D01*
G75*
G02*
X189950001Y-68600000I-249999J0D01*
G01*
X189049999Y-68600000D01*
G75*
G02*
X188800000Y-68350001I0J249999D01*
G01*
X188800000Y-67699999D01*
G75*
G02*
X189049999Y-67450000I249999J0D01*
G01*
G37*
G36*
G01*
X189049999Y-65400000D02*
X189950001Y-65400000D01*
G75*
G02*
X190200000Y-65649999I0J-249999D01*
G01*
X190200000Y-66300001D01*
G75*
G02*
X189950001Y-66550000I-249999J0D01*
G01*
X189049999Y-66550000D01*
G75*
G02*
X188800000Y-66300001I0J249999D01*
G01*
X188800000Y-65649999D01*
G75*
G02*
X189049999Y-65400000I249999J0D01*
G01*
G37*
%TD*%
%TO.C,R10*%
G36*
G01*
X189950001Y-55600000D02*
X189049999Y-55600000D01*
G75*
G02*
X188800000Y-55350001I0J249999D01*
G01*
X188800000Y-54699999D01*
G75*
G02*
X189049999Y-54450000I249999J0D01*
G01*
X189950001Y-54450000D01*
G75*
G02*
X190200000Y-54699999I0J-249999D01*
G01*
X190200000Y-55350001D01*
G75*
G02*
X189950001Y-55600000I-249999J0D01*
G01*
G37*
G36*
G01*
X189950001Y-53550000D02*
X189049999Y-53550000D01*
G75*
G02*
X188800000Y-53300001I0J249999D01*
G01*
X188800000Y-52649999D01*
G75*
G02*
X189049999Y-52400000I249999J0D01*
G01*
X189950001Y-52400000D01*
G75*
G02*
X190200000Y-52649999I0J-249999D01*
G01*
X190200000Y-53300001D01*
G75*
G02*
X189950001Y-53550000I-249999J0D01*
G01*
G37*
%TD*%
%TO.C,R11*%
G36*
G01*
X195950001Y-68600000D02*
X195049999Y-68600000D01*
G75*
G02*
X194800000Y-68350001I0J249999D01*
G01*
X194800000Y-67699999D01*
G75*
G02*
X195049999Y-67450000I249999J0D01*
G01*
X195950001Y-67450000D01*
G75*
G02*
X196200000Y-67699999I0J-249999D01*
G01*
X196200000Y-68350001D01*
G75*
G02*
X195950001Y-68600000I-249999J0D01*
G01*
G37*
G36*
G01*
X195950001Y-66550000D02*
X195049999Y-66550000D01*
G75*
G02*
X194800000Y-66300001I0J249999D01*
G01*
X194800000Y-65649999D01*
G75*
G02*
X195049999Y-65400000I249999J0D01*
G01*
X195950001Y-65400000D01*
G75*
G02*
X196200000Y-65649999I0J-249999D01*
G01*
X196200000Y-66300001D01*
G75*
G02*
X195950001Y-66550000I-249999J0D01*
G01*
G37*
%TD*%
%TO.C,R12*%
G36*
G01*
X195950001Y-53550000D02*
X195049999Y-53550000D01*
G75*
G02*
X194800000Y-53300001I0J249999D01*
G01*
X194800000Y-52649999D01*
G75*
G02*
X195049999Y-52400000I249999J0D01*
G01*
X195950001Y-52400000D01*
G75*
G02*
X196200000Y-52649999I0J-249999D01*
G01*
X196200000Y-53300001D01*
G75*
G02*
X195950001Y-53550000I-249999J0D01*
G01*
G37*
G36*
G01*
X195950001Y-55600000D02*
X195049999Y-55600000D01*
G75*
G02*
X194800000Y-55350001I0J249999D01*
G01*
X194800000Y-54699999D01*
G75*
G02*
X195049999Y-54450000I249999J0D01*
G01*
X195950001Y-54450000D01*
G75*
G02*
X196200000Y-54699999I0J-249999D01*
G01*
X196200000Y-55350001D01*
G75*
G02*
X195950001Y-55600000I-249999J0D01*
G01*
G37*
%TD*%
%TO.C,U3*%
X78507500Y-43600000D03*
X79142500Y-43600000D03*
X79777500Y-43600000D03*
X80412500Y-43600000D03*
X81047500Y-43600000D03*
X81682500Y-43600000D03*
X82317500Y-43600000D03*
X82952500Y-43600000D03*
X83587500Y-43600000D03*
X84222500Y-43600000D03*
X84857500Y-43600000D03*
X85492500Y-43600000D03*
X85492500Y-38400000D03*
X84857500Y-38400000D03*
X84222500Y-38400000D03*
X83587500Y-38400000D03*
X82952500Y-38400000D03*
X82317500Y-38400000D03*
X81682500Y-38400000D03*
X81047500Y-38400000D03*
X80412500Y-38400000D03*
X79777500Y-38400000D03*
X79142500Y-38400000D03*
X78507500Y-38400000D03*
%TD*%
%TO.C,U5*%
X119507500Y-43600000D03*
X120142500Y-43600000D03*
X120777500Y-43600000D03*
X121412500Y-43600000D03*
X122047500Y-43600000D03*
X122682500Y-43600000D03*
X123317500Y-43600000D03*
X123952500Y-43600000D03*
X124587500Y-43600000D03*
X125222500Y-43600000D03*
X125857500Y-43600000D03*
X126492500Y-43600000D03*
X126492500Y-38400000D03*
X125857500Y-38400000D03*
X125222500Y-38400000D03*
X124587500Y-38400000D03*
X123952500Y-38400000D03*
X123317500Y-38400000D03*
X122682500Y-38400000D03*
X122047500Y-38400000D03*
X121412500Y-38400000D03*
X120777500Y-38400000D03*
X120142500Y-38400000D03*
X119507500Y-38400000D03*
%TD*%
%TO.C,U7*%
X157507500Y-38400000D03*
X158142500Y-38400000D03*
X158777500Y-38400000D03*
X159412500Y-38400000D03*
X160047500Y-38400000D03*
X160682500Y-38400000D03*
X161317500Y-38400000D03*
X161952500Y-38400000D03*
X162587500Y-38400000D03*
X163222500Y-38400000D03*
X163857500Y-38400000D03*
X164492500Y-38400000D03*
X164492500Y-43600000D03*
X163857500Y-43600000D03*
X163222500Y-43600000D03*
X162587500Y-43600000D03*
X161952500Y-43600000D03*
X161317500Y-43600000D03*
X160682500Y-43600000D03*
X160047500Y-43600000D03*
X159412500Y-43600000D03*
X158777500Y-43600000D03*
X158142500Y-43600000D03*
X157507500Y-43600000D03*
%TD*%
D11*
%TO.C,J2*%
X31462500Y-102000000D03*
D12*
X34162500Y-103650000D03*
X34162500Y-104300000D03*
X34162500Y-101700000D03*
X34162500Y-102350000D03*
X34162500Y-103000000D03*
D11*
X31462500Y-104000000D03*
%TD*%
%TO.C,C6*%
G36*
G01*
X114450001Y-68600000D02*
X113549999Y-68600000D01*
G75*
G02*
X113300000Y-68350001I0J249999D01*
G01*
X113300000Y-67699999D01*
G75*
G02*
X113549999Y-67450000I249999J0D01*
G01*
X114450001Y-67450000D01*
G75*
G02*
X114700000Y-67699999I0J-249999D01*
G01*
X114700000Y-68350001D01*
G75*
G02*
X114450001Y-68600000I-249999J0D01*
G01*
G37*
G36*
G01*
X114450001Y-66550000D02*
X113549999Y-66550000D01*
G75*
G02*
X113300000Y-66300001I0J249999D01*
G01*
X113300000Y-65649999D01*
G75*
G02*
X113549999Y-65400000I249999J0D01*
G01*
X114450001Y-65400000D01*
G75*
G02*
X114700000Y-65649999I0J-249999D01*
G01*
X114700000Y-66300001D01*
G75*
G02*
X114450001Y-66550000I-249999J0D01*
G01*
G37*
%TD*%
%TO.C,C7*%
G36*
G01*
X114450001Y-53550000D02*
X113549999Y-53550000D01*
G75*
G02*
X113300000Y-53300001I0J249999D01*
G01*
X113300000Y-52649999D01*
G75*
G02*
X113549999Y-52400000I249999J0D01*
G01*
X114450001Y-52400000D01*
G75*
G02*
X114700000Y-52649999I0J-249999D01*
G01*
X114700000Y-53300001D01*
G75*
G02*
X114450001Y-53550000I-249999J0D01*
G01*
G37*
G36*
G01*
X114450001Y-55600000D02*
X113549999Y-55600000D01*
G75*
G02*
X113300000Y-55350001I0J249999D01*
G01*
X113300000Y-54699999D01*
G75*
G02*
X113549999Y-54450000I249999J0D01*
G01*
X114450001Y-54450000D01*
G75*
G02*
X114700000Y-54699999I0J-249999D01*
G01*
X114700000Y-55350001D01*
G75*
G02*
X114450001Y-55600000I-249999J0D01*
G01*
G37*
%TD*%
%TO.C,R5*%
G36*
G01*
X111450001Y-66550000D02*
X110549999Y-66550000D01*
G75*
G02*
X110300000Y-66300001I0J249999D01*
G01*
X110300000Y-65649999D01*
G75*
G02*
X110549999Y-65400000I249999J0D01*
G01*
X111450001Y-65400000D01*
G75*
G02*
X111700000Y-65649999I0J-249999D01*
G01*
X111700000Y-66300001D01*
G75*
G02*
X111450001Y-66550000I-249999J0D01*
G01*
G37*
G36*
G01*
X111450001Y-68600000D02*
X110549999Y-68600000D01*
G75*
G02*
X110300000Y-68350001I0J249999D01*
G01*
X110300000Y-67699999D01*
G75*
G02*
X110549999Y-67450000I249999J0D01*
G01*
X111450001Y-67450000D01*
G75*
G02*
X111700000Y-67699999I0J-249999D01*
G01*
X111700000Y-68350001D01*
G75*
G02*
X111450001Y-68600000I-249999J0D01*
G01*
G37*
%TD*%
%TO.C,R6*%
G36*
G01*
X111450001Y-55600000D02*
X110549999Y-55600000D01*
G75*
G02*
X110300000Y-55350001I0J249999D01*
G01*
X110300000Y-54699999D01*
G75*
G02*
X110549999Y-54450000I249999J0D01*
G01*
X111450001Y-54450000D01*
G75*
G02*
X111700000Y-54699999I0J-249999D01*
G01*
X111700000Y-55350001D01*
G75*
G02*
X111450001Y-55600000I-249999J0D01*
G01*
G37*
G36*
G01*
X111450001Y-53550000D02*
X110549999Y-53550000D01*
G75*
G02*
X110300000Y-53300001I0J249999D01*
G01*
X110300000Y-52649999D01*
G75*
G02*
X110549999Y-52400000I249999J0D01*
G01*
X111450001Y-52400000D01*
G75*
G02*
X111700000Y-52649999I0J-249999D01*
G01*
X111700000Y-53300001D01*
G75*
G02*
X111450001Y-53550000I-249999J0D01*
G01*
G37*
%TD*%
%TO.C,R7*%
G36*
G01*
X117450001Y-68600000D02*
X116549999Y-68600000D01*
G75*
G02*
X116300000Y-68350001I0J249999D01*
G01*
X116300000Y-67699999D01*
G75*
G02*
X116549999Y-67450000I249999J0D01*
G01*
X117450001Y-67450000D01*
G75*
G02*
X117700000Y-67699999I0J-249999D01*
G01*
X117700000Y-68350001D01*
G75*
G02*
X117450001Y-68600000I-249999J0D01*
G01*
G37*
G36*
G01*
X117450001Y-66550000D02*
X116549999Y-66550000D01*
G75*
G02*
X116300000Y-66300001I0J249999D01*
G01*
X116300000Y-65649999D01*
G75*
G02*
X116549999Y-65400000I249999J0D01*
G01*
X117450001Y-65400000D01*
G75*
G02*
X117700000Y-65649999I0J-249999D01*
G01*
X117700000Y-66300001D01*
G75*
G02*
X117450001Y-66550000I-249999J0D01*
G01*
G37*
%TD*%
%TO.C,R8*%
G36*
G01*
X117450001Y-53550000D02*
X116549999Y-53550000D01*
G75*
G02*
X116300000Y-53300001I0J249999D01*
G01*
X116300000Y-52649999D01*
G75*
G02*
X116549999Y-52400000I249999J0D01*
G01*
X117450001Y-52400000D01*
G75*
G02*
X117700000Y-52649999I0J-249999D01*
G01*
X117700000Y-53300001D01*
G75*
G02*
X117450001Y-53550000I-249999J0D01*
G01*
G37*
G36*
G01*
X117450001Y-55600000D02*
X116549999Y-55600000D01*
G75*
G02*
X116300000Y-55350001I0J249999D01*
G01*
X116300000Y-54699999D01*
G75*
G02*
X116549999Y-54450000I249999J0D01*
G01*
X117450001Y-54450000D01*
G75*
G02*
X117700000Y-54699999I0J-249999D01*
G01*
X117700000Y-55350001D01*
G75*
G02*
X117450001Y-55600000I-249999J0D01*
G01*
G37*
%TD*%
%TO.C,C12*%
G36*
G01*
X43549999Y-95400000D02*
X44450001Y-95400000D01*
G75*
G02*
X44700000Y-95649999I0J-249999D01*
G01*
X44700000Y-96300001D01*
G75*
G02*
X44450001Y-96550000I-249999J0D01*
G01*
X43549999Y-96550000D01*
G75*
G02*
X43300000Y-96300001I0J249999D01*
G01*
X43300000Y-95649999D01*
G75*
G02*
X43549999Y-95400000I249999J0D01*
G01*
G37*
G36*
G01*
X43549999Y-97450000D02*
X44450001Y-97450000D01*
G75*
G02*
X44700000Y-97699999I0J-249999D01*
G01*
X44700000Y-98350001D01*
G75*
G02*
X44450001Y-98600000I-249999J0D01*
G01*
X43549999Y-98600000D01*
G75*
G02*
X43300000Y-98350001I0J249999D01*
G01*
X43300000Y-97699999D01*
G75*
G02*
X43549999Y-97450000I249999J0D01*
G01*
G37*
%TD*%
%TO.C,C13*%
G36*
G01*
X81549999Y-97450000D02*
X82450001Y-97450000D01*
G75*
G02*
X82700000Y-97699999I0J-249999D01*
G01*
X82700000Y-98350001D01*
G75*
G02*
X82450001Y-98600000I-249999J0D01*
G01*
X81549999Y-98600000D01*
G75*
G02*
X81300000Y-98350001I0J249999D01*
G01*
X81300000Y-97699999D01*
G75*
G02*
X81549999Y-97450000I249999J0D01*
G01*
G37*
G36*
G01*
X81549999Y-95400000D02*
X82450001Y-95400000D01*
G75*
G02*
X82700000Y-95649999I0J-249999D01*
G01*
X82700000Y-96300001D01*
G75*
G02*
X82450001Y-96550000I-249999J0D01*
G01*
X81549999Y-96550000D01*
G75*
G02*
X81300000Y-96300001I0J249999D01*
G01*
X81300000Y-95649999D01*
G75*
G02*
X81549999Y-95400000I249999J0D01*
G01*
G37*
%TD*%
%TO.C,C14*%
G36*
G01*
X122739999Y-97450000D02*
X123640001Y-97450000D01*
G75*
G02*
X123890000Y-97699999I0J-249999D01*
G01*
X123890000Y-98350001D01*
G75*
G02*
X123640001Y-98600000I-249999J0D01*
G01*
X122739999Y-98600000D01*
G75*
G02*
X122490000Y-98350001I0J249999D01*
G01*
X122490000Y-97699999D01*
G75*
G02*
X122739999Y-97450000I249999J0D01*
G01*
G37*
G36*
G01*
X122739999Y-95400000D02*
X123640001Y-95400000D01*
G75*
G02*
X123890000Y-95649999I0J-249999D01*
G01*
X123890000Y-96300001D01*
G75*
G02*
X123640001Y-96550000I-249999J0D01*
G01*
X122739999Y-96550000D01*
G75*
G02*
X122490000Y-96300001I0J249999D01*
G01*
X122490000Y-95649999D01*
G75*
G02*
X122739999Y-95400000I249999J0D01*
G01*
G37*
%TD*%
%TO.C,C15*%
G36*
G01*
X160549999Y-95400000D02*
X161450001Y-95400000D01*
G75*
G02*
X161700000Y-95649999I0J-249999D01*
G01*
X161700000Y-96300001D01*
G75*
G02*
X161450001Y-96550000I-249999J0D01*
G01*
X160549999Y-96550000D01*
G75*
G02*
X160300000Y-96300001I0J249999D01*
G01*
X160300000Y-95649999D01*
G75*
G02*
X160549999Y-95400000I249999J0D01*
G01*
G37*
G36*
G01*
X160549999Y-97450000D02*
X161450001Y-97450000D01*
G75*
G02*
X161700000Y-97699999I0J-249999D01*
G01*
X161700000Y-98350001D01*
G75*
G02*
X161450001Y-98600000I-249999J0D01*
G01*
X160549999Y-98600000D01*
G75*
G02*
X160300000Y-98350001I0J249999D01*
G01*
X160300000Y-97699999D01*
G75*
G02*
X160549999Y-97450000I249999J0D01*
G01*
G37*
%TD*%
%TO.C,C16*%
G36*
G01*
X114450001Y-116550000D02*
X113549999Y-116550000D01*
G75*
G02*
X113300000Y-116300001I0J249999D01*
G01*
X113300000Y-115649999D01*
G75*
G02*
X113549999Y-115400000I249999J0D01*
G01*
X114450001Y-115400000D01*
G75*
G02*
X114700000Y-115649999I0J-249999D01*
G01*
X114700000Y-116300001D01*
G75*
G02*
X114450001Y-116550000I-249999J0D01*
G01*
G37*
G36*
G01*
X114450001Y-118600000D02*
X113549999Y-118600000D01*
G75*
G02*
X113300000Y-118350001I0J249999D01*
G01*
X113300000Y-117699999D01*
G75*
G02*
X113549999Y-117450000I249999J0D01*
G01*
X114450001Y-117450000D01*
G75*
G02*
X114700000Y-117699999I0J-249999D01*
G01*
X114700000Y-118350001D01*
G75*
G02*
X114450001Y-118600000I-249999J0D01*
G01*
G37*
%TD*%
%TO.C,C17*%
G36*
G01*
X114450001Y-105600000D02*
X113549999Y-105600000D01*
G75*
G02*
X113300000Y-105350001I0J249999D01*
G01*
X113300000Y-104699999D01*
G75*
G02*
X113549999Y-104450000I249999J0D01*
G01*
X114450001Y-104450000D01*
G75*
G02*
X114700000Y-104699999I0J-249999D01*
G01*
X114700000Y-105350001D01*
G75*
G02*
X114450001Y-105600000I-249999J0D01*
G01*
G37*
G36*
G01*
X114450001Y-103550000D02*
X113549999Y-103550000D01*
G75*
G02*
X113300000Y-103300001I0J249999D01*
G01*
X113300000Y-102649999D01*
G75*
G02*
X113549999Y-102400000I249999J0D01*
G01*
X114450001Y-102400000D01*
G75*
G02*
X114700000Y-102649999I0J-249999D01*
G01*
X114700000Y-103300001D01*
G75*
G02*
X114450001Y-103550000I-249999J0D01*
G01*
G37*
%TD*%
%TO.C,C18*%
G36*
G01*
X192950001Y-116550000D02*
X192049999Y-116550000D01*
G75*
G02*
X191800000Y-116300001I0J249999D01*
G01*
X191800000Y-115649999D01*
G75*
G02*
X192049999Y-115400000I249999J0D01*
G01*
X192950001Y-115400000D01*
G75*
G02*
X193200000Y-115649999I0J-249999D01*
G01*
X193200000Y-116300001D01*
G75*
G02*
X192950001Y-116550000I-249999J0D01*
G01*
G37*
G36*
G01*
X192950001Y-118600000D02*
X192049999Y-118600000D01*
G75*
G02*
X191800000Y-118350001I0J249999D01*
G01*
X191800000Y-117699999D01*
G75*
G02*
X192049999Y-117450000I249999J0D01*
G01*
X192950001Y-117450000D01*
G75*
G02*
X193200000Y-117699999I0J-249999D01*
G01*
X193200000Y-118350001D01*
G75*
G02*
X192950001Y-118600000I-249999J0D01*
G01*
G37*
%TD*%
%TO.C,C19*%
G36*
G01*
X192950001Y-105600000D02*
X192049999Y-105600000D01*
G75*
G02*
X191800000Y-105350001I0J249999D01*
G01*
X191800000Y-104699999D01*
G75*
G02*
X192049999Y-104450000I249999J0D01*
G01*
X192950001Y-104450000D01*
G75*
G02*
X193200000Y-104699999I0J-249999D01*
G01*
X193200000Y-105350001D01*
G75*
G02*
X192950001Y-105600000I-249999J0D01*
G01*
G37*
G36*
G01*
X192950001Y-103550000D02*
X192049999Y-103550000D01*
G75*
G02*
X191800000Y-103300001I0J249999D01*
G01*
X191800000Y-102649999D01*
G75*
G02*
X192049999Y-102400000I249999J0D01*
G01*
X192950001Y-102400000D01*
G75*
G02*
X193200000Y-102649999I0J-249999D01*
G01*
X193200000Y-103300001D01*
G75*
G02*
X192950001Y-103550000I-249999J0D01*
G01*
G37*
%TD*%
%TO.C,R19*%
G36*
G01*
X63450001Y-117600000D02*
X62549999Y-117600000D01*
G75*
G02*
X62300000Y-117350001I0J249999D01*
G01*
X62300000Y-116699999D01*
G75*
G02*
X62549999Y-116450000I249999J0D01*
G01*
X63450001Y-116450000D01*
G75*
G02*
X63700000Y-116699999I0J-249999D01*
G01*
X63700000Y-117350001D01*
G75*
G02*
X63450001Y-117600000I-249999J0D01*
G01*
G37*
G36*
G01*
X63450001Y-115550000D02*
X62549999Y-115550000D01*
G75*
G02*
X62300000Y-115300001I0J249999D01*
G01*
X62300000Y-114649999D01*
G75*
G02*
X62549999Y-114400000I249999J0D01*
G01*
X63450001Y-114400000D01*
G75*
G02*
X63700000Y-114649999I0J-249999D01*
G01*
X63700000Y-115300001D01*
G75*
G02*
X63450001Y-115550000I-249999J0D01*
G01*
G37*
%TD*%
%TO.C,R21*%
G36*
G01*
X111450001Y-116550000D02*
X110549999Y-116550000D01*
G75*
G02*
X110300000Y-116300001I0J249999D01*
G01*
X110300000Y-115649999D01*
G75*
G02*
X110549999Y-115400000I249999J0D01*
G01*
X111450001Y-115400000D01*
G75*
G02*
X111700000Y-115649999I0J-249999D01*
G01*
X111700000Y-116300001D01*
G75*
G02*
X111450001Y-116550000I-249999J0D01*
G01*
G37*
G36*
G01*
X111450001Y-118600000D02*
X110549999Y-118600000D01*
G75*
G02*
X110300000Y-118350001I0J249999D01*
G01*
X110300000Y-117699999D01*
G75*
G02*
X110549999Y-117450000I249999J0D01*
G01*
X111450001Y-117450000D01*
G75*
G02*
X111700000Y-117699999I0J-249999D01*
G01*
X111700000Y-118350001D01*
G75*
G02*
X111450001Y-118600000I-249999J0D01*
G01*
G37*
%TD*%
%TO.C,R22*%
G36*
G01*
X111450001Y-103550000D02*
X110549999Y-103550000D01*
G75*
G02*
X110300000Y-103300001I0J249999D01*
G01*
X110300000Y-102649999D01*
G75*
G02*
X110549999Y-102400000I249999J0D01*
G01*
X111450001Y-102400000D01*
G75*
G02*
X111700000Y-102649999I0J-249999D01*
G01*
X111700000Y-103300001D01*
G75*
G02*
X111450001Y-103550000I-249999J0D01*
G01*
G37*
G36*
G01*
X111450001Y-105600000D02*
X110549999Y-105600000D01*
G75*
G02*
X110300000Y-105350001I0J249999D01*
G01*
X110300000Y-104699999D01*
G75*
G02*
X110549999Y-104450000I249999J0D01*
G01*
X111450001Y-104450000D01*
G75*
G02*
X111700000Y-104699999I0J-249999D01*
G01*
X111700000Y-105350001D01*
G75*
G02*
X111450001Y-105600000I-249999J0D01*
G01*
G37*
%TD*%
%TO.C,R23*%
G36*
G01*
X117450001Y-116550000D02*
X116549999Y-116550000D01*
G75*
G02*
X116300000Y-116300001I0J249999D01*
G01*
X116300000Y-115649999D01*
G75*
G02*
X116549999Y-115400000I249999J0D01*
G01*
X117450001Y-115400000D01*
G75*
G02*
X117700000Y-115649999I0J-249999D01*
G01*
X117700000Y-116300001D01*
G75*
G02*
X117450001Y-116550000I-249999J0D01*
G01*
G37*
G36*
G01*
X117450001Y-118600000D02*
X116549999Y-118600000D01*
G75*
G02*
X116300000Y-118350001I0J249999D01*
G01*
X116300000Y-117699999D01*
G75*
G02*
X116549999Y-117450000I249999J0D01*
G01*
X117450001Y-117450000D01*
G75*
G02*
X117700000Y-117699999I0J-249999D01*
G01*
X117700000Y-118350001D01*
G75*
G02*
X117450001Y-118600000I-249999J0D01*
G01*
G37*
%TD*%
%TO.C,R24*%
G36*
G01*
X117450001Y-105600000D02*
X116549999Y-105600000D01*
G75*
G02*
X116300000Y-105350001I0J249999D01*
G01*
X116300000Y-104699999D01*
G75*
G02*
X116549999Y-104450000I249999J0D01*
G01*
X117450001Y-104450000D01*
G75*
G02*
X117700000Y-104699999I0J-249999D01*
G01*
X117700000Y-105350001D01*
G75*
G02*
X117450001Y-105600000I-249999J0D01*
G01*
G37*
G36*
G01*
X117450001Y-103550000D02*
X116549999Y-103550000D01*
G75*
G02*
X116300000Y-103300001I0J249999D01*
G01*
X116300000Y-102649999D01*
G75*
G02*
X116549999Y-102400000I249999J0D01*
G01*
X117450001Y-102400000D01*
G75*
G02*
X117700000Y-102649999I0J-249999D01*
G01*
X117700000Y-103300001D01*
G75*
G02*
X117450001Y-103550000I-249999J0D01*
G01*
G37*
%TD*%
%TO.C,R25*%
G36*
G01*
X189950001Y-118600000D02*
X189049999Y-118600000D01*
G75*
G02*
X188800000Y-118350001I0J249999D01*
G01*
X188800000Y-117699999D01*
G75*
G02*
X189049999Y-117450000I249999J0D01*
G01*
X189950001Y-117450000D01*
G75*
G02*
X190200000Y-117699999I0J-249999D01*
G01*
X190200000Y-118350001D01*
G75*
G02*
X189950001Y-118600000I-249999J0D01*
G01*
G37*
G36*
G01*
X189950001Y-116550000D02*
X189049999Y-116550000D01*
G75*
G02*
X188800000Y-116300001I0J249999D01*
G01*
X188800000Y-115649999D01*
G75*
G02*
X189049999Y-115400000I249999J0D01*
G01*
X189950001Y-115400000D01*
G75*
G02*
X190200000Y-115649999I0J-249999D01*
G01*
X190200000Y-116300001D01*
G75*
G02*
X189950001Y-116550000I-249999J0D01*
G01*
G37*
%TD*%
%TO.C,R26*%
G36*
G01*
X189950001Y-103550000D02*
X189049999Y-103550000D01*
G75*
G02*
X188800000Y-103300001I0J249999D01*
G01*
X188800000Y-102649999D01*
G75*
G02*
X189049999Y-102400000I249999J0D01*
G01*
X189950001Y-102400000D01*
G75*
G02*
X190200000Y-102649999I0J-249999D01*
G01*
X190200000Y-103300001D01*
G75*
G02*
X189950001Y-103550000I-249999J0D01*
G01*
G37*
G36*
G01*
X189950001Y-105600000D02*
X189049999Y-105600000D01*
G75*
G02*
X188800000Y-105350001I0J249999D01*
G01*
X188800000Y-104699999D01*
G75*
G02*
X189049999Y-104450000I249999J0D01*
G01*
X189950001Y-104450000D01*
G75*
G02*
X190200000Y-104699999I0J-249999D01*
G01*
X190200000Y-105350001D01*
G75*
G02*
X189950001Y-105600000I-249999J0D01*
G01*
G37*
%TD*%
%TO.C,R27*%
G36*
G01*
X195950001Y-116550000D02*
X195049999Y-116550000D01*
G75*
G02*
X194800000Y-116300001I0J249999D01*
G01*
X194800000Y-115649999D01*
G75*
G02*
X195049999Y-115400000I249999J0D01*
G01*
X195950001Y-115400000D01*
G75*
G02*
X196200000Y-115649999I0J-249999D01*
G01*
X196200000Y-116300001D01*
G75*
G02*
X195950001Y-116550000I-249999J0D01*
G01*
G37*
G36*
G01*
X195950001Y-118600000D02*
X195049999Y-118600000D01*
G75*
G02*
X194800000Y-118350001I0J249999D01*
G01*
X194800000Y-117699999D01*
G75*
G02*
X195049999Y-117450000I249999J0D01*
G01*
X195950001Y-117450000D01*
G75*
G02*
X196200000Y-117699999I0J-249999D01*
G01*
X196200000Y-118350001D01*
G75*
G02*
X195950001Y-118600000I-249999J0D01*
G01*
G37*
%TD*%
%TO.C,R28*%
G36*
G01*
X195950001Y-105600000D02*
X195049999Y-105600000D01*
G75*
G02*
X194800000Y-105350001I0J249999D01*
G01*
X194800000Y-104699999D01*
G75*
G02*
X195049999Y-104450000I249999J0D01*
G01*
X195950001Y-104450000D01*
G75*
G02*
X196200000Y-104699999I0J-249999D01*
G01*
X196200000Y-105350001D01*
G75*
G02*
X195950001Y-105600000I-249999J0D01*
G01*
G37*
G36*
G01*
X195950001Y-103550000D02*
X195049999Y-103550000D01*
G75*
G02*
X194800000Y-103300001I0J249999D01*
G01*
X194800000Y-102649999D01*
G75*
G02*
X195049999Y-102400000I249999J0D01*
G01*
X195950001Y-102400000D01*
G75*
G02*
X196200000Y-102649999I0J-249999D01*
G01*
X196200000Y-103300001D01*
G75*
G02*
X195950001Y-103550000I-249999J0D01*
G01*
G37*
%TD*%
D10*
%TO.C,U9*%
X40507500Y-93600000D03*
X41142500Y-93600000D03*
X41777500Y-93600000D03*
X42412500Y-93600000D03*
X43047500Y-93600000D03*
X43682500Y-93600000D03*
X44317500Y-93600000D03*
X44952500Y-93600000D03*
X45587500Y-93600000D03*
X46222500Y-93600000D03*
X46857500Y-93600000D03*
X47492500Y-93600000D03*
X47492500Y-88400000D03*
X46857500Y-88400000D03*
X46222500Y-88400000D03*
X45587500Y-88400000D03*
X44952500Y-88400000D03*
X44317500Y-88400000D03*
X43682500Y-88400000D03*
X43047500Y-88400000D03*
X42412500Y-88400000D03*
X41777500Y-88400000D03*
X41142500Y-88400000D03*
X40507500Y-88400000D03*
%TD*%
%TO.C,U11*%
X119507500Y-88400000D03*
X120142500Y-88400000D03*
X120777500Y-88400000D03*
X121412500Y-88400000D03*
X122047500Y-88400000D03*
X122682500Y-88400000D03*
X123317500Y-88400000D03*
X123952500Y-88400000D03*
X124587500Y-88400000D03*
X125222500Y-88400000D03*
X125857500Y-88400000D03*
X126492500Y-88400000D03*
X126492500Y-93600000D03*
X125857500Y-93600000D03*
X125222500Y-93600000D03*
X124587500Y-93600000D03*
X123952500Y-93600000D03*
X123317500Y-93600000D03*
X122682500Y-93600000D03*
X122047500Y-93600000D03*
X121412500Y-93600000D03*
X120777500Y-93600000D03*
X120142500Y-93600000D03*
X119507500Y-93600000D03*
%TD*%
%TO.C,U13*%
X157507500Y-93600000D03*
X158142500Y-93600000D03*
X158777500Y-93600000D03*
X159412500Y-93600000D03*
X160047500Y-93600000D03*
X160682500Y-93600000D03*
X161317500Y-93600000D03*
X161952500Y-93600000D03*
X162587500Y-93600000D03*
X163222500Y-93600000D03*
X163857500Y-93600000D03*
X164492500Y-93600000D03*
X164492500Y-88400000D03*
X163857500Y-88400000D03*
X163222500Y-88400000D03*
X162587500Y-88400000D03*
X161952500Y-88400000D03*
X161317500Y-88400000D03*
X160682500Y-88400000D03*
X160047500Y-88400000D03*
X159412500Y-88400000D03*
X158777500Y-88400000D03*
X158142500Y-88400000D03*
X157507500Y-88400000D03*
%TD*%
%TO.C,U15*%
X78507500Y-88400000D03*
X79142500Y-88400000D03*
X79777500Y-88400000D03*
X80412500Y-88400000D03*
X81047500Y-88400000D03*
X81682500Y-88400000D03*
X82317500Y-88400000D03*
X82952500Y-88400000D03*
X83587500Y-88400000D03*
X84222500Y-88400000D03*
X84857500Y-88400000D03*
X85492500Y-88400000D03*
X85492500Y-93600000D03*
X84857500Y-93600000D03*
X84222500Y-93600000D03*
X83587500Y-93600000D03*
X82952500Y-93600000D03*
X82317500Y-93600000D03*
X81682500Y-93600000D03*
X81047500Y-93600000D03*
X80412500Y-93600000D03*
X79777500Y-93600000D03*
X79142500Y-93600000D03*
X78507500Y-93600000D03*
%TD*%
M02*
