M48
INCH,TZ
T1C0.0157
T2C0.0236
T3C0.0300
T4C0.0315
T5C0.0335
T6C0.0354
T7C0.0394
T8C0.0433
T9C0.0472
T10C0.1299
%
G90
G05
T1
X13780Y-17717
X13780Y-19685
X13780Y-21654
X13780Y-23622
X13780Y-25591
X13780Y-27559
X13780Y-29528
X13780Y-31496
X13780Y-33465
X13780Y-35433
X13780Y-37402
X16233Y-36351
X16384Y-37339
X16808Y-17740
X16829Y-37352
X16901Y-33826
X16979Y-15698
X17336Y-35568
X17375Y-36210
X17694Y-16686
X18178Y-16662
X18400Y-35421
X18859Y-16624
X19045Y-35171
X19128Y-17402
X19242Y-35920
X19359Y-15149
X19685Y-23622
X19685Y-41339
X19685Y-43307
X19893Y-13705
X19993Y-16846
X20575Y-27686
X21120Y-15387
X21654Y-21654
X21654Y-23622
X21654Y-41339
X21654Y-47244
X21654Y-49213
X23622Y-19685
X23622Y-21654
X23622Y-23622
X23622Y-41339
X23622Y-47244
X23622Y-49213
X25209Y-40711
X25321Y-26380
X25591Y-19685
X25591Y-21654
X25591Y-41339
X25591Y-43307
X25591Y-45276
X25591Y-47244
X25591Y-49213
X27559Y-19685
X27559Y-21654
X27559Y-41339
X27559Y-43307
X27559Y-45276
X27559Y-47244
X27559Y-49213
X29528Y-43307
X29528Y-45276
X29528Y-47244
X29528Y-49213
X30453Y-35153
X30798Y-37574
X31312Y-18576
X31408Y-17747
X31496Y-19685
X31496Y-45276
X31496Y-47244
X31496Y-49213
X31610Y-37569
X31613Y-18159
X32100Y-15900
X32248Y-32939
X32592Y-32242
X32798Y-16608
X32900Y-15800
X33182Y-36304
X33185Y-33919
X33213Y-37692
X33465Y-19685
X33465Y-45276
X33465Y-47244
X33465Y-49213
X33972Y-14457
X33996Y-15076
X34360Y-16902
X34412Y-35750
X34646Y-22441
X35433Y-19685
X35433Y-45276
X35433Y-47244
X35433Y-49213
X36614Y-22441
X37402Y-19685
X37402Y-45276
X37402Y-47244
X37402Y-49213
X39370Y-19685
X39370Y-47244
X39370Y-49213
X41339Y-49213
X41490Y-33294
X43307Y-19685
X43307Y-49213
X45276Y-13780
X45276Y-49213
X45386Y-21286
X45424Y-26499
X46160Y-30403
X46260Y-43307
X46337Y-17344
X47037Y-33851
X47244Y-13780
X47244Y-21654
X47244Y-44291
X47244Y-49213
X47316Y-19757
X47422Y-17680
X47483Y-33909
X47533Y-37408
X47677Y-36359
X47699Y-18928
X47828Y-17656
X47892Y-14544
X47980Y-37443
X48015Y-35603
X48190Y-15649
X48345Y-36296
X48966Y-37761
X49045Y-14216
X49144Y-33740
X49163Y-35673
X49213Y-19685
X49213Y-21654
X49213Y-23622
X49213Y-41339
X49213Y-49213
X49352Y-14504
X49555Y-16640
X50006Y-34305
X50021Y-16674
X50031Y-36184
X50227Y-33600
X50723Y-15078
X51145Y-16690
X51181Y-21654
X51181Y-23622
X51181Y-41339
X51181Y-43307
X51181Y-49213
X52927Y-16519
X53150Y-19685
X53150Y-41339
X53150Y-43307
X53150Y-46260
X53150Y-49213
X55118Y-19685
X55118Y-21654
X55118Y-41339
X55118Y-46260
X55118Y-49213
X57087Y-19685
X57087Y-21654
X57087Y-23622
X57087Y-43307
X57087Y-46260
X57087Y-49213
X59006Y-23573
X59055Y-19685
X59055Y-21654
X59055Y-41339
X59055Y-43307
X59055Y-46260
X59055Y-49213
X60210Y-37583
X60974Y-35742
X61024Y-19685
X61024Y-46260
X61024Y-49213
X62047Y-17723
X62283Y-36343
X62386Y-37494
X62481Y-15700
X62485Y-18188
X62925Y-37434
X62983Y-17662
X62992Y-19685
X62992Y-46260
X62992Y-49213
X62997Y-18252
X63060Y-33801
X63524Y-36093
X63658Y-15807
X63924Y-37782
X64715Y-34209
X64721Y-16670
X64961Y-41339
X64961Y-49213
X65066Y-18965
X65170Y-17019
X65296Y-36883
X65748Y-22835
X65912Y-15224
X66297Y-34402
X66523Y-35110
X66630Y-16162
X66929Y-41339
X66929Y-43307
X66929Y-49213
X67701Y-15994
X67717Y-22835
X68898Y-41339
X68898Y-49213
X70866Y-49213
X72835Y-49213
X74803Y-13780
X74803Y-15748
X74803Y-49213
X76772Y-13780
X76772Y-15748
X76772Y-17717
X76772Y-49213
X77319Y-31530
X78740Y-17717
X78740Y-19685
X78740Y-39370
X78740Y-41339
X78740Y-43307
X79000Y-23100
X80709Y-17717
X80709Y-19685
X80709Y-21654
X80916Y-32165
T3
X61220Y-25000
X61220Y-26969
X63189Y-25984
T4
X67079Y-33827
X67079Y-37827
X68079Y-33827
X68079Y-37827
X69079Y-33827
X69079Y-37827
X70079Y-33827
X70079Y-37827
X71079Y-33827
X71079Y-37827
X72079Y-33827
X72079Y-37827
X73079Y-33827
X73079Y-37827
X35976Y-33827
X35976Y-37827
X36976Y-33827
X36976Y-37827
X37976Y-33827
X37976Y-37827
X38976Y-33827
X38976Y-37827
X39976Y-33827
X39976Y-37827
X40976Y-33827
X40976Y-37827
X41976Y-33827
X41976Y-37827
X52118Y-33827
X52118Y-37827
X53118Y-33827
X53118Y-37827
X54118Y-33827
X54118Y-37827
X55118Y-33827
X55118Y-37827
X56118Y-33827
X56118Y-37827
X57118Y-33827
X57118Y-37827
X58118Y-33827
X58118Y-37827
X21016Y-33827
X21016Y-37827
X22016Y-33827
X22016Y-37827
X23016Y-33827
X23016Y-37827
X24016Y-33827
X24016Y-37827
X25016Y-33827
X25016Y-37827
X26016Y-33827
X26016Y-37827
X27016Y-33827
X27016Y-37827
X52118Y-14142
X52118Y-18142
X53118Y-14142
X53118Y-18142
X54118Y-14142
X54118Y-18142
X55118Y-14142
X55118Y-18142
X56118Y-14142
X56118Y-18142
X57118Y-14142
X57118Y-18142
X58118Y-14142
X58118Y-18142
X67079Y-14142
X67079Y-18142
X68079Y-14142
X68079Y-18142
X69079Y-14142
X69079Y-18142
X70079Y-14142
X70079Y-18142
X71079Y-14142
X71079Y-18142
X72079Y-14142
X72079Y-18142
X73079Y-14142
X73079Y-18142
X21016Y-14142
X21016Y-18142
X22016Y-14142
X22016Y-18142
X23016Y-14142
X23016Y-18142
X24016Y-14142
X24016Y-18142
X25016Y-14142
X25016Y-18142
X26016Y-14142
X26016Y-18142
X27016Y-14142
X27016Y-18142
X35976Y-14142
X35976Y-18142
X36976Y-14142
X36976Y-18142
X37976Y-14142
X37976Y-18142
X38976Y-14142
X38976Y-18142
X39976Y-14142
X39976Y-18142
X40976Y-14142
X40976Y-18142
X41976Y-14142
X41976Y-18142
T5
X13450Y-39567
X13450Y-41535
T6
X22441Y-25984
X23441Y-25984
X22441Y-45669
X23441Y-45669
T7
X79512Y-23622
X79512Y-24622
X79512Y-25622
X79512Y-26622
X79512Y-27622
X79512Y-28622
X79512Y-29622
X79512Y-30622
X79512Y-31622
X79512Y-32622
X79512Y-33622
X79512Y-34622
X79512Y-35622
X79512Y-36622
X79512Y-37622
X80512Y-23622
X80512Y-24622
X80512Y-25622
X80512Y-26622
X80512Y-27622
X80512Y-28622
X80512Y-29622
X80512Y-30622
X80512Y-31622
X80512Y-32622
X80512Y-33622
X80512Y-34622
X80512Y-35622
X80512Y-36622
X80512Y-37622
T8
X61319Y-21260
X61319Y-23031
X63878Y-21260
X63878Y-23031
X30217Y-21260
X30217Y-23031
X32776Y-21260
X32776Y-23031
X49213Y-25197
X49213Y-26969
X51772Y-25197
X51772Y-26969
X61319Y-40945
X61319Y-42717
X63878Y-40945
X63878Y-42717
X49213Y-44882
X49213Y-46654
X51772Y-44882
X51772Y-46654
X16929Y-25197
X16929Y-26969
X19488Y-25197
X19488Y-26969
X30217Y-40945
X30217Y-42717
X32776Y-40945
X32776Y-42717
X16929Y-44882
X16929Y-46654
X19488Y-44882
X19488Y-46654
T9
X70276Y-42520
X70276Y-44488
X75984Y-42520
X75984Y-43504
X75984Y-44488
X38976Y-42520
X38976Y-44488
X44685Y-42520
X44685Y-43504
X44685Y-44488
X38976Y-22835
X38976Y-24803
X44685Y-22835
X44685Y-23819
X44685Y-24803
X70276Y-22835
X70276Y-24803
X75984Y-22835
X75984Y-23819
X75984Y-24803
T10
X41732Y-41673
X41732Y-45335
X41732Y-21988
X41732Y-25650
X73031Y-21988
X73031Y-25650
X73031Y-41673
X73031Y-45335
T2
G00X12249Y-39173
M15
G01X12525Y-39173
M16
G05
G00X12525Y-41929
M15
G01X12249Y-41929
M16
G05
T0
M30
