M48
INCH,TZ
T1C0.0157
T2C0.0236
T3C0.0300
T4C0.0315
T5C0.0335
T6C0.0354
T7C0.0394
T8C0.0433
T9C0.0472
T10C0.1299
%
G90
G05
T1
X13780Y-15748
X13780Y-17717
X13780Y-19685
X13780Y-21654
X13780Y-23622
X13780Y-25591
X13780Y-27559
X13780Y-29528
X13780Y-31496
X13780Y-33465
X13780Y-35433
X13780Y-37402
X13780Y-45276
X13780Y-47244
X15748Y-19685
X15748Y-21654
X15748Y-39370
X15748Y-45276
X15748Y-47244
X16169Y-37354
X16213Y-15665
X16623Y-17733
X16708Y-34317
X16723Y-37730
X16807Y-37326
X16898Y-18518
X16900Y-15800
X16983Y-16686
X17141Y-34225
X17557Y-36217
X17615Y-34034
X17717Y-19685
X17717Y-43307
X17717Y-47244
X17717Y-49213
X18375Y-17642
X19101Y-34020
X19160Y-17453
X19685Y-23622
X19685Y-39370
X19685Y-41339
X19685Y-43307
X19685Y-49213
X19834Y-20759
X19962Y-16931
X20013Y-35329
X20593Y-34772
X20660Y-16727
X21654Y-39370
X21654Y-41339
X21654Y-43307
X21654Y-47244
X21654Y-49213
X21847Y-15889
X22103Y-29247
X23622Y-21654
X23622Y-23622
X23622Y-39370
X23622Y-41339
X23622Y-43307
X23622Y-47244
X23622Y-49213
X24849Y-33160
X25591Y-21654
X25591Y-23622
X25591Y-39370
X25591Y-41339
X25591Y-43307
X25591Y-47244
X25591Y-49213
X27559Y-21654
X27559Y-25591
X27559Y-39370
X27559Y-41339
X27559Y-43307
X27559Y-47244
X27559Y-49213
X29528Y-23622
X29528Y-25591
X29528Y-27559
X29528Y-47244
X29528Y-49213
X29528Y-49213
X29909Y-17360
X30554Y-34767
X30868Y-31774
X31323Y-36254
X31385Y-34208
X31408Y-17754
X31434Y-35766
X31496Y-23622
X31496Y-25591
X31496Y-27559
X31496Y-29528
X31496Y-47244
X31496Y-49213
X31660Y-19151
X31694Y-37780
X31716Y-18650
X31751Y-37342
X32069Y-36343
X32280Y-15606
X32354Y-14616
X32527Y-35283
X32533Y-16670
X32901Y-14031
X32962Y-18228
X33465Y-19685
X33465Y-25591
X33465Y-27559
X33465Y-29528
X33465Y-45276
X33465Y-47244
X33465Y-49213
X34135Y-13783
X34189Y-34516
X34729Y-15668
X35140Y-33565
X35189Y-34137
X35433Y-19685
X35433Y-23622
X35433Y-27559
X35433Y-29528
X35433Y-39370
X35433Y-41339
X35433Y-47244
X35433Y-49213
X37367Y-15894
X37402Y-19685
X37402Y-23622
X37402Y-25591
X37402Y-27559
X37402Y-29528
X37402Y-39370
X37402Y-41339
X37402Y-45276
X37402Y-49213
X37476Y-33897
X39370Y-19685
X39370Y-27559
X39370Y-29528
X39370Y-39370
X39370Y-41339
X39370Y-49213
X41339Y-19685
X41339Y-27559
X41339Y-29528
X41339Y-39370
X41339Y-49213
X41846Y-43063
X43307Y-14173
X43307Y-17717
X43307Y-19685
X43307Y-49213
X45276Y-14173
X45276Y-17717
X45276Y-19685
X45276Y-39370
X45276Y-49213
X45500Y-45100
X46547Y-35150
X46792Y-25955
X47094Y-17650
X47244Y-39370
X47244Y-43307
X47244Y-49213
X47297Y-36265
X47400Y-24500
X47589Y-37845
X47686Y-17642
X47835Y-16683
X47866Y-18045
X47924Y-37328
X47974Y-14528
X47975Y-36335
X48102Y-34037
X48161Y-35287
X48438Y-15593
X48644Y-16670
X49015Y-35353
X49093Y-14566
X49144Y-36200
X49213Y-41339
X49213Y-43307
X49213Y-49213
X49819Y-18989
X49933Y-14448
X50124Y-16071
X50669Y-25955
X50996Y-34078
X51100Y-32935
X51135Y-17857
X51181Y-49213
X52685Y-15506
X53150Y-23622
X53150Y-43307
X53150Y-49213
X54184Y-32323
X55118Y-21654
X55118Y-23622
X55118Y-41339
X55118Y-45276
X55118Y-49213
X55300Y-39500
X57087Y-19685
X57087Y-21654
X57087Y-23622
X57087Y-43307
X57087Y-45276
X57087Y-49213
X57300Y-39500
X57357Y-15555
X59000Y-39500
X59055Y-19685
X59055Y-21654
X59055Y-23622
X59055Y-41339
X59055Y-43307
X59055Y-45276
X59055Y-49213
X59172Y-32983
X59449Y-14173
X60700Y-39500
X61024Y-14173
X61024Y-45276
X61024Y-49213
X61914Y-18999
X61938Y-35518
X62111Y-16024
X62200Y-39500
X62452Y-17656
X62476Y-37420
X62868Y-36089
X62913Y-16497
X62925Y-17692
X62954Y-35582
X62984Y-37378
X62992Y-45276
X62992Y-49213
X63179Y-36361
X63471Y-33688
X63500Y-39500
X63605Y-14628
X63644Y-35556
X64101Y-16671
X64175Y-28877
X64341Y-18543
X64426Y-35525
X64961Y-19685
X64961Y-45276
X64961Y-49213
X64987Y-26913
X65271Y-34518
X65330Y-15936
X65978Y-17223
X66049Y-34853
X66384Y-16649
X66917Y-16752
X66929Y-19685
X66929Y-21654
X66929Y-45276
X66929Y-49213
X68898Y-19685
X68898Y-21654
X68898Y-45276
X68898Y-49213
X70866Y-19685
X70866Y-21654
X70866Y-49213
X72835Y-15748
X72835Y-19685
X72835Y-49213
X73200Y-39500
X74803Y-13780
X74803Y-17717
X74803Y-49213
X74900Y-39500
X76772Y-13780
X76772Y-15748
X76772Y-19685
X76772Y-49213
X77653Y-34261
X78740Y-13780
X78740Y-15748
X78740Y-17717
X78740Y-47244
X78905Y-30213
X80709Y-15748
X80709Y-17717
X80709Y-19685
X80709Y-45276
X80709Y-47244
T3
X61220Y-25000
X61220Y-26969
X63189Y-25984
T4
X52118Y-33827
X52118Y-37827
X53118Y-33827
X53118Y-37827
X54118Y-33827
X54118Y-37827
X55118Y-33827
X55118Y-37827
X56118Y-33827
X56118Y-37827
X57118Y-33827
X57118Y-37827
X58118Y-33827
X58118Y-37827
X21016Y-33827
X21016Y-37827
X22016Y-33827
X22016Y-37827
X23016Y-33827
X23016Y-37827
X24016Y-33827
X24016Y-37827
X25016Y-33827
X25016Y-37827
X26016Y-33827
X26016Y-37827
X27016Y-33827
X27016Y-37827
X67079Y-14142
X67079Y-18142
X68079Y-14142
X68079Y-18142
X69079Y-14142
X69079Y-18142
X70079Y-14142
X70079Y-18142
X71079Y-14142
X71079Y-18142
X72079Y-14142
X72079Y-18142
X73079Y-14142
X73079Y-18142
X52118Y-14142
X52118Y-18142
X53118Y-14142
X53118Y-18142
X54118Y-14142
X54118Y-18142
X55118Y-14142
X55118Y-18142
X56118Y-14142
X56118Y-18142
X57118Y-14142
X57118Y-18142
X58118Y-14142
X58118Y-18142
X21016Y-14142
X21016Y-18142
X22016Y-14142
X22016Y-18142
X23016Y-14142
X23016Y-18142
X24016Y-14142
X24016Y-18142
X25016Y-14142
X25016Y-18142
X26016Y-14142
X26016Y-18142
X27016Y-14142
X27016Y-18142
X67079Y-33827
X67079Y-37827
X68079Y-33827
X68079Y-37827
X69079Y-33827
X69079Y-37827
X70079Y-33827
X70079Y-37827
X71079Y-33827
X71079Y-37827
X72079Y-33827
X72079Y-37827
X73079Y-33827
X73079Y-37827
X35976Y-14142
X35976Y-18142
X36976Y-14142
X36976Y-18142
X37976Y-14142
X37976Y-18142
X38976Y-14142
X38976Y-18142
X39976Y-14142
X39976Y-18142
X40976Y-14142
X40976Y-18142
X41976Y-14142
X41976Y-18142
X14961Y-40945
X15748Y-40945
X35976Y-33827
X35976Y-37827
X36976Y-33827
X36976Y-37827
X37976Y-33827
X37976Y-37827
X38976Y-33827
X38976Y-37827
X39976Y-33827
X39976Y-37827
X40976Y-33827
X40976Y-37827
X41976Y-33827
X41976Y-37827
T5
X13450Y-39567
X13450Y-41535
T6
X22441Y-25984
X23441Y-25984
X22441Y-45669
X23441Y-45669
T7
X79512Y-23622
X79512Y-24622
X79512Y-25622
X79512Y-26622
X79512Y-27622
X79512Y-28622
X79512Y-29622
X79512Y-30622
X79512Y-31622
X79512Y-32622
X79512Y-33622
X79512Y-34622
X79512Y-35622
X79512Y-36622
X79512Y-37622
X80512Y-23622
X80512Y-24622
X80512Y-25622
X80512Y-26622
X80512Y-27622
X80512Y-28622
X80512Y-29622
X80512Y-30622
X80512Y-31622
X80512Y-32622
X80512Y-33622
X80512Y-34622
X80512Y-35622
X80512Y-36622
X80512Y-37622
T8
X16929Y-44882
X16929Y-46654
X19488Y-44882
X19488Y-46654
X30217Y-21260
X30217Y-23031
X32776Y-21260
X32776Y-23031
X49213Y-44882
X49213Y-46654
X51772Y-44882
X51772Y-46654
X49213Y-25197
X49213Y-26969
X51772Y-25197
X51772Y-26969
X16929Y-25197
X16929Y-26969
X19488Y-25197
X19488Y-26969
X61319Y-21260
X61319Y-23031
X63878Y-21260
X63878Y-23031
X61319Y-40945
X61319Y-42717
X63878Y-40945
X63878Y-42717
X30217Y-40945
X30217Y-42717
X32776Y-40945
X32776Y-42717
T9
X70276Y-42520
X70276Y-44488
X75984Y-42520
X75984Y-43504
X75984Y-44488
X38976Y-42520
X38976Y-44488
X44685Y-42520
X44685Y-43504
X44685Y-44488
X38976Y-22835
X38976Y-24803
X44685Y-22835
X44685Y-23819
X44685Y-24803
X70276Y-22835
X70276Y-24803
X75984Y-22835
X75984Y-23819
X75984Y-24803
T10
X73031Y-41673
X73031Y-45335
X41732Y-41673
X41732Y-45335
X41732Y-21988
X41732Y-25650
X73031Y-21988
X73031Y-25650
T2
G00X12249Y-39173
M15
G01X12525Y-39173
M16
G05
G00X12525Y-41929
M15
G01X12249Y-41929
M16
G05
T0
M30
