%TF.GenerationSoftware,KiCad,Pcbnew,(5.1.6)-1*%
%TF.CreationDate,2020-09-26T15:19:52-07:00*%
%TF.ProjectId,Cessna 172 nav and com radio,43657373-6e61-4203-9137-32206e617620,rev?*%
%TF.SameCoordinates,Original*%
%TF.FileFunction,Legend,Bot*%
%TF.FilePolarity,Positive*%
%FSLAX46Y46*%
G04 Gerber Fmt 4.6, Leading zero omitted, Abs format (unit mm)*
G04 Created by KiCad (PCBNEW (5.1.6)-1) date 2020-09-26 15:19:52*
%MOMM*%
%LPD*%
G01*
G04 APERTURE LIST*
%ADD10C,0.150000*%
%ADD11C,0.203200*%
%ADD12C,0.120000*%
G04 APERTURE END LIST*
D10*
X207240357Y-60555142D02*
X207287976Y-60602761D01*
X207430833Y-60650380D01*
X207526071Y-60650380D01*
X207668928Y-60602761D01*
X207764166Y-60507523D01*
X207811785Y-60412285D01*
X207859404Y-60221809D01*
X207859404Y-60078952D01*
X207811785Y-59888476D01*
X207764166Y-59793238D01*
X207668928Y-59698000D01*
X207526071Y-59650380D01*
X207430833Y-59650380D01*
X207287976Y-59698000D01*
X207240357Y-59745619D01*
X206859404Y-60602761D02*
X206716547Y-60650380D01*
X206478452Y-60650380D01*
X206383214Y-60602761D01*
X206335595Y-60555142D01*
X206287976Y-60459904D01*
X206287976Y-60364666D01*
X206335595Y-60269428D01*
X206383214Y-60221809D01*
X206478452Y-60174190D01*
X206668928Y-60126571D01*
X206764166Y-60078952D01*
X206811785Y-60031333D01*
X206859404Y-59936095D01*
X206859404Y-59840857D01*
X206811785Y-59745619D01*
X206764166Y-59698000D01*
X206668928Y-59650380D01*
X206430833Y-59650380D01*
X206287976Y-59698000D01*
X207811785Y-95305619D02*
X207764166Y-95258000D01*
X207668928Y-95210380D01*
X207430833Y-95210380D01*
X207335595Y-95258000D01*
X207287976Y-95305619D01*
X207240357Y-95400857D01*
X207240357Y-95496095D01*
X207287976Y-95638952D01*
X207859404Y-96210380D01*
X207240357Y-96210380D01*
X206764166Y-96210380D02*
X206573690Y-96210380D01*
X206478452Y-96162761D01*
X206430833Y-96115142D01*
X206335595Y-95972285D01*
X206287976Y-95781809D01*
X206287976Y-95400857D01*
X206335595Y-95305619D01*
X206383214Y-95258000D01*
X206478452Y-95210380D01*
X206668928Y-95210380D01*
X206764166Y-95258000D01*
X206811785Y-95305619D01*
X206859404Y-95400857D01*
X206859404Y-95638952D01*
X206811785Y-95734190D01*
X206764166Y-95781809D01*
X206668928Y-95829428D01*
X206478452Y-95829428D01*
X206383214Y-95781809D01*
X206335595Y-95734190D01*
X206287976Y-95638952D01*
X200259642Y-95210380D02*
X199640595Y-95210380D01*
X199973928Y-95591333D01*
X199831071Y-95591333D01*
X199735833Y-95638952D01*
X199688214Y-95686571D01*
X199640595Y-95781809D01*
X199640595Y-96019904D01*
X199688214Y-96115142D01*
X199735833Y-96162761D01*
X199831071Y-96210380D01*
X200116785Y-96210380D01*
X200212023Y-96162761D01*
X200259642Y-96115142D01*
X199021547Y-95210380D02*
X198926309Y-95210380D01*
X198831071Y-95258000D01*
X198783452Y-95305619D01*
X198735833Y-95400857D01*
X198688214Y-95591333D01*
X198688214Y-95829428D01*
X198735833Y-96019904D01*
X198783452Y-96115142D01*
X198831071Y-96162761D01*
X198926309Y-96210380D01*
X199021547Y-96210380D01*
X199116785Y-96162761D01*
X199164404Y-96115142D01*
X199212023Y-96019904D01*
X199259642Y-95829428D01*
X199259642Y-95591333D01*
X199212023Y-95400857D01*
X199164404Y-95305619D01*
X199116785Y-95258000D01*
X199021547Y-95210380D01*
X200164404Y-60015428D02*
X199402500Y-60015428D01*
X199783452Y-60396380D02*
X199783452Y-59634476D01*
X198450119Y-59396380D02*
X198926309Y-59396380D01*
X198973928Y-59872571D01*
X198926309Y-59824952D01*
X198831071Y-59777333D01*
X198592976Y-59777333D01*
X198497738Y-59824952D01*
X198450119Y-59872571D01*
X198402500Y-59967809D01*
X198402500Y-60205904D01*
X198450119Y-60301142D01*
X198497738Y-60348761D01*
X198592976Y-60396380D01*
X198831071Y-60396380D01*
X198926309Y-60348761D01*
X198973928Y-60301142D01*
X198116785Y-59396380D02*
X197783452Y-60396380D01*
X197450119Y-59396380D01*
X31642857Y-85285714D02*
X31595238Y-85333333D01*
X31547619Y-85476190D01*
X31547619Y-85571428D01*
X31595238Y-85714285D01*
X31690476Y-85809523D01*
X31785714Y-85857142D01*
X31976190Y-85904761D01*
X32119047Y-85904761D01*
X32309523Y-85857142D01*
X32404761Y-85809523D01*
X32500000Y-85714285D01*
X32547619Y-85571428D01*
X32547619Y-85476190D01*
X32500000Y-85333333D01*
X32452380Y-85285714D01*
X31595238Y-84476190D02*
X31547619Y-84571428D01*
X31547619Y-84761904D01*
X31595238Y-84857142D01*
X31690476Y-84904761D01*
X32071428Y-84904761D01*
X32166666Y-84857142D01*
X32214285Y-84761904D01*
X32214285Y-84571428D01*
X32166666Y-84476190D01*
X32071428Y-84428571D01*
X31976190Y-84428571D01*
X31880952Y-84904761D01*
X31595238Y-84047619D02*
X31547619Y-83952380D01*
X31547619Y-83761904D01*
X31595238Y-83666666D01*
X31690476Y-83619047D01*
X31738095Y-83619047D01*
X31833333Y-83666666D01*
X31880952Y-83761904D01*
X31880952Y-83904761D01*
X31928571Y-84000000D01*
X32023809Y-84047619D01*
X32071428Y-84047619D01*
X32166666Y-84000000D01*
X32214285Y-83904761D01*
X32214285Y-83761904D01*
X32166666Y-83666666D01*
X31595238Y-83238095D02*
X31547619Y-83142857D01*
X31547619Y-82952380D01*
X31595238Y-82857142D01*
X31690476Y-82809523D01*
X31738095Y-82809523D01*
X31833333Y-82857142D01*
X31880952Y-82952380D01*
X31880952Y-83095238D01*
X31928571Y-83190476D01*
X32023809Y-83238095D01*
X32071428Y-83238095D01*
X32166666Y-83190476D01*
X32214285Y-83095238D01*
X32214285Y-82952380D01*
X32166666Y-82857142D01*
X32214285Y-82380952D02*
X31547619Y-82380952D01*
X32119047Y-82380952D02*
X32166666Y-82333333D01*
X32214285Y-82238095D01*
X32214285Y-82095238D01*
X32166666Y-82000000D01*
X32071428Y-81952380D01*
X31547619Y-81952380D01*
X31547619Y-81047619D02*
X32071428Y-81047619D01*
X32166666Y-81095238D01*
X32214285Y-81190476D01*
X32214285Y-81380952D01*
X32166666Y-81476190D01*
X31595238Y-81047619D02*
X31547619Y-81142857D01*
X31547619Y-81380952D01*
X31595238Y-81476190D01*
X31690476Y-81523809D01*
X31785714Y-81523809D01*
X31880952Y-81476190D01*
X31928571Y-81380952D01*
X31928571Y-81142857D01*
X31976190Y-81047619D01*
X31547619Y-79285714D02*
X31547619Y-79857142D01*
X31547619Y-79571428D02*
X32547619Y-79571428D01*
X32404761Y-79666666D01*
X32309523Y-79761904D01*
X32261904Y-79857142D01*
X32547619Y-78952380D02*
X32547619Y-78285714D01*
X31547619Y-78714285D01*
X32452380Y-77952380D02*
X32500000Y-77904761D01*
X32547619Y-77809523D01*
X32547619Y-77571428D01*
X32500000Y-77476190D01*
X32452380Y-77428571D01*
X32357142Y-77380952D01*
X32261904Y-77380952D01*
X32119047Y-77428571D01*
X31547619Y-78000000D01*
X31547619Y-77380952D01*
X31547619Y-76190476D02*
X32214285Y-76190476D01*
X32023809Y-76190476D02*
X32119047Y-76142857D01*
X32166666Y-76095238D01*
X32214285Y-76000000D01*
X32214285Y-75904761D01*
X31547619Y-75142857D02*
X32071428Y-75142857D01*
X32166666Y-75190476D01*
X32214285Y-75285714D01*
X32214285Y-75476190D01*
X32166666Y-75571428D01*
X31595238Y-75142857D02*
X31547619Y-75238095D01*
X31547619Y-75476190D01*
X31595238Y-75571428D01*
X31690476Y-75619047D01*
X31785714Y-75619047D01*
X31880952Y-75571428D01*
X31928571Y-75476190D01*
X31928571Y-75238095D01*
X31976190Y-75142857D01*
X31547619Y-74238095D02*
X32547619Y-74238095D01*
X31595238Y-74238095D02*
X31547619Y-74333333D01*
X31547619Y-74523809D01*
X31595238Y-74619047D01*
X31642857Y-74666666D01*
X31738095Y-74714285D01*
X32023809Y-74714285D01*
X32119047Y-74666666D01*
X32166666Y-74619047D01*
X32214285Y-74523809D01*
X32214285Y-74333333D01*
X32166666Y-74238095D01*
X31547619Y-73761904D02*
X32214285Y-73761904D01*
X32547619Y-73761904D02*
X32500000Y-73809523D01*
X32452380Y-73761904D01*
X32500000Y-73714285D01*
X32547619Y-73761904D01*
X32452380Y-73761904D01*
X31547619Y-73142857D02*
X31595238Y-73238095D01*
X31642857Y-73285714D01*
X31738095Y-73333333D01*
X32023809Y-73333333D01*
X32119047Y-73285714D01*
X32166666Y-73238095D01*
X32214285Y-73142857D01*
X32214285Y-73000000D01*
X32166666Y-72904761D01*
X32119047Y-72857142D01*
X32023809Y-72809523D01*
X31738095Y-72809523D01*
X31642857Y-72857142D01*
X31595238Y-72904761D01*
X31547619Y-73000000D01*
X31547619Y-73142857D01*
X31595238Y-71666666D02*
X31547619Y-71571428D01*
X31547619Y-71380952D01*
X31595238Y-71285714D01*
X31690476Y-71238095D01*
X31738095Y-71238095D01*
X31833333Y-71285714D01*
X31880952Y-71380952D01*
X31880952Y-71523809D01*
X31928571Y-71619047D01*
X32023809Y-71666666D01*
X32071428Y-71666666D01*
X32166666Y-71619047D01*
X32214285Y-71523809D01*
X32214285Y-71380952D01*
X32166666Y-71285714D01*
X32214285Y-70952380D02*
X32214285Y-70571428D01*
X32547619Y-70809523D02*
X31690476Y-70809523D01*
X31595238Y-70761904D01*
X31547619Y-70666666D01*
X31547619Y-70571428D01*
X31547619Y-69809523D02*
X32071428Y-69809523D01*
X32166666Y-69857142D01*
X32214285Y-69952380D01*
X32214285Y-70142857D01*
X32166666Y-70238095D01*
X31595238Y-69809523D02*
X31547619Y-69904761D01*
X31547619Y-70142857D01*
X31595238Y-70238095D01*
X31690476Y-70285714D01*
X31785714Y-70285714D01*
X31880952Y-70238095D01*
X31928571Y-70142857D01*
X31928571Y-69904761D01*
X31976190Y-69809523D01*
X31595238Y-68904761D02*
X31547619Y-69000000D01*
X31547619Y-69190476D01*
X31595238Y-69285714D01*
X31642857Y-69333333D01*
X31738095Y-69380952D01*
X32023809Y-69380952D01*
X32119047Y-69333333D01*
X32166666Y-69285714D01*
X32214285Y-69190476D01*
X32214285Y-69000000D01*
X32166666Y-68904761D01*
X31547619Y-68476190D02*
X32547619Y-68476190D01*
X31928571Y-68380952D02*
X31547619Y-68095238D01*
X32214285Y-68095238D02*
X31833333Y-68476190D01*
%TO.C,U1*%
X39525000Y-38925000D02*
X40000000Y-38925000D01*
X39525000Y-43075000D02*
X40082500Y-43075000D01*
X48475000Y-43075000D02*
X47917500Y-43075000D01*
X48475000Y-38925000D02*
X47917500Y-38925000D01*
X39525000Y-38925000D02*
X39525000Y-43075000D01*
X48475000Y-38925000D02*
X48475000Y-43075000D01*
X40000000Y-38925000D02*
X40000000Y-37800000D01*
D11*
%TO.C,RV1*%
X155250000Y-69500000D02*
X163250000Y-69500000D01*
X155250000Y-62500000D02*
X155250000Y-69500000D01*
X163250000Y-62500000D02*
X155250000Y-62500000D01*
X163250000Y-69500000D02*
X163250000Y-62500000D01*
D10*
%TO.C,U3*%
X78000000Y-38925000D02*
X78000000Y-37800000D01*
X86475000Y-38925000D02*
X86475000Y-43075000D01*
X77525000Y-38925000D02*
X77525000Y-43075000D01*
X86475000Y-38925000D02*
X85917500Y-38925000D01*
X86475000Y-43075000D02*
X85917500Y-43075000D01*
X77525000Y-43075000D02*
X78082500Y-43075000D01*
X77525000Y-38925000D02*
X78000000Y-38925000D01*
%TO.C,U5*%
X119000000Y-38925000D02*
X119000000Y-37800000D01*
X127475000Y-38925000D02*
X127475000Y-43075000D01*
X118525000Y-38925000D02*
X118525000Y-43075000D01*
X127475000Y-38925000D02*
X126917500Y-38925000D01*
X127475000Y-43075000D02*
X126917500Y-43075000D01*
X118525000Y-43075000D02*
X119082500Y-43075000D01*
X118525000Y-38925000D02*
X119000000Y-38925000D01*
%TO.C,U7*%
X156525000Y-38925000D02*
X157000000Y-38925000D01*
X156525000Y-43075000D02*
X157082500Y-43075000D01*
X165475000Y-43075000D02*
X164917500Y-43075000D01*
X165475000Y-38925000D02*
X164917500Y-38925000D01*
X156525000Y-38925000D02*
X156525000Y-43075000D01*
X165475000Y-38925000D02*
X165475000Y-43075000D01*
X157000000Y-38925000D02*
X157000000Y-37800000D01*
D12*
%TO.C,J2*%
X35012500Y-104700000D02*
X34562500Y-104700000D01*
X35012500Y-104700000D02*
X35012500Y-104250000D01*
X34462500Y-99100000D02*
X34462500Y-99550000D01*
X32612500Y-99100000D02*
X34462500Y-99100000D01*
X30062500Y-106900000D02*
X30312500Y-106900000D01*
X30062500Y-99100000D02*
X30312500Y-99100000D01*
X32612500Y-106900000D02*
X34462500Y-106900000D01*
X34462500Y-106900000D02*
X34462500Y-106450000D01*
D10*
%TO.C,U9*%
X39525000Y-88925000D02*
X40000000Y-88925000D01*
X39525000Y-93075000D02*
X40082500Y-93075000D01*
X48475000Y-93075000D02*
X47917500Y-93075000D01*
X48475000Y-88925000D02*
X47917500Y-88925000D01*
X39525000Y-88925000D02*
X39525000Y-93075000D01*
X48475000Y-88925000D02*
X48475000Y-93075000D01*
X40000000Y-88925000D02*
X40000000Y-87800000D01*
%TO.C,U11*%
X119000000Y-88925000D02*
X119000000Y-87800000D01*
X127475000Y-88925000D02*
X127475000Y-93075000D01*
X118525000Y-88925000D02*
X118525000Y-93075000D01*
X127475000Y-88925000D02*
X126917500Y-88925000D01*
X127475000Y-93075000D02*
X126917500Y-93075000D01*
X118525000Y-93075000D02*
X119082500Y-93075000D01*
X118525000Y-88925000D02*
X119000000Y-88925000D01*
%TO.C,U13*%
X156525000Y-88925000D02*
X157000000Y-88925000D01*
X156525000Y-93075000D02*
X157082500Y-93075000D01*
X165475000Y-93075000D02*
X164917500Y-93075000D01*
X165475000Y-88925000D02*
X164917500Y-88925000D01*
X156525000Y-88925000D02*
X156525000Y-93075000D01*
X165475000Y-88925000D02*
X165475000Y-93075000D01*
X157000000Y-88925000D02*
X157000000Y-87800000D01*
%TO.C,U15*%
X78000000Y-88925000D02*
X78000000Y-87800000D01*
X86475000Y-88925000D02*
X86475000Y-93075000D01*
X77525000Y-88925000D02*
X77525000Y-93075000D01*
X86475000Y-88925000D02*
X85917500Y-88925000D01*
X86475000Y-93075000D02*
X85917500Y-93075000D01*
X77525000Y-93075000D02*
X78082500Y-93075000D01*
X77525000Y-88925000D02*
X78000000Y-88925000D01*
D12*
%TO.C,J5*%
X205830000Y-96890000D02*
X200630000Y-96890000D01*
X205830000Y-61270000D02*
X205830000Y-96890000D01*
X200630000Y-58670000D02*
X200630000Y-96890000D01*
X205830000Y-61270000D02*
X203230000Y-61270000D01*
X203230000Y-61270000D02*
X203230000Y-58670000D01*
X203230000Y-58670000D02*
X200630000Y-58670000D01*
X205830000Y-60000000D02*
X205830000Y-58670000D01*
X205830000Y-58670000D02*
X204500000Y-58670000D01*
%TO.C,C1*%
X39600000Y-105435000D02*
X35690000Y-105435000D01*
X35690000Y-105435000D02*
X35690000Y-103565000D01*
X35690000Y-103565000D02*
X39600000Y-103565000D01*
%TO.C,C2*%
X43490000Y-46337221D02*
X43490000Y-46662779D01*
X44510000Y-46337221D02*
X44510000Y-46662779D01*
%TO.C,C3*%
X82510000Y-46337221D02*
X82510000Y-46662779D01*
X81490000Y-46337221D02*
X81490000Y-46662779D01*
%TO.C,C4*%
X123510000Y-46337221D02*
X123510000Y-46662779D01*
X122490000Y-46337221D02*
X122490000Y-46662779D01*
%TO.C,C5*%
X160490000Y-46337221D02*
X160490000Y-46662779D01*
X161510000Y-46337221D02*
X161510000Y-46662779D01*
%TO.C,C6*%
X114510000Y-67162779D02*
X114510000Y-66837221D01*
X113490000Y-67162779D02*
X113490000Y-66837221D01*
%TO.C,C7*%
X113490000Y-54162779D02*
X113490000Y-53837221D01*
X114510000Y-54162779D02*
X114510000Y-53837221D01*
%TO.C,C8*%
X193010000Y-67162779D02*
X193010000Y-66837221D01*
X191990000Y-67162779D02*
X191990000Y-66837221D01*
%TO.C,C9*%
X191990000Y-54162779D02*
X191990000Y-53837221D01*
X193010000Y-54162779D02*
X193010000Y-53837221D01*
%TO.C,C12*%
X43490000Y-96337221D02*
X43490000Y-96662779D01*
X44510000Y-96337221D02*
X44510000Y-96662779D01*
%TO.C,C13*%
X82510000Y-96337221D02*
X82510000Y-96662779D01*
X81490000Y-96337221D02*
X81490000Y-96662779D01*
%TO.C,C14*%
X123700000Y-96337221D02*
X123700000Y-96662779D01*
X122680000Y-96337221D02*
X122680000Y-96662779D01*
%TO.C,C15*%
X161510000Y-96337221D02*
X161510000Y-96662779D01*
X160490000Y-96337221D02*
X160490000Y-96662779D01*
%TO.C,C16*%
X113490000Y-117162779D02*
X113490000Y-116837221D01*
X114510000Y-117162779D02*
X114510000Y-116837221D01*
%TO.C,C17*%
X114510000Y-104162779D02*
X114510000Y-103837221D01*
X113490000Y-104162779D02*
X113490000Y-103837221D01*
%TO.C,C18*%
X193010000Y-117162779D02*
X193010000Y-116837221D01*
X191990000Y-117162779D02*
X191990000Y-116837221D01*
%TO.C,C19*%
X193010000Y-104162779D02*
X193010000Y-103837221D01*
X191990000Y-104162779D02*
X191990000Y-103837221D01*
%TO.C,D1*%
X38765000Y-109300000D02*
X38765000Y-107015000D01*
X38765000Y-107015000D02*
X40235000Y-107015000D01*
X40235000Y-107015000D02*
X40235000Y-109300000D01*
%TO.C,R1*%
X164490000Y-65837221D02*
X164490000Y-66162779D01*
X165510000Y-65837221D02*
X165510000Y-66162779D01*
%TO.C,R2*%
X37010000Y-108337221D02*
X37010000Y-108662779D01*
X35990000Y-108337221D02*
X35990000Y-108662779D01*
%TO.C,R4*%
X63510000Y-66162779D02*
X63510000Y-65837221D01*
X62490000Y-66162779D02*
X62490000Y-65837221D01*
%TO.C,R5*%
X110490000Y-67162779D02*
X110490000Y-66837221D01*
X111510000Y-67162779D02*
X111510000Y-66837221D01*
%TO.C,R6*%
X110490000Y-54162779D02*
X110490000Y-53837221D01*
X111510000Y-54162779D02*
X111510000Y-53837221D01*
%TO.C,R7*%
X116490000Y-67162779D02*
X116490000Y-66837221D01*
X117510000Y-67162779D02*
X117510000Y-66837221D01*
%TO.C,R8*%
X117510000Y-54162779D02*
X117510000Y-53837221D01*
X116490000Y-54162779D02*
X116490000Y-53837221D01*
%TO.C,R9*%
X190010000Y-66837221D02*
X190010000Y-67162779D01*
X188990000Y-66837221D02*
X188990000Y-67162779D01*
%TO.C,R10*%
X190010000Y-54162779D02*
X190010000Y-53837221D01*
X188990000Y-54162779D02*
X188990000Y-53837221D01*
%TO.C,R11*%
X196010000Y-67162779D02*
X196010000Y-66837221D01*
X194990000Y-67162779D02*
X194990000Y-66837221D01*
%TO.C,R12*%
X194990000Y-54162779D02*
X194990000Y-53837221D01*
X196010000Y-54162779D02*
X196010000Y-53837221D01*
%TO.C,R19*%
X63510000Y-116162779D02*
X63510000Y-115837221D01*
X62490000Y-116162779D02*
X62490000Y-115837221D01*
%TO.C,R21*%
X110490000Y-117162779D02*
X110490000Y-116837221D01*
X111510000Y-117162779D02*
X111510000Y-116837221D01*
%TO.C,R22*%
X111510000Y-104162779D02*
X111510000Y-103837221D01*
X110490000Y-104162779D02*
X110490000Y-103837221D01*
%TO.C,R23*%
X117510000Y-117162779D02*
X117510000Y-116837221D01*
X116490000Y-117162779D02*
X116490000Y-116837221D01*
%TO.C,R24*%
X116490000Y-104162779D02*
X116490000Y-103837221D01*
X117510000Y-104162779D02*
X117510000Y-103837221D01*
%TO.C,R25*%
X190010000Y-117162779D02*
X190010000Y-116837221D01*
X188990000Y-117162779D02*
X188990000Y-116837221D01*
%TO.C,R26*%
X188990000Y-104162779D02*
X188990000Y-103837221D01*
X190010000Y-104162779D02*
X190010000Y-103837221D01*
%TO.C,R27*%
X194990000Y-117162779D02*
X194990000Y-116837221D01*
X196010000Y-117162779D02*
X196010000Y-116837221D01*
%TO.C,R28*%
X196010000Y-104162779D02*
X196010000Y-103837221D01*
X194990000Y-104162779D02*
X194990000Y-103837221D01*
%TO.C,U1*%
D10*
X38118380Y-40238095D02*
X38927904Y-40238095D01*
X39023142Y-40285714D01*
X39070761Y-40333333D01*
X39118380Y-40428571D01*
X39118380Y-40619047D01*
X39070761Y-40714285D01*
X39023142Y-40761904D01*
X38927904Y-40809523D01*
X38118380Y-40809523D01*
X39118380Y-41809523D02*
X39118380Y-41238095D01*
X39118380Y-41523809D02*
X38118380Y-41523809D01*
X38261238Y-41428571D01*
X38356476Y-41333333D01*
X38404095Y-41238095D01*
%TO.C,RV1*%
X154702380Y-65404761D02*
X154226190Y-65071428D01*
X154702380Y-64833333D02*
X153702380Y-64833333D01*
X153702380Y-65214285D01*
X153750000Y-65309523D01*
X153797619Y-65357142D01*
X153892857Y-65404761D01*
X154035714Y-65404761D01*
X154130952Y-65357142D01*
X154178571Y-65309523D01*
X154226190Y-65214285D01*
X154226190Y-64833333D01*
X153702380Y-65690476D02*
X154702380Y-66023809D01*
X153702380Y-66357142D01*
X154702380Y-67214285D02*
X154702380Y-66642857D01*
X154702380Y-66928571D02*
X153702380Y-66928571D01*
X153845238Y-66833333D01*
X153940476Y-66738095D01*
X153988095Y-66642857D01*
%TO.C,U3*%
X76052380Y-40238095D02*
X76861904Y-40238095D01*
X76957142Y-40285714D01*
X77004761Y-40333333D01*
X77052380Y-40428571D01*
X77052380Y-40619047D01*
X77004761Y-40714285D01*
X76957142Y-40761904D01*
X76861904Y-40809523D01*
X76052380Y-40809523D01*
X76052380Y-41190476D02*
X76052380Y-41809523D01*
X76433333Y-41476190D01*
X76433333Y-41619047D01*
X76480952Y-41714285D01*
X76528571Y-41761904D01*
X76623809Y-41809523D01*
X76861904Y-41809523D01*
X76957142Y-41761904D01*
X77004761Y-41714285D01*
X77052380Y-41619047D01*
X77052380Y-41333333D01*
X77004761Y-41238095D01*
X76957142Y-41190476D01*
%TO.C,U5*%
X117052380Y-40238095D02*
X117861904Y-40238095D01*
X117957142Y-40285714D01*
X118004761Y-40333333D01*
X118052380Y-40428571D01*
X118052380Y-40619047D01*
X118004761Y-40714285D01*
X117957142Y-40761904D01*
X117861904Y-40809523D01*
X117052380Y-40809523D01*
X117052380Y-41761904D02*
X117052380Y-41285714D01*
X117528571Y-41238095D01*
X117480952Y-41285714D01*
X117433333Y-41380952D01*
X117433333Y-41619047D01*
X117480952Y-41714285D01*
X117528571Y-41761904D01*
X117623809Y-41809523D01*
X117861904Y-41809523D01*
X117957142Y-41761904D01*
X118004761Y-41714285D01*
X118052380Y-41619047D01*
X118052380Y-41380952D01*
X118004761Y-41285714D01*
X117957142Y-41238095D01*
%TO.C,U7*%
X155052380Y-40238095D02*
X155861904Y-40238095D01*
X155957142Y-40285714D01*
X156004761Y-40333333D01*
X156052380Y-40428571D01*
X156052380Y-40619047D01*
X156004761Y-40714285D01*
X155957142Y-40761904D01*
X155861904Y-40809523D01*
X155052380Y-40809523D01*
X155052380Y-41190476D02*
X155052380Y-41857142D01*
X156052380Y-41428571D01*
%TO.C,J2*%
X35264880Y-102666666D02*
X35979166Y-102666666D01*
X36122023Y-102619047D01*
X36217261Y-102523809D01*
X36264880Y-102380952D01*
X36264880Y-102285714D01*
X35360119Y-103095238D02*
X35312500Y-103142857D01*
X35264880Y-103238095D01*
X35264880Y-103476190D01*
X35312500Y-103571428D01*
X35360119Y-103619047D01*
X35455357Y-103666666D01*
X35550595Y-103666666D01*
X35693452Y-103619047D01*
X36264880Y-103047619D01*
X36264880Y-103666666D01*
%TO.C,U9*%
X38052380Y-90238095D02*
X38861904Y-90238095D01*
X38957142Y-90285714D01*
X39004761Y-90333333D01*
X39052380Y-90428571D01*
X39052380Y-90619047D01*
X39004761Y-90714285D01*
X38957142Y-90761904D01*
X38861904Y-90809523D01*
X38052380Y-90809523D01*
X39052380Y-91333333D02*
X39052380Y-91523809D01*
X39004761Y-91619047D01*
X38957142Y-91666666D01*
X38814285Y-91761904D01*
X38623809Y-91809523D01*
X38242857Y-91809523D01*
X38147619Y-91761904D01*
X38100000Y-91714285D01*
X38052380Y-91619047D01*
X38052380Y-91428571D01*
X38100000Y-91333333D01*
X38147619Y-91285714D01*
X38242857Y-91238095D01*
X38480952Y-91238095D01*
X38576190Y-91285714D01*
X38623809Y-91333333D01*
X38671428Y-91428571D01*
X38671428Y-91619047D01*
X38623809Y-91714285D01*
X38576190Y-91761904D01*
X38480952Y-91809523D01*
%TO.C,U11*%
X117052380Y-89761904D02*
X117861904Y-89761904D01*
X117957142Y-89809523D01*
X118004761Y-89857142D01*
X118052380Y-89952380D01*
X118052380Y-90142857D01*
X118004761Y-90238095D01*
X117957142Y-90285714D01*
X117861904Y-90333333D01*
X117052380Y-90333333D01*
X118052380Y-91333333D02*
X118052380Y-90761904D01*
X118052380Y-91047619D02*
X117052380Y-91047619D01*
X117195238Y-90952380D01*
X117290476Y-90857142D01*
X117338095Y-90761904D01*
X118052380Y-92285714D02*
X118052380Y-91714285D01*
X118052380Y-92000000D02*
X117052380Y-92000000D01*
X117195238Y-91904761D01*
X117290476Y-91809523D01*
X117338095Y-91714285D01*
%TO.C,U13*%
X155052380Y-89761904D02*
X155861904Y-89761904D01*
X155957142Y-89809523D01*
X156004761Y-89857142D01*
X156052380Y-89952380D01*
X156052380Y-90142857D01*
X156004761Y-90238095D01*
X155957142Y-90285714D01*
X155861904Y-90333333D01*
X155052380Y-90333333D01*
X156052380Y-91333333D02*
X156052380Y-90761904D01*
X156052380Y-91047619D02*
X155052380Y-91047619D01*
X155195238Y-90952380D01*
X155290476Y-90857142D01*
X155338095Y-90761904D01*
X155052380Y-91666666D02*
X155052380Y-92285714D01*
X155433333Y-91952380D01*
X155433333Y-92095238D01*
X155480952Y-92190476D01*
X155528571Y-92238095D01*
X155623809Y-92285714D01*
X155861904Y-92285714D01*
X155957142Y-92238095D01*
X156004761Y-92190476D01*
X156052380Y-92095238D01*
X156052380Y-91809523D01*
X156004761Y-91714285D01*
X155957142Y-91666666D01*
%TO.C,U15*%
X76052380Y-89761904D02*
X76861904Y-89761904D01*
X76957142Y-89809523D01*
X77004761Y-89857142D01*
X77052380Y-89952380D01*
X77052380Y-90142857D01*
X77004761Y-90238095D01*
X76957142Y-90285714D01*
X76861904Y-90333333D01*
X76052380Y-90333333D01*
X77052380Y-91333333D02*
X77052380Y-90761904D01*
X77052380Y-91047619D02*
X76052380Y-91047619D01*
X76195238Y-90952380D01*
X76290476Y-90857142D01*
X76338095Y-90761904D01*
X76052380Y-92238095D02*
X76052380Y-91761904D01*
X76528571Y-91714285D01*
X76480952Y-91761904D01*
X76433333Y-91857142D01*
X76433333Y-92095238D01*
X76480952Y-92190476D01*
X76528571Y-92238095D01*
X76623809Y-92285714D01*
X76861904Y-92285714D01*
X76957142Y-92238095D01*
X77004761Y-92190476D01*
X77052380Y-92095238D01*
X77052380Y-91857142D01*
X77004761Y-91761904D01*
X76957142Y-91714285D01*
%TO.C,J5*%
X203563333Y-57122380D02*
X203563333Y-57836666D01*
X203610952Y-57979523D01*
X203706190Y-58074761D01*
X203849047Y-58122380D01*
X203944285Y-58122380D01*
X202610952Y-57122380D02*
X203087142Y-57122380D01*
X203134761Y-57598571D01*
X203087142Y-57550952D01*
X202991904Y-57503333D01*
X202753809Y-57503333D01*
X202658571Y-57550952D01*
X202610952Y-57598571D01*
X202563333Y-57693809D01*
X202563333Y-57931904D01*
X202610952Y-58027142D01*
X202658571Y-58074761D01*
X202753809Y-58122380D01*
X202991904Y-58122380D01*
X203087142Y-58074761D01*
X203134761Y-58027142D01*
%TO.C,C1*%
X38166666Y-106607142D02*
X38214285Y-106654761D01*
X38357142Y-106702380D01*
X38452380Y-106702380D01*
X38595238Y-106654761D01*
X38690476Y-106559523D01*
X38738095Y-106464285D01*
X38785714Y-106273809D01*
X38785714Y-106130952D01*
X38738095Y-105940476D01*
X38690476Y-105845238D01*
X38595238Y-105750000D01*
X38452380Y-105702380D01*
X38357142Y-105702380D01*
X38214285Y-105750000D01*
X38166666Y-105797619D01*
X37214285Y-106702380D02*
X37785714Y-106702380D01*
X37500000Y-106702380D02*
X37500000Y-105702380D01*
X37595238Y-105845238D01*
X37690476Y-105940476D01*
X37785714Y-105988095D01*
%TO.C,C2*%
X42927142Y-46333333D02*
X42974761Y-46285714D01*
X43022380Y-46142857D01*
X43022380Y-46047619D01*
X42974761Y-45904761D01*
X42879523Y-45809523D01*
X42784285Y-45761904D01*
X42593809Y-45714285D01*
X42450952Y-45714285D01*
X42260476Y-45761904D01*
X42165238Y-45809523D01*
X42070000Y-45904761D01*
X42022380Y-46047619D01*
X42022380Y-46142857D01*
X42070000Y-46285714D01*
X42117619Y-46333333D01*
X42117619Y-46714285D02*
X42070000Y-46761904D01*
X42022380Y-46857142D01*
X42022380Y-47095238D01*
X42070000Y-47190476D01*
X42117619Y-47238095D01*
X42212857Y-47285714D01*
X42308095Y-47285714D01*
X42450952Y-47238095D01*
X43022380Y-46666666D01*
X43022380Y-47285714D01*
%TO.C,C3*%
X80927142Y-46333333D02*
X80974761Y-46285714D01*
X81022380Y-46142857D01*
X81022380Y-46047619D01*
X80974761Y-45904761D01*
X80879523Y-45809523D01*
X80784285Y-45761904D01*
X80593809Y-45714285D01*
X80450952Y-45714285D01*
X80260476Y-45761904D01*
X80165238Y-45809523D01*
X80070000Y-45904761D01*
X80022380Y-46047619D01*
X80022380Y-46142857D01*
X80070000Y-46285714D01*
X80117619Y-46333333D01*
X80022380Y-46666666D02*
X80022380Y-47285714D01*
X80403333Y-46952380D01*
X80403333Y-47095238D01*
X80450952Y-47190476D01*
X80498571Y-47238095D01*
X80593809Y-47285714D01*
X80831904Y-47285714D01*
X80927142Y-47238095D01*
X80974761Y-47190476D01*
X81022380Y-47095238D01*
X81022380Y-46809523D01*
X80974761Y-46714285D01*
X80927142Y-46666666D01*
%TO.C,C4*%
X121927142Y-46333333D02*
X121974761Y-46285714D01*
X122022380Y-46142857D01*
X122022380Y-46047619D01*
X121974761Y-45904761D01*
X121879523Y-45809523D01*
X121784285Y-45761904D01*
X121593809Y-45714285D01*
X121450952Y-45714285D01*
X121260476Y-45761904D01*
X121165238Y-45809523D01*
X121070000Y-45904761D01*
X121022380Y-46047619D01*
X121022380Y-46142857D01*
X121070000Y-46285714D01*
X121117619Y-46333333D01*
X121355714Y-47190476D02*
X122022380Y-47190476D01*
X120974761Y-46952380D02*
X121689047Y-46714285D01*
X121689047Y-47333333D01*
%TO.C,C5*%
X159927142Y-46333333D02*
X159974761Y-46285714D01*
X160022380Y-46142857D01*
X160022380Y-46047619D01*
X159974761Y-45904761D01*
X159879523Y-45809523D01*
X159784285Y-45761904D01*
X159593809Y-45714285D01*
X159450952Y-45714285D01*
X159260476Y-45761904D01*
X159165238Y-45809523D01*
X159070000Y-45904761D01*
X159022380Y-46047619D01*
X159022380Y-46142857D01*
X159070000Y-46285714D01*
X159117619Y-46333333D01*
X159022380Y-47238095D02*
X159022380Y-46761904D01*
X159498571Y-46714285D01*
X159450952Y-46761904D01*
X159403333Y-46857142D01*
X159403333Y-47095238D01*
X159450952Y-47190476D01*
X159498571Y-47238095D01*
X159593809Y-47285714D01*
X159831904Y-47285714D01*
X159927142Y-47238095D01*
X159974761Y-47190476D01*
X160022380Y-47095238D01*
X160022380Y-46857142D01*
X159974761Y-46761904D01*
X159927142Y-46714285D01*
%TO.C,C6*%
X115787142Y-66833333D02*
X115834761Y-66785714D01*
X115882380Y-66642857D01*
X115882380Y-66547619D01*
X115834761Y-66404761D01*
X115739523Y-66309523D01*
X115644285Y-66261904D01*
X115453809Y-66214285D01*
X115310952Y-66214285D01*
X115120476Y-66261904D01*
X115025238Y-66309523D01*
X114930000Y-66404761D01*
X114882380Y-66547619D01*
X114882380Y-66642857D01*
X114930000Y-66785714D01*
X114977619Y-66833333D01*
X114882380Y-67690476D02*
X114882380Y-67500000D01*
X114930000Y-67404761D01*
X114977619Y-67357142D01*
X115120476Y-67261904D01*
X115310952Y-67214285D01*
X115691904Y-67214285D01*
X115787142Y-67261904D01*
X115834761Y-67309523D01*
X115882380Y-67404761D01*
X115882380Y-67595238D01*
X115834761Y-67690476D01*
X115787142Y-67738095D01*
X115691904Y-67785714D01*
X115453809Y-67785714D01*
X115358571Y-67738095D01*
X115310952Y-67690476D01*
X115263333Y-67595238D01*
X115263333Y-67404761D01*
X115310952Y-67309523D01*
X115358571Y-67261904D01*
X115453809Y-67214285D01*
%TO.C,C7*%
X115787142Y-53833333D02*
X115834761Y-53785714D01*
X115882380Y-53642857D01*
X115882380Y-53547619D01*
X115834761Y-53404761D01*
X115739523Y-53309523D01*
X115644285Y-53261904D01*
X115453809Y-53214285D01*
X115310952Y-53214285D01*
X115120476Y-53261904D01*
X115025238Y-53309523D01*
X114930000Y-53404761D01*
X114882380Y-53547619D01*
X114882380Y-53642857D01*
X114930000Y-53785714D01*
X114977619Y-53833333D01*
X114882380Y-54166666D02*
X114882380Y-54833333D01*
X115882380Y-54404761D01*
%TO.C,C8*%
X194287142Y-66833333D02*
X194334761Y-66785714D01*
X194382380Y-66642857D01*
X194382380Y-66547619D01*
X194334761Y-66404761D01*
X194239523Y-66309523D01*
X194144285Y-66261904D01*
X193953809Y-66214285D01*
X193810952Y-66214285D01*
X193620476Y-66261904D01*
X193525238Y-66309523D01*
X193430000Y-66404761D01*
X193382380Y-66547619D01*
X193382380Y-66642857D01*
X193430000Y-66785714D01*
X193477619Y-66833333D01*
X193810952Y-67404761D02*
X193763333Y-67309523D01*
X193715714Y-67261904D01*
X193620476Y-67214285D01*
X193572857Y-67214285D01*
X193477619Y-67261904D01*
X193430000Y-67309523D01*
X193382380Y-67404761D01*
X193382380Y-67595238D01*
X193430000Y-67690476D01*
X193477619Y-67738095D01*
X193572857Y-67785714D01*
X193620476Y-67785714D01*
X193715714Y-67738095D01*
X193763333Y-67690476D01*
X193810952Y-67595238D01*
X193810952Y-67404761D01*
X193858571Y-67309523D01*
X193906190Y-67261904D01*
X194001428Y-67214285D01*
X194191904Y-67214285D01*
X194287142Y-67261904D01*
X194334761Y-67309523D01*
X194382380Y-67404761D01*
X194382380Y-67595238D01*
X194334761Y-67690476D01*
X194287142Y-67738095D01*
X194191904Y-67785714D01*
X194001428Y-67785714D01*
X193906190Y-67738095D01*
X193858571Y-67690476D01*
X193810952Y-67595238D01*
%TO.C,C9*%
X194287142Y-53833333D02*
X194334761Y-53785714D01*
X194382380Y-53642857D01*
X194382380Y-53547619D01*
X194334761Y-53404761D01*
X194239523Y-53309523D01*
X194144285Y-53261904D01*
X193953809Y-53214285D01*
X193810952Y-53214285D01*
X193620476Y-53261904D01*
X193525238Y-53309523D01*
X193430000Y-53404761D01*
X193382380Y-53547619D01*
X193382380Y-53642857D01*
X193430000Y-53785714D01*
X193477619Y-53833333D01*
X194382380Y-54309523D02*
X194382380Y-54500000D01*
X194334761Y-54595238D01*
X194287142Y-54642857D01*
X194144285Y-54738095D01*
X193953809Y-54785714D01*
X193572857Y-54785714D01*
X193477619Y-54738095D01*
X193430000Y-54690476D01*
X193382380Y-54595238D01*
X193382380Y-54404761D01*
X193430000Y-54309523D01*
X193477619Y-54261904D01*
X193572857Y-54214285D01*
X193810952Y-54214285D01*
X193906190Y-54261904D01*
X193953809Y-54309523D01*
X194001428Y-54404761D01*
X194001428Y-54595238D01*
X193953809Y-54690476D01*
X193906190Y-54738095D01*
X193810952Y-54785714D01*
%TO.C,C12*%
X42927142Y-95857142D02*
X42974761Y-95809523D01*
X43022380Y-95666666D01*
X43022380Y-95571428D01*
X42974761Y-95428571D01*
X42879523Y-95333333D01*
X42784285Y-95285714D01*
X42593809Y-95238095D01*
X42450952Y-95238095D01*
X42260476Y-95285714D01*
X42165238Y-95333333D01*
X42070000Y-95428571D01*
X42022380Y-95571428D01*
X42022380Y-95666666D01*
X42070000Y-95809523D01*
X42117619Y-95857142D01*
X43022380Y-96809523D02*
X43022380Y-96238095D01*
X43022380Y-96523809D02*
X42022380Y-96523809D01*
X42165238Y-96428571D01*
X42260476Y-96333333D01*
X42308095Y-96238095D01*
X42117619Y-97190476D02*
X42070000Y-97238095D01*
X42022380Y-97333333D01*
X42022380Y-97571428D01*
X42070000Y-97666666D01*
X42117619Y-97714285D01*
X42212857Y-97761904D01*
X42308095Y-97761904D01*
X42450952Y-97714285D01*
X43022380Y-97142857D01*
X43022380Y-97761904D01*
%TO.C,C13*%
X80927142Y-95857142D02*
X80974761Y-95809523D01*
X81022380Y-95666666D01*
X81022380Y-95571428D01*
X80974761Y-95428571D01*
X80879523Y-95333333D01*
X80784285Y-95285714D01*
X80593809Y-95238095D01*
X80450952Y-95238095D01*
X80260476Y-95285714D01*
X80165238Y-95333333D01*
X80070000Y-95428571D01*
X80022380Y-95571428D01*
X80022380Y-95666666D01*
X80070000Y-95809523D01*
X80117619Y-95857142D01*
X81022380Y-96809523D02*
X81022380Y-96238095D01*
X81022380Y-96523809D02*
X80022380Y-96523809D01*
X80165238Y-96428571D01*
X80260476Y-96333333D01*
X80308095Y-96238095D01*
X80022380Y-97142857D02*
X80022380Y-97761904D01*
X80403333Y-97428571D01*
X80403333Y-97571428D01*
X80450952Y-97666666D01*
X80498571Y-97714285D01*
X80593809Y-97761904D01*
X80831904Y-97761904D01*
X80927142Y-97714285D01*
X80974761Y-97666666D01*
X81022380Y-97571428D01*
X81022380Y-97285714D01*
X80974761Y-97190476D01*
X80927142Y-97142857D01*
%TO.C,C14*%
X122117142Y-95857142D02*
X122164761Y-95809523D01*
X122212380Y-95666666D01*
X122212380Y-95571428D01*
X122164761Y-95428571D01*
X122069523Y-95333333D01*
X121974285Y-95285714D01*
X121783809Y-95238095D01*
X121640952Y-95238095D01*
X121450476Y-95285714D01*
X121355238Y-95333333D01*
X121260000Y-95428571D01*
X121212380Y-95571428D01*
X121212380Y-95666666D01*
X121260000Y-95809523D01*
X121307619Y-95857142D01*
X122212380Y-96809523D02*
X122212380Y-96238095D01*
X122212380Y-96523809D02*
X121212380Y-96523809D01*
X121355238Y-96428571D01*
X121450476Y-96333333D01*
X121498095Y-96238095D01*
X121545714Y-97666666D02*
X122212380Y-97666666D01*
X121164761Y-97428571D02*
X121879047Y-97190476D01*
X121879047Y-97809523D01*
%TO.C,C15*%
X159927142Y-95857142D02*
X159974761Y-95809523D01*
X160022380Y-95666666D01*
X160022380Y-95571428D01*
X159974761Y-95428571D01*
X159879523Y-95333333D01*
X159784285Y-95285714D01*
X159593809Y-95238095D01*
X159450952Y-95238095D01*
X159260476Y-95285714D01*
X159165238Y-95333333D01*
X159070000Y-95428571D01*
X159022380Y-95571428D01*
X159022380Y-95666666D01*
X159070000Y-95809523D01*
X159117619Y-95857142D01*
X160022380Y-96809523D02*
X160022380Y-96238095D01*
X160022380Y-96523809D02*
X159022380Y-96523809D01*
X159165238Y-96428571D01*
X159260476Y-96333333D01*
X159308095Y-96238095D01*
X159022380Y-97714285D02*
X159022380Y-97238095D01*
X159498571Y-97190476D01*
X159450952Y-97238095D01*
X159403333Y-97333333D01*
X159403333Y-97571428D01*
X159450952Y-97666666D01*
X159498571Y-97714285D01*
X159593809Y-97761904D01*
X159831904Y-97761904D01*
X159927142Y-97714285D01*
X159974761Y-97666666D01*
X160022380Y-97571428D01*
X160022380Y-97333333D01*
X159974761Y-97238095D01*
X159927142Y-97190476D01*
%TO.C,C16*%
X115787142Y-116357142D02*
X115834761Y-116309523D01*
X115882380Y-116166666D01*
X115882380Y-116071428D01*
X115834761Y-115928571D01*
X115739523Y-115833333D01*
X115644285Y-115785714D01*
X115453809Y-115738095D01*
X115310952Y-115738095D01*
X115120476Y-115785714D01*
X115025238Y-115833333D01*
X114930000Y-115928571D01*
X114882380Y-116071428D01*
X114882380Y-116166666D01*
X114930000Y-116309523D01*
X114977619Y-116357142D01*
X115882380Y-117309523D02*
X115882380Y-116738095D01*
X115882380Y-117023809D02*
X114882380Y-117023809D01*
X115025238Y-116928571D01*
X115120476Y-116833333D01*
X115168095Y-116738095D01*
X114882380Y-118166666D02*
X114882380Y-117976190D01*
X114930000Y-117880952D01*
X114977619Y-117833333D01*
X115120476Y-117738095D01*
X115310952Y-117690476D01*
X115691904Y-117690476D01*
X115787142Y-117738095D01*
X115834761Y-117785714D01*
X115882380Y-117880952D01*
X115882380Y-118071428D01*
X115834761Y-118166666D01*
X115787142Y-118214285D01*
X115691904Y-118261904D01*
X115453809Y-118261904D01*
X115358571Y-118214285D01*
X115310952Y-118166666D01*
X115263333Y-118071428D01*
X115263333Y-117880952D01*
X115310952Y-117785714D01*
X115358571Y-117738095D01*
X115453809Y-117690476D01*
%TO.C,C17*%
X115787142Y-103357142D02*
X115834761Y-103309523D01*
X115882380Y-103166666D01*
X115882380Y-103071428D01*
X115834761Y-102928571D01*
X115739523Y-102833333D01*
X115644285Y-102785714D01*
X115453809Y-102738095D01*
X115310952Y-102738095D01*
X115120476Y-102785714D01*
X115025238Y-102833333D01*
X114930000Y-102928571D01*
X114882380Y-103071428D01*
X114882380Y-103166666D01*
X114930000Y-103309523D01*
X114977619Y-103357142D01*
X115882380Y-104309523D02*
X115882380Y-103738095D01*
X115882380Y-104023809D02*
X114882380Y-104023809D01*
X115025238Y-103928571D01*
X115120476Y-103833333D01*
X115168095Y-103738095D01*
X114882380Y-104642857D02*
X114882380Y-105309523D01*
X115882380Y-104880952D01*
%TO.C,C18*%
X194287142Y-116357142D02*
X194334761Y-116309523D01*
X194382380Y-116166666D01*
X194382380Y-116071428D01*
X194334761Y-115928571D01*
X194239523Y-115833333D01*
X194144285Y-115785714D01*
X193953809Y-115738095D01*
X193810952Y-115738095D01*
X193620476Y-115785714D01*
X193525238Y-115833333D01*
X193430000Y-115928571D01*
X193382380Y-116071428D01*
X193382380Y-116166666D01*
X193430000Y-116309523D01*
X193477619Y-116357142D01*
X194382380Y-117309523D02*
X194382380Y-116738095D01*
X194382380Y-117023809D02*
X193382380Y-117023809D01*
X193525238Y-116928571D01*
X193620476Y-116833333D01*
X193668095Y-116738095D01*
X193810952Y-117880952D02*
X193763333Y-117785714D01*
X193715714Y-117738095D01*
X193620476Y-117690476D01*
X193572857Y-117690476D01*
X193477619Y-117738095D01*
X193430000Y-117785714D01*
X193382380Y-117880952D01*
X193382380Y-118071428D01*
X193430000Y-118166666D01*
X193477619Y-118214285D01*
X193572857Y-118261904D01*
X193620476Y-118261904D01*
X193715714Y-118214285D01*
X193763333Y-118166666D01*
X193810952Y-118071428D01*
X193810952Y-117880952D01*
X193858571Y-117785714D01*
X193906190Y-117738095D01*
X194001428Y-117690476D01*
X194191904Y-117690476D01*
X194287142Y-117738095D01*
X194334761Y-117785714D01*
X194382380Y-117880952D01*
X194382380Y-118071428D01*
X194334761Y-118166666D01*
X194287142Y-118214285D01*
X194191904Y-118261904D01*
X194001428Y-118261904D01*
X193906190Y-118214285D01*
X193858571Y-118166666D01*
X193810952Y-118071428D01*
%TO.C,C19*%
X194287142Y-103357142D02*
X194334761Y-103309523D01*
X194382380Y-103166666D01*
X194382380Y-103071428D01*
X194334761Y-102928571D01*
X194239523Y-102833333D01*
X194144285Y-102785714D01*
X193953809Y-102738095D01*
X193810952Y-102738095D01*
X193620476Y-102785714D01*
X193525238Y-102833333D01*
X193430000Y-102928571D01*
X193382380Y-103071428D01*
X193382380Y-103166666D01*
X193430000Y-103309523D01*
X193477619Y-103357142D01*
X194382380Y-104309523D02*
X194382380Y-103738095D01*
X194382380Y-104023809D02*
X193382380Y-104023809D01*
X193525238Y-103928571D01*
X193620476Y-103833333D01*
X193668095Y-103738095D01*
X194382380Y-104785714D02*
X194382380Y-104976190D01*
X194334761Y-105071428D01*
X194287142Y-105119047D01*
X194144285Y-105214285D01*
X193953809Y-105261904D01*
X193572857Y-105261904D01*
X193477619Y-105214285D01*
X193430000Y-105166666D01*
X193382380Y-105071428D01*
X193382380Y-104880952D01*
X193430000Y-104785714D01*
X193477619Y-104738095D01*
X193572857Y-104690476D01*
X193810952Y-104690476D01*
X193906190Y-104738095D01*
X193953809Y-104785714D01*
X194001428Y-104880952D01*
X194001428Y-105071428D01*
X193953809Y-105166666D01*
X193906190Y-105214285D01*
X193810952Y-105261904D01*
%TO.C,D1*%
X38522380Y-107761904D02*
X37522380Y-107761904D01*
X37522380Y-108000000D01*
X37570000Y-108142857D01*
X37665238Y-108238095D01*
X37760476Y-108285714D01*
X37950952Y-108333333D01*
X38093809Y-108333333D01*
X38284285Y-108285714D01*
X38379523Y-108238095D01*
X38474761Y-108142857D01*
X38522380Y-108000000D01*
X38522380Y-107761904D01*
X38522380Y-109285714D02*
X38522380Y-108714285D01*
X38522380Y-109000000D02*
X37522380Y-109000000D01*
X37665238Y-108904761D01*
X37760476Y-108809523D01*
X37808095Y-108714285D01*
%TO.C,R1*%
X164022380Y-65833333D02*
X163546190Y-65500000D01*
X164022380Y-65261904D02*
X163022380Y-65261904D01*
X163022380Y-65642857D01*
X163070000Y-65738095D01*
X163117619Y-65785714D01*
X163212857Y-65833333D01*
X163355714Y-65833333D01*
X163450952Y-65785714D01*
X163498571Y-65738095D01*
X163546190Y-65642857D01*
X163546190Y-65261904D01*
X164022380Y-66785714D02*
X164022380Y-66214285D01*
X164022380Y-66500000D02*
X163022380Y-66500000D01*
X163165238Y-66404761D01*
X163260476Y-66309523D01*
X163308095Y-66214285D01*
%TO.C,R2*%
X35522380Y-108333333D02*
X35046190Y-108000000D01*
X35522380Y-107761904D02*
X34522380Y-107761904D01*
X34522380Y-108142857D01*
X34570000Y-108238095D01*
X34617619Y-108285714D01*
X34712857Y-108333333D01*
X34855714Y-108333333D01*
X34950952Y-108285714D01*
X34998571Y-108238095D01*
X35046190Y-108142857D01*
X35046190Y-107761904D01*
X34617619Y-108714285D02*
X34570000Y-108761904D01*
X34522380Y-108857142D01*
X34522380Y-109095238D01*
X34570000Y-109190476D01*
X34617619Y-109238095D01*
X34712857Y-109285714D01*
X34808095Y-109285714D01*
X34950952Y-109238095D01*
X35522380Y-108666666D01*
X35522380Y-109285714D01*
%TO.C,R4*%
X64882380Y-65833333D02*
X64406190Y-65500000D01*
X64882380Y-65261904D02*
X63882380Y-65261904D01*
X63882380Y-65642857D01*
X63930000Y-65738095D01*
X63977619Y-65785714D01*
X64072857Y-65833333D01*
X64215714Y-65833333D01*
X64310952Y-65785714D01*
X64358571Y-65738095D01*
X64406190Y-65642857D01*
X64406190Y-65261904D01*
X64215714Y-66690476D02*
X64882380Y-66690476D01*
X63834761Y-66452380D02*
X64549047Y-66214285D01*
X64549047Y-66833333D01*
%TO.C,R5*%
X112882380Y-66833333D02*
X112406190Y-66500000D01*
X112882380Y-66261904D02*
X111882380Y-66261904D01*
X111882380Y-66642857D01*
X111930000Y-66738095D01*
X111977619Y-66785714D01*
X112072857Y-66833333D01*
X112215714Y-66833333D01*
X112310952Y-66785714D01*
X112358571Y-66738095D01*
X112406190Y-66642857D01*
X112406190Y-66261904D01*
X111882380Y-67738095D02*
X111882380Y-67261904D01*
X112358571Y-67214285D01*
X112310952Y-67261904D01*
X112263333Y-67357142D01*
X112263333Y-67595238D01*
X112310952Y-67690476D01*
X112358571Y-67738095D01*
X112453809Y-67785714D01*
X112691904Y-67785714D01*
X112787142Y-67738095D01*
X112834761Y-67690476D01*
X112882380Y-67595238D01*
X112882380Y-67357142D01*
X112834761Y-67261904D01*
X112787142Y-67214285D01*
%TO.C,R6*%
X112882380Y-53833333D02*
X112406190Y-53500000D01*
X112882380Y-53261904D02*
X111882380Y-53261904D01*
X111882380Y-53642857D01*
X111930000Y-53738095D01*
X111977619Y-53785714D01*
X112072857Y-53833333D01*
X112215714Y-53833333D01*
X112310952Y-53785714D01*
X112358571Y-53738095D01*
X112406190Y-53642857D01*
X112406190Y-53261904D01*
X111882380Y-54690476D02*
X111882380Y-54500000D01*
X111930000Y-54404761D01*
X111977619Y-54357142D01*
X112120476Y-54261904D01*
X112310952Y-54214285D01*
X112691904Y-54214285D01*
X112787142Y-54261904D01*
X112834761Y-54309523D01*
X112882380Y-54404761D01*
X112882380Y-54595238D01*
X112834761Y-54690476D01*
X112787142Y-54738095D01*
X112691904Y-54785714D01*
X112453809Y-54785714D01*
X112358571Y-54738095D01*
X112310952Y-54690476D01*
X112263333Y-54595238D01*
X112263333Y-54404761D01*
X112310952Y-54309523D01*
X112358571Y-54261904D01*
X112453809Y-54214285D01*
%TO.C,R7*%
X118882380Y-66833333D02*
X118406190Y-66500000D01*
X118882380Y-66261904D02*
X117882380Y-66261904D01*
X117882380Y-66642857D01*
X117930000Y-66738095D01*
X117977619Y-66785714D01*
X118072857Y-66833333D01*
X118215714Y-66833333D01*
X118310952Y-66785714D01*
X118358571Y-66738095D01*
X118406190Y-66642857D01*
X118406190Y-66261904D01*
X117882380Y-67166666D02*
X117882380Y-67833333D01*
X118882380Y-67404761D01*
%TO.C,R8*%
X118882380Y-53833333D02*
X118406190Y-53500000D01*
X118882380Y-53261904D02*
X117882380Y-53261904D01*
X117882380Y-53642857D01*
X117930000Y-53738095D01*
X117977619Y-53785714D01*
X118072857Y-53833333D01*
X118215714Y-53833333D01*
X118310952Y-53785714D01*
X118358571Y-53738095D01*
X118406190Y-53642857D01*
X118406190Y-53261904D01*
X118310952Y-54404761D02*
X118263333Y-54309523D01*
X118215714Y-54261904D01*
X118120476Y-54214285D01*
X118072857Y-54214285D01*
X117977619Y-54261904D01*
X117930000Y-54309523D01*
X117882380Y-54404761D01*
X117882380Y-54595238D01*
X117930000Y-54690476D01*
X117977619Y-54738095D01*
X118072857Y-54785714D01*
X118120476Y-54785714D01*
X118215714Y-54738095D01*
X118263333Y-54690476D01*
X118310952Y-54595238D01*
X118310952Y-54404761D01*
X118358571Y-54309523D01*
X118406190Y-54261904D01*
X118501428Y-54214285D01*
X118691904Y-54214285D01*
X118787142Y-54261904D01*
X118834761Y-54309523D01*
X118882380Y-54404761D01*
X118882380Y-54595238D01*
X118834761Y-54690476D01*
X118787142Y-54738095D01*
X118691904Y-54785714D01*
X118501428Y-54785714D01*
X118406190Y-54738095D01*
X118358571Y-54690476D01*
X118310952Y-54595238D01*
%TO.C,R9*%
X188522380Y-66833333D02*
X188046190Y-66500000D01*
X188522380Y-66261904D02*
X187522380Y-66261904D01*
X187522380Y-66642857D01*
X187570000Y-66738095D01*
X187617619Y-66785714D01*
X187712857Y-66833333D01*
X187855714Y-66833333D01*
X187950952Y-66785714D01*
X187998571Y-66738095D01*
X188046190Y-66642857D01*
X188046190Y-66261904D01*
X188522380Y-67309523D02*
X188522380Y-67500000D01*
X188474761Y-67595238D01*
X188427142Y-67642857D01*
X188284285Y-67738095D01*
X188093809Y-67785714D01*
X187712857Y-67785714D01*
X187617619Y-67738095D01*
X187570000Y-67690476D01*
X187522380Y-67595238D01*
X187522380Y-67404761D01*
X187570000Y-67309523D01*
X187617619Y-67261904D01*
X187712857Y-67214285D01*
X187950952Y-67214285D01*
X188046190Y-67261904D01*
X188093809Y-67309523D01*
X188141428Y-67404761D01*
X188141428Y-67595238D01*
X188093809Y-67690476D01*
X188046190Y-67738095D01*
X187950952Y-67785714D01*
%TO.C,R10*%
X191382380Y-53357142D02*
X190906190Y-53023809D01*
X191382380Y-52785714D02*
X190382380Y-52785714D01*
X190382380Y-53166666D01*
X190430000Y-53261904D01*
X190477619Y-53309523D01*
X190572857Y-53357142D01*
X190715714Y-53357142D01*
X190810952Y-53309523D01*
X190858571Y-53261904D01*
X190906190Y-53166666D01*
X190906190Y-52785714D01*
X191382380Y-54309523D02*
X191382380Y-53738095D01*
X191382380Y-54023809D02*
X190382380Y-54023809D01*
X190525238Y-53928571D01*
X190620476Y-53833333D01*
X190668095Y-53738095D01*
X190382380Y-54928571D02*
X190382380Y-55023809D01*
X190430000Y-55119047D01*
X190477619Y-55166666D01*
X190572857Y-55214285D01*
X190763333Y-55261904D01*
X191001428Y-55261904D01*
X191191904Y-55214285D01*
X191287142Y-55166666D01*
X191334761Y-55119047D01*
X191382380Y-55023809D01*
X191382380Y-54928571D01*
X191334761Y-54833333D01*
X191287142Y-54785714D01*
X191191904Y-54738095D01*
X191001428Y-54690476D01*
X190763333Y-54690476D01*
X190572857Y-54738095D01*
X190477619Y-54785714D01*
X190430000Y-54833333D01*
X190382380Y-54928571D01*
%TO.C,R11*%
X197382380Y-66357142D02*
X196906190Y-66023809D01*
X197382380Y-65785714D02*
X196382380Y-65785714D01*
X196382380Y-66166666D01*
X196430000Y-66261904D01*
X196477619Y-66309523D01*
X196572857Y-66357142D01*
X196715714Y-66357142D01*
X196810952Y-66309523D01*
X196858571Y-66261904D01*
X196906190Y-66166666D01*
X196906190Y-65785714D01*
X197382380Y-67309523D02*
X197382380Y-66738095D01*
X197382380Y-67023809D02*
X196382380Y-67023809D01*
X196525238Y-66928571D01*
X196620476Y-66833333D01*
X196668095Y-66738095D01*
X197382380Y-68261904D02*
X197382380Y-67690476D01*
X197382380Y-67976190D02*
X196382380Y-67976190D01*
X196525238Y-67880952D01*
X196620476Y-67785714D01*
X196668095Y-67690476D01*
%TO.C,R12*%
X197382380Y-53357142D02*
X196906190Y-53023809D01*
X197382380Y-52785714D02*
X196382380Y-52785714D01*
X196382380Y-53166666D01*
X196430000Y-53261904D01*
X196477619Y-53309523D01*
X196572857Y-53357142D01*
X196715714Y-53357142D01*
X196810952Y-53309523D01*
X196858571Y-53261904D01*
X196906190Y-53166666D01*
X196906190Y-52785714D01*
X197382380Y-54309523D02*
X197382380Y-53738095D01*
X197382380Y-54023809D02*
X196382380Y-54023809D01*
X196525238Y-53928571D01*
X196620476Y-53833333D01*
X196668095Y-53738095D01*
X196477619Y-54690476D02*
X196430000Y-54738095D01*
X196382380Y-54833333D01*
X196382380Y-55071428D01*
X196430000Y-55166666D01*
X196477619Y-55214285D01*
X196572857Y-55261904D01*
X196668095Y-55261904D01*
X196810952Y-55214285D01*
X197382380Y-54642857D01*
X197382380Y-55261904D01*
%TO.C,R19*%
X64882380Y-115357142D02*
X64406190Y-115023809D01*
X64882380Y-114785714D02*
X63882380Y-114785714D01*
X63882380Y-115166666D01*
X63930000Y-115261904D01*
X63977619Y-115309523D01*
X64072857Y-115357142D01*
X64215714Y-115357142D01*
X64310952Y-115309523D01*
X64358571Y-115261904D01*
X64406190Y-115166666D01*
X64406190Y-114785714D01*
X64882380Y-116309523D02*
X64882380Y-115738095D01*
X64882380Y-116023809D02*
X63882380Y-116023809D01*
X64025238Y-115928571D01*
X64120476Y-115833333D01*
X64168095Y-115738095D01*
X64882380Y-116785714D02*
X64882380Y-116976190D01*
X64834761Y-117071428D01*
X64787142Y-117119047D01*
X64644285Y-117214285D01*
X64453809Y-117261904D01*
X64072857Y-117261904D01*
X63977619Y-117214285D01*
X63930000Y-117166666D01*
X63882380Y-117071428D01*
X63882380Y-116880952D01*
X63930000Y-116785714D01*
X63977619Y-116738095D01*
X64072857Y-116690476D01*
X64310952Y-116690476D01*
X64406190Y-116738095D01*
X64453809Y-116785714D01*
X64501428Y-116880952D01*
X64501428Y-117071428D01*
X64453809Y-117166666D01*
X64406190Y-117214285D01*
X64310952Y-117261904D01*
%TO.C,R21*%
X112882380Y-116357142D02*
X112406190Y-116023809D01*
X112882380Y-115785714D02*
X111882380Y-115785714D01*
X111882380Y-116166666D01*
X111930000Y-116261904D01*
X111977619Y-116309523D01*
X112072857Y-116357142D01*
X112215714Y-116357142D01*
X112310952Y-116309523D01*
X112358571Y-116261904D01*
X112406190Y-116166666D01*
X112406190Y-115785714D01*
X111977619Y-116738095D02*
X111930000Y-116785714D01*
X111882380Y-116880952D01*
X111882380Y-117119047D01*
X111930000Y-117214285D01*
X111977619Y-117261904D01*
X112072857Y-117309523D01*
X112168095Y-117309523D01*
X112310952Y-117261904D01*
X112882380Y-116690476D01*
X112882380Y-117309523D01*
X112882380Y-118261904D02*
X112882380Y-117690476D01*
X112882380Y-117976190D02*
X111882380Y-117976190D01*
X112025238Y-117880952D01*
X112120476Y-117785714D01*
X112168095Y-117690476D01*
%TO.C,R22*%
X112882380Y-103357142D02*
X112406190Y-103023809D01*
X112882380Y-102785714D02*
X111882380Y-102785714D01*
X111882380Y-103166666D01*
X111930000Y-103261904D01*
X111977619Y-103309523D01*
X112072857Y-103357142D01*
X112215714Y-103357142D01*
X112310952Y-103309523D01*
X112358571Y-103261904D01*
X112406190Y-103166666D01*
X112406190Y-102785714D01*
X111977619Y-103738095D02*
X111930000Y-103785714D01*
X111882380Y-103880952D01*
X111882380Y-104119047D01*
X111930000Y-104214285D01*
X111977619Y-104261904D01*
X112072857Y-104309523D01*
X112168095Y-104309523D01*
X112310952Y-104261904D01*
X112882380Y-103690476D01*
X112882380Y-104309523D01*
X111977619Y-104690476D02*
X111930000Y-104738095D01*
X111882380Y-104833333D01*
X111882380Y-105071428D01*
X111930000Y-105166666D01*
X111977619Y-105214285D01*
X112072857Y-105261904D01*
X112168095Y-105261904D01*
X112310952Y-105214285D01*
X112882380Y-104642857D01*
X112882380Y-105261904D01*
%TO.C,R23*%
X118882380Y-116357142D02*
X118406190Y-116023809D01*
X118882380Y-115785714D02*
X117882380Y-115785714D01*
X117882380Y-116166666D01*
X117930000Y-116261904D01*
X117977619Y-116309523D01*
X118072857Y-116357142D01*
X118215714Y-116357142D01*
X118310952Y-116309523D01*
X118358571Y-116261904D01*
X118406190Y-116166666D01*
X118406190Y-115785714D01*
X117977619Y-116738095D02*
X117930000Y-116785714D01*
X117882380Y-116880952D01*
X117882380Y-117119047D01*
X117930000Y-117214285D01*
X117977619Y-117261904D01*
X118072857Y-117309523D01*
X118168095Y-117309523D01*
X118310952Y-117261904D01*
X118882380Y-116690476D01*
X118882380Y-117309523D01*
X117882380Y-117642857D02*
X117882380Y-118261904D01*
X118263333Y-117928571D01*
X118263333Y-118071428D01*
X118310952Y-118166666D01*
X118358571Y-118214285D01*
X118453809Y-118261904D01*
X118691904Y-118261904D01*
X118787142Y-118214285D01*
X118834761Y-118166666D01*
X118882380Y-118071428D01*
X118882380Y-117785714D01*
X118834761Y-117690476D01*
X118787142Y-117642857D01*
%TO.C,R24*%
X118882380Y-103357142D02*
X118406190Y-103023809D01*
X118882380Y-102785714D02*
X117882380Y-102785714D01*
X117882380Y-103166666D01*
X117930000Y-103261904D01*
X117977619Y-103309523D01*
X118072857Y-103357142D01*
X118215714Y-103357142D01*
X118310952Y-103309523D01*
X118358571Y-103261904D01*
X118406190Y-103166666D01*
X118406190Y-102785714D01*
X117977619Y-103738095D02*
X117930000Y-103785714D01*
X117882380Y-103880952D01*
X117882380Y-104119047D01*
X117930000Y-104214285D01*
X117977619Y-104261904D01*
X118072857Y-104309523D01*
X118168095Y-104309523D01*
X118310952Y-104261904D01*
X118882380Y-103690476D01*
X118882380Y-104309523D01*
X118215714Y-105166666D02*
X118882380Y-105166666D01*
X117834761Y-104928571D02*
X118549047Y-104690476D01*
X118549047Y-105309523D01*
%TO.C,R25*%
X191382380Y-116357142D02*
X190906190Y-116023809D01*
X191382380Y-115785714D02*
X190382380Y-115785714D01*
X190382380Y-116166666D01*
X190430000Y-116261904D01*
X190477619Y-116309523D01*
X190572857Y-116357142D01*
X190715714Y-116357142D01*
X190810952Y-116309523D01*
X190858571Y-116261904D01*
X190906190Y-116166666D01*
X190906190Y-115785714D01*
X190477619Y-116738095D02*
X190430000Y-116785714D01*
X190382380Y-116880952D01*
X190382380Y-117119047D01*
X190430000Y-117214285D01*
X190477619Y-117261904D01*
X190572857Y-117309523D01*
X190668095Y-117309523D01*
X190810952Y-117261904D01*
X191382380Y-116690476D01*
X191382380Y-117309523D01*
X190382380Y-118214285D02*
X190382380Y-117738095D01*
X190858571Y-117690476D01*
X190810952Y-117738095D01*
X190763333Y-117833333D01*
X190763333Y-118071428D01*
X190810952Y-118166666D01*
X190858571Y-118214285D01*
X190953809Y-118261904D01*
X191191904Y-118261904D01*
X191287142Y-118214285D01*
X191334761Y-118166666D01*
X191382380Y-118071428D01*
X191382380Y-117833333D01*
X191334761Y-117738095D01*
X191287142Y-117690476D01*
%TO.C,R26*%
X191382380Y-103357142D02*
X190906190Y-103023809D01*
X191382380Y-102785714D02*
X190382380Y-102785714D01*
X190382380Y-103166666D01*
X190430000Y-103261904D01*
X190477619Y-103309523D01*
X190572857Y-103357142D01*
X190715714Y-103357142D01*
X190810952Y-103309523D01*
X190858571Y-103261904D01*
X190906190Y-103166666D01*
X190906190Y-102785714D01*
X190477619Y-103738095D02*
X190430000Y-103785714D01*
X190382380Y-103880952D01*
X190382380Y-104119047D01*
X190430000Y-104214285D01*
X190477619Y-104261904D01*
X190572857Y-104309523D01*
X190668095Y-104309523D01*
X190810952Y-104261904D01*
X191382380Y-103690476D01*
X191382380Y-104309523D01*
X190382380Y-105166666D02*
X190382380Y-104976190D01*
X190430000Y-104880952D01*
X190477619Y-104833333D01*
X190620476Y-104738095D01*
X190810952Y-104690476D01*
X191191904Y-104690476D01*
X191287142Y-104738095D01*
X191334761Y-104785714D01*
X191382380Y-104880952D01*
X191382380Y-105071428D01*
X191334761Y-105166666D01*
X191287142Y-105214285D01*
X191191904Y-105261904D01*
X190953809Y-105261904D01*
X190858571Y-105214285D01*
X190810952Y-105166666D01*
X190763333Y-105071428D01*
X190763333Y-104880952D01*
X190810952Y-104785714D01*
X190858571Y-104738095D01*
X190953809Y-104690476D01*
%TO.C,R27*%
X197382380Y-116357142D02*
X196906190Y-116023809D01*
X197382380Y-115785714D02*
X196382380Y-115785714D01*
X196382380Y-116166666D01*
X196430000Y-116261904D01*
X196477619Y-116309523D01*
X196572857Y-116357142D01*
X196715714Y-116357142D01*
X196810952Y-116309523D01*
X196858571Y-116261904D01*
X196906190Y-116166666D01*
X196906190Y-115785714D01*
X196477619Y-116738095D02*
X196430000Y-116785714D01*
X196382380Y-116880952D01*
X196382380Y-117119047D01*
X196430000Y-117214285D01*
X196477619Y-117261904D01*
X196572857Y-117309523D01*
X196668095Y-117309523D01*
X196810952Y-117261904D01*
X197382380Y-116690476D01*
X197382380Y-117309523D01*
X196382380Y-117642857D02*
X196382380Y-118309523D01*
X197382380Y-117880952D01*
%TO.C,R28*%
X197382380Y-103357142D02*
X196906190Y-103023809D01*
X197382380Y-102785714D02*
X196382380Y-102785714D01*
X196382380Y-103166666D01*
X196430000Y-103261904D01*
X196477619Y-103309523D01*
X196572857Y-103357142D01*
X196715714Y-103357142D01*
X196810952Y-103309523D01*
X196858571Y-103261904D01*
X196906190Y-103166666D01*
X196906190Y-102785714D01*
X196477619Y-103738095D02*
X196430000Y-103785714D01*
X196382380Y-103880952D01*
X196382380Y-104119047D01*
X196430000Y-104214285D01*
X196477619Y-104261904D01*
X196572857Y-104309523D01*
X196668095Y-104309523D01*
X196810952Y-104261904D01*
X197382380Y-103690476D01*
X197382380Y-104309523D01*
X196810952Y-104880952D02*
X196763333Y-104785714D01*
X196715714Y-104738095D01*
X196620476Y-104690476D01*
X196572857Y-104690476D01*
X196477619Y-104738095D01*
X196430000Y-104785714D01*
X196382380Y-104880952D01*
X196382380Y-105071428D01*
X196430000Y-105166666D01*
X196477619Y-105214285D01*
X196572857Y-105261904D01*
X196620476Y-105261904D01*
X196715714Y-105214285D01*
X196763333Y-105166666D01*
X196810952Y-105071428D01*
X196810952Y-104880952D01*
X196858571Y-104785714D01*
X196906190Y-104738095D01*
X197001428Y-104690476D01*
X197191904Y-104690476D01*
X197287142Y-104738095D01*
X197334761Y-104785714D01*
X197382380Y-104880952D01*
X197382380Y-105071428D01*
X197334761Y-105166666D01*
X197287142Y-105214285D01*
X197191904Y-105261904D01*
X197001428Y-105261904D01*
X196906190Y-105214285D01*
X196858571Y-105166666D01*
X196810952Y-105071428D01*
%TD*%
M02*
