%TF.GenerationSoftware,KiCad,Pcbnew,(5.1.6)-1*%
%TF.CreationDate,2020-09-26T15:59:42-07:00*%
%TF.ProjectId,Cessna 172 nav and com radio,43657373-6e61-4203-9137-32206e617620,rev?*%
%TF.SameCoordinates,Original*%
%TF.FileFunction,Soldermask,Top*%
%TF.FilePolarity,Negative*%
%FSLAX46Y46*%
G04 Gerber Fmt 4.6, Leading zero omitted, Abs format (unit mm)*
G04 Created by KiCad (PCBNEW (5.1.6)-1) date 2020-09-26 15:59:42*
%MOMM*%
%LPD*%
G01*
G04 APERTURE LIST*
%ADD10O,1.300000X2.100000*%
%ADD11C,3.100000*%
%ADD12C,1.624000*%
%ADD13R,1.700000X1.700000*%
%ADD14C,1.700000*%
%ADD15C,1.900000*%
%ADD16R,1.900000X1.900000*%
%ADD17C,2.100000*%
%ADD18C,1.550000*%
%ADD19O,2.000000X1.300000*%
%ADD20C,5.050000*%
%ADD21R,1.800000X1.800000*%
%ADD22O,1.800000X1.800000*%
G04 APERTURE END LIST*
D10*
%TO.C,U4*%
X106620000Y-46080000D03*
X106620000Y-35920000D03*
X104080000Y-46080000D03*
X104080000Y-35920000D03*
X101540000Y-46080000D03*
X101540000Y-35920000D03*
X99000000Y-46080000D03*
X99000000Y-35920000D03*
X96460000Y-46080000D03*
X96460000Y-35920000D03*
X93920000Y-46080000D03*
X93920000Y-35920000D03*
X91380000Y-46080000D03*
X91380000Y-35920000D03*
%TD*%
D11*
%TO.C,H5*%
X113750000Y-74250000D03*
%TD*%
D12*
%TO.C,RV1*%
X155500000Y-68500000D03*
X155500000Y-63500000D03*
X160500000Y-66000000D03*
%TD*%
D11*
%TO.C,H3*%
X205000000Y-35000000D03*
%TD*%
%TO.C,H4*%
X205000000Y-123000000D03*
%TD*%
%TO.C,H2*%
X35000000Y-123000000D03*
%TD*%
%TO.C,H1*%
X35000000Y-35000000D03*
%TD*%
D10*
%TO.C,U2*%
X68620000Y-46080000D03*
X68620000Y-35920000D03*
X66080000Y-46080000D03*
X66080000Y-35920000D03*
X63540000Y-46080000D03*
X63540000Y-35920000D03*
X61000000Y-46080000D03*
X61000000Y-35920000D03*
X58460000Y-46080000D03*
X58460000Y-35920000D03*
X55920000Y-46080000D03*
X55920000Y-35920000D03*
X53380000Y-46080000D03*
X53380000Y-35920000D03*
%TD*%
%TO.C,U6*%
X147620000Y-46080000D03*
X147620000Y-35920000D03*
X145080000Y-46080000D03*
X145080000Y-35920000D03*
X142540000Y-46080000D03*
X142540000Y-35920000D03*
X140000000Y-46080000D03*
X140000000Y-35920000D03*
X137460000Y-46080000D03*
X137460000Y-35920000D03*
X134920000Y-46080000D03*
X134920000Y-35920000D03*
X132380000Y-46080000D03*
X132380000Y-35920000D03*
%TD*%
%TO.C,U8*%
X185620000Y-46080000D03*
X185620000Y-35920000D03*
X183080000Y-46080000D03*
X183080000Y-35920000D03*
X180540000Y-46080000D03*
X180540000Y-35920000D03*
X178000000Y-46080000D03*
X178000000Y-35920000D03*
X175460000Y-46080000D03*
X175460000Y-35920000D03*
X172920000Y-46080000D03*
X172920000Y-35920000D03*
X170380000Y-46080000D03*
X170380000Y-35920000D03*
%TD*%
D13*
%TO.C,C1*%
X38000000Y-104000000D03*
D14*
X40000000Y-104000000D03*
%TD*%
D15*
%TO.C,D3*%
X59540000Y-66000000D03*
D16*
X57000000Y-66000000D03*
%TD*%
D17*
%TO.C,SW1*%
X76750000Y-58500000D03*
X76750000Y-54000000D03*
X83250000Y-58500000D03*
X83250000Y-54000000D03*
%TD*%
%TO.C,SW2*%
X162250000Y-54000000D03*
X162250000Y-58500000D03*
X155750000Y-54000000D03*
X155750000Y-58500000D03*
%TD*%
%TO.C,SW3*%
X125000000Y-68500000D03*
X125000000Y-64000000D03*
X131500000Y-68500000D03*
X131500000Y-64000000D03*
%TD*%
D18*
%TO.C,J2*%
X34162500Y-105500000D03*
X34162500Y-100500000D03*
D19*
X31462500Y-106500000D03*
X31462500Y-99500000D03*
%TD*%
D20*
%TO.C,J3*%
X106000000Y-55850000D03*
X106000000Y-65150000D03*
D15*
X99000000Y-58000000D03*
X99000000Y-63000000D03*
X113500000Y-60500000D03*
X113500000Y-58000000D03*
X113500000Y-63000000D03*
%TD*%
%TO.C,J4*%
X193000000Y-63000000D03*
X193000000Y-58000000D03*
X193000000Y-60500000D03*
X178500000Y-63000000D03*
X178500000Y-58000000D03*
D20*
X185500000Y-65150000D03*
X185500000Y-55850000D03*
%TD*%
D15*
%TO.C,D6*%
X59540000Y-116000000D03*
D16*
X57000000Y-116000000D03*
%TD*%
D15*
%TO.C,J1*%
X113500000Y-113000000D03*
X113500000Y-108000000D03*
X113500000Y-110500000D03*
X99000000Y-113000000D03*
X99000000Y-108000000D03*
D20*
X106000000Y-115150000D03*
X106000000Y-105850000D03*
%TD*%
%TO.C,J6*%
X185500000Y-105850000D03*
X185500000Y-115150000D03*
D15*
X178500000Y-108000000D03*
X178500000Y-113000000D03*
X193000000Y-110500000D03*
X193000000Y-108000000D03*
X193000000Y-113000000D03*
%TD*%
D17*
%TO.C,SW4*%
X76750000Y-108500000D03*
X76750000Y-104000000D03*
X83250000Y-108500000D03*
X83250000Y-104000000D03*
%TD*%
%TO.C,SW5*%
X162250000Y-104000000D03*
X162250000Y-108500000D03*
X155750000Y-104000000D03*
X155750000Y-108500000D03*
%TD*%
%TO.C,SW6*%
X125000000Y-118500000D03*
X125000000Y-114000000D03*
X131500000Y-118500000D03*
X131500000Y-114000000D03*
%TD*%
D10*
%TO.C,U10*%
X53380000Y-85920000D03*
X53380000Y-96080000D03*
X55920000Y-85920000D03*
X55920000Y-96080000D03*
X58460000Y-85920000D03*
X58460000Y-96080000D03*
X61000000Y-85920000D03*
X61000000Y-96080000D03*
X63540000Y-85920000D03*
X63540000Y-96080000D03*
X66080000Y-85920000D03*
X66080000Y-96080000D03*
X68620000Y-85920000D03*
X68620000Y-96080000D03*
%TD*%
%TO.C,U12*%
X147620000Y-96080000D03*
X147620000Y-85920000D03*
X145080000Y-96080000D03*
X145080000Y-85920000D03*
X142540000Y-96080000D03*
X142540000Y-85920000D03*
X140000000Y-96080000D03*
X140000000Y-85920000D03*
X137460000Y-96080000D03*
X137460000Y-85920000D03*
X134920000Y-96080000D03*
X134920000Y-85920000D03*
X132380000Y-96080000D03*
X132380000Y-85920000D03*
%TD*%
%TO.C,U14*%
X185620000Y-96080000D03*
X185620000Y-85920000D03*
X183080000Y-96080000D03*
X183080000Y-85920000D03*
X180540000Y-96080000D03*
X180540000Y-85920000D03*
X178000000Y-96080000D03*
X178000000Y-85920000D03*
X175460000Y-96080000D03*
X175460000Y-85920000D03*
X172920000Y-96080000D03*
X172920000Y-85920000D03*
X170380000Y-96080000D03*
X170380000Y-85920000D03*
%TD*%
%TO.C,U16*%
X91380000Y-85920000D03*
X91380000Y-96080000D03*
X93920000Y-85920000D03*
X93920000Y-96080000D03*
X96460000Y-85920000D03*
X96460000Y-96080000D03*
X99000000Y-85920000D03*
X99000000Y-96080000D03*
X101540000Y-85920000D03*
X101540000Y-96080000D03*
X104080000Y-85920000D03*
X104080000Y-96080000D03*
X106620000Y-85920000D03*
X106620000Y-96080000D03*
%TD*%
D17*
%TO.C,SW7*%
X43000000Y-68500000D03*
X43000000Y-64000000D03*
X49500000Y-68500000D03*
X49500000Y-64000000D03*
%TD*%
%TO.C,SW8*%
X49500000Y-114000000D03*
X49500000Y-118500000D03*
X43000000Y-114000000D03*
X43000000Y-118500000D03*
%TD*%
D21*
%TO.C,J5*%
X204500000Y-60000000D03*
D22*
X201960000Y-60000000D03*
X204500000Y-62540000D03*
X201960000Y-62540000D03*
X204500000Y-65080000D03*
X201960000Y-65080000D03*
X204500000Y-67620000D03*
X201960000Y-67620000D03*
X204500000Y-70160000D03*
X201960000Y-70160000D03*
X204500000Y-72700000D03*
X201960000Y-72700000D03*
X204500000Y-75240000D03*
X201960000Y-75240000D03*
X204500000Y-77780000D03*
X201960000Y-77780000D03*
X204500000Y-80320000D03*
X201960000Y-80320000D03*
X204500000Y-82860000D03*
X201960000Y-82860000D03*
X204500000Y-85400000D03*
X201960000Y-85400000D03*
X204500000Y-87940000D03*
X201960000Y-87940000D03*
X204500000Y-90480000D03*
X201960000Y-90480000D03*
X204500000Y-93020000D03*
X201960000Y-93020000D03*
X204500000Y-95560000D03*
X201960000Y-95560000D03*
%TD*%
M02*
