%TF.GenerationSoftware,KiCad,Pcbnew,(5.1.6)-1*%
%TF.CreationDate,2020-09-26T15:19:52-07:00*%
%TF.ProjectId,Cessna 172 nav and com radio,43657373-6e61-4203-9137-32206e617620,rev?*%
%TF.SameCoordinates,Original*%
%TF.FileFunction,Soldermask,Bot*%
%TF.FilePolarity,Negative*%
%FSLAX46Y46*%
G04 Gerber Fmt 4.6, Leading zero omitted, Abs format (unit mm)*
G04 Created by KiCad (PCBNEW (5.1.6)-1) date 2020-09-26 15:19:52*
%MOMM*%
%LPD*%
G01*
G04 APERTURE LIST*
%ADD10C,3.100000*%
%ADD11R,0.500000X1.300000*%
%ADD12C,1.624000*%
%ADD13O,1.300000X2.100000*%
%ADD14C,1.900000*%
%ADD15R,1.900000X1.900000*%
%ADD16C,2.100000*%
%ADD17R,2.000000X1.600000*%
%ADD18C,1.550000*%
%ADD19R,1.450000X0.500000*%
%ADD20O,2.000000X1.300000*%
%ADD21R,2.000000X1.300000*%
%ADD22C,5.050000*%
%ADD23R,1.800000X1.800000*%
%ADD24O,1.800000X1.800000*%
G04 APERTURE END LIST*
D10*
%TO.C,H5*%
X113750000Y-74250000D03*
%TD*%
D11*
%TO.C,U1*%
X40507500Y-38400000D03*
X41142500Y-38400000D03*
X41777500Y-38400000D03*
X42412500Y-38400000D03*
X43047500Y-38400000D03*
X43682500Y-38400000D03*
X44317500Y-38400000D03*
X44952500Y-38400000D03*
X45587500Y-38400000D03*
X46222500Y-38400000D03*
X46857500Y-38400000D03*
X47492500Y-38400000D03*
X47492500Y-43600000D03*
X46857500Y-43600000D03*
X46222500Y-43600000D03*
X45587500Y-43600000D03*
X44952500Y-43600000D03*
X44317500Y-43600000D03*
X43682500Y-43600000D03*
X43047500Y-43600000D03*
X42412500Y-43600000D03*
X41777500Y-43600000D03*
X41142500Y-43600000D03*
X40507500Y-43600000D03*
%TD*%
D12*
%TO.C,RV1*%
X155500000Y-68500000D03*
X155500000Y-63500000D03*
X160500000Y-66000000D03*
%TD*%
D10*
%TO.C,H3*%
X205000000Y-35000000D03*
%TD*%
%TO.C,H4*%
X205000000Y-123000000D03*
%TD*%
%TO.C,H2*%
X35000000Y-123000000D03*
%TD*%
%TO.C,H1*%
X35000000Y-35000000D03*
%TD*%
D13*
%TO.C,U2*%
X68620000Y-46080000D03*
X68620000Y-35920000D03*
X66080000Y-46080000D03*
X66080000Y-35920000D03*
X63540000Y-46080000D03*
X63540000Y-35920000D03*
X61000000Y-46080000D03*
X61000000Y-35920000D03*
X58460000Y-46080000D03*
X58460000Y-35920000D03*
X55920000Y-46080000D03*
X55920000Y-35920000D03*
X53380000Y-46080000D03*
X53380000Y-35920000D03*
%TD*%
%TO.C,U4*%
X106620000Y-46080000D03*
X106620000Y-35920000D03*
X104080000Y-46080000D03*
X104080000Y-35920000D03*
X101540000Y-46080000D03*
X101540000Y-35920000D03*
X99000000Y-46080000D03*
X99000000Y-35920000D03*
X96460000Y-46080000D03*
X96460000Y-35920000D03*
X93920000Y-46080000D03*
X93920000Y-35920000D03*
X91380000Y-46080000D03*
X91380000Y-35920000D03*
%TD*%
%TO.C,U6*%
X147620000Y-46080000D03*
X147620000Y-35920000D03*
X145080000Y-46080000D03*
X145080000Y-35920000D03*
X142540000Y-46080000D03*
X142540000Y-35920000D03*
X140000000Y-46080000D03*
X140000000Y-35920000D03*
X137460000Y-46080000D03*
X137460000Y-35920000D03*
X134920000Y-46080000D03*
X134920000Y-35920000D03*
X132380000Y-46080000D03*
X132380000Y-35920000D03*
%TD*%
%TO.C,U8*%
X185620000Y-46080000D03*
X185620000Y-35920000D03*
X183080000Y-46080000D03*
X183080000Y-35920000D03*
X180540000Y-46080000D03*
X180540000Y-35920000D03*
X178000000Y-46080000D03*
X178000000Y-35920000D03*
X175460000Y-46080000D03*
X175460000Y-35920000D03*
X172920000Y-46080000D03*
X172920000Y-35920000D03*
X170380000Y-46080000D03*
X170380000Y-35920000D03*
%TD*%
D14*
%TO.C,D3*%
X59540000Y-66000000D03*
D15*
X57000000Y-66000000D03*
%TD*%
D11*
%TO.C,U3*%
X78507500Y-43600000D03*
X79142500Y-43600000D03*
X79777500Y-43600000D03*
X80412500Y-43600000D03*
X81047500Y-43600000D03*
X81682500Y-43600000D03*
X82317500Y-43600000D03*
X82952500Y-43600000D03*
X83587500Y-43600000D03*
X84222500Y-43600000D03*
X84857500Y-43600000D03*
X85492500Y-43600000D03*
X85492500Y-38400000D03*
X84857500Y-38400000D03*
X84222500Y-38400000D03*
X83587500Y-38400000D03*
X82952500Y-38400000D03*
X82317500Y-38400000D03*
X81682500Y-38400000D03*
X81047500Y-38400000D03*
X80412500Y-38400000D03*
X79777500Y-38400000D03*
X79142500Y-38400000D03*
X78507500Y-38400000D03*
%TD*%
%TO.C,U5*%
X119507500Y-43600000D03*
X120142500Y-43600000D03*
X120777500Y-43600000D03*
X121412500Y-43600000D03*
X122047500Y-43600000D03*
X122682500Y-43600000D03*
X123317500Y-43600000D03*
X123952500Y-43600000D03*
X124587500Y-43600000D03*
X125222500Y-43600000D03*
X125857500Y-43600000D03*
X126492500Y-43600000D03*
X126492500Y-38400000D03*
X125857500Y-38400000D03*
X125222500Y-38400000D03*
X124587500Y-38400000D03*
X123952500Y-38400000D03*
X123317500Y-38400000D03*
X122682500Y-38400000D03*
X122047500Y-38400000D03*
X121412500Y-38400000D03*
X120777500Y-38400000D03*
X120142500Y-38400000D03*
X119507500Y-38400000D03*
%TD*%
%TO.C,U7*%
X157507500Y-38400000D03*
X158142500Y-38400000D03*
X158777500Y-38400000D03*
X159412500Y-38400000D03*
X160047500Y-38400000D03*
X160682500Y-38400000D03*
X161317500Y-38400000D03*
X161952500Y-38400000D03*
X162587500Y-38400000D03*
X163222500Y-38400000D03*
X163857500Y-38400000D03*
X164492500Y-38400000D03*
X164492500Y-43600000D03*
X163857500Y-43600000D03*
X163222500Y-43600000D03*
X162587500Y-43600000D03*
X161952500Y-43600000D03*
X161317500Y-43600000D03*
X160682500Y-43600000D03*
X160047500Y-43600000D03*
X159412500Y-43600000D03*
X158777500Y-43600000D03*
X158142500Y-43600000D03*
X157507500Y-43600000D03*
%TD*%
D16*
%TO.C,SW1*%
X76750000Y-58500000D03*
X76750000Y-54000000D03*
X83250000Y-58500000D03*
X83250000Y-54000000D03*
%TD*%
%TO.C,SW2*%
X162250000Y-54000000D03*
X162250000Y-58500000D03*
X155750000Y-54000000D03*
X155750000Y-58500000D03*
%TD*%
%TO.C,SW3*%
X125000000Y-68500000D03*
X125000000Y-64000000D03*
X131500000Y-68500000D03*
X131500000Y-64000000D03*
%TD*%
D17*
%TO.C,J2*%
X31462500Y-102000000D03*
D18*
X34162500Y-105500000D03*
D19*
X34162500Y-103650000D03*
X34162500Y-104300000D03*
X34162500Y-101700000D03*
X34162500Y-102350000D03*
X34162500Y-103000000D03*
D18*
X34162500Y-100500000D03*
D17*
X31462500Y-104000000D03*
D20*
X31462500Y-106500000D03*
X31462500Y-99500000D03*
D21*
X31462500Y-100100000D03*
X31462500Y-105900000D03*
%TD*%
D22*
%TO.C,J3*%
X106000000Y-55850000D03*
X106000000Y-65150000D03*
D14*
X99000000Y-58000000D03*
X99000000Y-63000000D03*
X113500000Y-60500000D03*
X113500000Y-58000000D03*
X113500000Y-63000000D03*
%TD*%
%TO.C,J4*%
X193000000Y-63000000D03*
X193000000Y-58000000D03*
X193000000Y-60500000D03*
X178500000Y-63000000D03*
X178500000Y-58000000D03*
D22*
X185500000Y-65150000D03*
X185500000Y-55850000D03*
%TD*%
D14*
%TO.C,D6*%
X59540000Y-116000000D03*
D15*
X57000000Y-116000000D03*
%TD*%
D14*
%TO.C,J1*%
X113500000Y-113000000D03*
X113500000Y-108000000D03*
X113500000Y-110500000D03*
X99000000Y-113000000D03*
X99000000Y-108000000D03*
D22*
X106000000Y-115150000D03*
X106000000Y-105850000D03*
%TD*%
%TO.C,J6*%
X185500000Y-105850000D03*
X185500000Y-115150000D03*
D14*
X178500000Y-108000000D03*
X178500000Y-113000000D03*
X193000000Y-110500000D03*
X193000000Y-108000000D03*
X193000000Y-113000000D03*
%TD*%
D16*
%TO.C,SW4*%
X76750000Y-108500000D03*
X76750000Y-104000000D03*
X83250000Y-108500000D03*
X83250000Y-104000000D03*
%TD*%
%TO.C,SW5*%
X162250000Y-104000000D03*
X162250000Y-108500000D03*
X155750000Y-104000000D03*
X155750000Y-108500000D03*
%TD*%
%TO.C,SW6*%
X125000000Y-118500000D03*
X125000000Y-114000000D03*
X131500000Y-118500000D03*
X131500000Y-114000000D03*
%TD*%
D11*
%TO.C,U9*%
X40507500Y-93600000D03*
X41142500Y-93600000D03*
X41777500Y-93600000D03*
X42412500Y-93600000D03*
X43047500Y-93600000D03*
X43682500Y-93600000D03*
X44317500Y-93600000D03*
X44952500Y-93600000D03*
X45587500Y-93600000D03*
X46222500Y-93600000D03*
X46857500Y-93600000D03*
X47492500Y-93600000D03*
X47492500Y-88400000D03*
X46857500Y-88400000D03*
X46222500Y-88400000D03*
X45587500Y-88400000D03*
X44952500Y-88400000D03*
X44317500Y-88400000D03*
X43682500Y-88400000D03*
X43047500Y-88400000D03*
X42412500Y-88400000D03*
X41777500Y-88400000D03*
X41142500Y-88400000D03*
X40507500Y-88400000D03*
%TD*%
D13*
%TO.C,U10*%
X53380000Y-85920000D03*
X53380000Y-96080000D03*
X55920000Y-85920000D03*
X55920000Y-96080000D03*
X58460000Y-85920000D03*
X58460000Y-96080000D03*
X61000000Y-85920000D03*
X61000000Y-96080000D03*
X63540000Y-85920000D03*
X63540000Y-96080000D03*
X66080000Y-85920000D03*
X66080000Y-96080000D03*
X68620000Y-85920000D03*
X68620000Y-96080000D03*
%TD*%
D11*
%TO.C,U11*%
X119507500Y-88400000D03*
X120142500Y-88400000D03*
X120777500Y-88400000D03*
X121412500Y-88400000D03*
X122047500Y-88400000D03*
X122682500Y-88400000D03*
X123317500Y-88400000D03*
X123952500Y-88400000D03*
X124587500Y-88400000D03*
X125222500Y-88400000D03*
X125857500Y-88400000D03*
X126492500Y-88400000D03*
X126492500Y-93600000D03*
X125857500Y-93600000D03*
X125222500Y-93600000D03*
X124587500Y-93600000D03*
X123952500Y-93600000D03*
X123317500Y-93600000D03*
X122682500Y-93600000D03*
X122047500Y-93600000D03*
X121412500Y-93600000D03*
X120777500Y-93600000D03*
X120142500Y-93600000D03*
X119507500Y-93600000D03*
%TD*%
D13*
%TO.C,U12*%
X147620000Y-96080000D03*
X147620000Y-85920000D03*
X145080000Y-96080000D03*
X145080000Y-85920000D03*
X142540000Y-96080000D03*
X142540000Y-85920000D03*
X140000000Y-96080000D03*
X140000000Y-85920000D03*
X137460000Y-96080000D03*
X137460000Y-85920000D03*
X134920000Y-96080000D03*
X134920000Y-85920000D03*
X132380000Y-96080000D03*
X132380000Y-85920000D03*
%TD*%
D11*
%TO.C,U13*%
X157507500Y-93600000D03*
X158142500Y-93600000D03*
X158777500Y-93600000D03*
X159412500Y-93600000D03*
X160047500Y-93600000D03*
X160682500Y-93600000D03*
X161317500Y-93600000D03*
X161952500Y-93600000D03*
X162587500Y-93600000D03*
X163222500Y-93600000D03*
X163857500Y-93600000D03*
X164492500Y-93600000D03*
X164492500Y-88400000D03*
X163857500Y-88400000D03*
X163222500Y-88400000D03*
X162587500Y-88400000D03*
X161952500Y-88400000D03*
X161317500Y-88400000D03*
X160682500Y-88400000D03*
X160047500Y-88400000D03*
X159412500Y-88400000D03*
X158777500Y-88400000D03*
X158142500Y-88400000D03*
X157507500Y-88400000D03*
%TD*%
D13*
%TO.C,U14*%
X185620000Y-96080000D03*
X185620000Y-85920000D03*
X183080000Y-96080000D03*
X183080000Y-85920000D03*
X180540000Y-96080000D03*
X180540000Y-85920000D03*
X178000000Y-96080000D03*
X178000000Y-85920000D03*
X175460000Y-96080000D03*
X175460000Y-85920000D03*
X172920000Y-96080000D03*
X172920000Y-85920000D03*
X170380000Y-96080000D03*
X170380000Y-85920000D03*
%TD*%
D11*
%TO.C,U15*%
X78507500Y-88400000D03*
X79142500Y-88400000D03*
X79777500Y-88400000D03*
X80412500Y-88400000D03*
X81047500Y-88400000D03*
X81682500Y-88400000D03*
X82317500Y-88400000D03*
X82952500Y-88400000D03*
X83587500Y-88400000D03*
X84222500Y-88400000D03*
X84857500Y-88400000D03*
X85492500Y-88400000D03*
X85492500Y-93600000D03*
X84857500Y-93600000D03*
X84222500Y-93600000D03*
X83587500Y-93600000D03*
X82952500Y-93600000D03*
X82317500Y-93600000D03*
X81682500Y-93600000D03*
X81047500Y-93600000D03*
X80412500Y-93600000D03*
X79777500Y-93600000D03*
X79142500Y-93600000D03*
X78507500Y-93600000D03*
%TD*%
D13*
%TO.C,U16*%
X91380000Y-85920000D03*
X91380000Y-96080000D03*
X93920000Y-85920000D03*
X93920000Y-96080000D03*
X96460000Y-85920000D03*
X96460000Y-96080000D03*
X99000000Y-85920000D03*
X99000000Y-96080000D03*
X101540000Y-85920000D03*
X101540000Y-96080000D03*
X104080000Y-85920000D03*
X104080000Y-96080000D03*
X106620000Y-85920000D03*
X106620000Y-96080000D03*
%TD*%
D16*
%TO.C,SW7*%
X43000000Y-68500000D03*
X43000000Y-64000000D03*
X49500000Y-68500000D03*
X49500000Y-64000000D03*
%TD*%
%TO.C,SW8*%
X49500000Y-114000000D03*
X49500000Y-118500000D03*
X43000000Y-114000000D03*
X43000000Y-118500000D03*
%TD*%
D23*
%TO.C,J5*%
X204500000Y-60000000D03*
D24*
X201960000Y-60000000D03*
X204500000Y-62540000D03*
X201960000Y-62540000D03*
X204500000Y-65080000D03*
X201960000Y-65080000D03*
X204500000Y-67620000D03*
X201960000Y-67620000D03*
X204500000Y-70160000D03*
X201960000Y-70160000D03*
X204500000Y-72700000D03*
X201960000Y-72700000D03*
X204500000Y-75240000D03*
X201960000Y-75240000D03*
X204500000Y-77780000D03*
X201960000Y-77780000D03*
X204500000Y-80320000D03*
X201960000Y-80320000D03*
X204500000Y-82860000D03*
X201960000Y-82860000D03*
X204500000Y-85400000D03*
X201960000Y-85400000D03*
X204500000Y-87940000D03*
X201960000Y-87940000D03*
X204500000Y-90480000D03*
X201960000Y-90480000D03*
X204500000Y-93020000D03*
X201960000Y-93020000D03*
X204500000Y-95560000D03*
X201960000Y-95560000D03*
%TD*%
%TO.C,C1*%
G36*
G01*
X35900000Y-104956482D02*
X35900000Y-104043518D01*
G75*
G02*
X36168518Y-103775000I268518J0D01*
G01*
X37131482Y-103775000D01*
G75*
G02*
X37400000Y-104043518I0J-268518D01*
G01*
X37400000Y-104956482D01*
G75*
G02*
X37131482Y-105225000I-268518J0D01*
G01*
X36168518Y-105225000D01*
G75*
G02*
X35900000Y-104956482I0J268518D01*
G01*
G37*
G36*
G01*
X38600000Y-104956482D02*
X38600000Y-104043518D01*
G75*
G02*
X38868518Y-103775000I268518J0D01*
G01*
X39831482Y-103775000D01*
G75*
G02*
X40100000Y-104043518I0J-268518D01*
G01*
X40100000Y-104956482D01*
G75*
G02*
X39831482Y-105225000I-268518J0D01*
G01*
X38868518Y-105225000D01*
G75*
G02*
X38600000Y-104956482I0J268518D01*
G01*
G37*
%TD*%
%TO.C,C2*%
G36*
G01*
X43718750Y-45225000D02*
X44281250Y-45225000D01*
G75*
G02*
X44525000Y-45468750I0J-243750D01*
G01*
X44525000Y-45956250D01*
G75*
G02*
X44281250Y-46200000I-243750J0D01*
G01*
X43718750Y-46200000D01*
G75*
G02*
X43475000Y-45956250I0J243750D01*
G01*
X43475000Y-45468750D01*
G75*
G02*
X43718750Y-45225000I243750J0D01*
G01*
G37*
G36*
G01*
X43718750Y-46800000D02*
X44281250Y-46800000D01*
G75*
G02*
X44525000Y-47043750I0J-243750D01*
G01*
X44525000Y-47531250D01*
G75*
G02*
X44281250Y-47775000I-243750J0D01*
G01*
X43718750Y-47775000D01*
G75*
G02*
X43475000Y-47531250I0J243750D01*
G01*
X43475000Y-47043750D01*
G75*
G02*
X43718750Y-46800000I243750J0D01*
G01*
G37*
%TD*%
%TO.C,C3*%
G36*
G01*
X81718750Y-46800000D02*
X82281250Y-46800000D01*
G75*
G02*
X82525000Y-47043750I0J-243750D01*
G01*
X82525000Y-47531250D01*
G75*
G02*
X82281250Y-47775000I-243750J0D01*
G01*
X81718750Y-47775000D01*
G75*
G02*
X81475000Y-47531250I0J243750D01*
G01*
X81475000Y-47043750D01*
G75*
G02*
X81718750Y-46800000I243750J0D01*
G01*
G37*
G36*
G01*
X81718750Y-45225000D02*
X82281250Y-45225000D01*
G75*
G02*
X82525000Y-45468750I0J-243750D01*
G01*
X82525000Y-45956250D01*
G75*
G02*
X82281250Y-46200000I-243750J0D01*
G01*
X81718750Y-46200000D01*
G75*
G02*
X81475000Y-45956250I0J243750D01*
G01*
X81475000Y-45468750D01*
G75*
G02*
X81718750Y-45225000I243750J0D01*
G01*
G37*
%TD*%
%TO.C,C4*%
G36*
G01*
X122718750Y-46800000D02*
X123281250Y-46800000D01*
G75*
G02*
X123525000Y-47043750I0J-243750D01*
G01*
X123525000Y-47531250D01*
G75*
G02*
X123281250Y-47775000I-243750J0D01*
G01*
X122718750Y-47775000D01*
G75*
G02*
X122475000Y-47531250I0J243750D01*
G01*
X122475000Y-47043750D01*
G75*
G02*
X122718750Y-46800000I243750J0D01*
G01*
G37*
G36*
G01*
X122718750Y-45225000D02*
X123281250Y-45225000D01*
G75*
G02*
X123525000Y-45468750I0J-243750D01*
G01*
X123525000Y-45956250D01*
G75*
G02*
X123281250Y-46200000I-243750J0D01*
G01*
X122718750Y-46200000D01*
G75*
G02*
X122475000Y-45956250I0J243750D01*
G01*
X122475000Y-45468750D01*
G75*
G02*
X122718750Y-45225000I243750J0D01*
G01*
G37*
%TD*%
%TO.C,C5*%
G36*
G01*
X160718750Y-45225000D02*
X161281250Y-45225000D01*
G75*
G02*
X161525000Y-45468750I0J-243750D01*
G01*
X161525000Y-45956250D01*
G75*
G02*
X161281250Y-46200000I-243750J0D01*
G01*
X160718750Y-46200000D01*
G75*
G02*
X160475000Y-45956250I0J243750D01*
G01*
X160475000Y-45468750D01*
G75*
G02*
X160718750Y-45225000I243750J0D01*
G01*
G37*
G36*
G01*
X160718750Y-46800000D02*
X161281250Y-46800000D01*
G75*
G02*
X161525000Y-47043750I0J-243750D01*
G01*
X161525000Y-47531250D01*
G75*
G02*
X161281250Y-47775000I-243750J0D01*
G01*
X160718750Y-47775000D01*
G75*
G02*
X160475000Y-47531250I0J243750D01*
G01*
X160475000Y-47043750D01*
G75*
G02*
X160718750Y-46800000I243750J0D01*
G01*
G37*
%TD*%
%TO.C,C6*%
G36*
G01*
X114281250Y-68275000D02*
X113718750Y-68275000D01*
G75*
G02*
X113475000Y-68031250I0J243750D01*
G01*
X113475000Y-67543750D01*
G75*
G02*
X113718750Y-67300000I243750J0D01*
G01*
X114281250Y-67300000D01*
G75*
G02*
X114525000Y-67543750I0J-243750D01*
G01*
X114525000Y-68031250D01*
G75*
G02*
X114281250Y-68275000I-243750J0D01*
G01*
G37*
G36*
G01*
X114281250Y-66700000D02*
X113718750Y-66700000D01*
G75*
G02*
X113475000Y-66456250I0J243750D01*
G01*
X113475000Y-65968750D01*
G75*
G02*
X113718750Y-65725000I243750J0D01*
G01*
X114281250Y-65725000D01*
G75*
G02*
X114525000Y-65968750I0J-243750D01*
G01*
X114525000Y-66456250D01*
G75*
G02*
X114281250Y-66700000I-243750J0D01*
G01*
G37*
%TD*%
%TO.C,C7*%
G36*
G01*
X114281250Y-53700000D02*
X113718750Y-53700000D01*
G75*
G02*
X113475000Y-53456250I0J243750D01*
G01*
X113475000Y-52968750D01*
G75*
G02*
X113718750Y-52725000I243750J0D01*
G01*
X114281250Y-52725000D01*
G75*
G02*
X114525000Y-52968750I0J-243750D01*
G01*
X114525000Y-53456250D01*
G75*
G02*
X114281250Y-53700000I-243750J0D01*
G01*
G37*
G36*
G01*
X114281250Y-55275000D02*
X113718750Y-55275000D01*
G75*
G02*
X113475000Y-55031250I0J243750D01*
G01*
X113475000Y-54543750D01*
G75*
G02*
X113718750Y-54300000I243750J0D01*
G01*
X114281250Y-54300000D01*
G75*
G02*
X114525000Y-54543750I0J-243750D01*
G01*
X114525000Y-55031250D01*
G75*
G02*
X114281250Y-55275000I-243750J0D01*
G01*
G37*
%TD*%
%TO.C,C8*%
G36*
G01*
X192781250Y-68275000D02*
X192218750Y-68275000D01*
G75*
G02*
X191975000Y-68031250I0J243750D01*
G01*
X191975000Y-67543750D01*
G75*
G02*
X192218750Y-67300000I243750J0D01*
G01*
X192781250Y-67300000D01*
G75*
G02*
X193025000Y-67543750I0J-243750D01*
G01*
X193025000Y-68031250D01*
G75*
G02*
X192781250Y-68275000I-243750J0D01*
G01*
G37*
G36*
G01*
X192781250Y-66700000D02*
X192218750Y-66700000D01*
G75*
G02*
X191975000Y-66456250I0J243750D01*
G01*
X191975000Y-65968750D01*
G75*
G02*
X192218750Y-65725000I243750J0D01*
G01*
X192781250Y-65725000D01*
G75*
G02*
X193025000Y-65968750I0J-243750D01*
G01*
X193025000Y-66456250D01*
G75*
G02*
X192781250Y-66700000I-243750J0D01*
G01*
G37*
%TD*%
%TO.C,C9*%
G36*
G01*
X192781250Y-53700000D02*
X192218750Y-53700000D01*
G75*
G02*
X191975000Y-53456250I0J243750D01*
G01*
X191975000Y-52968750D01*
G75*
G02*
X192218750Y-52725000I243750J0D01*
G01*
X192781250Y-52725000D01*
G75*
G02*
X193025000Y-52968750I0J-243750D01*
G01*
X193025000Y-53456250D01*
G75*
G02*
X192781250Y-53700000I-243750J0D01*
G01*
G37*
G36*
G01*
X192781250Y-55275000D02*
X192218750Y-55275000D01*
G75*
G02*
X191975000Y-55031250I0J243750D01*
G01*
X191975000Y-54543750D01*
G75*
G02*
X192218750Y-54300000I243750J0D01*
G01*
X192781250Y-54300000D01*
G75*
G02*
X193025000Y-54543750I0J-243750D01*
G01*
X193025000Y-55031250D01*
G75*
G02*
X192781250Y-55275000I-243750J0D01*
G01*
G37*
%TD*%
%TO.C,C12*%
G36*
G01*
X43718750Y-95225000D02*
X44281250Y-95225000D01*
G75*
G02*
X44525000Y-95468750I0J-243750D01*
G01*
X44525000Y-95956250D01*
G75*
G02*
X44281250Y-96200000I-243750J0D01*
G01*
X43718750Y-96200000D01*
G75*
G02*
X43475000Y-95956250I0J243750D01*
G01*
X43475000Y-95468750D01*
G75*
G02*
X43718750Y-95225000I243750J0D01*
G01*
G37*
G36*
G01*
X43718750Y-96800000D02*
X44281250Y-96800000D01*
G75*
G02*
X44525000Y-97043750I0J-243750D01*
G01*
X44525000Y-97531250D01*
G75*
G02*
X44281250Y-97775000I-243750J0D01*
G01*
X43718750Y-97775000D01*
G75*
G02*
X43475000Y-97531250I0J243750D01*
G01*
X43475000Y-97043750D01*
G75*
G02*
X43718750Y-96800000I243750J0D01*
G01*
G37*
%TD*%
%TO.C,C13*%
G36*
G01*
X81718750Y-96800000D02*
X82281250Y-96800000D01*
G75*
G02*
X82525000Y-97043750I0J-243750D01*
G01*
X82525000Y-97531250D01*
G75*
G02*
X82281250Y-97775000I-243750J0D01*
G01*
X81718750Y-97775000D01*
G75*
G02*
X81475000Y-97531250I0J243750D01*
G01*
X81475000Y-97043750D01*
G75*
G02*
X81718750Y-96800000I243750J0D01*
G01*
G37*
G36*
G01*
X81718750Y-95225000D02*
X82281250Y-95225000D01*
G75*
G02*
X82525000Y-95468750I0J-243750D01*
G01*
X82525000Y-95956250D01*
G75*
G02*
X82281250Y-96200000I-243750J0D01*
G01*
X81718750Y-96200000D01*
G75*
G02*
X81475000Y-95956250I0J243750D01*
G01*
X81475000Y-95468750D01*
G75*
G02*
X81718750Y-95225000I243750J0D01*
G01*
G37*
%TD*%
%TO.C,C14*%
G36*
G01*
X122908750Y-96800000D02*
X123471250Y-96800000D01*
G75*
G02*
X123715000Y-97043750I0J-243750D01*
G01*
X123715000Y-97531250D01*
G75*
G02*
X123471250Y-97775000I-243750J0D01*
G01*
X122908750Y-97775000D01*
G75*
G02*
X122665000Y-97531250I0J243750D01*
G01*
X122665000Y-97043750D01*
G75*
G02*
X122908750Y-96800000I243750J0D01*
G01*
G37*
G36*
G01*
X122908750Y-95225000D02*
X123471250Y-95225000D01*
G75*
G02*
X123715000Y-95468750I0J-243750D01*
G01*
X123715000Y-95956250D01*
G75*
G02*
X123471250Y-96200000I-243750J0D01*
G01*
X122908750Y-96200000D01*
G75*
G02*
X122665000Y-95956250I0J243750D01*
G01*
X122665000Y-95468750D01*
G75*
G02*
X122908750Y-95225000I243750J0D01*
G01*
G37*
%TD*%
%TO.C,C15*%
G36*
G01*
X160718750Y-96800000D02*
X161281250Y-96800000D01*
G75*
G02*
X161525000Y-97043750I0J-243750D01*
G01*
X161525000Y-97531250D01*
G75*
G02*
X161281250Y-97775000I-243750J0D01*
G01*
X160718750Y-97775000D01*
G75*
G02*
X160475000Y-97531250I0J243750D01*
G01*
X160475000Y-97043750D01*
G75*
G02*
X160718750Y-96800000I243750J0D01*
G01*
G37*
G36*
G01*
X160718750Y-95225000D02*
X161281250Y-95225000D01*
G75*
G02*
X161525000Y-95468750I0J-243750D01*
G01*
X161525000Y-95956250D01*
G75*
G02*
X161281250Y-96200000I-243750J0D01*
G01*
X160718750Y-96200000D01*
G75*
G02*
X160475000Y-95956250I0J243750D01*
G01*
X160475000Y-95468750D01*
G75*
G02*
X160718750Y-95225000I243750J0D01*
G01*
G37*
%TD*%
%TO.C,C16*%
G36*
G01*
X114281250Y-116700000D02*
X113718750Y-116700000D01*
G75*
G02*
X113475000Y-116456250I0J243750D01*
G01*
X113475000Y-115968750D01*
G75*
G02*
X113718750Y-115725000I243750J0D01*
G01*
X114281250Y-115725000D01*
G75*
G02*
X114525000Y-115968750I0J-243750D01*
G01*
X114525000Y-116456250D01*
G75*
G02*
X114281250Y-116700000I-243750J0D01*
G01*
G37*
G36*
G01*
X114281250Y-118275000D02*
X113718750Y-118275000D01*
G75*
G02*
X113475000Y-118031250I0J243750D01*
G01*
X113475000Y-117543750D01*
G75*
G02*
X113718750Y-117300000I243750J0D01*
G01*
X114281250Y-117300000D01*
G75*
G02*
X114525000Y-117543750I0J-243750D01*
G01*
X114525000Y-118031250D01*
G75*
G02*
X114281250Y-118275000I-243750J0D01*
G01*
G37*
%TD*%
%TO.C,C17*%
G36*
G01*
X114281250Y-105275000D02*
X113718750Y-105275000D01*
G75*
G02*
X113475000Y-105031250I0J243750D01*
G01*
X113475000Y-104543750D01*
G75*
G02*
X113718750Y-104300000I243750J0D01*
G01*
X114281250Y-104300000D01*
G75*
G02*
X114525000Y-104543750I0J-243750D01*
G01*
X114525000Y-105031250D01*
G75*
G02*
X114281250Y-105275000I-243750J0D01*
G01*
G37*
G36*
G01*
X114281250Y-103700000D02*
X113718750Y-103700000D01*
G75*
G02*
X113475000Y-103456250I0J243750D01*
G01*
X113475000Y-102968750D01*
G75*
G02*
X113718750Y-102725000I243750J0D01*
G01*
X114281250Y-102725000D01*
G75*
G02*
X114525000Y-102968750I0J-243750D01*
G01*
X114525000Y-103456250D01*
G75*
G02*
X114281250Y-103700000I-243750J0D01*
G01*
G37*
%TD*%
%TO.C,C18*%
G36*
G01*
X192781250Y-118275000D02*
X192218750Y-118275000D01*
G75*
G02*
X191975000Y-118031250I0J243750D01*
G01*
X191975000Y-117543750D01*
G75*
G02*
X192218750Y-117300000I243750J0D01*
G01*
X192781250Y-117300000D01*
G75*
G02*
X193025000Y-117543750I0J-243750D01*
G01*
X193025000Y-118031250D01*
G75*
G02*
X192781250Y-118275000I-243750J0D01*
G01*
G37*
G36*
G01*
X192781250Y-116700000D02*
X192218750Y-116700000D01*
G75*
G02*
X191975000Y-116456250I0J243750D01*
G01*
X191975000Y-115968750D01*
G75*
G02*
X192218750Y-115725000I243750J0D01*
G01*
X192781250Y-115725000D01*
G75*
G02*
X193025000Y-115968750I0J-243750D01*
G01*
X193025000Y-116456250D01*
G75*
G02*
X192781250Y-116700000I-243750J0D01*
G01*
G37*
%TD*%
%TO.C,C19*%
G36*
G01*
X192781250Y-105275000D02*
X192218750Y-105275000D01*
G75*
G02*
X191975000Y-105031250I0J243750D01*
G01*
X191975000Y-104543750D01*
G75*
G02*
X192218750Y-104300000I243750J0D01*
G01*
X192781250Y-104300000D01*
G75*
G02*
X193025000Y-104543750I0J-243750D01*
G01*
X193025000Y-105031250D01*
G75*
G02*
X192781250Y-105275000I-243750J0D01*
G01*
G37*
G36*
G01*
X192781250Y-103700000D02*
X192218750Y-103700000D01*
G75*
G02*
X191975000Y-103456250I0J243750D01*
G01*
X191975000Y-102968750D01*
G75*
G02*
X192218750Y-102725000I243750J0D01*
G01*
X192781250Y-102725000D01*
G75*
G02*
X193025000Y-102968750I0J-243750D01*
G01*
X193025000Y-103456250D01*
G75*
G02*
X192781250Y-103700000I-243750J0D01*
G01*
G37*
%TD*%
%TO.C,D1*%
G36*
G01*
X39218750Y-107225000D02*
X39781250Y-107225000D01*
G75*
G02*
X40025000Y-107468750I0J-243750D01*
G01*
X40025000Y-107956250D01*
G75*
G02*
X39781250Y-108200000I-243750J0D01*
G01*
X39218750Y-108200000D01*
G75*
G02*
X38975000Y-107956250I0J243750D01*
G01*
X38975000Y-107468750D01*
G75*
G02*
X39218750Y-107225000I243750J0D01*
G01*
G37*
G36*
G01*
X39218750Y-108800000D02*
X39781250Y-108800000D01*
G75*
G02*
X40025000Y-109043750I0J-243750D01*
G01*
X40025000Y-109531250D01*
G75*
G02*
X39781250Y-109775000I-243750J0D01*
G01*
X39218750Y-109775000D01*
G75*
G02*
X38975000Y-109531250I0J243750D01*
G01*
X38975000Y-109043750D01*
G75*
G02*
X39218750Y-108800000I243750J0D01*
G01*
G37*
%TD*%
%TO.C,R1*%
G36*
G01*
X164718750Y-64725000D02*
X165281250Y-64725000D01*
G75*
G02*
X165525000Y-64968750I0J-243750D01*
G01*
X165525000Y-65456250D01*
G75*
G02*
X165281250Y-65700000I-243750J0D01*
G01*
X164718750Y-65700000D01*
G75*
G02*
X164475000Y-65456250I0J243750D01*
G01*
X164475000Y-64968750D01*
G75*
G02*
X164718750Y-64725000I243750J0D01*
G01*
G37*
G36*
G01*
X164718750Y-66300000D02*
X165281250Y-66300000D01*
G75*
G02*
X165525000Y-66543750I0J-243750D01*
G01*
X165525000Y-67031250D01*
G75*
G02*
X165281250Y-67275000I-243750J0D01*
G01*
X164718750Y-67275000D01*
G75*
G02*
X164475000Y-67031250I0J243750D01*
G01*
X164475000Y-66543750D01*
G75*
G02*
X164718750Y-66300000I243750J0D01*
G01*
G37*
%TD*%
%TO.C,R2*%
G36*
G01*
X36218750Y-108800000D02*
X36781250Y-108800000D01*
G75*
G02*
X37025000Y-109043750I0J-243750D01*
G01*
X37025000Y-109531250D01*
G75*
G02*
X36781250Y-109775000I-243750J0D01*
G01*
X36218750Y-109775000D01*
G75*
G02*
X35975000Y-109531250I0J243750D01*
G01*
X35975000Y-109043750D01*
G75*
G02*
X36218750Y-108800000I243750J0D01*
G01*
G37*
G36*
G01*
X36218750Y-107225000D02*
X36781250Y-107225000D01*
G75*
G02*
X37025000Y-107468750I0J-243750D01*
G01*
X37025000Y-107956250D01*
G75*
G02*
X36781250Y-108200000I-243750J0D01*
G01*
X36218750Y-108200000D01*
G75*
G02*
X35975000Y-107956250I0J243750D01*
G01*
X35975000Y-107468750D01*
G75*
G02*
X36218750Y-107225000I243750J0D01*
G01*
G37*
%TD*%
%TO.C,R4*%
G36*
G01*
X63281250Y-67275000D02*
X62718750Y-67275000D01*
G75*
G02*
X62475000Y-67031250I0J243750D01*
G01*
X62475000Y-66543750D01*
G75*
G02*
X62718750Y-66300000I243750J0D01*
G01*
X63281250Y-66300000D01*
G75*
G02*
X63525000Y-66543750I0J-243750D01*
G01*
X63525000Y-67031250D01*
G75*
G02*
X63281250Y-67275000I-243750J0D01*
G01*
G37*
G36*
G01*
X63281250Y-65700000D02*
X62718750Y-65700000D01*
G75*
G02*
X62475000Y-65456250I0J243750D01*
G01*
X62475000Y-64968750D01*
G75*
G02*
X62718750Y-64725000I243750J0D01*
G01*
X63281250Y-64725000D01*
G75*
G02*
X63525000Y-64968750I0J-243750D01*
G01*
X63525000Y-65456250D01*
G75*
G02*
X63281250Y-65700000I-243750J0D01*
G01*
G37*
%TD*%
%TO.C,R5*%
G36*
G01*
X111281250Y-66700000D02*
X110718750Y-66700000D01*
G75*
G02*
X110475000Y-66456250I0J243750D01*
G01*
X110475000Y-65968750D01*
G75*
G02*
X110718750Y-65725000I243750J0D01*
G01*
X111281250Y-65725000D01*
G75*
G02*
X111525000Y-65968750I0J-243750D01*
G01*
X111525000Y-66456250D01*
G75*
G02*
X111281250Y-66700000I-243750J0D01*
G01*
G37*
G36*
G01*
X111281250Y-68275000D02*
X110718750Y-68275000D01*
G75*
G02*
X110475000Y-68031250I0J243750D01*
G01*
X110475000Y-67543750D01*
G75*
G02*
X110718750Y-67300000I243750J0D01*
G01*
X111281250Y-67300000D01*
G75*
G02*
X111525000Y-67543750I0J-243750D01*
G01*
X111525000Y-68031250D01*
G75*
G02*
X111281250Y-68275000I-243750J0D01*
G01*
G37*
%TD*%
%TO.C,R6*%
G36*
G01*
X111281250Y-53700000D02*
X110718750Y-53700000D01*
G75*
G02*
X110475000Y-53456250I0J243750D01*
G01*
X110475000Y-52968750D01*
G75*
G02*
X110718750Y-52725000I243750J0D01*
G01*
X111281250Y-52725000D01*
G75*
G02*
X111525000Y-52968750I0J-243750D01*
G01*
X111525000Y-53456250D01*
G75*
G02*
X111281250Y-53700000I-243750J0D01*
G01*
G37*
G36*
G01*
X111281250Y-55275000D02*
X110718750Y-55275000D01*
G75*
G02*
X110475000Y-55031250I0J243750D01*
G01*
X110475000Y-54543750D01*
G75*
G02*
X110718750Y-54300000I243750J0D01*
G01*
X111281250Y-54300000D01*
G75*
G02*
X111525000Y-54543750I0J-243750D01*
G01*
X111525000Y-55031250D01*
G75*
G02*
X111281250Y-55275000I-243750J0D01*
G01*
G37*
%TD*%
%TO.C,R7*%
G36*
G01*
X117281250Y-66700000D02*
X116718750Y-66700000D01*
G75*
G02*
X116475000Y-66456250I0J243750D01*
G01*
X116475000Y-65968750D01*
G75*
G02*
X116718750Y-65725000I243750J0D01*
G01*
X117281250Y-65725000D01*
G75*
G02*
X117525000Y-65968750I0J-243750D01*
G01*
X117525000Y-66456250D01*
G75*
G02*
X117281250Y-66700000I-243750J0D01*
G01*
G37*
G36*
G01*
X117281250Y-68275000D02*
X116718750Y-68275000D01*
G75*
G02*
X116475000Y-68031250I0J243750D01*
G01*
X116475000Y-67543750D01*
G75*
G02*
X116718750Y-67300000I243750J0D01*
G01*
X117281250Y-67300000D01*
G75*
G02*
X117525000Y-67543750I0J-243750D01*
G01*
X117525000Y-68031250D01*
G75*
G02*
X117281250Y-68275000I-243750J0D01*
G01*
G37*
%TD*%
%TO.C,R8*%
G36*
G01*
X117281250Y-55275000D02*
X116718750Y-55275000D01*
G75*
G02*
X116475000Y-55031250I0J243750D01*
G01*
X116475000Y-54543750D01*
G75*
G02*
X116718750Y-54300000I243750J0D01*
G01*
X117281250Y-54300000D01*
G75*
G02*
X117525000Y-54543750I0J-243750D01*
G01*
X117525000Y-55031250D01*
G75*
G02*
X117281250Y-55275000I-243750J0D01*
G01*
G37*
G36*
G01*
X117281250Y-53700000D02*
X116718750Y-53700000D01*
G75*
G02*
X116475000Y-53456250I0J243750D01*
G01*
X116475000Y-52968750D01*
G75*
G02*
X116718750Y-52725000I243750J0D01*
G01*
X117281250Y-52725000D01*
G75*
G02*
X117525000Y-52968750I0J-243750D01*
G01*
X117525000Y-53456250D01*
G75*
G02*
X117281250Y-53700000I-243750J0D01*
G01*
G37*
%TD*%
%TO.C,R9*%
G36*
G01*
X189218750Y-67300000D02*
X189781250Y-67300000D01*
G75*
G02*
X190025000Y-67543750I0J-243750D01*
G01*
X190025000Y-68031250D01*
G75*
G02*
X189781250Y-68275000I-243750J0D01*
G01*
X189218750Y-68275000D01*
G75*
G02*
X188975000Y-68031250I0J243750D01*
G01*
X188975000Y-67543750D01*
G75*
G02*
X189218750Y-67300000I243750J0D01*
G01*
G37*
G36*
G01*
X189218750Y-65725000D02*
X189781250Y-65725000D01*
G75*
G02*
X190025000Y-65968750I0J-243750D01*
G01*
X190025000Y-66456250D01*
G75*
G02*
X189781250Y-66700000I-243750J0D01*
G01*
X189218750Y-66700000D01*
G75*
G02*
X188975000Y-66456250I0J243750D01*
G01*
X188975000Y-65968750D01*
G75*
G02*
X189218750Y-65725000I243750J0D01*
G01*
G37*
%TD*%
%TO.C,R10*%
G36*
G01*
X189781250Y-55275000D02*
X189218750Y-55275000D01*
G75*
G02*
X188975000Y-55031250I0J243750D01*
G01*
X188975000Y-54543750D01*
G75*
G02*
X189218750Y-54300000I243750J0D01*
G01*
X189781250Y-54300000D01*
G75*
G02*
X190025000Y-54543750I0J-243750D01*
G01*
X190025000Y-55031250D01*
G75*
G02*
X189781250Y-55275000I-243750J0D01*
G01*
G37*
G36*
G01*
X189781250Y-53700000D02*
X189218750Y-53700000D01*
G75*
G02*
X188975000Y-53456250I0J243750D01*
G01*
X188975000Y-52968750D01*
G75*
G02*
X189218750Y-52725000I243750J0D01*
G01*
X189781250Y-52725000D01*
G75*
G02*
X190025000Y-52968750I0J-243750D01*
G01*
X190025000Y-53456250D01*
G75*
G02*
X189781250Y-53700000I-243750J0D01*
G01*
G37*
%TD*%
%TO.C,R11*%
G36*
G01*
X195781250Y-68275000D02*
X195218750Y-68275000D01*
G75*
G02*
X194975000Y-68031250I0J243750D01*
G01*
X194975000Y-67543750D01*
G75*
G02*
X195218750Y-67300000I243750J0D01*
G01*
X195781250Y-67300000D01*
G75*
G02*
X196025000Y-67543750I0J-243750D01*
G01*
X196025000Y-68031250D01*
G75*
G02*
X195781250Y-68275000I-243750J0D01*
G01*
G37*
G36*
G01*
X195781250Y-66700000D02*
X195218750Y-66700000D01*
G75*
G02*
X194975000Y-66456250I0J243750D01*
G01*
X194975000Y-65968750D01*
G75*
G02*
X195218750Y-65725000I243750J0D01*
G01*
X195781250Y-65725000D01*
G75*
G02*
X196025000Y-65968750I0J-243750D01*
G01*
X196025000Y-66456250D01*
G75*
G02*
X195781250Y-66700000I-243750J0D01*
G01*
G37*
%TD*%
%TO.C,R12*%
G36*
G01*
X195781250Y-53700000D02*
X195218750Y-53700000D01*
G75*
G02*
X194975000Y-53456250I0J243750D01*
G01*
X194975000Y-52968750D01*
G75*
G02*
X195218750Y-52725000I243750J0D01*
G01*
X195781250Y-52725000D01*
G75*
G02*
X196025000Y-52968750I0J-243750D01*
G01*
X196025000Y-53456250D01*
G75*
G02*
X195781250Y-53700000I-243750J0D01*
G01*
G37*
G36*
G01*
X195781250Y-55275000D02*
X195218750Y-55275000D01*
G75*
G02*
X194975000Y-55031250I0J243750D01*
G01*
X194975000Y-54543750D01*
G75*
G02*
X195218750Y-54300000I243750J0D01*
G01*
X195781250Y-54300000D01*
G75*
G02*
X196025000Y-54543750I0J-243750D01*
G01*
X196025000Y-55031250D01*
G75*
G02*
X195781250Y-55275000I-243750J0D01*
G01*
G37*
%TD*%
%TO.C,R19*%
G36*
G01*
X63281250Y-117275000D02*
X62718750Y-117275000D01*
G75*
G02*
X62475000Y-117031250I0J243750D01*
G01*
X62475000Y-116543750D01*
G75*
G02*
X62718750Y-116300000I243750J0D01*
G01*
X63281250Y-116300000D01*
G75*
G02*
X63525000Y-116543750I0J-243750D01*
G01*
X63525000Y-117031250D01*
G75*
G02*
X63281250Y-117275000I-243750J0D01*
G01*
G37*
G36*
G01*
X63281250Y-115700000D02*
X62718750Y-115700000D01*
G75*
G02*
X62475000Y-115456250I0J243750D01*
G01*
X62475000Y-114968750D01*
G75*
G02*
X62718750Y-114725000I243750J0D01*
G01*
X63281250Y-114725000D01*
G75*
G02*
X63525000Y-114968750I0J-243750D01*
G01*
X63525000Y-115456250D01*
G75*
G02*
X63281250Y-115700000I-243750J0D01*
G01*
G37*
%TD*%
%TO.C,R21*%
G36*
G01*
X111281250Y-116700000D02*
X110718750Y-116700000D01*
G75*
G02*
X110475000Y-116456250I0J243750D01*
G01*
X110475000Y-115968750D01*
G75*
G02*
X110718750Y-115725000I243750J0D01*
G01*
X111281250Y-115725000D01*
G75*
G02*
X111525000Y-115968750I0J-243750D01*
G01*
X111525000Y-116456250D01*
G75*
G02*
X111281250Y-116700000I-243750J0D01*
G01*
G37*
G36*
G01*
X111281250Y-118275000D02*
X110718750Y-118275000D01*
G75*
G02*
X110475000Y-118031250I0J243750D01*
G01*
X110475000Y-117543750D01*
G75*
G02*
X110718750Y-117300000I243750J0D01*
G01*
X111281250Y-117300000D01*
G75*
G02*
X111525000Y-117543750I0J-243750D01*
G01*
X111525000Y-118031250D01*
G75*
G02*
X111281250Y-118275000I-243750J0D01*
G01*
G37*
%TD*%
%TO.C,R22*%
G36*
G01*
X111281250Y-105275000D02*
X110718750Y-105275000D01*
G75*
G02*
X110475000Y-105031250I0J243750D01*
G01*
X110475000Y-104543750D01*
G75*
G02*
X110718750Y-104300000I243750J0D01*
G01*
X111281250Y-104300000D01*
G75*
G02*
X111525000Y-104543750I0J-243750D01*
G01*
X111525000Y-105031250D01*
G75*
G02*
X111281250Y-105275000I-243750J0D01*
G01*
G37*
G36*
G01*
X111281250Y-103700000D02*
X110718750Y-103700000D01*
G75*
G02*
X110475000Y-103456250I0J243750D01*
G01*
X110475000Y-102968750D01*
G75*
G02*
X110718750Y-102725000I243750J0D01*
G01*
X111281250Y-102725000D01*
G75*
G02*
X111525000Y-102968750I0J-243750D01*
G01*
X111525000Y-103456250D01*
G75*
G02*
X111281250Y-103700000I-243750J0D01*
G01*
G37*
%TD*%
%TO.C,R23*%
G36*
G01*
X117281250Y-118275000D02*
X116718750Y-118275000D01*
G75*
G02*
X116475000Y-118031250I0J243750D01*
G01*
X116475000Y-117543750D01*
G75*
G02*
X116718750Y-117300000I243750J0D01*
G01*
X117281250Y-117300000D01*
G75*
G02*
X117525000Y-117543750I0J-243750D01*
G01*
X117525000Y-118031250D01*
G75*
G02*
X117281250Y-118275000I-243750J0D01*
G01*
G37*
G36*
G01*
X117281250Y-116700000D02*
X116718750Y-116700000D01*
G75*
G02*
X116475000Y-116456250I0J243750D01*
G01*
X116475000Y-115968750D01*
G75*
G02*
X116718750Y-115725000I243750J0D01*
G01*
X117281250Y-115725000D01*
G75*
G02*
X117525000Y-115968750I0J-243750D01*
G01*
X117525000Y-116456250D01*
G75*
G02*
X117281250Y-116700000I-243750J0D01*
G01*
G37*
%TD*%
%TO.C,R24*%
G36*
G01*
X117281250Y-103700000D02*
X116718750Y-103700000D01*
G75*
G02*
X116475000Y-103456250I0J243750D01*
G01*
X116475000Y-102968750D01*
G75*
G02*
X116718750Y-102725000I243750J0D01*
G01*
X117281250Y-102725000D01*
G75*
G02*
X117525000Y-102968750I0J-243750D01*
G01*
X117525000Y-103456250D01*
G75*
G02*
X117281250Y-103700000I-243750J0D01*
G01*
G37*
G36*
G01*
X117281250Y-105275000D02*
X116718750Y-105275000D01*
G75*
G02*
X116475000Y-105031250I0J243750D01*
G01*
X116475000Y-104543750D01*
G75*
G02*
X116718750Y-104300000I243750J0D01*
G01*
X117281250Y-104300000D01*
G75*
G02*
X117525000Y-104543750I0J-243750D01*
G01*
X117525000Y-105031250D01*
G75*
G02*
X117281250Y-105275000I-243750J0D01*
G01*
G37*
%TD*%
%TO.C,R25*%
G36*
G01*
X189781250Y-118275000D02*
X189218750Y-118275000D01*
G75*
G02*
X188975000Y-118031250I0J243750D01*
G01*
X188975000Y-117543750D01*
G75*
G02*
X189218750Y-117300000I243750J0D01*
G01*
X189781250Y-117300000D01*
G75*
G02*
X190025000Y-117543750I0J-243750D01*
G01*
X190025000Y-118031250D01*
G75*
G02*
X189781250Y-118275000I-243750J0D01*
G01*
G37*
G36*
G01*
X189781250Y-116700000D02*
X189218750Y-116700000D01*
G75*
G02*
X188975000Y-116456250I0J243750D01*
G01*
X188975000Y-115968750D01*
G75*
G02*
X189218750Y-115725000I243750J0D01*
G01*
X189781250Y-115725000D01*
G75*
G02*
X190025000Y-115968750I0J-243750D01*
G01*
X190025000Y-116456250D01*
G75*
G02*
X189781250Y-116700000I-243750J0D01*
G01*
G37*
%TD*%
%TO.C,R26*%
G36*
G01*
X189781250Y-103700000D02*
X189218750Y-103700000D01*
G75*
G02*
X188975000Y-103456250I0J243750D01*
G01*
X188975000Y-102968750D01*
G75*
G02*
X189218750Y-102725000I243750J0D01*
G01*
X189781250Y-102725000D01*
G75*
G02*
X190025000Y-102968750I0J-243750D01*
G01*
X190025000Y-103456250D01*
G75*
G02*
X189781250Y-103700000I-243750J0D01*
G01*
G37*
G36*
G01*
X189781250Y-105275000D02*
X189218750Y-105275000D01*
G75*
G02*
X188975000Y-105031250I0J243750D01*
G01*
X188975000Y-104543750D01*
G75*
G02*
X189218750Y-104300000I243750J0D01*
G01*
X189781250Y-104300000D01*
G75*
G02*
X190025000Y-104543750I0J-243750D01*
G01*
X190025000Y-105031250D01*
G75*
G02*
X189781250Y-105275000I-243750J0D01*
G01*
G37*
%TD*%
%TO.C,R27*%
G36*
G01*
X195781250Y-116700000D02*
X195218750Y-116700000D01*
G75*
G02*
X194975000Y-116456250I0J243750D01*
G01*
X194975000Y-115968750D01*
G75*
G02*
X195218750Y-115725000I243750J0D01*
G01*
X195781250Y-115725000D01*
G75*
G02*
X196025000Y-115968750I0J-243750D01*
G01*
X196025000Y-116456250D01*
G75*
G02*
X195781250Y-116700000I-243750J0D01*
G01*
G37*
G36*
G01*
X195781250Y-118275000D02*
X195218750Y-118275000D01*
G75*
G02*
X194975000Y-118031250I0J243750D01*
G01*
X194975000Y-117543750D01*
G75*
G02*
X195218750Y-117300000I243750J0D01*
G01*
X195781250Y-117300000D01*
G75*
G02*
X196025000Y-117543750I0J-243750D01*
G01*
X196025000Y-118031250D01*
G75*
G02*
X195781250Y-118275000I-243750J0D01*
G01*
G37*
%TD*%
%TO.C,R28*%
G36*
G01*
X195781250Y-105275000D02*
X195218750Y-105275000D01*
G75*
G02*
X194975000Y-105031250I0J243750D01*
G01*
X194975000Y-104543750D01*
G75*
G02*
X195218750Y-104300000I243750J0D01*
G01*
X195781250Y-104300000D01*
G75*
G02*
X196025000Y-104543750I0J-243750D01*
G01*
X196025000Y-105031250D01*
G75*
G02*
X195781250Y-105275000I-243750J0D01*
G01*
G37*
G36*
G01*
X195781250Y-103700000D02*
X195218750Y-103700000D01*
G75*
G02*
X194975000Y-103456250I0J243750D01*
G01*
X194975000Y-102968750D01*
G75*
G02*
X195218750Y-102725000I243750J0D01*
G01*
X195781250Y-102725000D01*
G75*
G02*
X196025000Y-102968750I0J-243750D01*
G01*
X196025000Y-103456250D01*
G75*
G02*
X195781250Y-103700000I-243750J0D01*
G01*
G37*
%TD*%
M02*
